<svg xmlns="http://www.w3.org/2000/svg" viewBox="0 0 80 80" width="80" height="80">
<path d="M33 90 L34 92 L38 93 L37 94 L36 94 L35 94 L33 93 L33 90 Z M48 59 L47 65 L49 66 L49 67 L49 68 L49 69 L48 70 L46 71 L42 71 L42 74 L41 74 L40 74 L38 74 L38 74 L38 76 L39 76 L40 76 L40 76 L38 78 L37 80 L36 80 L35 81 L34 82 L36 83 L37 83 L37 84 L35 85 L34 87 L32 88 L33 89 L34 90 L28 89 L28 89 L28 88 L27 88 L26 87 L26 86 L27 85 L28 84 L28 84 L29 81 L29 80 L29 79 L29 79 L29 78 L28 78 L28 76 L29 76 L28 74 L29 71 L30 71 L29 68 L31 67 L31 66 L31 65 L31 64 L30 61 L31 59 L31 58 L32 57 L33 55 L33 54 L33 51 L35 51 L35 49 L36 48 L38 48 L39 49 L39 48 L41 48 L44 50 L48 52 L48 53 L47 55 L50 56 L51 55 L52 54 L52 53 L53 53 L54 54 L54 55 L52 56 L48 59 Z" fill="#444444" stroke="#222222" stroke-width="0.3"/>
<path d="M33 90 L33 93 L35 94 L34 94 L30 94 L26 92 L25 91 L30 92 L31 91 L32 90 L33 90 Z M32 42 L32 44 L33 44 L33 46 L34 49 L35 49 L35 49 L35 51 L33 51 L33 54 L33 55 L32 57 L31 58 L31 59 L30 61 L31 64 L31 65 L31 66 L31 67 L29 68 L30 71 L29 71 L28 74 L29 76 L28 76 L28 78 L29 78 L29 79 L29 79 L29 80 L29 81 L28 84 L28 84 L27 85 L26 86 L26 87 L27 88 L28 88 L28 89 L28 89 L33 90 L32 90 L30 91 L30 92 L29 92 L24 90 L23 85 L24 84 L25 82 L23 82 L25 81 L25 79 L27 79 L27 76 L26 76 L26 78 L25 77 L26 73 L27 72 L26 69 L27 69 L29 62 L29 60 L29 59 L29 57 L30 56 L31 47 L31 43 L32 42 Z" fill="#444444" stroke="#222222" stroke-width="0.3"/>
<path d="M43 89 L45 88 L46 89 L47 88 L48 89 L48 89 L46 90 L45 89 L44 90 L43 89 Z" fill="#444444" stroke="#222222" stroke-width="0.3"/>
<path d="M48 59 L49 59 L54 62 L54 63 L54 63 L54 64 L54 65 L52 66 L50 66 L48 65 L47 64 L48 59 Z" fill="#444444" stroke="#222222" stroke-width="0.3"/>
<path d="M54 64 L54 63 L54 63 L54 62 L49 59 L48 59 L52 56 L54 55 L54 54 L53 53 L52 53 L53 51 L51 51 L51 48 L48 48 L48 46 L47 45 L48 45 L48 44 L48 43 L48 42 L47 41 L47 40 L45 40 L44 38 L45 38 L44 36 L43 36 L40 35 L39 35 L37 33 L38 31 L36 31 L33 33 L30 33 L30 31 L29 31 L28 31 L27 31 L27 30 L27 30 L26 28 L26 27 L27 27 L27 25 L30 23 L31 23 L32 19 L31 18 L31 17 L32 17 L32 16 L31 16 L31 15 L34 15 L34 15 L35 16 L36 16 L37 16 L40 14 L39 14 L39 12 L38 12 L41 12 L44 11 L44 11 L44 10 L45 10 L45 11 L46 12 L45 14 L45 15 L46 16 L47 16 L49 15 L50 15 L50 14 L55 14 L56 12 L57 12 L58 15 L59 15 L59 16 L58 17 L58 17 L61 18 L61 19 L62 18 L66 20 L67 20 L66 21 L68 21 L71 21 L73 21 L77 24 L79 25 L79 25 L80 28 L79 30 L74 35 L74 42 L73 45 L72 46 L71 48 L70 48 L70 49 L66 50 L62 52 L61 53 L61 55 L60 57 L54 64 Z" fill="#444444" stroke="#222222" stroke-width="0.3"/>
<path d="M32 33 L33 33 L36 31 L38 31 L37 33 L39 35 L40 35 L43 36 L44 36 L45 38 L44 38 L45 40 L47 40 L47 41 L48 42 L48 43 L48 44 L48 45 L47 45 L47 45 L46 44 L42 45 L41 48 L39 48 L39 49 L38 48 L36 48 L35 49 L34 49 L33 46 L33 44 L32 44 L32 42 L32 40 L32 39 L32 39 L32 38 L33 37 L33 35 L32 33 Z" fill="#cc3333" stroke="#222222" stroke-width="0.3"/>
<path d="M31 23 L30 23 L27 25 L27 27 L26 27 L26 28 L27 30 L27 30 L27 31 L28 31 L29 31 L30 31 L30 33 L32 33 L33 35 L33 37 L32 38 L32 39 L32 39 L32 40 L31 42 L31 43 L29 42 L29 41 L23 38 L22 37 L22 36 L18 27 L15 26 L16 25 L15 24 L16 23 L17 22 L17 24 L18 24 L18 24 L19 24 L20 22 L22 21 L23 20 L24 19 L24 18 L24 17 L26 19 L27 21 L30 21 L31 21 L30 23 L31 23 Z" fill="#444444" stroke="#222222" stroke-width="0.3"/>
<path d="M35 16 L35 16 L34 15 L34 15 L31 15 L31 16 L32 16 L32 17 L31 17 L31 18 L32 19 L31 23 L30 23 L31 21 L30 21 L27 21 L26 19 L24 17 L22 17 L21 17 L19 15 L19 15 L19 14 L20 14 L21 12 L21 12 L21 9 L20 7 L20 7 L21 6 L21 6 L23 4 L23 3 L24 2 L26 2 L29 0 L29 0 L29 1 L29 1 L28 1 L27 3 L26 5 L27 5 L28 6 L28 7 L28 8 L31 8 L32 9 L35 9 L34 11 L35 13 L34 13 L35 14 L35 16 Z" fill="#444444" stroke="#222222" stroke-width="0.3"/>
<path d="M43 9 L44 11 L44 11 L41 12 L38 12 L39 12 L39 14 L40 14 L37 16 L36 16 L34 13 L35 13 L34 11 L35 9 L32 9 L31 8 L28 8 L28 7 L28 6 L27 5 L26 5 L27 3 L28 1 L29 1 L28 2 L29 3 L28 4 L29 5 L29 5 L30 4 L29 2 L31 2 L31 1 L31 1 L32 1 L33 2 L34 3 L36 3 L38 3 L39 3 L42 3 L41 3 L42 4 L43 4 L44 4 L44 5 L45 6 L44 7 L44 7 L45 8 L43 8 L43 9 Z" fill="#444444" stroke="#222222" stroke-width="0.3"/>
<path d="M50 15 L49 15 L47 16 L45 15 L45 14 L46 12 L45 11 L45 10 L44 10 L43 9 L43 8 L45 8 L44 7 L44 7 L45 6 L47 7 L47 8 L49 9 L49 10 L48 11 L48 12 L48 13 L49 13 L50 15 Z" fill="#444444" stroke="#222222" stroke-width="0.3"/>
<path d="M53 14 L50 14 L50 15 L50 15 L49 13 L48 13 L48 12 L48 11 L49 10 L49 9 L53 9 L53 11 L53 12 L53 14 Z" fill="#444444" stroke="#222222" stroke-width="0.3"/>
<path d="M24 18 L24 19 L23 20 L22 21 L20 22 L19 24 L18 24 L18 24 L17 24 L17 22 L17 21 L17 20 L17 21 L16 20 L16 19 L16 19 L17 16 L19 15 L20 16 L21 17 L22 17 L24 18 Z" fill="#444444" stroke="#222222" stroke-width="0.3"/>
<path d="M47 45 L48 46 L48 48 L51 48 L51 51 L53 51 L52 54 L51 55 L50 56 L47 55 L48 53 L48 52 L44 50 L41 48 L42 45 L46 44 L47 45 Z" fill="#444444" stroke="#222222" stroke-width="0.3"/>
</svg>