<svg xmlns="http://www.w3.org/2000/svg" viewBox="0 0 80 80" width="80" height="80">
<path d="M63 26 L84 38 L84 41 L92 47 L90 54 L90 57 L94 59 L92 69 L99 79 L94 82 L77 87 L66 86 L65 78 L62 74 L45 68 L42 61 L38 57 L37 46 L39 46 L45 40 L43 34 L45 34 L45 30 L43 27 L63 26 Z" fill="#444444" stroke="#222222" stroke-width="0.3"/>
<path d="M-177 -135 L-177 -125 L-196 -125 L-196 -111 L-201 -110 L-202 -108 L-201 -99 L-223 -99 L-225 -98 L-224 -100 L-211 -100 L-207 -113 L-199 -119 L-196 -126 L-194 -126 L-193 -131 L-178 -132 L-177 -135 Z" fill="#444444" stroke="#222222" stroke-width="0.3"/>
<path d="M35 37 L38 57 L42 61 L45 68 L34 69 L32 72 L33 75 L31 87 L37 90 L38 89 L39 95 L35 95 L30 90 L26 89 L25 86 L21 88 L17 87 L15 85 L9 84 L8 82 L-4 83 L-6 62 L-13 62 L-12 60 L-15 60 L-19 61 L-21 66 L-30 66 L-36 54 L-59 55 L-60 53 L-57 49 L-52 46 L-49 46 L-46 49 L-38 41 L-38 36 L-36 31 L-29 23 L-24 -3 L-19 -8 L-2 -2 L0 -6 L3 -5 L9 -8 L13 -7 L16 -9 L26 -9 L29 -4 L32 -3 L39 -5 L45 1 L45 8 L47 8 L40 17 L35 37 Z" fill="#444444" stroke="#222222" stroke-width="0.3"/>
<path d="M106 30 L103 26 L102 5 L109 -3 L113 -3 L118 -7 L125 -7 L147 -33 L147 -44 L160 -47 L159 -39 L156 -31 L145 -9 L134 5 L115 19 L106 30 Z" fill="#444444" stroke="#222222" stroke-width="0.3"/>
<path d="M92 47 L84 41 L84 38 L63 26 L63 20 L69 10 L63 -3 L70 -10 L73 -9 L73 -6 L75 -4 L79 -4 L86 0 L94 1 L101 -3 L104 -1 L107 -1 L102 5 L103 26 L106 30 L98 35 L95 45 L92 47 Z" fill="#444444" stroke="#222222" stroke-width="0.3"/>
<path d="M10 -26 L6 -28 L4 -30 L4 -36 L1 -40 L-3 -51 L-5 -50 L-2 -59 L-3 -60 L1 -68 L6 -67 L6 -92 L12 -92 L12 -103 L79 -103 L83 -84 L88 -81 L79 -75 L76 -56 L67 -41 L65 -39 L63 -28 L62 -37 L59 -40 L59 -48 L56 -48 L52 -47 L54 -42 L48 -35 L45 -34 L41 -37 L35 -32 L22 -33 L17 -38 L13 -37 L10 -30 L6 -28 L10 -26 Z" fill="#444444" stroke="#222222" stroke-width="0.3"/>
<path d="M6 -90 L6 -67 L1 -68 L-3 -60 L-2 -59 L-5 -50 L-3 -51 L0 -42 L-6 -39 L-10 -33 L-15 -30 L-22 -30 L-22 -28 L-27 -24 L-42 -21 L-41 -23 L-44 -29 L-50 -33 L-49 -36 L-41 -36 L-44 -41 L-46 -54 L-50 -55 L-50 -58 L-52 -60 L-50 -68 L-42 -73 L-39 -94 L-43 -99 L-45 -108 L-39 -111 L6 -90 Z" fill="#444444" stroke="#222222" stroke-width="0.3"/>
<path d="M-36 182 L-34 179 L-30 183 L-24 184 L-16 181 L-16 160 L-11 166 L-11 172 L-7 171 L3 163 L8 165 L16 164 L18 160 L21 159 L24 154 L37 145 L47 146 L52 158 L51 166 L47 166 L44 171 L48 174 L51 174 L52 171 L57 171 L53 183 L31 205 L17 212 L-1 211 L-15 217 L-25 213 L-27 204 L-26 203 L-26 199 L-36 182 Z" fill="#444444" stroke="#222222" stroke-width="0.3"/>
<path d="M32 182 L37 186 L34 190 L30 193 L28 193 L24 189 L30 183 L32 182 Z" fill="#444444" stroke="#222222" stroke-width="0.3"/>
<path d="M47 146 L37 145 L29 142 L28 136 L19 129 L14 121 L24 122 L35 111 L42 108 L43 110 L47 110 L57 115 L56 135 L47 146 Z" fill="#444444" stroke="#222222" stroke-width="0.3"/>
<path d="M37 145 L24 154 L21 159 L18 160 L16 164 L8 165 L3 163 L-7 171 L-11 172 L-11 166 L-16 160 L-16 144 L-11 144 L-11 124 L2 121 L4 124 L14 121 L19 129 L28 136 L29 142 L37 145 Z" fill="#444444" stroke="#222222" stroke-width="0.3"/>
<path d="M-16 144 L-16 181 L-24 184 L-30 183 L-34 179 L-36 182 L-43 173 L-48 145 L-62 123 L-62 118 L-53 116 L-49 119 L-25 118 L-22 121 L-8 122 L7 118 L13 120 L4 124 L2 121 L-11 124 L-11 144 L-16 144 Z" fill="#444444" stroke="#222222" stroke-width="0.3"/>
<path d="M-223 -56 L-228 -62 L-225 -63 L-219 -72 L-211 -73 L-204 -70 L-197 -62 L-193 -49 L-216 -50 L-222 -49 L-223 -53 L-206 -55 L-208 -57 L-211 -56 L-213 -57 L-223 -56 Z" fill="#444444" stroke="#222222" stroke-width="0.3"/>
<path d="M-193 -47 L-197 -62 L-194 -66 L-188 -65 L-182 -67 L-160 -67 L-158 -71 L-165 -120 L-156 -120 L-118 -95 L-117 -93 L-111 -90 L-111 -87 L-104 -87 L-104 -74 L-108 -67 L-121 -66 L-123 -64 L-134 -64 L-146 -56 L-151 -55 L-158 -45 L-159 -38 L-162 -36 L-163 -39 L-167 -36 L-174 -37 L-175 -40 L-177 -40 L-176 -43 L-180 -49 L-186 -46 L-191 -48 L-193 -47 Z" fill="#444444" stroke="#222222" stroke-width="0.3"/>
<path d="M-225 -98 L-223 -99 L-201 -99 L-202 -108 L-201 -110 L-196 -111 L-196 -125 L-177 -125 L-177 -134 L-156 -120 L-165 -120 L-158 -71 L-160 -67 L-182 -67 L-188 -65 L-194 -66 L-197 -62 L-204 -70 L-211 -73 L-219 -72 L-221 -70 L-219 -81 L-220 -92 L-225 -98 Z" fill="#444444" stroke="#222222" stroke-width="0.3"/>
<path d="M-113 -15 L-118 -14 L-119 -31 L-124 -38 L-120 -44 L-112 -48 L-108 -45 L-107 -40 L-108 -36 L-113 -27 L-113 -15 Z" fill="#444444" stroke="#222222" stroke-width="0.3"/>
<path d="M-45 -108 L-43 -99 L-39 -94 L-42 -73 L-50 -68 L-52 -60 L-50 -58 L-50 -55 L-46 -54 L-48 -50 L-55 -56 L-59 -53 L-66 -55 L-78 -52 L-84 -54 L-90 -53 L-98 -57 L-105 -56 L-108 -45 L-112 -48 L-116 -47 L-116 -50 L-123 -52 L-126 -58 L-126 -63 L-108 -67 L-104 -74 L-104 -87 L-96 -90 L-61 -112 L-52 -109 L-49 -106 L-45 -108 Z" fill="#444444" stroke="#222222" stroke-width="0.3"/>
<path d="M-113 -15 L-113 -27 L-108 -36 L-108 -50 L-104 -57 L-98 -57 L-90 -53 L-84 -54 L-78 -52 L-66 -55 L-59 -53 L-55 -56 L-46 -47 L-52 -40 L-62 -19 L-66 -17 L-71 -19 L-76 -16 L-80 -6 L-95 -3 L-104 -15 L-113 -15 Z" fill="#444444" stroke="#222222" stroke-width="0.3"/>
<path d="M-47 -52 L-44 -48 L-44 -41 L-41 -36 L-49 -36 L-50 -33 L-44 -29 L-41 -23 L-46 -14 L-47 -6 L-39 4 L-39 11 L-48 8 L-74 8 L-73 3 L-81 -5 L-79 -10 L-76 -16 L-71 -19 L-66 -17 L-62 -19 L-52 -40 L-47 -44 L-46 -47 L-48 -50 L-47 -52 Z" fill="#444444" stroke="#222222" stroke-width="0.3"/>
<path d="M-123 -41 L-124 -38 L-119 -31 L-118 -14 L-122 -13 L-125 -18 L-124 -26 L-126 -37 L-129 -40 L-128 -41 L-123 -41 Z" fill="#444444" stroke="#222222" stroke-width="0.3"/>
<path d="M-128 -41 L-124 -26 L-125 -18 L-122 -13 L-139 -6 L-144 -7 L-147 -15 L-143 -26 L-145 -41 L-128 -41 Z" fill="#444444" stroke="#222222" stroke-width="0.3"/>
<path d="M-174 -37 L-167 -36 L-163 -39 L-162 -36 L-159 -38 L-153 -33 L-148 -35 L-144 -34 L-143 -26 L-147 -15 L-144 -7 L-155 -8 L-172 -4 L-171 -11 L-177 -16 L-175 -26 L-173 -28 L-175 -34 L-174 -37 Z" fill="#444444" stroke="#222222" stroke-width="0.3"/>
<path d="M-206 -50 L-193 -49 L-193 -47 L-191 -48 L-186 -46 L-180 -49 L-176 -43 L-177 -40 L-175 -40 L-174 -37 L-175 -34 L-173 -28 L-175 -26 L-175 -23 L-180 -20 L-183 -27 L-188 -26 L-188 -32 L-191 -36 L-198 -35 L-203 -29 L-214 -41 L-211 -44 L-206 -46 L-206 -50 Z" fill="#444444" stroke="#222222" stroke-width="0.3"/>
<path d="M-222 -49 L-206 -50 L-206 -46 L-211 -44 L-214 -41 L-219 -44 L-222 -49 Z" fill="#444444" stroke="#222222" stroke-width="0.3"/>
<path d="M-176 -23 L-177 -16 L-171 -11 L-172 -4 L-179 -7 L-193 -18 L-186 -27 L-183 -27 L-180 -20 L-176 -23 Z" fill="#444444" stroke="#222222" stroke-width="0.3"/>
<path d="M-203 -29 L-198 -35 L-191 -36 L-188 -32 L-188 -26 L-186 -27 L-193 -18 L-201 -23 L-203 -29 Z" fill="#444444" stroke="#222222" stroke-width="0.3"/>
<path d="M-159 -38 L-158 -45 L-153 -50 L-153 -54 L-146 -56 L-134 -64 L-126 -63 L-126 -58 L-123 -52 L-116 -50 L-117 -45 L-123 -41 L-145 -41 L-144 -34 L-148 -35 L-153 -33 L-159 -38 Z" fill="#444444" stroke="#222222" stroke-width="0.3"/>
<path d="M26 -9 L16 -9 L11 -7 L9 -8 L3 -5 L0 -6 L-2 -2 L-19 -8 L-24 -3 L-24 1 L-32 -0 L-38 8 L-39 4 L-47 -6 L-47 -10 L-46 -14 L-42 -21 L-27 -24 L-22 -28 L-22 -30 L-15 -30 L-10 -33 L-6 -39 L0 -42 L4 -36 L4 -30 L13 -23 L21 -13 L26 -9 Z" fill="#444444" stroke="#222222" stroke-width="0.3"/>
<path d="M-24 1 L-29 23 L-36 31 L-38 36 L-38 41 L-46 49 L-49 46 L-52 46 L-54 48 L-57 46 L-61 49 L-66 43 L-62 40 L-64 36 L-58 34 L-58 32 L-55 34 L-50 35 L-47 28 L-48 24 L-50 20 L-48 14 L-54 13 L-55 8 L-39 11 L-35 3 L-32 -0 L-24 1 Z" fill="#444444" stroke="#222222" stroke-width="0.3"/>
<path d="M-65 8 L-55 8 L-54 13 L-48 14 L-50 20 L-48 24 L-47 28 L-50 35 L-55 34 L-58 32 L-58 34 L-64 36 L-62 40 L-66 43 L-79 27 L-75 15 L-65 15 L-65 8 Z" fill="#444444" stroke="#222222" stroke-width="0.3"/>
<path d="M-74 8 L-65 8 L-65 15 L-75 15 L-76 14 L-74 8 Z" fill="#444444" stroke="#222222" stroke-width="0.3"/>
<path d="M45 68 L59 75 L60 80 L58 86 L59 91 L56 98 L59 99 L42 104 L42 108 L35 111 L24 122 L14 121 L11 118 L2 119 L-5 111 L-5 93 L7 93 L6 82 L8 82 L9 84 L15 85 L17 87 L21 88 L25 86 L26 89 L30 90 L35 95 L39 95 L38 89 L37 90 L31 87 L33 75 L32 72 L35 68 L45 68 Z" fill="#444444" stroke="#222222" stroke-width="0.3"/>
<path d="M56 73 L62 74 L65 78 L66 97 L70 99 L73 103 L73 110 L71 111 L69 115 L65 112 L66 103 L56 98 L59 91 L58 86 L60 80 L56 73 Z" fill="#444444" stroke="#222222" stroke-width="0.3"/>
<path d="M66 86 L83 86 L94 82 L99 79 L101 103 L94 115 L82 120 L68 132 L67 136 L72 145 L71 157 L58 164 L55 166 L57 168 L57 171 L52 171 L51 164 L52 158 L47 146 L56 135 L57 115 L47 110 L43 110 L42 104 L59 99 L66 103 L65 112 L69 115 L71 111 L73 110 L73 103 L70 99 L66 97 L65 90 L66 86 Z" fill="#444444" stroke="#222222" stroke-width="0.3"/>
<path d="M52 171 L51 174 L48 174 L44 171 L47 166 L51 166 L52 171 Z" fill="#444444" stroke="#222222" stroke-width="0.3"/>
<path d="M-55 48 L-57 49 L-60 53 L-61 49 L-57 46 L-55 48 Z M-59 55 L-36 54 L-30 66 L-21 66 L-19 61 L-15 60 L-12 60 L-13 62 L-6 62 L-4 83 L4 82 L6 82 L7 84 L7 93 L-5 93 L-5 111 L2 119 L-8 122 L-22 121 L-25 118 L-49 119 L-53 116 L-62 118 L-60 102 L-52 89 L-51 84 L-56 72 L-54 69 L-59 55 Z" fill="#444444" stroke="#222222" stroke-width="0.3"/>
<path d="M43 34 L45 40 L39 46 L37 46 L35 37 L39 37 L40 34 L43 34 Z" fill="#cc3333" stroke="#222222" stroke-width="0.3"/>
<path d="M149 89 L154 97 L155 109 L154 111 L153 108 L151 109 L152 116 L137 161 L127 165 L120 161 L116 149 L116 141 L119 140 L122 130 L119 119 L122 112 L133 110 L140 103 L142 100 L141 98 L144 98 L149 89 Z" fill="#444444" stroke="#222222" stroke-width="0.3"/>
<path d="M-223 -56 L-213 -57 L-211 -56 L-208 -57 L-206 -55 L-223 -53 L-223 -56 Z" fill="#444444" stroke="#222222" stroke-width="0.3"/>
<path d="M-75 -150 L-77 -160 L-85 -167 L-86 -171 L-83 -175 L-81 -187 L-75 -190 L-71 -189 L-71 -186 L-66 -188 L-69 -184 L-69 -182 L-67 -180 L-67 -176 L-71 -173 L-70 -170 L-67 -170 L-64 -166 L-64 -162 L-72 -156 L-72 -151 L-75 -150 Z" fill="#444444" stroke="#222222" stroke-width="0.3"/>
<path d="M-177 -134 L-177 -142 L-158 -148 L-156 -151 L-149 -153 L-149 -158 L-136 -161 L-135 -163 L-141 -177 L-135 -181 L-120 -186 L-98 -186 L-93 -188 L-81 -187 L-83 -175 L-86 -171 L-85 -167 L-77 -160 L-73 -145 L-74 -129 L-76 -126 L-70 -117 L-68 -118 L-61 -112 L-96 -90 L-111 -87 L-111 -90 L-117 -93 L-118 -95 L-177 -134 Z" fill="#444444" stroke="#222222" stroke-width="0.3"/>
<path d="M77 -61 L79 -75 L88 -81 L93 -69 L114 -51 L110 -50 L102 -59 L97 -61 L92 -62 L89 -61 L85 -64 L83 -59 L77 -61 Z" fill="#444444" stroke="#222222" stroke-width="0.3"/>
<path d="M-141 -177 L-135 -163 L-136 -161 L-149 -158 L-149 -153 L-156 -151 L-158 -148 L-177 -142 L-178 -132 L-193 -131 L-199 -119 L-207 -113 L-211 -100 L-224 -100 L-218 -113 L-213 -117 L-210 -127 L-206 -129 L-199 -137 L-194 -138 L-182 -148 L-184 -155 L-181 -163 L-177 -167 L-167 -171 L-162 -181 L-158 -181 L-154 -178 L-141 -177 Z" fill="#444444" stroke="#222222" stroke-width="0.3"/>
<path d="M79 -103 L12 -103 L12 -144 L11 -149 L11 -154 L13 -157 L21 -157 L35 -153 L46 -157 L50 -156 L52 -154 L53 -155 L62 -154 L65 -155 L68 -145 L64 -136 L63 -135 L58 -139 L54 -147 L64 -127 L73 -114 L72 -109 L79 -103 Z" fill="#444444" stroke="#222222" stroke-width="0.3"/>
<path d="M12 -144 L12 -92 L6 -92 L6 -90 L-39 -111 L-49 -106 L-52 -109 L-61 -112 L-68 -118 L-70 -117 L-76 -126 L-74 -129 L-73 -142 L-75 -150 L-72 -151 L-72 -156 L-64 -162 L-64 -166 L-42 -161 L-40 -156 L-21 -150 L-15 -154 L-17 -158 L-11 -164 L1 -163 L3 -161 L12 -159 L13 -157 L11 -154 L11 -149 L12 -144 Z" fill="#444444" stroke="#222222" stroke-width="0.3"/>
<path d="M141 -24 L125 -7 L118 -7 L107 -1 L104 -1 L101 -3 L94 1 L86 0 L79 -4 L75 -4 L73 -6 L73 -9 L70 -10 L67 -16 L61 -23 L57 -23 L59 -26 L62 -26 L65 -39 L74 -50 L77 -61 L83 -59 L85 -64 L89 -61 L92 -62 L97 -61 L106 -55 L110 -50 L106 -45 L107 -42 L113 -41 L111 -39 L118 -31 L136 -24 L141 -24 Z" fill="#444444" stroke="#222222" stroke-width="0.3"/>
<path d="M110 -50 L114 -51 L116 -49 L115 -47 L112 -45 L115 -44 L113 -41 L107 -42 L106 -45 L110 -50 Z" fill="#444444" stroke="#222222" stroke-width="0.3"/>
<path d="M147 -44 L147 -33 L141 -24 L136 -24 L118 -31 L111 -39 L115 -44 L120 -38 L147 -44 Z" fill="#444444" stroke="#222222" stroke-width="0.3"/>
<path d="M63 26 L45 26 L38 28 L40 17 L47 8 L45 8 L45 1 L48 -1 L51 1 L60 -1 L63 -3 L66 1 L69 10 L63 20 L63 26 Z" fill="#444444" stroke="#222222" stroke-width="0.3"/>
<path d="M43 27 L45 30 L45 34 L40 34 L39 37 L35 37 L37 30 L43 27 Z" fill="#444444" stroke="#222222" stroke-width="0.3"/>
<path d="M45 1 L39 -5 L29 -4 L25 -11 L21 -13 L19 -16 L13 -22 L13 -23 L6 -28 L10 -30 L13 -37 L17 -38 L22 -33 L35 -32 L41 -37 L45 -34 L48 -35 L54 -42 L52 -47 L59 -48 L59 -40 L62 -37 L63 -28 L62 -26 L59 -26 L57 -23 L61 -23 L64 -20 L70 -10 L60 -1 L51 1 L48 -1 L45 1 Z" fill="#444444" stroke="#222222" stroke-width="0.3"/>
</svg>