<svg xmlns="http://www.w3.org/2000/svg" viewBox="0 0 80 80" width="80" height="80">
<path d="M64 49 L68 51 L68 52 L69 53 L69 54 L69 55 L70 55 L69 57 L71 59 L70 60 L66 61 L64 60 L64 59 L63 58 L60 57 L60 56 L59 55 L59 53 L59 53 L60 52 L60 51 L60 50 L60 50 L60 49 L64 49 Z" fill="#444444" stroke="#222222" stroke-width="0.3"/>
<path d="M17 18 L17 20 L14 20 L14 22 L13 23 L12 23 L13 25 L8 25 L8 25 L8 25 L11 25 L12 22 L13 21 L14 20 L14 20 L14 19 L17 18 L17 18 Z" fill="#444444" stroke="#222222" stroke-width="0.3"/>
<path d="M58 51 L59 55 L60 56 L60 57 L58 57 L58 58 L58 58 L58 61 L59 61 L59 61 L59 62 L58 62 L57 61 L57 61 L56 61 L56 61 L55 61 L54 60 L53 60 L53 60 L51 60 L50 56 L49 56 L49 55 L49 56 L48 56 L47 57 L46 57 L44 54 L40 55 L40 54 L40 53 L42 53 L42 53 L43 53 L44 52 L44 51 L45 50 L46 48 L47 43 L48 42 L51 44 L52 43 L52 43 L53 42 L54 43 L55 42 L57 42 L57 43 L58 43 L59 43 L60 44 L60 45 L61 46 L59 47 L58 51 Z" fill="#444444" stroke="#222222" stroke-width="0.3"/>
<path d="M72 50 L71 49 L71 45 L73 43 L73 43 L74 43 L76 42 L80 38 L80 36 L82 35 L82 36 L82 38 L80 42 L77 45 L74 48 L72 50 Z" fill="#444444" stroke="#222222" stroke-width="0.3"/>
<path d="M69 53 L68 52 L68 51 L64 49 L64 48 L65 46 L64 43 L65 42 L66 42 L66 43 L66 43 L67 43 L68 44 L70 44 L71 43 L72 44 L72 44 L71 45 L71 49 L72 50 L71 51 L70 53 L69 53 Z" fill="#444444" stroke="#222222" stroke-width="0.3"/>
<path d="M53 39 L53 39 L52 38 L52 37 L52 36 L51 34 L51 34 L51 33 L51 32 L52 31 L53 31 L53 26 L54 26 L54 24 L67 24 L68 28 L69 28 L67 29 L66 33 L65 36 L64 36 L64 38 L63 37 L63 36 L63 35 L62 35 L62 35 L62 36 L61 37 L60 37 L59 37 L58 38 L56 38 L55 37 L54 37 L53 38 L53 39 L53 39 Z" fill="#444444" stroke="#222222" stroke-width="0.3"/>
<path d="M53 27 L53 31 L52 31 L51 32 L51 33 L51 34 L51 34 L52 36 L50 36 L50 38 L49 38 L47 38 L47 39 L46 39 L43 40 L44 40 L43 38 L42 38 L42 37 L44 37 L43 36 L43 33 L42 33 L42 33 L41 32 L42 31 L43 30 L44 26 L43 25 L43 23 L44 22 L53 27 Z" fill="#444444" stroke="#222222" stroke-width="0.3"/>
<path d="M44 79 L45 79 L46 79 L47 80 L48 79 L48 75 L49 76 L49 77 L50 77 L52 75 L53 76 L55 76 L55 75 L56 75 L56 74 L59 72 L61 72 L61 74 L61 76 L61 76 L60 77 L61 78 L61 78 L62 77 L62 77 L62 79 L57 84 L55 85 L51 85 L49 86 L47 85 L46 83 L47 83 L47 82 L44 79 Z" fill="#444444" stroke="#222222" stroke-width="0.3"/>
<path d="M58 79 L59 80 L58 81 L57 81 L57 81 L56 80 L57 79 L58 79 Z" fill="#444444" stroke="#222222" stroke-width="0.3"/>
<path d="M61 72 L59 72 L57 71 L57 70 L55 69 L54 67 L56 67 L58 65 L60 65 L60 65 L61 65 L62 66 L62 70 L61 72 Z" fill="#444444" stroke="#222222" stroke-width="0.3"/>
<path d="M59 72 L56 74 L56 75 L55 75 L55 76 L53 76 L52 75 L50 77 L49 77 L49 76 L48 75 L48 72 L49 72 L49 68 L52 67 L52 68 L54 67 L55 69 L57 70 L57 71 L59 72 Z" fill="#444444" stroke="#222222" stroke-width="0.3"/>
<path d="M48 72 L48 79 L47 80 L46 79 L45 79 L44 79 L43 77 L42 72 L40 68 L39 67 L41 66 L42 67 L47 67 L47 67 L50 67 L53 67 L54 67 L52 68 L52 67 L49 68 L49 72 L48 72 Z" fill="#444444" stroke="#222222" stroke-width="0.3"/>
<path d="M8 33 L8 32 L8 32 L9 30 L11 30 L12 30 L13 32 L14 34 L10 34 L9 34 L8 34 L12 33 L11 33 L11 33 L10 33 L8 33 Z" fill="#444444" stroke="#222222" stroke-width="0.3"/>
<path d="M14 35 L13 32 L14 31 L15 31 L16 31 L21 31 L21 30 L20 21 L21 21 L29 25 L29 26 L30 26 L30 27 L31 27 L31 30 L31 31 L28 31 L28 32 L26 32 L23 33 L22 33 L21 35 L21 37 L20 37 L20 36 L19 37 L18 37 L18 36 L17 36 L18 36 L17 35 L16 35 L15 35 L14 35 Z" fill="#444444" stroke="#222222" stroke-width="0.3"/>
<path d="M8 25 L8 25 L13 25 L12 23 L13 23 L14 22 L14 20 L17 20 L17 18 L21 21 L20 21 L21 30 L21 31 L16 31 L15 31 L14 31 L13 32 L12 30 L11 30 L9 30 L9 30 L9 28 L9 26 L8 25 Z" fill="#444444" stroke="#222222" stroke-width="0.3"/>
<path d="M30 41 L29 41 L29 38 L28 37 L28 35 L30 35 L31 35 L31 36 L31 37 L30 39 L30 41 Z" fill="#444444" stroke="#222222" stroke-width="0.3"/>
<path d="M43 23 L43 25 L44 26 L43 30 L42 31 L41 32 L42 33 L42 33 L43 33 L42 34 L41 33 L40 34 L39 33 L37 34 L35 33 L34 34 L33 33 L31 33 L31 35 L30 35 L29 35 L29 34 L28 34 L27 33 L27 32 L31 31 L31 30 L31 27 L33 27 L40 22 L41 23 L42 23 L43 23 Z" fill="#444444" stroke="#222222" stroke-width="0.3"/>
<path d="M30 41 L30 39 L31 37 L31 34 L31 33 L33 33 L34 34 L35 33 L37 34 L39 33 L40 34 L41 33 L43 35 L41 36 L39 40 L39 41 L38 40 L37 41 L36 43 L33 43 L31 41 L30 41 Z" fill="#444444" stroke="#222222" stroke-width="0.3"/>
<path d="M42 34 L43 35 L43 36 L44 37 L42 37 L42 38 L43 38 L44 40 L43 41 L42 43 L44 45 L44 46 L42 46 L37 45 L37 45 L36 43 L36 42 L37 41 L38 40 L39 41 L39 40 L41 36 L42 35 L43 35 L42 34 L42 34 Z" fill="#cc3333" stroke="#222222" stroke-width="0.3"/>
<path d="M28 36 L28 37 L29 38 L29 41 L28 41 L27 40 L27 39 L27 37 L27 36 L27 36 L28 36 Z" fill="#444444" stroke="#222222" stroke-width="0.3"/>
<path d="M27 36 L27 39 L27 40 L28 41 L25 43 L24 43 L23 41 L24 39 L23 36 L27 36 Z" fill="#444444" stroke="#222222" stroke-width="0.3"/>
<path d="M18 37 L19 37 L20 36 L20 37 L21 37 L22 37 L23 37 L24 37 L24 39 L23 41 L24 43 L22 42 L18 43 L18 42 L17 41 L18 39 L18 39 L18 37 L18 37 Z" fill="#444444" stroke="#222222" stroke-width="0.3"/>
<path d="M12 34 L14 34 L14 35 L15 35 L16 35 L17 35 L18 36 L17 36 L18 36 L18 37 L18 37 L18 39 L18 39 L18 40 L17 40 L16 39 L15 39 L15 38 L15 37 L13 37 L12 38 L10 36 L11 35 L12 35 L12 34 Z" fill="#444444" stroke="#222222" stroke-width="0.3"/>
<path d="M9 34 L12 34 L12 35 L11 35 L10 36 L9 35 L9 34 Z" fill="#444444" stroke="#222222" stroke-width="0.3"/>
<path d="M18 40 L17 41 L18 42 L18 43 L17 43 L14 41 L16 39 L16 39 L17 40 L18 40 Z" fill="#444444" stroke="#222222" stroke-width="0.3"/>
<path d="M12 38 L13 37 L15 37 L15 38 L15 39 L16 39 L14 41 L13 39 L12 38 Z" fill="#444444" stroke="#222222" stroke-width="0.3"/>
<path d="M21 37 L21 35 L22 34 L22 34 L23 33 L26 32 L27 32 L27 33 L28 34 L29 34 L29 35 L28 36 L23 36 L24 37 L23 37 L22 37 L21 37 Z" fill="#444444" stroke="#222222" stroke-width="0.3"/>
<path d="M57 42 L55 42 L54 43 L53 42 L52 43 L52 43 L51 44 L48 42 L47 43 L47 44 L45 44 L44 45 L44 45 L42 43 L42 42 L43 41 L43 40 L46 39 L47 39 L47 38 L49 38 L50 38 L50 36 L52 36 L52 37 L52 38 L54 39 L56 41 L57 42 Z" fill="#444444" stroke="#222222" stroke-width="0.3"/>
<path d="M47 44 L46 48 L45 50 L44 51 L44 52 L43 53 L42 53 L42 53 L41 53 L40 53 L40 53 L39 52 L40 52 L39 51 L40 51 L40 50 L41 51 L42 51 L42 49 L42 49 L42 48 L42 47 L41 47 L41 45 L44 46 L45 44 L45 44 L47 44 Z" fill="#444444" stroke="#222222" stroke-width="0.3"/>
<path d="M39 45 L41 45 L41 47 L42 47 L42 48 L42 49 L42 49 L42 51 L41 51 L40 50 L40 51 L39 51 L40 52 L39 52 L36 49 L37 47 L39 47 L39 45 Z" fill="#444444" stroke="#222222" stroke-width="0.3"/>
<path d="M37 45 L39 45 L39 47 L37 47 L37 47 L37 45 Z" fill="#444444" stroke="#222222" stroke-width="0.3"/>
<path d="M60 57 L63 58 L63 59 L63 61 L63 61 L62 63 L63 63 L60 64 L60 65 L58 65 L56 67 L54 67 L54 67 L52 67 L51 65 L51 62 L53 62 L53 60 L53 60 L53 60 L54 60 L55 61 L56 61 L56 61 L57 61 L57 61 L58 62 L59 62 L59 61 L59 61 L58 61 L58 58 L58 58 L58 57 L60 57 Z" fill="#444444" stroke="#222222" stroke-width="0.3"/>
<path d="M62 58 L63 58 L64 59 L64 63 L65 63 L66 64 L66 65 L65 65 L65 66 L64 66 L64 64 L62 63 L63 61 L63 61 L63 59 L62 58 Z" fill="#444444" stroke="#222222" stroke-width="0.3"/>
<path d="M64 60 L68 61 L70 60 L71 59 L71 64 L70 66 L67 67 L65 69 L64 70 L65 72 L65 74 L63 76 L62 76 L63 76 L62 77 L62 77 L61 76 L61 74 L61 72 L62 70 L62 66 L61 65 L60 65 L60 64 L63 63 L64 64 L64 66 L65 66 L65 65 L66 65 L66 64 L65 63 L64 63 L64 61 L64 60 Z" fill="#444444" stroke="#222222" stroke-width="0.3"/>
<path d="M62 77 L61 78 L61 78 L60 77 L61 76 L61 76 L62 77 Z" fill="#444444" stroke="#222222" stroke-width="0.3"/>
<path d="M41 53 L40 53 L40 54 L40 53 L40 53 L41 53 Z M40 55 L44 54 L46 57 L47 57 L48 56 L49 56 L49 55 L49 56 L50 56 L51 60 L52 60 L53 60 L53 60 L53 62 L51 62 L51 65 L52 67 L50 67 L47 67 L47 67 L42 67 L41 66 L39 67 L40 64 L42 61 L42 60 L41 58 L41 57 L40 55 Z" fill="#444444" stroke="#222222" stroke-width="0.3"/>
<path d="M60 51 L60 52 L59 53 L59 53 L58 51 L59 51 L59 50 L60 51 Z" fill="#444444" stroke="#222222" stroke-width="0.3"/>
<path d="M80 61 L81 63 L82 65 L81 65 L81 65 L81 65 L81 66 L78 75 L76 76 L75 75 L74 73 L74 71 L74 71 L75 69 L75 67 L75 66 L77 65 L79 64 L79 63 L79 63 L79 63 L80 61 Z" fill="#444444" stroke="#222222" stroke-width="0.3"/>
<path d="M8 33 L10 33 L11 33 L11 33 L12 33 L8 34 L8 33 Z" fill="#444444" stroke="#222222" stroke-width="0.3"/>
<path d="M37 15 L37 13 L35 12 L35 11 L36 10 L36 8 L37 7 L38 7 L38 8 L39 8 L38 8 L38 9 L39 9 L38 10 L38 11 L38 11 L39 11 L39 12 L39 13 L38 14 L38 15 L37 15 Z" fill="#444444" stroke="#222222" stroke-width="0.3"/>
<path d="M17 18 L17 17 L21 15 L21 15 L23 14 L23 13 L25 13 L25 12 L24 10 L25 9 L28 8 L32 8 L34 8 L36 8 L36 10 L35 11 L35 12 L37 13 L37 16 L37 19 L37 20 L38 21 L38 21 L40 22 L33 27 L30 27 L30 26 L29 26 L29 25 L17 18 Z" fill="#444444" stroke="#222222" stroke-width="0.3"/>
<path d="M66 32 L67 29 L69 28 L69 31 L74 34 L73 34 L71 33 L70 32 L69 32 L69 32 L68 32 L68 32 L66 32 Z" fill="#444444" stroke="#222222" stroke-width="0.3"/>
<path d="M24 10 L25 12 L25 13 L23 13 L23 14 L21 15 L21 15 L17 17 L17 18 L14 19 L13 21 L12 22 L11 25 L8 25 L9 22 L10 21 L11 19 L12 19 L13 17 L14 17 L16 15 L16 14 L17 12 L17 12 L19 11 L20 9 L21 9 L22 9 L24 10 Z" fill="#444444" stroke="#222222" stroke-width="0.3"/>
<path d="M67 24 L54 24 L54 16 L54 15 L54 14 L54 14 L56 14 L58 14 L60 14 L61 14 L62 14 L62 14 L63 14 L64 14 L65 16 L64 18 L64 18 L63 17 L62 16 L64 19 L66 22 L65 23 L67 24 Z" fill="#444444" stroke="#222222" stroke-width="0.3"/>
<path d="M54 16 L54 26 L53 26 L53 27 L44 22 L42 23 L41 23 L40 22 L38 21 L38 21 L37 20 L37 19 L37 16 L37 15 L38 15 L38 14 L39 13 L39 12 L43 13 L44 14 L47 15 L49 14 L48 13 L49 12 L52 12 L52 13 L54 13 L54 14 L54 14 L54 15 L54 16 Z" fill="#444444" stroke="#222222" stroke-width="0.3"/>
<path d="M79 39 L76 42 L74 43 L72 44 L72 44 L71 43 L70 44 L68 44 L67 43 L66 43 L66 43 L66 42 L65 42 L64 41 L63 40 L63 39 L63 39 L64 39 L64 36 L66 34 L66 32 L68 32 L68 32 L69 32 L69 32 L70 32 L72 33 L73 34 L72 35 L72 36 L73 36 L73 36 L74 38 L78 39 L79 39 Z" fill="#444444" stroke="#222222" stroke-width="0.3"/>
<path d="M73 34 L74 34 L74 34 L74 35 L73 35 L74 35 L73 36 L72 36 L72 35 L73 34 Z" fill="#444444" stroke="#222222" stroke-width="0.3"/>
<path d="M80 36 L80 38 L79 39 L78 39 L74 38 L73 36 L74 35 L75 37 L80 36 Z" fill="#444444" stroke="#222222" stroke-width="0.3"/>
<path d="M64 49 L60 49 L59 49 L59 47 L61 46 L60 45 L60 44 L61 44 L61 44 L63 44 L64 43 L64 44 L65 46 L64 48 L64 49 Z" fill="#444444" stroke="#222222" stroke-width="0.3"/>
<path d="M60 49 L60 50 L60 50 L59 50 L59 51 L58 51 L59 50 L60 49 Z" fill="#444444" stroke="#222222" stroke-width="0.3"/>
<path d="M60 44 L59 43 L57 43 L56 42 L56 41 L55 41 L54 40 L54 39 L53 39 L53 38 L54 37 L55 37 L56 38 L58 38 L59 37 L60 37 L61 37 L62 36 L62 35 L63 35 L63 36 L63 37 L64 38 L64 39 L63 39 L63 39 L63 40 L64 40 L65 42 L63 44 L61 44 L61 44 L60 44 Z" fill="#444444" stroke="#222222" stroke-width="0.3"/>
</svg>