<svg xmlns="http://www.w3.org/2000/svg" viewBox="0 0 80 80" width="80" height="80">
<path d="M32 34 L32 34 L31 34 L31 34 L31 35 L30 35 L30 35 L28 36 L29 37 L29 37 L29 37 L28 37 L26 37 L26 36 L25 37 L25 37 L24 37 L24 37 L23 37 L23 38 L23 38 L23 37 L22 37 L22 37 L22 37 L22 37 L21 36 L20 36 L19 36 L18 35 L17 36 L17 37 L17 37 L16 37 L15 37 L15 37 L15 37 L14 36 L15 36 L15 36 L16 36 L16 35 L15 35 L14 35 L14 35 L14 35 L13 34 L13 34 L13 34 L13 33 L14 33 L14 33 L15 32 L15 32 L17 33 L17 33 L18 33 L19 33 L19 33 L20 33 L20 33 L19 32 L19 32 L19 32 L20 32 L19 32 L20 31 L21 31 L23 31 L24 31 L24 31 L25 31 L25 31 L25 32 L26 32 L27 31 L27 31 L27 32 L28 33 L29 33 L29 33 L30 33 L31 33 L32 33 L32 34 Z" fill="#444444" stroke="#222222" stroke-width="0.3"/>
<path d="M17 37 L17 36 L18 35 L19 36 L20 36 L21 36 L22 37 L22 37 L22 37 L22 37 L23 37 L23 38 L23 38 L23 37 L24 37 L24 37 L24 37 L24 37 L25 37 L25 38 L25 38 L24 38 L24 38 L23 38 L23 38 L23 38 L22 38 L23 39 L23 39 L23 39 L22 39 L22 39 L21 39 L20 38 L20 38 L19 37 L19 37 L19 37 L18 37 L18 37 L18 37 L17 37 Z" fill="#444444" stroke="#222222" stroke-width="0.3"/>
<path d="M57 58 L59 59 L60 59 L60 60 L61 60 L61 60 L60 60 L60 60 L61 61 L61 61 L61 61 L61 62 L62 62 L62 62 L61 62 L60 61 L60 61 L59 61 L58 61 L59 61 L58 61 L57 61 L57 58 Z M63 59 L63 59 L63 59 L63 59 L62 58 L62 58 L63 59 Z M63 60 L62 60 L61 60 L61 60 L62 60 L62 59 L62 60 L62 60 L62 59 L62 59 L63 59 L63 59 L63 60 Z M64 59 L65 60 L64 60 L64 60 L64 59 Z" fill="#444444" stroke="#222222" stroke-width="0.3"/>
<path d="M57 58 L57 61 L57 61 L56 61 L56 61 L56 61 L56 61 L56 60 L56 60 L55 59 L54 59 L54 59 L53 59 L53 58 L54 58 L54 58 L53 58 L53 58 L53 58 L52 57 L53 57 L54 57 L54 58 L55 59 L55 58 L56 58 L56 58 L57 58 Z M50 61 L50 61 L50 62 L49 62 L49 61 L50 61 Z M54 60 L54 60 L54 60 L54 60 L54 60 Z M46 55 L46 55 L46 56 L46 56 L47 57 L46 57 L46 57 L46 57 L46 58 L46 59 L46 59 L45 59 L45 59 L44 58 L44 59 L43 58 L43 58 L43 58 L42 57 L42 57 L42 56 L43 56 L43 56 L43 57 L44 57 L44 56 L44 56 L45 56 L45 55 L46 55 Z M51 58 L52 58 L53 59 L52 59 L51 59 L51 58 Z M51 59 L50 59 L50 58 L51 58 L51 59 L51 59 Z M51 56 L51 56 L51 56 L52 56 L52 57 L51 57 L51 57 L51 57 L51 57 L51 57 L51 56 Z M48 56 L49 57 L50 56 L50 56 L50 57 L49 57 L48 57 L47 57 L48 58 L48 57 L49 57 L49 57 L49 57 L49 58 L48 58 L49 58 L48 59 L49 59 L49 60 L49 60 L48 59 L49 59 L48 59 L48 59 L48 59 L48 59 L48 58 L48 58 L48 60 L47 60 L47 60 L47 59 L47 59 L47 59 L47 58 L47 57 L48 56 Z M48 62 L47 62 L47 61 L48 62 L48 62 Z M48 61 L48 61 L49 61 L49 61 L47 61 L47 61 L48 61 Z M46 61 L47 61 L47 61 L46 61 L46 61 L46 61 L46 61 Z M42 60 L42 60 L43 60 L43 60 L44 60 L44 61 L45 61 L45 61 L45 61 L44 61 L42 61 L41 60 L41 60 L40 60 L41 60 L42 60 Z M40 58 L40 58 L41 58 L41 58 L41 60 L40 60 L39 59 L38 57 L37 56 L36 55 L36 54 L37 55 L38 56 L39 56 L39 56 L39 57 L40 57 L40 57 L40 58 Z" fill="#444444" stroke="#222222" stroke-width="0.3"/>
<path d="M50 61 L50 61 L51 61 L50 61 L50 61 Z" fill="#444444" stroke="#222222" stroke-width="0.3"/>
<path d="M8 41 L7 42 L7 42 L7 42 L7 42 L7 42 L7 42 L7 42 L7 43 L7 42 L7 41 L8 41 Z" fill="#444444" stroke="#222222" stroke-width="0.3"/>
<path d="M8 41 L7 41 L8 41 L8 41 L8 41 L8 41 Z" fill="#444444" stroke="#222222" stroke-width="0.3"/>
<path d="M7 42 L7 42 L7 42 L7 42 L7 42 L7 42 L7 42 Z" fill="#444444" stroke="#222222" stroke-width="0.3"/>
<path d="M7 43 L7 41 L8 42 L9 41 L9 42 L8 42 L9 43 L8 43 L7 43 Z" fill="#444444" stroke="#222222" stroke-width="0.3"/>
<path d="M15 45 L15 46 L16 46 L17 45 L17 45 L17 45 L17 45 L17 46 L17 46 L17 46 L15 46 L15 45 Z" fill="#444444" stroke="#222222" stroke-width="0.3"/>
<path d="M15 45 L15 45 L15 45 L15 45 L15 45 L15 45 Z" fill="#444444" stroke="#222222" stroke-width="0.3"/>
<path d="M13 43 L13 43 L13 43 L13 43 L13 43 L13 43 L13 43 Z" fill="#444444" stroke="#222222" stroke-width="0.3"/>
<path d="M9 42 L9 41 L10 41 L10 40 L11 39 L12 39 L12 39 L12 40 L12 40 L12 40 L12 41 L12 41 L12 41 L13 42 L13 42 L13 42 L13 42 L13 43 L14 43 L13 43 L13 43 L12 43 L10 42 L9 42 Z" fill="#444444" stroke="#222222" stroke-width="0.3"/>
<path d="M17 46 L17 46 L17 46 L17 45 L17 45 L18 46 L18 46 L19 46 L18 47 L18 47 L18 48 L17 48 L17 49 L17 49 L17 49 L16 49 L15 48 L17 48 L17 47 L17 46 Z M17 45 L17 45 L17 44 L17 45 L17 45 Z" fill="#444444" stroke="#222222" stroke-width="0.3"/>
<path d="M39 51 L39 51 L39 50 L40 50 L41 50 L41 50 L41 50 L42 51 L41 51 L41 52 L41 52 L40 52 L40 52 L39 51 Z" fill="#444444" stroke="#222222" stroke-width="0.3"/>
<path d="M40 50 L39 50 L39 51 L39 51 L39 51 L38 51 L38 51 L38 51 L38 51 L38 52 L38 53 L38 53 L38 53 L39 54 L39 54 L38 54 L38 54 L38 54 L38 54 L37 53 L37 53 L37 53 L37 52 L38 51 L38 50 L37 50 L37 49 L37 48 L37 48 L37 48 L37 48 L38 47 L38 47 L38 48 L39 48 L38 49 L39 48 L39 48 L39 48 L40 48 L40 49 L40 49 L41 50 L40 50 Z" fill="#444444" stroke="#222222" stroke-width="0.3"/>
<path d="M41 50 L41 50 L41 50 L40 50 L41 50 L40 49 L40 49 L40 48 L39 48 L39 48 L39 48 L38 49 L39 48 L38 48 L38 47 L38 47 L38 47 L39 47 L39 46 L39 46 L39 47 L40 47 L40 48 L40 48 L40 48 L41 49 L42 50 L41 50 Z" fill="#444444" stroke="#222222" stroke-width="0.3"/>
<path d="M38 47 L37 48 L37 48 L37 48 L37 48 L37 49 L37 50 L38 50 L38 51 L37 52 L37 52 L37 51 L37 51 L37 51 L37 49 L36 50 L35 49 L35 49 L35 48 L35 48 L35 48 L35 48 L34 47 L34 47 L34 47 L34 47 L35 46 L35 46 L35 46 L36 45 L36 44 L36 44 L37 44 L37 44 L37 44 L37 44 L37 45 L37 45 L37 46 L37 46 L37 46 L38 46 L38 47 L38 47 L38 47 L38 47 Z" fill="#444444" stroke="#222222" stroke-width="0.3"/>
<path d="M40 52 L41 52 L41 52 L41 51 L42 50 L41 49 L40 48 L40 48 L40 48 L40 47 L39 47 L39 46 L40 46 L40 46 L41 46 L41 46 L41 47 L42 47 L41 47 L41 48 L41 49 L42 50 L42 51 L42 51 L40 53 L40 53 L40 52 L40 52 Z" fill="#444444" stroke="#222222" stroke-width="0.3"/>
<path d="M53 37 L53 37 L53 37 L53 37 Z M52 37 L53 37 L52 37 L52 37 L52 38 L51 38 L51 38 L51 39 L51 39 L50 39 L50 39 L50 38 L49 38 L50 38 L51 37 L51 37 L51 37 L52 37 L52 37 Z" fill="#444444" stroke="#222222" stroke-width="0.3"/>
<path d="M50 39 L51 39 L52 40 L52 40 L52 40 L50 41 L51 40 L50 40 L51 39 L50 39 Z" fill="#444444" stroke="#222222" stroke-width="0.3"/>
<path d="M32 34 L34 33 L35 33 L35 33 L37 33 L37 33 L37 33 L37 32 L39 33 L39 33 L40 33 L41 33 L42 34 L43 34 L44 33 L45 33 L45 33 L46 33 L45 34 L45 34 L46 34 L47 34 L47 35 L47 35 L46 35 L46 35 L44 36 L44 36 L43 36 L44 36 L43 37 L41 37 L40 37 L38 37 L36 37 L36 36 L35 36 L34 36 L33 35 L34 35 L33 34 L32 34 L32 34 Z" fill="#444444" stroke="#222222" stroke-width="0.3"/>
<path d="M37 44 L37 44 L36 44 L36 44 L36 45 L35 46 L35 46 L35 46 L34 47 L34 46 L34 46 L34 46 L34 46 L34 45 L33 45 L33 45 L33 44 L32 45 L33 45 L32 45 L33 45 L32 46 L33 47 L33 47 L32 47 L32 47 L32 47 L31 48 L29 49 L29 49 L29 49 L28 50 L29 51 L28 51 L28 52 L28 52 L28 52 L28 53 L28 53 L27 53 L27 53 L26 52 L26 51 L26 50 L25 49 L25 47 L24 47 L24 47 L23 47 L24 46 L23 46 L23 46 L23 45 L24 45 L24 44 L23 44 L24 44 L25 44 L26 42 L26 42 L26 42 L26 41 L25 41 L26 41 L27 41 L27 40 L28 41 L28 41 L28 41 L28 42 L28 42 L28 42 L29 43 L29 43 L28 43 L30 44 L31 44 L31 44 L32 44 L32 44 L33 44 L33 44 L33 44 L34 44 L34 44 L34 44 L34 44 L35 43 L36 43 L36 43 L36 43 L36 44 L37 44 Z" fill="#444444" stroke="#222222" stroke-width="0.3"/>
<path d="M34 46 L34 47 L34 47 L34 47 L34 46 L33 46 L33 47 L33 47 L32 46 L33 45 L32 45 L33 45 L32 45 L33 44 L33 45 L33 45 L34 45 L34 46 L34 46 L34 46 L34 46 Z" fill="#444444" stroke="#222222" stroke-width="0.3"/>
<path d="M33 44 L34 44 L34 44 L33 44 L33 44 L33 44 L33 44 Z" fill="#444444" stroke="#222222" stroke-width="0.3"/>
<path d="M32 44 L32 44 L32 44 L31 44 L31 44 L30 44 L28 43 L29 43 L29 43 L31 44 L32 44 Z" fill="#444444" stroke="#222222" stroke-width="0.3"/>
<path d="M27 40 L27 41 L26 41 L25 41 L26 41 L26 42 L26 42 L26 42 L25 44 L24 44 L23 44 L24 44 L24 45 L23 45 L23 46 L22 46 L22 45 L20 45 L20 45 L21 44 L21 44 L20 44 L20 44 L20 43 L19 43 L20 43 L21 43 L22 43 L22 42 L22 42 L23 42 L23 42 L24 41 L24 41 L24 41 L24 41 L24 40 L24 40 L25 40 L26 39 L27 40 L27 40 L27 40 Z" fill="#444444" stroke="#222222" stroke-width="0.3"/>
<path d="M22 39 L23 39 L23 39 L23 39 L23 39 L24 39 L24 39 L24 39 L24 39 L25 40 L25 39 L26 39 L26 39 L25 40 L24 40 L24 40 L24 41 L24 41 L24 41 L24 41 L23 42 L23 42 L22 42 L22 42 L22 43 L21 43 L20 43 L19 43 L20 42 L20 42 L19 42 L19 41 L19 41 L19 41 L20 40 L20 40 L20 40 L20 40 L21 40 L21 39 L22 39 L22 39 Z" fill="#444444" stroke="#222222" stroke-width="0.3"/>
<path d="M23 39 L23 39 L23 39 L22 38 L23 38 L23 38 L23 38 L24 38 L24 38 L24 38 L24 38 L24 38 L23 38 L25 38 L26 39 L26 39 L26 39 L25 39 L25 40 L24 39 L24 39 L24 39 L24 39 L23 39 L23 39 L23 39 Z" fill="#444444" stroke="#222222" stroke-width="0.3"/>
<path d="M24 37 L24 37 L25 37 L25 37 L25 37 L26 36 L26 37 L28 37 L29 37 L28 37 L27 38 L27 38 L26 38 L26 38 L26 38 L25 38 L23 38 L24 38 L25 38 L25 38 L25 37 L24 37 L24 37 L24 37 L24 37 Z" fill="#444444" stroke="#222222" stroke-width="0.3"/>
<path d="M15 37 L16 37 L17 37 L18 37 L18 37 L18 37 L19 37 L19 37 L19 37 L20 38 L20 38 L21 39 L22 39 L22 39 L22 39 L22 39 L21 39 L21 40 L20 40 L20 40 L20 40 L19 40 L19 39 L18 39 L17 39 L17 39 L16 39 L16 39 L16 38 L16 38 L16 38 L16 38 L16 38 L16 38 L16 37 L16 37 L16 37 L15 37 Z" fill="#444444" stroke="#222222" stroke-width="0.3"/>
<path d="M14 43 L13 43 L13 42 L13 42 L13 42 L13 42 L12 41 L12 41 L12 41 L12 40 L12 40 L12 40 L11 39 L12 39 L11 38 L12 38 L12 39 L12 39 L13 38 L13 38 L13 39 L14 39 L14 39 L15 40 L15 40 L16 39 L17 39 L17 39 L19 39 L19 40 L20 40 L20 40 L19 41 L19 41 L19 41 L19 42 L20 42 L20 42 L19 43 L20 43 L20 44 L20 44 L21 44 L21 44 L20 45 L20 45 L18 45 L18 44 L17 44 L16 44 L16 44 L15 44 L15 44 L14 43 L14 43 L14 43 L14 43 Z" fill="#444444" stroke="#222222" stroke-width="0.3"/>
<path d="M7 41 L8 41 L8 41 L8 41 L8 41 L8 40 L8 40 L8 40 L9 40 L11 39 L10 40 L10 41 L8 42 L7 41 Z" fill="#444444" stroke="#222222" stroke-width="0.3"/>
<path d="M13 39 L12 39 L12 38 L11 38 L11 38 L12 37 L12 38 L12 38 L12 38 L12 38 L13 38 L13 39 Z" fill="#444444" stroke="#222222" stroke-width="0.3"/>
<path d="M12 39 L12 39 L11 39 L9 40 L8 40 L8 40 L8 40 L7 40 L8 40 L7 40 L7 40 L6 40 L6 40 L5 40 L5 40 L5 40 L4 40 L4 40 L3 39 L3 39 L3 38 L3 38 L4 38 L4 37 L5 38 L6 37 L7 37 L9 38 L10 38 L10 37 L11 37 L11 38 L11 38 L12 38 L11 38 L12 39 L11 39 L12 39 Z M3 37 L3 37 L4 37 L4 37 L4 37 L4 38 L4 38 L3 38 L3 38 L3 37 L3 37 Z" fill="#444444" stroke="#222222" stroke-width="0.3"/>
<path d="M60 76 L61 76 L61 77 L61 77 L60 77 L60 78 L60 78 L59 77 L59 76 L60 76 Z M50 72 L49 73 L49 73 L47 73 L46 74 L46 74 L45 73 L45 73 L45 73 L45 72 L45 71 L44 69 L44 70 L44 69 L45 69 L44 69 L45 68 L44 68 L45 67 L45 68 L45 67 L46 67 L46 67 L47 66 L48 66 L48 66 L49 65 L49 65 L49 65 L49 65 L49 65 L49 65 L49 65 L49 64 L50 64 L50 64 L50 64 L51 64 L51 64 L52 64 L52 64 L52 63 L52 63 L52 63 L53 63 L53 63 L53 62 L53 62 L53 62 L55 63 L55 63 L55 63 L55 63 L55 63 L55 63 L55 64 L57 65 L57 65 L58 65 L58 64 L58 63 L58 62 L59 63 L59 64 L59 64 L59 64 L60 65 L60 66 L61 67 L61 67 L61 68 L62 67 L62 68 L62 68 L62 68 L63 69 L63 70 L63 70 L63 72 L63 72 L62 73 L62 74 L62 75 L61 75 L61 75 L60 75 L59 75 L59 75 L59 75 L57 75 L57 75 L57 74 L56 74 L56 74 L56 74 L56 73 L56 74 L55 74 L56 73 L56 73 L55 73 L55 74 L55 73 L55 73 L54 73 L54 72 L53 72 L50 72 Z" fill="#444444" stroke="#222222" stroke-width="0.3"/>
<path d="M29 53 L29 54 L29 54 L28 54 L28 53 L29 52 L29 53 L29 53 Z" fill="#444444" stroke="#222222" stroke-width="0.3"/>
<path d="M42 48 L42 48 L42 48 L42 48 L43 47 L43 48 L43 48 L42 48 Z M29 37 L29 37 L29 37 L28 36 L30 35 L30 35 L31 35 L31 34 L31 34 L32 34 L32 34 L32 34 L33 34 L34 35 L33 35 L34 36 L35 36 L36 36 L36 37 L38 37 L40 37 L41 37 L42 37 L44 36 L43 36 L44 36 L44 36 L46 35 L46 35 L47 35 L47 35 L47 34 L46 34 L45 34 L45 34 L46 33 L46 34 L47 33 L47 33 L48 32 L48 32 L48 32 L48 32 L48 32 L49 32 L50 32 L51 33 L52 34 L52 34 L53 34 L53 34 L55 34 L54 36 L53 35 L53 36 L53 36 L53 37 L52 37 L52 37 L52 37 L52 37 L51 37 L51 37 L51 37 L49 38 L48 39 L48 38 L48 38 L48 38 L48 38 L47 38 L47 38 L46 38 L46 39 L47 39 L47 39 L47 39 L47 39 L48 39 L49 39 L49 39 L48 40 L47 40 L48 41 L48 42 L48 42 L48 42 L48 43 L48 43 L48 44 L48 44 L47 45 L45 46 L45 46 L45 46 L44 46 L44 47 L43 47 L43 47 L43 47 L43 47 L43 47 L41 47 L41 46 L41 46 L40 46 L40 46 L39 46 L39 46 L39 47 L39 47 L38 47 L38 47 L38 47 L38 46 L37 46 L37 46 L37 46 L37 45 L37 45 L37 44 L37 44 L36 44 L36 43 L36 43 L36 43 L35 43 L34 44 L34 44 L33 44 L33 44 L33 44 L32 44 L31 44 L30 43 L30 43 L30 43 L29 43 L29 43 L28 42 L28 42 L28 42 L28 41 L28 41 L28 41 L27 40 L27 40 L27 40 L26 39 L26 39 L26 39 L25 38 L26 38 L26 38 L26 38 L27 38 L27 38 L28 37 L29 37 Z" fill="#cc3333" stroke="#222222" stroke-width="0.3"/>
<path d="M48 45 L48 46 L48 47 L47 46 L48 45 L48 45 Z" fill="#444444" stroke="#222222" stroke-width="0.3"/>
<path d="M13 37 L13 37 L14 37 L14 38 L14 38 L14 38 L14 39 L13 39 L13 38 L13 38 L13 39 L13 38 L12 38 L12 38 L12 37 L13 38 L12 37 L13 37 Z M12 39 L12 39 L12 38 L12 38 L12 39 Z" fill="#444444" stroke="#222222" stroke-width="0.3"/>
<path d="M9 36 L11 36 L11 37 L12 37 L13 37 L12 37 L13 37 L12 37 L11 38 L11 37 L10 37 L10 37 L9 36 Z" fill="#444444" stroke="#222222" stroke-width="0.3"/>
<path d="M48 51 L48 51 L48 51 L48 51 L48 51 Z M49 52 L49 52 L49 52 L49 52 L49 52 L49 52 L49 53 L49 52 Z M50 53 L51 54 L50 54 L50 54 L50 54 L50 54 L50 54 L49 54 L49 54 L49 53 L49 53 L48 54 L48 54 L49 53 L49 53 L49 53 L50 53 L50 53 L50 53 L50 52 L50 53 Z M47 52 L46 53 L47 52 L47 52 Z M48 48 L48 49 L49 49 L48 49 L48 49 L48 50 L49 50 L49 50 L49 51 L49 51 L49 51 L48 50 L48 50 L48 50 L48 50 L48 50 L47 50 L47 49 L48 49 L48 48 L48 48 L48 48 Z M48 52 L48 51 L49 51 L49 52 L48 52 Z M50 51 L50 52 L50 52 L50 52 L50 52 L50 52 L50 52 L49 52 L50 52 L50 51 L49 51 L50 51 Z" fill="#444444" stroke="#222222" stroke-width="0.3"/>
<path d="M38 54 L38 54 L38 54 L38 54 L39 54 L39 54 L39 54 L40 55 L40 56 L40 56 L40 56 L39 56 L38 54 Z M46 55 L45 55 L45 56 L44 56 L44 56 L44 57 L43 57 L43 56 L43 56 L43 56 L43 56 L43 56 L44 56 L45 55 L45 55 L45 55 L45 55 L45 54 L46 54 L46 54 L46 54 L47 54 L47 55 L47 55 L47 55 L46 55 Z" fill="#444444" stroke="#222222" stroke-width="0.3"/>
<path d="M45 54 L45 55 L45 55 L45 55 L45 55 L45 54 Z" fill="#444444" stroke="#222222" stroke-width="0.3"/>
<path d="M58 38 L57 39 L57 39 L57 40 L57 40 L57 40 L56 41 L56 41 L55 41 L55 41 L55 41 L53 41 L53 41 L53 42 L52 42 L52 42 L52 42 L52 42 L52 41 L52 41 L53 40 L54 40 L55 40 L55 39 L56 40 L57 39 L57 38 L57 38 L57 37 L58 37 L58 38 L58 38 Z M59 36 L59 36 L60 36 L59 37 L58 37 L58 37 L57 37 L57 37 L57 37 L57 36 L58 36 L58 35 L58 36 L59 36 Z M53 41 L54 41 L54 41 L54 41 L54 41 L54 41 L54 41 L54 41 L54 41 L54 41 L53 41 L53 41 Z" fill="#444444" stroke="#222222" stroke-width="0.3"/>
<path d="M15 48 L16 49 L15 49 L15 50 L14 50 L14 50 L12 51 L12 51 L11 51 L11 50 L11 49 L11 49 L13 49 L13 49 L13 49 L13 48 L14 48 L15 48 Z" fill="#444444" stroke="#222222" stroke-width="0.3"/>
<path d="M7 43 L8 43 L8 43 L8 43 L9 43 L8 42 L9 42 L10 42 L12 43 L13 43 L13 43 L13 43 L14 44 L14 44 L14 45 L15 45 L15 45 L15 46 L17 46 L17 46 L17 47 L17 48 L15 48 L14 48 L13 48 L13 49 L13 49 L13 49 L11 49 L11 49 L11 49 L11 49 L10 48 L9 47 L9 47 L9 46 L9 46 L8 45 L8 45 L7 44 L7 44 L7 43 Z" fill="#444444" stroke="#222222" stroke-width="0.3"/>
<path d="M6 40 L6 40 L7 40 L7 40 L6 40 Z" fill="#444444" stroke="#222222" stroke-width="0.3"/>
<path d="M6 40 L6 40 L7 40 L6 41 L6 40 Z" fill="#444444" stroke="#222222" stroke-width="0.3"/>
</svg>