<svg xmlns="http://www.w3.org/2000/svg" viewBox="0 0 80 80" width="80" height="80">
<path d="M45 102 L46 103 L49 104 L48 104 L47 104 L46 104 L45 104 L45 102 Z M57 77 L56 82 L57 83 L57 84 L58 84 L58 85 L56 86 L55 86 L52 87 L52 89 L51 89 L50 89 L49 89 L48 89 L49 90 L49 90 L50 90 L50 91 L48 92 L48 93 L47 93 L46 94 L46 95 L47 96 L48 96 L48 97 L46 97 L46 99 L44 100 L44 101 L45 101 L41 101 L41 100 L41 99 L40 100 L40 99 L39 98 L40 98 L41 97 L41 96 L42 94 L41 93 L42 93 L41 92 L42 92 L41 92 L41 90 L41 90 L41 89 L42 87 L42 86 L42 84 L43 84 L43 83 L43 82 L43 81 L43 78 L43 77 L43 76 L44 75 L45 74 L45 73 L45 71 L46 71 L46 69 L47 68 L49 68 L49 69 L50 68 L51 68 L53 70 L56 72 L57 72 L56 74 L58 74 L59 74 L60 73 L60 72 L60 72 L61 73 L61 74 L59 75 L57 77 Z" fill="#444444" stroke="#222222" stroke-width="0.3"/>
<path d="M45 102 L45 104 L46 104 L45 105 L42 104 L40 103 L38 102 L42 103 L43 102 L44 101 L45 102 Z M44 64 L44 65 L45 66 L45 67 L46 69 L46 69 L46 69 L46 71 L45 71 L45 73 L45 74 L44 75 L43 76 L43 77 L43 78 L43 81 L43 82 L43 83 L43 84 L42 84 L42 86 L42 87 L41 89 L41 90 L41 90 L41 92 L42 92 L41 92 L42 93 L41 93 L42 94 L41 96 L41 97 L40 98 L39 98 L40 99 L40 100 L41 99 L41 100 L41 101 L45 101 L44 101 L42 102 L42 103 L42 103 L38 101 L37 97 L38 96 L39 95 L37 95 L38 94 L38 92 L40 93 L40 90 L40 90 L39 92 L38 91 L39 88 L40 87 L39 85 L40 85 L42 80 L41 78 L42 77 L42 76 L42 74 L43 68 L43 64 L44 64 Z" fill="#444444" stroke="#222222" stroke-width="0.3"/>
<path d="M53 101 L54 100 L55 100 L56 100 L56 100 L56 101 L55 101 L54 101 L53 101 L53 101 Z" fill="#444444" stroke="#222222" stroke-width="0.3"/>
<path d="M57 77 L57 77 L61 79 L61 80 L61 80 L61 81 L61 82 L60 82 L58 82 L56 82 L56 81 L57 77 Z" fill="#444444" stroke="#222222" stroke-width="0.3"/>
<path d="M61 81 L61 80 L61 80 L61 79 L57 77 L57 77 L59 75 L61 74 L61 73 L60 72 L60 72 L60 71 L59 70 L59 69 L56 68 L56 67 L56 66 L56 66 L56 65 L57 64 L57 63 L56 63 L56 62 L54 62 L53 61 L54 61 L54 59 L52 59 L51 58 L49 58 L48 57 L48 55 L47 55 L45 56 L43 56 L43 55 L42 55 L41 55 L40 55 L40 55 L40 54 L39 53 L39 52 L40 52 L40 50 L42 49 L43 49 L44 46 L43 45 L43 44 L44 44 L44 43 L43 43 L43 43 L46 43 L46 42 L46 43 L47 44 L48 44 L50 42 L49 42 L49 40 L49 40 L51 40 L53 39 L53 39 L53 39 L54 39 L54 39 L55 40 L54 41 L54 42 L55 43 L56 43 L57 42 L58 42 L58 42 L62 42 L63 40 L63 40 L64 42 L65 43 L65 43 L64 44 L64 45 L66 45 L66 46 L67 45 L70 46 L71 47 L71 47 L72 47 L74 48 L76 48 L79 50 L81 50 L81 50 L82 52 L81 54 L77 59 L77 64 L76 66 L75 67 L75 68 L74 69 L74 69 L71 70 L67 71 L67 73 L67 74 L66 76 L61 81 Z" fill="#444444" stroke="#222222" stroke-width="0.3"/>
<path d="M44 56 L45 56 L47 55 L48 55 L48 57 L49 58 L51 58 L52 59 L54 59 L54 61 L53 61 L54 62 L56 62 L56 63 L57 63 L57 64 L56 65 L56 66 L56 66 L56 66 L55 65 L52 66 L51 69 L50 68 L49 69 L49 68 L47 68 L46 69 L46 69 L45 67 L45 66 L44 65 L44 64 L44 62 L44 61 L44 61 L44 61 L44 60 L45 58 L44 56 Z" fill="#444444" stroke="#222222" stroke-width="0.3"/>
<path d="M43 49 L42 49 L40 50 L40 52 L39 52 L39 53 L40 54 L40 55 L40 55 L41 55 L42 55 L43 55 L43 56 L44 56 L45 58 L44 60 L44 61 L44 61 L44 61 L44 62 L43 64 L43 64 L42 64 L42 63 L37 60 L36 59 L36 59 L33 52 L31 51 L31 51 L31 50 L31 49 L32 48 L32 49 L33 49 L33 50 L34 49 L35 48 L36 47 L37 46 L38 45 L37 45 L38 44 L39 46 L40 47 L42 47 L43 47 L42 48 L43 49 Z" fill="#444444" stroke="#222222" stroke-width="0.3"/>
<path d="M47 43 L46 43 L46 42 L46 43 L43 43 L43 43 L44 43 L44 44 L43 44 L43 45 L44 46 L43 49 L42 48 L43 47 L42 47 L40 47 L39 46 L38 44 L36 44 L35 44 L33 43 L34 43 L34 42 L35 41 L35 40 L35 40 L35 38 L35 37 L35 36 L35 36 L35 35 L37 34 L37 33 L38 32 L39 32 L41 31 L42 31 L42 31 L42 32 L41 32 L40 33 L40 34 L40 35 L41 35 L41 36 L41 37 L43 37 L44 38 L46 38 L46 40 L46 41 L46 41 L46 42 L47 43 Z" fill="#cc3333" stroke="#222222" stroke-width="0.3"/>
<path d="M53 38 L53 39 L53 39 L51 40 L49 40 L49 40 L49 42 L50 42 L48 44 L47 44 L46 41 L46 41 L46 40 L46 38 L44 38 L43 37 L41 37 L41 36 L41 35 L40 35 L40 34 L40 33 L41 32 L42 32 L41 32 L41 33 L41 34 L41 35 L42 34 L42 34 L42 33 L43 32 L43 32 L43 31 L44 32 L44 32 L45 33 L47 33 L49 33 L49 33 L52 33 L51 33 L51 34 L52 34 L53 34 L53 35 L54 35 L53 36 L53 36 L54 37 L53 37 L53 38 Z" fill="#444444" stroke="#222222" stroke-width="0.3"/>
<path d="M58 42 L57 42 L56 43 L54 42 L54 41 L55 40 L54 39 L54 39 L53 39 L53 38 L53 37 L54 37 L53 36 L53 36 L54 35 L56 36 L56 37 L57 38 L57 39 L56 39 L56 40 L57 41 L57 41 L58 42 Z" fill="#444444" stroke="#222222" stroke-width="0.3"/>
<path d="M60 42 L58 42 L58 42 L58 42 L57 41 L57 41 L56 40 L56 39 L57 39 L57 38 L61 38 L60 39 L61 40 L60 42 Z" fill="#444444" stroke="#222222" stroke-width="0.3"/>
<path d="M37 45 L38 45 L37 46 L36 47 L35 48 L34 49 L33 50 L33 49 L32 49 L32 48 L33 47 L32 47 L32 47 L31 47 L31 46 L32 45 L32 44 L34 43 L35 44 L35 44 L36 44 L37 45 Z" fill="#444444" stroke="#222222" stroke-width="0.3"/>
<path d="M56 66 L56 67 L56 68 L59 69 L59 70 L60 71 L60 73 L59 74 L58 74 L56 74 L57 72 L56 72 L53 70 L51 69 L52 66 L55 65 L56 66 Z" fill="#444444" stroke="#222222" stroke-width="0.3"/>
</svg>