<svg xmlns="http://www.w3.org/2000/svg" viewBox="0 0 80 80" width="80" height="80">
<path d="M-98 -100 L1 -100 L1 -102 L2 -102 L4 -99 L14 -97 L22 -97 L25 -98 L38 -93 L39 -91 L40 -91 L43 -89 L42 -89 L46 -87 L48 -81 L44 -76 L46 -74 L59 -78 L58 -80 L60 -81 L67 -81 L73 -86 L85 -86 L88 -88 L94 -95 L99 -93 L99 -88 L102 -85 L90 -81 L88 -78 L88 -76 L89 -75 L91 -74 L90 -76 L91 -75 L91 -74 L78 -71 L84 -71 L77 -71 L76 -70 L77 -70 L76 -67 L73 -64 L71 -66 L73 -62 L70 -58 L70 -61 L69 -62 L68 -65 L67 -64 L68 -61 L66 -62 L68 -61 L70 -52 L68 -50 L59 -45 L50 -38 L50 -33 L55 -21 L54 -15 L51 -15 L49 -18 L45 -25 L46 -27 L42 -32 L41 -33 L37 -31 L32 -34 L21 -33 L22 -30 L22 -29 L16 -29 L14 -31 L8 -32 L3 -31 L-6 -25 L-7 -21 L-6 -18 L-7 -18 L-13 -19 L-15 -24 L-20 -30 L-22 -32 L-25 -32 L-27 -29 L-30 -30 L-32 -31 L-34 -35 L-39 -39 L-46 -39 L-46 -37 L-56 -37 L-69 -41 L-69 -42 L-77 -41 L-78 -43 L-82 -47 L-90 -49 L-90 -51 L-94 -54 L-97 -60 L-101 -64 L-101 -67 L-103 -69 L-103 -75 L-104 -78 L-102 -88 L-102 -93 L-104 -97 L-104 -98 L-99 -97 L-97 -93 L-96 -94 L-98 -100 Z M-216 2 L-212 5 L-215 7 L-216 4 L-216 2 Z M-216 1 L-218 1 L-219 -0 L-218 -0 L-216 1 Z M-221 -1 L-219 -1 L-221 -1 L-221 -1 Z M-223 -3 L-222 -1 L-222 -1 L-224 -1 L-224 -2 L-223 -3 Z M-228 -5 L-229 -3 L-230 -4 L-229 -5 L-228 -5 Z M-257 -140 L-251 -141 L-250 -139 L-253 -139 L-257 -140 Z M-206 -132 L-202 -131 L-209 -128 L-211 -129 L-211 -130 L-206 -132 Z M-163 -174 L-163 -141 L-156 -139 L-150 -136 L-143 -139 L-135 -134 L-129 -127 L-123 -125 L-123 -123 L-125 -121 L-130 -123 L-131 -127 L-136 -129 L-138 -133 L-147 -133 L-159 -138 L-168 -140 L-173 -139 L-184 -143 L-188 -142 L-188 -139 L-201 -136 L-201 -139 L-200 -142 L-196 -143 L-197 -144 L-209 -137 L-206 -135 L-210 -133 L-217 -130 L-218 -129 L-224 -127 L-225 -125 L-241 -121 L-248 -120 L-237 -125 L-232 -125 L-226 -129 L-222 -131 L-220 -136 L-225 -135 L-227 -134 L-229 -136 L-230 -134 L-232 -136 L-237 -135 L-237 -138 L-239 -139 L-244 -139 L-250 -141 L-250 -143 L-252 -145 L-251 -147 L-247 -151 L-241 -150 L-239 -152 L-233 -153 L-234 -155 L-236 -155 L-233 -157 L-240 -155 L-248 -155 L-253 -156 L-259 -160 L-246 -163 L-243 -163 L-244 -161 L-236 -161 L-250 -168 L-255 -169 L-253 -171 L-246 -171 L-242 -173 L-241 -175 L-237 -176 L-224 -178 L-218 -180 L-213 -179 L-210 -178 L-203 -178 L-203 -177 L-197 -177 L-177 -175 L-172 -176 L-163 -174 Z M-272 -153 L-268 -153 L-261 -151 L-264 -150 L-269 -152 L-272 -151 L-272 -153 Z" fill="#444444" stroke="#222222" stroke-width="0.3"/>
<path d="M85 4 L85 8 L84 8 L85 10 L77 10 L75 9 L75 8 L81 9 L83 8 L81 5 L79 5 L79 4 L85 4 Z" fill="#444444" stroke="#222222" stroke-width="0.3"/>
<path d="M86 12 L84 8 L85 4 L91 5 L92 6 L94 6 L94 7 L97 8 L96 10 L91 9 L89 10 L88 9 L86 12 Z" fill="#444444" stroke="#222222" stroke-width="0.3"/>
<path d="M59 -21 L63 -21 L63 -20 L59 -20 L59 -21 Z M63 -22 L66 -20 L65 -18 L65 -20 L63 -22 Z M62 -15 L63 -15 L64 -10 L63 -10 L61 -13 L62 -15 Z" fill="#444444" stroke="#222222" stroke-width="0.3"/>
<path d="M-77 -41 L-69 -42 L-69 -41 L-56 -37 L-46 -37 L-46 -39 L-39 -39 L-34 -35 L-32 -31 L-30 -30 L-27 -29 L-25 -32 L-22 -32 L-20 -30 L-15 -24 L-13 -19 L-6 -18 L-8 -12 L-9 -5 L-6 1 L-2 7 L2 8 L4 10 L14 7 L17 6 L18 -0 L30 -2 L31 0 L28 5 L29 5 L27 10 L25 9 L24 11 L16 11 L16 13 L14 13 L18 16 L18 17 L13 17 L11 20 L11 23 L6 18 L3 17 L-4 19 L-19 13 L-23 11 L-29 9 L-36 3 L-37 2 L-36 1 L-35 -2 L-38 -7 L-46 -15 L-49 -17 L-49 -20 L-53 -22 L-54 -25 L-56 -25 L-60 -29 L-63 -37 L-69 -39 L-70 -37 L-69 -33 L-58 -20 L-54 -12 L-53 -12 L-50 -9 L-51 -7 L-55 -11 L-60 -14 L-60 -18 L-70 -24 L-68 -24 L-67 -27 L-72 -31 L-77 -41 Z" fill="#444444" stroke="#222222" stroke-width="0.3"/>
<path d="M65 44 L65 46 L63 47 L63 49 L61 46 L62 45 L58 43 L54 45 L55 48 L52 49 L51 47 L50 47 L49 46 L45 45 L45 46 L45 41 L46 41 L47 43 L50 43 L57 40 L59 41 L65 44 Z" fill="#444444" stroke="#222222" stroke-width="0.3"/>
<path d="M46 41 L45 41 L45 43 L45 45 L43 45 L42 42 L37 39 L37 41 L35 39 L35 36 L34 36 L35 35 L41 36 L42 36 L46 41 Z" fill="#cc3333" stroke="#222222" stroke-width="0.3"/>
<path d="M42 36 L41 36 L35 35 L28 29 L31 27 L31 26 L33 25 L34 25 L38 22 L39 23 L44 21 L41 34 L42 36 Z" fill="#444444" stroke="#222222" stroke-width="0.3"/>
<path d="M44 21 L39 23 L38 22 L34 25 L33 25 L31 26 L31 27 L29 28 L27 27 L27 25 L25 25 L22 23 L22 21 L27 18 L37 18 L44 21 Z" fill="#444444" stroke="#222222" stroke-width="0.3"/>
<path d="M22 23 L25 25 L28 25 L27 28 L19 26 L22 23 Z" fill="#444444" stroke="#222222" stroke-width="0.3"/>
<path d="M11 23 L11 20 L13 17 L18 17 L18 16 L14 13 L16 13 L16 11 L23 11 L22 18 L26 19 L22 21 L22 23 L19 26 L15 25 L11 23 Z" fill="#444444" stroke="#222222" stroke-width="0.3"/>
<path d="M23 11 L25 9 L26 9 L25 16 L23 18 L22 18 L23 11 Z" fill="#444444" stroke="#222222" stroke-width="0.3"/>
<path d="M101 9 L107 10 L106 11 L101 11 L101 9 Z" fill="#444444" stroke="#222222" stroke-width="0.3"/>
<path d="M61 10 L66 9 L69 11 L65 12 L61 10 Z" fill="#444444" stroke="#222222" stroke-width="0.3"/>
<path d="M47 -8 L53 -8 L58 -5 L61 -6 L68 -1 L71 -0 L71 1 L76 2 L73 4 L63 4 L66 2 L62 1 L60 -2 L47 -5 L49 -6 L45 -6 L41 -4 L37 -3 L42 -7 L47 -8 Z" fill="#444444" stroke="#222222" stroke-width="0.3"/>
<path d="M121 36 L123 36 L123 39 L120 39 L121 36 Z" fill="#444444" stroke="#222222" stroke-width="0.3"/>
</svg>