<svg xmlns="http://www.w3.org/2000/svg" viewBox="0 0 80 80" width="80" height="80">
<path d="M-43 -44 L17 -44 L17 -45 L17 -45 L18 -43 L24 -42 L29 -42 L31 -43 L39 -40 L39 -39 L40 -39 L42 -38 L41 -37 L44 -36 L45 -33 L42 -29 L43 -28 L51 -31 L51 -32 L52 -33 L56 -33 L60 -36 L67 -36 L69 -37 L72 -41 L75 -40 L75 -37 L77 -35 L70 -33 L69 -31 L69 -30 L69 -29 L70 -29 L70 -29 L71 -29 L71 -28 L63 -27 L66 -27 L62 -26 L61 -26 L62 -26 L62 -24 L60 -23 L59 -24 L60 -21 L58 -19 L58 -20 L57 -21 L57 -23 L56 -22 L57 -21 L56 -21 L57 -20 L58 -15 L57 -14 L51 -11 L46 -7 L46 -4 L49 3 L48 7 L47 7 L45 5 L43 1 L43 -0 L41 -3 L40 -4 L38 -3 L35 -4 L29 -4 L29 -2 L29 -2 L26 -2 L24 -3 L21 -3 L18 -2 L12 1 L12 4 L12 5 L12 5 L8 4 L7 2 L4 -2 L3 -3 L1 -3 L-0 -1 L-2 -2 L-3 -3 L-5 -5 L-8 -7 L-11 -7 L-11 -6 L-17 -6 L-25 -9 L-25 -9 L-30 -9 L-31 -10 L-33 -12 L-38 -13 L-38 -14 L-40 -17 L-42 -20 L-45 -23 L-45 -24 L-46 -26 L-46 -29 L-46 -31 L-45 -37 L-45 -40 L-47 -42 L-46 -43 L-43 -42 L-42 -40 L-42 -41 L-43 -44 Z M-113 17 L-111 19 L-113 20 L-114 19 L-113 17 Z M-114 16 L-115 17 L-115 16 L-115 16 L-114 16 Z M-116 15 L-115 16 L-117 16 L-116 15 Z M-118 14 L-117 15 L-117 15 L-118 15 L-119 15 L-118 14 Z M-121 13 L-121 14 L-122 14 L-121 13 L-121 13 Z M-138 -68 L-134 -68 L-134 -67 L-136 -67 L-138 -68 Z M-108 -63 L-105 -63 L-109 -61 L-111 -61 L-111 -62 L-108 -63 Z M-82 -88 L-82 -68 L-77 -68 L-74 -65 L-70 -67 L-65 -64 L-62 -60 L-58 -59 L-58 -58 L-59 -57 L-62 -58 L-63 -60 L-66 -62 L-67 -64 L-72 -64 L-79 -67 L-85 -68 L-88 -68 L-95 -70 L-97 -69 L-97 -68 L-105 -66 L-105 -67 L-104 -69 L-102 -70 L-102 -70 L-109 -66 L-108 -65 L-110 -64 L-114 -62 L-115 -61 L-118 -60 L-119 -59 L-129 -56 L-133 -56 L-126 -59 L-123 -59 L-119 -61 L-117 -62 L-116 -65 L-119 -65 L-120 -64 L-122 -65 L-122 -65 L-123 -66 L-126 -65 L-126 -67 L-128 -68 L-130 -67 L-134 -69 L-134 -70 L-135 -71 L-135 -72 L-132 -74 L-129 -74 L-127 -75 L-124 -76 L-124 -77 L-126 -77 L-124 -78 L-128 -77 L-133 -77 L-136 -78 L-140 -80 L-132 -82 L-130 -82 L-130 -81 L-126 -81 L-134 -85 L-137 -86 L-136 -87 L-132 -87 L-129 -88 L-129 -89 L-126 -90 L-118 -91 L-115 -92 L-112 -92 L-110 -91 L-106 -91 L-106 -90 L-102 -90 L-90 -89 L-87 -89 L-82 -88 Z M-147 -76 L-145 -76 L-141 -75 L-143 -74 L-145 -75 L-147 -75 L-147 -76 Z" fill="#444444" stroke="#222222" stroke-width="0.3"/>
<path d="M67 19 L67 21 L66 21 L67 22 L62 22 L61 22 L61 21 L65 21 L66 21 L65 19 L63 19 L64 18 L67 19 Z" fill="#444444" stroke="#222222" stroke-width="0.3"/>
<path d="M68 23 L66 21 L67 18 L71 19 L71 19 L72 19 L72 20 L74 21 L73 22 L71 21 L69 22 L69 21 L68 23 Z" fill="#444444" stroke="#222222" stroke-width="0.3"/>
<path d="M51 3 L54 3 L54 4 L51 4 L51 3 Z M54 3 L56 4 L55 5 L55 4 L54 3 Z M53 7 L54 7 L54 10 L54 10 L52 8 L53 7 Z" fill="#444444" stroke="#222222" stroke-width="0.3"/>
<path d="M-30 -9 L-25 -9 L-25 -9 L-17 -6 L-11 -6 L-11 -7 L-8 -7 L-5 -5 L-3 -3 L-2 -2 L-0 -1 L1 -3 L3 -3 L4 -2 L7 2 L8 4 L12 5 L11 9 L11 13 L12 17 L15 20 L17 21 L18 22 L25 20 L26 20 L27 16 L34 15 L34 16 L33 19 L33 19 L32 22 L31 21 L30 23 L26 23 L26 24 L25 24 L27 26 L27 26 L24 26 L23 28 L23 30 L19 27 L18 26 L14 27 L4 24 L2 22 L-1 22 L-6 18 L-6 17 L-5 17 L-5 15 L-7 12 L-12 7 L-14 6 L-14 4 L-16 3 L-17 1 L-18 1 L-20 -1 L-22 -6 L-25 -7 L-26 -6 L-25 -4 L-19 4 L-17 9 L-16 9 L-14 11 L-15 12 L-17 9 L-20 8 L-20 5 L-26 1 L-25 1 L-24 -0 L-27 -2 L-30 -9 Z" fill="#444444" stroke="#222222" stroke-width="0.3"/>
<path d="M55 42 L55 44 L54 44 L54 45 L52 44 L53 43 L51 42 L48 43 L49 45 L47 45 L47 44 L46 44 L45 43 L43 43 L43 44 L43 41 L44 40 L44 42 L46 42 L50 40 L51 40 L55 42 Z" fill="#444444" stroke="#222222" stroke-width="0.3"/>
<path d="M44 40 L43 41 L43 42 L43 43 L42 43 L41 41 L38 39 L38 40 L37 40 L37 38 L36 37 L37 37 L41 38 L41 37 L44 40 Z" fill="#cc3333" stroke="#222222" stroke-width="0.3"/>
<path d="M41 37 L41 38 L37 37 L33 33 L35 32 L35 31 L36 31 L37 31 L39 29 L40 30 L42 29 L41 36 L41 37 Z" fill="#444444" stroke="#222222" stroke-width="0.3"/>
<path d="M42 29 L40 30 L39 29 L37 31 L36 31 L35 31 L35 32 L33 33 L32 32 L32 31 L31 31 L29 30 L29 29 L32 27 L38 27 L42 29 Z" fill="#444444" stroke="#222222" stroke-width="0.3"/>
<path d="M29 30 L31 31 L33 31 L32 33 L27 31 L29 30 Z" fill="#444444" stroke="#222222" stroke-width="0.3"/>
<path d="M23 30 L23 28 L24 26 L27 26 L27 26 L25 24 L26 24 L26 23 L30 23 L29 27 L31 27 L29 29 L29 30 L27 31 L25 31 L23 30 Z" fill="#444444" stroke="#222222" stroke-width="0.3"/>
<path d="M30 23 L31 21 L32 22 L31 25 L30 27 L29 27 L30 23 Z" fill="#444444" stroke="#222222" stroke-width="0.3"/>
<path d="M77 21 L80 22 L79 22 L77 22 L77 21 Z" fill="#444444" stroke="#222222" stroke-width="0.3"/>
<path d="M53 22 L56 21 L57 23 L55 23 L53 22 Z" fill="#444444" stroke="#222222" stroke-width="0.3"/>
<path d="M44 11 L48 11 L51 13 L53 13 L57 15 L59 16 L58 16 L62 17 L60 18 L54 18 L55 17 L53 16 L52 15 L44 13 L45 12 L43 12 L40 14 L38 14 L41 12 L44 11 Z" fill="#444444" stroke="#222222" stroke-width="0.3"/>
<path d="M88 38 L90 38 L90 39 L88 39 L88 38 Z" fill="#444444" stroke="#222222" stroke-width="0.3"/>
</svg>