<svg xmlns="http://www.w3.org/2000/svg" viewBox="0 0 80 80" width="80" height="80">
<path d="M11 21 L30 21 L30 21 L30 21 L30 22 L32 22 L33 22 L34 22 L36 23 L37 23 L37 23 L37 24 L37 24 L38 24 L38 25 L38 26 L38 26 L40 26 L40 25 L41 25 L42 25 L43 24 L45 24 L46 24 L47 23 L48 23 L48 24 L48 24 L46 25 L46 26 L46 26 L46 26 L46 26 L46 26 L47 26 L46 26 L44 27 L45 27 L44 27 L44 27 L44 27 L44 28 L43 28 L43 28 L43 29 L42 29 L43 29 L42 29 L42 28 L42 28 L42 29 L42 29 L42 29 L43 31 L42 31 L40 32 L39 33 L39 34 L40 36 L39 38 L39 38 L39 37 L38 36 L38 35 L37 34 L37 34 L36 35 L35 34 L33 34 L34 35 L33 35 L32 35 L32 35 L31 34 L30 35 L28 36 L28 37 L28 37 L28 37 L27 37 L27 36 L26 35 L25 34 L25 34 L24 35 L24 35 L23 35 L23 34 L22 33 L21 33 L21 33 L19 33 L16 33 L16 32 L15 33 L15 32 L14 32 L12 31 L12 31 L12 30 L11 29 L10 28 L10 28 L10 27 L10 26 L10 26 L10 24 L10 23 L10 22 L10 22 L11 22 L11 23 L11 23 L11 21 Z M-11 41 L-11 41 L-11 42 L-12 41 L-11 41 Z M-11 41 L-12 41 L-12 40 L-12 40 L-11 41 Z M-12 40 L-12 40 L-12 40 L-12 40 Z M-13 40 L-13 40 L-13 40 L-13 40 L-13 40 L-13 40 Z M-14 40 L-14 40 L-14 40 L-14 40 L-14 40 Z M-19 14 L-18 14 L-18 14 L-18 14 L-19 14 Z M-10 15 L-9 16 L-10 16 L-10 16 L-11 16 L-10 15 Z M-1 8 L-1 14 L-0 14 L1 15 L2 14 L4 15 L5 16 L6 17 L6 17 L6 18 L5 17 L5 17 L4 16 L3 15 L2 15 L-1 14 L-2 14 L-3 14 L-5 13 L-6 14 L-6 14 L-9 15 L-9 14 L-8 14 L-8 13 L-8 13 L-10 15 L-10 15 L-10 15 L-12 16 L-12 16 L-13 16 L-13 17 L-16 18 L-18 18 L-15 17 L-15 17 L-13 16 L-13 16 L-12 15 L-13 15 L-14 15 L-14 15 L-14 15 L-14 15 L-15 15 L-15 14 L-16 14 L-17 14 L-18 14 L-18 13 L-18 13 L-18 13 L-17 12 L-16 12 L-16 12 L-15 12 L-15 11 L-15 11 L-15 11 L-16 11 L-18 11 L-19 11 L-20 10 L-17 10 L-17 10 L-17 10 L-15 10 L-18 9 L-19 8 L-18 8 L-17 8 L-16 8 L-16 7 L-15 7 L-13 7 L-12 6 L-11 7 L-10 7 L-9 7 L-9 7 L-8 7 L-4 7 L-3 7 L-1 8 Z M-22 12 L-21 12 L-20 12 L-21 12 L-21 12 L-22 12 L-22 12 Z" fill="#444444" stroke="#222222" stroke-width="0.3"/>
<path d="M45 41 L45 42 L45 42 L45 42 L44 42 L43 42 L44 42 L45 42 L45 42 L45 41 L44 41 L44 41 L45 41 Z" fill="#444444" stroke="#222222" stroke-width="0.3"/>
<path d="M46 43 L45 42 L45 41 L46 41 L47 42 L47 41 L47 42 L48 42 L47 42 L46 42 L46 42 L46 42 L46 43 Z" fill="#444444" stroke="#222222" stroke-width="0.3"/>
<path d="M40 36 L41 36 L41 37 L40 37 L40 36 Z M41 36 L42 37 L42 37 L42 37 L41 36 Z M41 38 L41 38 L41 38 L41 39 L41 38 L41 38 Z" fill="#444444" stroke="#222222" stroke-width="0.3"/>
<path d="M15 33 L16 32 L16 33 L19 33 L21 33 L21 33 L22 33 L23 34 L23 35 L24 35 L24 35 L25 34 L25 34 L26 35 L27 36 L27 37 L28 37 L28 38 L28 39 L28 41 L29 42 L30 42 L30 42 L32 42 L32 42 L33 40 L35 40 L35 40 L35 41 L35 41 L34 42 L34 42 L34 42 L32 42 L32 43 L32 43 L33 43 L33 44 L32 44 L31 44 L31 45 L30 44 L30 44 L29 44 L26 43 L25 42 L24 42 L23 41 L22 41 L23 41 L23 40 L22 39 L21 38 L20 37 L20 37 L19 36 L19 36 L19 36 L18 35 L17 34 L16 33 L16 33 L16 34 L18 37 L19 38 L19 38 L20 39 L20 39 L19 38 L18 38 L18 37 L16 36 L16 36 L17 35 L16 35 L15 33 Z" fill="#444444" stroke="#222222" stroke-width="0.3"/>
<path d="M41 49 L42 49 L41 49 L41 50 L41 49 L41 49 L40 48 L39 49 L40 49 L39 50 L39 49 L39 49 L39 49 L38 49 L38 49 L38 48 L38 48 L38 48 L39 49 L40 48 L40 48 L41 49 Z" fill="#444444" stroke="#222222" stroke-width="0.3"/>
<path d="M38 48 L38 48 L38 48 L38 49 L37 49 L37 48 L36 48 L36 48 L36 48 L36 47 L36 47 L36 47 L37 47 L37 47 L38 48 Z" fill="#444444" stroke="#222222" stroke-width="0.3"/>
<path d="M37 47 L37 47 L36 47 L35 46 L35 46 L35 45 L36 45 L36 45 L36 45 L37 45 L38 44 L37 47 L37 47 Z" fill="#444444" stroke="#222222" stroke-width="0.3"/>
<path d="M38 44 L37 45 L36 45 L36 45 L36 45 L35 45 L35 46 L35 46 L34 45 L34 45 L34 45 L33 45 L34 44 L34 44 L36 44 L38 44 Z" fill="#444444" stroke="#222222" stroke-width="0.3"/>
<path d="M33 45 L34 45 L35 45 L34 46 L33 45 L33 45 Z" fill="#444444" stroke="#222222" stroke-width="0.3"/>
<path d="M31 45 L31 44 L32 44 L33 44 L33 43 L32 43 L32 43 L32 42 L34 43 L33 44 L34 44 L34 44 L33 45 L33 45 L32 45 L31 45 Z" fill="#444444" stroke="#222222" stroke-width="0.3"/>
<path d="M34 43 L34 42 L34 42 L34 43 L34 44 L33 44 L34 43 Z" fill="#444444" stroke="#222222" stroke-width="0.3"/>
<path d="M48 42 L49 42 L49 42 L48 42 L48 42 Z" fill="#444444" stroke="#222222" stroke-width="0.3"/>
<path d="M41 42 L42 42 L42 42 L42 43 L41 42 Z" fill="#444444" stroke="#222222" stroke-width="0.3"/>
<path d="M38 39 L39 39 L40 39 L41 39 L42 40 L43 40 L43 41 L44 41 L43 41 L41 41 L42 41 L41 41 L41 40 L38 39 L39 39 L38 39 L37 40 L36 40 L37 39 L38 39 Z" fill="#cc3333" stroke="#222222" stroke-width="0.3"/>
<path d="M52 47 L53 47 L53 48 L52 48 L52 47 Z" fill="#444444" stroke="#222222" stroke-width="0.3"/>
</svg>