<svg xmlns="http://www.w3.org/2000/svg" viewBox="0 0 80 80" width="80" height="80">
<path d="M-9 9 L23 9 L23 9 L23 9 L23 10 L26 10 L29 10 L30 10 L34 12 L34 12 L35 12 L36 13 L35 13 L37 13 L37 15 L36 17 L37 17 L41 16 L40 15 L41 15 L43 15 L45 14 L49 14 L50 13 L52 11 L53 11 L53 13 L54 14 L51 15 L50 16 L50 17 L50 17 L51 17 L51 17 L51 17 L51 17 L47 18 L49 18 L46 18 L46 19 L46 19 L46 20 L45 20 L45 20 L45 21 L44 22 L44 22 L44 21 L44 20 L43 21 L44 21 L43 21 L44 22 L44 24 L44 25 L41 27 L38 29 L38 30 L39 34 L39 36 L38 36 L38 35 L36 33 L37 32 L35 31 L35 30 L34 31 L32 30 L29 30 L29 31 L29 31 L27 31 L26 31 L25 31 L23 31 L20 33 L20 34 L20 35 L20 35 L18 35 L18 33 L16 31 L15 31 L14 31 L14 32 L13 31 L12 31 L11 30 L10 29 L8 29 L8 29 L5 29 L0 28 L1 27 L-2 28 L-2 27 L-4 26 L-6 25 L-6 25 L-7 24 L-8 22 L-10 20 L-10 20 L-10 19 L-10 17 L-10 16 L-10 13 L-10 12 L-11 10 L-11 10 L-9 10 L-8 11 L-8 11 L-9 9 Z M-46 41 L-44 42 L-45 43 L-46 42 L-46 41 Z M-46 41 L-46 41 L-47 41 L-46 41 L-46 41 Z M-47 40 L-47 41 L-47 40 L-47 40 Z M-48 40 L-48 40 L-48 40 L-48 40 L-48 40 L-48 40 Z M-50 39 L-50 40 L-50 39 L-50 39 L-50 39 Z M-59 -3 L-57 -4 L-57 -3 L-57 -3 L-59 -3 Z M-43 -1 L-41 -0 L-44 0 L-44 0 L-44 -0 L-43 -1 Z M-29 -14 L-29 -4 L-27 -3 L-25 -2 L-23 -3 L-20 -1 L-19 1 L-17 1 L-17 2 L-17 3 L-19 2 L-19 1 L-21 -0 L-21 -1 L-24 -1 L-28 -3 L-31 -3 L-32 -3 L-36 -4 L-37 -4 L-37 -3 L-41 -2 L-41 -3 L-41 -4 L-39 -4 L-40 -5 L-44 -2 L-43 -2 L-44 -1 L-46 -0 L-46 0 L-48 1 L-49 1 L-54 3 L-56 3 L-52 1 L-51 1 L-49 0 L-48 -0 L-47 -2 L-49 -2 L-49 -1 L-50 -2 L-50 -2 L-51 -2 L-52 -2 L-52 -3 L-53 -3 L-55 -3 L-56 -4 L-56 -4 L-57 -5 L-57 -6 L-55 -7 L-54 -7 L-53 -7 L-51 -7 L-51 -8 L-52 -8 L-51 -9 L-53 -8 L-56 -8 L-58 -8 L-59 -10 L-55 -11 L-54 -11 L-55 -10 L-52 -10 L-56 -12 L-58 -13 L-57 -13 L-55 -13 L-54 -14 L-54 -14 L-52 -15 L-48 -15 L-46 -16 L-45 -16 L-44 -15 L-42 -15 L-42 -15 L-40 -15 L-33 -14 L-32 -15 L-29 -14 Z M-63 -7 L-62 -7 L-60 -7 L-61 -7 L-62 -7 L-63 -7 L-63 -7 Z" fill="#444444" stroke="#222222" stroke-width="0.3"/>
<path d="M49 42 L49 43 L49 43 L49 44 L46 44 L46 44 L46 43 L48 43 L48 43 L48 42 L47 42 L47 42 L49 42 Z" fill="#444444" stroke="#222222" stroke-width="0.3"/>
<path d="M49 44 L49 43 L49 42 L51 42 L51 43 L52 42 L52 43 L53 43 L52 44 L51 43 L50 44 L50 43 L49 44 Z" fill="#444444" stroke="#222222" stroke-width="0.3"/>
<path d="M41 34 L42 34 L42 34 L41 35 L41 34 Z M42 34 L43 34 L43 35 L43 34 L42 34 Z M42 36 L42 36 L42 37 L42 38 L41 37 L42 36 Z" fill="#444444" stroke="#222222" stroke-width="0.3"/>
<path d="M-2 28 L1 27 L0 28 L5 29 L8 29 L8 29 L10 29 L11 30 L12 31 L13 31 L14 32 L14 31 L15 31 L16 31 L18 33 L18 35 L20 35 L20 37 L19 39 L20 41 L22 43 L23 43 L23 44 L27 43 L27 43 L28 41 L32 40 L32 41 L31 42 L31 42 L31 44 L30 43 L30 44 L27 44 L27 45 L27 45 L28 46 L28 46 L26 46 L26 47 L26 48 L24 46 L23 46 L21 47 L16 45 L15 44 L13 44 L11 42 L11 41 L11 41 L11 40 L10 39 L8 36 L7 35 L7 34 L5 34 L5 33 L5 33 L3 32 L2 29 L0 28 L0 29 L1 30 L4 34 L5 37 L6 37 L7 38 L6 39 L5 37 L3 36 L3 35 L0 33 L1 33 L1 32 L-0 31 L-2 28 Z" fill="#444444" stroke="#222222" stroke-width="0.3"/>
<path d="M42 54 L43 55 L42 56 L42 56 L41 55 L42 55 L41 54 L39 55 L40 56 L39 56 L38 55 L38 56 L38 55 L36 55 L36 55 L36 54 L37 53 L37 54 L38 54 L40 53 L41 53 L42 54 Z" fill="#444444" stroke="#222222" stroke-width="0.3"/>
<path d="M37 53 L36 54 L36 54 L36 55 L36 55 L35 54 L34 53 L34 53 L33 53 L33 52 L33 52 L33 52 L35 52 L35 52 L37 53 Z" fill="#444444" stroke="#222222" stroke-width="0.3"/>
<path d="M35 52 L35 52 L33 52 L31 50 L32 49 L32 49 L33 48 L33 49 L34 48 L35 48 L36 47 L35 51 L35 52 Z" fill="#444444" stroke="#222222" stroke-width="0.3"/>
<path d="M36 47 L35 48 L34 48 L33 49 L33 48 L32 49 L32 49 L31 50 L31 49 L31 49 L30 49 L29 48 L29 47 L31 46 L34 46 L36 47 Z" fill="#444444" stroke="#222222" stroke-width="0.3"/>
<path d="M29 48 L30 49 L31 49 L31 49 L28 49 L29 48 Z" fill="#444444" stroke="#222222" stroke-width="0.3"/>
<path d="M26 48 L26 47 L26 46 L28 46 L28 46 L27 45 L27 45 L27 44 L29 44 L29 46 L30 47 L29 47 L29 48 L28 49 L27 49 L26 48 Z" fill="#444444" stroke="#222222" stroke-width="0.3"/>
<path d="M29 44 L30 43 L30 44 L30 46 L29 46 L29 46 L29 44 Z" fill="#444444" stroke="#222222" stroke-width="0.3"/>
<path d="M54 43 L56 44 L55 44 L54 44 L54 43 Z" fill="#444444" stroke="#222222" stroke-width="0.3"/>
<path d="M41 44 L43 44 L44 44 L43 44 L41 44 Z" fill="#444444" stroke="#222222" stroke-width="0.3"/>
<path d="M37 38 L39 38 L40 39 L41 39 L43 40 L44 41 L44 41 L46 41 L45 42 L42 42 L43 41 L42 41 L41 40 L37 39 L38 39 L36 39 L35 40 L34 40 L35 39 L37 38 Z" fill="#cc3333" stroke="#222222" stroke-width="0.3"/>
<path d="M60 52 L61 52 L61 53 L60 53 L60 52 Z" fill="#444444" stroke="#222222" stroke-width="0.3"/>
</svg>