<svg xmlns="http://www.w3.org/2000/svg" viewBox="0 0 80 80" width="80" height="80">
<path d="M52 37 L55 39 L55 40 L57 41 L56 42 L56 42 L57 43 L57 44 L58 46 L57 47 L54 47 L52 47 L52 46 L52 45 L49 44 L48 43 L48 42 L47 40 L48 40 L49 39 L48 38 L49 38 L49 38 L48 37 L52 37 Z" fill="#444444" stroke="#222222" stroke-width="0.3"/>
<path d="M11 10 L11 11 L8 11 L8 14 L7 14 L7 14 L7 16 L3 16 L3 16 L3 16 L5 16 L6 13 L7 12 L8 11 L8 11 L8 10 L11 10 L11 10 Z" fill="#444444" stroke="#222222" stroke-width="0.3"/>
<path d="M47 39 L48 42 L48 43 L49 44 L47 44 L46 45 L47 45 L46 47 L47 48 L48 48 L48 49 L47 49 L46 48 L45 48 L45 47 L45 48 L44 47 L44 47 L43 47 L42 47 L40 47 L40 43 L39 43 L39 43 L38 43 L38 43 L37 44 L36 44 L35 42 L31 42 L31 42 L31 41 L32 40 L33 40 L33 41 L35 40 L35 39 L35 38 L36 37 L37 32 L38 31 L41 32 L41 32 L42 32 L43 31 L43 31 L44 31 L45 31 L46 32 L46 32 L48 32 L49 33 L49 34 L49 34 L48 36 L47 39 Z" fill="#cc3333" stroke="#222222" stroke-width="0.3"/>
<path d="M59 38 L58 37 L58 34 L60 32 L60 32 L61 31 L62 31 L66 27 L66 25 L68 25 L68 26 L68 27 L66 31 L64 33 L61 36 L59 38 Z" fill="#444444" stroke="#222222" stroke-width="0.3"/>
<path d="M57 41 L55 40 L55 39 L52 37 L52 36 L53 34 L52 32 L53 31 L54 31 L54 32 L54 32 L55 32 L56 33 L57 33 L58 32 L59 32 L59 32 L58 34 L58 37 L59 38 L58 39 L57 40 L57 41 Z" fill="#444444" stroke="#222222" stroke-width="0.3"/>
<path d="M43 28 L42 28 L42 28 L42 27 L41 26 L41 24 L40 24 L41 23 L41 22 L41 21 L42 21 L42 17 L43 17 L43 15 L55 15 L55 18 L56 19 L55 20 L54 23 L52 26 L52 26 L52 28 L52 26 L51 26 L51 25 L51 24 L50 25 L50 26 L49 27 L49 27 L48 26 L47 27 L45 27 L44 26 L43 26 L43 28 L42 28 L43 28 Z" fill="#444444" stroke="#222222" stroke-width="0.3"/>
<path d="M42 17 L42 21 L41 21 L41 22 L41 23 L40 24 L41 24 L41 26 L40 26 L39 27 L38 28 L37 28 L37 28 L36 29 L34 29 L34 29 L34 28 L33 27 L33 27 L34 27 L34 26 L33 23 L33 23 L33 23 L32 22 L33 21 L34 20 L34 17 L34 16 L33 14 L34 14 L42 17 Z" fill="#444444" stroke="#222222" stroke-width="0.3"/>
<path d="M35 64 L35 63 L36 64 L37 64 L38 63 L38 60 L39 61 L39 62 L40 62 L42 60 L42 61 L44 61 L44 60 L45 60 L45 59 L47 57 L49 57 L50 60 L50 61 L49 61 L49 62 L49 62 L50 62 L50 62 L51 62 L50 64 L46 68 L44 69 L41 69 L38 69 L37 69 L36 67 L37 67 L37 66 L35 64 Z" fill="#444444" stroke="#222222" stroke-width="0.3"/>
<path d="M47 64 L47 64 L47 65 L46 65 L46 66 L45 65 L46 64 L47 64 Z" fill="#444444" stroke="#222222" stroke-width="0.3"/>
<path d="M49 57 L47 57 L46 57 L46 56 L44 55 L43 53 L45 53 L47 52 L48 51 L48 51 L49 51 L51 52 L51 56 L49 57 Z" fill="#444444" stroke="#222222" stroke-width="0.3"/>
<path d="M47 57 L45 59 L45 60 L44 60 L44 61 L42 61 L42 60 L40 62 L39 62 L39 61 L38 60 L38 57 L39 57 L39 54 L41 53 L42 54 L43 53 L44 55 L46 56 L46 57 L47 57 Z" fill="#444444" stroke="#222222" stroke-width="0.3"/>
<path d="M38 57 L38 63 L37 64 L36 64 L35 63 L35 64 L34 62 L33 57 L31 53 L30 53 L32 52 L33 53 L37 53 L37 53 L40 53 L42 53 L43 53 L42 54 L41 53 L39 54 L39 57 L38 57 Z" fill="#444444" stroke="#222222" stroke-width="0.3"/>
<path d="M3 23 L2 22 L3 22 L4 20 L5 20 L6 21 L8 22 L8 24 L4 24 L3 24 L3 24 L6 23 L6 23 L5 23 L5 23 L3 23 Z" fill="#444444" stroke="#222222" stroke-width="0.3"/>
<path d="M8 25 L8 22 L8 21 L9 22 L10 21 L14 21 L14 21 L13 12 L15 12 L21 16 L21 17 L22 17 L22 18 L23 18 L23 20 L23 21 L21 22 L20 22 L18 22 L16 23 L15 23 L14 25 L14 26 L13 27 L13 26 L13 26 L12 26 L11 26 L11 26 L11 25 L11 24 L10 25 L9 24 L8 25 Z" fill="#444444" stroke="#222222" stroke-width="0.3"/>
<path d="M3 16 L3 16 L7 16 L7 14 L7 14 L8 14 L8 11 L11 11 L11 10 L15 12 L13 12 L14 21 L14 21 L10 21 L9 22 L8 21 L8 22 L6 21 L5 20 L4 20 L3 21 L4 19 L4 17 L3 16 Z" fill="#444444" stroke="#222222" stroke-width="0.3"/>
<path d="M22 30 L21 30 L21 27 L20 26 L21 25 L22 24 L23 25 L23 26 L23 27 L22 28 L22 30 Z" fill="#444444" stroke="#222222" stroke-width="0.3"/>
<path d="M33 14 L34 16 L34 17 L34 20 L33 21 L32 22 L33 23 L33 23 L33 23 L33 24 L32 23 L31 24 L30 23 L28 24 L27 23 L26 24 L24 23 L23 23 L23 25 L22 24 L21 25 L21 24 L20 24 L20 23 L20 22 L23 21 L23 20 L23 18 L25 17 L31 14 L32 14 L33 15 L33 14 Z" fill="#444444" stroke="#222222" stroke-width="0.3"/>
<path d="M22 30 L22 28 L23 27 L23 24 L23 23 L24 23 L26 24 L27 23 L28 24 L30 23 L31 24 L32 23 L33 25 L32 26 L30 29 L30 30 L29 29 L28 30 L27 32 L25 32 L23 30 L22 30 Z" fill="#444444" stroke="#222222" stroke-width="0.3"/>
<path d="M33 24 L34 24 L34 26 L34 27 L33 27 L33 27 L34 28 L34 29 L33 30 L33 32 L34 33 L35 35 L33 34 L28 34 L29 33 L27 32 L28 31 L28 30 L29 29 L30 30 L30 29 L32 26 L33 25 L33 25 L33 24 L33 24 Z" fill="#444444" stroke="#222222" stroke-width="0.3"/>
<path d="M20 26 L20 26 L21 27 L21 30 L20 30 L20 30 L20 28 L20 26 L19 26 L19 26 L20 26 Z" fill="#444444" stroke="#222222" stroke-width="0.3"/>
<path d="M19 26 L20 28 L20 30 L20 30 L17 32 L17 31 L16 30 L17 28 L16 26 L19 26 Z" fill="#444444" stroke="#222222" stroke-width="0.3"/>
<path d="M12 26 L13 26 L13 26 L13 27 L14 26 L15 27 L16 27 L17 27 L17 28 L16 30 L17 31 L15 31 L12 32 L12 31 L11 30 L11 28 L12 28 L11 27 L12 26 Z" fill="#444444" stroke="#222222" stroke-width="0.3"/>
<path d="M6 24 L8 24 L8 25 L9 24 L10 25 L11 24 L11 25 L11 26 L11 26 L12 26 L11 27 L12 28 L11 28 L11 29 L10 29 L10 28 L9 28 L9 27 L9 27 L7 27 L7 28 L5 26 L5 25 L6 25 L6 24 Z" fill="#444444" stroke="#222222" stroke-width="0.3"/>
<path d="M3 24 L6 24 L6 25 L5 25 L5 26 L4 25 L3 24 Z" fill="#444444" stroke="#222222" stroke-width="0.3"/>
<path d="M11 29 L11 30 L12 31 L12 32 L11 32 L8 30 L9 28 L10 28 L10 29 L11 29 Z" fill="#444444" stroke="#222222" stroke-width="0.3"/>
<path d="M7 28 L7 27 L9 27 L9 27 L9 28 L9 28 L8 30 L7 29 L7 28 Z" fill="#444444" stroke="#222222" stroke-width="0.3"/>
<path d="M14 26 L14 25 L15 24 L15 24 L16 23 L18 22 L20 22 L20 23 L20 24 L21 24 L21 25 L20 26 L16 26 L17 27 L16 27 L15 27 L14 26 Z" fill="#444444" stroke="#222222" stroke-width="0.3"/>
<path d="M45 31 L44 31 L43 31 L43 31 L42 32 L41 32 L41 32 L38 31 L37 32 L37 33 L36 33 L35 34 L34 33 L33 32 L33 31 L33 30 L34 29 L36 29 L37 28 L37 28 L38 28 L39 27 L40 26 L41 26 L42 27 L42 28 L43 29 L45 30 L45 31 Z" fill="#444444" stroke="#222222" stroke-width="0.3"/>
<path d="M37 33 L36 37 L35 38 L35 39 L35 40 L33 41 L33 40 L32 40 L32 41 L31 40 L31 41 L30 40 L31 39 L30 39 L31 38 L31 38 L32 38 L33 39 L33 37 L33 37 L32 36 L33 35 L32 35 L32 34 L35 35 L35 33 L36 33 L37 33 Z" fill="#444444" stroke="#222222" stroke-width="0.3"/>
<path d="M30 34 L32 34 L32 35 L33 35 L32 36 L33 37 L33 37 L33 39 L32 38 L31 38 L31 38 L30 39 L31 39 L30 40 L28 37 L28 35 L30 35 L30 34 Z" fill="#444444" stroke="#222222" stroke-width="0.3"/>
<path d="M28 34 L30 34 L30 35 L28 35 L28 35 L28 34 Z" fill="#444444" stroke="#222222" stroke-width="0.3"/>
<path d="M49 44 L51 45 L51 46 L51 47 L51 48 L51 49 L51 50 L48 50 L48 51 L47 52 L45 53 L43 53 L43 53 L41 53 L40 52 L40 49 L42 49 L42 47 L42 47 L43 47 L44 47 L44 47 L45 48 L45 47 L45 48 L46 48 L47 49 L48 49 L48 48 L47 48 L46 47 L47 45 L46 45 L47 44 L49 44 Z" fill="#444444" stroke="#222222" stroke-width="0.3"/>
<path d="M51 45 L52 45 L52 46 L52 49 L53 49 L53 50 L53 51 L53 52 L53 52 L52 52 L52 50 L51 49 L51 48 L51 47 L51 46 L51 45 Z" fill="#444444" stroke="#222222" stroke-width="0.3"/>
<path d="M52 47 L55 47 L57 47 L58 46 L58 50 L57 52 L55 53 L53 55 L52 56 L53 57 L53 59 L51 60 L50 61 L51 61 L51 62 L50 62 L50 61 L50 60 L49 57 L51 56 L51 52 L49 51 L48 51 L48 50 L51 50 L52 50 L52 52 L53 52 L53 52 L53 51 L53 50 L53 49 L52 49 L52 48 L52 47 Z" fill="#444444" stroke="#222222" stroke-width="0.3"/>
<path d="M50 62 L50 62 L49 62 L49 62 L49 61 L50 61 L50 62 Z" fill="#444444" stroke="#222222" stroke-width="0.3"/>
<path d="M32 41 L31 41 L31 42 L31 41 L31 40 L32 41 Z M31 42 L35 42 L36 44 L37 44 L38 43 L38 43 L39 43 L39 43 L40 43 L40 47 L42 47 L42 47 L42 47 L42 49 L40 49 L40 52 L41 53 L40 53 L37 53 L37 53 L33 53 L32 52 L30 53 L31 50 L32 48 L32 47 L32 45 L32 44 L31 42 Z" fill="#444444" stroke="#222222" stroke-width="0.3"/>
<path d="M48 38 L49 39 L48 40 L47 40 L47 39 L48 39 L48 38 L48 38 Z" fill="#444444" stroke="#222222" stroke-width="0.3"/>
<path d="M66 48 L67 49 L67 51 L67 51 L67 51 L67 51 L67 52 L64 60 L63 61 L61 60 L61 58 L61 57 L61 56 L62 55 L61 53 L62 52 L64 51 L65 50 L65 50 L65 49 L65 49 L66 48 Z" fill="#444444" stroke="#222222" stroke-width="0.3"/>
<path d="M3 23 L5 23 L5 23 L6 23 L6 23 L3 24 L3 23 Z" fill="#444444" stroke="#222222" stroke-width="0.3"/>
<path d="M28 7 L28 5 L27 4 L26 4 L27 3 L27 1 L28 0 L29 1 L29 1 L30 1 L29 1 L29 2 L30 2 L30 3 L29 3 L29 4 L30 4 L30 4 L30 5 L29 6 L29 7 L28 7 Z" fill="#444444" stroke="#222222" stroke-width="0.3"/>
<path d="M11 10 L11 9 L14 7 L15 7 L16 7 L16 6 L18 5 L18 5 L17 3 L18 2 L21 1 L24 1 L25 1 L27 1 L27 3 L26 4 L27 4 L28 5 L29 8 L29 11 L28 11 L29 13 L30 13 L31 14 L25 17 L22 18 L22 17 L21 17 L21 16 L11 10 Z" fill="#444444" stroke="#222222" stroke-width="0.3"/>
<path d="M54 22 L55 20 L56 19 L57 21 L60 24 L60 24 L58 23 L58 22 L57 22 L56 22 L56 22 L55 23 L54 22 Z" fill="#444444" stroke="#222222" stroke-width="0.3"/>
<path d="M17 3 L18 5 L18 5 L16 6 L16 7 L15 7 L14 7 L11 9 L11 10 L8 10 L7 12 L6 13 L5 16 L3 16 L4 13 L5 13 L5 11 L6 11 L7 9 L8 9 L10 8 L10 6 L10 5 L11 4 L13 4 L14 2 L14 2 L15 2 L17 3 Z" fill="#444444" stroke="#222222" stroke-width="0.3"/>
<path d="M55 15 L43 15 L43 8 L43 7 L43 6 L43 6 L45 6 L47 7 L49 6 L50 6 L50 7 L50 6 L52 7 L52 6 L53 8 L52 10 L52 10 L51 9 L50 8 L52 11 L53 13 L53 14 L55 15 Z" fill="#444444" stroke="#222222" stroke-width="0.3"/>
<path d="M43 8 L43 17 L42 17 L42 17 L34 14 L33 15 L32 14 L31 14 L30 13 L29 13 L28 11 L29 11 L29 8 L28 7 L29 7 L29 6 L30 5 L30 4 L34 5 L34 6 L38 7 L38 7 L38 6 L39 5 L41 5 L41 5 L43 6 L43 6 L43 6 L43 7 L43 8 Z" fill="#444444" stroke="#222222" stroke-width="0.3"/>
<path d="M65 29 L62 31 L61 31 L59 32 L59 32 L58 32 L57 33 L56 33 L55 32 L54 32 L54 32 L54 31 L53 31 L52 30 L51 29 L51 29 L51 28 L52 28 L52 26 L54 24 L54 22 L55 23 L56 22 L56 22 L57 22 L58 22 L59 23 L60 24 L59 25 L59 26 L60 26 L60 26 L61 27 L64 29 L65 29 Z" fill="#444444" stroke="#222222" stroke-width="0.3"/>
<path d="M60 24 L60 24 L61 24 L61 25 L60 25 L61 25 L60 26 L59 26 L59 25 L60 24 Z" fill="#444444" stroke="#222222" stroke-width="0.3"/>
<path d="M66 25 L66 27 L65 29 L64 29 L61 27 L60 26 L61 25 L61 26 L66 25 Z" fill="#444444" stroke="#222222" stroke-width="0.3"/>
<path d="M52 37 L49 37 L48 37 L48 36 L49 34 L49 34 L49 33 L49 33 L50 33 L51 33 L52 32 L52 33 L53 34 L52 36 L52 37 Z" fill="#444444" stroke="#222222" stroke-width="0.3"/>
<path d="M48 37 L49 38 L49 38 L48 38 L48 39 L47 39 L47 38 L48 37 Z" fill="#444444" stroke="#222222" stroke-width="0.3"/>
<path d="M49 33 L48 32 L46 32 L45 31 L45 30 L44 30 L43 29 L43 29 L42 28 L43 28 L43 26 L44 26 L45 27 L47 27 L48 26 L49 27 L49 27 L50 26 L50 25 L51 25 L51 26 L52 26 L52 28 L52 28 L51 28 L51 29 L51 29 L52 29 L53 31 L51 33 L50 33 L49 33 L49 33 Z" fill="#444444" stroke="#222222" stroke-width="0.3"/>
</svg>