<svg xmlns="http://www.w3.org/2000/svg" viewBox="0 0 80 80" width="80" height="80">
<path d="M-136 -61 L-44 -61 L-44 -62 L-42 -62 L-41 -60 L-32 -58 L-24 -58 L-21 -59 L-9 -54 L-8 -53 L-7 -53 L-5 -51 L-5 -50 L-2 -49 L-0 -43 L-3 -38 L-2 -37 L11 -41 L10 -43 L11 -43 L18 -43 L24 -48 L35 -48 L38 -49 L43 -56 L48 -55 L48 -50 L51 -47 L40 -43 L38 -41 L38 -39 L39 -37 L40 -37 L40 -38 L41 -37 L41 -37 L28 -34 L34 -34 L27 -34 L26 -33 L27 -32 L26 -30 L24 -27 L22 -29 L24 -26 L21 -22 L21 -24 L20 -25 L19 -28 L19 -27 L19 -25 L17 -25 L19 -24 L21 -16 L19 -14 L10 -9 L3 -2 L3 2 L7 13 L6 18 L3 18 L1 16 L-3 9 L-2 7 L-5 3 L-7 2 L-10 4 L-14 1 L-25 2 L-24 5 L-24 5 L-29 5 L-32 3 L-37 3 L-42 4 L-50 10 L-51 13 L-50 16 L-52 16 L-57 15 L-58 11 L-63 4 L-65 3 L-68 3 L-70 6 L-73 5 L-75 4 L-77 0 L-82 -3 L-87 -3 L-87 -2 L-97 -2 L-109 -6 L-109 -7 L-117 -6 L-118 -8 L-122 -11 L-129 -13 L-129 -15 L-132 -18 L-135 -24 L-139 -28 L-140 -30 L-141 -32 L-141 -38 L-142 -40 L-140 -49 L-140 -54 L-142 -58 L-142 -59 L-137 -58 L-135 -55 L-134 -56 L-136 -61 Z M-246 35 L-243 37 L-246 39 L-247 37 L-246 35 Z M-247 33 L-248 34 L-249 33 L-249 32 L-247 33 Z M-251 32 L-250 32 L-251 32 L-251 32 Z M-254 30 L-252 31 L-253 32 L-254 31 L-255 31 L-254 30 Z M-258 28 L-259 30 L-260 29 L-259 28 L-258 28 Z M-285 -99 L-279 -99 L-279 -98 L-281 -97 L-285 -99 Z M-238 -91 L-234 -90 L-240 -87 L-242 -88 L-243 -89 L-238 -91 Z M-197 -130 L-197 -99 L-190 -98 L-185 -94 L-178 -97 L-171 -93 L-166 -86 L-160 -84 L-160 -82 L-162 -81 L-167 -83 L-168 -86 L-172 -88 L-174 -92 L-182 -92 L-193 -96 L-202 -98 L-207 -98 L-217 -101 L-221 -100 L-220 -98 L-233 -95 L-233 -97 L-232 -100 L-228 -101 L-229 -102 L-240 -96 L-238 -94 L-241 -92 L-248 -89 L-249 -88 L-254 -86 L-255 -84 L-271 -80 L-277 -80 L-266 -84 L-262 -85 L-256 -88 L-253 -90 L-250 -94 L-255 -94 L-257 -93 L-259 -94 L-260 -93 L-262 -95 L-267 -93 L-267 -97 L-269 -98 L-273 -97 L-278 -100 L-278 -101 L-281 -103 L-279 -105 L-276 -108 L-271 -108 L-268 -110 L-263 -110 L-264 -112 L-265 -113 L-263 -114 L-270 -112 L-277 -113 L-282 -114 L-287 -117 L-275 -120 L-273 -120 L-273 -118 L-266 -118 L-278 -125 L-283 -126 L-281 -128 L-275 -128 L-271 -129 L-270 -131 L-267 -132 L-254 -134 L-249 -136 L-244 -135 L-241 -134 L-234 -134 L-234 -133 L-229 -133 L-210 -131 L-205 -132 L-197 -130 Z M-300 -111 L-295 -110 L-289 -109 L-292 -108 L-296 -109 L-299 -109 L-300 -111 Z" fill="#444444" stroke="#222222" stroke-width="0.3"/>
<path d="M35 37 L35 40 L34 40 L35 42 L27 42 L26 41 L26 40 L31 41 L33 40 L31 38 L29 37 L30 36 L35 37 Z" fill="#444444" stroke="#222222" stroke-width="0.3"/>
<path d="M36 44 L34 40 L35 36 L41 37 L41 38 L43 38 L43 39 L46 40 L45 42 L41 41 L39 42 L38 41 L36 44 Z" fill="#cc3333" stroke="#222222" stroke-width="0.3"/>
<path d="M10 13 L14 13 L14 14 L11 14 L10 13 Z M14 12 L17 14 L16 16 L16 14 L14 12 Z M13 18 L14 19 L15 23 L14 23 L12 21 L13 18 Z" fill="#444444" stroke="#222222" stroke-width="0.3"/>
<path d="M-117 -6 L-109 -7 L-109 -6 L-97 -2 L-87 -2 L-87 -3 L-82 -3 L-77 0 L-75 4 L-73 5 L-70 6 L-68 3 L-65 3 L-63 4 L-58 11 L-57 15 L-50 16 L-52 22 L-53 28 L-50 34 L-46 40 L-43 41 L-41 42 L-31 40 L-29 38 L-27 32 L-17 31 L-16 33 L-18 37 L-18 38 L-19 42 L-21 41 L-23 43 L-30 43 L-30 45 L-31 45 L-28 48 L-28 49 L-32 49 L-34 52 L-34 54 L-39 49 L-42 48 L-48 50 L-63 45 L-66 43 L-72 42 L-78 36 L-79 34 L-78 34 L-77 31 L-80 27 L-88 19 L-91 17 L-91 14 L-95 12 L-95 10 L-97 9 L-101 6 L-104 -2 L-109 -4 L-110 -2 L-109 2 L-99 14 L-95 21 L-94 22 L-91 25 L-93 26 L-96 22 L-101 20 L-101 16 L-110 10 L-109 10 L-107 7 L-112 4 L-117 -6 Z" fill="#444444" stroke="#222222" stroke-width="0.3"/>
<path d="M16 74 L16 76 L15 77 L14 78 L12 76 L13 75 L10 73 L6 75 L7 77 L4 79 L3 77 L2 77 L1 76 L-2 75 L-3 76 L-3 71 L-1 71 L-0 73 L2 73 L8 71 L10 71 L16 74 Z" fill="#444444" stroke="#222222" stroke-width="0.3"/>
<path d="M-1 71 L-3 71 L-2 73 L-3 75 L-5 74 L-5 72 L-10 69 L-10 71 L-12 69 L-12 67 L-13 66 L-12 65 L-6 67 L-5 66 L-1 71 Z" fill="#444444" stroke="#222222" stroke-width="0.3"/>
<path d="M-5 66 L-6 67 L-12 66 L-19 59 L-15 58 L-16 57 L-13 56 L-12 56 L-9 53 L-8 54 L-3 53 L-6 65 L-5 66 Z" fill="#444444" stroke="#222222" stroke-width="0.3"/>
<path d="M-3 53 L-8 54 L-9 53 L-12 56 L-13 56 L-16 57 L-15 58 L-17 59 L-19 58 L-19 56 L-21 56 L-24 54 L-24 52 L-19 50 L-10 49 L-3 53 Z" fill="#444444" stroke="#222222" stroke-width="0.3"/>
<path d="M-24 54 L-21 56 L-19 57 L-19 59 L-27 57 L-24 54 Z" fill="#444444" stroke="#222222" stroke-width="0.3"/>
<path d="M-34 54 L-34 52 L-32 49 L-28 49 L-28 48 L-31 45 L-30 45 L-30 43 L-24 43 L-24 50 L-20 50 L-24 52 L-24 54 L-27 57 L-31 56 L-34 54 Z" fill="#444444" stroke="#222222" stroke-width="0.3"/>
<path d="M-24 43 L-21 41 L-20 41 L-21 47 L-23 50 L-24 50 L-24 43 Z" fill="#444444" stroke="#222222" stroke-width="0.3"/>
<path d="M50 41 L55 42 L54 43 L50 43 L50 41 Z" fill="#444444" stroke="#222222" stroke-width="0.3"/>
<path d="M13 42 L17 41 L20 43 L16 43 L13 42 Z" fill="#444444" stroke="#222222" stroke-width="0.3"/>
<path d="M-1 25 L5 25 L9 28 L13 27 L19 32 L22 32 L21 33 L26 35 L24 36 L15 36 L17 34 L13 33 L11 30 L-0 28 L1 27 L-2 27 L-7 29 L-10 29 L-6 26 L-1 25 Z" fill="#444444" stroke="#222222" stroke-width="0.3"/>
<path d="M68 67 L71 66 L71 69 L67 69 L68 67 Z" fill="#444444" stroke="#222222" stroke-width="0.3"/>
</svg>