<svg xmlns="http://www.w3.org/2000/svg" viewBox="0 0 80 80" width="80" height="80">
<path d="M-66 -21 L-10 -21 L-10 -21 L-9 -21 L-9 -20 L-3 -19 L2 -19 L3 -19 L10 -16 L11 -16 L12 -16 L13 -15 L13 -14 L15 -13 L16 -10 L14 -7 L15 -6 L22 -8 L22 -10 L23 -10 L27 -10 L31 -13 L37 -13 L39 -14 L42 -18 L45 -17 L45 -14 L46 -12 L40 -10 L39 -8 L39 -7 L39 -6 L40 -6 L40 -7 L40 -6 L40 -6 L33 -4 L36 -4 L32 -4 L32 -4 L32 -3 L32 -2 L30 -0 L29 -2 L30 1 L28 3 L29 2 L28 1 L28 -1 L27 -0 L28 1 L26 1 L28 2 L29 6 L28 8 L22 10 L18 15 L18 17 L20 24 L19 27 L18 27 L17 26 L14 22 L15 20 L13 18 L12 17 L10 18 L7 17 L1 17 L2 19 L1 19 L-2 19 L-3 18 L-6 18 L-9 18 L-14 22 L-15 24 L-14 26 L-15 26 L-18 25 L-19 22 L-22 19 L-23 18 L-25 18 L-26 19 L-28 19 L-29 18 L-30 16 L-33 14 L-36 14 L-36 15 L-42 15 L-50 12 L-49 12 L-54 12 L-55 11 L-57 9 L-61 8 L-61 7 L-63 5 L-65 2 L-67 -1 L-68 -2 L-69 -3 L-68 -7 L-69 -8 L-68 -14 L-68 -16 L-69 -19 L-69 -19 L-66 -19 L-65 -17 L-65 -17 L-66 -21 Z M-132 37 L-130 38 L-132 40 L-132 38 L-132 37 Z M-132 36 L-133 36 L-134 36 L-133 35 L-132 36 Z M-135 35 L-134 35 L-135 35 L-135 35 Z M-136 34 L-135 35 L-136 35 L-136 35 L-137 34 L-136 34 Z M-139 33 L-139 34 L-140 33 L-139 33 L-139 33 Z M-155 -43 L-152 -43 L-151 -43 L-153 -42 L-155 -43 Z M-127 -39 L-124 -38 L-128 -36 L-129 -37 L-130 -38 L-127 -39 Z M-102 -62 L-102 -43 L-98 -43 L-95 -41 L-91 -42 L-87 -40 L-83 -36 L-80 -35 L-80 -33 L-81 -32 L-84 -34 L-85 -35 L-87 -37 L-88 -39 L-93 -39 L-100 -42 L-105 -43 L-108 -43 L-114 -44 L-117 -44 L-116 -43 L-124 -41 L-124 -42 L-123 -44 L-121 -45 L-121 -45 L-128 -41 L-127 -40 L-129 -39 L-133 -38 L-133 -37 L-136 -36 L-137 -35 L-146 -32 L-150 -32 L-144 -34 L-141 -35 L-138 -37 L-136 -38 L-134 -41 L-137 -40 L-138 -40 L-140 -41 L-140 -40 L-141 -41 L-144 -40 L-144 -42 L-145 -43 L-148 -42 L-151 -44 L-151 -45 L-152 -46 L-152 -47 L-149 -49 L-146 -49 L-145 -50 L-142 -50 L-142 -51 L-143 -52 L-142 -52 L-146 -51 L-150 -52 L-153 -52 L-156 -54 L-149 -56 L-148 -56 L-148 -55 L-144 -55 L-151 -59 L-154 -59 L-153 -61 L-149 -61 L-147 -62 L-146 -62 L-144 -63 L-136 -64 L-133 -65 L-130 -65 L-129 -64 L-125 -64 L-125 -64 L-122 -64 L-110 -63 L-107 -63 L-102 -62 Z M-164 -50 L-161 -50 L-158 -49 L-159 -49 L-162 -49 L-163 -49 L-164 -50 Z" fill="#444444" stroke="#222222" stroke-width="0.3"/>
<path d="M37 38 L37 40 L36 40 L37 41 L32 41 L31 41 L32 40 L35 41 L36 40 L35 39 L33 38 L34 38 L37 38 Z" fill="#444444" stroke="#222222" stroke-width="0.3"/>
<path d="M37 42 L36 40 L37 38 L40 38 L41 39 L42 39 L42 39 L44 40 L43 41 L40 41 L39 41 L39 41 L37 42 Z" fill="#cc3333" stroke="#222222" stroke-width="0.3"/>
<path d="M22 24 L25 24 L25 24 L22 25 L22 24 Z M25 23 L26 24 L26 26 L26 24 L25 23 Z M24 27 L24 27 L25 30 L25 30 L23 28 L24 27 Z" fill="#444444" stroke="#222222" stroke-width="0.3"/>
<path d="M-54 12 L-49 12 L-50 12 L-42 15 L-36 15 L-36 14 L-33 14 L-30 16 L-29 18 L-28 19 L-26 19 L-25 18 L-23 18 L-22 19 L-19 22 L-18 25 L-14 26 L-15 29 L-16 33 L-14 36 L-12 40 L-10 40 L-9 41 L-3 40 L-1 39 L-0 35 L6 34 L6 36 L5 38 L5 39 L4 41 L3 41 L2 42 L-2 42 L-2 43 L-3 43 L-1 45 L-1 45 L-3 45 L-4 47 L-4 48 L-8 46 L-9 45 L-13 46 L-22 43 L-24 42 L-27 41 L-31 38 L-31 37 L-31 36 L-30 35 L-32 32 L-37 27 L-38 26 L-39 25 L-41 23 L-41 22 L-42 22 L-44 20 L-46 15 L-50 14 L-50 15 L-49 17 L-43 24 L-41 29 L-40 29 L-39 31 L-40 32 L-42 29 L-44 28 L-45 25 L-50 22 L-49 22 L-48 20 L-51 18 L-54 12 Z" fill="#444444" stroke="#222222" stroke-width="0.3"/>
<path d="M26 60 L26 62 L25 62 L24 63 L23 61 L24 61 L22 60 L19 61 L20 62 L18 63 L18 62 L17 62 L17 61 L15 61 L14 61 L14 59 L15 58 L16 60 L17 60 L21 58 L22 58 L26 60 Z" fill="#444444" stroke="#222222" stroke-width="0.3"/>
<path d="M15 58 L14 59 L15 60 L14 61 L13 61 L13 59 L10 57 L10 58 L9 58 L9 56 L8 56 L9 55 L12 56 L13 56 L15 58 Z" fill="#444444" stroke="#222222" stroke-width="0.3"/>
<path d="M13 56 L12 56 L9 55 L5 52 L7 51 L7 50 L8 49 L9 50 L10 48 L11 48 L14 48 L12 55 L13 56 Z" fill="#444444" stroke="#222222" stroke-width="0.3"/>
<path d="M14 48 L11 48 L10 48 L9 50 L8 49 L7 50 L7 51 L6 52 L5 51 L4 50 L3 50 L1 49 L2 47 L4 46 L10 46 L14 48 Z" fill="#444444" stroke="#222222" stroke-width="0.3"/>
<path d="M1 49 L3 50 L5 50 L4 51 L-0 50 L1 49 Z" fill="#444444" stroke="#222222" stroke-width="0.3"/>
<path d="M-4 48 L-4 47 L-3 45 L-1 45 L-1 45 L-3 43 L-2 43 L-2 42 L2 42 L2 46 L4 46 L2 47 L1 49 L-0 50 L-2 50 L-4 48 Z" fill="#444444" stroke="#222222" stroke-width="0.3"/>
<path d="M2 42 L3 41 L4 41 L3 44 L2 46 L2 46 L2 42 Z" fill="#444444" stroke="#222222" stroke-width="0.3"/>
<path d="M46 40 L49 41 L49 42 L46 42 L46 40 Z" fill="#444444" stroke="#222222" stroke-width="0.3"/>
<path d="M24 41 L26 41 L28 42 L26 42 L24 41 Z" fill="#444444" stroke="#222222" stroke-width="0.3"/>
<path d="M16 31 L19 31 L22 33 L24 32 L27 35 L29 35 L29 36 L32 37 L30 38 L25 38 L26 37 L24 36 L23 34 L16 33 L17 32 L15 32 L12 34 L10 34 L13 32 L16 31 Z" fill="#444444" stroke="#222222" stroke-width="0.3"/>
<path d="M57 56 L59 56 L58 57 L56 57 L57 56 Z" fill="#444444" stroke="#222222" stroke-width="0.3"/>
</svg>