<svg xmlns="http://www.w3.org/2000/svg" viewBox="0 0 80 80" width="80" height="80">
<path d="M58 137 L60 140 L65 141 L64 142 L62 142 L61 142 L58 141 L58 137 Z M79 94 L77 102 L80 104 L80 105 L81 106 L81 107 L79 110 L76 111 L70 111 L71 114 L69 115 L67 115 L66 115 L65 115 L65 117 L66 118 L67 117 L68 118 L65 120 L64 123 L62 123 L61 124 L60 125 L62 127 L64 127 L63 129 L61 130 L60 132 L57 134 L58 136 L59 137 L52 136 L51 135 L51 133 L50 134 L49 133 L49 131 L50 130 L51 129 L51 128 L53 124 L52 123 L53 122 L52 121 L53 120 L52 120 L51 117 L52 117 L52 115 L53 111 L54 110 L53 107 L55 105 L55 104 L56 102 L56 100 L54 97 L56 95 L55 93 L56 91 L59 88 L58 87 L59 83 L61 83 L61 80 L63 78 L65 79 L66 80 L67 79 L69 79 L73 82 L79 85 L79 86 L77 88 L81 89 L83 89 L85 87 L85 86 L86 85 L87 87 L87 88 L84 90 L79 94 Z" fill="#444444" stroke="#222222" stroke-width="0.3"/>
<path d="M58 137 L58 141 L61 142 L59 143 L54 142 L49 140 L47 138 L53 140 L55 138 L57 137 L58 137 Z M56 70 L57 73 L58 74 L58 76 L60 80 L61 80 L61 81 L61 83 L59 83 L58 87 L59 88 L56 91 L55 93 L56 95 L54 97 L56 100 L56 102 L55 104 L55 105 L53 107 L54 110 L53 111 L52 115 L52 117 L51 117 L52 120 L53 120 L52 121 L53 122 L52 123 L53 124 L51 128 L51 129 L50 130 L49 131 L49 133 L50 134 L51 133 L51 135 L52 136 L58 137 L57 137 L54 138 L54 140 L53 140 L46 136 L45 130 L46 128 L48 126 L45 126 L47 124 L47 121 L49 122 L50 118 L49 117 L48 119 L47 119 L48 113 L49 112 L49 108 L49 108 L53 99 L52 96 L53 94 L53 92 L54 89 L55 77 L55 72 L56 70 Z" fill="#444444" stroke="#222222" stroke-width="0.3"/>
<path d="M72 136 L75 135 L76 135 L77 134 L79 135 L78 136 L76 136 L75 136 L73 137 L72 136 Z" fill="#444444" stroke="#222222" stroke-width="0.3"/>
<path d="M79 94 L80 94 L86 98 L88 99 L87 100 L87 101 L86 102 L84 103 L82 103 L79 102 L78 101 L79 94 Z" fill="#444444" stroke="#222222" stroke-width="0.3"/>
<path d="M87 101 L87 100 L88 99 L86 98 L80 94 L79 94 L84 90 L87 88 L87 87 L86 85 L85 86 L86 83 L83 82 L83 79 L79 79 L79 76 L78 75 L79 75 L79 74 L79 71 L79 70 L78 70 L78 68 L74 68 L74 65 L74 65 L74 63 L71 62 L68 61 L66 60 L64 59 L64 55 L62 56 L59 58 L54 58 L55 55 L53 56 L51 56 L51 55 L49 55 L50 54 L48 51 L48 50 L50 49 L50 47 L54 45 L56 45 L57 39 L55 37 L55 36 L57 35 L57 35 L56 34 L56 33 L60 33 L60 33 L61 34 L63 35 L64 35 L68 32 L66 32 L66 29 L65 29 L69 29 L73 28 L73 27 L73 27 L75 27 L74 28 L75 29 L75 31 L75 33 L76 34 L77 34 L80 33 L82 33 L82 32 L88 33 L91 29 L91 29 L93 33 L94 33 L94 35 L92 36 L93 37 L96 37 L96 39 L98 38 L103 40 L104 41 L104 42 L106 41 L110 42 L113 42 L118 46 L121 46 L122 47 L123 51 L122 54 L115 62 L114 71 L113 74 L111 77 L111 79 L109 79 L109 80 L104 81 L98 84 L97 86 L97 89 L96 91 L87 101 Z" fill="#444444" stroke="#222222" stroke-width="0.3"/>
<path d="M56 58 L59 58 L62 56 L64 55 L64 59 L66 60 L68 61 L71 62 L74 63 L74 65 L74 65 L74 68 L78 68 L78 70 L79 70 L79 71 L79 74 L79 75 L78 75 L78 75 L76 74 L71 74 L69 79 L67 79 L66 80 L65 79 L63 78 L61 80 L60 80 L58 76 L58 74 L57 73 L56 70 L57 68 L57 67 L57 66 L57 65 L57 64 L58 61 L56 58 Z" fill="#444444" stroke="#222222" stroke-width="0.3"/>
<path d="M56 45 L54 45 L50 47 L50 49 L48 50 L48 51 L50 54 L49 55 L51 55 L51 56 L53 56 L55 55 L54 58 L56 58 L58 61 L57 64 L57 65 L57 66 L57 67 L57 68 L56 71 L55 72 L53 71 L53 70 L44 65 L43 63 L44 62 L37 50 L34 48 L35 47 L34 46 L34 44 L36 43 L36 45 L37 45 L38 46 L39 45 L41 42 L43 42 L45 40 L45 38 L45 37 L46 37 L48 39 L50 41 L54 41 L55 42 L54 44 L56 45 Z" fill="#444444" stroke="#222222" stroke-width="0.3"/>
<path d="M61 34 L61 34 L60 33 L60 33 L56 33 L56 34 L57 35 L57 35 L55 36 L55 37 L57 39 L56 45 L54 44 L55 42 L54 41 L50 41 L48 39 L46 37 L43 36 L41 36 L38 33 L39 33 L39 32 L40 31 L42 29 L41 29 L41 25 L40 23 L41 22 L42 21 L41 20 L45 19 L45 16 L46 15 L49 15 L52 13 L53 13 L53 13 L53 14 L52 14 L50 17 L49 19 L50 19 L51 21 L51 22 L52 23 L55 23 L57 25 L61 25 L60 28 L61 30 L60 31 L61 32 L61 34 Z" fill="#444444" stroke="#222222" stroke-width="0.3"/>
<path d="M72 25 L73 27 L73 28 L69 29 L65 29 L66 29 L66 32 L68 32 L64 35 L63 35 L60 31 L61 30 L60 28 L61 25 L57 25 L55 23 L52 23 L51 22 L51 21 L50 19 L49 19 L50 17 L52 14 L53 14 L52 15 L52 17 L52 18 L52 19 L53 19 L53 18 L53 16 L55 15 L55 14 L56 13 L56 15 L58 15 L59 16 L63 16 L65 17 L66 16 L71 16 L69 17 L70 18 L72 18 L73 19 L73 20 L75 21 L74 22 L73 22 L74 23 L72 24 L72 25 Z" fill="#444444" stroke="#222222" stroke-width="0.3"/>
<path d="M81 33 L80 33 L77 34 L75 33 L75 31 L75 29 L74 28 L75 27 L73 27 L72 25 L72 24 L74 23 L73 22 L74 22 L75 21 L78 23 L78 24 L80 25 L80 27 L79 27 L78 29 L79 30 L80 30 L81 33 Z" fill="#444444" stroke="#222222" stroke-width="0.3"/>
<path d="M85 32 L82 32 L82 33 L81 33 L80 30 L79 30 L78 29 L79 27 L80 27 L80 25 L86 26 L85 27 L86 30 L85 32 Z" fill="#444444" stroke="#222222" stroke-width="0.3"/>
<path d="M45 37 L45 38 L45 40 L43 42 L41 42 L39 45 L38 46 L37 45 L36 45 L36 43 L37 42 L36 41 L36 42 L35 41 L35 39 L35 38 L36 35 L39 34 L41 35 L41 36 L43 36 L45 37 Z" fill="#cc3333" stroke="#222222" stroke-width="0.3"/>
<path d="M78 75 L79 76 L79 79 L83 79 L83 82 L86 83 L85 87 L83 89 L81 89 L77 88 L79 86 L79 85 L73 82 L69 79 L71 74 L76 74 L78 75 Z" fill="#444444" stroke="#222222" stroke-width="0.3"/>
</svg>