<svg xmlns="http://www.w3.org/2000/svg" viewBox="0 0 55 80" width="55" height="80">
<path d="M16 73 L17 74 L20 75 L20 76 L19 76 L18 76 L16 76 L16 73 Z M28 49 L27 54 L28 55 L28 55 L29 56 L29 56 L28 58 L26 58 L23 58 L23 60 L22 61 L21 61 L20 61 L20 61 L20 62 L21 62 L21 62 L22 62 L20 63 L19 65 L18 65 L18 66 L17 66 L18 67 L19 67 L19 68 L18 69 L17 70 L16 71 L16 72 L17 73 L13 73 L12 72 L12 71 L12 71 L11 71 L11 70 L12 69 L12 68 L12 68 L13 66 L13 65 L13 65 L13 64 L13 64 L13 63 L12 62 L13 62 L13 61 L13 59 L14 58 L14 56 L14 55 L14 55 L15 53 L15 52 L14 50 L15 49 L15 48 L15 47 L17 46 L16 45 L16 43 L18 43 L18 41 L19 40 L20 41 L21 41 L21 40 L22 40 L25 42 L28 44 L28 44 L27 46 L29 46 L30 46 L31 45 L31 44 L32 44 L32 45 L32 46 L31 47 L28 49 Z" fill="#444444" stroke="#222222" stroke-width="0.3"/>
<path d="M16 73 L16 76 L18 76 L17 76 L14 76 L11 75 L10 73 L14 75 L14 73 L15 73 L16 73 Z M15 36 L16 37 L16 38 L16 39 L17 41 L18 41 L18 41 L18 43 L16 43 L16 45 L17 46 L15 47 L15 48 L15 49 L14 50 L15 52 L15 53 L14 55 L14 55 L14 56 L14 58 L13 59 L13 61 L13 62 L12 62 L13 63 L13 64 L13 64 L13 65 L13 65 L13 66 L12 68 L12 68 L12 69 L11 70 L11 71 L12 71 L12 71 L12 72 L13 73 L16 73 L15 73 L14 73 L14 74 L13 74 L9 73 L9 69 L9 68 L10 67 L9 67 L10 66 L10 64 L11 64 L12 62 L11 62 L11 63 L10 63 L11 60 L11 59 L11 57 L11 57 L13 52 L13 50 L13 49 L13 48 L14 46 L15 40 L14 37 L15 36 Z" fill="#444444" stroke="#222222" stroke-width="0.3"/>
<path d="M24 72 L25 72 L26 72 L27 72 L28 72 L28 72 L26 73 L26 72 L25 73 L24 72 Z" fill="#444444" stroke="#222222" stroke-width="0.3"/>
<path d="M28 49 L29 49 L32 51 L33 52 L32 52 L33 53 L32 54 L31 54 L29 54 L28 54 L27 53 L28 49 Z" fill="#444444" stroke="#222222" stroke-width="0.3"/>
<path d="M33 53 L32 52 L33 52 L32 51 L29 49 L28 49 L31 47 L32 46 L32 45 L32 44 L31 44 L32 43 L30 43 L30 41 L28 41 L28 39 L27 38 L28 38 L28 38 L28 36 L28 36 L27 35 L27 34 L25 34 L25 33 L25 33 L25 32 L24 31 L22 30 L21 30 L20 29 L20 27 L18 28 L17 29 L14 29 L14 27 L13 28 L12 28 L12 27 L11 27 L11 27 L10 25 L11 24 L11 24 L12 23 L14 21 L15 22 L15 18 L15 17 L15 16 L16 16 L16 16 L15 16 L15 15 L17 15 L17 15 L18 16 L19 16 L19 16 L22 15 L21 14 L21 13 L20 13 L22 13 L24 12 L25 12 L25 11 L25 12 L25 12 L26 13 L25 14 L26 15 L26 16 L27 16 L28 15 L30 15 L30 14 L33 15 L34 12 L35 12 L36 15 L36 15 L36 16 L35 17 L36 17 L38 17 L38 18 L38 18 L42 19 L42 19 L42 20 L43 19 L45 20 L47 20 L50 22 L52 22 L52 23 L52 25 L52 27 L48 31 L48 36 L47 38 L46 39 L46 40 L45 41 L45 41 L42 42 L39 44 L38 45 L38 46 L37 48 L33 53 Z" fill="#444444" stroke="#222222" stroke-width="0.3"/>
<path d="M15 29 L17 29 L18 28 L20 27 L20 29 L21 30 L22 30 L24 31 L25 32 L25 33 L25 33 L25 34 L27 34 L27 35 L28 36 L28 36 L28 38 L28 38 L27 38 L27 38 L26 38 L24 38 L23 41 L21 40 L21 41 L20 41 L19 40 L18 41 L17 41 L16 39 L16 38 L16 37 L15 36 L16 35 L15 34 L16 33 L15 33 L16 32 L16 30 L15 29 Z" fill="#444444" stroke="#222222" stroke-width="0.3"/>
<path d="M15 22 L14 21 L12 23 L11 24 L11 24 L10 25 L11 27 L11 27 L12 27 L12 28 L13 28 L14 27 L14 29 L15 29 L16 30 L16 32 L15 33 L16 33 L15 34 L16 35 L15 36 L14 37 L13 36 L13 35 L8 33 L8 32 L8 31 L4 25 L3 23 L3 23 L2 22 L3 21 L4 21 L4 22 L4 22 L5 22 L5 22 L6 20 L8 20 L9 19 L9 18 L9 17 L9 17 L11 18 L11 19 L14 19 L15 20 L14 21 L15 22 Z" fill="#444444" stroke="#222222" stroke-width="0.3"/>
<path d="M18 16 L18 16 L17 15 L17 15 L15 15 L15 16 L16 16 L16 16 L15 16 L15 17 L15 18 L15 22 L14 21 L15 20 L14 19 L11 19 L11 18 L9 17 L8 16 L7 17 L5 15 L5 15 L6 14 L6 14 L7 13 L7 13 L7 11 L6 9 L6 9 L7 8 L7 8 L9 7 L9 6 L9 5 L11 5 L13 4 L13 4 L14 4 L13 4 L13 5 L12 6 L11 7 L12 7 L12 8 L12 9 L13 9 L15 9 L15 10 L18 10 L17 12 L18 13 L17 14 L18 15 L18 16 Z" fill="#444444" stroke="#222222" stroke-width="0.3"/>
<path d="M24 11 L25 12 L24 12 L22 13 L20 13 L21 13 L21 14 L22 15 L19 16 L19 16 L17 14 L18 13 L17 12 L18 10 L15 10 L15 9 L13 9 L12 9 L12 8 L12 7 L11 7 L12 6 L13 5 L13 4 L13 5 L13 6 L13 6 L13 7 L13 7 L14 6 L13 5 L15 5 L14 4 L15 4 L15 5 L16 5 L17 6 L19 6 L20 6 L21 6 L23 5 L23 6 L23 6 L24 6 L25 7 L25 8 L26 8 L25 9 L25 9 L25 9 L24 10 L24 11 Z" fill="#444444" stroke="#222222" stroke-width="0.3"/>
<path d="M29 15 L28 15 L27 16 L26 15 L25 14 L26 13 L25 12 L25 12 L25 11 L24 11 L24 10 L25 9 L25 9 L25 9 L26 8 L27 9 L27 10 L28 11 L28 12 L28 12 L28 13 L28 13 L28 13 L29 15 Z" fill="#444444" stroke="#222222" stroke-width="0.3"/>
<path d="M31 14 L30 14 L30 15 L29 15 L28 13 L28 13 L28 13 L28 12 L28 12 L28 11 L32 11 L31 12 L32 13 L31 14 Z" fill="#444444" stroke="#222222" stroke-width="0.3"/>
<path d="M9 17 L9 18 L9 19 L8 20 L6 20 L5 22 L5 22 L4 22 L4 22 L4 21 L4 20 L4 19 L4 20 L3 19 L3 18 L3 18 L4 16 L5 15 L7 16 L7 17 L8 16 L9 17 Z" fill="#cc3333" stroke="#222222" stroke-width="0.3"/>
<path d="M27 38 L28 39 L28 41 L30 41 L30 43 L32 43 L31 45 L30 46 L29 46 L27 46 L28 44 L28 44 L25 42 L23 41 L24 38 L26 38 L27 38 Z" fill="#444444" stroke="#222222" stroke-width="0.3"/>
</svg>