<svg xmlns="http://www.w3.org/2000/svg" viewBox="0 0 80 80" width="80" height="80">
<path d="M-64 -68 L21 -68 L21 -69 L22 -69 L23 -67 L32 -65 L39 -65 L42 -66 L52 -62 L53 -60 L55 -60 L57 -59 L56 -58 L59 -57 L61 -51 L58 -47 L59 -46 L71 -49 L70 -51 L71 -51 L77 -51 L83 -56 L93 -56 L96 -57 L100 -63 L105 -62 L105 -58 L107 -55 L98 -52 L95 -49 L95 -48 L96 -46 L98 -46 L97 -47 L98 -46 L98 -45 L87 -43 L92 -43 L86 -43 L85 -42 L86 -42 L85 -39 L83 -37 L81 -39 L82 -35 L80 -32 L80 -34 L79 -35 L79 -38 L78 -36 L79 -34 L77 -35 L79 -34 L80 -27 L78 -24 L70 -20 L63 -14 L63 -10 L67 -0 L66 5 L64 5 L62 3 L59 -3 L59 -5 L56 -10 L55 -10 L52 -9 L48 -11 L38 -10 L39 -8 L38 -7 L34 -7 L32 -9 L27 -9 L22 -8 L15 -3 L14 0 L15 3 L14 3 L9 1 L7 -2 L3 -8 L1 -9 L-2 -9 L-4 -7 L-6 -7 L-8 -8 L-9 -12 L-14 -15 L-19 -15 L-19 -14 L-28 -14 L-39 -17 L-39 -18 L-47 -17 L-47 -19 L-51 -22 L-57 -24 L-58 -26 L-61 -29 L-63 -34 L-67 -37 L-67 -40 L-69 -41 L-68 -47 L-69 -49 L-67 -57 L-68 -61 L-70 -65 L-69 -66 L-65 -65 L-63 -62 L-62 -63 L-64 -68 Z M-165 20 L-162 22 L-165 24 L-166 22 L-165 20 Z M-166 19 L-167 19 L-168 18 L-168 18 L-166 19 Z M-170 17 L-168 18 L-170 18 L-170 17 Z M-172 16 L-171 17 L-171 17 L-172 17 L-173 16 L-172 16 Z M-176 14 L-176 15 L-177 15 L-177 14 L-176 14 Z M-201 -102 L-195 -103 L-195 -101 L-197 -101 L-201 -102 Z M-157 -95 L-154 -94 L-160 -92 L-161 -92 L-162 -94 L-157 -95 Z M-120 -131 L-120 -103 L-114 -102 L-109 -98 L-103 -101 L-96 -97 L-91 -91 L-86 -89 L-86 -87 L-88 -86 L-92 -88 L-93 -91 L-97 -93 L-98 -96 L-106 -96 L-116 -100 L-125 -102 L-129 -102 L-138 -104 L-142 -104 L-141 -102 L-153 -99 L-153 -101 L-152 -104 L-148 -105 L-149 -106 L-160 -100 L-157 -98 L-160 -96 L-167 -94 L-167 -92 L-172 -91 L-173 -89 L-187 -85 L-193 -85 L-183 -89 L-180 -89 L-174 -93 L-171 -94 L-169 -98 L-173 -98 L-175 -97 L-177 -98 L-178 -97 L-179 -99 L-184 -98 L-184 -101 L-186 -102 L-190 -101 L-194 -103 L-194 -105 L-197 -106 L-196 -108 L-192 -111 L-187 -111 L-185 -113 L-180 -113 L-181 -115 L-183 -115 L-180 -116 L-186 -115 L-193 -115 L-198 -116 L-203 -119 L-192 -122 L-189 -122 L-190 -120 L-183 -120 L-194 -126 L-199 -127 L-197 -129 L-192 -129 L-188 -130 L-187 -132 L-184 -133 L-172 -135 L-167 -137 L-163 -136 L-161 -134 L-154 -135 L-154 -134 L-150 -134 L-132 -132 L-128 -133 L-120 -131 Z M-214 -113 L-210 -113 L-205 -112 L-207 -111 L-211 -112 L-213 -112 L-214 -113 Z" fill="#444444" stroke="#222222" stroke-width="0.3"/>
<path d="M93 22 L93 25 L92 25 L93 27 L86 27 L84 26 L85 25 L90 26 L91 25 L89 23 L88 22 L88 21 L93 22 Z" fill="#444444" stroke="#222222" stroke-width="0.3"/>
<path d="M94 28 L92 25 L93 21 L98 22 L99 23 L100 23 L100 24 L103 25 L102 26 L98 26 L96 27 L96 26 L94 28 Z" fill="#444444" stroke="#222222" stroke-width="0.3"/>
<path d="M70 0 L74 -0 L74 1 L71 1 L70 0 Z M74 -1 L77 1 L76 3 L75 1 L74 -1 Z M73 5 L74 5 L75 9 L74 10 L72 7 L73 5 Z" fill="#444444" stroke="#222222" stroke-width="0.3"/>
<path d="M-47 -17 L-39 -18 L-39 -17 L-28 -14 L-19 -14 L-19 -15 L-14 -15 L-9 -12 L-8 -8 L-6 -7 L-4 -7 L-2 -9 L1 -9 L3 -8 L7 -2 L9 1 L15 3 L13 8 L13 13 L15 19 L19 25 L22 25 L23 27 L32 24 L34 23 L36 18 L46 16 L46 18 L44 22 L45 23 L43 26 L41 26 L40 27 L34 28 L34 29 L32 29 L35 32 L35 33 L31 33 L30 36 L30 38 L25 33 L22 33 L17 34 L3 30 L0 27 L-5 26 L-11 21 L-12 20 L-11 19 L-10 17 L-12 12 L-20 5 L-22 4 L-22 1 L-26 -1 L-27 -3 L-28 -3 L-31 -7 L-34 -13 L-39 -15 L-40 -14 L-39 -10 L-30 1 L-27 8 L-25 8 L-23 11 L-24 12 L-28 9 L-31 6 L-32 3 L-40 -3 L-39 -3 L-37 -5 L-42 -8 L-47 -17 Z" fill="#444444" stroke="#222222" stroke-width="0.3"/>
<path d="M75 56 L76 58 L74 59 L74 60 L72 58 L73 57 L70 55 L66 57 L67 59 L65 60 L64 58 L63 59 L62 57 L59 57 L59 58 L58 53 L60 53 L61 55 L63 55 L69 53 L70 53 L75 56 Z" fill="#444444" stroke="#222222" stroke-width="0.3"/>
<path d="M60 53 L58 53 L59 55 L58 57 L57 56 L56 55 L52 51 L52 53 L50 52 L50 49 L49 49 L50 48 L55 49 L56 49 L60 53 Z" fill="#444444" stroke="#222222" stroke-width="0.3"/>
<path d="M56 49 L55 49 L50 48 L44 43 L47 42 L47 40 L49 39 L50 40 L52 37 L54 37 L58 36 L55 47 L56 49 Z" fill="#444444" stroke="#222222" stroke-width="0.3"/>
<path d="M58 36 L54 37 L52 37 L50 40 L49 39 L47 40 L47 42 L45 42 L43 41 L43 40 L41 40 L39 38 L39 36 L43 34 L52 33 L58 36 Z" fill="#444444" stroke="#222222" stroke-width="0.3"/>
<path d="M39 38 L41 40 L44 40 L43 42 L36 40 L39 38 Z" fill="#cc3333" stroke="#222222" stroke-width="0.3"/>
<path d="M30 38 L30 36 L31 33 L35 33 L35 32 L32 29 L34 29 L34 28 L39 28 L39 34 L42 34 L39 36 L39 38 L36 40 L33 40 L30 38 Z" fill="#444444" stroke="#222222" stroke-width="0.3"/>
<path d="M39 28 L41 26 L42 26 L42 32 L40 34 L39 34 L39 28 Z" fill="#444444" stroke="#222222" stroke-width="0.3"/>
<path d="M107 25 L111 26 L111 27 L107 27 L107 25 Z" fill="#444444" stroke="#222222" stroke-width="0.3"/>
<path d="M72 26 L77 26 L79 27 L76 28 L72 26 Z" fill="#444444" stroke="#222222" stroke-width="0.3"/>
<path d="M60 11 L65 11 L70 14 L72 13 L78 17 L81 18 L81 19 L85 20 L83 21 L74 21 L76 20 L73 19 L71 16 L61 14 L62 13 L59 13 L55 15 L52 15 L56 12 L60 11 Z" fill="#444444" stroke="#222222" stroke-width="0.3"/>
<path d="M123 49 L126 49 L126 51 L123 51 L123 49 Z" fill="#444444" stroke="#222222" stroke-width="0.3"/>
</svg>