<svg xmlns="http://www.w3.org/2000/svg" viewBox="0 0 80 80" width="80" height="80">
<path d="M-133 -140 L8 -140 L8 -142 L10 -142 L12 -138 L26 -136 L38 -135 L43 -136 L61 -129 L62 -127 L64 -127 L68 -125 L67 -124 L72 -121 L75 -112 L70 -105 L72 -103 L91 -109 L90 -112 L92 -112 L102 -112 L112 -120 L129 -120 L133 -122 L141 -132 L148 -130 L148 -123 L152 -119 L136 -113 L132 -109 L132 -106 L134 -103 L136 -103 L136 -105 L137 -104 L137 -102 L118 -99 L127 -99 L116 -98 L115 -96 L116 -96 L115 -92 L112 -89 L108 -91 L111 -86 L106 -80 L107 -83 L105 -85 L104 -90 L103 -87 L104 -84 L101 -85 L104 -83 L107 -71 L104 -67 L90 -61 L79 -50 L79 -43 L85 -27 L84 -18 L80 -18 L77 -22 L71 -32 L72 -35 L67 -43 L65 -43 L59 -41 L53 -45 L37 -44 L38 -39 L37 -39 L30 -38 L26 -41 L18 -42 L10 -40 L-2 -32 L-3 -26 L-2 -22 L-4 -22 L-12 -24 L-14 -30 L-22 -40 L-25 -42 L-29 -42 L-33 -38 L-37 -39 L-39 -41 L-42 -46 L-50 -52 L-59 -52 L-59 -50 L-73 -50 L-92 -56 L-92 -57 L-104 -56 L-105 -58 L-111 -63 L-122 -66 L-123 -69 L-128 -74 L-132 -83 L-138 -89 L-139 -93 L-141 -96 L-140 -104 L-142 -108 L-139 -122 L-140 -129 L-143 -136 L-142 -137 L-135 -135 L-132 -130 L-131 -132 L-133 -140 Z M-302 7 L-297 11 L-301 14 L-303 10 L-302 7 Z M-303 4 L-305 5 L-306 4 L-306 3 L-303 4 Z M-309 2 L-307 3 L-310 3 L-309 2 Z M-313 -1 L-311 1 L-312 2 L-314 2 L-315 0 L-313 -1 Z M-320 -3 L-321 -1 L-322 -2 L-321 -3 L-320 -3 Z M-361 -197 L-352 -198 L-352 -196 L-355 -195 L-361 -197 Z M-289 -186 L-283 -184 L-293 -179 L-295 -181 L-296 -183 L-289 -186 Z M-226 -246 L-226 -198 L-216 -196 L-208 -191 L-198 -195 L-187 -188 L-179 -179 L-170 -175 L-170 -172 L-173 -170 L-180 -173 L-181 -178 L-188 -182 L-191 -187 L-204 -187 L-220 -194 L-234 -197 L-241 -196 L-257 -201 L-263 -200 L-262 -196 L-281 -192 L-282 -195 L-279 -200 L-274 -201 L-275 -203 L-293 -193 L-289 -190 L-294 -187 L-304 -183 L-306 -181 L-314 -178 L-315 -176 L-339 -169 L-349 -168 L-332 -175 L-326 -176 L-317 -181 L-312 -184 L-308 -191 L-316 -190 L-318 -188 L-322 -191 L-323 -189 L-325 -191 L-333 -189 L-333 -194 L-336 -196 L-343 -195 L-351 -199 L-351 -202 L-355 -204 L-353 -207 L-347 -212 L-339 -212 L-335 -214 L-327 -215 L-328 -218 L-331 -219 L-327 -221 L-337 -218 L-349 -219 L-356 -220 L-365 -225 L-346 -230 L-342 -230 L-343 -227 L-332 -227 L-351 -237 L-358 -239 L-355 -242 L-346 -242 L-339 -244 L-338 -247 L-333 -249 L-314 -251 L-306 -254 L-298 -253 L-294 -251 L-283 -251 L-284 -250 L-276 -249 L-246 -247 L-239 -248 L-226 -246 Z M-383 -215 L-377 -215 L-368 -213 L-372 -211 L-378 -213 L-382 -213 L-383 -215 Z" fill="#444444" stroke="#222222" stroke-width="0.3"/>
<path d="M128 10 L128 14 L127 15 L128 18 L117 18 L114 17 L114 15 L123 16 L125 15 L122 11 L119 10 L120 9 L128 10 Z" fill="#444444" stroke="#222222" stroke-width="0.3"/>
<path d="M129 21 L127 15 L129 9 L137 10 L138 12 L141 12 L140 13 L145 15 L143 17 L137 16 L134 18 L133 16 L129 21 Z" fill="#444444" stroke="#222222" stroke-width="0.3"/>
<path d="M91 -26 L97 -27 L97 -25 L91 -25 L91 -26 Z M97 -28 L101 -25 L100 -22 L99 -25 L97 -28 Z M95 -18 L96 -18 L98 -11 L97 -11 L94 -15 L95 -18 Z" fill="#444444" stroke="#222222" stroke-width="0.3"/>
<path d="M-104 -56 L-92 -57 L-92 -56 L-73 -50 L-59 -50 L-59 -52 L-50 -52 L-42 -46 L-39 -41 L-37 -39 L-33 -38 L-29 -42 L-25 -42 L-22 -40 L-14 -30 L-12 -24 L-2 -22 L-5 -14 L-6 -4 L-2 5 L4 14 L10 16 L12 18 L27 14 L30 12 L33 3 L49 0 L51 4 L47 10 L48 11 L45 17 L42 16 L40 19 L29 19 L29 22 L27 22 L32 27 L32 28 L25 28 L23 33 L23 36 L15 29 L10 28 L1 30 L-21 23 L-26 19 L-35 17 L-45 9 L-46 6 L-44 6 L-44 1 L-47 -6 L-60 -18 L-64 -20 L-64 -25 L-70 -28 L-71 -32 L-74 -32 L-79 -38 L-84 -49 L-92 -52 L-93 -50 L-92 -44 L-76 -26 L-71 -14 L-69 -14 L-65 -9 L-67 -6 L-73 -12 L-79 -16 L-80 -22 L-94 -31 L-91 -31 L-89 -36 L-96 -41 L-104 -56 Z" fill="#444444" stroke="#222222" stroke-width="0.3"/>
<path d="M99 66 L100 70 L97 71 L96 74 L94 69 L95 68 L90 64 L84 68 L86 72 L81 74 L80 70 L78 71 L77 69 L71 68 L71 69 L71 62 L73 62 L74 64 L78 66 L88 61 L91 62 L99 66 Z" fill="#444444" stroke="#222222" stroke-width="0.3"/>
<path d="M73 62 L71 62 L72 65 L70 68 L68 67 L67 64 L60 59 L59 62 L57 60 L57 55 L55 55 L57 53 L66 56 L67 55 L73 62 Z" fill="#444444" stroke="#222222" stroke-width="0.3"/>
<path d="M67 55 L66 56 L56 54 L46 44 L51 43 L51 40 L54 39 L56 40 L60 35 L63 36 L69 34 L66 52 L67 55 Z" fill="#444444" stroke="#222222" stroke-width="0.3"/>
<path d="M69 34 L63 36 L60 35 L56 40 L54 39 L51 40 L51 43 L48 44 L46 42 L45 39 L42 40 L38 37 L39 33 L45 29 L60 29 L69 34 Z" fill="#444444" stroke="#222222" stroke-width="0.3"/>
<path d="M38 37 L42 40 L46 40 L45 43 L34 40 L38 37 Z" fill="#cc3333" stroke="#222222" stroke-width="0.3"/>
<path d="M23 36 L23 33 L25 28 L32 28 L32 27 L27 22 L29 22 L29 19 L39 19 L38 29 L43 30 L39 33 L38 37 L34 40 L28 39 L23 36 Z" fill="#444444" stroke="#222222" stroke-width="0.3"/>
<path d="M39 19 L42 16 L44 17 L43 26 L40 29 L38 29 L39 19 Z" fill="#444444" stroke="#222222" stroke-width="0.3"/>
<path d="M151 16 L159 17 L158 19 L151 19 L151 16 Z" fill="#444444" stroke="#222222" stroke-width="0.3"/>
<path d="M94 17 L101 16 L105 19 L100 20 L94 17 Z" fill="#444444" stroke="#222222" stroke-width="0.3"/>
<path d="M74 -8 L82 -8 L89 -4 L94 -5 L103 2 L108 3 L108 4 L115 7 L111 9 L97 9 L100 6 L95 4 L92 0 L74 -4 L76 -5 L71 -5 L65 -2 L60 -1 L66 -6 L74 -8 Z" fill="#444444" stroke="#222222" stroke-width="0.3"/>
<path d="M179 55 L183 55 L183 59 L178 59 L179 55 Z" fill="#444444" stroke="#222222" stroke-width="0.3"/>
</svg>