<svg xmlns="http://www.w3.org/2000/svg" viewBox="0 0 80 80" width="80" height="80">
<path d="M32 52 L37 55 L37 56 L39 57 L38 59 L38 59 L39 60 L39 62 L40 64 L39 65 L35 66 L33 65 L33 64 L32 63 L28 61 L28 60 L27 59 L26 57 L27 57 L28 55 L28 54 L28 54 L28 53 L28 53 L32 52 Z" fill="#444444" stroke="#222222" stroke-width="0.3"/>
<path d="M-20 17 L-20 20 L-24 19 L-24 23 L-25 23 L-26 23 L-25 25 L-30 25 L-30 26 L-30 25 L-28 25 L-27 22 L-25 21 L-24 19 L-24 19 L-23 18 L-20 18 L-20 17 Z" fill="#444444" stroke="#222222" stroke-width="0.3"/>
<path d="M26 55 L27 59 L28 60 L28 61 L26 62 L25 62 L26 63 L25 66 L26 66 L27 66 L27 68 L26 68 L25 66 L24 66 L24 65 L23 66 L22 66 L22 65 L20 65 L20 65 L18 65 L17 60 L16 60 L16 60 L15 60 L14 60 L14 61 L12 61 L11 58 L6 59 L5 58 L6 57 L7 57 L8 57 L8 57 L10 56 L10 55 L11 53 L12 52 L13 46 L14 45 L18 46 L19 45 L19 46 L20 45 L21 45 L22 45 L24 45 L25 46 L25 46 L27 46 L28 47 L28 48 L29 49 L27 51 L26 55 Z" fill="#444444" stroke="#222222" stroke-width="0.3"/>
<path d="M41 53 L41 52 L41 48 L42 46 L43 46 L44 45 L46 45 L50 40 L51 37 L53 37 L53 38 L52 40 L50 45 L48 48 L43 51 L41 53 Z" fill="#444444" stroke="#222222" stroke-width="0.3"/>
<path d="M39 57 L37 56 L37 55 L32 52 L32 51 L33 49 L32 46 L34 45 L34 45 L34 45 L35 46 L36 46 L37 47 L39 47 L40 46 L41 46 L42 46 L41 48 L41 52 L41 53 L40 54 L39 57 L39 57 Z" fill="#444444" stroke="#222222" stroke-width="0.3"/>
<path d="M21 41 L20 41 L19 40 L19 39 L19 38 L18 36 L17 36 L18 34 L18 34 L19 32 L20 32 L20 27 L21 27 L21 24 L36 24 L36 28 L38 29 L36 30 L35 35 L33 38 L33 38 L32 41 L32 39 L31 38 L31 36 L31 36 L30 37 L30 38 L29 39 L28 39 L27 39 L26 40 L23 40 L22 39 L21 39 L21 40 L20 41 L21 41 Z" fill="#444444" stroke="#222222" stroke-width="0.3"/>
<path d="M20 27 L20 32 L19 32 L18 34 L18 34 L17 36 L18 36 L19 38 L17 38 L16 40 L15 40 L14 40 L14 41 L13 42 L9 42 L9 42 L9 40 L8 40 L8 39 L9 39 L9 38 L8 35 L8 35 L8 34 L7 34 L8 32 L9 31 L10 26 L9 25 L9 23 L10 23 L20 27 Z" fill="#444444" stroke="#222222" stroke-width="0.3"/>
<path d="M11 86 L11 86 L12 87 L13 87 L15 86 L15 82 L16 83 L16 84 L17 84 L19 82 L20 83 L22 83 L22 82 L23 81 L24 80 L27 78 L29 79 L30 81 L30 83 L29 83 L28 84 L29 85 L30 85 L30 84 L31 84 L30 87 L25 91 L22 93 L18 93 L15 94 L13 93 L12 91 L13 91 L13 90 L11 86 Z" fill="#444444" stroke="#222222" stroke-width="0.3"/>
<path d="M26 86 L26 87 L26 88 L25 89 L25 89 L24 88 L25 87 L26 86 Z" fill="#444444" stroke="#222222" stroke-width="0.3"/>
<path d="M29 79 L27 78 L25 78 L24 76 L23 75 L21 73 L24 73 L26 71 L28 70 L28 71 L29 71 L31 72 L31 76 L29 79 Z" fill="#444444" stroke="#222222" stroke-width="0.3"/>
<path d="M27 78 L24 80 L23 81 L22 82 L22 83 L20 83 L19 82 L17 84 L16 84 L16 83 L15 82 L15 78 L16 78 L16 74 L19 73 L19 74 L21 73 L23 75 L24 76 L25 78 L27 78 Z" fill="#444444" stroke="#222222" stroke-width="0.3"/>
<path d="M15 78 L15 86 L13 87 L12 87 L11 86 L11 86 L9 84 L8 78 L5 73 L5 72 L7 72 L8 73 L13 72 L14 73 L17 73 L20 72 L21 73 L19 74 L19 73 L16 74 L16 78 L15 78 Z" fill="#444444" stroke="#222222" stroke-width="0.3"/>
<path d="M-30 35 L-31 33 L-31 33 L-29 31 L-27 31 L-26 32 L-24 33 L-24 36 L-29 36 L-30 36 L-30 35 L-26 35 L-27 34 L-27 35 L-28 34 L-30 35 Z" fill="#444444" stroke="#222222" stroke-width="0.3"/>
<path d="M-24 36 L-24 33 L-24 32 L-23 33 L-21 32 L-16 32 L-16 31 L-17 21 L-16 21 L-7 26 L-7 27 L-6 27 L-6 28 L-4 28 L-4 31 L-5 32 L-8 32 L-8 33 L-11 33 L-13 35 L-14 35 L-16 37 L-16 39 L-17 39 L-17 38 L-18 39 L-19 39 L-20 38 L-20 38 L-20 37 L-21 36 L-22 37 L-23 36 L-24 36 Z" fill="#444444" stroke="#222222" stroke-width="0.3"/>
<path d="M-30 26 L-30 25 L-25 25 L-26 23 L-25 23 L-24 23 L-24 19 L-20 20 L-20 18 L-16 21 L-17 21 L-16 31 L-16 32 L-21 32 L-23 33 L-24 32 L-24 33 L-26 32 L-27 31 L-29 31 L-30 31 L-29 29 L-29 27 L-30 26 Z" fill="#444444" stroke="#222222" stroke-width="0.3"/>
<path d="M-6 44 L-7 44 L-7 40 L-9 38 L-8 37 L-6 36 L-5 37 L-5 38 L-5 39 L-6 41 L-6 44 Z" fill="#444444" stroke="#222222" stroke-width="0.3"/>
<path d="M9 23 L9 25 L10 26 L9 31 L8 32 L7 34 L8 34 L8 35 L8 35 L8 36 L7 35 L6 35 L4 35 L2 36 L0 35 L-1 35 L-3 34 L-4 35 L-5 37 L-6 36 L-7 37 L-7 36 L-8 36 L-9 34 L-9 33 L-5 32 L-4 31 L-4 28 L-3 27 L5 22 L7 23 L8 24 L9 23 Z" fill="#444444" stroke="#222222" stroke-width="0.3"/>
<path d="M-6 44 L-6 41 L-5 39 L-5 36 L-4 34 L-3 34 L-1 35 L0 35 L2 36 L4 35 L6 35 L7 35 L8 36 L7 38 L5 43 L4 43 L3 43 L2 43 L1 45 L-2 46 L-4 44 L-6 44 Z" fill="#444444" stroke="#222222" stroke-width="0.3"/>
<path d="M8 36 L9 36 L9 38 L9 39 L8 39 L8 40 L9 40 L9 42 L8 44 L8 45 L10 48 L10 49 L8 49 L2 48 L3 47 L1 46 L1 45 L2 43 L3 43 L4 43 L5 43 L7 38 L8 37 L8 36 L8 36 L8 36 Z" fill="#444444" stroke="#222222" stroke-width="0.3"/>
<path d="M-8 38 L-9 38 L-7 40 L-7 44 L-8 44 L-9 43 L-9 41 L-9 39 L-10 38 L-9 38 L-8 38 Z" fill="#444444" stroke="#222222" stroke-width="0.3"/>
<path d="M-9 38 L-9 41 L-9 43 L-8 44 L-12 45 L-13 45 L-13 44 L-13 41 L-13 38 L-9 38 Z" fill="#444444" stroke="#222222" stroke-width="0.3"/>
<path d="M-19 39 L-18 39 L-17 38 L-17 39 L-16 39 L-15 39 L-14 39 L-13 39 L-13 41 L-13 44 L-13 45 L-15 45 L-19 46 L-19 44 L-20 43 L-20 41 L-19 41 L-20 39 L-19 39 Z" fill="#444444" stroke="#222222" stroke-width="0.3"/>
<path d="M-26 36 L-24 36 L-24 36 L-23 36 L-22 37 L-21 36 L-20 37 L-20 38 L-20 38 L-19 39 L-20 39 L-19 41 L-20 41 L-20 42 L-21 42 L-21 41 L-22 41 L-22 40 L-23 39 L-25 39 L-26 40 L-28 38 L-27 37 L-26 37 L-26 36 Z" fill="#444444" stroke="#222222" stroke-width="0.3"/>
<path d="M-30 36 L-26 36 L-26 37 L-27 37 L-28 38 L-29 37 L-30 36 Z" fill="#444444" stroke="#222222" stroke-width="0.3"/>
<path d="M-20 42 L-20 43 L-19 44 L-19 46 L-21 45 L-23 43 L-22 41 L-21 41 L-21 42 L-20 42 Z" fill="#444444" stroke="#222222" stroke-width="0.3"/>
<path d="M-26 40 L-25 39 L-23 39 L-22 40 L-22 41 L-22 41 L-23 43 L-25 42 L-26 40 Z" fill="#444444" stroke="#222222" stroke-width="0.3"/>
<path d="M-16 39 L-16 37 L-15 36 L-15 35 L-13 35 L-11 33 L-9 33 L-9 34 L-8 36 L-7 36 L-7 37 L-8 38 L-13 38 L-13 39 L-14 39 L-15 39 L-16 39 Z" fill="#444444" stroke="#222222" stroke-width="0.3"/>
<path d="M24 45 L22 45 L21 45 L20 45 L19 46 L19 45 L18 46 L14 45 L13 46 L13 47 L12 47 L10 48 L10 48 L8 45 L8 45 L8 44 L9 42 L13 42 L14 41 L14 40 L15 40 L16 40 L17 38 L19 38 L19 39 L19 40 L21 42 L23 44 L24 45 Z" fill="#444444" stroke="#222222" stroke-width="0.3"/>
<path d="M13 47 L12 52 L11 53 L10 55 L10 56 L8 57 L8 57 L7 57 L7 57 L6 57 L5 57 L4 56 L5 55 L5 55 L6 54 L6 54 L7 54 L8 54 L8 53 L8 52 L7 51 L8 50 L7 50 L7 48 L10 49 L11 47 L12 47 L13 47 Z" fill="#444444" stroke="#222222" stroke-width="0.3"/>
<path d="M4 48 L6 48 L7 50 L8 50 L7 51 L8 52 L8 53 L8 54 L7 54 L6 54 L6 54 L5 55 L5 55 L4 56 L1 53 L2 50 L4 50 L4 48 Z" fill="#444444" stroke="#222222" stroke-width="0.3"/>
<path d="M2 48 L4 48 L4 50 L2 50 L2 50 L2 48 Z" fill="#444444" stroke="#222222" stroke-width="0.3"/>
<path d="M28 61 L31 63 L32 64 L31 65 L31 67 L31 68 L31 68 L28 69 L28 70 L26 71 L24 73 L21 73 L21 73 L19 73 L17 71 L17 67 L20 67 L20 65 L20 65 L20 65 L22 65 L22 66 L23 66 L24 65 L24 66 L25 66 L26 68 L27 68 L27 66 L26 66 L25 66 L26 63 L25 62 L26 62 L28 61 Z" fill="#444444" stroke="#222222" stroke-width="0.3"/>
<path d="M31 63 L32 63 L33 64 L33 68 L34 68 L34 69 L34 71 L34 71 L33 72 L33 71 L33 69 L31 68 L31 67 L31 65 L32 64 L31 63 Z" fill="#444444" stroke="#222222" stroke-width="0.3"/>
<path d="M33 65 L36 65 L39 65 L40 64 L40 69 L39 72 L36 73 L33 76 L33 76 L34 78 L34 81 L31 82 L30 83 L31 83 L31 84 L30 84 L29 82 L30 81 L29 79 L31 76 L31 72 L29 71 L28 71 L28 69 L31 68 L33 69 L33 71 L33 72 L34 71 L34 71 L34 69 L34 68 L33 68 L33 66 L33 65 Z" fill="#444444" stroke="#222222" stroke-width="0.3"/>
<path d="M30 84 L30 85 L29 85 L28 84 L29 83 L30 83 L30 84 Z" fill="#444444" stroke="#222222" stroke-width="0.3"/>
<path d="M6 57 L6 57 L5 58 L5 57 L6 57 L6 57 Z M6 59 L11 58 L12 61 L14 61 L14 60 L15 60 L16 60 L16 60 L17 60 L18 65 L19 65 L20 65 L20 65 L20 67 L17 67 L17 71 L19 73 L17 73 L14 73 L13 72 L8 73 L7 72 L5 72 L5 69 L7 66 L7 65 L6 62 L7 62 L6 59 Z" fill="#444444" stroke="#222222" stroke-width="0.3"/>
<path d="M28 54 L28 55 L27 57 L26 57 L26 55 L27 55 L27 54 L28 54 Z" fill="#444444" stroke="#222222" stroke-width="0.3"/>
<path d="M51 66 L52 68 L52 71 L52 71 L52 70 L51 71 L52 72 L48 82 L46 83 L44 82 L44 79 L44 77 L44 77 L45 75 L44 73 L45 71 L47 71 L49 69 L49 69 L49 68 L50 68 L51 66 Z" fill="#444444" stroke="#222222" stroke-width="0.3"/>
<path d="M-30 35 L-28 34 L-27 35 L-27 34 L-26 35 L-30 35 L-30 35 Z" fill="#444444" stroke="#222222" stroke-width="0.3"/>
<path d="M2 14 L2 12 L-0 10 L-0 9 L0 9 L1 6 L2 5 L3 6 L3 6 L4 6 L4 7 L4 7 L4 8 L4 9 L3 9 L3 10 L4 10 L5 11 L5 12 L3 13 L3 14 L2 14 Z" fill="#444444" stroke="#222222" stroke-width="0.3"/>
<path d="M-20 18 L-20 16 L-16 14 L-15 14 L-14 13 L-14 12 L-11 12 L-11 11 L-12 8 L-11 7 L-8 6 L-3 6 L-2 6 L1 6 L0 9 L-0 9 L-0 10 L2 12 L3 15 L2 19 L2 19 L3 21 L4 21 L5 22 L-3 27 L-6 28 L-6 27 L-7 27 L-7 26 L-20 18 Z" fill="#444444" stroke="#222222" stroke-width="0.3"/>
<path d="M35 34 L36 30 L38 29 L39 32 L43 36 L42 36 L41 34 L40 33 L38 33 L38 33 L37 33 L37 34 L35 34 Z" fill="#444444" stroke="#222222" stroke-width="0.3"/>
<path d="M-12 8 L-11 11 L-11 12 L-14 12 L-14 13 L-15 14 L-16 14 L-20 16 L-20 18 L-23 18 L-25 21 L-27 22 L-28 25 L-30 25 L-29 22 L-28 21 L-27 19 L-26 19 L-25 17 L-24 17 L-21 15 L-22 13 L-21 11 L-20 11 L-18 9 L-17 7 L-16 7 L-15 8 L-12 8 Z" fill="#444444" stroke="#222222" stroke-width="0.3"/>
<path d="M36 24 L21 24 L21 15 L21 14 L21 13 L21 13 L23 13 L26 13 L28 13 L29 13 L30 13 L30 13 L32 13 L33 13 L33 15 L32 17 L32 17 L31 16 L30 15 L32 19 L34 22 L34 23 L36 24 Z" fill="#444444" stroke="#222222" stroke-width="0.3"/>
<path d="M21 15 L21 27 L20 27 L20 27 L10 23 L8 24 L7 23 L5 22 L4 21 L3 21 L2 19 L2 19 L3 16 L2 14 L3 14 L3 13 L5 12 L5 11 L9 12 L10 13 L14 14 L15 13 L15 12 L16 11 L19 11 L19 12 L21 12 L21 13 L21 13 L21 14 L21 15 Z" fill="#444444" stroke="#222222" stroke-width="0.3"/>
<path d="M49 41 L46 45 L44 45 L42 46 L41 46 L40 46 L39 47 L37 47 L36 46 L35 46 L34 45 L34 45 L34 45 L33 43 L32 42 L31 42 L31 41 L32 41 L33 38 L34 36 L35 34 L37 34 L37 33 L38 33 L38 33 L40 33 L42 35 L42 36 L42 37 L42 38 L43 38 L43 38 L44 40 L48 41 L49 41 Z" fill="#cc3333" stroke="#222222" stroke-width="0.3"/>
<path d="M42 36 L43 36 L44 36 L44 37 L43 37 L43 37 L43 38 L42 38 L42 37 L42 36 Z" fill="#444444" stroke="#222222" stroke-width="0.3"/>
<path d="M51 37 L50 40 L49 41 L48 41 L44 40 L43 38 L43 37 L45 38 L51 37 Z" fill="#444444" stroke="#222222" stroke-width="0.3"/>
<path d="M32 52 L28 53 L27 53 L27 51 L29 49 L28 48 L28 47 L29 47 L30 47 L31 47 L32 46 L33 47 L33 49 L32 51 L32 52 Z" fill="#444444" stroke="#222222" stroke-width="0.3"/>
<path d="M28 53 L28 53 L28 54 L27 54 L27 55 L26 55 L26 53 L28 53 Z" fill="#444444" stroke="#222222" stroke-width="0.3"/>
<path d="M28 47 L27 46 L25 46 L24 44 L23 44 L23 43 L21 42 L21 42 L20 41 L21 40 L21 39 L22 39 L23 40 L26 40 L27 39 L28 39 L29 39 L30 38 L30 37 L31 36 L31 38 L32 39 L32 41 L32 41 L31 41 L31 42 L32 42 L32 42 L34 45 L31 47 L30 47 L29 47 L28 47 Z" fill="#444444" stroke="#222222" stroke-width="0.3"/>
</svg>