<svg xmlns="http://www.w3.org/2000/svg" viewBox="0 0 80 80" width="80" height="80">
<path d="M-57 -59 L25 -59 L25 -60 L26 -60 L28 -58 L36 -56 L43 -56 L45 -57 L56 -52 L57 -51 L58 -51 L60 -50 L60 -49 L63 -48 L64 -43 L61 -38 L62 -37 L74 -40 L73 -42 L74 -43 L80 -43 L86 -47 L96 -47 L98 -48 L102 -54 L107 -53 L107 -49 L109 -46 L100 -43 L98 -40 L98 -39 L99 -37 L100 -37 L100 -38 L100 -38 L100 -37 L89 -35 L94 -35 L88 -34 L87 -33 L88 -33 L88 -31 L85 -29 L84 -30 L85 -27 L82 -24 L83 -26 L82 -27 L81 -29 L81 -28 L81 -26 L79 -27 L81 -26 L83 -19 L81 -17 L73 -13 L66 -7 L66 -2 L70 7 L69 12 L67 12 L65 10 L62 4 L62 2 L59 -2 L58 -3 L55 -1 L51 -3 L42 -3 L43 -0 L42 0 L38 0 L36 -1 L31 -2 L27 -1 L19 4 L19 8 L19 10 L18 10 L14 9 L12 5 L8 -0 L6 -2 L4 -2 L2 1 L-1 -0 L-2 -1 L-4 -4 L-8 -7 L-13 -7 L-13 -6 L-22 -6 L-33 -10 L-33 -10 L-40 -10 L-40 -11 L-44 -14 L-50 -16 L-51 -18 L-53 -21 L-56 -25 L-59 -29 L-60 -31 L-61 -33 L-61 -38 L-62 -40 L-60 -48 L-61 -52 L-62 -56 L-62 -57 L-58 -56 L-56 -53 L-55 -54 L-57 -59 Z M-155 27 L-152 29 L-154 31 L-156 28 L-155 27 Z M-155 25 L-157 26 L-157 25 L-157 24 L-155 25 Z M-159 24 L-158 24 L-159 24 L-159 24 Z M-161 22 L-160 24 L-160 24 L-162 24 L-162 23 L-161 22 Z M-165 21 L-166 22 L-167 21 L-166 21 L-165 21 Z M-189 -92 L-184 -92 L-184 -91 L-186 -91 L-189 -92 Z M-147 -85 L-144 -84 L-149 -82 L-151 -82 L-151 -84 L-147 -85 Z M-111 -120 L-111 -92 L-105 -91 L-100 -88 L-94 -91 L-88 -87 L-83 -81 L-78 -79 L-78 -77 L-80 -76 L-84 -78 L-85 -81 L-89 -83 L-90 -86 L-98 -86 L-107 -90 L-115 -92 L-120 -91 L-129 -94 L-132 -93 L-132 -91 L-143 -89 L-143 -91 L-142 -93 L-139 -94 L-139 -95 L-149 -89 L-147 -88 L-150 -86 L-156 -84 L-157 -82 L-162 -81 L-163 -79 L-176 -76 L-182 -75 L-173 -79 L-169 -79 L-163 -82 L-160 -84 L-158 -88 L-163 -88 L-164 -87 L-166 -88 L-167 -87 L-168 -89 L-173 -87 L-173 -90 L-175 -91 L-179 -91 L-183 -93 L-183 -94 L-185 -96 L-184 -97 L-181 -101 L-176 -100 L-174 -102 L-169 -102 L-170 -104 L-172 -104 L-169 -106 L-175 -104 L-182 -105 L-186 -105 L-191 -108 L-180 -111 L-178 -111 L-178 -109 L-172 -109 L-183 -115 L-187 -116 L-186 -118 L-180 -118 L-177 -119 L-176 -121 L-173 -122 L-162 -123 L-157 -125 L-153 -124 L-150 -123 L-144 -123 L-144 -123 L-140 -122 L-122 -121 L-118 -121 L-111 -120 Z M-202 -103 L-198 -102 L-193 -101 L-195 -100 L-199 -101 L-201 -101 L-202 -103 Z" fill="#444444" stroke="#222222" stroke-width="0.3"/>
<path d="M95 28 L95 31 L94 32 L95 33 L88 33 L87 32 L87 31 L92 32 L93 31 L92 29 L90 29 L91 28 L95 28 Z" fill="#444444" stroke="#222222" stroke-width="0.3"/>
<path d="M96 35 L94 32 L95 28 L100 29 L101 30 L102 29 L102 30 L105 32 L104 33 L100 32 L99 33 L98 32 L96 35 Z" fill="#444444" stroke="#222222" stroke-width="0.3"/>
<path d="M73 7 L77 7 L77 8 L74 8 L73 7 Z M77 7 L79 8 L79 10 L78 8 L77 7 Z M76 12 L77 12 L78 16 L77 16 L75 14 L76 12 Z" fill="#444444" stroke="#222222" stroke-width="0.3"/>
<path d="M-40 -10 L-33 -10 L-33 -10 L-22 -6 L-13 -6 L-13 -7 L-8 -7 L-4 -4 L-2 -1 L-1 -0 L2 1 L4 -2 L6 -2 L8 -0 L12 5 L14 9 L19 10 L18 15 L17 20 L19 26 L23 31 L26 32 L28 33 L36 31 L38 30 L40 24 L49 23 L50 25 L48 29 L48 29 L47 33 L45 32 L44 34 L38 34 L38 36 L36 36 L39 38 L39 39 L35 39 L34 42 L34 44 L29 40 L27 39 L21 40 L9 36 L5 34 L1 33 L-5 28 L-6 26 L-5 26 L-5 23 L-7 19 L-14 12 L-17 11 L-17 8 L-20 6 L-21 4 L-22 4 L-25 1 L-28 -6 L-33 -8 L-33 -6 L-33 -3 L-24 8 L-21 15 L-19 15 L-17 17 L-18 19 L-22 16 L-25 13 L-26 10 L-34 5 L-32 4 L-31 2 L-35 -1 L-40 -10 Z" fill="#444444" stroke="#222222" stroke-width="0.3"/>
<path d="M78 61 L79 63 L77 64 L77 65 L75 63 L76 62 L73 60 L69 62 L70 64 L68 65 L67 64 L66 64 L65 63 L62 62 L62 63 L62 59 L63 58 L64 60 L66 61 L72 58 L73 58 L78 61 Z" fill="#444444" stroke="#222222" stroke-width="0.3"/>
<path d="M63 58 L62 59 L62 60 L62 62 L60 62 L60 60 L56 57 L55 58 L54 57 L54 55 L53 54 L54 54 L59 55 L60 54 L63 58 Z" fill="#444444" stroke="#222222" stroke-width="0.3"/>
<path d="M60 54 L59 55 L53 54 L48 49 L50 47 L50 46 L52 45 L53 46 L56 43 L57 43 L61 42 L59 53 L60 54 Z" fill="#444444" stroke="#222222" stroke-width="0.3"/>
<path d="M61 42 L57 43 L56 43 L53 46 L52 45 L50 46 L50 47 L49 48 L47 47 L47 46 L45 46 L43 44 L43 42 L47 40 L56 39 L61 42 Z" fill="#444444" stroke="#222222" stroke-width="0.3"/>
<path d="M43 44 L45 46 L47 46 L47 48 L40 46 L43 44 Z" fill="#444444" stroke="#222222" stroke-width="0.3"/>
<path d="M34 44 L34 42 L35 39 L39 39 L39 38 L36 36 L38 36 L38 34 L43 34 L43 40 L46 40 L43 42 L43 44 L40 46 L37 45 L34 44 Z" fill="#cc3333" stroke="#222222" stroke-width="0.3"/>
<path d="M43 34 L45 32 L46 32 L46 38 L44 40 L43 40 L43 34 Z" fill="#444444" stroke="#222222" stroke-width="0.3"/>
<path d="M109 32 L113 33 L112 33 L108 34 L109 32 Z" fill="#444444" stroke="#222222" stroke-width="0.3"/>
<path d="M75 33 L80 32 L82 34 L79 34 L75 33 Z" fill="#444444" stroke="#222222" stroke-width="0.3"/>
<path d="M64 18 L69 18 L73 20 L75 20 L81 24 L83 24 L83 25 L88 27 L85 28 L77 28 L79 26 L76 25 L74 23 L64 20 L65 20 L62 19 L58 22 L56 22 L59 19 L64 18 Z" fill="#444444" stroke="#222222" stroke-width="0.3"/>
<path d="M125 55 L127 55 L127 57 L124 57 L125 55 Z" fill="#444444" stroke="#222222" stroke-width="0.3"/>
</svg>