<svg xmlns="http://www.w3.org/2000/svg" viewBox="0 0 80 80" width="80" height="80">
<path d="M-18 -19 L31 -19 L31 -20 L32 -20 L33 -19 L37 -18 L42 -17 L43 -18 L50 -15 L50 -15 L51 -15 L52 -14 L52 -14 L54 -13 L54 -10 L53 -7 L53 -6 L60 -8 L60 -9 L60 -10 L64 -10 L67 -12 L73 -12 L75 -13 L77 -16 L80 -16 L80 -13 L81 -12 L76 -10 L75 -8 L75 -7 L75 -6 L76 -6 L76 -7 L76 -7 L76 -6 L69 -5 L73 -5 L69 -4 L68 -4 L69 -4 L69 -3 L67 -1 L66 -2 L67 -0 L65 2 L66 1 L65 -0 L65 -2 L64 -1 L65 0 L64 -0 L65 1 L66 5 L65 6 L60 8 L56 12 L56 15 L58 20 L58 23 L56 23 L55 22 L53 18 L53 17 L52 15 L51 14 L49 15 L47 14 L41 14 L42 16 L41 16 L39 16 L38 15 L35 15 L32 16 L28 19 L27 21 L28 22 L27 22 L24 21 L23 19 L21 16 L20 15 L18 15 L17 16 L16 16 L15 15 L14 14 L11 12 L8 12 L8 12 L3 12 L-4 10 L-4 10 L-8 10 L-8 9 L-10 7 L-14 6 L-14 5 L-16 4 L-18 1 L-20 -1 L-20 -3 L-21 -4 L-21 -7 L-21 -8 L-20 -13 L-20 -15 L-21 -18 L-21 -18 L-19 -17 L-18 -16 L-17 -16 L-18 -19 Z M-77 32 L-75 33 L-77 34 L-77 33 L-77 32 Z M-77 31 L-78 31 L-78 31 L-78 31 L-77 31 Z M-79 30 L-79 31 L-80 31 L-79 30 Z M-81 29 L-80 30 L-80 30 L-81 30 L-81 30 L-81 29 Z M-83 29 L-83 29 L-84 29 L-84 28 L-83 29 Z M-98 -39 L-94 -39 L-94 -39 L-95 -38 L-98 -39 Z M-72 -35 L-70 -34 L-74 -33 L-75 -33 L-75 -34 L-72 -35 Z M-50 -56 L-50 -39 L-47 -39 L-44 -37 L-41 -38 L-37 -36 L-34 -33 L-31 -32 L-31 -30 L-32 -30 L-34 -31 L-35 -32 L-37 -34 L-38 -35 L-43 -36 L-48 -38 L-53 -39 L-56 -39 L-61 -40 L-63 -40 L-63 -39 L-70 -37 L-70 -38 L-69 -40 L-67 -41 L-68 -41 L-74 -38 L-72 -37 L-74 -35 L-78 -34 L-78 -33 L-81 -32 L-82 -32 L-90 -29 L-93 -29 L-88 -31 L-85 -32 L-82 -33 L-80 -34 L-79 -37 L-82 -37 L-83 -36 L-84 -37 L-84 -36 L-85 -37 L-88 -36 L-88 -38 L-89 -39 L-91 -38 L-94 -40 L-94 -41 L-95 -41 L-95 -42 L-92 -44 L-90 -44 L-88 -45 L-86 -45 L-86 -46 L-87 -47 L-86 -47 L-89 -47 L-93 -47 L-96 -47 L-99 -49 L-92 -51 L-91 -51 L-91 -50 L-87 -50 L-94 -53 L-96 -54 L-95 -55 L-92 -55 L-90 -55 L-90 -56 L-88 -57 L-81 -58 L-78 -59 L-76 -59 L-74 -58 L-70 -58 L-71 -58 L-68 -57 L-57 -57 L-55 -57 L-50 -56 Z M-105 -46 L-103 -45 L-100 -45 L-101 -44 L-103 -45 L-105 -45 L-105 -46 Z" fill="#444444" stroke="#222222" stroke-width="0.3"/>
<path d="M73 33 L73 35 L73 35 L73 36 L69 36 L68 35 L68 35 L71 35 L72 35 L71 33 L70 33 L70 33 L73 33 Z" fill="#444444" stroke="#222222" stroke-width="0.3"/>
<path d="M74 37 L73 35 L73 33 L76 33 L76 34 L77 34 L77 34 L79 35 L78 36 L76 35 L75 36 L75 35 L74 37 Z" fill="#444444" stroke="#222222" stroke-width="0.3"/>
<path d="M60 20 L62 20 L62 21 L60 21 L60 20 Z M62 20 L64 21 L63 22 L63 21 L62 20 Z M61 23 L62 23 L63 26 L62 26 L61 24 L61 23 Z" fill="#444444" stroke="#222222" stroke-width="0.3"/>
<path d="M-8 10 L-4 10 L-4 10 L3 12 L8 12 L8 12 L11 12 L14 14 L15 15 L16 16 L17 16 L18 15 L20 15 L21 16 L23 19 L24 21 L28 22 L27 25 L26 28 L28 31 L30 35 L32 35 L33 36 L38 34 L39 34 L40 31 L46 30 L46 31 L45 33 L45 33 L44 36 L43 35 L42 36 L39 36 L39 37 L38 37 L40 39 L40 39 L37 39 L36 41 L36 42 L34 40 L32 39 L29 40 L21 38 L19 36 L16 36 L13 33 L12 32 L13 32 L13 30 L12 28 L8 23 L6 23 L6 21 L4 20 L4 18 L3 18 L1 17 L-1 13 L-4 11 L-4 12 L-4 14 L2 21 L4 25 L4 25 L6 26 L5 27 L3 25 L1 24 L1 22 L-4 19 L-3 19 L-3 17 L-5 15 L-8 10 Z" fill="#444444" stroke="#222222" stroke-width="0.3"/>
<path d="M63 53 L63 54 L62 54 L62 55 L61 54 L61 53 L60 52 L58 53 L58 55 L57 55 L56 54 L56 54 L55 54 L53 53 L53 54 L53 51 L54 51 L54 52 L56 52 L59 51 L60 51 L63 53 Z" fill="#444444" stroke="#222222" stroke-width="0.3"/>
<path d="M54 51 L53 51 L53 52 L53 53 L52 53 L52 52 L49 50 L49 51 L48 50 L48 49 L48 49 L48 48 L51 49 L52 49 L54 51 Z" fill="#444444" stroke="#222222" stroke-width="0.3"/>
<path d="M52 49 L51 49 L48 48 L45 45 L46 44 L46 44 L47 43 L48 43 L49 42 L50 42 L53 41 L51 48 L52 49 Z" fill="#444444" stroke="#222222" stroke-width="0.3"/>
<path d="M53 41 L50 42 L49 42 L48 43 L47 43 L46 44 L46 44 L45 45 L44 44 L44 43 L43 43 L42 42 L42 41 L44 40 L49 40 L53 41 Z" fill="#444444" stroke="#222222" stroke-width="0.3"/>
<path d="M42 42 L43 43 L44 44 L44 45 L40 44 L42 42 Z" fill="#444444" stroke="#222222" stroke-width="0.3"/>
<path d="M36 42 L36 41 L37 39 L40 39 L40 39 L38 37 L39 37 L39 36 L42 36 L42 40 L44 40 L42 41 L42 42 L40 44 L38 43 L36 42 Z" fill="#cc3333" stroke="#222222" stroke-width="0.3"/>
<path d="M42 36 L43 35 L44 35 L43 39 L42 40 L42 40 L42 36 Z" fill="#444444" stroke="#222222" stroke-width="0.3"/>
<path d="M81 35 L84 36 L83 36 L81 36 L81 35 Z" fill="#444444" stroke="#222222" stroke-width="0.3"/>
<path d="M61 36 L64 35 L65 36 L63 37 L61 36 Z" fill="#444444" stroke="#222222" stroke-width="0.3"/>
<path d="M54 27 L57 27 L60 28 L61 28 L64 30 L66 31 L66 31 L69 32 L67 33 L62 33 L63 32 L62 31 L61 30 L54 28 L55 28 L53 28 L51 29 L49 29 L51 28 L54 27 Z" fill="#444444" stroke="#222222" stroke-width="0.3"/>
<path d="M91 49 L92 49 L92 50 L90 50 L91 49 Z" fill="#444444" stroke="#222222" stroke-width="0.3"/>
</svg>