<svg xmlns="http://www.w3.org/2000/svg" viewBox="0 0 80 80" width="80" height="80">
<path d="M24 138 L25 140 L30 142 L29 142 L27 143 L26 142 L24 142 L24 138 Z M42 100 L41 107 L43 108 L43 110 L44 110 L44 111 L42 113 L40 114 L34 115 L35 118 L34 118 L32 119 L30 118 L30 118 L30 120 L31 121 L32 120 L32 121 L29 122 L29 125 L27 125 L26 126 L25 127 L27 129 L29 129 L28 130 L26 131 L25 133 L23 135 L23 137 L24 138 L18 137 L17 136 L17 135 L16 135 L15 134 L15 132 L17 132 L17 131 L17 130 L19 126 L18 125 L19 125 L18 124 L19 123 L18 122 L18 120 L18 120 L18 118 L19 115 L20 114 L19 111 L21 110 L21 108 L21 107 L21 105 L20 102 L21 100 L21 98 L22 97 L24 94 L24 93 L24 90 L26 89 L26 87 L28 86 L30 86 L31 87 L31 86 L33 86 L37 89 L42 91 L42 92 L41 95 L44 95 L46 95 L47 94 L47 92 L48 92 L49 93 L49 94 L47 96 L42 100 Z" fill="#444444" stroke="#222222" stroke-width="0.3"/>
<path d="M24 138 L24 142 L26 142 L24 143 L19 142 L16 140 L13 138 L19 141 L21 139 L22 138 L24 138 Z M22 78 L23 81 L24 81 L23 83 L25 87 L26 87 L26 87 L26 89 L24 90 L24 93 L24 94 L22 97 L21 98 L21 100 L20 102 L21 105 L21 107 L21 108 L21 110 L19 111 L20 114 L19 115 L18 118 L18 120 L18 120 L18 122 L19 123 L18 124 L19 125 L18 125 L19 126 L17 130 L17 131 L17 132 L15 132 L15 134 L16 135 L17 135 L17 136 L18 137 L24 138 L22 138 L20 139 L19 140 L19 140 L13 137 L12 131 L12 130 L14 128 L12 128 L13 126 L14 124 L16 124 L17 121 L15 120 L15 122 L14 122 L15 116 L16 115 L15 112 L16 112 L19 104 L18 101 L19 100 L19 98 L20 95 L21 85 L21 80 L22 78 Z" fill="#444444" stroke="#222222" stroke-width="0.3"/>
<path d="M36 137 L38 136 L40 136 L41 135 L42 136 L42 137 L39 137 L39 137 L37 138 L36 137 Z" fill="#444444" stroke="#222222" stroke-width="0.3"/>
<path d="M42 100 L43 100 L49 103 L50 104 L49 105 L50 106 L49 107 L47 108 L45 108 L42 107 L41 106 L42 100 Z" fill="#444444" stroke="#222222" stroke-width="0.3"/>
<path d="M50 106 L49 105 L50 104 L49 103 L43 100 L42 100 L47 96 L49 94 L49 93 L48 92 L47 92 L48 89 L46 89 L45 86 L42 86 L42 84 L41 83 L42 82 L42 81 L43 79 L42 78 L41 78 L41 76 L38 76 L37 74 L38 74 L37 72 L35 71 L33 70 L31 70 L29 68 L29 65 L27 65 L24 67 L20 67 L20 64 L19 65 L17 65 L17 64 L16 64 L16 64 L14 61 L15 60 L16 60 L16 57 L20 55 L21 56 L22 50 L21 49 L21 47 L22 47 L23 47 L22 46 L21 45 L25 45 L25 45 L26 46 L27 47 L29 47 L32 44 L31 44 L31 42 L30 41 L33 42 L37 40 L37 40 L37 39 L38 40 L38 40 L39 41 L38 44 L39 45 L40 46 L41 46 L43 45 L45 45 L45 44 L50 45 L52 41 L53 41 L54 45 L55 45 L55 46 L54 48 L55 48 L58 49 L58 50 L59 49 L64 51 L65 52 L65 53 L67 52 L70 53 L72 53 L77 56 L80 57 L81 58 L81 61 L81 64 L75 71 L74 79 L73 82 L71 84 L71 86 L69 86 L69 87 L64 88 L59 91 L58 92 L58 95 L57 97 L50 106 Z" fill="#444444" stroke="#222222" stroke-width="0.3"/>
<path d="M22 67 L24 67 L27 65 L29 65 L29 68 L31 70 L33 70 L35 71 L37 72 L38 74 L37 74 L38 76 L41 76 L41 78 L42 78 L43 79 L42 81 L42 82 L41 83 L41 82 L40 81 L35 82 L34 86 L31 86 L31 87 L30 86 L28 86 L26 87 L25 87 L23 83 L24 81 L23 81 L22 78 L23 76 L22 75 L23 74 L22 74 L23 73 L23 70 L22 67 Z" fill="#444444" stroke="#222222" stroke-width="0.3"/>
<path d="M21 56 L20 55 L16 57 L16 60 L15 60 L14 61 L16 64 L16 64 L17 64 L17 65 L19 65 L20 64 L20 67 L22 67 L23 70 L23 73 L22 74 L23 74 L22 75 L23 76 L21 79 L21 80 L19 79 L19 78 L11 73 L10 72 L10 71 L5 61 L2 59 L3 58 L2 56 L2 55 L4 54 L3 56 L5 56 L5 57 L6 56 L8 53 L10 53 L12 51 L12 50 L12 48 L12 48 L15 50 L16 52 L20 52 L21 53 L20 55 L21 56 Z" fill="#444444" stroke="#222222" stroke-width="0.3"/>
<path d="M27 46 L26 46 L25 45 L25 45 L21 45 L22 46 L23 47 L22 47 L21 47 L21 49 L22 50 L21 56 L20 55 L21 53 L20 52 L16 52 L15 50 L12 48 L10 48 L8 48 L6 45 L6 45 L7 44 L8 44 L9 42 L8 41 L9 38 L8 36 L8 35 L9 35 L8 34 L11 32 L12 30 L13 29 L15 29 L18 27 L19 27 L19 28 L19 28 L18 28 L16 30 L16 33 L16 33 L17 34 L17 36 L18 36 L21 36 L22 38 L26 38 L25 41 L26 43 L25 43 L26 44 L27 46 Z" fill="#444444" stroke="#222222" stroke-width="0.3"/>
<path d="M36 38 L37 40 L37 40 L33 42 L30 41 L31 42 L31 44 L32 44 L29 47 L27 47 L25 43 L26 43 L25 41 L26 38 L22 38 L21 36 L18 36 L17 36 L17 34 L16 33 L16 33 L16 30 L18 28 L19 28 L18 29 L18 30 L18 31 L18 33 L19 33 L19 31 L19 29 L21 29 L21 28 L21 27 L22 29 L23 29 L24 30 L28 30 L30 31 L31 30 L35 30 L34 30 L34 31 L36 31 L37 32 L37 34 L39 34 L37 35 L37 36 L38 36 L36 37 L36 38 Z" fill="#444444" stroke="#222222" stroke-width="0.3"/>
<path d="M44 45 L43 45 L41 46 L39 45 L38 44 L39 41 L38 40 L38 40 L37 39 L36 38 L36 37 L38 36 L37 36 L37 35 L39 34 L41 36 L41 37 L43 38 L43 40 L42 40 L42 41 L42 43 L43 43 L44 45 Z" fill="#cc3333" stroke="#222222" stroke-width="0.3"/>
<path d="M48 44 L45 44 L45 45 L44 45 L43 43 L42 43 L42 41 L42 40 L43 40 L43 38 L49 38 L48 40 L48 42 L48 44 Z" fill="#444444" stroke="#222222" stroke-width="0.3"/>
<path d="M12 48 L12 50 L12 51 L10 53 L8 53 L6 56 L5 57 L5 56 L3 56 L4 54 L4 53 L4 52 L3 53 L2 52 L3 50 L3 50 L4 47 L6 46 L8 47 L8 48 L10 48 L12 48 Z" fill="#444444" stroke="#222222" stroke-width="0.3"/>
<path d="M41 82 L42 84 L42 86 L45 86 L46 89 L48 89 L47 94 L46 95 L44 95 L41 95 L42 92 L42 91 L37 89 L34 86 L35 82 L40 81 L41 82 Z" fill="#444444" stroke="#222222" stroke-width="0.3"/>
</svg>