<svg xmlns="http://www.w3.org/2000/svg" viewBox="0 0 80 80" width="80" height="80">
<path d="M-91 -39 L-18 -39 L-18 -40 L-17 -40 L-16 -38 L-9 -37 L-3 -37 L-0 -37 L9 -34 L10 -32 L11 -33 L13 -31 L12 -31 L15 -30 L16 -25 L14 -21 L15 -20 L25 -23 L24 -25 L25 -25 L30 -25 L35 -29 L44 -29 L46 -30 L50 -35 L54 -34 L54 -31 L56 -28 L48 -25 L46 -23 L46 -22 L47 -20 L48 -20 L48 -21 L48 -21 L48 -20 L38 -18 L43 -18 L38 -17 L37 -17 L38 -17 L37 -15 L35 -13 L34 -14 L35 -11 L32 -8 L33 -10 L32 -11 L31 -13 L31 -12 L31 -10 L30 -11 L31 -10 L33 -4 L31 -2 L24 2 L18 7 L18 11 L22 19 L21 24 L19 24 L17 22 L14 16 L15 15 L12 11 L11 11 L8 12 L5 10 L-4 10 L-3 13 L-3 13 L-7 13 L-9 12 L-13 11 L-17 12 L-23 17 L-24 20 L-23 22 L-25 22 L-28 20 L-30 17 L-34 13 L-35 11 L-38 12 L-39 14 L-41 13 L-43 12 L-44 9 L-48 6 L-53 6 L-53 7 L-60 7 L-70 4 L-70 4 L-76 4 L-77 3 L-80 0 L-85 -1 L-86 -3 L-88 -5 L-90 -10 L-94 -13 L-94 -15 L-95 -16 L-95 -21 L-96 -23 L-94 -30 L-95 -34 L-96 -37 L-96 -38 L-92 -37 L-91 -34 L-90 -35 L-91 -39 Z M-178 37 L-176 39 L-178 40 L-179 38 L-178 37 Z M-179 35 L-180 36 L-181 35 L-180 35 L-179 35 Z M-182 34 L-181 34 L-182 34 L-182 34 Z M-184 33 L-183 34 L-183 34 L-184 34 L-185 33 L-184 33 Z M-188 31 L-188 32 L-189 32 L-188 31 L-188 31 Z M-209 -69 L-204 -69 L-204 -68 L-206 -68 L-209 -69 Z M-171 -63 L-169 -62 L-173 -60 L-175 -60 L-175 -62 L-171 -63 Z M-139 -94 L-139 -69 L-134 -68 L-130 -65 L-125 -68 L-119 -64 L-115 -59 L-110 -57 L-110 -56 L-112 -55 L-115 -56 L-116 -59 L-120 -61 L-121 -63 L-128 -64 L-136 -67 L-143 -68 L-147 -68 L-155 -71 L-158 -70 L-158 -68 L-167 -66 L-168 -68 L-167 -70 L-164 -71 L-165 -72 L-174 -67 L-172 -65 L-174 -63 L-180 -61 L-180 -60 L-184 -59 L-185 -58 L-197 -54 L-202 -54 L-194 -57 L-191 -58 L-186 -60 L-183 -62 L-182 -65 L-185 -65 L-187 -64 L-189 -65 L-189 -64 L-190 -66 L-195 -65 L-194 -67 L-196 -68 L-199 -68 L-203 -70 L-203 -71 L-205 -72 L-204 -74 L-201 -77 L-197 -76 L-195 -78 L-191 -78 L-192 -79 L-193 -80 L-191 -81 L-197 -80 L-202 -80 L-206 -81 L-211 -83 L-201 -86 L-199 -86 L-199 -84 L-194 -84 L-204 -89 L-207 -90 L-206 -92 L-201 -92 L-198 -93 L-197 -94 L-194 -95 L-184 -97 L-180 -98 L-176 -98 L-174 -96 L-169 -97 L-169 -96 L-165 -96 L-150 -95 L-146 -95 L-139 -94 Z M-220 -78 L-217 -78 L-212 -77 L-214 -76 L-217 -77 L-220 -77 L-220 -78 Z" fill="#444444" stroke="#222222" stroke-width="0.3"/>
<path d="M44 38 L44 40 L43 41 L44 42 L38 42 L36 42 L37 41 L41 41 L42 41 L41 39 L39 38 L40 38 L44 38 Z" fill="#cc3333" stroke="#222222" stroke-width="0.3"/>
<path d="M44 44 L43 41 L44 38 L48 38 L49 39 L50 39 L50 40 L53 41 L52 42 L48 41 L47 42 L46 41 L44 44 Z" fill="#444444" stroke="#222222" stroke-width="0.3"/>
<path d="M24 19 L27 19 L27 20 L25 20 L24 19 Z M28 19 L30 20 L29 22 L29 20 L28 19 Z M27 24 L27 24 L28 27 L28 28 L26 25 L27 24 Z" fill="#444444" stroke="#222222" stroke-width="0.3"/>
<path d="M-76 4 L-70 4 L-70 4 L-60 7 L-53 7 L-53 6 L-48 6 L-44 9 L-43 12 L-41 13 L-39 14 L-38 12 L-35 11 L-34 13 L-30 17 L-28 20 L-23 22 L-25 26 L-25 31 L-24 36 L-20 40 L-17 41 L-16 42 L-8 40 L-7 39 L-5 35 L3 33 L4 35 L2 38 L2 39 L1 42 L-1 41 L-2 43 L-7 43 L-7 45 L-8 45 L-6 47 L-6 48 L-9 48 L-11 50 L-11 52 L-15 48 L-17 47 L-22 49 L-33 45 L-36 43 L-40 42 L-46 37 L-46 36 L-45 36 L-45 34 L-47 30 L-53 24 L-55 23 L-56 20 L-58 18 L-59 17 L-61 16 L-63 14 L-66 8 L-70 6 L-70 7 L-70 10 L-62 20 L-59 26 L-58 26 L-56 28 L-57 30 L-60 27 L-63 25 L-63 21 L-71 17 L-69 17 L-68 15 L-72 12 L-76 4 Z" fill="#444444" stroke="#222222" stroke-width="0.3"/>
<path d="M29 67 L29 69 L28 70 L27 71 L26 69 L27 68 L24 66 L21 68 L22 70 L19 71 L19 69 L18 70 L17 69 L14 68 L14 69 L14 65 L15 65 L16 66 L18 67 L23 65 L24 65 L29 67 Z" fill="#444444" stroke="#222222" stroke-width="0.3"/>
<path d="M15 65 L14 65 L15 67 L14 68 L12 68 L12 66 L9 63 L8 65 L7 64 L7 62 L6 61 L7 60 L11 62 L12 61 L15 65 Z" fill="#444444" stroke="#222222" stroke-width="0.3"/>
<path d="M12 61 L11 62 L7 61 L2 56 L4 55 L4 54 L6 53 L6 54 L9 51 L10 51 L13 50 L12 60 L12 61 Z" fill="#444444" stroke="#222222" stroke-width="0.3"/>
<path d="M13 50 L10 51 L9 51 L6 54 L6 53 L4 54 L4 55 L2 56 L1 55 L1 53 L-1 54 L-3 52 L-2 50 L1 48 L9 48 L13 50 Z" fill="#444444" stroke="#222222" stroke-width="0.3"/>
<path d="M-3 52 L-1 54 L1 54 L1 55 L-5 54 L-3 52 Z" fill="#444444" stroke="#222222" stroke-width="0.3"/>
<path d="M-11 52 L-11 50 L-9 48 L-6 48 L-6 47 L-8 45 L-7 45 L-7 43 L-2 43 L-3 48 L0 49 L-2 50 L-3 52 L-5 54 L-8 53 L-11 52 Z" fill="#444444" stroke="#222222" stroke-width="0.3"/>
<path d="M-2 43 L-1 41 L0 42 L-0 46 L-2 48 L-3 48 L-2 43 Z" fill="#444444" stroke="#222222" stroke-width="0.3"/>
<path d="M56 41 L60 42 L59 43 L56 43 L56 41 Z" fill="#444444" stroke="#222222" stroke-width="0.3"/>
<path d="M26 42 L30 42 L32 43 L29 43 L26 42 Z" fill="#444444" stroke="#222222" stroke-width="0.3"/>
<path d="M16 29 L20 29 L24 31 L26 31 L31 34 L33 35 L33 35 L37 37 L35 37 L28 38 L29 36 L27 35 L25 33 L16 31 L17 30 L14 30 L11 32 L9 32 L12 30 L16 29 Z" fill="#444444" stroke="#222222" stroke-width="0.3"/>
<path d="M70 62 L72 61 L72 63 L69 63 L70 62 Z" fill="#444444" stroke="#222222" stroke-width="0.3"/>
</svg>