<svg xmlns="http://www.w3.org/2000/svg" viewBox="0 0 80 80" width="80" height="80">
<path d="M-179 -92 L-57 -92 L-57 -94 L-56 -94 L-53 -91 L-42 -88 L-31 -88 L-27 -89 L-12 -83 L-11 -81 L-9 -81 L-6 -79 L-6 -78 L-2 -76 L0 -68 L-4 -62 L-2 -60 L14 -65 L13 -68 L15 -68 L24 -68 L32 -74 L47 -74 L51 -76 L57 -85 L63 -84 L63 -78 L67 -74 L53 -69 L50 -65 L50 -63 L51 -60 L53 -60 L53 -62 L54 -61 L54 -60 L37 -57 L45 -57 L36 -56 L35 -55 L36 -54 L35 -51 L32 -48 L29 -50 L31 -45 L27 -40 L28 -43 L26 -45 L26 -49 L25 -47 L26 -44 L23 -45 L26 -43 L28 -33 L26 -30 L14 -24 L4 -15 L4 -9 L9 5 L8 13 L4 13 L2 10 L-3 1 L-2 -2 L-7 -8 L-8 -9 L-13 -7 L-19 -10 L-33 -9 L-31 -5 L-32 -5 L-38 -5 L-42 -7 L-49 -8 L-55 -6 L-66 1 L-67 6 L-66 10 L-68 10 L-74 7 L-76 2 L-83 -6 L-86 -8 L-89 -7 L-92 -4 L-96 -5 L-98 -7 L-101 -11 L-107 -16 L-115 -16 L-115 -14 L-127 -14 L-144 -20 L-143 -20 L-154 -20 L-154 -22 L-160 -26 L-169 -29 L-170 -31 L-174 -36 L-177 -43 L-183 -48 L-183 -51 L-186 -54 L-185 -61 L-186 -65 L-183 -77 L-184 -83 L-187 -88 L-186 -89 L-180 -88 L-178 -84 L-177 -85 L-179 -92 Z M-324 34 L-319 38 L-323 40 L-325 37 L-324 34 Z M-325 32 L-326 33 L-328 31 L-327 31 L-325 32 Z M-330 30 L-328 31 L-330 31 L-330 30 Z M-334 28 L-332 30 L-332 30 L-334 30 L-335 29 L-334 28 Z M-339 26 L-340 27 L-341 26 L-340 26 L-339 26 Z M-375 -141 L-367 -142 L-367 -140 L-369 -139 L-375 -141 Z M-312 -131 L-308 -130 L-316 -126 L-318 -127 L-319 -129 L-312 -131 Z M-259 -183 L-259 -142 L-250 -140 L-243 -136 L-234 -139 L-225 -133 L-218 -125 L-210 -122 L-210 -120 L-213 -118 L-219 -121 L-220 -124 L-226 -128 L-228 -132 L-239 -133 L-254 -138 L-266 -141 L-272 -140 L-286 -144 L-290 -143 L-290 -140 L-306 -137 L-306 -139 L-304 -144 L-300 -145 L-301 -146 L-316 -138 L-313 -135 L-317 -132 L-326 -129 L-327 -127 L-334 -125 L-335 -123 L-356 -117 L-364 -117 L-350 -122 L-345 -123 L-336 -127 L-332 -130 L-329 -136 L-336 -135 L-338 -133 L-341 -136 L-342 -134 L-344 -136 L-351 -135 L-350 -139 L-353 -140 L-359 -140 L-366 -143 L-366 -145 L-369 -147 L-367 -150 L-362 -154 L-356 -154 L-352 -156 L-346 -157 L-346 -159 L-349 -160 L-346 -161 L-354 -159 L-364 -160 L-370 -161 L-378 -165 L-362 -169 L-358 -169 L-359 -167 L-350 -167 L-366 -176 L-372 -177 L-369 -179 L-362 -180 L-356 -182 L-355 -184 L-351 -186 L-334 -188 L-327 -190 L-320 -189 L-317 -187 L-308 -188 L-308 -187 L-301 -186 L-276 -184 L-270 -185 L-259 -183 Z M-394 -157 L-388 -157 L-380 -155 L-384 -153 L-389 -155 L-393 -155 L-394 -157 Z" fill="#444444" stroke="#222222" stroke-width="0.3"/>
<path d="M46 37 L46 41 L45 42 L46 44 L36 44 L34 43 L34 41 L42 42 L43 41 L41 38 L39 37 L40 36 L46 37 Z" fill="#cc3333" stroke="#222222" stroke-width="0.3"/>
<path d="M47 46 L45 42 L47 36 L54 37 L55 39 L57 39 L57 40 L61 42 L59 43 L54 42 L51 43 L51 42 L47 46 Z" fill="#444444" stroke="#222222" stroke-width="0.3"/>
<path d="M14 6 L19 5 L19 7 L14 7 L14 6 Z M19 5 L23 7 L22 10 L21 7 L19 5 Z M18 13 L19 13 L20 19 L19 19 L17 15 L18 13 Z" fill="#444444" stroke="#222222" stroke-width="0.3"/>
<path d="M-154 -20 L-143 -20 L-144 -20 L-127 -14 L-115 -14 L-115 -16 L-107 -16 L-101 -11 L-98 -7 L-96 -5 L-92 -4 L-89 -7 L-86 -8 L-83 -6 L-76 2 L-74 7 L-66 10 L-68 17 L-69 25 L-66 33 L-60 41 L-56 42 L-54 44 L-41 40 L-38 39 L-36 31 L-21 29 L-21 32 L-24 37 L-23 38 L-25 43 L-28 42 L-29 45 L-39 45 L-39 48 L-41 48 L-36 51 L-36 53 L-42 53 L-44 56 L-44 59 L-51 53 L-55 52 L-63 55 L-82 48 L-87 45 L-94 43 L-103 36 L-104 34 L-102 33 L-102 29 L-105 23 L-115 13 L-119 11 L-119 7 L-124 4 L-125 1 L-128 1 L-132 -4 L-136 -14 L-143 -16 L-144 -15 L-143 -9 L-129 6 L-125 17 L-123 17 L-120 21 L-122 23 L-127 18 L-132 15 L-132 9 L-145 2 L-142 1 L-141 -2 L-147 -7 L-154 -20 Z" fill="#444444" stroke="#222222" stroke-width="0.3"/>
<path d="M21 85 L22 89 L19 90 L19 92 L16 88 L18 87 L13 84 L8 87 L10 90 L6 92 L5 89 L3 90 L2 88 L-3 87 L-3 88 L-3 82 L-2 81 L-0 84 L3 85 L11 81 L14 81 L21 85 Z" fill="#444444" stroke="#222222" stroke-width="0.3"/>
<path d="M-2 81 L-3 82 L-2 84 L-3 87 L-6 86 L-6 84 L-12 79 L-13 81 L-15 80 L-15 76 L-17 76 L-15 74 L-8 76 L-7 75 L-2 81 Z" fill="#444444" stroke="#222222" stroke-width="0.3"/>
<path d="M-7 75 L-8 76 L-16 75 L-24 67 L-20 65 L-20 63 L-17 62 L-16 63 L-12 58 L-10 59 L-4 57 L-7 73 L-7 75 Z" fill="#444444" stroke="#222222" stroke-width="0.3"/>
<path d="M-4 57 L-10 59 L-12 58 L-16 63 L-17 62 L-20 63 L-20 65 L-23 66 L-25 65 L-25 62 L-28 63 L-32 60 L-31 57 L-25 54 L-12 53 L-4 57 Z" fill="#444444" stroke="#222222" stroke-width="0.3"/>
<path d="M-32 60 L-28 63 L-24 63 L-25 66 L-35 63 L-32 60 Z" fill="#444444" stroke="#222222" stroke-width="0.3"/>
<path d="M-44 59 L-44 56 L-42 53 L-36 53 L-36 51 L-41 48 L-39 48 L-39 45 L-31 45 L-31 54 L-27 54 L-31 57 L-32 60 L-35 63 L-40 62 L-44 59 Z" fill="#444444" stroke="#222222" stroke-width="0.3"/>
<path d="M-31 45 L-28 42 L-26 43 L-27 51 L-30 54 L-31 54 L-31 45 Z" fill="#444444" stroke="#222222" stroke-width="0.3"/>
<path d="M66 42 L73 43 L72 44 L66 45 L66 42 Z" fill="#444444" stroke="#222222" stroke-width="0.3"/>
<path d="M17 43 L23 43 L26 45 L22 46 L17 43 Z" fill="#444444" stroke="#222222" stroke-width="0.3"/>
<path d="M-0 21 L7 22 L13 25 L17 24 L25 30 L29 31 L29 32 L35 34 L32 36 L19 36 L22 34 L18 32 L15 28 L0 25 L2 24 L-3 24 L-8 27 L-12 27 L-7 23 L-0 21 Z" fill="#444444" stroke="#222222" stroke-width="0.3"/>
<path d="M90 76 L94 76 L93 79 L89 79 L90 76 Z" fill="#444444" stroke="#222222" stroke-width="0.3"/>
</svg>