<svg xmlns="http://www.w3.org/2000/svg" viewBox="0 0 80 80" width="80" height="80">
<path d="M-31 -27 L23 -27 L23 -28 L23 -28 L24 -27 L29 -26 L34 -25 L36 -26 L43 -23 L43 -22 L44 -23 L45 -22 L45 -21 L47 -20 L48 -17 L46 -14 L47 -13 L54 -15 L54 -17 L55 -17 L58 -17 L62 -20 L69 -20 L70 -20 L73 -24 L76 -24 L76 -21 L78 -19 L72 -17 L70 -15 L70 -14 L71 -13 L72 -13 L71 -14 L72 -14 L72 -13 L64 -12 L68 -12 L64 -11 L63 -11 L64 -11 L64 -9 L62 -8 L61 -9 L62 -7 L60 -4 L61 -6 L60 -7 L59 -8 L59 -7 L59 -6 L58 -6 L59 -6 L61 -1 L59 0 L54 3 L50 7 L50 10 L52 16 L51 19 L50 19 L49 18 L47 14 L47 13 L45 10 L44 10 L42 10 L40 9 L33 9 L34 11 L34 11 L31 11 L29 10 L26 10 L24 11 L19 14 L18 16 L19 18 L18 18 L15 17 L14 15 L11 11 L10 10 L8 10 L7 12 L5 11 L4 11 L3 8 L0 6 L-3 6 L-3 7 L-8 7 L-16 5 L-16 4 L-20 5 L-21 4 L-23 2 L-27 1 L-27 -0 L-29 -2 L-31 -5 L-33 -8 L-33 -9 L-35 -10 L-34 -14 L-35 -15 L-34 -21 L-34 -23 L-35 -26 L-35 -26 L-32 -26 L-31 -24 L-30 -24 L-31 -27 Z M-96 29 L-94 30 L-96 31 L-96 30 L-96 29 Z M-96 28 L-97 28 L-98 27 L-97 27 L-96 28 Z M-99 27 L-98 27 L-99 27 L-99 27 Z M-100 26 L-99 27 L-100 27 L-100 27 L-101 26 L-100 26 Z M-103 25 L-103 26 L-104 25 L-103 25 L-103 25 Z M-119 -49 L-115 -49 L-115 -49 L-116 -48 L-119 -49 Z M-91 -45 L-89 -44 L-92 -43 L-93 -43 L-94 -44 L-91 -45 Z M-67 -68 L-67 -49 L-63 -49 L-60 -47 L-56 -48 L-52 -46 L-49 -42 L-45 -41 L-45 -40 L-46 -39 L-49 -40 L-50 -42 L-52 -43 L-53 -45 L-58 -45 L-65 -48 L-70 -49 L-73 -49 L-79 -51 L-81 -50 L-81 -49 L-88 -47 L-88 -48 L-87 -50 L-85 -51 L-86 -51 L-92 -48 L-91 -47 L-93 -45 L-97 -44 L-97 -43 L-100 -42 L-101 -41 L-110 -39 L-114 -38 L-108 -41 L-105 -41 L-101 -43 L-100 -44 L-98 -47 L-101 -47 L-102 -46 L-103 -47 L-104 -46 L-105 -47 L-108 -46 L-108 -48 L-109 -49 L-111 -48 L-114 -50 L-114 -51 L-116 -52 L-115 -53 L-113 -55 L-110 -55 L-108 -56 L-106 -56 L-106 -57 L-107 -57 L-106 -58 L-109 -57 L-114 -58 L-117 -58 L-120 -60 L-113 -62 L-111 -62 L-111 -61 L-107 -61 L-115 -65 L-117 -65 L-116 -66 L-113 -66 L-110 -67 L-110 -68 L-108 -69 L-100 -70 L-97 -71 L-94 -71 L-93 -70 L-89 -70 L-89 -70 L-86 -69 L-75 -68 L-72 -69 L-67 -68 Z M-127 -56 L-125 -56 L-121 -55 L-123 -55 L-125 -55 L-127 -55 L-127 -56 Z" fill="#444444" stroke="#222222" stroke-width="0.3"/>
<path d="M68 30 L68 32 L68 32 L68 33 L64 33 L63 32 L63 32 L66 32 L67 32 L66 30 L65 30 L66 29 L68 30 Z" fill="#444444" stroke="#222222" stroke-width="0.3"/>
<path d="M69 34 L68 32 L69 29 L72 30 L72 31 L73 31 L73 31 L75 32 L74 33 L72 32 L71 33 L70 32 L69 34 Z" fill="#444444" stroke="#222222" stroke-width="0.3"/>
<path d="M54 16 L56 16 L56 16 L54 17 L54 16 Z M57 15 L58 16 L58 18 L57 16 L57 15 Z M56 19 L56 19 L57 22 L57 22 L55 20 L56 19 Z" fill="#444444" stroke="#222222" stroke-width="0.3"/>
<path d="M-20 5 L-16 4 L-16 5 L-8 7 L-3 7 L-3 6 L0 6 L3 8 L4 11 L5 11 L7 12 L8 10 L10 10 L11 11 L14 15 L15 17 L19 18 L18 21 L17 24 L19 28 L21 32 L23 32 L24 33 L30 31 L31 31 L32 27 L38 26 L39 28 L37 30 L38 30 L37 33 L36 32 L35 33 L31 34 L31 35 L30 35 L32 36 L32 37 L29 37 L28 39 L28 40 L25 37 L24 37 L20 38 L12 35 L9 33 L6 33 L2 29 L2 28 L3 28 L3 26 L1 24 L-3 19 L-5 18 L-5 17 L-7 15 L-8 14 L-9 14 L-11 12 L-13 7 L-16 6 L-16 7 L-16 9 L-10 16 L-8 21 L-7 21 L-5 23 L-6 24 L-8 21 L-11 20 L-11 17 L-16 14 L-15 14 L-15 13 L-17 11 L-20 5 Z" fill="#444444" stroke="#222222" stroke-width="0.3"/>
<path d="M57 51 L58 53 L57 53 L56 54 L55 53 L56 52 L54 51 L51 52 L52 54 L50 54 L50 53 L49 53 L49 52 L47 52 L47 53 L46 50 L47 50 L48 51 L49 51 L53 50 L54 50 L57 51 Z" fill="#444444" stroke="#222222" stroke-width="0.3"/>
<path d="M47 50 L46 50 L47 51 L46 52 L45 52 L45 51 L42 49 L42 50 L41 49 L41 47 L41 47 L41 46 L45 47 L45 47 L47 50 Z" fill="#444444" stroke="#222222" stroke-width="0.3"/>
<path d="M45 47 L45 47 L41 47 L37 43 L39 42 L39 41 L40 41 L41 41 L43 39 L44 40 L46 39 L45 46 L45 47 Z" fill="#444444" stroke="#222222" stroke-width="0.3"/>
<path d="M46 39 L44 40 L43 39 L41 41 L40 41 L39 41 L39 42 L38 43 L37 42 L37 41 L36 41 L34 40 L34 39 L37 37 L42 37 L46 39 Z" fill="#cc3333" stroke="#222222" stroke-width="0.3"/>
<path d="M34 40 L36 41 L37 41 L37 43 L32 41 L34 40 Z" fill="#444444" stroke="#222222" stroke-width="0.3"/>
<path d="M28 40 L28 39 L29 37 L32 37 L32 36 L30 35 L31 35 L31 34 L34 34 L34 37 L36 38 L34 39 L34 40 L32 41 L30 41 L28 40 Z" fill="#444444" stroke="#222222" stroke-width="0.3"/>
<path d="M34 34 L36 32 L36 32 L36 36 L35 37 L34 37 L34 34 Z" fill="#444444" stroke="#222222" stroke-width="0.3"/>
<path d="M77 32 L80 33 L80 33 L77 33 L77 32 Z" fill="#444444" stroke="#222222" stroke-width="0.3"/>
<path d="M55 33 L58 32 L60 33 L58 34 L55 33 Z" fill="#444444" stroke="#222222" stroke-width="0.3"/>
<path d="M48 23 L51 23 L54 25 L55 24 L59 27 L61 27 L61 28 L64 29 L62 29 L57 30 L58 28 L56 28 L55 26 L48 25 L49 24 L47 24 L44 26 L42 26 L45 24 L48 23 Z" fill="#444444" stroke="#222222" stroke-width="0.3"/>
<path d="M88 47 L90 47 L89 49 L87 49 L88 47 Z" fill="#444444" stroke="#222222" stroke-width="0.3"/>
</svg>