<svg xmlns="http://www.w3.org/2000/svg" viewBox="0 0 80 80" width="80" height="80">
<path d="M-3 -0 L30 -0 L30 -1 L30 -1 L31 -0 L34 1 L36 1 L38 0 L42 2 L42 3 L42 2 L43 3 L43 3 L44 4 L45 6 L44 8 L44 8 L49 7 L48 6 L49 6 L51 6 L53 4 L57 4 L58 4 L60 1 L62 2 L62 3 L63 4 L59 6 L58 7 L58 7 L58 8 L59 8 L59 8 L59 8 L59 8 L55 9 L57 9 L54 9 L54 10 L54 10 L54 10 L53 11 L53 11 L53 12 L52 13 L52 13 L52 12 L52 11 L51 12 L52 12 L51 12 L52 13 L52 15 L52 16 L48 18 L46 20 L46 22 L47 25 L47 27 L46 27 L45 27 L44 24 L44 24 L43 22 L43 22 L41 22 L40 21 L36 22 L37 23 L36 23 L35 23 L34 22 L32 22 L30 22 L27 24 L27 26 L27 27 L27 27 L25 26 L24 25 L23 23 L22 22 L21 22 L20 23 L19 23 L19 22 L18 21 L16 20 L14 20 L14 20 L11 20 L7 19 L7 19 L4 19 L4 18 L2 17 L-0 16 L-0 16 L-2 15 L-2 13 L-4 11 L-4 10 L-5 10 L-4 8 L-5 7 L-4 4 L-4 2 L-5 1 L-5 0 L-3 1 L-3 2 L-2 1 L-3 -0 Z M-42 33 L-40 34 L-41 35 L-42 34 L-42 33 Z M-42 33 L-42 33 L-43 32 L-42 32 L-42 33 Z M-43 32 L-43 32 L-43 32 L-43 32 Z M-44 32 L-44 32 L-44 32 L-44 32 L-44 32 L-44 32 Z M-46 31 L-46 31 L-46 31 L-46 31 L-46 31 Z M-55 -14 L-53 -14 L-53 -13 L-54 -13 L-55 -14 Z M-38 -11 L-37 -11 L-39 -10 L-40 -10 L-40 -10 L-38 -11 Z M-24 -25 L-24 -14 L-22 -13 L-20 -12 L-18 -13 L-15 -11 L-13 -9 L-11 -9 L-11 -8 L-12 -7 L-14 -8 L-14 -9 L-15 -10 L-16 -11 L-19 -11 L-23 -13 L-26 -13 L-28 -13 L-31 -14 L-33 -14 L-32 -13 L-37 -12 L-37 -13 L-36 -14 L-35 -15 L-35 -15 L-39 -13 L-39 -12 L-40 -11 L-42 -10 L-42 -10 L-44 -9 L-45 -9 L-50 -7 L-52 -7 L-49 -9 L-47 -9 L-45 -10 L-44 -10 L-43 -12 L-45 -12 L-45 -11 L-46 -12 L-46 -12 L-47 -12 L-49 -12 L-49 -13 L-49 -13 L-51 -13 L-53 -14 L-53 -15 L-54 -15 L-53 -16 L-52 -17 L-50 -17 L-49 -17 L-47 -18 L-48 -18 L-48 -18 L-47 -19 L-50 -18 L-52 -19 L-54 -19 L-56 -20 L-52 -21 L-51 -21 L-51 -20 L-48 -20 L-53 -23 L-54 -23 L-54 -24 L-52 -24 L-50 -24 L-50 -25 L-49 -25 L-44 -26 L-42 -27 L-41 -26 L-40 -26 L-37 -26 L-37 -26 L-36 -26 L-29 -25 L-27 -25 L-24 -25 Z M-60 -18 L-59 -18 L-57 -17 L-58 -17 L-59 -17 L-60 -17 L-60 -18 Z" fill="#444444" stroke="#222222" stroke-width="0.3"/>
<path d="M57 34 L57 35 L57 35 L57 36 L54 36 L54 35 L54 35 L56 35 L56 35 L56 34 L55 34 L55 34 L57 34 Z" fill="#444444" stroke="#222222" stroke-width="0.3"/>
<path d="M57 36 L57 35 L57 34 L59 34 L59 34 L60 34 L60 35 L61 35 L61 36 L59 35 L58 36 L58 35 L57 36 Z" fill="#444444" stroke="#222222" stroke-width="0.3"/>
<path d="M49 26 L50 26 L50 26 L49 26 L49 26 Z M50 25 L51 26 L51 27 L50 26 L50 25 Z M49 27 L50 27 L50 29 L50 29 L49 28 L49 27 Z" fill="#444444" stroke="#222222" stroke-width="0.3"/>
<path d="M4 19 L7 19 L7 19 L11 20 L14 20 L14 20 L16 20 L18 21 L19 22 L19 23 L20 23 L21 22 L22 22 L23 23 L24 25 L25 26 L27 27 L27 29 L26 31 L27 33 L29 35 L30 35 L30 36 L34 35 L35 34 L35 32 L39 32 L39 33 L38 34 L39 34 L38 36 L37 35 L37 36 L34 36 L34 37 L34 37 L35 38 L35 38 L34 38 L33 39 L33 40 L31 38 L30 38 L28 39 L23 37 L22 36 L20 36 L17 34 L17 33 L18 33 L18 32 L17 30 L14 27 L13 27 L13 26 L12 25 L11 24 L11 24 L10 23 L8 20 L7 20 L6 20 L7 22 L10 26 L11 29 L12 29 L13 30 L12 30 L11 29 L10 28 L9 26 L6 24 L7 24 L7 24 L6 22 L4 19 Z" fill="#444444" stroke="#222222" stroke-width="0.3"/>
<path d="M50 47 L51 48 L50 48 L50 49 L49 48 L49 47 L48 46 L47 47 L47 48 L46 49 L46 48 L46 48 L45 47 L44 47 L44 48 L44 46 L44 46 L45 46 L46 47 L48 46 L48 46 L50 47 Z" fill="#444444" stroke="#222222" stroke-width="0.3"/>
<path d="M44 46 L44 46 L44 47 L44 47 L43 47 L43 46 L41 45 L41 46 L41 45 L41 44 L40 44 L41 44 L43 44 L43 44 L44 46 Z" fill="#444444" stroke="#222222" stroke-width="0.3"/>
<path d="M43 44 L43 44 L41 44 L38 42 L39 41 L39 41 L40 41 L41 41 L42 40 L42 40 L44 39 L43 44 L43 44 Z" fill="#444444" stroke="#222222" stroke-width="0.3"/>
<path d="M44 39 L42 40 L42 40 L41 41 L40 41 L39 41 L39 41 L39 42 L38 41 L38 41 L37 41 L36 40 L37 39 L38 38 L41 38 L44 39 Z" fill="#cc3333" stroke="#222222" stroke-width="0.3"/>
<path d="M36 40 L37 41 L38 41 L38 42 L35 41 L36 40 Z" fill="#444444" stroke="#222222" stroke-width="0.3"/>
<path d="M33 40 L33 39 L34 38 L35 38 L35 38 L34 37 L34 37 L34 36 L37 36 L37 38 L38 39 L37 39 L36 40 L35 41 L34 41 L33 40 Z" fill="#444444" stroke="#222222" stroke-width="0.3"/>
<path d="M37 36 L37 35 L38 35 L38 38 L37 38 L37 38 L37 36 Z" fill="#444444" stroke="#222222" stroke-width="0.3"/>
<path d="M62 35 L64 36 L64 36 L62 36 L62 35 Z" fill="#444444" stroke="#222222" stroke-width="0.3"/>
<path d="M49 36 L51 35 L52 36 L51 36 L49 36 Z" fill="#444444" stroke="#222222" stroke-width="0.3"/>
<path d="M45 30 L47 30 L48 31 L49 31 L51 32 L52 32 L52 33 L54 33 L53 34 L50 34 L51 33 L50 33 L49 32 L45 31 L45 30 L44 30 L43 31 L41 31 L43 30 L45 30 Z" fill="#444444" stroke="#222222" stroke-width="0.3"/>
<path d="M69 44 L70 44 L70 45 L68 45 L69 44 Z" fill="#444444" stroke="#222222" stroke-width="0.3"/>
</svg>