<svg xmlns="http://www.w3.org/2000/svg" viewBox="0 0 80 80" width="80" height="80">
<path d="M43 23 L42 23 L42 23 L42 24 L42 24 L40 24 L40 25 L38 26 L39 27 L38 27 L38 27 L38 27 L36 27 L35 27 L34 27 L34 27 L33 27 L33 27 L31 28 L31 28 L31 28 L31 28 L30 28 L30 27 L30 27 L30 27 L29 26 L27 26 L26 26 L25 25 L23 25 L23 28 L23 28 L22 27 L21 27 L21 27 L20 27 L20 26 L20 26 L20 25 L21 25 L21 24 L20 24 L19 25 L19 25 L19 24 L18 24 L18 24 L17 23 L18 22 L19 22 L19 22 L20 21 L21 21 L23 22 L24 22 L25 22 L26 22 L26 22 L27 22 L27 22 L26 21 L26 21 L26 21 L27 21 L26 20 L27 20 L29 20 L31 19 L33 19 L33 20 L33 20 L34 20 L34 20 L35 20 L36 20 L36 20 L37 20 L38 22 L39 22 L39 22 L40 22 L42 23 L43 22 L43 23 Z" fill="#444444" stroke="#222222" stroke-width="0.3"/>
<path d="M23 28 L23 25 L25 25 L26 26 L27 26 L29 26 L30 27 L30 27 L30 27 L30 28 L31 28 L31 28 L31 28 L31 28 L33 27 L33 27 L32 28 L33 28 L33 28 L34 28 L33 29 L32 28 L32 28 L32 28 L31 29 L31 29 L30 29 L31 29 L31 30 L31 30 L30 30 L30 30 L28 29 L27 29 L27 28 L26 28 L26 28 L26 27 L25 27 L24 27 L24 28 L23 28 Z" fill="#444444" stroke="#222222" stroke-width="0.3"/>
<path d="M76 55 L79 56 L79 57 L79 57 L80 57 L81 58 L80 58 L80 58 L81 59 L81 59 L82 59 L81 59 L82 60 L82 60 L81 60 L80 59 L79 59 L79 58 L78 59 L78 59 L77 59 L76 59 L76 55 Z M84 56 L84 56 L84 57 L83 56 L82 55 L83 55 L84 56 Z M83 57 L82 57 L81 57 L81 57 L82 57 L82 57 L82 57 L82 57 L83 57 L83 56 L83 56 L83 57 L83 57 Z M85 57 L86 58 L86 58 L85 58 L85 57 Z" fill="#444444" stroke="#222222" stroke-width="0.3"/>
<path d="M76 55 L76 59 L76 59 L75 59 L75 59 L74 59 L74 58 L75 58 L74 57 L73 56 L72 56 L71 56 L71 56 L71 55 L72 55 L72 55 L71 55 L71 55 L70 54 L70 54 L71 54 L72 54 L72 55 L73 56 L73 55 L74 55 L75 55 L76 55 Z M66 59 L66 59 L66 60 L65 60 L66 59 L66 59 Z M72 58 L72 57 L72 57 L72 57 L72 58 Z M62 51 L62 52 L62 52 L62 52 L63 53 L62 53 L62 53 L62 54 L61 54 L61 56 L61 56 L60 56 L60 56 L59 55 L58 56 L58 55 L57 55 L57 55 L56 54 L56 53 L56 53 L57 52 L57 53 L57 53 L58 53 L59 53 L59 53 L60 53 L61 51 L62 51 Z M68 55 L70 55 L70 56 L69 56 L68 56 L68 55 Z M68 56 L67 56 L67 56 L68 56 L68 56 L68 56 Z M68 52 L68 53 L69 53 L69 53 L69 53 L68 53 L68 54 L68 54 L68 54 L68 53 L68 52 Z M64 53 L66 53 L66 53 L67 53 L66 53 L66 53 L63 53 L63 54 L64 54 L64 54 L65 54 L65 54 L65 54 L65 54 L64 55 L65 56 L65 56 L65 56 L65 57 L65 57 L65 57 L65 56 L64 57 L64 56 L64 56 L64 56 L64 55 L63 55 L64 57 L63 57 L63 57 L63 56 L63 56 L63 56 L62 55 L63 53 L64 53 Z M64 60 L63 60 L63 59 L64 60 L64 60 Z M64 59 L64 59 L65 59 L65 59 L63 59 L63 59 L64 59 Z M62 59 L63 59 L63 59 L61 59 L61 59 L62 59 L62 59 Z M56 58 L56 58 L57 58 L57 58 L59 58 L59 58 L60 58 L61 59 L60 59 L59 59 L56 58 L55 58 L55 58 L54 58 L55 57 L56 58 Z M53 54 L54 55 L54 55 L55 55 L54 57 L54 57 L52 56 L50 53 L50 52 L48 50 L48 50 L49 50 L51 52 L52 52 L52 53 L53 53 L53 53 L53 54 L53 54 Z" fill="#444444" stroke="#222222" stroke-width="0.3"/>
<path d="M66 59 L67 59 L68 59 L66 59 L66 59 Z" fill="#444444" stroke="#222222" stroke-width="0.3"/>
<path d="M11 33 L11 33 L10 33 L10 34 L10 34 L10 34 L10 34 L10 34 L10 35 L10 34 L10 33 L11 33 Z" fill="#444444" stroke="#222222" stroke-width="0.3"/>
<path d="M11 33 L10 33 L11 32 L11 32 L11 32 L11 33 Z" fill="#444444" stroke="#222222" stroke-width="0.3"/>
<path d="M10 34 L10 34 L10 34 L10 34 L10 33 L11 33 L10 34 Z" fill="#444444" stroke="#222222" stroke-width="0.3"/>
<path d="M10 35 L11 33 L11 33 L13 33 L13 33 L11 34 L12 35 L11 35 L10 35 Z" fill="#444444" stroke="#222222" stroke-width="0.3"/>
<path d="M21 38 L21 39 L22 39 L23 37 L23 38 L24 38 L23 38 L23 39 L23 39 L23 40 L21 39 L21 38 Z" fill="#444444" stroke="#222222" stroke-width="0.3"/>
<path d="M20 38 L20 38 L20 37 L21 38 L20 38 L20 38 Z" fill="#444444" stroke="#222222" stroke-width="0.3"/>
<path d="M18 35 L19 36 L18 36 L18 35 L17 35 L18 35 L18 35 Z" fill="#444444" stroke="#222222" stroke-width="0.3"/>
<path d="M13 33 L13 33 L14 32 L14 31 L15 30 L16 30 L16 30 L17 31 L17 31 L17 32 L17 32 L17 32 L17 33 L18 33 L18 34 L18 34 L18 34 L18 35 L19 35 L18 35 L17 35 L16 35 L15 34 L13 33 Z" fill="#444444" stroke="#222222" stroke-width="0.3"/>
<path d="M23 39 L23 39 L23 39 L23 38 L24 38 L24 39 L25 39 L26 40 L25 41 L24 41 L24 42 L24 42 L23 42 L23 42 L23 43 L22 43 L21 42 L23 41 L23 40 L23 39 Z M23 38 L23 37 L24 37 L24 37 L23 38 Z" fill="#444444" stroke="#222222" stroke-width="0.3"/>
<path d="M52 46 L52 45 L53 45 L53 45 L55 45 L55 44 L55 45 L56 45 L55 46 L54 46 L55 47 L53 47 L53 47 L52 46 Z" fill="#444444" stroke="#222222" stroke-width="0.3"/>
<path d="M54 45 L53 45 L52 45 L52 46 L52 46 L51 46 L51 45 L51 45 L51 46 L50 47 L50 48 L51 48 L51 49 L52 50 L52 50 L51 50 L51 50 L51 49 L51 50 L50 48 L50 49 L50 48 L50 47 L51 46 L50 45 L50 44 L50 43 L49 42 L49 42 L50 41 L50 41 L51 41 L51 41 L51 41 L52 41 L51 43 L52 42 L53 42 L53 42 L53 42 L54 43 L54 43 L54 44 L54 45 Z" fill="#444444" stroke="#222222" stroke-width="0.3"/>
<path d="M55 45 L55 44 L55 45 L54 45 L54 44 L54 43 L54 43 L53 42 L53 42 L53 42 L52 42 L51 43 L52 41 L51 41 L51 41 L51 41 L51 40 L52 40 L52 40 L52 40 L53 41 L54 41 L54 41 L53 42 L54 42 L55 44 L55 44 L55 45 Z" fill="#444444" stroke="#222222" stroke-width="0.3"/>
<path d="M51 40 L50 41 L50 41 L49 42 L49 42 L50 43 L50 44 L50 45 L51 46 L50 47 L50 46 L50 46 L50 45 L50 45 L49 43 L48 44 L47 44 L47 43 L47 42 L47 41 L47 41 L46 41 L46 41 L46 40 L46 40 L46 40 L46 40 L47 39 L47 39 L48 37 L48 37 L49 37 L49 37 L49 36 L49 36 L50 36 L50 37 L49 38 L49 39 L50 39 L50 39 L50 39 L50 40 L51 40 L51 40 L51 40 Z" fill="#444444" stroke="#222222" stroke-width="0.3"/>
<path d="M53 47 L55 47 L54 46 L55 46 L55 44 L55 44 L54 42 L53 42 L54 41 L54 41 L53 41 L52 40 L54 39 L54 39 L55 39 L55 40 L55 40 L56 40 L55 41 L54 42 L55 43 L56 44 L57 45 L56 46 L54 48 L54 48 L54 47 L53 47 Z" fill="#444444" stroke="#222222" stroke-width="0.3"/>
<path d="M70 27 L70 27 L70 27 L70 27 Z M69 27 L70 27 L70 27 L69 28 L69 28 L68 29 L68 29 L68 29 L68 30 L67 30 L66 30 L67 29 L66 29 L66 28 L68 27 L68 28 L68 27 L69 27 L69 27 Z" fill="#444444" stroke="#222222" stroke-width="0.3"/>
<path d="M67 30 L68 29 L69 31 L69 31 L69 32 L67 32 L67 31 L67 31 L68 31 L67 30 Z" fill="#444444" stroke="#222222" stroke-width="0.3"/>
<path d="M43 23 L46 22 L47 22 L48 22 L49 23 L50 22 L49 22 L50 21 L52 22 L52 22 L53 22 L55 22 L56 23 L57 23 L59 23 L60 22 L60 22 L61 22 L60 24 L61 24 L62 24 L62 24 L63 24 L63 24 L62 24 L61 25 L59 26 L58 25 L58 26 L58 26 L57 27 L55 27 L54 28 L51 27 L48 27 L48 26 L47 26 L45 25 L45 25 L45 24 L45 24 L43 23 L43 23 Z" fill="#444444" stroke="#222222" stroke-width="0.3"/>
<path d="M49 36 L49 37 L49 37 L48 37 L48 37 L47 39 L47 39 L46 40 L46 40 L46 39 L46 39 L46 39 L45 39 L46 38 L44 38 L44 37 L44 37 L43 37 L44 38 L43 38 L44 38 L44 39 L44 40 L44 40 L43 40 L43 41 L42 41 L41 41 L40 43 L40 43 L38 44 L38 44 L38 45 L38 46 L38 47 L38 47 L38 48 L38 48 L37 48 L37 49 L36 48 L36 47 L35 46 L35 44 L34 44 L34 40 L33 41 L32 41 L32 40 L32 40 L32 39 L31 39 L31 38 L33 38 L32 37 L32 37 L32 36 L33 36 L35 34 L35 34 L35 33 L35 33 L34 32 L35 32 L36 32 L37 31 L38 32 L38 33 L38 33 L38 33 L37 33 L37 34 L39 35 L39 35 L38 36 L40 36 L41 37 L42 37 L43 37 L43 36 L44 36 L44 37 L44 37 L46 37 L46 36 L46 36 L46 36 L47 35 L48 35 L48 35 L49 36 L48 36 L49 36 Z" fill="#cc3333" stroke="#222222" stroke-width="0.3"/>
<path d="M46 39 L46 40 L46 40 L46 41 L45 39 L45 39 L45 40 L44 40 L44 39 L44 38 L43 38 L44 38 L43 37 L44 37 L44 37 L44 38 L46 38 L45 39 L46 39 L46 39 L46 39 Z" fill="#444444" stroke="#222222" stroke-width="0.3"/>
<path d="M45 36 L46 36 L46 37 L44 37 L44 37 L44 36 L45 36 Z" fill="#444444" stroke="#222222" stroke-width="0.3"/>
<path d="M43 36 L43 37 L43 37 L42 37 L41 37 L40 36 L38 36 L39 35 L39 35 L42 36 L43 36 Z" fill="#444444" stroke="#222222" stroke-width="0.3"/>
<path d="M37 31 L36 32 L35 32 L34 32 L35 33 L35 33 L35 34 L35 34 L33 36 L32 36 L32 37 L32 37 L33 38 L31 38 L31 39 L30 39 L30 38 L27 38 L27 37 L28 37 L28 37 L28 36 L28 36 L27 36 L26 35 L27 35 L29 35 L30 35 L30 34 L30 34 L32 34 L32 33 L32 33 L32 33 L32 32 L33 32 L33 32 L33 31 L33 31 L35 30 L36 31 L36 31 L37 31 Z" fill="#444444" stroke="#222222" stroke-width="0.3"/>
<path d="M29 30 L31 30 L31 30 L32 30 L32 30 L32 30 L33 30 L33 30 L33 30 L33 31 L34 30 L35 30 L35 30 L33 31 L33 31 L33 32 L33 32 L32 32 L32 33 L32 33 L32 33 L32 34 L30 34 L30 34 L30 35 L29 35 L27 35 L26 35 L27 34 L27 34 L26 34 L26 33 L26 33 L26 33 L27 31 L27 32 L28 31 L28 31 L29 31 L29 30 L29 30 L29 30 Z" fill="#444444" stroke="#222222" stroke-width="0.3"/>
<path d="M31 30 L31 30 L31 29 L30 29 L31 29 L31 29 L32 28 L32 28 L32 28 L33 28 L32 29 L32 29 L32 29 L34 29 L34 30 L35 30 L35 30 L34 30 L33 31 L33 30 L33 30 L33 30 L32 30 L32 30 L32 30 L31 30 Z" fill="#444444" stroke="#222222" stroke-width="0.3"/>
<path d="M33 27 L33 27 L33 27 L34 27 L34 27 L35 27 L36 27 L38 27 L38 27 L37 28 L36 28 L36 28 L35 28 L34 29 L35 29 L34 29 L32 29 L32 29 L33 29 L34 28 L33 28 L33 28 L32 28 L33 27 L33 27 Z" fill="#444444" stroke="#222222" stroke-width="0.3"/>
<path d="M21 27 L22 27 L23 28 L24 28 L24 27 L25 27 L26 27 L26 28 L26 28 L27 28 L27 29 L28 29 L30 30 L30 30 L29 30 L29 30 L29 30 L29 31 L27 32 L27 31 L27 31 L26 31 L25 30 L24 30 L23 30 L23 30 L22 30 L22 29 L22 29 L22 29 L21 29 L21 28 L22 28 L23 28 L22 27 L21 27 L21 28 L21 27 Z" fill="#444444" stroke="#222222" stroke-width="0.3"/>
<path d="M19 35 L18 35 L18 34 L18 34 L18 34 L18 33 L17 33 L17 32 L17 32 L17 32 L17 31 L17 31 L16 30 L16 30 L16 29 L16 29 L17 29 L17 29 L18 29 L19 29 L18 29 L19 30 L19 30 L20 31 L21 31 L22 30 L23 30 L24 30 L25 30 L26 31 L27 31 L27 31 L26 33 L26 33 L26 33 L26 34 L27 34 L27 34 L26 35 L27 36 L28 36 L28 36 L28 37 L28 37 L27 37 L27 38 L24 37 L24 37 L24 37 L23 37 L22 37 L21 36 L21 36 L20 35 L19 35 L19 35 L19 35 Z" fill="#444444" stroke="#222222" stroke-width="0.3"/>
<path d="M11 33 L11 32 L11 32 L11 32 L11 32 L11 31 L11 31 L11 31 L13 31 L15 30 L14 31 L14 32 L11 33 L11 33 Z" fill="#444444" stroke="#222222" stroke-width="0.3"/>
<path d="M17 29 L17 29 L17 29 L16 28 L16 28 L16 28 L17 28 L17 28 L17 28 L17 29 L17 29 L17 29 Z" fill="#444444" stroke="#222222" stroke-width="0.3"/>
<path d="M16 30 L16 30 L15 30 L13 31 L11 31 L11 31 L11 31 L11 31 L11 31 L10 31 L10 31 L9 31 L8 31 L7 31 L7 31 L7 31 L6 31 L6 31 L5 30 L5 29 L5 29 L5 28 L6 28 L7 28 L8 28 L9 27 L10 27 L12 28 L14 28 L14 28 L15 28 L16 28 L16 28 L16 29 L16 29 L16 30 L16 30 L16 30 Z M5 27 L5 27 L6 27 L6 28 L6 28 L6 28 L6 28 L5 29 L5 28 L5 28 L5 27 Z" fill="#444444" stroke="#222222" stroke-width="0.3"/>
<path d="M80 79 L81 79 L81 80 L81 81 L80 80 L80 81 L79 81 L79 79 L79 79 L80 79 Z M67 74 L66 74 L66 75 L63 75 L62 75 L61 75 L60 75 L60 75 L61 74 L61 74 L60 72 L59 70 L59 70 L59 70 L60 70 L59 69 L59 68 L59 68 L60 67 L60 68 L60 67 L61 66 L62 66 L63 66 L64 66 L65 65 L65 64 L65 64 L65 64 L66 64 L65 64 L66 64 L66 64 L66 63 L67 62 L67 63 L67 62 L68 62 L68 63 L69 63 L69 63 L70 62 L70 62 L70 61 L70 61 L71 61 L71 61 L71 61 L71 60 L73 61 L74 61 L74 61 L73 62 L73 62 L73 62 L73 63 L76 65 L76 64 L77 64 L77 63 L77 61 L77 60 L78 62 L78 63 L79 62 L79 63 L79 64 L80 65 L81 66 L81 66 L82 67 L82 67 L82 68 L82 68 L83 68 L84 69 L84 71 L84 71 L84 73 L83 74 L83 74 L82 76 L82 77 L82 77 L81 77 L80 78 L79 78 L79 77 L78 78 L76 77 L76 77 L75 76 L75 76 L75 76 L75 75 L75 75 L74 75 L74 76 L74 75 L74 74 L73 75 L73 75 L73 75 L73 75 L72 74 L72 74 L70 73 L67 74 Z" fill="#444444" stroke="#222222" stroke-width="0.3"/>
<path d="M39 49 L39 50 L39 50 L38 49 L38 48 L38 47 L39 48 L39 49 Z" fill="#444444" stroke="#222222" stroke-width="0.3"/>
<path d="M57 42 L56 42 L56 41 L56 41 L57 41 L58 41 L57 42 L57 42 Z M38 27 L38 27 L39 27 L38 26 L40 25 L40 24 L42 24 L42 24 L42 23 L42 23 L43 23 L43 23 L45 24 L45 24 L45 25 L45 25 L47 26 L48 26 L48 27 L51 27 L54 28 L55 27 L57 27 L58 26 L58 26 L58 25 L59 26 L61 25 L62 24 L63 24 L63 24 L62 24 L62 24 L61 24 L60 24 L61 22 L62 23 L63 22 L63 22 L64 21 L64 21 L63 21 L64 20 L65 20 L65 20 L67 21 L68 23 L69 23 L70 23 L70 24 L71 24 L73 23 L71 25 L71 25 L70 26 L70 26 L70 27 L70 27 L70 27 L69 27 L69 27 L68 27 L68 28 L68 27 L66 29 L64 29 L64 29 L64 29 L65 28 L64 28 L63 29 L63 29 L62 29 L62 29 L62 30 L63 30 L63 30 L63 30 L64 30 L65 30 L65 31 L64 31 L63 32 L63 32 L64 34 L64 34 L64 34 L64 35 L65 35 L64 36 L64 36 L62 38 L61 39 L60 39 L60 40 L59 39 L59 40 L57 40 L57 41 L57 41 L57 40 L57 40 L55 40 L55 40 L55 39 L54 39 L54 39 L52 39 L52 40 L52 40 L52 40 L51 40 L51 40 L50 40 L50 39 L50 39 L50 39 L49 39 L49 38 L50 37 L50 36 L49 36 L48 36 L49 36 L48 35 L48 35 L47 35 L46 36 L46 36 L45 36 L44 37 L44 36 L43 36 L42 36 L41 36 L41 35 L40 35 L39 35 L39 35 L37 34 L37 33 L38 33 L38 33 L38 33 L38 32 L37 31 L36 31 L36 31 L35 30 L35 30 L34 30 L34 29 L35 29 L34 29 L35 28 L36 28 L36 28 L37 28 L38 27 Z" fill="#444444" stroke="#222222" stroke-width="0.3"/>
<path d="M64 38 L64 39 L64 40 L63 39 L64 38 L64 38 Z" fill="#444444" stroke="#222222" stroke-width="0.3"/>
<path d="M17 27 L18 28 L19 27 L19 28 L20 28 L19 28 L19 30 L18 29 L19 29 L18 29 L17 29 L17 29 L17 29 L17 28 L16 28 L17 28 L17 28 L17 27 Z M17 29 L17 29 L16 29 L17 29 L17 29 Z" fill="#444444" stroke="#222222" stroke-width="0.3"/>
<path d="M13 26 L15 27 L16 27 L17 27 L17 27 L17 28 L17 28 L17 28 L16 28 L15 28 L14 28 L14 27 L13 26 Z" fill="#444444" stroke="#222222" stroke-width="0.3"/>
<path d="M64 46 L63 45 L64 45 L64 45 L64 46 Z M65 47 L65 47 L65 47 L65 47 L66 47 L66 47 L65 48 L65 47 Z M67 48 L67 49 L67 50 L67 49 L67 49 L67 50 L67 50 L66 50 L66 49 L66 49 L65 49 L65 49 L64 49 L65 49 L65 48 L66 48 L66 48 L66 48 L67 48 L67 47 L67 48 Z M63 47 L61 48 L63 46 L63 47 Z M65 42 L65 42 L65 43 L65 43 L64 44 L64 45 L65 45 L66 45 L66 46 L65 45 L65 45 L65 45 L64 45 L64 44 L64 44 L64 45 L63 44 L63 43 L63 44 L64 42 L64 42 L65 42 Z M64 47 L64 46 L65 46 L65 47 L64 47 Z M66 46 L67 47 L66 46 L67 47 L66 47 L66 47 L66 47 L66 46 L66 46 L66 46 L66 46 L66 46 Z" fill="#444444" stroke="#222222" stroke-width="0.3"/>
<path d="M51 50 L51 49 L51 50 L51 50 L52 50 L52 50 L53 50 L53 51 L53 52 L53 53 L53 53 L52 52 L51 50 Z M62 51 L61 51 L60 53 L59 53 L59 53 L58 53 L57 53 L57 53 L57 52 L57 53 L58 52 L58 52 L59 52 L60 51 L60 51 L60 51 L60 51 L60 50 L61 49 L61 49 L62 50 L63 50 L63 50 L62 50 L62 51 L62 51 Z" fill="#444444" stroke="#222222" stroke-width="0.3"/>
<path d="M60 50 L60 51 L60 51 L60 51 L60 51 L60 50 Z" fill="#444444" stroke="#222222" stroke-width="0.3"/>
<path d="M77 29 L76 30 L76 30 L76 31 L76 31 L76 32 L75 32 L74 32 L73 33 L73 32 L73 32 L70 32 L71 33 L70 34 L70 34 L70 34 L70 33 L69 33 L69 33 L70 33 L71 31 L72 31 L73 31 L74 30 L74 31 L75 30 L76 29 L76 28 L76 28 L77 28 L77 29 L77 29 Z M79 26 L79 26 L79 27 L78 27 L78 27 L77 27 L76 28 L76 28 L76 27 L76 27 L77 26 L77 25 L78 26 L79 26 Z M71 33 L71 32 L72 32 L72 32 L72 32 L72 32 L72 33 L72 33 L72 33 L71 33 L71 33 L71 33 Z" fill="#444444" stroke="#222222" stroke-width="0.3"/>
<path d="M21 42 L22 43 L21 43 L21 44 L19 44 L19 45 L17 45 L16 46 L16 46 L15 44 L15 43 L16 43 L18 43 L18 43 L18 43 L18 42 L19 42 L21 42 Z" fill="#444444" stroke="#222222" stroke-width="0.3"/>
<path d="M10 35 L11 35 L11 35 L12 35 L12 35 L11 34 L13 33 L15 34 L16 35 L18 35 L18 36 L19 36 L19 36 L20 37 L20 38 L20 38 L20 38 L21 39 L23 40 L23 39 L23 40 L23 41 L21 42 L19 42 L18 42 L18 43 L18 43 L18 43 L16 43 L15 43 L15 43 L15 43 L14 41 L13 41 L13 40 L13 39 L12 39 L12 38 L11 38 L10 36 L10 36 L10 35 Z" fill="#444444" stroke="#222222" stroke-width="0.3"/>
<path d="M9 32 L9 31 L10 31 L10 32 L9 32 Z" fill="#444444" stroke="#222222" stroke-width="0.3"/>
<path d="M9 32 L9 32 L10 32 L9 32 L9 32 Z" fill="#444444" stroke="#222222" stroke-width="0.3"/>
</svg>