<svg xmlns="http://www.w3.org/2000/svg" viewBox="0 0 80 80" width="80" height="80">
<path d="M28 19 L27 20 L27 20 L27 20 L27 20 L26 20 L26 21 L25 21 L25 22 L25 22 L25 22 L24 22 L23 22 L23 22 L22 22 L22 22 L21 22 L21 22 L20 23 L20 23 L20 23 L20 23 L20 23 L19 22 L19 22 L19 22 L19 22 L18 22 L17 21 L16 21 L15 21 L15 23 L15 23 L15 22 L14 22 L14 22 L13 22 L13 21 L13 21 L13 21 L14 21 L14 20 L13 20 L13 21 L12 21 L12 20 L12 20 L12 20 L12 20 L12 19 L12 19 L12 19 L13 19 L14 18 L15 19 L16 19 L16 19 L17 19 L17 19 L17 19 L18 19 L17 18 L17 18 L17 18 L18 18 L17 18 L17 18 L19 17 L20 17 L21 17 L21 18 L22 17 L22 18 L22 18 L23 18 L24 17 L23 18 L24 18 L25 19 L25 19 L26 19 L26 19 L27 19 L28 19 L28 19 Z" fill="#444444" stroke="#222222" stroke-width="0.3"/>
<path d="M15 23 L15 21 L16 21 L17 21 L18 22 L19 22 L19 22 L19 22 L19 22 L20 23 L20 23 L20 23 L20 23 L20 23 L21 22 L21 22 L21 23 L21 23 L22 23 L22 23 L22 23 L21 23 L21 23 L21 23 L20 23 L20 23 L20 23 L20 24 L20 24 L20 24 L19 24 L19 24 L19 24 L18 23 L18 23 L17 23 L17 23 L17 22 L16 22 L16 22 L16 23 L15 23 Z" fill="#444444" stroke="#222222" stroke-width="0.3"/>
<path d="M49 40 L51 41 L51 41 L51 41 L52 41 L52 42 L51 42 L52 42 L52 42 L52 43 L52 43 L52 43 L53 43 L53 43 L52 43 L51 43 L51 42 L51 42 L50 42 L50 43 L50 43 L49 43 L49 40 Z M54 41 L54 41 L54 41 L54 41 L53 40 L53 40 L54 41 Z M53 41 L53 42 L52 41 L52 41 L53 41 L53 41 L53 41 L53 41 L53 41 L53 41 L54 41 L54 41 L53 41 Z M54 41 L55 42 L55 42 L55 42 L54 41 Z" fill="#444444" stroke="#222222" stroke-width="0.3"/>
<path d="M49 40 L49 43 L49 42 L48 42 L48 42 L48 42 L48 42 L48 42 L48 41 L47 41 L46 40 L46 41 L46 40 L45 40 L46 40 L46 40 L46 40 L45 40 L45 40 L45 39 L46 39 L46 39 L46 40 L47 40 L47 40 L48 40 L48 40 L49 40 Z M43 43 L43 43 L42 43 L42 43 L42 43 L43 43 Z M46 42 L46 41 L46 41 L47 42 L46 42 Z M40 37 L40 38 L40 38 L40 38 L40 39 L40 39 L40 39 L40 39 L39 40 L39 41 L39 41 L39 41 L39 40 L38 40 L38 40 L37 40 L37 40 L37 40 L36 39 L36 39 L36 39 L37 38 L37 39 L37 39 L37 39 L38 38 L38 39 L39 38 L39 37 L40 37 Z M44 40 L45 40 L45 41 L45 40 L44 40 L44 40 Z M43 41 L43 40 L43 40 L44 40 L44 40 L43 41 Z M44 38 L44 38 L44 38 L44 39 L44 39 L44 39 L44 39 L44 39 L44 39 L44 39 L44 38 Z M41 39 L42 39 L43 38 L43 38 L42 39 L42 39 L41 39 L41 39 L41 40 L41 39 L42 39 L42 39 L42 39 L42 40 L41 40 L42 40 L42 40 L42 41 L42 41 L42 41 L42 41 L42 41 L41 41 L41 41 L41 41 L41 40 L41 40 L41 40 L41 41 L41 41 L40 41 L41 41 L41 40 L40 40 L40 40 L41 39 L41 39 Z M41 43 L40 43 L41 43 L41 43 L41 43 Z M41 42 L42 42 L42 42 L42 42 L41 43 L41 42 L41 42 Z M40 42 L40 42 L40 43 L39 43 L40 42 L40 42 L40 42 Z M36 42 L36 42 L37 42 L37 42 L38 42 L38 42 L39 42 L39 42 L39 43 L38 42 L36 42 L35 42 L35 42 L35 42 L35 41 L36 42 Z M35 39 L35 40 L35 40 L35 40 L35 41 L35 41 L34 41 L32 39 L32 38 L31 37 L31 37 L32 37 L33 38 L33 38 L34 38 L34 39 L34 39 L34 39 L35 39 Z" fill="#cc3333" stroke="#222222" stroke-width="0.3"/>
<path d="M43 43 L43 42 L44 42 L43 43 L43 43 Z" fill="#444444" stroke="#222222" stroke-width="0.3"/>
<path d="M7 26 L7 26 L7 26 L7 26 L7 26 L7 27 L7 27 L7 27 L7 27 L7 27 L7 26 L7 26 Z" fill="#444444" stroke="#222222" stroke-width="0.3"/>
<path d="M7 26 L7 26 L7 25 L8 25 L8 25 L7 26 Z" fill="#444444" stroke="#222222" stroke-width="0.3"/>
<path d="M7 27 L7 27 L7 26 L7 26 L7 26 L7 26 L7 27 Z" fill="#444444" stroke="#222222" stroke-width="0.3"/>
<path d="M7 27 L7 26 L8 26 L8 26 L9 26 L8 27 L8 27 L7 27 L7 27 Z" fill="#444444" stroke="#222222" stroke-width="0.3"/>
<path d="M14 29 L14 30 L14 29 L15 29 L15 29 L15 29 L15 29 L15 29 L15 30 L15 30 L14 30 L14 29 Z" fill="#444444" stroke="#222222" stroke-width="0.3"/>
<path d="M13 29 L13 29 L13 29 L14 29 L13 29 L13 29 Z" fill="#444444" stroke="#222222" stroke-width="0.3"/>
<path d="M12 27 L12 28 L12 28 L12 28 L12 27 L12 27 L12 27 Z" fill="#444444" stroke="#222222" stroke-width="0.3"/>
<path d="M9 26 L8 26 L9 25 L9 25 L10 24 L11 24 L11 24 L11 25 L11 25 L11 25 L11 25 L11 26 L11 26 L12 26 L12 26 L12 27 L12 27 L12 27 L12 27 L12 27 L12 27 L11 27 L10 27 L9 26 Z" fill="#444444" stroke="#222222" stroke-width="0.3"/>
<path d="M15 30 L15 30 L15 29 L15 29 L15 29 L16 30 L16 30 L17 30 L16 31 L16 31 L16 32 L16 32 L15 32 L15 32 L15 32 L14 32 L14 32 L15 31 L15 30 L15 30 Z M15 29 L15 29 L15 29 L15 29 L15 29 Z" fill="#444444" stroke="#222222" stroke-width="0.3"/>
<path d="M34 34 L34 34 L34 33 L34 33 L35 34 L35 33 L36 33 L36 34 L36 34 L35 34 L35 35 L35 35 L34 35 L34 34 Z" fill="#444444" stroke="#222222" stroke-width="0.3"/>
<path d="M35 33 L34 33 L34 34 L34 34 L33 34 L33 34 L33 34 L33 34 L33 34 L32 35 L32 35 L33 35 L33 36 L34 37 L34 37 L33 37 L33 37 L33 36 L33 36 L32 36 L32 36 L32 36 L32 35 L33 34 L32 34 L32 33 L32 33 L32 32 L32 32 L32 31 L32 31 L33 31 L33 31 L33 31 L33 31 L33 32 L34 32 L34 32 L34 32 L34 32 L35 32 L35 33 L35 33 L35 33 Z" fill="#444444" stroke="#222222" stroke-width="0.3"/>
<path d="M36 33 L35 33 L35 34 L35 33 L35 33 L35 33 L35 32 L34 32 L34 32 L34 32 L34 32 L33 32 L33 31 L33 31 L33 31 L33 31 L33 31 L33 31 L33 30 L34 30 L34 31 L35 31 L35 31 L34 31 L35 32 L36 33 L36 33 L36 33 Z" fill="#444444" stroke="#222222" stroke-width="0.3"/>
<path d="M33 31 L32 31 L32 31 L32 32 L32 32 L32 33 L32 33 L32 34 L33 34 L32 35 L32 35 L32 34 L32 34 L32 34 L32 32 L31 33 L30 33 L31 32 L31 32 L30 31 L30 31 L30 31 L30 31 L30 31 L30 31 L30 30 L30 30 L30 29 L30 30 L31 29 L31 28 L31 28 L32 28 L32 28 L32 28 L32 28 L32 29 L32 29 L32 30 L32 29 L32 30 L33 30 L32 30 L33 30 L33 30 L33 31 Z" fill="#444444" stroke="#222222" stroke-width="0.3"/>
<path d="M35 35 L35 35 L35 34 L36 34 L36 33 L36 33 L35 32 L34 31 L35 31 L35 31 L34 31 L34 30 L35 30 L35 30 L35 30 L35 30 L36 30 L36 30 L35 31 L35 31 L36 32 L36 33 L36 34 L36 34 L35 36 L35 35 L35 35 L35 35 Z" fill="#444444" stroke="#222222" stroke-width="0.3"/>
<path d="M45 22 L45 22 L45 22 L45 22 Z M45 22 L45 22 L45 22 L45 23 L45 23 L44 23 L44 23 L44 24 L44 24 L43 24 L43 24 L43 23 L42 23 L43 23 L43 22 L44 23 L44 22 L45 22 L45 22 Z" fill="#444444" stroke="#222222" stroke-width="0.3"/>
<path d="M43 24 L44 24 L44 24 L44 25 L44 25 L43 25 L43 25 L43 24 L43 24 L43 24 Z" fill="#444444" stroke="#222222" stroke-width="0.3"/>
<path d="M28 19 L30 19 L30 19 L31 19 L32 19 L32 19 L32 19 L32 18 L34 19 L34 19 L34 19 L36 19 L36 19 L37 20 L38 19 L38 19 L39 19 L39 19 L39 20 L39 20 L40 20 L40 20 L41 20 L41 20 L40 21 L39 21 L38 21 L37 21 L37 21 L37 22 L37 22 L35 22 L35 23 L33 22 L31 22 L31 21 L30 21 L29 21 L29 21 L29 20 L29 20 L28 20 L28 19 Z" fill="#444444" stroke="#222222" stroke-width="0.3"/>
<path d="M32 28 L32 28 L31 28 L31 28 L31 29 L30 30 L30 29 L30 30 L30 30 L30 30 L30 30 L29 30 L29 30 L30 29 L29 29 L29 29 L28 29 L28 29 L28 29 L28 29 L28 29 L28 30 L28 30 L28 30 L28 31 L28 31 L27 31 L27 31 L26 32 L26 32 L25 33 L25 33 L25 34 L25 34 L25 35 L25 35 L24 35 L25 35 L24 36 L24 36 L23 36 L23 35 L23 34 L23 33 L22 33 L22 31 L21 31 L21 31 L21 30 L21 30 L21 30 L20 30 L20 29 L21 29 L21 29 L21 28 L21 28 L22 28 L23 27 L23 26 L23 26 L23 26 L22 25 L23 25 L24 25 L24 25 L24 25 L24 26 L25 26 L25 26 L24 26 L24 27 L25 27 L25 27 L25 28 L26 28 L27 28 L27 28 L28 29 L28 28 L28 28 L28 28 L29 28 L30 28 L30 28 L29 28 L30 28 L31 27 L31 28 L31 27 L31 28 L31 28 L32 28 Z" fill="#444444" stroke="#222222" stroke-width="0.3"/>
<path d="M30 30 L30 31 L30 31 L30 31 L29 30 L29 30 L29 30 L28 30 L28 30 L28 29 L28 29 L28 29 L28 29 L28 29 L29 29 L29 29 L30 29 L29 30 L29 30 L30 30 L30 30 Z" fill="#444444" stroke="#222222" stroke-width="0.3"/>
<path d="M29 28 L30 28 L30 28 L29 28 L28 28 L29 28 L29 28 Z" fill="#444444" stroke="#222222" stroke-width="0.3"/>
<path d="M28 28 L28 29 L28 29 L27 28 L27 28 L26 28 L25 28 L25 27 L25 27 L27 28 L28 28 Z" fill="#444444" stroke="#222222" stroke-width="0.3"/>
<path d="M24 25 L24 25 L23 25 L22 25 L23 26 L23 26 L23 26 L23 27 L22 28 L21 28 L21 28 L21 29 L21 29 L20 29 L20 30 L20 30 L19 29 L17 29 L18 29 L18 28 L18 28 L18 28 L18 28 L18 28 L17 27 L18 27 L19 27 L19 27 L19 27 L20 27 L21 26 L21 26 L21 26 L21 26 L21 26 L21 26 L21 25 L21 25 L22 25 L23 24 L23 24 L23 25 L24 25 Z" fill="#444444" stroke="#222222" stroke-width="0.3"/>
<path d="M19 24 L20 24 L20 24 L21 24 L21 24 L21 24 L21 24 L21 24 L21 24 L22 24 L22 24 L23 24 L23 24 L22 25 L21 25 L21 25 L21 26 L21 26 L21 26 L21 26 L21 26 L21 26 L20 27 L19 27 L19 27 L19 27 L18 27 L17 27 L18 27 L18 27 L17 27 L17 26 L17 26 L17 26 L17 25 L18 25 L18 25 L18 25 L19 25 L19 24 L19 24 L19 24 Z" fill="#444444" stroke="#222222" stroke-width="0.3"/>
<path d="M20 24 L20 24 L20 24 L20 23 L20 23 L20 23 L21 23 L21 23 L21 23 L21 23 L21 23 L21 23 L21 23 L22 23 L22 24 L23 24 L23 24 L22 24 L22 24 L21 24 L21 24 L21 24 L21 24 L21 24 L21 24 L20 24 Z" fill="#444444" stroke="#222222" stroke-width="0.3"/>
<path d="M21 22 L21 22 L22 22 L22 22 L22 22 L23 22 L23 22 L24 22 L25 22 L24 23 L24 23 L23 23 L23 23 L22 23 L22 23 L22 23 L21 23 L21 23 L22 23 L22 23 L22 23 L21 23 L21 23 L21 22 L21 22 Z" fill="#444444" stroke="#222222" stroke-width="0.3"/>
<path d="M14 22 L15 22 L15 23 L16 23 L16 22 L16 22 L17 22 L17 23 L17 23 L18 23 L18 23 L19 24 L19 24 L19 24 L19 24 L19 24 L19 24 L19 25 L18 25 L17 25 L17 25 L17 25 L17 24 L16 24 L15 24 L15 24 L14 24 L14 24 L14 23 L14 23 L14 23 L14 23 L14 23 L15 23 L14 22 L14 22 L14 23 L14 22 Z" fill="#444444" stroke="#222222" stroke-width="0.3"/>
<path d="M12 27 L12 27 L12 27 L12 27 L12 26 L12 26 L11 26 L11 26 L11 25 L11 25 L11 25 L11 25 L11 24 L11 24 L11 23 L11 23 L11 24 L11 24 L12 23 L12 23 L12 24 L12 24 L13 24 L13 24 L14 24 L14 24 L15 24 L16 24 L17 24 L17 25 L17 25 L17 25 L17 26 L17 26 L17 26 L17 27 L18 27 L18 27 L17 27 L18 28 L18 28 L18 28 L18 28 L18 28 L18 29 L17 29 L16 29 L16 28 L15 28 L15 29 L14 28 L14 28 L14 28 L13 27 L13 27 L12 27 L12 27 Z" fill="#444444" stroke="#222222" stroke-width="0.3"/>
<path d="M7 26 L7 26 L8 25 L8 25 L7 25 L7 25 L8 25 L8 24 L9 24 L10 24 L9 25 L9 25 L8 26 L7 26 Z" fill="#444444" stroke="#222222" stroke-width="0.3"/>
<path d="M12 24 L11 24 L11 23 L10 23 L10 23 L11 23 L11 23 L11 23 L11 23 L11 23 L12 23 L12 24 Z" fill="#444444" stroke="#222222" stroke-width="0.3"/>
<path d="M11 24 L11 24 L10 24 L9 24 L8 24 L8 25 L7 25 L7 25 L7 24 L7 24 L7 25 L6 25 L6 24 L5 24 L5 25 L5 25 L4 24 L4 24 L3 24 L4 24 L3 23 L4 23 L4 23 L5 23 L5 23 L6 22 L7 22 L8 23 L9 23 L10 23 L10 23 L10 23 L10 23 L11 23 L11 23 L11 24 L11 24 L11 24 Z M3 22 L4 22 L4 22 L4 23 L5 23 L4 23 L4 23 L4 23 L3 23 L4 23 L3 22 Z" fill="#444444" stroke="#222222" stroke-width="0.3"/>
<path d="M51 55 L52 55 L52 56 L52 56 L52 56 L51 56 L51 56 L51 55 L51 55 L51 55 Z M43 52 L42 52 L42 53 L41 53 L40 53 L39 53 L39 53 L39 52 L39 52 L39 52 L39 51 L38 49 L38 50 L38 49 L38 50 L38 49 L38 48 L38 48 L38 48 L38 48 L39 48 L39 47 L40 47 L40 47 L41 47 L42 46 L42 46 L42 46 L42 46 L42 46 L42 46 L42 45 L42 46 L42 45 L43 45 L43 45 L43 45 L44 45 L44 45 L45 45 L44 45 L45 44 L45 44 L45 44 L45 44 L46 44 L46 44 L45 44 L46 43 L47 44 L47 44 L47 44 L47 44 L47 44 L47 45 L47 45 L49 46 L49 46 L49 46 L49 45 L49 44 L50 43 L50 44 L50 45 L50 45 L51 45 L51 46 L51 47 L52 47 L52 47 L53 48 L53 48 L53 48 L53 48 L53 48 L54 49 L54 50 L54 50 L54 52 L54 52 L53 52 L53 53 L53 54 L52 54 L52 54 L51 55 L51 54 L51 54 L50 54 L49 54 L49 54 L49 53 L48 53 L48 53 L48 53 L48 53 L48 53 L47 53 L48 52 L48 52 L47 53 L47 53 L47 53 L47 53 L46 52 L46 52 L45 52 L43 52 Z" fill="#444444" stroke="#222222" stroke-width="0.3"/>
<path d="M26 36 L25 36 L25 37 L25 36 L25 36 L25 35 L25 35 L26 36 Z" fill="#444444" stroke="#222222" stroke-width="0.3"/>
<path d="M37 32 L36 32 L36 31 L36 31 L37 31 L37 31 L37 32 L37 32 Z M25 22 L25 22 L25 22 L25 21 L26 21 L26 20 L27 20 L27 20 L27 20 L27 20 L28 19 L28 20 L29 20 L29 20 L29 21 L29 21 L30 21 L31 21 L31 22 L33 22 L35 23 L35 22 L36 22 L37 22 L37 21 L37 21 L38 21 L39 21 L40 21 L41 20 L41 20 L40 20 L40 20 L39 20 L39 20 L39 19 L40 19 L40 19 L40 19 L41 18 L41 18 L41 18 L41 18 L42 18 L42 18 L43 18 L44 19 L44 19 L45 20 L45 20 L46 20 L47 20 L46 21 L45 21 L45 21 L45 22 L45 22 L45 22 L45 22 L45 22 L45 22 L44 22 L44 23 L43 22 L42 23 L41 24 L41 23 L41 23 L42 23 L41 23 L41 23 L40 23 L40 23 L40 24 L40 24 L40 24 L40 24 L41 24 L41 24 L42 24 L42 24 L41 24 L40 25 L41 25 L41 26 L41 27 L41 27 L41 27 L42 27 L41 28 L41 28 L40 29 L39 30 L39 30 L38 30 L38 30 L38 30 L37 31 L37 31 L37 31 L37 31 L37 31 L36 30 L35 30 L35 30 L35 30 L35 30 L34 30 L33 30 L33 31 L33 31 L33 30 L33 30 L32 30 L33 30 L32 30 L32 29 L32 30 L32 29 L32 29 L32 28 L32 28 L31 28 L31 28 L31 27 L31 28 L31 27 L30 28 L29 28 L29 28 L28 28 L28 28 L28 28 L27 28 L27 28 L26 27 L26 27 L25 27 L25 27 L24 27 L24 26 L25 26 L25 26 L24 26 L24 25 L24 25 L23 25 L23 24 L23 24 L23 24 L22 24 L22 23 L22 23 L22 23 L23 23 L23 23 L24 23 L24 23 L25 22 Z" fill="#444444" stroke="#222222" stroke-width="0.3"/>
<path d="M42 29 L41 30 L41 30 L41 30 L41 29 L42 29 Z" fill="#444444" stroke="#222222" stroke-width="0.3"/>
<path d="M11 22 L12 23 L12 22 L13 23 L13 23 L13 23 L12 24 L12 24 L12 23 L12 23 L12 24 L12 23 L11 23 L11 23 L11 23 L12 23 L11 22 L11 22 Z M11 24 L11 24 L11 23 L11 23 L11 24 Z" fill="#444444" stroke="#222222" stroke-width="0.3"/>
<path d="M9 22 L10 22 L10 22 L11 22 L11 22 L11 22 L12 23 L11 23 L10 23 L10 23 L10 23 L10 22 L9 22 Z" fill="#444444" stroke="#222222" stroke-width="0.3"/>
<path d="M41 34 L41 34 L41 34 L41 34 L41 34 Z M42 35 L42 35 L42 35 L42 35 L42 35 L42 35 L42 35 L42 35 Z M43 35 L43 36 L43 37 L43 36 L43 36 L43 37 L43 37 L42 37 L42 36 L42 36 L42 36 L42 36 L41 36 L42 36 L42 36 L42 36 L43 36 L43 35 L43 35 L43 35 L43 35 Z M41 35 L40 36 L41 35 L41 35 Z M42 32 L42 32 L42 32 L42 33 L41 33 L41 33 L42 33 L42 34 L42 34 L42 34 L42 34 L42 34 L41 34 L41 33 L41 33 L41 33 L41 33 L41 33 L41 33 L41 32 L42 32 L42 32 Z M42 35 L41 34 L42 34 L42 35 L42 35 Z M43 34 L43 35 L43 35 L43 35 L43 35 L43 35 L43 35 L42 34 L43 35 L43 34 L42 34 L43 34 Z" fill="#444444" stroke="#222222" stroke-width="0.3"/>
<path d="M33 37 L33 36 L33 37 L33 37 L34 37 L34 37 L34 37 L34 37 L34 38 L34 39 L34 39 L33 38 L33 37 Z M40 37 L39 37 L39 38 L38 39 L38 38 L37 39 L37 39 L37 39 L37 38 L37 38 L37 38 L37 38 L38 38 L38 37 L39 37 L39 37 L39 37 L39 37 L39 36 L40 36 L40 37 L40 37 L40 37 L40 37 L40 37 L40 37 Z" fill="#444444" stroke="#222222" stroke-width="0.3"/>
<path d="M39 37 L39 37 L39 37 L39 37 L38 37 L39 37 Z" fill="#444444" stroke="#222222" stroke-width="0.3"/>
<path d="M49 23 L49 24 L49 24 L49 25 L49 25 L49 25 L48 25 L48 25 L47 26 L47 26 L47 25 L45 26 L45 26 L45 27 L45 27 L45 27 L45 26 L45 26 L44 26 L45 26 L46 25 L47 25 L47 25 L47 24 L48 24 L48 24 L49 23 L49 23 L49 23 L49 23 L49 23 L49 23 Z M51 22 L51 21 L51 22 L50 22 L50 22 L49 22 L49 23 L49 23 L49 22 L49 22 L49 22 L49 21 L50 21 L51 22 Z M46 26 L46 26 L46 26 L46 25 L47 25 L47 26 L46 26 L46 26 L46 26 L46 26 L46 26 L46 26 Z" fill="#444444" stroke="#222222" stroke-width="0.3"/>
<path d="M14 32 L14 32 L14 33 L14 33 L13 33 L12 33 L11 34 L11 34 L10 34 L10 33 L10 32 L10 32 L12 32 L12 32 L12 32 L12 32 L13 32 L14 32 Z" fill="#444444" stroke="#222222" stroke-width="0.3"/>
<path d="M7 27 L7 27 L8 27 L8 27 L8 27 L8 27 L9 26 L10 27 L11 27 L12 28 L12 28 L12 28 L12 28 L13 28 L13 29 L13 29 L13 29 L14 30 L15 30 L15 30 L15 30 L15 31 L14 32 L13 32 L12 32 L12 32 L12 32 L12 32 L10 32 L10 32 L10 32 L10 33 L9 31 L9 31 L9 31 L9 30 L8 30 L8 29 L8 29 L7 28 L7 28 L7 27 Z" fill="#444444" stroke="#222222" stroke-width="0.3"/>
<path d="M6 25 L6 25 L7 25 L7 25 L6 25 Z" fill="#444444" stroke="#222222" stroke-width="0.3"/>
<path d="M6 25 L6 25 L7 25 L6 25 L6 25 Z" fill="#444444" stroke="#222222" stroke-width="0.3"/>
</svg>