<svg xmlns="http://www.w3.org/2000/svg" viewBox="0 0 80 80" width="80" height="80">
<path d="M118 57 L125 61 L125 62 L128 64 L127 66 L127 67 L129 68 L128 71 L130 75 L129 76 L123 78 L119 77 L118 75 L117 73 L111 71 L110 69 L109 67 L109 64 L110 63 L112 61 L111 59 L112 59 L112 58 L111 57 L118 57 Z" fill="#444444" stroke="#222222" stroke-width="0.3"/>
<path d="M34 0 L34 4 L27 4 L27 9 L26 9 L25 10 L26 13 L18 13 L17 13 L17 12 L22 12 L24 8 L26 6 L27 3 L28 3 L29 2 L34 1 L34 0 Z" fill="#444444" stroke="#222222" stroke-width="0.3"/>
<path d="M108 60 L109 67 L110 69 L111 71 L108 71 L107 73 L107 74 L107 78 L109 79 L109 79 L109 81 L108 81 L106 79 L105 79 L104 77 L103 78 L102 78 L101 77 L99 77 L99 76 L95 76 L94 69 L91 69 L92 68 L91 68 L89 69 L88 70 L85 71 L83 66 L75 67 L75 66 L76 64 L78 64 L79 64 L80 64 L82 62 L82 60 L83 58 L86 55 L87 46 L89 45 L95 47 L96 45 L97 46 L99 45 L100 45 L101 44 L105 44 L106 46 L107 46 L109 46 L112 48 L112 50 L112 50 L110 53 L108 60 Z" fill="#444444" stroke="#222222" stroke-width="0.3"/>
<path d="M133 58 L132 56 L132 49 L134 46 L135 46 L137 45 L139 45 L147 36 L147 32 L152 31 L151 34 L150 37 L147 44 L143 49 L136 54 L133 58 Z" fill="#444444" stroke="#222222" stroke-width="0.3"/>
<path d="M128 64 L125 62 L125 61 L118 57 L118 54 L120 51 L118 46 L120 44 L121 44 L121 45 L122 46 L124 46 L126 48 L129 48 L131 46 L132 47 L133 47 L132 49 L132 56 L133 58 L130 60 L129 63 L128 64 Z" fill="#444444" stroke="#222222" stroke-width="0.3"/>
<path d="M99 38 L98 38 L97 37 L97 35 L96 34 L95 30 L94 30 L95 27 L95 26 L96 24 L98 24 L98 15 L100 15 L100 11 L124 11 L125 18 L127 19 L124 21 L122 28 L119 33 L118 34 L118 38 L117 34 L116 34 L116 31 L115 31 L114 31 L115 33 L113 35 L112 36 L110 34 L108 36 L104 36 L102 34 L100 34 L99 37 L98 38 L99 38 Z" fill="#444444" stroke="#222222" stroke-width="0.3"/>
<path d="M98 16 L98 24 L96 24 L95 26 L95 27 L94 30 L95 30 L96 33 L94 34 L92 36 L90 37 L88 37 L88 38 L86 39 L81 40 L81 40 L80 37 L78 36 L79 35 L81 35 L80 33 L80 28 L78 28 L78 27 L78 26 L78 24 L81 22 L82 15 L81 13 L80 10 L82 9 L98 16 Z" fill="#444444" stroke="#222222" stroke-width="0.3"/>
<path d="M83 111 L84 110 L85 111 L87 112 L90 111 L90 103 L92 106 L92 107 L94 107 L97 104 L99 105 L101 105 L102 103 L103 103 L104 101 L109 98 L112 98 L114 103 L114 106 L112 105 L111 107 L113 108 L114 108 L114 107 L116 107 L114 111 L107 119 L102 121 L95 121 L90 123 L87 122 L86 119 L87 118 L87 117 L83 111 Z" fill="#444444" stroke="#222222" stroke-width="0.3"/>
<path d="M107 111 L109 112 L108 114 L106 115 L106 115 L104 113 L106 111 L107 111 Z" fill="#444444" stroke="#222222" stroke-width="0.3"/>
<path d="M112 98 L109 98 L106 97 L106 95 L102 93 L101 90 L104 90 L108 86 L111 85 L111 86 L112 86 L116 88 L115 95 L112 98 Z" fill="#444444" stroke="#222222" stroke-width="0.3"/>
<path d="M109 98 L104 101 L103 103 L102 103 L101 105 L99 105 L97 104 L94 107 L92 107 L92 106 L90 103 L90 98 L92 98 L92 91 L97 90 L97 91 L101 90 L102 93 L106 95 L106 97 L109 98 Z" fill="#444444" stroke="#222222" stroke-width="0.3"/>
<path d="M90 98 L90 111 L87 112 L85 111 L84 110 L83 111 L81 108 L79 98 L74 90 L74 89 L77 88 L79 89 L87 89 L88 90 L93 90 L98 89 L100 89 L97 91 L97 90 L92 91 L92 98 L90 98 Z" fill="#444444" stroke="#222222" stroke-width="0.3"/>
<path d="M18 28 L16 26 L17 25 L19 22 L22 22 L25 23 L27 26 L28 30 L20 30 L18 30 L18 29 L24 28 L23 28 L22 28 L21 27 L18 28 Z" fill="#444444" stroke="#222222" stroke-width="0.3"/>
<path d="M28 31 L27 26 L28 24 L30 25 L32 24 L40 24 L41 23 L38 6 L41 6 L55 14 L55 15 L57 16 L57 17 L59 17 L59 21 L58 24 L54 24 L53 25 L49 25 L45 28 L43 28 L41 32 L40 34 L39 35 L39 34 L38 35 L35 35 L35 33 L34 33 L35 32 L33 30 L31 31 L29 31 L28 31 Z" fill="#444444" stroke="#222222" stroke-width="0.3"/>
<path d="M17 13 L18 13 L26 13 L25 10 L26 9 L27 9 L27 4 L34 4 L34 1 L41 6 L38 6 L41 23 L40 24 L32 24 L30 25 L28 24 L27 26 L25 23 L22 22 L19 22 L19 23 L19 19 L19 15 L17 13 Z" fill="#444444" stroke="#222222" stroke-width="0.3"/>
<path d="M56 42 L55 43 L54 37 L53 34 L54 32 L57 31 L58 32 L58 34 L58 35 L56 38 L56 42 Z" fill="#444444" stroke="#222222" stroke-width="0.3"/>
<path d="M80 10 L81 13 L82 15 L81 22 L78 24 L78 26 L78 27 L78 28 L80 28 L79 30 L77 28 L75 29 L73 28 L69 29 L66 28 L64 29 L62 27 L59 28 L58 32 L57 31 L55 31 L55 30 L53 29 L52 27 L52 25 L58 24 L59 21 L59 17 L62 16 L75 8 L78 9 L79 10 L80 10 Z" fill="#444444" stroke="#222222" stroke-width="0.3"/>
<path d="M56 42 L56 38 L58 35 L58 30 L60 28 L62 27 L64 29 L66 28 L69 29 L73 28 L75 29 L77 28 L80 31 L78 33 L74 41 L73 42 L71 41 L69 42 L68 45 L63 46 L59 42 L56 42 Z" fill="#444444" stroke="#222222" stroke-width="0.3"/>
<path d="M80 29 L80 31 L80 33 L81 35 L79 35 L78 36 L80 37 L81 40 L80 42 L79 45 L82 49 L82 51 L79 50 L70 50 L70 49 L68 46 L68 44 L69 42 L71 41 L73 42 L74 41 L78 33 L79 32 L80 31 L79 30 L80 29 Z" fill="#444444" stroke="#222222" stroke-width="0.3"/>
<path d="M53 33 L53 34 L54 37 L55 43 L53 43 L52 41 L52 38 L52 35 L51 34 L51 33 L53 33 Z" fill="#444444" stroke="#222222" stroke-width="0.3"/>
<path d="M51 33 L52 38 L52 41 L53 43 L47 45 L45 45 L45 42 L46 38 L45 33 L51 33 Z" fill="#444444" stroke="#222222" stroke-width="0.3"/>
<path d="M35 35 L38 35 L39 34 L39 35 L40 34 L42 36 L44 35 L45 36 L46 38 L45 42 L45 45 L42 44 L36 46 L36 43 L34 42 L35 38 L36 38 L35 35 L35 35 Z" fill="#cc3333" stroke="#222222" stroke-width="0.3"/>
<path d="M24 30 L28 30 L28 31 L29 31 L31 31 L33 30 L35 32 L34 33 L35 33 L35 35 L35 35 L36 38 L35 38 L35 40 L33 40 L32 38 L30 38 L30 36 L29 35 L27 35 L25 37 L21 33 L22 32 L24 31 L24 30 Z" fill="#444444" stroke="#222222" stroke-width="0.3"/>
<path d="M18 30 L24 30 L24 31 L22 32 L21 33 L19 32 L18 30 Z" fill="#444444" stroke="#222222" stroke-width="0.3"/>
<path d="M34 40 L34 42 L36 43 L36 46 L33 45 L28 41 L31 38 L32 38 L33 40 L34 40 Z" fill="#444444" stroke="#222222" stroke-width="0.3"/>
<path d="M25 37 L27 35 L29 35 L30 36 L30 38 L31 38 L28 41 L26 39 L25 37 Z" fill="#444444" stroke="#222222" stroke-width="0.3"/>
<path d="M40 34 L41 32 L42 30 L43 29 L45 28 L49 25 L52 25 L52 27 L53 29 L55 30 L55 32 L53 33 L45 33 L45 36 L44 35 L42 36 L40 34 Z" fill="#444444" stroke="#222222" stroke-width="0.3"/>
<path d="M105 44 L101 44 L100 45 L99 45 L97 46 L96 45 L95 47 L89 45 L87 46 L87 48 L85 47 L82 50 L82 49 L79 45 L79 44 L80 42 L81 40 L86 39 L88 38 L88 37 L90 37 L92 36 L94 34 L96 33 L97 35 L97 37 L100 39 L103 43 L105 44 Z" fill="#444444" stroke="#222222" stroke-width="0.3"/>
<path d="M87 48 L86 55 L83 58 L82 60 L82 62 L80 64 L79 64 L78 64 L77 64 L76 63 L74 65 L73 62 L74 61 L74 60 L76 59 L76 58 L77 59 L79 60 L79 57 L79 56 L78 55 L79 52 L77 52 L77 50 L82 51 L84 48 L85 47 L87 48 Z" fill="#444444" stroke="#222222" stroke-width="0.3"/>
<path d="M73 50 L76 50 L77 52 L79 52 L78 55 L79 56 L79 57 L79 60 L77 59 L76 58 L76 59 L74 60 L74 61 L73 62 L68 57 L70 53 L73 53 L73 50 Z" fill="#444444" stroke="#222222" stroke-width="0.3"/>
<path d="M70 50 L73 50 L73 53 L70 53 L69 52 L70 50 Z" fill="#444444" stroke="#222222" stroke-width="0.3"/>
<path d="M111 71 L116 74 L117 75 L116 77 L117 79 L115 82 L116 82 L110 84 L111 85 L108 86 L104 90 L101 90 L100 89 L97 89 L94 86 L94 80 L98 80 L98 76 L99 76 L99 77 L101 77 L102 78 L103 78 L104 77 L105 79 L106 79 L108 81 L109 81 L109 79 L109 79 L107 78 L107 74 L107 73 L108 71 L111 71 Z" fill="#444444" stroke="#222222" stroke-width="0.3"/>
<path d="M115 73 L117 73 L118 75 L119 81 L120 82 L121 83 L121 86 L121 86 L120 88 L119 86 L119 83 L115 82 L117 79 L116 77 L117 75 L115 73 Z" fill="#444444" stroke="#222222" stroke-width="0.3"/>
<path d="M119 77 L125 77 L129 76 L130 75 L131 84 L129 88 L125 89 L119 94 L119 95 L121 98 L121 102 L116 105 L115 105 L116 106 L116 107 L114 107 L113 105 L114 103 L112 98 L115 95 L116 88 L112 86 L111 86 L110 84 L116 82 L119 83 L119 86 L120 88 L121 86 L121 86 L121 83 L120 82 L119 81 L118 79 L119 77 Z" fill="#444444" stroke="#222222" stroke-width="0.3"/>
<path d="M114 107 L114 108 L113 108 L111 107 L112 105 L114 106 L114 107 Z" fill="#444444" stroke="#222222" stroke-width="0.3"/>
<path d="M77 64 L76 64 L75 66 L74 65 L76 63 L77 64 Z M75 67 L83 66 L85 71 L88 70 L89 69 L91 68 L92 68 L91 69 L94 69 L95 76 L97 76 L98 76 L98 77 L98 80 L94 80 L94 86 L97 89 L93 90 L88 90 L87 89 L79 89 L77 88 L74 89 L75 83 L78 78 L78 77 L76 73 L77 71 L75 67 Z" fill="#444444" stroke="#222222" stroke-width="0.3"/>
<path d="M111 59 L112 61 L110 63 L109 64 L108 60 L109 60 L110 59 L111 59 Z" fill="#444444" stroke="#222222" stroke-width="0.3"/>
<path d="M148 78 L149 81 L150 86 L150 86 L149 85 L149 86 L149 88 L144 104 L140 105 L138 104 L136 99 L136 97 L137 96 L138 93 L138 89 L138 87 L142 86 L145 83 L145 82 L145 82 L146 82 L148 78 Z" fill="#444444" stroke="#222222" stroke-width="0.3"/>
<path d="M18 28 L21 27 L22 28 L23 28 L24 28 L18 29 L18 28 Z" fill="#444444" stroke="#222222" stroke-width="0.3"/>
<path d="M70 -5 L69 -9 L66 -11 L66 -12 L67 -14 L68 -18 L70 -19 L71 -19 L71 -18 L73 -18 L72 -17 L72 -16 L73 -16 L72 -14 L71 -13 L71 -12 L72 -12 L74 -11 L73 -9 L71 -7 L71 -5 L70 -5 Z" fill="#444444" stroke="#222222" stroke-width="0.3"/>
<path d="M34 1 L34 -2 L41 -4 L41 -5 L44 -6 L44 -8 L48 -9 L49 -10 L47 -15 L49 -16 L54 -17 L61 -18 L63 -18 L68 -18 L67 -14 L66 -12 L66 -11 L69 -9 L70 -3 L70 2 L69 3 L71 7 L72 6 L75 8 L62 16 L57 17 L57 16 L55 15 L55 14 L34 1 Z" fill="#444444" stroke="#222222" stroke-width="0.3"/>
<path d="M123 26 L124 21 L127 19 L128 23 L136 30 L134 30 L131 27 L130 26 L128 26 L127 26 L126 25 L125 27 L123 26 Z" fill="#444444" stroke="#222222" stroke-width="0.3"/>
<path d="M47 -15 L49 -10 L48 -9 L44 -8 L44 -6 L41 -5 L41 -4 L34 -2 L34 1 L29 2 L26 6 L24 8 L22 12 L17 12 L20 8 L21 6 L23 3 L24 2 L26 -1 L28 -1 L32 -4 L32 -7 L33 -9 L34 -11 L37 -12 L39 -16 L41 -16 L42 -15 L47 -15 Z" fill="#444444" stroke="#222222" stroke-width="0.3"/>
<path d="M124 11 L100 11 L100 -3 L100 -4 L100 -7 L101 -7 L103 -8 L108 -6 L112 -7 L113 -7 L114 -6 L114 -7 L117 -6 L118 -7 L120 -3 L118 -0 L118 0 L116 -1 L115 -4 L118 3 L121 8 L121 9 L124 11 Z" fill="#444444" stroke="#222222" stroke-width="0.3"/>
<path d="M100 -3 L100 15 L98 15 L98 16 L82 9 L79 10 L78 9 L75 8 L72 6 L71 7 L69 3 L70 2 L70 -2 L70 -5 L71 -5 L71 -7 L73 -9 L74 -11 L81 -9 L82 -7 L89 -5 L90 -6 L90 -8 L92 -10 L96 -10 L97 -9 L100 -8 L101 -7 L100 -7 L100 -4 L100 -3 Z" fill="#444444" stroke="#222222" stroke-width="0.3"/>
<path d="M145 39 L139 45 L137 45 L133 47 L132 47 L131 46 L129 48 L126 48 L124 46 L122 46 L121 45 L121 44 L120 44 L119 42 L117 39 L116 39 L117 38 L118 38 L118 34 L122 30 L123 26 L125 27 L126 25 L127 26 L128 26 L130 26 L133 28 L134 30 L133 32 L133 33 L135 33 L135 34 L137 37 L143 39 L145 39 Z" fill="#444444" stroke="#222222" stroke-width="0.3"/>
<path d="M134 30 L136 30 L136 30 L136 31 L135 32 L136 32 L135 33 L133 33 L133 32 L134 30 Z" fill="#444444" stroke="#222222" stroke-width="0.3"/>
<path d="M147 32 L147 36 L145 39 L143 39 L137 37 L135 34 L136 32 L138 34 L147 32 Z" fill="#444444" stroke="#222222" stroke-width="0.3"/>
<path d="M118 57 L112 57 L109 57 L110 53 L112 50 L112 50 L112 48 L112 47 L114 48 L117 47 L118 46 L119 48 L120 51 L118 54 L118 57 Z" fill="#444444" stroke="#222222" stroke-width="0.3"/>
<path d="M111 57 L112 58 L112 59 L110 59 L109 60 L108 60 L109 58 L111 57 Z" fill="#444444" stroke="#222222" stroke-width="0.3"/>
<path d="M112 48 L109 46 L106 46 L105 44 L103 43 L103 42 L100 40 L100 39 L98 38 L99 37 L100 34 L102 34 L104 36 L108 36 L110 34 L112 36 L113 35 L115 33 L114 31 L116 31 L116 34 L117 34 L118 38 L118 38 L117 38 L116 39 L117 39 L118 40 L120 44 L117 47 L114 48 L112 47 L112 48 Z" fill="#444444" stroke="#222222" stroke-width="0.3"/>
</svg>