<svg xmlns="http://www.w3.org/2000/svg" viewBox="0 0 80 80" width="80" height="80">
<path d="M-218 -135 L-61 -135 L-61 -138 L-59 -138 L-57 -134 L-41 -131 L-28 -130 L-23 -132 L-3 -124 L-2 -121 L1 -121 L5 -118 L4 -117 L10 -115 L12 -105 L7 -96 L9 -94 L31 -101 L29 -104 L32 -105 L43 -105 L54 -113 L73 -113 L77 -115 L86 -127 L94 -124 L94 -117 L98 -112 L81 -105 L77 -101 L77 -98 L78 -95 L81 -95 L80 -97 L82 -95 L81 -94 L60 -90 L70 -90 L59 -89 L57 -87 L59 -87 L58 -83 L53 -78 L50 -82 L53 -75 L48 -69 L49 -73 L46 -75 L45 -80 L44 -77 L45 -74 L42 -74 L45 -73 L49 -59 L45 -55 L30 -48 L17 -36 L17 -28 L24 -10 L22 -1 L18 -1 L15 -4 L8 -16 L9 -20 L3 -27 L1 -28 L-4 -26 L-12 -30 L-30 -29 L-28 -24 L-29 -23 L-37 -23 L-41 -26 L-50 -27 L-59 -25 L-73 -15 L-74 -9 L-73 -4 L-75 -4 L-83 -7 L-86 -14 L-94 -24 L-98 -26 L-103 -26 L-107 -22 L-111 -24 L-114 -25 L-117 -31 L-126 -38 L-136 -38 L-136 -35 L-151 -35 L-173 -42 L-172 -43 L-186 -42 L-187 -45 L-194 -51 L-206 -54 L-206 -57 L-212 -63 L-216 -72 L-223 -78 L-224 -83 L-227 -86 L-226 -96 L-228 -100 L-224 -116 L-225 -123 L-229 -131 L-228 -132 L-220 -130 L-217 -125 L-216 -126 L-218 -135 Z M-406 27 L-400 32 L-405 35 L-407 31 L-406 27 Z M-406 25 L-409 26 L-410 24 L-410 23 L-406 25 Z M-413 22 L-411 23 L-414 23 L-413 22 Z M-418 19 L-416 21 L-416 22 L-418 22 L-419 20 L-418 19 Z M-425 16 L-426 18 L-428 17 L-427 16 L-425 16 Z M-471 -199 L-461 -199 L-461 -197 L-464 -196 L-471 -199 Z M-391 -186 L-384 -184 L-395 -179 L-398 -181 L-399 -183 L-391 -186 Z M-321 -253 L-321 -200 L-310 -198 L-301 -192 L-290 -197 L-278 -189 L-269 -178 L-259 -175 L-259 -171 L-262 -168 L-270 -172 L-272 -177 L-279 -182 L-282 -187 L-297 -188 L-315 -195 L-330 -198 L-338 -198 L-356 -203 L-362 -202 L-361 -198 L-382 -193 L-383 -196 L-380 -202 L-374 -204 L-376 -205 L-395 -194 L-391 -191 L-396 -187 L-408 -183 L-410 -181 L-418 -178 L-420 -175 L-446 -168 L-457 -167 L-439 -175 L-432 -175 L-422 -181 L-416 -184 L-412 -192 L-421 -191 L-424 -189 L-427 -192 L-429 -190 L-431 -193 L-440 -190 L-440 -196 L-443 -198 L-451 -197 L-459 -201 L-459 -204 L-464 -206 L-462 -210 L-455 -216 L-446 -215 L-442 -218 L-433 -219 L-434 -222 L-438 -223 L-433 -225 L-445 -222 L-457 -223 L-465 -224 L-475 -230 L-454 -235 L-450 -235 L-451 -232 L-439 -232 L-460 -243 L-467 -245 L-464 -248 L-454 -248 L-447 -251 L-446 -254 L-440 -256 L-418 -259 L-410 -262 L-401 -261 L-397 -258 L-385 -259 L-385 -258 L-377 -257 L-344 -254 L-336 -255 L-321 -253 Z M-496 -219 L-489 -219 L-478 -217 L-483 -215 L-490 -217 L-495 -217 L-496 -219 Z" fill="#444444" stroke="#222222" stroke-width="0.3"/>
<path d="M72 31 L72 36 L70 37 L72 40 L59 40 L56 38 L56 37 L66 38 L68 36 L65 32 L62 31 L63 29 L72 31 Z" fill="#444444" stroke="#222222" stroke-width="0.3"/>
<path d="M73 43 L70 37 L72 30 L81 31 L83 33 L86 33 L85 35 L91 37 L89 39 L81 38 L78 39 L77 38 L73 43 Z" fill="#444444" stroke="#222222" stroke-width="0.3"/>
<path d="M30 -10 L37 -10 L37 -8 L31 -7 L30 -10 Z M37 -11 L42 -8 L41 -4 L40 -8 L37 -11 Z M35 -1 L36 -0 L38 8 L37 8 L34 3 L35 -1 Z" fill="#444444" stroke="#222222" stroke-width="0.3"/>
<path d="M-186 -42 L-172 -43 L-173 -42 L-151 -35 L-136 -35 L-136 -38 L-126 -38 L-117 -31 L-114 -25 L-111 -24 L-107 -22 L-103 -26 L-98 -26 L-94 -24 L-86 -14 L-83 -7 L-73 -4 L-76 5 L-77 15 L-73 25 L-66 36 L-60 37 L-57 39 L-40 35 L-37 33 L-34 23 L-15 20 L-14 24 L-19 31 L-18 32 L-20 39 L-24 38 L-26 41 L-38 41 L-38 45 L-40 45 L-35 49 L-35 51 L-42 51 L-45 56 L-45 60 L-54 52 L-59 50 L-69 54 L-94 45 L-100 41 L-109 39 L-120 29 L-121 26 L-119 26 L-119 21 L-123 13 L-137 -0 L-141 -3 L-142 -8 L-148 -12 L-149 -16 L-152 -16 L-158 -22 L-163 -34 L-173 -38 L-174 -36 L-172 -29 L-155 -9 L-149 5 L-147 5 L-142 10 L-145 13 L-151 6 L-158 2 L-159 -5 L-174 -15 L-171 -15 L-169 -20 L-177 -25 L-186 -42 Z" fill="#444444" stroke="#222222" stroke-width="0.3"/>
<path d="M40 93 L40 97 L37 99 L37 101 L33 97 L35 95 L30 91 L22 95 L24 100 L19 101 L19 98 L16 99 L15 96 L9 95 L8 97 L8 89 L10 88 L12 91 L16 93 L27 88 L30 88 L40 93 Z" fill="#444444" stroke="#222222" stroke-width="0.3"/>
<path d="M10 88 L8 89 L9 92 L8 96 L5 94 L4 91 L-4 85 L-4 88 L-8 86 L-8 81 L-9 81 L-7 79 L2 82 L4 80 L10 88 Z" fill="#444444" stroke="#222222" stroke-width="0.3"/>
<path d="M4 80 L2 82 L-8 79 L-19 69 L-14 67 L-14 64 L-10 63 L-8 64 L-3 58 L-1 59 L7 57 L3 78 L4 80 Z" fill="#444444" stroke="#222222" stroke-width="0.3"/>
<path d="M7 57 L-1 59 L-3 58 L-8 64 L-10 63 L-14 64 L-14 67 L-17 69 L-20 66 L-20 64 L-24 64 L-29 61 L-27 57 L-20 52 L-4 52 L7 57 Z" fill="#444444" stroke="#222222" stroke-width="0.3"/>
<path d="M-29 61 L-24 64 L-19 64 L-20 68 L-33 64 L-29 61 Z" fill="#444444" stroke="#222222" stroke-width="0.3"/>
<path d="M-45 60 L-45 56 L-42 51 L-35 51 L-35 49 L-40 45 L-38 45 L-38 41 L-27 41 L-28 52 L-22 53 L-27 57 L-29 61 L-33 64 L-39 63 L-45 60 Z" fill="#444444" stroke="#222222" stroke-width="0.3"/>
<path d="M-27 41 L-24 38 L-21 38 L-23 49 L-26 52 L-28 52 L-27 41 Z" fill="#444444" stroke="#222222" stroke-width="0.3"/>
<path d="M98 37 L106 39 L105 40 L97 41 L98 37 Z" fill="#444444" stroke="#222222" stroke-width="0.3"/>
<path d="M34 39 L42 38 L46 41 L40 42 L34 39 Z" fill="#cc3333" stroke="#222222" stroke-width="0.3"/>
<path d="M12 11 L21 11 L29 15 L34 15 L44 22 L49 23 L49 25 L58 27 L53 29 L37 30 L41 27 L35 25 L32 20 L12 15 L14 14 L9 14 L2 18 L-4 18 L3 13 L12 11 Z" fill="#444444" stroke="#222222" stroke-width="0.3"/>
<path d="M128 81 L133 81 L133 85 L127 85 L128 81 Z" fill="#444444" stroke="#222222" stroke-width="0.3"/>
</svg>