<svg xmlns="http://www.w3.org/2000/svg" viewBox="0 0 80 80" width="80" height="80">
<path d="M-115 -65 L-21 -65 L-21 -67 L-20 -67 L-18 -64 L-9 -62 L-1 -62 L2 -63 L14 -58 L15 -57 L17 -57 L19 -55 L18 -54 L22 -53 L23 -47 L20 -42 L22 -40 L34 -44 L34 -46 L35 -47 L42 -47 L48 -52 L60 -52 L62 -53 L67 -60 L72 -59 L72 -54 L75 -51 L64 -47 L62 -44 L62 -43 L63 -41 L64 -41 L64 -42 L65 -41 L65 -40 L52 -38 L58 -38 L51 -37 L50 -36 L51 -36 L51 -34 L48 -31 L46 -33 L48 -29 L45 -25 L45 -28 L44 -29 L43 -32 L42 -30 L43 -28 L41 -29 L43 -28 L45 -20 L43 -17 L34 -13 L26 -6 L26 -1 L31 10 L29 16 L27 16 L25 13 L21 7 L22 4 L18 -0 L17 -1 L13 1 L9 -2 L-2 -1 L-1 2 L-1 2 L-6 2 L-9 0 L-14 0 L-19 1 L-28 7 L-28 11 L-28 13 L-29 14 L-34 12 L-36 8 L-41 1 L-43 0 L-46 0 L-48 3 L-51 2 L-52 1 L-54 -3 L-59 -7 L-65 -7 L-65 -5 L-75 -5 L-88 -9 L-87 -10 L-96 -9 L-96 -11 L-100 -14 L-107 -16 L-108 -18 L-111 -22 L-114 -27 L-118 -31 L-119 -34 L-120 -36 L-120 -41 L-121 -44 L-119 -53 L-119 -58 L-121 -63 L-121 -63 L-116 -62 L-114 -59 L-113 -60 L-115 -65 Z M-227 32 L-224 35 L-227 37 L-228 34 L-227 32 Z M-228 31 L-229 31 L-230 30 L-230 30 L-228 31 Z M-232 29 L-230 30 L-232 30 L-232 29 Z M-235 28 L-233 29 L-234 29 L-235 29 L-236 28 L-235 28 Z M-239 26 L-240 27 L-241 26 L-240 26 L-239 26 Z M-267 -103 L-261 -104 L-260 -102 L-262 -102 L-267 -103 Z M-218 -96 L-215 -94 L-221 -92 L-223 -92 L-223 -94 L-218 -96 Z M-177 -136 L-177 -104 L-170 -103 L-165 -99 L-158 -102 L-151 -97 L-145 -91 L-139 -89 L-139 -87 L-141 -85 L-146 -87 L-147 -90 L-151 -93 L-153 -96 L-162 -97 L-173 -101 L-182 -103 L-187 -103 L-198 -106 L-201 -105 L-201 -103 L-213 -100 L-214 -102 L-212 -105 L-209 -106 L-210 -107 L-221 -100 L-219 -99 L-222 -96 L-229 -94 L-230 -92 L-235 -91 L-236 -89 L-252 -85 L-258 -84 L-248 -89 L-243 -89 L-237 -93 L-234 -94 L-231 -99 L-236 -99 L-238 -97 L-240 -99 L-241 -98 L-243 -100 L-248 -98 L-248 -101 L-250 -103 L-254 -102 L-260 -104 L-260 -106 L-262 -108 L-261 -110 L-257 -113 L-252 -113 L-249 -115 L-244 -116 L-245 -117 L-247 -118 L-244 -119 L-251 -117 L-258 -118 L-263 -119 L-269 -122 L-257 -125 L-254 -125 L-254 -123 L-247 -123 L-260 -130 L-264 -131 L-263 -133 L-256 -133 L-252 -135 L-251 -136 L-248 -138 L-235 -140 L-230 -141 L-225 -141 L-222 -139 L-215 -140 L-215 -139 L-210 -138 L-190 -137 L-186 -137 L-177 -136 Z M-281 -116 L-277 -115 L-271 -114 L-274 -113 L-278 -114 L-281 -114 L-281 -116 Z" fill="#444444" stroke="#222222" stroke-width="0.3"/>
<path d="M59 34 L59 38 L58 38 L59 40 L51 40 L50 39 L50 38 L56 39 L57 38 L55 35 L53 35 L54 34 L59 34 Z" fill="#444444" stroke="#222222" stroke-width="0.3"/>
<path d="M60 42 L58 38 L59 34 L65 35 L66 36 L67 36 L67 37 L70 38 L69 39 L65 39 L63 40 L62 39 L60 42 Z" fill="#444444" stroke="#222222" stroke-width="0.3"/>
<path d="M34 10 L38 10 L38 11 L34 12 L34 10 Z M38 9 L41 11 L40 13 L40 11 L38 9 Z M37 16 L38 16 L39 21 L38 21 L36 18 L37 16 Z" fill="#444444" stroke="#222222" stroke-width="0.3"/>
<path d="M-96 -9 L-87 -10 L-88 -9 L-75 -5 L-65 -5 L-65 -7 L-59 -7 L-54 -3 L-52 1 L-51 2 L-48 3 L-46 0 L-43 0 L-41 1 L-36 8 L-34 12 L-28 13 L-30 19 L-30 25 L-28 31 L-23 37 L-20 38 L-18 40 L-8 37 L-6 36 L-4 30 L7 28 L7 30 L5 35 L5 35 L4 39 L2 39 L1 41 L-7 41 L-7 43 L-8 43 L-5 46 L-5 47 L-9 47 L-11 50 L-11 52 L-16 47 L-19 46 L-26 48 L-40 43 L-44 40 L-49 39 L-56 34 L-57 32 L-56 32 L-55 29 L-58 24 L-66 16 L-69 14 L-69 11 L-73 9 L-74 7 L-75 6 L-79 3 L-82 -5 L-88 -7 L-88 -5 L-87 -1 L-77 11 L-74 19 L-72 19 L-69 22 L-71 24 L-75 20 L-79 17 L-79 13 L-89 7 L-87 7 L-85 4 L-90 1 L-96 -9 Z" fill="#444444" stroke="#222222" stroke-width="0.3"/>
<path d="M40 72 L40 74 L38 75 L38 77 L36 74 L37 73 L34 71 L29 73 L31 76 L28 77 L27 75 L26 75 L25 74 L21 73 L21 74 L21 69 L22 69 L23 71 L26 72 L32 69 L34 69 L40 72 Z" fill="#444444" stroke="#222222" stroke-width="0.3"/>
<path d="M22 69 L21 69 L21 71 L21 73 L19 73 L18 71 L14 67 L13 69 L11 68 L11 65 L10 64 L12 63 L17 65 L18 64 L22 69 Z" fill="#444444" stroke="#222222" stroke-width="0.3"/>
<path d="M18 64 L17 65 L11 64 L5 57 L8 56 L8 55 L10 54 L11 54 L14 51 L16 52 L20 50 L18 63 L18 64 Z" fill="#444444" stroke="#222222" stroke-width="0.3"/>
<path d="M20 50 L16 52 L14 51 L11 54 L10 54 L8 55 L8 56 L6 57 L4 56 L4 54 L2 54 L-1 52 L-0 50 L4 47 L14 47 L20 50 Z" fill="#444444" stroke="#222222" stroke-width="0.3"/>
<path d="M-1 52 L2 54 L4 55 L4 57 L-4 55 L-1 52 Z" fill="#444444" stroke="#222222" stroke-width="0.3"/>
<path d="M-11 52 L-11 50 L-9 47 L-5 47 L-5 46 L-8 43 L-7 43 L-7 41 L-0 41 L-1 47 L3 48 L-0 50 L-1 52 L-4 55 L-7 54 L-11 52 Z" fill="#444444" stroke="#222222" stroke-width="0.3"/>
<path d="M-0 41 L2 39 L3 39 L2 45 L0 47 L-1 47 L-0 41 Z" fill="#444444" stroke="#222222" stroke-width="0.3"/>
<path d="M75 38 L80 39 L79 40 L74 40 L75 38 Z" fill="#444444" stroke="#222222" stroke-width="0.3"/>
<path d="M36 39 L41 39 L44 41 L40 41 L36 39 Z" fill="#cc3333" stroke="#222222" stroke-width="0.3"/>
<path d="M23 23 L29 23 L33 25 L36 25 L43 29 L46 30 L45 31 L51 32 L48 34 L38 34 L41 32 L37 31 L35 28 L23 25 L25 24 L21 24 L17 27 L14 27 L18 24 L23 23 Z" fill="#444444" stroke="#222222" stroke-width="0.3"/>
<path d="M93 65 L96 64 L96 67 L92 67 L93 65 Z" fill="#444444" stroke="#222222" stroke-width="0.3"/>
</svg>