<svg xmlns="http://www.w3.org/2000/svg" viewBox="0 0 80 80" width="80" height="80">
<path d="M35 42 L40 44 L40 45 L42 46 L41 48 L41 48 L42 49 L42 51 L43 53 L42 53 L38 54 L36 54 L36 53 L35 52 L32 50 L31 49 L30 48 L30 46 L30 46 L32 44 L31 43 L32 43 L32 43 L31 42 L35 42 Z" fill="#444444" stroke="#222222" stroke-width="0.3"/>
<path d="M-15 8 L-15 10 L-19 10 L-19 13 L-20 13 L-21 13 L-20 15 L-25 15 L-25 15 L-25 15 L-23 15 L-22 12 L-20 11 L-19 10 L-19 9 L-19 8 L-16 8 L-15 8 Z" fill="#444444" stroke="#222222" stroke-width="0.3"/>
<path d="M29 44 L30 48 L31 49 L32 50 L29 51 L29 51 L29 52 L29 55 L30 55 L30 55 L30 56 L29 56 L28 55 L28 55 L27 54 L27 55 L26 55 L25 54 L24 54 L24 54 L21 54 L21 49 L19 49 L19 49 L19 49 L18 49 L18 50 L16 50 L14 47 L10 48 L9 47 L10 46 L11 46 L12 46 L12 46 L14 45 L14 44 L14 43 L16 41 L17 35 L18 35 L22 36 L22 35 L23 35 L24 34 L25 35 L25 34 L28 34 L28 35 L29 35 L30 35 L32 36 L32 38 L32 38 L30 40 L29 44 Z" fill="#444444" stroke="#222222" stroke-width="0.3"/>
<path d="M44 42 L44 42 L44 37 L45 35 L46 35 L47 35 L48 35 L53 29 L53 27 L56 26 L56 28 L55 30 L53 34 L50 37 L46 40 L44 42 Z" fill="#444444" stroke="#222222" stroke-width="0.3"/>
<path d="M42 46 L40 45 L40 44 L35 42 L35 40 L37 38 L35 35 L37 34 L38 34 L38 35 L38 35 L39 35 L40 36 L42 36 L43 35 L44 36 L45 36 L44 37 L44 42 L44 42 L43 44 L42 46 L42 46 Z" fill="#cc3333" stroke="#222222" stroke-width="0.3"/>
<path d="M24 31 L23 30 L23 30 L23 28 L22 28 L21 25 L21 26 L22 24 L21 23 L22 22 L23 22 L23 17 L25 17 L25 14 L39 14 L40 18 L41 19 L39 20 L38 24 L36 28 L36 28 L35 30 L35 28 L34 28 L34 26 L34 26 L33 26 L33 27 L32 29 L32 29 L31 28 L29 29 L27 29 L26 28 L25 28 L24 30 L23 30 L24 31 Z" fill="#444444" stroke="#222222" stroke-width="0.3"/>
<path d="M23 17 L23 22 L22 22 L21 23 L22 24 L21 26 L21 25 L22 27 L21 28 L20 29 L19 30 L17 30 L17 30 L16 31 L13 32 L13 31 L13 30 L12 29 L12 29 L13 29 L13 28 L12 25 L12 25 L12 24 L11 23 L12 22 L13 21 L14 16 L13 15 L13 13 L14 13 L23 17 Z" fill="#444444" stroke="#222222" stroke-width="0.3"/>
<path d="M14 75 L15 74 L16 75 L17 75 L19 74 L19 70 L20 71 L20 72 L21 72 L23 71 L24 71 L25 71 L26 70 L26 70 L27 69 L30 67 L32 67 L33 70 L33 71 L32 71 L31 72 L32 73 L33 73 L33 72 L34 72 L33 75 L29 80 L26 81 L22 81 L19 82 L17 81 L16 79 L17 79 L17 78 L14 75 Z" fill="#444444" stroke="#222222" stroke-width="0.3"/>
<path d="M29 75 L30 75 L29 76 L28 77 L28 77 L27 76 L28 75 L29 75 Z" fill="#444444" stroke="#222222" stroke-width="0.3"/>
<path d="M32 67 L30 67 L28 66 L28 65 L26 63 L25 62 L27 62 L29 60 L31 59 L31 59 L32 59 L34 60 L34 65 L32 67 Z" fill="#444444" stroke="#222222" stroke-width="0.3"/>
<path d="M30 67 L27 69 L26 70 L26 70 L25 71 L24 71 L23 71 L21 72 L20 72 L20 71 L19 70 L19 67 L20 66 L20 62 L23 62 L23 62 L25 62 L26 63 L28 65 L28 66 L30 67 Z" fill="#444444" stroke="#222222" stroke-width="0.3"/>
<path d="M19 67 L19 74 L17 75 L16 75 L15 74 L14 75 L13 73 L12 67 L9 62 L9 61 L11 61 L12 61 L17 61 L17 62 L20 62 L24 61 L25 61 L23 62 L23 62 L20 62 L20 66 L19 67 Z" fill="#444444" stroke="#222222" stroke-width="0.3"/>
<path d="M-25 24 L-26 23 L-26 23 L-24 21 L-22 21 L-21 21 L-20 23 L-19 26 L-24 25 L-25 26 L-25 25 L-22 24 L-22 24 L-23 24 L-23 24 L-25 24 Z" fill="#444444" stroke="#222222" stroke-width="0.3"/>
<path d="M-19 26 L-20 23 L-19 22 L-18 22 L-16 22 L-12 22 L-11 21 L-13 11 L-11 11 L-3 16 L-3 17 L-1 17 L-1 18 L-0 18 L-0 20 L-1 22 L-3 22 L-4 23 L-6 23 L-9 24 L-10 24 L-11 27 L-12 28 L-12 28 L-12 28 L-13 28 L-15 28 L-15 28 L-15 28 L-15 27 L-16 26 L-17 26 L-18 26 L-19 26 Z" fill="#444444" stroke="#222222" stroke-width="0.3"/>
<path d="M-25 15 L-25 15 L-20 15 L-21 13 L-20 13 L-19 13 L-19 10 L-15 10 L-15 8 L-11 11 L-13 11 L-11 21 L-12 22 L-16 22 L-18 22 L-19 22 L-20 23 L-21 21 L-22 21 L-24 21 L-25 21 L-24 19 L-24 17 L-25 15 Z" fill="#444444" stroke="#222222" stroke-width="0.3"/>
<path d="M-2 33 L-3 33 L-3 30 L-4 28 L-3 27 L-2 26 L-1 27 L-1 28 L-1 29 L-2 30 L-2 33 Z" fill="#444444" stroke="#222222" stroke-width="0.3"/>
<path d="M13 13 L13 15 L14 16 L13 21 L12 22 L11 23 L12 24 L12 25 L12 25 L12 26 L10 24 L10 25 L8 25 L6 25 L4 25 L3 25 L1 24 L-0 24 L-1 27 L-2 26 L-3 26 L-2 25 L-4 25 L-5 24 L-5 23 L-1 22 L-0 20 L-0 18 L2 17 L9 13 L11 13 L12 14 L13 13 Z" fill="#444444" stroke="#222222" stroke-width="0.3"/>
<path d="M-2 33 L-2 30 L-1 29 L-1 26 L0 24 L1 24 L3 25 L4 25 L6 25 L8 25 L10 25 L10 24 L12 26 L11 28 L9 32 L8 33 L7 32 L6 33 L5 35 L2 35 L0 33 L-2 33 Z" fill="#444444" stroke="#222222" stroke-width="0.3"/>
<path d="M12 25 L13 26 L13 28 L13 29 L12 29 L12 29 L13 30 L13 31 L12 33 L12 35 L14 37 L14 38 L12 38 L6 38 L7 37 L5 35 L5 34 L6 33 L7 32 L8 33 L9 32 L11 28 L12 27 L12 26 L12 26 L12 25 Z" fill="#444444" stroke="#222222" stroke-width="0.3"/>
<path d="M-4 27 L-4 28 L-3 30 L-3 33 L-4 33 L-4 32 L-4 31 L-5 28 L-5 28 L-5 27 L-4 27 Z" fill="#444444" stroke="#222222" stroke-width="0.3"/>
<path d="M-5 27 L-4 31 L-4 32 L-4 33 L-7 35 L-8 35 L-9 33 L-8 31 L-9 27 L-5 27 Z" fill="#444444" stroke="#222222" stroke-width="0.3"/>
<path d="M-15 28 L-13 28 L-12 28 L-12 28 L-12 28 L-10 29 L-9 29 L-8 29 L-8 31 L-9 33 L-8 35 L-11 34 L-14 35 L-14 34 L-15 33 L-15 31 L-14 30 L-15 29 L-15 28 Z" fill="#444444" stroke="#222222" stroke-width="0.3"/>
<path d="M-21 26 L-19 26 L-19 26 L-18 26 L-17 26 L-16 26 L-15 27 L-15 28 L-15 28 L-15 28 L-15 29 L-14 30 L-15 31 L-15 31 L-16 32 L-17 30 L-18 31 L-18 29 L-18 29 L-20 29 L-21 30 L-23 27 L-23 27 L-21 26 L-21 26 Z" fill="#444444" stroke="#222222" stroke-width="0.3"/>
<path d="M-25 26 L-21 26 L-21 26 L-23 27 L-23 27 L-24 27 L-25 26 Z" fill="#444444" stroke="#222222" stroke-width="0.3"/>
<path d="M-15 31 L-15 33 L-14 34 L-14 35 L-16 35 L-19 32 L-17 30 L-17 30 L-16 32 L-15 31 Z" fill="#444444" stroke="#222222" stroke-width="0.3"/>
<path d="M-21 30 L-20 29 L-18 29 L-18 29 L-18 31 L-17 30 L-19 32 L-20 31 L-21 30 Z" fill="#444444" stroke="#222222" stroke-width="0.3"/>
<path d="M-12 28 L-11 27 L-10 26 L-10 25 L-9 24 L-6 23 L-5 23 L-5 24 L-4 25 L-2 25 L-3 27 L-4 27 L-9 27 L-8 29 L-9 29 L-10 29 L-12 28 Z" fill="#444444" stroke="#222222" stroke-width="0.3"/>
<path d="M28 34 L25 34 L24 35 L24 34 L23 35 L22 35 L22 36 L18 35 L17 35 L17 36 L15 36 L14 38 L14 37 L12 35 L12 34 L12 33 L13 32 L16 31 L17 30 L17 30 L19 30 L20 29 L21 28 L22 27 L23 28 L23 30 L25 31 L26 33 L28 34 Z" fill="#444444" stroke="#222222" stroke-width="0.3"/>
<path d="M17 36 L16 41 L14 43 L14 44 L14 45 L12 46 L12 46 L11 46 L11 46 L10 46 L9 46 L8 45 L9 45 L9 44 L10 43 L10 43 L11 43 L12 43 L12 42 L12 41 L11 40 L12 39 L11 39 L10 38 L14 38 L15 37 L15 36 L17 36 Z" fill="#444444" stroke="#222222" stroke-width="0.3"/>
<path d="M8 38 L10 38 L11 39 L12 39 L11 40 L12 41 L12 42 L12 43 L11 43 L10 43 L10 43 L9 44 L9 45 L8 45 L5 42 L6 39 L8 39 L8 38 Z" fill="#444444" stroke="#222222" stroke-width="0.3"/>
<path d="M6 38 L8 38 L8 39 L6 39 L6 39 L6 38 Z" fill="#444444" stroke="#222222" stroke-width="0.3"/>
<path d="M32 50 L34 52 L35 53 L34 54 L35 55 L34 57 L34 57 L31 58 L31 59 L29 60 L27 62 L25 62 L24 61 L23 61 L21 60 L21 56 L24 56 L23 54 L24 54 L24 54 L25 54 L26 55 L27 55 L27 54 L28 55 L28 55 L29 56 L30 56 L30 55 L30 55 L29 55 L29 52 L29 51 L29 51 L32 50 Z" fill="#444444" stroke="#222222" stroke-width="0.3"/>
<path d="M34 51 L35 52 L36 53 L36 57 L37 57 L37 58 L37 59 L37 60 L37 60 L36 60 L36 58 L34 57 L35 55 L34 54 L35 53 L34 51 Z" fill="#444444" stroke="#222222" stroke-width="0.3"/>
<path d="M36 54 L40 54 L42 53 L43 53 L43 58 L42 60 L39 61 L36 64 L36 65 L37 67 L37 69 L34 71 L34 71 L34 72 L34 72 L33 72 L33 71 L33 70 L32 67 L34 65 L34 60 L32 59 L31 59 L31 58 L34 57 L36 58 L36 60 L37 60 L37 60 L37 59 L37 58 L37 57 L36 57 L36 55 L36 54 Z" fill="#444444" stroke="#222222" stroke-width="0.3"/>
<path d="M33 72 L33 73 L32 73 L31 72 L32 71 L33 71 L33 72 Z" fill="#444444" stroke="#222222" stroke-width="0.3"/>
<path d="M10 46 L10 46 L9 47 L9 46 L10 46 L10 46 Z M10 48 L14 47 L16 50 L18 50 L18 49 L19 49 L19 49 L19 49 L21 49 L21 54 L23 53 L23 54 L24 54 L24 56 L21 56 L21 60 L23 61 L20 62 L17 62 L17 61 L12 61 L11 61 L9 61 L9 58 L11 55 L11 54 L10 51 L11 51 L10 48 Z" fill="#444444" stroke="#222222" stroke-width="0.3"/>
<path d="M31 43 L32 44 L30 46 L30 46 L29 44 L30 44 L31 43 L31 43 Z" fill="#444444" stroke="#222222" stroke-width="0.3"/>
<path d="M53 55 L55 57 L55 59 L55 60 L54 59 L54 59 L54 61 L51 70 L49 71 L47 70 L47 68 L47 66 L47 66 L48 64 L47 61 L48 60 L50 59 L52 58 L52 57 L52 57 L52 57 L53 55 Z" fill="#444444" stroke="#222222" stroke-width="0.3"/>
<path d="M-25 24 L-23 24 L-23 24 L-22 24 L-22 24 L-25 25 L-25 24 Z" fill="#444444" stroke="#222222" stroke-width="0.3"/>
<path d="M6 4 L6 2 L4 1 L4 -0 L5 -1 L5 -3 L6 -4 L7 -4 L7 -3 L8 -4 L8 -3 L8 -2 L8 -2 L8 -1 L7 -0 L7 0 L8 0 L9 1 L9 2 L7 3 L7 4 L6 4 Z" fill="#444444" stroke="#222222" stroke-width="0.3"/>
<path d="M-15 8 L-15 6 L-11 5 L-11 4 L-9 4 L-9 3 L-7 2 L-6 2 L-8 -1 L-7 -2 L-3 -3 L1 -3 L2 -4 L5 -3 L5 -1 L4 -0 L4 1 L6 2 L7 5 L6 9 L6 9 L7 11 L8 11 L9 13 L2 17 L-1 18 L-1 17 L-3 17 L-3 16 L-15 8 Z" fill="#444444" stroke="#222222" stroke-width="0.3"/>
<path d="M38 23 L39 20 L41 19 L42 22 L46 25 L45 26 L44 24 L43 23 L41 23 L41 23 L40 23 L40 24 L38 23 Z" fill="#444444" stroke="#222222" stroke-width="0.3"/>
<path d="M-8 -1 L-6 2 L-7 2 L-9 3 L-9 4 L-11 4 L-11 5 L-15 6 L-16 8 L-19 8 L-20 11 L-22 12 L-23 15 L-25 15 L-24 12 L-23 11 L-22 9 L-21 9 L-20 7 L-19 7 L-16 5 L-17 3 L-16 2 L-15 1 L-13 -0 L-12 -2 L-11 -2 L-11 -2 L-8 -1 Z" fill="#444444" stroke="#222222" stroke-width="0.3"/>
<path d="M39 14 L25 14 L25 6 L24 5 L24 3 L25 3 L26 3 L29 4 L32 3 L33 3 L33 4 L33 3 L35 4 L36 3 L36 5 L36 7 L35 8 L34 7 L33 5 L36 9 L37 12 L37 13 L39 14 Z" fill="#444444" stroke="#222222" stroke-width="0.3"/>
<path d="M25 6 L25 17 L23 17 L23 17 L14 13 L12 14 L11 13 L9 13 L8 11 L7 11 L6 9 L6 9 L7 6 L6 4 L7 4 L7 3 L9 2 L9 1 L13 2 L14 3 L18 4 L19 4 L19 3 L20 2 L22 2 L23 2 L25 3 L25 3 L24 3 L24 5 L25 6 Z" fill="#444444" stroke="#222222" stroke-width="0.3"/>
<path d="M52 31 L48 35 L47 35 L45 36 L44 36 L43 35 L42 36 L40 36 L39 35 L38 35 L38 35 L38 34 L37 34 L36 33 L35 31 L34 31 L35 31 L35 31 L36 28 L38 26 L38 23 L40 24 L40 23 L41 23 L41 23 L43 23 L44 24 L45 26 L45 27 L45 27 L46 27 L46 28 L47 30 L51 31 L52 31 Z" fill="#444444" stroke="#222222" stroke-width="0.3"/>
<path d="M45 26 L46 25 L46 26 L46 26 L46 27 L46 27 L46 27 L45 27 L45 27 L45 26 Z" fill="#444444" stroke="#222222" stroke-width="0.3"/>
<path d="M53 27 L53 29 L52 31 L51 31 L47 30 L46 28 L46 27 L47 28 L53 27 Z" fill="#444444" stroke="#222222" stroke-width="0.3"/>
<path d="M35 42 L32 42 L30 42 L30 40 L32 38 L32 38 L32 36 L32 36 L33 36 L35 36 L35 35 L36 36 L37 38 L35 40 L35 42 Z" fill="#444444" stroke="#222222" stroke-width="0.3"/>
<path d="M31 42 L32 43 L32 43 L31 43 L30 44 L29 44 L30 42 L31 42 Z" fill="#444444" stroke="#222222" stroke-width="0.3"/>
<path d="M32 36 L30 35 L28 35 L27 34 L26 33 L26 33 L25 32 L25 31 L23 30 L24 30 L25 28 L26 28 L27 29 L29 29 L31 28 L32 29 L32 29 L33 27 L33 26 L34 26 L34 28 L35 28 L35 30 L35 31 L35 31 L34 31 L35 31 L35 32 L37 34 L35 36 L33 36 L32 36 L32 36 Z" fill="#444444" stroke="#222222" stroke-width="0.3"/>
</svg>