<svg xmlns="http://www.w3.org/2000/svg" viewBox="0 0 80 80" width="80" height="80">
<path d="M17 -4 L16 -3 L14 -3 L14 -1 L14 -1 L11 -1 L10 1 L6 2 L8 5 L7 5 L7 6 L5 5 L0 5 L-2 5 L-3 5 L-3 6 L-6 5 L-6 6 L-9 7 L-10 8 L-10 8 L-11 8 L-12 8 L-13 6 L-13 6 L-13 5 L-15 4 L-19 4 L-20 3 L-24 1 L-28 2 L-28 7 L-28 7 L-30 6 L-32 7 L-32 5 L-34 5 L-36 3 L-34 3 L-34 2 L-32 2 L-32 -0 L-34 -1 L-37 0 L-38 -0 L-38 -1 L-39 -2 L-40 -2 L-41 -3 L-39 -6 L-38 -5 L-38 -6 L-35 -7 L-33 -7 L-28 -6 L-26 -6 L-24 -6 L-22 -6 L-22 -6 L-20 -6 L-20 -7 L-22 -8 L-21 -8 L-21 -9 L-20 -9 L-21 -10 L-20 -11 L-15 -11 L-9 -13 L-7 -12 L-6 -11 L-5 -11 L-3 -11 L-3 -10 L-2 -10 L2 -11 L1 -11 L3 -10 L6 -6 L7 -7 L9 -6 L11 -6 L14 -5 L16 -5 L17 -4 Z" fill="#444444" stroke="#222222" stroke-width="0.3"/>
<path d="M-28 7 L-28 2 L-24 1 L-20 3 L-19 4 L-15 4 L-13 5 L-13 6 L-13 6 L-12 8 L-11 8 L-10 8 L-10 8 L-9 7 L-6 6 L-6 6 L-7 7 L-6 8 L-5 7 L-3 8 L-5 9 L-7 9 L-7 8 L-9 8 L-10 10 L-11 10 L-11 10 L-10 11 L-10 12 L-11 13 L-13 13 L-13 12 L-16 11 L-19 9 L-19 8 L-21 7 L-22 7 L-22 6 L-24 5 L-26 7 L-26 7 L-28 7 Z" fill="#444444" stroke="#222222" stroke-width="0.3"/>
<path d="M92 69 L98 71 L99 73 L100 73 L102 74 L102 75 L101 75 L101 76 L102 77 L103 79 L104 78 L104 79 L106 80 L106 81 L102 80 L100 78 L100 77 L98 76 L96 77 L96 78 L95 79 L93 79 L92 69 Z M109 71 L110 72 L109 72 L109 71 L106 70 L107 69 L109 71 Z M108 73 L105 75 L103 74 L103 73 L105 73 L105 73 L106 73 L106 73 L108 72 L107 72 L108 72 L108 73 L108 73 Z M112 73 L114 75 L113 75 L112 75 L112 73 Z" fill="#444444" stroke="#222222" stroke-width="0.3"/>
<path d="M92 69 L93 79 L91 77 L90 77 L89 77 L88 78 L88 76 L89 76 L88 73 L84 72 L82 71 L81 71 L81 70 L80 70 L82 69 L82 69 L80 69 L80 68 L78 68 L78 67 L80 66 L83 67 L83 70 L85 70 L86 69 L87 68 L89 68 L92 69 Z M70 78 L70 79 L69 80 L68 80 L68 79 L70 78 Z M83 75 L83 74 L83 73 L84 74 L83 75 Z M60 60 L59 61 L60 62 L60 63 L61 64 L60 65 L59 66 L59 67 L58 68 L57 71 L57 71 L56 71 L55 71 L53 70 L52 71 L51 70 L49 70 L49 68 L47 66 L47 65 L47 64 L48 63 L48 64 L49 65 L51 64 L53 64 L54 64 L55 64 L57 60 L60 60 Z M74 70 L78 70 L78 71 L77 71 L74 70 L74 70 Z M73 71 L72 71 L71 70 L73 70 L73 71 L73 71 Z M74 63 L74 63 L75 63 L75 64 L75 65 L74 65 L74 66 L75 67 L74 67 L73 64 L74 63 Z M64 64 L69 64 L70 63 L70 64 L69 65 L68 65 L63 65 L63 66 L64 68 L65 67 L68 67 L67 67 L67 67 L66 68 L65 68 L66 70 L66 71 L67 72 L67 73 L67 74 L66 73 L67 72 L65 73 L65 72 L65 72 L64 71 L64 69 L63 70 L63 73 L63 74 L62 73 L62 72 L62 71 L62 71 L61 70 L63 65 L64 64 Z M64 80 L61 79 L63 79 L64 80 L64 80 Z M64 77 L66 78 L67 77 L67 78 L63 78 L63 78 L64 77 Z M60 77 L61 77 L62 78 L58 78 L59 78 L59 78 L60 77 Z M47 75 L47 75 L49 75 L50 75 L52 75 L53 76 L55 77 L57 77 L55 78 L54 77 L46 77 L44 76 L43 75 L42 75 L43 74 L47 75 Z M41 67 L41 69 L43 69 L43 70 L43 74 L41 74 L38 72 L34 65 L33 63 L28 59 L28 58 L31 58 L35 63 L37 63 L38 64 L39 65 L40 66 L39 67 L41 67 Z" fill="#444444" stroke="#222222" stroke-width="0.3"/>
<path d="M70 78 L71 78 L73 78 L70 79 L70 78 Z" fill="#444444" stroke="#222222" stroke-width="0.3"/>
<path d="M-56 19 L-56 20 L-57 20 L-57 21 L-57 21 L-57 21 L-57 21 L-57 22 L-57 24 L-58 22 L-57 19 L-56 19 Z" fill="#444444" stroke="#222222" stroke-width="0.3"/>
<path d="M-56 19 L-57 19 L-56 17 L-55 17 L-55 17 L-56 19 Z" fill="#444444" stroke="#222222" stroke-width="0.3"/>
<path d="M-57 21 L-57 21 L-57 21 L-57 21 L-57 20 L-56 20 L-57 21 Z" fill="#444444" stroke="#222222" stroke-width="0.3"/>
<path d="M-57 24 L-56 19 L-55 20 L-52 19 L-51 20 L-54 21 L-53 23 L-56 24 L-57 24 Z" fill="#444444" stroke="#222222" stroke-width="0.3"/>
<path d="M-34 31 L-33 32 L-30 32 L-27 29 L-27 29 L-27 30 L-28 30 L-28 32 L-28 32 L-29 34 L-33 33 L-34 31 Z" fill="#444444" stroke="#222222" stroke-width="0.3"/>
<path d="M-35 31 L-35 30 L-34 29 L-34 30 L-34 31 L-35 31 Z" fill="#444444" stroke="#222222" stroke-width="0.3"/>
<path d="M-39 23 L-38 25 L-39 25 L-40 25 L-41 25 L-40 23 L-39 23 Z" fill="#444444" stroke="#222222" stroke-width="0.3"/>
<path d="M-51 20 L-52 19 L-49 17 L-48 14 L-46 13 L-44 13 L-43 13 L-42 15 L-42 15 L-41 16 L-42 17 L-43 18 L-42 19 L-40 20 L-39 21 L-39 22 L-39 22 L-39 23 L-38 23 L-40 23 L-41 25 L-44 24 L-47 22 L-51 20 Z" fill="#444444" stroke="#222222" stroke-width="0.3"/>
<path d="M-29 34 L-28 32 L-28 32 L-28 30 L-27 30 L-26 32 L-24 32 L-22 34 L-24 37 L-25 37 L-25 39 L-27 39 L-27 40 L-28 40 L-29 42 L-32 42 L-33 39 L-29 37 L-28 35 L-29 34 Z M-27 29 L-27 29 L-27 28 L-27 29 L-27 29 Z" fill="#444444" stroke="#222222" stroke-width="0.3"/>
<path d="M38 48 L38 47 L39 46 L41 45 L43 46 L44 45 L45 46 L45 47 L45 48 L43 49 L43 50 L41 51 L40 51 L38 48 Z" fill="#444444" stroke="#222222" stroke-width="0.3"/>
<path d="M42 46 L39 46 L38 47 L38 48 L37 48 L36 48 L36 47 L35 47 L35 48 L33 52 L33 53 L34 53 L35 55 L38 57 L37 57 L36 58 L36 57 L35 56 L35 57 L32 54 L32 55 L32 54 L33 52 L34 49 L33 46 L32 44 L33 43 L31 40 L31 39 L32 38 L33 38 L35 37 L35 37 L35 38 L36 38 L36 41 L38 40 L39 40 L39 40 L40 40 L41 41 L41 42 L42 44 L42 46 Z" fill="#444444" stroke="#222222" stroke-width="0.3"/>
<path d="M45 46 L44 45 L43 46 L42 46 L42 44 L41 42 L41 41 L40 40 L39 40 L39 40 L38 40 L36 41 L36 38 L35 38 L35 37 L35 37 L36 35 L37 36 L37 34 L38 34 L39 36 L41 36 L41 38 L40 38 L42 39 L45 43 L45 44 L45 46 Z" fill="#cc3333" stroke="#222222" stroke-width="0.3"/>
<path d="M36 35 L33 38 L32 38 L31 39 L31 40 L33 43 L32 44 L33 46 L34 49 L33 52 L33 50 L32 49 L32 47 L32 46 L31 42 L28 43 L26 43 L27 41 L27 40 L25 38 L26 38 L25 38 L24 36 L24 35 L24 36 L24 35 L25 34 L25 32 L26 32 L28 29 L28 28 L30 27 L31 27 L31 26 L32 26 L33 27 L33 29 L31 30 L31 32 L33 32 L33 33 L34 33 L34 34 L35 35 L36 35 L36 35 Z" fill="#444444" stroke="#222222" stroke-width="0.3"/>
<path d="M41 51 L43 50 L43 49 L45 48 L45 44 L45 43 L42 39 L40 38 L41 38 L41 36 L39 36 L38 34 L41 33 L42 33 L44 33 L44 34 L45 35 L46 35 L44 36 L43 39 L45 42 L47 44 L48 47 L48 49 L42 54 L41 53 L42 52 L41 51 Z" fill="#444444" stroke="#222222" stroke-width="0.3"/>
<path d="M78 6 L78 6 L78 6 L78 6 Z M77 5 L78 6 L78 6 L76 7 L77 8 L73 10 L73 10 L75 11 L74 11 L70 12 L69 12 L70 10 L69 9 L70 8 L73 7 L74 7 L74 6 L76 6 L77 5 Z" fill="#444444" stroke="#222222" stroke-width="0.3"/>
<path d="M72 12 L75 11 L76 14 L76 15 L76 16 L72 17 L72 15 L71 14 L73 14 L72 12 Z" fill="#444444" stroke="#222222" stroke-width="0.3"/>
<path d="M17 -4 L24 -6 L26 -6 L27 -5 L31 -5 L32 -6 L32 -6 L33 -8 L37 -7 L38 -6 L40 -5 L44 -5 L47 -4 L50 -4 L53 -4 L55 -5 L56 -5 L58 -5 L56 -2 L57 -2 L59 -2 L60 -2 L62 -1 L62 -0 L59 -0 L57 1 L54 2 L51 2 L51 3 L51 4 L49 5 L43 6 L42 7 L36 5 L29 5 L28 3 L25 2 L22 2 L21 1 L22 -1 L21 -2 L18 -3 L17 -4 Z" fill="#444444" stroke="#222222" stroke-width="0.3"/>
<path d="M31 26 L31 27 L30 27 L28 28 L28 29 L26 32 L25 32 L25 34 L24 35 L23 32 L23 32 L23 33 L22 32 L24 30 L20 30 L20 29 L18 28 L18 29 L19 30 L18 31 L19 31 L18 32 L19 35 L19 35 L16 35 L16 36 L16 37 L13 38 L9 42 L9 42 L7 43 L6 44 L7 47 L6 49 L6 51 L5 51 L5 52 L5 53 L4 53 L3 54 L2 53 L0 50 L-1 48 L-2 45 L-3 43 L-4 36 L-6 36 L-7 36 L-9 34 L-8 34 L-9 33 L-10 32 L-9 31 L-6 31 L-8 28 L-8 28 L-7 26 L-5 26 L-2 22 L-2 21 L-0 20 L-2 19 L-2 17 L-2 17 L2 17 L3 16 L5 17 L5 18 L5 19 L5 20 L4 20 L5 21 L8 23 L7 24 L6 25 L11 27 L13 27 L14 28 L18 28 L18 26 L19 26 L19 27 L20 28 L23 28 L23 27 L23 26 L24 26 L27 24 L28 25 L29 24 L30 25 L29 26 L31 26 Z" fill="#444444" stroke="#222222" stroke-width="0.3"/>
<path d="M23 32 L24 36 L24 35 L24 36 L22 34 L21 33 L21 35 L19 35 L18 32 L19 31 L18 31 L19 30 L18 29 L18 28 L20 29 L20 30 L24 30 L22 32 L23 33 L23 32 L23 32 Z" fill="#444444" stroke="#222222" stroke-width="0.3"/>
<path d="M20 26 L23 27 L23 28 L20 28 L19 27 L20 26 L20 26 Z" fill="#444444" stroke="#222222" stroke-width="0.3"/>
<path d="M18 26 L18 28 L17 28 L14 28 L13 27 L11 27 L6 25 L7 24 L8 23 L15 26 L18 26 Z" fill="#444444" stroke="#222222" stroke-width="0.3"/>
<path d="M3 16 L2 17 L-2 17 L-2 17 L-2 19 L-0 20 L-2 21 L-2 22 L-5 26 L-7 26 L-8 28 L-8 28 L-6 31 L-9 31 L-10 32 L-11 32 L-13 30 L-20 30 L-19 29 L-17 28 L-17 27 L-18 27 L-18 26 L-19 25 L-21 24 L-18 24 L-15 24 L-13 23 L-13 22 L-12 21 L-9 21 L-9 20 L-8 19 L-7 19 L-8 18 L-7 18 L-6 16 L-6 15 L-5 14 L-1 13 L1 14 L1 15 L3 16 Z" fill="#444444" stroke="#222222" stroke-width="0.3"/>
<path d="M-14 12 L-10 13 L-9 13 L-9 13 L-8 13 L-8 13 L-7 11 L-6 12 L-6 13 L-5 14 L-3 13 L-1 13 L-1 13 L-5 14 L-6 15 L-6 16 L-7 18 L-8 18 L-7 19 L-8 19 L-9 20 L-9 21 L-12 21 L-13 22 L-13 23 L-15 24 L-18 24 L-21 24 L-19 22 L-20 21 L-21 21 L-21 19 L-21 18 L-21 18 L-20 15 L-19 16 L-18 16 L-17 15 L-15 14 L-15 13 L-14 13 L-14 12 Z" fill="#444444" stroke="#222222" stroke-width="0.3"/>
<path d="M-11 13 L-10 12 L-10 11 L-11 10 L-11 10 L-10 10 L-9 8 L-7 8 L-7 8 L-6 9 L-7 9 L-8 9 L-9 10 L-3 10 L-2 11 L-1 11 L-1 13 L-3 13 L-5 14 L-6 13 L-6 12 L-7 11 L-8 13 L-8 13 L-9 13 L-11 13 Z" fill="#444444" stroke="#222222" stroke-width="0.3"/>
<path d="M-6 6 L-6 5 L-5 5 L-3 6 L-3 5 L-2 5 L0 5 L5 5 L7 6 L4 8 L2 8 L1 9 L-1 9 L-2 9 L-2 10 L-3 10 L-9 10 L-8 9 L-5 9 L-3 8 L-5 7 L-6 8 L-7 7 L-6 6 L-6 6 Z" fill="#444444" stroke="#222222" stroke-width="0.3"/>
<path d="M-32 7 L-30 6 L-28 7 L-26 7 L-26 7 L-24 5 L-22 6 L-22 7 L-21 7 L-19 8 L-19 9 L-16 11 L-13 12 L-13 13 L-14 12 L-14 13 L-15 13 L-15 14 L-19 16 L-20 15 L-20 14 L-21 14 L-23 13 L-26 12 L-28 12 L-29 13 L-30 13 L-31 11 L-32 10 L-31 9 L-32 9 L-32 8 L-31 8 L-29 8 L-31 6 L-32 7 L-32 8 L-32 7 Z" fill="#444444" stroke="#222222" stroke-width="0.3"/>
<path d="M-38 23 L-39 23 L-39 22 L-39 22 L-39 21 L-40 20 L-42 19 L-43 18 L-42 17 L-41 16 L-42 15 L-42 15 L-44 12 L-44 12 L-44 10 L-43 10 L-42 11 L-41 11 L-39 10 L-38 10 L-39 11 L-38 12 L-37 13 L-35 14 L-33 14 L-31 13 L-28 12 L-27 12 L-23 13 L-21 14 L-20 14 L-20 15 L-21 18 L-21 18 L-21 19 L-21 21 L-20 21 L-19 22 L-21 24 L-19 25 L-18 26 L-18 27 L-17 27 L-17 28 L-19 29 L-20 30 L-26 29 L-26 28 L-27 27 L-29 28 L-31 28 L-33 27 L-34 26 L-36 23 L-37 23 L-38 23 L-38 23 Z" fill="#444444" stroke="#222222" stroke-width="0.3"/>
<path d="M-56 19 L-56 18 L-55 17 L-55 17 L-56 17 L-56 16 L-55 14 L-55 14 L-51 14 L-47 13 L-48 14 L-49 17 L-55 20 L-56 19 Z" fill="#444444" stroke="#222222" stroke-width="0.3"/>
<path d="M-41 11 L-41 11 L-42 10 L-45 9 L-45 8 L-43 7 L-42 8 L-43 8 L-42 9 L-42 9 L-41 10 L-41 11 Z" fill="#444444" stroke="#222222" stroke-width="0.3"/>
<path d="M-43 13 L-44 13 L-46 13 L-51 14 L-55 14 L-55 14 L-56 15 L-56 14 L-56 14 L-58 14 L-59 15 L-61 15 L-62 14 L-63 14 L-64 14 L-65 15 L-66 14 L-68 14 L-69 12 L-69 11 L-70 10 L-68 9 L-66 9 L-65 7 L-63 8 L-59 6 L-57 6 L-52 8 L-50 8 L-48 7 L-46 7 L-45 8 L-45 9 L-43 10 L-44 10 L-44 12 L-44 12 L-43 13 Z M-70 7 L-68 6 L-67 6 L-67 7 L-66 7 L-66 8 L-68 8 L-69 9 L-70 8 L-69 7 L-70 7 Z" fill="#444444" stroke="#222222" stroke-width="0.3"/>
<path d="M100 124 L103 123 L103 125 L102 127 L102 126 L101 127 L100 127 L98 124 L98 123 L100 124 Z M72 111 L69 112 L68 114 L63 114 L60 115 L58 115 L56 114 L56 113 L57 113 L57 111 L56 107 L53 103 L54 103 L54 102 L55 103 L53 100 L54 98 L54 97 L55 96 L55 97 L55 96 L58 95 L59 95 L62 94 L64 93 L66 91 L66 90 L67 89 L68 90 L68 90 L68 89 L68 88 L69 89 L69 88 L71 86 L71 86 L71 86 L73 85 L75 87 L76 87 L76 86 L77 85 L77 84 L78 83 L79 83 L81 83 L81 82 L80 82 L80 81 L84 83 L86 82 L87 83 L86 84 L85 84 L86 85 L85 87 L91 91 L92 90 L93 89 L93 87 L93 83 L95 81 L96 84 L97 86 L98 86 L99 87 L99 89 L100 92 L104 94 L103 95 L105 97 L105 97 L106 98 L106 97 L106 99 L109 101 L110 104 L110 105 L109 110 L109 112 L108 112 L106 116 L105 119 L104 119 L103 119 L100 121 L98 120 L98 119 L96 120 L92 119 L91 118 L90 117 L90 116 L88 116 L89 115 L89 114 L88 115 L87 115 L88 113 L88 112 L86 114 L85 115 L84 114 L84 114 L83 112 L83 112 L79 110 L72 111 Z" fill="#444444" stroke="#222222" stroke-width="0.3"/>
<path d="M9 55 L9 57 L7 57 L6 56 L6 54 L7 52 L8 53 L9 55 Z" fill="#444444" stroke="#222222" stroke-width="0.3"/>
<path d="M48 40 L47 40 L47 38 L47 38 L50 37 L50 38 L49 39 L48 40 Z M7 6 L7 5 L8 5 L6 2 L10 1 L11 -1 L14 -1 L14 -1 L14 -3 L16 -3 L17 -4 L18 -3 L21 -2 L22 -1 L21 1 L22 2 L25 2 L28 3 L29 5 L36 5 L42 7 L43 6 L48 6 L51 4 L51 3 L51 2 L54 2 L57 1 L59 -0 L62 -0 L62 -1 L60 -2 L59 -2 L57 -2 L56 -2 L58 -5 L60 -4 L62 -5 L62 -6 L64 -8 L64 -8 L63 -9 L64 -10 L66 -10 L68 -10 L71 -9 L74 -5 L76 -4 L78 -3 L78 -2 L80 -2 L84 -3 L81 2 L80 2 L78 2 L79 3 L79 5 L78 5 L78 6 L77 5 L76 6 L74 6 L74 7 L73 7 L69 9 L64 11 L65 10 L65 10 L66 9 L65 8 L62 9 L61 10 L60 10 L59 11 L60 12 L61 12 L61 13 L62 13 L64 12 L66 13 L66 14 L64 14 L62 16 L63 17 L66 21 L65 22 L65 22 L65 23 L66 24 L65 26 L64 26 L61 31 L57 33 L55 34 L55 34 L54 34 L53 35 L50 35 L49 37 L49 37 L48 36 L49 35 L45 35 L44 34 L44 33 L42 33 L41 33 L38 34 L37 34 L37 36 L36 36 L36 35 L35 35 L34 34 L34 33 L33 33 L33 32 L31 32 L31 30 L33 29 L33 27 L32 26 L29 26 L30 25 L29 24 L28 25 L27 24 L24 26 L23 26 L20 26 L19 27 L19 26 L18 26 L15 26 L12 25 L12 24 L10 23 L8 23 L8 23 L5 21 L4 20 L5 20 L5 19 L5 18 L5 17 L3 16 L1 15 L1 14 L-1 13 L-1 11 L-2 11 L-3 10 L-2 10 L-2 9 L-1 9 L1 9 L2 8 L4 8 L7 6 Z" fill="#444444" stroke="#222222" stroke-width="0.3"/>
<path d="M66 30 L64 33 L64 35 L63 32 L65 30 L66 30 Z" fill="#444444" stroke="#222222" stroke-width="0.3"/>
<path d="M-41 7 L-39 8 L-38 7 L-37 8 L-35 9 L-37 9 L-38 12 L-39 11 L-38 10 L-39 10 L-41 11 L-41 10 L-42 9 L-42 9 L-43 7 L-41 8 L-41 7 L-41 7 Z M-41 11 L-42 11 L-43 10 L-42 10 L-41 11 Z" fill="#444444" stroke="#222222" stroke-width="0.3"/>
<path d="M-50 4 L-47 5 L-45 6 L-42 6 L-41 7 L-41 7 L-41 8 L-43 7 L-45 8 L-46 7 L-48 7 L-48 5 L-50 4 Z" fill="#444444" stroke="#222222" stroke-width="0.3"/>
<path d="M65 48 L63 47 L64 47 L65 47 L65 48 Z M66 52 L67 50 L68 50 L68 51 L69 50 L68 51 L67 53 L66 52 Z M72 53 L72 56 L72 57 L71 55 L70 56 L71 57 L70 58 L69 57 L68 56 L69 55 L68 55 L66 56 L66 56 L66 54 L68 53 L68 54 L69 54 L70 53 L71 53 L70 52 L72 53 Z M62 51 L59 54 L62 50 L62 51 Z M66 40 L66 41 L66 42 L66 43 L65 43 L65 45 L67 45 L68 46 L69 48 L67 47 L67 47 L66 46 L64 46 L64 45 L64 45 L64 45 L63 44 L63 43 L63 43 L64 40 L66 40 L66 40 Z M66 51 L65 49 L67 49 L67 50 L66 51 Z M70 48 L71 50 L70 50 L70 51 L70 51 L70 50 L69 50 L69 49 L70 50 L70 49 L69 48 L70 48 Z" fill="#444444" stroke="#222222" stroke-width="0.3"/>
<path d="M35 58 L35 56 L36 57 L36 58 L37 57 L38 57 L39 58 L39 59 L40 62 L41 64 L40 64 L37 62 L35 58 Z M60 60 L57 60 L55 64 L54 64 L53 64 L51 64 L49 65 L48 64 L48 63 L49 63 L50 63 L51 62 L53 61 L55 59 L55 60 L56 60 L56 60 L56 58 L58 56 L59 56 L60 57 L62 58 L62 59 L61 59 L61 59 L60 60 Z" fill="#444444" stroke="#222222" stroke-width="0.3"/>
<path d="M56 58 L56 60 L56 60 L55 60 L55 59 L56 58 Z" fill="#444444" stroke="#222222" stroke-width="0.3"/>
<path d="M94 10 L92 12 L92 13 L92 14 L92 15 L91 16 L90 17 L87 17 L85 18 L84 18 L84 17 L78 18 L80 19 L79 21 L78 22 L77 21 L78 20 L77 20 L76 19 L77 18 L81 16 L83 15 L85 15 L86 13 L87 14 L90 12 L91 10 L91 8 L91 7 L93 7 L94 9 L94 10 Z M98 4 L99 3 L99 5 L97 5 L96 6 L93 5 L93 7 L91 7 L91 6 L92 4 L93 4 L94 1 L96 3 L98 4 Z M80 18 L81 18 L82 18 L82 17 L83 17 L84 18 L83 19 L82 18 L82 19 L81 19 L80 19 L80 18 Z" fill="#444444" stroke="#222222" stroke-width="0.3"/>
<path d="M-33 39 L-32 42 L-33 43 L-33 44 L-37 45 L-38 46 L-42 47 L-43 48 L-45 48 L-46 44 L-45 41 L-45 41 L-41 41 L-40 42 L-40 41 L-39 40 L-37 39 L-33 39 Z" fill="#444444" stroke="#222222" stroke-width="0.3"/>
<path d="M-57 24 L-56 24 L-55 23 L-54 23 L-53 23 L-54 21 L-51 20 L-47 22 L-44 24 L-40 25 L-39 25 L-38 25 L-38 27 L-36 28 L-36 30 L-35 31 L-34 31 L-33 33 L-29 34 L-29 34 L-28 35 L-29 37 L-33 39 L-37 39 L-39 40 L-40 41 L-40 42 L-41 41 L-45 41 L-45 41 L-46 42 L-46 43 L-49 38 L-50 37 L-51 36 L-51 34 L-52 32 L-54 31 L-54 30 L-57 26 L-58 26 L-57 24 Z" fill="#444444" stroke="#222222" stroke-width="0.3"/>
<path d="M-60 16 L-60 16 L-58 15 L-59 16 L-60 16 Z" fill="#444444" stroke="#222222" stroke-width="0.3"/>
<path d="M-61 16 L-59 16 L-59 16 L-60 17 L-61 16 Z" fill="#444444" stroke="#222222" stroke-width="0.3"/>
</svg>