<svg xmlns="http://www.w3.org/2000/svg" viewBox="0 0 80 80" width="80" height="80">
<path d="M28 24 L32 26 L32 26 L33 27 L33 28 L33 29 L33 29 L33 31 L34 32 L33 33 L31 34 L29 33 L29 32 L28 32 L26 31 L25 30 L25 29 L24 27 L25 27 L26 26 L25 25 L26 25 L26 25 L25 24 L28 24 Z" fill="#444444" stroke="#222222" stroke-width="0.3"/>
<path d="M-10 -2 L-10 0 L-13 -0 L-13 2 L-13 2 L-14 3 L-13 4 L-17 4 L-17 4 L-17 4 L-15 4 L-14 2 L-13 1 L-13 -0 L-12 -0 L-12 -1 L-10 -1 L-10 -2 Z" fill="#444444" stroke="#222222" stroke-width="0.3"/>
<path d="M24 26 L25 29 L25 30 L26 31 L24 31 L24 31 L24 32 L23 34 L24 34 L25 34 L25 35 L24 35 L23 34 L23 34 L22 34 L22 34 L21 34 L21 33 L20 33 L20 33 L18 33 L18 30 L16 30 L17 29 L16 29 L15 30 L15 30 L14 30 L13 28 L9 29 L9 28 L9 28 L10 27 L11 27 L11 28 L12 26 L12 26 L13 25 L14 24 L15 19 L16 19 L18 20 L19 19 L19 19 L20 19 L21 19 L21 18 L23 18 L23 19 L24 19 L25 19 L26 20 L26 21 L26 21 L25 23 L24 26 Z" fill="#444444" stroke="#222222" stroke-width="0.3"/>
<path d="M35 25 L35 24 L35 21 L36 19 L36 19 L37 19 L38 19 L42 15 L42 13 L44 12 L44 14 L43 15 L42 18 L40 21 L37 23 L35 25 Z" fill="#444444" stroke="#222222" stroke-width="0.3"/>
<path d="M33 27 L32 26 L32 26 L28 24 L28 23 L29 21 L29 19 L30 18 L30 18 L30 19 L30 19 L31 19 L32 20 L33 20 L35 19 L35 20 L36 20 L35 21 L35 24 L35 25 L34 25 L34 27 L33 27 Z" fill="#444444" stroke="#222222" stroke-width="0.3"/>
<path d="M20 16 L19 15 L19 15 L19 14 L19 14 L18 12 L18 12 L18 11 L18 10 L19 9 L19 9 L19 5 L20 5 L20 4 L31 4 L32 7 L32 7 L31 8 L31 11 L29 13 L29 14 L28 15 L28 14 L28 14 L28 12 L27 12 L27 12 L27 13 L26 14 L26 15 L25 14 L24 15 L22 15 L21 14 L21 14 L20 15 L19 15 L20 16 Z" fill="#444444" stroke="#222222" stroke-width="0.3"/>
<path d="M19 6 L19 9 L19 9 L18 10 L18 11 L18 12 L18 12 L19 13 L18 14 L17 15 L16 15 L15 15 L15 15 L14 16 L12 17 L12 16 L12 15 L11 15 L11 14 L12 14 L11 13 L11 11 L11 11 L11 11 L10 10 L11 9 L12 8 L12 5 L12 4 L11 3 L12 2 L19 6 Z" fill="#444444" stroke="#222222" stroke-width="0.3"/>
<path d="M13 49 L13 48 L14 49 L15 49 L16 49 L16 45 L17 46 L17 47 L17 47 L19 46 L20 46 L21 46 L21 45 L22 45 L22 44 L24 43 L26 43 L27 45 L27 46 L26 46 L26 47 L26 48 L27 47 L27 47 L27 47 L27 49 L23 52 L21 54 L18 53 L16 54 L15 54 L14 52 L14 52 L14 51 L13 49 Z" fill="#444444" stroke="#222222" stroke-width="0.3"/>
<path d="M24 49 L24 49 L24 50 L23 50 L23 51 L22 50 L23 49 L24 49 Z" fill="#444444" stroke="#222222" stroke-width="0.3"/>
<path d="M26 43 L24 43 L23 42 L23 41 L22 40 L21 39 L22 39 L24 38 L25 37 L25 37 L26 37 L27 38 L27 41 L26 43 Z" fill="#444444" stroke="#222222" stroke-width="0.3"/>
<path d="M24 43 L22 44 L22 45 L21 45 L21 46 L20 46 L19 46 L17 47 L17 47 L17 46 L16 45 L16 43 L17 43 L17 39 L19 39 L19 40 L21 39 L22 40 L23 41 L23 42 L24 43 Z" fill="#444444" stroke="#222222" stroke-width="0.3"/>
<path d="M16 43 L16 49 L15 49 L14 49 L13 48 L13 49 L12 47 L11 43 L9 39 L9 39 L10 38 L11 39 L14 39 L15 39 L17 39 L20 39 L21 39 L19 40 L19 39 L17 39 L17 43 L16 43 Z" fill="#444444" stroke="#222222" stroke-width="0.3"/>
<path d="M-17 11 L-18 10 L-17 10 L-16 8 L-15 8 L-14 9 L-13 10 L-12 12 L-16 12 L-17 12 L-17 11 L-14 11 L-14 11 L-15 11 L-15 11 L-17 11 Z" fill="#444444" stroke="#222222" stroke-width="0.3"/>
<path d="M-12 12 L-13 10 L-12 9 L-11 10 L-10 9 L-7 9 L-7 9 L-8 1 L-6 1 L-0 5 L-0 5 L1 6 L1 6 L2 6 L2 8 L1 9 L-1 9 L-1 10 L-3 10 L-5 11 L-5 11 L-7 13 L-7 14 L-7 14 L-7 14 L-8 14 L-9 14 L-9 14 L-10 14 L-9 13 L-10 12 L-11 13 L-12 12 L-12 12 Z" fill="#444444" stroke="#222222" stroke-width="0.3"/>
<path d="M-17 4 L-17 4 L-13 4 L-14 3 L-13 2 L-13 2 L-13 -0 L-10 0 L-10 -1 L-6 1 L-8 1 L-7 9 L-7 9 L-10 9 L-11 10 L-12 9 L-13 10 L-14 9 L-15 8 L-16 8 L-17 9 L-16 7 L-16 5 L-17 4 Z" fill="#444444" stroke="#222222" stroke-width="0.3"/>
<path d="M1 18 L-0 18 L-0 15 L-1 14 L-1 13 L1 12 L1 13 L2 14 L1 14 L1 16 L1 18 Z" fill="#444444" stroke="#222222" stroke-width="0.3"/>
<path d="M11 3 L12 4 L12 5 L12 8 L11 9 L10 10 L11 11 L11 11 L11 11 L11 12 L10 11 L9 12 L8 11 L6 12 L5 11 L4 11 L3 11 L2 11 L1 13 L1 12 L0 13 L0 12 L-1 12 L-2 11 L-2 10 L1 9 L2 8 L2 6 L3 6 L9 2 L10 3 L11 3 L11 3 Z" fill="#444444" stroke="#222222" stroke-width="0.3"/>
<path d="M1 18 L1 16 L1 14 L1 12 L2 11 L3 11 L4 11 L5 11 L6 12 L8 11 L9 12 L10 11 L11 12 L10 14 L9 17 L8 17 L7 17 L6 17 L6 19 L3 19 L2 18 L1 18 Z" fill="#444444" stroke="#222222" stroke-width="0.3"/>
<path d="M11 12 L11 12 L11 13 L12 14 L11 14 L11 15 L12 15 L12 16 L11 18 L11 19 L12 20 L12 22 L11 21 L7 21 L7 20 L6 19 L6 18 L6 17 L7 17 L8 17 L9 17 L10 14 L11 13 L11 12 L11 12 L11 12 Z" fill="#444444" stroke="#222222" stroke-width="0.3"/>
<path d="M-1 13 L-1 14 L-0 15 L-0 18 L-1 18 L-1 17 L-1 16 L-2 14 L-2 14 L-2 13 L-1 13 Z" fill="#444444" stroke="#222222" stroke-width="0.3"/>
<path d="M-2 13 L-1 16 L-1 17 L-1 18 L-4 19 L-4 19 L-5 18 L-4 16 L-5 13 L-2 13 Z" fill="#444444" stroke="#222222" stroke-width="0.3"/>
<path d="M-9 14 L-8 14 L-7 14 L-7 14 L-7 14 L-6 15 L-5 14 L-4 15 L-4 16 L-5 18 L-4 19 L-6 19 L-9 19 L-9 18 L-10 17 L-9 16 L-9 16 L-9 14 L-9 14 Z" fill="#444444" stroke="#222222" stroke-width="0.3"/>
<path d="M-14 12 L-12 12 L-12 12 L-12 12 L-11 13 L-10 12 L-9 13 L-10 14 L-9 14 L-9 14 L-9 14 L-9 16 L-9 16 L-9 16 L-10 17 L-11 16 L-11 16 L-11 15 L-12 14 L-13 14 L-14 15 L-15 13 L-15 13 L-14 13 L-14 12 Z" fill="#444444" stroke="#222222" stroke-width="0.3"/>
<path d="M-17 12 L-14 12 L-14 13 L-15 13 L-15 13 L-16 13 L-17 12 Z" fill="#444444" stroke="#222222" stroke-width="0.3"/>
<path d="M-9 16 L-10 17 L-9 18 L-9 19 L-10 19 L-12 17 L-11 16 L-11 16 L-10 17 L-9 16 Z" fill="#444444" stroke="#222222" stroke-width="0.3"/>
<path d="M-14 15 L-13 14 L-12 14 L-11 15 L-11 16 L-11 16 L-12 17 L-13 16 L-14 15 Z" fill="#444444" stroke="#222222" stroke-width="0.3"/>
<path d="M-7 14 L-7 13 L-6 12 L-6 11 L-5 11 L-3 10 L-2 10 L-2 11 L-1 12 L0 12 L-0 13 L-1 13 L-5 13 L-4 15 L-5 14 L-6 15 L-7 14 Z" fill="#444444" stroke="#222222" stroke-width="0.3"/>
<path d="M23 18 L21 18 L20 19 L20 19 L19 19 L19 19 L18 20 L16 19 L15 19 L15 20 L13 20 L12 21 L12 20 L11 19 L11 18 L11 18 L12 17 L14 16 L15 15 L15 15 L16 15 L17 15 L18 14 L19 13 L19 14 L19 15 L21 16 L22 18 L23 18 Z" fill="#444444" stroke="#222222" stroke-width="0.3"/>
<path d="M15 20 L14 24 L13 25 L12 26 L12 26 L11 28 L11 27 L10 27 L10 28 L9 27 L9 28 L8 27 L9 26 L8 26 L9 25 L9 25 L10 25 L11 25 L11 24 L11 24 L10 23 L11 22 L10 22 L10 21 L12 22 L13 20 L13 20 L15 20 Z" fill="#444444" stroke="#222222" stroke-width="0.3"/>
<path d="M8 21 L10 21 L10 22 L11 22 L10 23 L11 24 L11 24 L11 25 L10 25 L9 25 L9 25 L8 26 L9 26 L8 27 L6 24 L7 22 L8 22 L8 21 Z" fill="#444444" stroke="#222222" stroke-width="0.3"/>
<path d="M7 21 L8 21 L8 22 L7 22 L6 22 L7 21 Z" fill="#444444" stroke="#222222" stroke-width="0.3"/>
<path d="M26 31 L28 32 L28 33 L28 34 L28 34 L27 35 L28 36 L25 36 L25 37 L24 38 L22 39 L21 39 L20 39 L19 39 L18 38 L18 35 L20 35 L19 33 L20 33 L20 33 L21 33 L21 34 L22 34 L22 34 L23 34 L23 34 L24 35 L25 35 L25 34 L24 34 L23 34 L24 32 L24 31 L24 31 L26 31 Z" fill="#444444" stroke="#222222" stroke-width="0.3"/>
<path d="M27 31 L28 32 L29 32 L29 35 L30 36 L30 36 L30 37 L30 38 L29 38 L29 38 L29 36 L27 35 L28 34 L28 34 L28 33 L27 31 Z" fill="#444444" stroke="#222222" stroke-width="0.3"/>
<path d="M29 33 L32 34 L33 33 L34 32 L35 36 L33 38 L32 39 L29 41 L29 41 L30 43 L30 45 L28 46 L27 46 L28 47 L27 47 L27 47 L26 46 L27 45 L26 43 L27 41 L27 38 L26 37 L25 37 L25 36 L28 36 L29 36 L29 38 L29 38 L30 38 L30 37 L30 36 L30 36 L29 35 L29 34 L29 33 Z" fill="#444444" stroke="#222222" stroke-width="0.3"/>
<path d="M27 47 L27 47 L26 48 L26 47 L26 46 L27 46 L27 47 Z" fill="#444444" stroke="#222222" stroke-width="0.3"/>
<path d="M10 27 L9 28 L9 28 L9 28 L9 27 L10 27 Z M9 29 L13 28 L14 30 L15 30 L15 30 L16 29 L17 29 L16 30 L18 30 L18 33 L19 33 L19 33 L20 33 L20 35 L18 35 L18 38 L19 39 L17 39 L15 39 L14 39 L11 39 L10 38 L9 39 L9 36 L10 34 L10 33 L10 31 L10 31 L9 29 Z" fill="#444444" stroke="#222222" stroke-width="0.3"/>
<path d="M25 25 L26 26 L25 27 L24 27 L24 26 L25 26 L25 25 L25 25 Z" fill="#444444" stroke="#222222" stroke-width="0.3"/>
<path d="M42 34 L43 35 L43 37 L43 37 L43 37 L43 37 L43 38 L40 45 L39 46 L37 46 L37 44 L37 42 L37 42 L38 41 L37 39 L38 38 L40 37 L41 36 L41 36 L41 35 L41 35 L42 34 Z" fill="#cc3333" stroke="#222222" stroke-width="0.3"/>
<path d="M-17 11 L-15 11 L-15 11 L-14 11 L-14 11 L-17 11 L-17 11 Z" fill="#444444" stroke="#222222" stroke-width="0.3"/>
<path d="M7 -4 L6 -6 L5 -7 L5 -7 L5 -8 L6 -10 L7 -10 L7 -10 L7 -10 L8 -10 L8 -9 L8 -9 L8 -9 L8 -8 L7 -8 L7 -7 L8 -7 L8 -6 L8 -6 L7 -5 L7 -4 L7 -4 Z" fill="#444444" stroke="#222222" stroke-width="0.3"/>
<path d="M-10 -1 L-10 -3 L-7 -4 L-6 -4 L-5 -4 L-5 -5 L-3 -6 L-3 -6 L-4 -8 L-3 -9 L-1 -10 L3 -10 L4 -10 L6 -10 L5 -8 L5 -7 L5 -7 L6 -6 L7 -3 L7 -1 L6 -0 L7 1 L8 1 L9 2 L3 6 L1 6 L1 6 L-0 5 L-0 5 L-10 -1 Z" fill="#444444" stroke="#222222" stroke-width="0.3"/>
<path d="M31 10 L31 8 L32 7 L33 9 L37 12 L36 12 L35 11 L34 10 L33 10 L33 10 L32 10 L32 10 L31 10 Z" fill="#444444" stroke="#222222" stroke-width="0.3"/>
<path d="M-4 -8 L-3 -6 L-3 -6 L-5 -5 L-5 -4 L-6 -4 L-7 -4 L-10 -3 L-10 -1 L-12 -1 L-13 1 L-14 2 L-15 4 L-17 4 L-16 2 L-15 1 L-15 -0 L-14 -1 L-13 -2 L-12 -2 L-10 -4 L-11 -5 L-10 -6 L-10 -7 L-8 -7 L-7 -9 L-7 -9 L-6 -8 L-4 -8 Z" fill="#444444" stroke="#222222" stroke-width="0.3"/>
<path d="M31 4 L20 4 L20 -3 L20 -4 L20 -5 L21 -5 L22 -5 L24 -4 L26 -5 L26 -5 L27 -4 L27 -5 L28 -5 L29 -5 L29 -3 L29 -2 L28 -2 L28 -2 L27 -3 L29 -0 L30 2 L30 3 L31 4 Z" fill="#444444" stroke="#222222" stroke-width="0.3"/>
<path d="M20 -3 L20 5 L19 5 L19 6 L12 2 L11 3 L10 3 L9 2 L8 1 L7 1 L6 -0 L7 -1 L7 -3 L7 -4 L7 -4 L7 -5 L8 -6 L8 -6 L12 -6 L12 -5 L15 -4 L16 -5 L16 -5 L17 -6 L19 -6 L19 -6 L20 -5 L21 -5 L20 -5 L20 -4 L20 -3 Z" fill="#444444" stroke="#222222" stroke-width="0.3"/>
<path d="M41 16 L38 19 L37 19 L36 20 L35 20 L35 19 L33 20 L32 20 L31 19 L30 19 L30 19 L30 18 L30 18 L29 17 L28 16 L28 16 L28 16 L28 16 L29 14 L30 12 L31 10 L32 10 L32 10 L33 10 L33 10 L34 10 L35 11 L36 12 L35 13 L35 13 L36 13 L36 14 L37 15 L40 16 L41 16 Z" fill="#444444" stroke="#222222" stroke-width="0.3"/>
<path d="M36 12 L37 12 L37 12 L37 12 L36 13 L37 13 L36 13 L35 13 L35 13 L36 12 Z" fill="#444444" stroke="#222222" stroke-width="0.3"/>
<path d="M42 13 L42 15 L41 16 L40 16 L37 15 L36 14 L37 13 L38 14 L42 13 Z" fill="#444444" stroke="#222222" stroke-width="0.3"/>
<path d="M28 24 L26 24 L25 24 L25 23 L26 21 L26 21 L26 20 L26 20 L27 20 L28 20 L29 19 L29 20 L29 21 L28 23 L28 24 Z" fill="#444444" stroke="#222222" stroke-width="0.3"/>
<path d="M25 24 L26 25 L26 25 L25 25 L25 26 L24 26 L24 25 L25 24 Z" fill="#444444" stroke="#222222" stroke-width="0.3"/>
<path d="M26 20 L25 19 L23 19 L22 18 L22 18 L22 17 L21 16 L21 16 L19 15 L20 15 L21 14 L21 14 L22 15 L24 15 L25 14 L26 15 L26 14 L27 13 L27 12 L28 12 L28 14 L28 14 L28 15 L28 16 L28 16 L28 16 L28 16 L29 17 L30 18 L28 20 L27 20 L26 20 L26 20 Z" fill="#444444" stroke="#222222" stroke-width="0.3"/>
</svg>