<svg xmlns="http://www.w3.org/2000/svg" viewBox="0 0 80 80" width="80" height="80">
<path d="M39 21 L46 24 L46 25 L48 27 L47 29 L47 30 L48 30 L48 33 L50 36 L48 37 L44 38 L41 38 L40 35 L39 34 L34 33 L34 30 L33 30 L32 26 L33 26 L34 25 L34 23 L34 23 L35 22 L34 21 L39 21 Z" fill="#444444" stroke="#222222" stroke-width="0.3"/>
<path d="M-29 -25 L-29 -22 L-34 -22 L-34 -18 L-35 -18 L-36 -17 L-36 -15 L-42 -15 L-42 -14 L-42 -15 L-38 -15 L-37 -19 L-35 -20 L-34 -23 L-34 -23 L-33 -24 L-29 -24 L-29 -25 Z" fill="#444444" stroke="#222222" stroke-width="0.3"/>
<path d="M32 24 L33 30 L34 30 L34 33 L31 33 L31 34 L31 35 L31 38 L32 39 L33 39 L33 40 L32 40 L30 39 L29 39 L29 38 L28 38 L26 38 L26 37 L24 37 L24 37 L21 37 L20 31 L18 31 L18 30 L17 30 L16 31 L16 32 L13 32 L11 29 L5 29 L5 28 L5 27 L7 26 L8 26 L9 27 L11 25 L11 24 L11 22 L13 20 L15 12 L16 11 L21 13 L22 12 L22 12 L24 11 L25 11 L26 11 L29 11 L30 12 L31 12 L33 12 L35 14 L34 15 L35 16 L33 18 L32 24 Z" fill="#444444" stroke="#222222" stroke-width="0.3"/>
<path d="M52 22 L51 21 L51 15 L53 12 L54 12 L55 11 L57 11 L64 4 L64 1 L67 -0 L67 2 L66 4 L63 11 L60 15 L54 19 L52 22 Z" fill="#444444" stroke="#222222" stroke-width="0.3"/>
<path d="M48 27 L46 25 L46 24 L39 21 L39 19 L41 16 L40 12 L42 10 L43 11 L43 12 L43 12 L44 12 L46 13 L49 14 L50 12 L51 13 L52 13 L51 15 L51 21 L52 22 L50 23 L49 26 L48 27 Z" fill="#444444" stroke="#222222" stroke-width="0.3"/>
<path d="M25 6 L23 5 L23 5 L23 3 L22 2 L21 -1 L20 -1 L21 -3 L21 -4 L22 -6 L23 -6 L23 -13 L25 -13 L25 -16 L44 -16 L45 -11 L47 -10 L44 -8 L43 -3 L41 2 L40 2 L40 5 L39 3 L38 2 L38 -0 L38 -0 L37 -0 L37 1 L35 3 L35 4 L33 3 L32 4 L28 4 L26 2 L25 3 L24 5 L23 5 L25 6 Z" fill="#444444" stroke="#222222" stroke-width="0.3"/>
<path d="M23 -12 L23 -6 L22 -6 L21 -4 L21 -3 L20 -1 L21 -1 L22 1 L20 2 L19 4 L17 5 L15 5 L15 5 L14 7 L10 7 L10 7 L9 5 L8 4 L8 3 L10 3 L9 2 L9 -2 L8 -2 L8 -3 L7 -4 L8 -6 L10 -7 L11 -13 L9 -15 L9 -17 L11 -18 L23 -12 Z" fill="#444444" stroke="#222222" stroke-width="0.3"/>
<path d="M11 65 L12 64 L13 65 L15 66 L17 65 L17 59 L18 61 L19 62 L20 62 L23 60 L24 60 L26 60 L27 59 L28 59 L29 57 L32 55 L35 55 L36 58 L36 61 L35 60 L34 62 L35 63 L36 63 L37 62 L38 62 L37 65 L30 72 L26 74 L21 73 L17 75 L15 74 L14 71 L14 71 L14 70 L11 65 Z" fill="#444444" stroke="#222222" stroke-width="0.3"/>
<path d="M31 65 L32 66 L31 67 L30 68 L30 68 L28 67 L30 65 L31 65 Z" fill="#444444" stroke="#222222" stroke-width="0.3"/>
<path d="M35 55 L32 55 L30 54 L30 52 L27 50 L26 48 L28 48 L32 45 L34 44 L34 45 L35 45 L38 46 L37 52 L35 55 Z" fill="#444444" stroke="#222222" stroke-width="0.3"/>
<path d="M32 55 L29 57 L28 59 L27 59 L26 60 L24 60 L23 60 L20 62 L19 62 L18 61 L17 59 L17 54 L19 54 L19 48 L22 48 L23 48 L26 48 L27 50 L30 52 L30 54 L32 55 Z" fill="#444444" stroke="#222222" stroke-width="0.3"/>
<path d="M17 54 L17 65 L15 66 L13 65 L12 64 L11 65 L10 63 L8 55 L4 48 L4 47 L7 46 L8 47 L14 47 L16 48 L19 48 L24 47 L25 47 L23 48 L22 48 L19 48 L19 54 L17 54 Z" fill="#444444" stroke="#222222" stroke-width="0.3"/>
<path d="M-42 -3 L-43 -4 L-42 -5 L-41 -7 L-38 -7 L-36 -7 L-34 -4 L-33 -1 L-40 -1 L-42 -1 L-42 -2 L-37 -2 L-37 -3 L-38 -3 L-39 -3 L-42 -3 Z" fill="#444444" stroke="#222222" stroke-width="0.3"/>
<path d="M-33 -0 L-34 -4 L-33 -5 L-32 -5 L-30 -6 L-24 -6 L-23 -7 L-25 -21 L-23 -21 L-12 -14 L-12 -13 L-10 -12 L-10 -11 L-8 -12 L-8 -8 L-9 -6 L-13 -5 L-13 -5 L-17 -5 L-20 -3 L-21 -2 L-23 0 L-23 3 L-24 3 L-25 2 L-26 3 L-28 3 L-28 2 L-29 2 L-28 1 L-29 -1 L-31 0 L-32 -0 L-33 -0 Z" fill="#444444" stroke="#222222" stroke-width="0.3"/>
<path d="M-42 -14 L-42 -15 L-36 -15 L-36 -17 L-35 -18 L-34 -18 L-34 -22 L-29 -22 L-29 -25 L-23 -21 L-25 -21 L-23 -7 L-24 -6 L-30 -6 L-32 -5 L-33 -5 L-34 -4 L-36 -7 L-38 -7 L-41 -7 L-41 -7 L-41 -10 L-41 -13 L-42 -14 Z" fill="#444444" stroke="#222222" stroke-width="0.3"/>
<path d="M-10 9 L-12 9 L-12 5 L-14 2 L-12 1 L-10 -0 L-9 0 L-9 2 L-9 3 L-10 6 L-10 9 Z" fill="#444444" stroke="#222222" stroke-width="0.3"/>
<path d="M9 -17 L9 -15 L11 -13 L10 -7 L8 -6 L7 -4 L8 -3 L8 -2 L9 -2 L8 -1 L6 -3 L5 -2 L3 -2 L-0 -1 L-2 -2 L-4 -2 L-6 -3 L-8 -3 L-9 0 L-10 -0 L-11 0 L-11 -1 L-13 -1 L-14 -3 L-14 -5 L-9 -6 L-8 -8 L-8 -12 L-6 -12 L4 -18 L7 -18 L8 -17 L9 -17 Z" fill="#444444" stroke="#222222" stroke-width="0.3"/>
<path d="M-10 9 L-10 6 L-9 3 L-9 -1 L-8 -3 L-6 -3 L-4 -2 L-2 -2 L-0 -1 L3 -2 L5 -2 L6 -3 L9 -0 L7 2 L4 8 L3 9 L1 8 L-0 9 L-1 12 L-5 12 L-8 9 L-10 9 Z" fill="#444444" stroke="#222222" stroke-width="0.3"/>
<path d="M8 -1 L9 -0 L9 2 L10 3 L8 3 L8 4 L9 5 L10 7 L8 9 L8 12 L11 14 L11 16 L8 16 L1 16 L1 14 L-1 12 L-1 10 L-0 9 L1 8 L3 9 L4 8 L7 2 L8 1 L9 -0 L8 -1 L8 -1 Z" fill="#444444" stroke="#222222" stroke-width="0.3"/>
<path d="M-13 2 L-14 2 L-12 5 L-12 9 L-13 10 L-14 8 L-14 6 L-14 3 L-15 2 L-15 2 L-13 2 Z" fill="#444444" stroke="#222222" stroke-width="0.3"/>
<path d="M-15 2 L-14 6 L-14 8 L-13 10 L-18 12 L-19 11 L-20 9 L-19 6 L-20 2 L-15 2 Z" fill="#444444" stroke="#222222" stroke-width="0.3"/>
<path d="M-28 3 L-26 3 L-25 2 L-24 3 L-23 3 L-22 4 L-20 3 L-19 4 L-19 6 L-20 9 L-19 11 L-22 11 L-27 12 L-27 10 L-29 9 L-28 6 L-27 5 L-28 3 L-28 3 Z" fill="#444444" stroke="#222222" stroke-width="0.3"/>
<path d="M-37 -1 L-33 -1 L-33 -0 L-32 -0 L-31 0 L-29 -1 L-28 1 L-29 2 L-28 2 L-28 3 L-28 3 L-27 5 L-28 6 L-28 7 L-30 7 L-30 5 L-32 6 L-32 4 L-33 3 L-35 3 L-36 5 L-39 1 L-38 1 L-37 0 L-37 -1 Z" fill="#444444" stroke="#222222" stroke-width="0.3"/>
<path d="M-42 -1 L-37 -1 L-37 0 L-38 1 L-39 1 L-41 1 L-42 -1 Z" fill="#444444" stroke="#222222" stroke-width="0.3"/>
<path d="M-28 7 L-29 9 L-27 10 L-27 12 L-29 11 L-33 8 L-31 6 L-30 5 L-30 7 L-28 7 Z" fill="#444444" stroke="#222222" stroke-width="0.3"/>
<path d="M-36 5 L-35 3 L-33 3 L-32 4 L-32 6 L-31 6 L-33 8 L-36 7 L-36 5 Z" fill="#444444" stroke="#222222" stroke-width="0.3"/>
<path d="M-23 3 L-23 0 L-22 -1 L-22 -2 L-20 -3 L-17 -5 L-14 -5 L-14 -3 L-13 -1 L-11 -1 L-12 1 L-13 2 L-20 2 L-19 4 L-20 3 L-22 4 L-23 3 Z" fill="#444444" stroke="#222222" stroke-width="0.3"/>
<path d="M29 11 L26 11 L25 11 L24 11 L22 12 L22 12 L21 13 L16 11 L15 12 L15 14 L13 13 L11 16 L11 14 L8 12 L8 10 L8 9 L10 7 L14 7 L15 5 L15 5 L17 5 L19 4 L20 2 L22 1 L23 3 L23 5 L25 7 L28 10 L29 11 Z" fill="#444444" stroke="#222222" stroke-width="0.3"/>
<path d="M15 14 L13 20 L11 22 L11 24 L11 25 L9 27 L8 26 L7 26 L6 27 L5 26 L4 27 L3 26 L4 25 L4 24 L5 23 L5 22 L6 23 L8 23 L8 21 L8 20 L7 19 L8 17 L6 17 L6 16 L11 16 L12 14 L13 13 L15 14 Z" fill="#444444" stroke="#222222" stroke-width="0.3"/>
<path d="M3 16 L6 15 L6 17 L8 17 L7 19 L8 20 L8 21 L8 23 L6 23 L5 22 L5 23 L4 24 L4 25 L3 26 L-1 21 L0 18 L3 17 L3 16 Z" fill="#444444" stroke="#222222" stroke-width="0.3"/>
<path d="M1 16 L3 16 L3 17 L0 18 L0 17 L1 16 Z" fill="#444444" stroke="#222222" stroke-width="0.3"/>
<path d="M34 33 L38 35 L39 36 L38 38 L39 39 L38 41 L38 42 L34 43 L34 44 L32 45 L28 48 L26 48 L25 47 L22 47 L20 45 L20 40 L24 40 L23 37 L24 37 L24 37 L26 37 L26 38 L28 38 L29 38 L29 39 L30 39 L32 40 L33 40 L33 39 L32 39 L31 38 L31 35 L31 34 L32 33 L34 33 Z" fill="#444444" stroke="#222222" stroke-width="0.3"/>
<path d="M38 34 L39 34 L40 35 L41 41 L42 41 L42 43 L42 45 L42 45 L41 46 L40 45 L40 43 L38 41 L39 39 L38 38 L39 36 L38 34 Z" fill="#cc3333" stroke="#222222" stroke-width="0.3"/>
<path d="M41 38 L45 38 L48 37 L50 36 L50 43 L48 46 L45 47 L41 51 L41 52 L42 55 L42 58 L38 60 L37 60 L38 61 L38 62 L37 62 L36 60 L36 58 L35 55 L37 52 L38 46 L35 45 L34 45 L34 43 L38 42 L40 43 L40 45 L41 46 L42 45 L42 45 L42 43 L42 41 L41 41 L40 39 L41 38 Z" fill="#444444" stroke="#222222" stroke-width="0.3"/>
<path d="M37 62 L36 63 L35 63 L34 62 L35 60 L36 61 L37 62 Z" fill="#444444" stroke="#222222" stroke-width="0.3"/>
<path d="M6 27 L5 27 L5 28 L4 27 L5 26 L6 27 Z M5 29 L11 29 L13 32 L16 32 L16 31 L17 30 L18 30 L18 31 L20 31 L21 37 L23 37 L23 37 L24 37 L24 40 L20 40 L20 45 L22 47 L19 48 L16 48 L14 47 L8 47 L7 46 L4 47 L5 42 L7 38 L7 37 L6 34 L6 33 L5 29 Z" fill="#444444" stroke="#222222" stroke-width="0.3"/>
<path d="M34 23 L34 25 L33 26 L32 26 L32 24 L33 24 L33 23 L34 23 Z" fill="#444444" stroke="#222222" stroke-width="0.3"/>
<path d="M64 38 L65 41 L66 44 L66 45 L65 44 L65 44 L65 46 L61 59 L58 60 L56 59 L55 56 L55 53 L55 53 L56 50 L56 47 L56 45 L59 44 L62 43 L62 42 L62 41 L63 41 L64 38 Z" fill="#444444" stroke="#222222" stroke-width="0.3"/>
<path d="M-42 -3 L-39 -3 L-38 -3 L-37 -3 L-37 -2 L-42 -2 L-42 -3 Z" fill="#444444" stroke="#222222" stroke-width="0.3"/>
<path d="M0 -29 L-0 -32 L-3 -34 L-3 -35 L-2 -36 L-1 -40 L0 -41 L2 -40 L1 -40 L3 -40 L2 -39 L2 -38 L3 -38 L2 -37 L1 -36 L2 -35 L3 -35 L4 -34 L3 -33 L1 -31 L1 -30 L0 -29 Z" fill="#444444" stroke="#222222" stroke-width="0.3"/>
<path d="M-29 -25 L-29 -27 L-23 -29 L-23 -30 L-21 -30 L-21 -31 L-17 -32 L-17 -33 L-18 -37 L-17 -38 L-12 -39 L-6 -40 L-5 -40 L-1 -40 L-2 -36 L-3 -35 L-3 -34 L-0 -32 L1 -28 L1 -23 L0 -23 L2 -20 L2 -20 L4 -18 L-6 -12 L-10 -11 L-10 -12 L-12 -13 L-12 -14 L-29 -25 Z" fill="#444444" stroke="#222222" stroke-width="0.3"/>
<path d="M44 -4 L44 -8 L47 -10 L48 -6 L54 -1 L53 -1 L51 -3 L49 -4 L48 -4 L47 -4 L46 -5 L45 -4 L44 -4 Z" fill="#444444" stroke="#222222" stroke-width="0.3"/>
<path d="M-18 -37 L-17 -33 L-17 -32 L-21 -31 L-21 -30 L-23 -30 L-23 -29 L-29 -27 L-29 -24 L-33 -24 L-35 -20 L-37 -19 L-38 -15 L-42 -15 L-40 -19 L-39 -20 L-38 -23 L-37 -23 L-35 -26 L-34 -26 L-30 -29 L-31 -31 L-30 -33 L-29 -34 L-26 -35 L-24 -38 L-23 -38 L-22 -37 L-18 -37 Z" fill="#444444" stroke="#222222" stroke-width="0.3"/>
<path d="M44 -16 L25 -16 L25 -28 L25 -29 L25 -31 L25 -31 L28 -31 L31 -30 L35 -31 L36 -31 L36 -30 L37 -31 L39 -30 L40 -31 L41 -28 L40 -25 L40 -25 L38 -26 L37 -28 L40 -23 L42 -19 L42 -18 L44 -16 Z" fill="#444444" stroke="#222222" stroke-width="0.3"/>
<path d="M25 -28 L25 -13 L23 -13 L23 -12 L11 -18 L8 -17 L7 -18 L4 -18 L2 -20 L2 -20 L0 -23 L1 -23 L1 -27 L0 -29 L1 -30 L1 -31 L3 -33 L4 -34 L10 -32 L10 -31 L16 -29 L17 -30 L17 -32 L19 -33 L22 -33 L22 -32 L25 -32 L25 -31 L25 -31 L25 -29 L25 -28 Z" fill="#444444" stroke="#222222" stroke-width="0.3"/>
<path d="M62 6 L57 11 L55 11 L52 13 L51 13 L50 12 L49 14 L46 13 L44 12 L43 12 L43 12 L43 11 L42 10 L41 9 L39 7 L38 7 L39 6 L39 6 L40 2 L43 -1 L44 -4 L45 -4 L46 -5 L47 -4 L48 -4 L49 -4 L52 -2 L53 -1 L52 1 L52 1 L54 2 L53 2 L55 4 L60 6 L62 6 Z" fill="#444444" stroke="#222222" stroke-width="0.3"/>
<path d="M53 -1 L54 -1 L55 -1 L54 -0 L54 0 L54 1 L54 2 L52 1 L52 1 L53 -1 Z" fill="#444444" stroke="#222222" stroke-width="0.3"/>
<path d="M64 1 L64 4 L62 6 L60 6 L55 4 L53 2 L54 1 L56 2 L64 1 Z" fill="#444444" stroke="#222222" stroke-width="0.3"/>
<path d="M39 21 L34 21 L33 21 L33 18 L35 16 L34 15 L35 14 L35 13 L36 13 L39 13 L40 12 L40 13 L41 16 L39 19 L39 21 Z" fill="#444444" stroke="#222222" stroke-width="0.3"/>
<path d="M34 21 L35 22 L34 23 L33 23 L33 24 L32 24 L32 22 L34 21 Z" fill="#444444" stroke="#222222" stroke-width="0.3"/>
<path d="M35 14 L33 12 L30 12 L29 10 L28 10 L27 9 L25 7 L25 7 L23 5 L24 5 L25 3 L26 2 L28 4 L32 4 L33 3 L35 4 L35 3 L37 1 L37 -0 L38 -0 L38 2 L39 3 L40 5 L39 6 L39 6 L38 7 L39 7 L40 8 L42 10 L39 13 L36 13 L35 13 L35 14 Z" fill="#444444" stroke="#222222" stroke-width="0.3"/>
</svg>