<svg xmlns="http://www.w3.org/2000/svg" viewBox="0 0 80 80" width="80" height="80">
<path d="M33 31 L42 31 L42 31 L42 31 L43 31 L44 32 L44 32 L45 32 L46 32 L46 32 L46 32 L46 32 L46 32 L47 33 L47 33 L46 34 L47 34 L48 33 L48 33 L48 33 L49 33 L49 33 L50 33 L51 33 L51 32 L52 32 L52 32 L52 33 L51 33 L51 33 L51 34 L51 34 L51 34 L51 34 L51 34 L51 34 L50 34 L50 34 L50 34 L50 34 L50 34 L50 34 L49 35 L49 35 L49 35 L49 35 L49 35 L49 35 L49 35 L49 35 L49 35 L49 35 L49 35 L49 36 L49 36 L48 37 L47 37 L47 38 L48 39 L47 39 L47 39 L47 39 L47 39 L47 38 L46 38 L46 38 L46 38 L45 38 L44 38 L44 38 L44 38 L44 38 L44 38 L43 38 L43 38 L42 39 L42 39 L42 39 L42 39 L41 39 L41 39 L40 38 L40 38 L40 38 L40 38 L39 38 L39 38 L39 38 L38 37 L38 37 L38 37 L37 37 L36 37 L36 37 L35 37 L35 37 L34 36 L34 36 L34 36 L33 36 L33 35 L33 35 L32 34 L32 34 L32 34 L32 33 L32 32 L32 32 L32 32 L32 32 L33 32 L33 32 L33 32 L33 31 Z M22 41 L22 41 L22 42 L21 41 L22 41 Z M21 41 L21 41 L21 41 L21 41 L21 41 Z M21 41 L21 41 L21 41 L21 41 Z M21 41 L21 41 L21 41 L21 41 L21 41 L21 41 Z M20 40 L20 41 L20 41 L20 40 L20 40 Z M18 27 L18 27 L18 28 L18 28 L18 27 Z M22 28 L23 28 L22 29 L22 29 L22 28 L22 28 Z M27 24 L27 27 L27 28 L28 28 L29 28 L29 28 L30 29 L30 29 L30 29 L30 29 L30 29 L30 29 L29 28 L29 28 L28 28 L27 28 L26 27 L26 28 L25 27 L24 27 L24 28 L23 28 L23 28 L23 27 L23 27 L23 27 L22 28 L22 28 L22 28 L21 28 L21 29 L21 29 L21 29 L19 29 L18 29 L19 29 L20 29 L21 29 L21 28 L21 28 L21 28 L20 28 L20 28 L20 28 L20 28 L19 28 L19 28 L19 28 L19 28 L18 27 L18 27 L18 27 L18 27 L19 26 L19 26 L19 26 L20 26 L20 26 L20 26 L20 26 L19 26 L18 26 L18 26 L17 26 L19 25 L19 25 L19 25 L20 25 L18 25 L18 25 L18 24 L19 24 L19 24 L19 24 L19 24 L21 24 L21 24 L22 24 L22 24 L23 24 L23 24 L23 24 L25 24 L26 24 L27 24 Z M16 26 L16 26 L17 26 L17 27 L16 26 L16 26 L16 26 Z" fill="#444444" stroke="#222222" stroke-width="0.3"/>
<path d="M50 41 L50 42 L50 42 L50 42 L50 42 L49 42 L49 42 L50 42 L50 42 L50 41 L50 41 L50 41 L50 41 Z" fill="#444444" stroke="#222222" stroke-width="0.3"/>
<path d="M50 42 L50 42 L50 41 L51 41 L51 41 L51 41 L51 42 L52 42 L51 42 L51 42 L51 42 L51 42 L50 42 Z" fill="#444444" stroke="#222222" stroke-width="0.3"/>
<path d="M48 39 L48 39 L48 39 L48 39 L48 39 Z M48 39 L49 39 L49 39 L48 39 L48 39 Z M48 39 L48 39 L48 40 L48 40 L48 40 L48 39 Z" fill="#444444" stroke="#222222" stroke-width="0.3"/>
<path d="M35 37 L36 37 L36 37 L37 37 L38 37 L38 37 L38 37 L39 38 L39 38 L39 38 L40 38 L40 38 L40 38 L40 38 L41 39 L41 39 L42 39 L41 40 L41 40 L42 41 L42 42 L42 42 L43 42 L44 42 L44 41 L44 41 L45 41 L45 41 L45 41 L45 41 L45 42 L45 42 L45 42 L44 42 L44 42 L44 42 L44 42 L44 43 L44 43 L43 43 L43 43 L43 43 L43 43 L42 43 L40 42 L40 42 L39 42 L39 41 L39 41 L39 41 L39 41 L39 40 L38 39 L38 39 L37 39 L37 39 L37 39 L37 39 L36 38 L36 37 L36 37 L36 37 L36 38 L37 39 L37 40 L37 40 L37 40 L37 40 L37 40 L37 40 L36 39 L36 39 L36 39 L36 38 L35 38 L35 37 Z" fill="#cc3333" stroke="#222222" stroke-width="0.3"/>
<path d="M48 45 L48 45 L48 45 L48 46 L48 45 L48 45 L48 45 L47 45 L48 46 L47 46 L47 45 L47 45 L47 45 L47 45 L47 45 L47 45 L47 45 L47 45 L47 45 L48 45 L48 45 L48 45 Z" fill="#444444" stroke="#222222" stroke-width="0.3"/>
<path d="M47 45 L47 45 L47 45 L47 45 L46 45 L46 45 L46 45 L46 45 L46 45 L46 44 L46 44 L46 44 L46 44 L46 44 L47 45 Z" fill="#444444" stroke="#222222" stroke-width="0.3"/>
<path d="M46 44 L46 44 L46 44 L45 44 L45 44 L45 43 L45 43 L46 43 L46 43 L46 43 L46 43 L46 44 L46 44 Z" fill="#444444" stroke="#222222" stroke-width="0.3"/>
<path d="M46 43 L46 43 L46 43 L46 43 L45 43 L45 43 L45 44 L45 44 L45 44 L45 43 L45 43 L44 43 L44 43 L45 43 L46 43 L46 43 Z" fill="#444444" stroke="#222222" stroke-width="0.3"/>
<path d="M44 43 L45 43 L45 43 L45 44 L44 43 L44 43 Z" fill="#444444" stroke="#222222" stroke-width="0.3"/>
<path d="M43 43 L43 43 L44 43 L44 43 L44 42 L44 42 L44 42 L44 42 L44 42 L44 43 L45 43 L44 43 L44 43 L44 43 L44 43 L43 43 Z" fill="#444444" stroke="#222222" stroke-width="0.3"/>
<path d="M44 42 L45 42 L45 42 L45 42 L44 43 L44 43 L44 42 Z" fill="#444444" stroke="#222222" stroke-width="0.3"/>
<path d="M52 42 L52 42 L52 42 L52 42 L52 42 Z" fill="#444444" stroke="#222222" stroke-width="0.3"/>
<path d="M48 42 L49 42 L49 42 L49 42 L48 42 Z" fill="#444444" stroke="#222222" stroke-width="0.3"/>
<path d="M47 40 L47 40 L48 40 L48 40 L49 41 L49 41 L49 41 L50 41 L49 41 L48 41 L49 41 L48 41 L48 41 L47 40 L47 40 L47 40 L46 41 L46 41 L46 40 L47 40 Z" fill="#444444" stroke="#222222" stroke-width="0.3"/>
<path d="M54 44 L54 44 L54 45 L54 45 L54 44 Z" fill="#444444" stroke="#222222" stroke-width="0.3"/>
</svg>