<svg xmlns="http://www.w3.org/2000/svg" viewBox="0 0 80 80" width="80" height="80">
<path d="M27 25 L44 25 L44 25 L44 25 L45 25 L46 25 L48 25 L48 25 L50 26 L50 26 L51 26 L51 27 L51 27 L52 27 L52 28 L51 29 L52 29 L54 28 L54 28 L54 28 L55 28 L56 27 L58 27 L59 27 L60 26 L61 26 L61 27 L61 27 L59 28 L59 28 L59 29 L59 29 L59 29 L59 29 L59 29 L59 29 L57 30 L58 30 L57 30 L57 30 L57 30 L57 30 L56 31 L56 30 L56 31 L56 32 L56 31 L55 31 L55 31 L55 31 L55 31 L55 31 L55 31 L56 33 L55 33 L54 34 L52 35 L52 36 L53 38 L53 39 L52 39 L52 39 L51 37 L52 37 L51 36 L51 36 L50 36 L49 36 L47 36 L48 37 L48 37 L47 37 L46 36 L45 36 L44 36 L43 37 L43 38 L43 39 L43 39 L42 38 L41 38 L41 37 L40 36 L40 36 L39 37 L39 37 L39 36 L38 36 L37 35 L36 35 L36 35 L35 35 L32 35 L32 35 L31 35 L31 34 L30 34 L29 33 L29 33 L28 32 L28 32 L27 31 L27 30 L27 30 L27 29 L26 29 L27 27 L27 26 L26 25 L26 25 L27 25 L28 26 L28 26 L27 25 Z M8 42 L8 42 L8 43 L8 42 L8 42 Z M8 42 L7 42 L7 42 L7 42 L8 42 Z M7 41 L7 42 L7 42 L7 41 Z M6 41 L7 41 L7 41 L6 41 L6 41 L6 41 Z M6 41 L5 41 L5 41 L5 41 L6 41 Z M1 18 L2 18 L2 18 L1 18 L1 18 Z M9 19 L10 20 L9 20 L8 20 L8 20 L9 19 Z M17 12 L17 18 L18 18 L19 19 L20 18 L21 19 L22 20 L23 21 L23 21 L23 21 L22 21 L22 20 L21 20 L21 19 L19 19 L17 18 L16 18 L15 18 L13 18 L12 18 L12 18 L10 19 L10 18 L10 18 L11 18 L11 17 L9 19 L9 19 L9 19 L7 20 L7 20 L6 20 L6 21 L3 21 L2 21 L4 21 L5 21 L6 20 L7 20 L7 19 L6 19 L6 19 L5 19 L5 19 L5 19 L4 19 L4 18 L4 18 L3 18 L2 18 L2 18 L1 17 L2 17 L2 16 L3 16 L4 16 L5 16 L5 16 L4 16 L5 15 L4 16 L2 15 L1 15 L0 15 L2 14 L3 14 L3 15 L4 14 L2 13 L1 13 L1 13 L3 13 L3 13 L3 12 L4 12 L6 12 L7 11 L8 11 L9 12 L10 12 L10 12 L11 12 L14 12 L15 12 L17 12 Z M-2 16 L-1 16 L-0 16 L-1 16 L-1 16 L-2 16 L-2 16 Z" fill="#444444" stroke="#222222" stroke-width="0.3"/>
<path d="M58 42 L58 43 L58 43 L58 43 L57 43 L57 43 L57 43 L58 43 L58 43 L58 42 L57 42 L57 42 L58 42 Z" fill="#444444" stroke="#222222" stroke-width="0.3"/>
<path d="M58 44 L58 43 L58 42 L59 42 L59 43 L60 43 L60 43 L60 43 L60 43 L59 43 L59 43 L59 43 L58 44 Z" fill="#444444" stroke="#222222" stroke-width="0.3"/>
<path d="M54 38 L54 38 L55 38 L54 38 L54 38 Z M55 38 L55 38 L55 39 L55 38 L55 38 Z M54 39 L54 39 L55 40 L55 40 L54 39 L54 39 Z" fill="#444444" stroke="#222222" stroke-width="0.3"/>
<path d="M31 35 L32 35 L32 35 L35 35 L36 35 L36 35 L37 35 L38 36 L39 36 L39 37 L39 37 L40 36 L40 36 L41 37 L41 38 L42 38 L43 39 L43 40 L42 41 L43 42 L44 43 L44 43 L45 43 L46 43 L47 43 L47 42 L49 41 L49 42 L49 42 L49 42 L48 43 L48 43 L48 43 L47 43 L47 44 L46 44 L47 44 L47 45 L46 45 L46 45 L46 45 L45 45 L44 44 L43 45 L41 44 L40 43 L39 43 L38 42 L38 42 L38 42 L38 41 L38 41 L36 39 L36 39 L36 38 L35 38 L35 37 L34 37 L34 37 L33 35 L32 35 L32 35 L32 36 L34 38 L35 40 L35 40 L36 40 L35 40 L35 40 L34 39 L34 39 L32 38 L32 38 L33 37 L32 36 L31 35 Z" fill="#cc3333" stroke="#222222" stroke-width="0.3"/>
<path d="M55 49 L55 49 L55 50 L54 50 L54 49 L54 49 L54 49 L53 49 L53 50 L53 50 L53 49 L52 50 L52 49 L52 49 L51 49 L51 48 L52 48 L52 49 L52 49 L53 48 L54 48 L55 49 Z" fill="#444444" stroke="#222222" stroke-width="0.3"/>
<path d="M52 48 L51 48 L52 49 L51 49 L51 49 L51 49 L50 48 L50 48 L50 48 L50 48 L50 48 L50 47 L51 48 L51 48 L52 48 Z" fill="#444444" stroke="#222222" stroke-width="0.3"/>
<path d="M51 48 L51 48 L50 48 L49 46 L49 46 L49 46 L50 46 L50 46 L50 45 L51 45 L51 45 L51 47 L51 48 Z" fill="#444444" stroke="#222222" stroke-width="0.3"/>
<path d="M51 45 L51 45 L50 45 L50 46 L50 46 L49 46 L49 46 L49 46 L49 46 L48 46 L48 46 L48 46 L48 45 L48 45 L50 45 L51 45 Z" fill="#444444" stroke="#222222" stroke-width="0.3"/>
<path d="M48 46 L48 46 L49 46 L48 46 L47 46 L48 46 Z" fill="#444444" stroke="#222222" stroke-width="0.3"/>
<path d="M46 45 L46 45 L46 45 L47 45 L47 44 L46 44 L47 44 L47 43 L48 43 L48 45 L48 45 L48 45 L48 46 L47 46 L46 46 L46 45 Z" fill="#444444" stroke="#222222" stroke-width="0.3"/>
<path d="M48 43 L48 43 L48 43 L48 44 L48 45 L48 45 L48 43 Z" fill="#444444" stroke="#222222" stroke-width="0.3"/>
<path d="M61 43 L62 43 L62 43 L61 43 L61 43 Z" fill="#444444" stroke="#222222" stroke-width="0.3"/>
<path d="M54 43 L55 43 L55 43 L55 44 L54 43 Z" fill="#444444" stroke="#222222" stroke-width="0.3"/>
<path d="M52 40 L53 40 L54 41 L54 41 L55 41 L56 42 L56 42 L57 42 L56 42 L55 42 L55 42 L54 42 L54 41 L52 41 L52 41 L52 41 L51 41 L50 41 L51 41 L52 40 Z" fill="#444444" stroke="#222222" stroke-width="0.3"/>
<path d="M64 48 L65 48 L65 48 L64 48 L64 48 Z" fill="#444444" stroke="#222222" stroke-width="0.3"/>
</svg>