<svg xmlns="http://www.w3.org/2000/svg" viewBox="0 0 80 80" width="80" height="80">
<path d="M34 20 L33 21 L33 21 L33 21 L32 22 L31 21 L31 23 L29 23 L30 24 L29 24 L29 25 L28 24 L26 24 L25 24 L25 24 L25 25 L23 24 L23 25 L22 25 L21 26 L21 26 L21 26 L20 25 L20 25 L20 25 L20 24 L19 24 L17 24 L16 23 L15 23 L13 23 L13 25 L13 25 L12 25 L11 25 L11 24 L10 24 L9 23 L10 23 L10 23 L11 23 L11 22 L10 22 L9 22 L8 22 L8 22 L8 21 L7 21 L7 21 L8 19 L8 20 L8 19 L10 19 L11 19 L13 19 L14 19 L15 19 L16 19 L16 19 L17 19 L17 19 L16 18 L16 18 L16 18 L17 18 L16 17 L17 17 L19 17 L22 16 L23 16 L23 17 L24 17 L25 17 L25 17 L25 17 L27 17 L27 17 L28 17 L29 19 L29 19 L30 19 L31 19 L33 20 L33 20 L34 20 Z" fill="#444444" stroke="#222222" stroke-width="0.3"/>
<path d="M13 25 L13 23 L15 23 L16 23 L17 24 L19 24 L20 24 L20 25 L20 25 L20 25 L21 26 L21 26 L21 26 L22 25 L23 25 L23 25 L23 25 L23 26 L24 25 L24 26 L24 26 L23 26 L23 26 L22 26 L21 27 L21 27 L21 27 L21 27 L21 27 L21 28 L20 28 L20 28 L19 27 L17 26 L17 26 L16 25 L16 25 L16 25 L15 24 L14 25 L14 25 L13 25 Z" fill="#444444" stroke="#222222" stroke-width="0.3"/>
<path d="M69 54 L72 55 L72 56 L72 56 L74 57 L74 57 L73 57 L73 57 L74 58 L74 59 L75 59 L75 59 L76 59 L76 60 L74 59 L73 58 L72 58 L72 58 L71 58 L71 59 L70 59 L69 59 L69 54 Z M77 55 L77 56 L77 56 L77 55 L76 54 L76 54 L77 55 Z M76 56 L75 57 L74 56 L74 56 L75 56 L75 56 L75 56 L76 56 L76 56 L76 55 L76 55 L77 56 L76 56 Z M78 56 L79 57 L79 57 L78 57 L78 56 Z" fill="#444444" stroke="#222222" stroke-width="0.3"/>
<path d="M69 54 L69 59 L69 58 L68 58 L68 58 L67 58 L67 58 L68 57 L67 56 L65 56 L64 55 L64 55 L64 55 L63 54 L64 54 L64 54 L63 54 L63 54 L63 54 L62 53 L63 53 L65 53 L65 54 L66 55 L66 54 L67 54 L67 54 L69 54 Z M59 58 L59 59 L58 59 L58 59 L58 59 L59 58 Z M65 57 L65 57 L65 56 L65 57 L65 57 Z M54 50 L54 50 L54 51 L54 51 L55 52 L54 52 L54 53 L54 53 L53 54 L53 55 L53 55 L52 55 L52 55 L51 55 L50 55 L50 55 L49 55 L49 54 L48 53 L48 52 L48 52 L49 51 L49 52 L49 52 L50 52 L51 52 L51 52 L52 52 L53 50 L54 50 Z M61 54 L62 55 L62 55 L62 55 L61 55 L61 54 Z M60 55 L59 55 L59 55 L60 55 L60 55 L60 55 Z M61 51 L61 52 L61 52 L61 52 L61 52 L61 52 L61 53 L61 53 L61 53 L60 52 L61 51 Z M56 52 L58 52 L59 52 L59 52 L58 52 L58 52 L55 52 L55 53 L56 54 L56 53 L58 53 L57 53 L57 53 L57 54 L56 54 L57 55 L57 55 L57 56 L57 56 L57 56 L57 56 L57 56 L56 56 L56 56 L56 55 L56 55 L56 54 L56 55 L56 56 L55 56 L55 56 L55 56 L55 55 L55 55 L55 54 L55 53 L56 52 Z M56 59 L55 59 L55 59 L56 59 L56 59 Z M56 58 L57 58 L57 58 L57 58 L55 58 L55 58 L56 58 Z M54 58 L55 58 L55 58 L53 59 L53 58 L54 58 L54 58 Z M48 57 L48 57 L49 57 L49 57 L50 57 L51 58 L52 58 L52 58 L52 58 L51 58 L48 58 L46 57 L46 57 L46 57 L46 56 L48 57 Z M45 53 L45 54 L46 54 L46 55 L46 56 L45 56 L44 55 L42 52 L41 51 L39 49 L39 49 L40 49 L43 51 L43 51 L44 52 L44 52 L45 53 L44 53 L45 53 Z" fill="#444444" stroke="#222222" stroke-width="0.3"/>
<path d="M59 58 L59 58 L60 58 L59 59 L59 58 Z" fill="#444444" stroke="#222222" stroke-width="0.3"/>
<path d="M-0 31 L-0 31 L-1 31 L-1 32 L-1 32 L-1 32 L-0 32 L-0 32 L-1 33 L-1 32 L-1 31 L-0 31 Z" fill="#444444" stroke="#222222" stroke-width="0.3"/>
<path d="M-0 31 L-1 31 L-0 30 L0 30 L0 30 L-0 31 Z" fill="#444444" stroke="#222222" stroke-width="0.3"/>
<path d="M-0 32 L-1 32 L-1 32 L-1 32 L-1 31 L-0 31 L-0 32 Z" fill="#444444" stroke="#222222" stroke-width="0.3"/>
<path d="M-1 33 L-0 31 L1 31 L2 31 L2 31 L1 32 L1 33 L0 33 L-1 33 Z" fill="#444444" stroke="#222222" stroke-width="0.3"/>
<path d="M10 37 L10 37 L12 37 L13 35 L13 36 L13 36 L13 36 L13 37 L13 37 L13 38 L11 37 L10 37 Z" fill="#444444" stroke="#222222" stroke-width="0.3"/>
<path d="M10 36 L10 36 L10 35 L10 36 L10 36 L10 36 Z" fill="#444444" stroke="#222222" stroke-width="0.3"/>
<path d="M8 33 L8 34 L8 34 L8 34 L7 33 L7 33 L8 33 Z" fill="#444444" stroke="#222222" stroke-width="0.3"/>
<path d="M2 31 L2 31 L3 30 L3 29 L4 28 L5 28 L6 28 L6 29 L7 29 L7 29 L6 30 L6 30 L7 31 L7 31 L8 32 L8 32 L8 32 L8 33 L8 33 L7 33 L7 33 L6 33 L4 32 L2 31 Z" fill="#444444" stroke="#222222" stroke-width="0.3"/>
<path d="M13 38 L13 37 L13 37 L13 36 L13 36 L14 37 L15 37 L16 38 L15 39 L14 39 L14 40 L14 40 L13 41 L13 41 L12 41 L11 42 L11 40 L13 39 L13 38 L13 38 Z M13 36 L13 35 L13 35 L13 35 L13 36 Z" fill="#444444" stroke="#222222" stroke-width="0.3"/>
<path d="M44 45 L44 44 L44 43 L45 43 L46 43 L46 43 L47 43 L47 44 L47 44 L46 45 L46 45 L45 46 L44 46 L44 45 Z" fill="#444444" stroke="#222222" stroke-width="0.3"/>
<path d="M46 43 L44 43 L44 44 L44 45 L43 44 L43 44 L43 44 L42 44 L42 44 L42 46 L42 47 L42 47 L42 48 L44 49 L43 49 L43 49 L43 49 L42 48 L42 48 L41 47 L41 47 L41 47 L41 46 L42 45 L42 43 L41 43 L41 42 L40 40 L41 40 L41 40 L41 40 L42 39 L43 39 L43 40 L43 40 L43 41 L44 41 L44 41 L44 41 L45 41 L45 41 L45 42 L46 42 L46 43 Z" fill="#444444" stroke="#222222" stroke-width="0.3"/>
<path d="M47 43 L46 43 L46 43 L46 43 L46 42 L45 42 L45 41 L45 41 L44 41 L44 41 L44 41 L43 41 L43 40 L43 40 L43 39 L42 39 L43 38 L43 39 L43 38 L44 38 L44 39 L45 39 L45 40 L45 40 L46 40 L47 42 L47 43 L47 43 Z" fill="#444444" stroke="#222222" stroke-width="0.3"/>
<path d="M43 38 L41 40 L41 40 L41 40 L40 40 L41 42 L41 43 L42 43 L42 45 L41 46 L41 45 L41 45 L41 44 L41 44 L40 41 L39 42 L38 42 L39 41 L38 41 L38 40 L38 40 L38 40 L37 39 L37 38 L37 39 L37 38 L38 38 L38 37 L38 37 L39 35 L39 35 L40 35 L40 35 L40 34 L41 34 L41 34 L41 36 L41 36 L41 37 L41 37 L41 37 L42 37 L42 38 L42 38 L43 38 L43 38 Z" fill="#cc3333" stroke="#222222" stroke-width="0.3"/>
<path d="M45 46 L46 45 L46 45 L47 44 L47 43 L47 42 L46 40 L45 40 L45 40 L45 39 L44 39 L44 38 L45 38 L46 37 L47 38 L46 38 L47 38 L47 38 L47 39 L46 40 L47 42 L48 43 L48 44 L48 45 L46 47 L45 47 L45 46 L45 46 Z" fill="#444444" stroke="#222222" stroke-width="0.3"/>
<path d="M62 25 L62 25 L62 25 L62 25 Z M62 24 L62 25 L62 25 L62 25 L62 26 L60 26 L60 27 L61 27 L61 27 L59 28 L58 28 L59 27 L58 26 L59 26 L60 25 L61 25 L61 25 L62 25 L62 24 Z" fill="#444444" stroke="#222222" stroke-width="0.3"/>
<path d="M59 28 L61 27 L62 28 L62 29 L61 29 L60 30 L60 29 L59 28 L60 28 L59 28 Z" fill="#444444" stroke="#222222" stroke-width="0.3"/>
<path d="M34 20 L37 19 L38 19 L39 20 L40 20 L41 19 L41 19 L41 18 L44 19 L44 19 L45 20 L47 19 L48 20 L49 20 L51 20 L52 20 L52 20 L53 20 L52 21 L53 21 L54 21 L54 21 L55 22 L55 22 L54 22 L53 22 L51 23 L50 23 L50 23 L50 24 L49 24 L46 25 L45 25 L43 25 L40 24 L39 23 L38 23 L36 23 L36 22 L36 22 L36 21 L34 21 L34 20 Z" fill="#444444" stroke="#222222" stroke-width="0.3"/>
<path d="M40 34 L40 35 L40 35 L39 35 L39 35 L38 37 L38 37 L38 38 L37 38 L37 37 L37 37 L37 37 L36 37 L37 36 L36 36 L35 36 L35 35 L34 36 L35 36 L34 36 L35 37 L35 37 L35 38 L35 38 L34 38 L34 39 L33 39 L32 40 L30 41 L30 42 L29 42 L29 43 L29 44 L29 45 L29 46 L29 46 L28 46 L28 47 L28 47 L27 47 L27 47 L26 45 L26 44 L25 43 L25 42 L24 39 L23 39 L23 39 L22 38 L22 38 L22 38 L21 37 L22 37 L23 37 L22 35 L22 35 L23 34 L24 34 L25 32 L25 32 L26 31 L25 31 L25 30 L25 30 L27 30 L28 29 L28 30 L28 31 L28 31 L28 31 L28 31 L28 32 L30 33 L29 33 L29 34 L31 35 L32 35 L32 35 L34 35 L34 34 L35 34 L35 35 L35 35 L37 35 L37 35 L37 34 L37 34 L39 33 L39 33 L40 33 L40 34 L40 34 L40 34 Z" fill="#444444" stroke="#222222" stroke-width="0.3"/>
<path d="M37 37 L37 39 L37 38 L37 39 L36 38 L36 38 L36 38 L35 38 L35 37 L35 37 L34 36 L35 36 L34 36 L35 35 L35 36 L36 36 L37 36 L36 37 L37 37 L37 37 L37 37 Z" fill="#444444" stroke="#222222" stroke-width="0.3"/>
<path d="M36 34 L37 35 L37 35 L35 35 L35 35 L35 34 L36 34 Z" fill="#444444" stroke="#222222" stroke-width="0.3"/>
<path d="M34 34 L34 35 L34 35 L32 35 L32 35 L31 35 L29 34 L29 33 L30 33 L33 34 L34 34 Z" fill="#444444" stroke="#222222" stroke-width="0.3"/>
<path d="M28 29 L27 30 L25 30 L25 30 L25 31 L26 31 L25 32 L25 32 L24 34 L23 34 L22 35 L22 35 L23 37 L22 37 L21 37 L21 37 L20 36 L17 36 L17 35 L18 35 L18 35 L18 35 L18 34 L17 34 L16 33 L17 33 L19 33 L20 33 L20 32 L20 32 L22 32 L22 31 L22 31 L23 31 L22 30 L23 30 L23 29 L23 29 L24 29 L26 28 L26 28 L26 29 L28 29 Z" fill="#444444" stroke="#222222" stroke-width="0.3"/>
<path d="M20 28 L21 28 L22 28 L22 28 L22 28 L22 28 L23 27 L23 27 L23 28 L24 28 L25 28 L26 28 L26 28 L24 29 L23 29 L23 29 L23 30 L22 30 L23 31 L22 31 L22 31 L22 32 L20 32 L20 32 L20 33 L19 33 L17 33 L16 33 L17 32 L17 32 L16 32 L16 31 L16 31 L16 30 L17 29 L17 29 L18 29 L18 29 L19 29 L19 28 L19 28 L20 28 Z" fill="#444444" stroke="#222222" stroke-width="0.3"/>
<path d="M21 28 L21 27 L21 27 L21 27 L21 27 L21 27 L22 26 L23 26 L23 26 L23 26 L23 26 L22 26 L22 27 L25 27 L25 27 L26 27 L26 28 L25 28 L24 28 L23 28 L23 27 L23 27 L22 28 L22 28 L22 28 L21 28 Z" fill="#444444" stroke="#222222" stroke-width="0.3"/>
<path d="M23 25 L23 24 L24 24 L25 25 L25 24 L25 24 L26 24 L28 24 L29 25 L28 25 L27 26 L27 26 L26 26 L25 26 L25 26 L25 27 L22 27 L22 26 L24 26 L24 26 L24 25 L23 26 L23 25 L23 25 L23 25 Z" fill="#444444" stroke="#222222" stroke-width="0.3"/>
<path d="M11 25 L12 25 L13 25 L14 25 L14 25 L15 24 L16 25 L16 25 L16 25 L17 26 L17 26 L19 27 L20 28 L20 28 L20 28 L19 28 L19 28 L19 29 L17 29 L17 29 L17 29 L16 29 L15 28 L14 28 L13 28 L12 28 L12 28 L12 27 L11 27 L11 26 L11 26 L11 26 L12 26 L12 26 L12 25 L11 25 L11 26 L11 25 Z" fill="#444444" stroke="#222222" stroke-width="0.3"/>
<path d="M8 33 L8 33 L8 32 L8 32 L8 32 L7 31 L7 31 L6 30 L6 30 L7 29 L7 29 L6 29 L5 28 L6 27 L5 27 L6 26 L6 27 L7 27 L8 27 L8 27 L8 27 L8 27 L9 28 L10 28 L11 28 L12 28 L13 28 L14 27 L15 28 L16 29 L17 29 L17 29 L16 30 L16 31 L16 31 L16 32 L17 32 L17 32 L16 33 L17 34 L18 34 L18 35 L18 35 L18 35 L17 35 L17 36 L14 36 L14 35 L13 35 L12 35 L12 35 L11 34 L10 34 L9 33 L9 33 L9 33 L8 33 Z" fill="#444444" stroke="#222222" stroke-width="0.3"/>
<path d="M-0 31 L0 30 L0 30 L0 30 L-0 30 L-0 29 L0 29 L0 28 L2 28 L4 28 L3 29 L3 30 L1 31 L-0 31 Z" fill="#444444" stroke="#222222" stroke-width="0.3"/>
<path d="M7 27 L7 27 L6 27 L5 26 L5 26 L6 25 L6 26 L6 26 L7 26 L6 26 L7 27 L7 27 Z" fill="#444444" stroke="#222222" stroke-width="0.3"/>
<path d="M6 28 L5 28 L4 28 L2 28 L0 28 L0 29 L0 29 L-0 29 L0 28 L-1 28 L-1 29 L-2 29 L-3 28 L-4 28 L-4 29 L-4 29 L-5 28 L-6 28 L-6 27 L-6 27 L-6 27 L-6 26 L-5 26 L-4 25 L-3 26 L-2 25 L-1 25 L2 26 L3 26 L4 25 L4 25 L5 26 L5 26 L6 26 L5 27 L6 27 L5 28 L6 28 Z M-7 25 L-6 25 L-5 25 L-5 25 L-5 25 L-5 26 L-6 26 L-6 26 L-7 26 L-6 25 L-7 25 Z" fill="#444444" stroke="#222222" stroke-width="0.3"/>
<path d="M73 80 L74 80 L74 80 L74 81 L73 81 L73 81 L72 81 L72 80 L72 79 L73 80 Z M59 74 L58 74 L58 75 L55 75 L54 76 L53 76 L52 75 L52 75 L52 75 L53 74 L52 72 L51 70 L51 70 L51 69 L52 70 L51 69 L51 68 L51 67 L51 67 L52 67 L52 67 L53 66 L54 66 L55 66 L56 66 L57 65 L57 64 L57 63 L58 64 L58 64 L58 64 L58 63 L58 63 L58 63 L59 62 L59 62 L59 62 L60 62 L61 62 L62 62 L62 62 L62 61 L62 61 L62 61 L63 61 L64 61 L64 60 L63 60 L63 60 L65 61 L66 60 L66 61 L66 61 L66 61 L66 62 L66 62 L69 64 L69 64 L69 63 L70 63 L70 61 L70 60 L71 61 L71 62 L71 62 L72 62 L72 63 L73 65 L74 66 L74 66 L75 67 L75 67 L75 67 L76 67 L76 68 L77 69 L77 71 L77 71 L77 73 L77 74 L76 74 L75 76 L75 77 L75 77 L74 78 L73 78 L72 78 L72 78 L71 78 L69 78 L68 77 L68 76 L68 76 L67 76 L67 76 L67 75 L67 76 L66 76 L67 75 L67 74 L66 75 L66 76 L65 75 L65 75 L65 74 L65 74 L63 73 L59 74 Z" fill="#444444" stroke="#222222" stroke-width="0.3"/>
<path d="M30 48 L30 48 L29 49 L29 48 L29 47 L29 46 L30 46 L30 48 Z" fill="#444444" stroke="#222222" stroke-width="0.3"/>
<path d="M48 41 L48 40 L48 40 L48 40 L49 39 L49 40 L49 40 L48 41 Z M29 25 L29 24 L30 24 L29 23 L31 23 L31 21 L32 22 L33 21 L33 21 L33 21 L34 20 L34 21 L36 21 L36 22 L36 22 L36 23 L38 23 L39 23 L40 24 L43 25 L45 25 L46 25 L48 25 L50 24 L50 23 L50 23 L51 23 L53 22 L54 22 L55 22 L55 22 L54 21 L54 21 L53 21 L52 21 L53 20 L54 20 L55 20 L55 19 L56 18 L56 18 L55 18 L56 18 L57 17 L58 17 L59 18 L60 20 L62 20 L62 21 L63 21 L64 21 L65 21 L64 23 L63 23 L63 23 L63 24 L63 24 L62 24 L62 25 L62 24 L62 25 L61 25 L61 25 L60 25 L58 26 L56 27 L56 27 L56 26 L57 26 L56 26 L55 26 L55 27 L54 27 L54 27 L54 28 L55 28 L55 28 L55 28 L56 28 L57 28 L57 28 L56 28 L55 30 L55 30 L57 32 L57 32 L56 32 L56 33 L57 33 L56 34 L56 34 L54 36 L53 38 L52 38 L51 38 L51 38 L51 38 L49 39 L49 39 L49 39 L48 39 L49 39 L47 38 L46 38 L47 38 L46 37 L45 38 L44 38 L43 38 L43 39 L43 39 L43 38 L42 38 L42 38 L42 37 L41 37 L41 37 L41 37 L41 36 L41 36 L41 34 L41 34 L40 34 L40 34 L40 33 L39 33 L39 33 L37 34 L37 34 L36 34 L35 35 L35 34 L34 34 L33 34 L32 34 L32 33 L31 33 L30 33 L30 33 L28 32 L28 31 L28 31 L28 31 L28 31 L28 30 L28 29 L26 29 L26 28 L26 28 L26 27 L25 27 L25 27 L25 26 L25 26 L26 26 L27 26 L27 26 L28 25 L29 25 Z" fill="#444444" stroke="#222222" stroke-width="0.3"/>
<path d="M57 36 L56 38 L56 38 L55 37 L56 36 L57 36 Z" fill="#444444" stroke="#222222" stroke-width="0.3"/>
<path d="M7 25 L8 25 L8 25 L9 26 L9 26 L9 26 L8 27 L8 27 L8 27 L8 27 L7 27 L7 27 L6 26 L7 26 L6 25 L7 26 L7 25 L7 25 Z M7 27 L6 27 L6 26 L6 27 L7 27 Z" fill="#444444" stroke="#222222" stroke-width="0.3"/>
<path d="M3 24 L4 24 L5 25 L6 25 L7 25 L7 25 L7 25 L6 25 L5 26 L4 25 L4 25 L4 25 L3 24 Z" fill="#444444" stroke="#222222" stroke-width="0.3"/>
<path d="M56 45 L56 44 L56 44 L56 44 L56 45 Z M57 46 L57 45 L58 45 L58 46 L58 45 L58 46 L57 47 L57 46 Z M59 46 L60 48 L59 48 L59 48 L59 48 L59 49 L59 49 L58 49 L58 48 L58 48 L58 47 L57 48 L57 48 L57 47 L58 47 L58 47 L58 47 L58 47 L59 47 L59 46 L59 46 Z M55 46 L53 47 L55 45 L55 46 Z M57 40 L57 41 L57 41 L57 42 L56 42 L56 43 L57 43 L58 44 L58 44 L57 44 L57 44 L57 44 L56 43 L56 43 L56 43 L56 43 L55 42 L55 42 L56 42 L56 40 L57 41 L57 40 Z M57 46 L57 45 L57 45 L57 45 L57 46 Z M59 44 L59 45 L59 45 L59 46 L58 46 L58 45 L58 45 L58 45 L59 45 L59 45 L58 44 L59 44 Z" fill="#444444" stroke="#222222" stroke-width="0.3"/>
<path d="M42 49 L42 48 L43 49 L43 49 L43 49 L44 49 L44 49 L44 49 L44 51 L45 52 L44 52 L43 51 L42 49 Z M54 50 L53 50 L52 52 L51 52 L51 52 L50 52 L49 52 L49 52 L49 51 L49 52 L50 51 L50 51 L51 51 L52 50 L52 50 L52 50 L52 50 L52 49 L53 48 L53 48 L54 49 L55 49 L55 49 L54 49 L54 50 L54 50 Z" fill="#444444" stroke="#222222" stroke-width="0.3"/>
<path d="M52 49 L52 50 L52 50 L52 50 L52 50 L52 49 Z" fill="#444444" stroke="#222222" stroke-width="0.3"/>
<path d="M70 27 L69 27 L69 28 L69 29 L69 29 L69 29 L68 30 L67 30 L66 31 L65 30 L65 30 L63 30 L63 31 L63 32 L62 32 L62 32 L62 31 L62 31 L62 31 L62 30 L64 29 L65 29 L66 29 L66 28 L67 28 L68 27 L69 27 L68 26 L69 25 L69 25 L70 26 L70 27 Z M72 24 L72 23 L72 24 L71 24 L71 25 L70 24 L69 25 L68 25 L68 25 L69 24 L69 24 L70 23 L71 23 L72 24 Z M63 31 L64 30 L64 30 L64 30 L65 30 L65 30 L65 31 L64 31 L64 31 L64 31 L63 31 L63 31 Z" fill="#444444" stroke="#222222" stroke-width="0.3"/>
<path d="M11 40 L11 42 L11 42 L11 42 L9 43 L8 43 L6 44 L6 44 L5 44 L4 43 L5 41 L5 41 L7 41 L7 41 L8 41 L8 41 L9 40 L11 40 Z" fill="#444444" stroke="#222222" stroke-width="0.3"/>
<path d="M-1 33 L0 33 L0 33 L1 33 L1 33 L1 32 L2 31 L4 32 L6 33 L8 34 L8 34 L8 34 L8 34 L9 35 L9 36 L10 36 L10 36 L11 37 L13 38 L13 38 L13 38 L13 39 L11 40 L9 40 L8 41 L8 41 L7 41 L7 41 L5 41 L5 41 L5 42 L4 42 L3 40 L2 39 L2 39 L2 38 L2 37 L1 37 L1 36 L-1 34 L-1 34 L-1 33 Z" fill="#444444" stroke="#222222" stroke-width="0.3"/>
<path d="M-2 29 L-2 29 L-1 29 L-1 30 L-2 29 Z" fill="#444444" stroke="#222222" stroke-width="0.3"/>
<path d="M-2 29 L-2 29 L-1 30 L-2 30 L-2 29 Z" fill="#444444" stroke="#222222" stroke-width="0.3"/>
</svg>