<svg xmlns="http://www.w3.org/2000/svg" viewBox="0 0 80 80" width="80" height="80">
<path d="M45 9 L44 10 L43 10 L42 11 L42 12 L39 11 L38 14 L34 15 L35 18 L34 18 L34 19 L33 18 L27 18 L25 18 L24 18 L24 19 L21 18 L20 19 L17 20 L17 22 L16 22 L16 21 L14 21 L13 20 L13 19 L13 18 L11 17 L7 17 L5 16 L1 14 L-3 15 L-2 21 L-3 21 L-5 19 L-8 20 L-8 18 L-9 18 L-11 16 L-10 16 L-9 15 L-7 15 L-7 12 L-10 12 L-13 13 L-14 13 L-13 12 L-14 11 L-16 11 L-17 10 L-15 7 L-14 8 L-13 7 L-10 5 L-8 5 L-3 6 L-1 6 L1 6 L3 7 L4 6 L6 6 L6 5 L4 4 L5 4 L5 3 L6 3 L5 2 L6 1 L11 1 L17 -1 L20 -0 L20 1 L22 1 L24 1 L24 2 L25 2 L29 1 L29 1 L30 2 L34 6 L35 5 L37 6 L39 6 L42 8 L44 8 L45 9 Z" fill="#444444" stroke="#222222" stroke-width="0.3"/>
<path d="M-2 21 L-3 15 L1 14 L5 16 L7 17 L11 17 L13 18 L13 19 L13 20 L14 21 L16 21 L16 22 L17 22 L17 20 L20 19 L21 19 L19 20 L20 21 L22 20 L23 21 L21 22 L20 22 L20 21 L18 21 L17 23 L15 23 L15 24 L16 24 L16 25 L15 27 L13 26 L14 26 L10 24 L7 22 L6 21 L4 21 L4 20 L4 19 L2 18 L-1 20 L-1 21 L-2 21 Z" fill="#444444" stroke="#222222" stroke-width="0.3"/>
<path d="M126 87 L131 89 L133 90 L133 91 L136 92 L136 93 L135 93 L135 94 L137 95 L138 97 L138 97 L138 97 L141 98 L140 99 L136 98 L134 96 L133 95 L132 94 L129 95 L130 96 L128 97 L126 97 L126 87 Z M143 88 L144 90 L144 90 L143 89 L140 87 L141 87 L143 88 Z M142 91 L139 92 L137 92 L137 91 L139 91 L140 90 L140 91 L141 91 L142 90 L142 89 L143 89 L143 90 L142 91 Z M146 91 L149 93 L148 93 L147 93 L146 91 Z" fill="#444444" stroke="#222222" stroke-width="0.3"/>
<path d="M126 87 L126 97 L125 95 L123 95 L123 96 L121 96 L121 94 L122 94 L121 91 L117 90 L115 88 L114 89 L113 88 L112 87 L115 87 L115 86 L113 86 L112 85 L111 85 L110 84 L113 83 L115 84 L116 87 L117 88 L119 86 L120 85 L122 85 L126 87 Z M102 96 L102 97 L101 98 L99 98 L100 97 L102 96 Z M116 93 L115 92 L116 91 L116 92 L116 93 Z M91 77 L90 78 L91 79 L91 80 L93 82 L91 82 L90 83 L90 84 L89 85 L88 89 L88 88 L86 89 L86 88 L84 88 L82 88 L82 87 L79 87 L79 85 L78 84 L77 82 L78 81 L79 80 L79 81 L80 82 L82 82 L83 81 L85 81 L86 81 L88 76 L91 77 Z M106 87 L110 88 L111 89 L109 88 L106 88 L106 87 Z M105 89 L104 88 L103 88 L105 88 L105 88 L105 89 Z M106 80 L106 80 L107 81 L107 81 L107 82 L106 82 L106 83 L107 84 L106 84 L105 81 L106 80 Z M96 81 L100 81 L102 80 L102 81 L101 82 L100 83 L94 83 L94 84 L96 85 L96 84 L99 84 L99 84 L98 84 L98 85 L96 86 L98 88 L98 88 L99 90 L99 91 L98 91 L98 91 L98 90 L97 90 L96 90 L97 89 L96 88 L96 87 L95 87 L95 91 L94 91 L93 91 L94 90 L93 88 L93 88 L92 87 L94 83 L96 81 Z M95 98 L93 97 L94 97 L95 98 L95 98 Z M95 95 L97 96 L99 95 L98 96 L94 96 L94 96 L95 95 Z M91 95 L92 95 L93 96 L89 97 L90 96 L91 96 L91 95 Z M77 93 L77 93 L80 93 L80 93 L83 93 L84 94 L86 95 L88 96 L86 96 L84 95 L76 95 L74 94 L73 93 L72 93 L73 92 L77 93 Z M71 85 L71 86 L72 87 L73 87 L73 92 L71 92 L68 89 L63 83 L62 80 L57 75 L57 75 L60 75 L65 80 L66 80 L68 81 L69 82 L70 83 L69 84 L71 85 Z" fill="#444444" stroke="#222222" stroke-width="0.3"/>
<path d="M102 96 L103 96 L105 96 L102 97 L102 96 Z" fill="#444444" stroke="#222222" stroke-width="0.3"/>
<path d="M-33 33 L-33 34 L-34 34 L-34 35 L-34 35 L-34 36 L-34 35 L-33 36 L-34 38 L-35 36 L-34 33 L-33 33 Z" fill="#444444" stroke="#222222" stroke-width="0.3"/>
<path d="M-33 33 L-34 33 L-33 31 L-32 31 L-32 31 L-33 33 Z" fill="#444444" stroke="#222222" stroke-width="0.3"/>
<path d="M-34 35 L-34 36 L-34 35 L-34 35 L-34 34 L-33 34 L-34 35 Z" fill="#444444" stroke="#222222" stroke-width="0.3"/>
<path d="M-34 38 L-33 34 L-31 34 L-28 33 L-28 34 L-31 35 L-30 37 L-32 39 L-34 38 Z" fill="#444444" stroke="#222222" stroke-width="0.3"/>
<path d="M-9 46 L-9 47 L-5 46 L-2 44 L-2 44 L-2 45 L-3 45 L-2 46 L-3 47 L-4 49 L-8 48 L-9 46 Z" fill="#444444" stroke="#222222" stroke-width="0.3"/>
<path d="M-10 46 L-10 44 L-10 43 L-9 45 L-9 46 L-10 46 Z" fill="#444444" stroke="#222222" stroke-width="0.3"/>
<path d="M-15 38 L-14 40 L-15 40 L-15 39 L-17 39 L-16 38 L-15 38 Z" fill="#444444" stroke="#222222" stroke-width="0.3"/>
<path d="M-28 34 L-28 33 L-25 31 L-25 28 L-22 26 L-20 27 L-19 27 L-18 29 L-17 29 L-17 30 L-18 30 L-18 32 L-17 33 L-15 34 L-15 35 L-15 36 L-14 36 L-14 37 L-14 38 L-16 38 L-17 39 L-19 39 L-24 36 L-28 34 Z" fill="#444444" stroke="#222222" stroke-width="0.3"/>
<path d="M-4 49 L-3 47 L-2 46 L-3 45 L-2 45 L-0 47 L2 47 L3 49 L1 52 L0 52 L0 54 L-1 55 L-2 56 L-3 56 L-4 57 L-7 58 L-8 54 L-4 53 L-3 50 L-4 49 Z M-2 44 L-2 44 L-2 43 L-2 43 L-2 44 Z" fill="#444444" stroke="#222222" stroke-width="0.3"/>
<path d="M68 64 L68 63 L68 61 L70 61 L73 62 L74 61 L75 61 L75 62 L75 64 L73 65 L73 66 L71 67 L69 67 L68 64 Z" fill="#444444" stroke="#222222" stroke-width="0.3"/>
<path d="M72 61 L68 61 L68 63 L68 64 L67 64 L65 64 L65 63 L64 63 L64 64 L63 68 L63 69 L64 69 L65 72 L67 73 L67 74 L66 74 L66 74 L64 73 L64 73 L62 70 L61 71 L61 70 L62 68 L63 65 L63 62 L61 60 L62 58 L60 55 L61 55 L61 53 L62 53 L64 52 L65 53 L65 53 L66 54 L66 56 L67 56 L69 56 L69 55 L70 55 L71 57 L71 58 L72 59 L72 61 Z" fill="#444444" stroke="#222222" stroke-width="0.3"/>
<path d="M75 61 L74 61 L73 62 L72 61 L72 59 L71 58 L71 57 L70 55 L69 55 L69 56 L67 56 L66 56 L66 54 L65 53 L65 53 L64 52 L66 51 L67 51 L66 49 L67 49 L69 52 L71 52 L71 53 L70 54 L72 55 L75 59 L75 60 L75 61 Z" fill="#444444" stroke="#222222" stroke-width="0.3"/>
<path d="M66 51 L62 53 L61 53 L61 55 L60 55 L62 58 L61 60 L63 62 L63 65 L62 68 L62 66 L62 65 L62 63 L61 62 L60 57 L57 59 L55 59 L56 57 L55 55 L54 54 L54 53 L54 53 L52 52 L52 50 L53 51 L53 50 L54 49 L54 47 L55 47 L57 44 L57 43 L59 42 L60 42 L60 40 L61 40 L62 41 L62 44 L61 45 L60 47 L62 47 L62 48 L63 48 L63 49 L65 50 L66 50 L66 51 Z" fill="#444444" stroke="#222222" stroke-width="0.3"/>
<path d="M71 67 L73 66 L73 65 L75 64 L75 60 L75 59 L72 55 L70 54 L71 53 L71 52 L69 52 L67 49 L71 48 L72 48 L74 48 L74 49 L75 50 L76 50 L74 52 L73 54 L75 58 L77 60 L78 63 L78 65 L72 70 L71 69 L72 68 L71 67 Z" fill="#444444" stroke="#222222" stroke-width="0.3"/>
<path d="M110 19 L110 19 L110 19 L110 19 Z M109 18 L110 19 L110 19 L109 20 L109 21 L106 23 L105 24 L107 25 L107 25 L102 26 L101 25 L102 23 L101 23 L102 22 L105 20 L107 20 L106 20 L109 19 L109 18 Z" fill="#444444" stroke="#222222" stroke-width="0.3"/>
<path d="M103 26 L107 25 L108 27 L108 29 L108 30 L104 31 L104 29 L103 27 L105 27 L103 26 Z" fill="#444444" stroke="#222222" stroke-width="0.3"/>
<path d="M46 8 L52 6 L55 7 L56 7 L60 8 L61 7 L61 6 L62 4 L67 6 L67 7 L70 7 L74 7 L77 9 L80 9 L83 8 L86 7 L87 8 L89 8 L87 10 L88 11 L90 11 L91 10 L94 12 L94 12 L90 12 L88 14 L84 15 L82 15 L81 16 L82 17 L80 18 L73 19 L71 20 L65 18 L58 18 L57 16 L54 15 L50 15 L50 14 L50 12 L49 11 L46 10 L46 8 Z" fill="#444444" stroke="#222222" stroke-width="0.3"/>
<path d="M60 40 L60 42 L59 42 L57 43 L57 44 L55 47 L54 47 L54 49 L53 50 L52 47 L52 47 L51 48 L51 47 L52 45 L49 45 L49 44 L47 43 L46 44 L47 45 L46 46 L47 46 L47 47 L47 50 L47 50 L44 50 L44 52 L44 52 L41 53 L37 57 L37 58 L34 59 L34 60 L34 63 L34 65 L34 67 L33 67 L32 68 L33 69 L31 69 L30 71 L29 69 L27 66 L26 64 L25 61 L24 59 L23 51 L20 52 L19 51 L17 50 L18 49 L18 48 L16 47 L17 46 L20 46 L19 43 L18 42 L20 41 L21 41 L25 36 L25 35 L27 34 L25 33 L24 31 L25 30 L29 31 L31 29 L32 31 L32 32 L33 33 L33 34 L31 34 L32 35 L35 37 L35 38 L34 39 L39 42 L41 42 L42 43 L46 43 L46 41 L47 40 L47 42 L49 43 L52 42 L52 41 L51 41 L53 41 L56 39 L57 39 L58 38 L59 39 L58 40 L60 40 Z" fill="#444444" stroke="#222222" stroke-width="0.3"/>
<path d="M52 47 L53 51 L52 50 L52 52 L51 49 L50 48 L49 50 L47 50 L47 47 L47 46 L46 46 L47 45 L46 44 L47 43 L49 44 L49 45 L52 45 L51 47 L51 48 L52 47 L52 47 Z" fill="#444444" stroke="#222222" stroke-width="0.3"/>
<path d="M49 40 L52 41 L52 42 L49 43 L47 42 L48 41 L49 40 Z" fill="#444444" stroke="#222222" stroke-width="0.3"/>
<path d="M46 41 L46 43 L45 43 L42 43 L41 42 L39 42 L34 39 L35 38 L36 37 L43 40 L46 41 Z" fill="#cc3333" stroke="#222222" stroke-width="0.3"/>
<path d="M31 29 L29 31 L25 30 L24 31 L25 33 L27 34 L25 35 L25 36 L21 41 L20 41 L18 42 L19 43 L20 46 L17 46 L16 47 L15 47 L13 45 L6 45 L6 43 L9 42 L9 42 L8 42 L8 40 L6 40 L5 38 L7 39 L11 38 L13 38 L13 36 L14 36 L18 35 L18 34 L18 33 L19 33 L19 32 L20 32 L21 30 L21 28 L22 28 L26 27 L28 28 L28 29 L31 29 Z" fill="#444444" stroke="#222222" stroke-width="0.3"/>
<path d="M12 26 L16 27 L17 27 L18 27 L18 26 L19 26 L20 25 L21 25 L21 27 L21 27 L24 26 L26 26 L26 27 L22 28 L21 28 L21 30 L20 32 L19 32 L19 33 L18 33 L18 34 L18 35 L14 36 L13 36 L13 38 L11 38 L7 39 L5 38 L6 36 L6 36 L5 35 L4 33 L5 32 L4 32 L5 29 L7 30 L8 29 L8 29 L10 28 L11 27 L12 27 L12 26 Z" fill="#444444" stroke="#222222" stroke-width="0.3"/>
<path d="M15 27 L16 25 L16 24 L15 24 L15 23 L17 23 L18 21 L20 21 L19 22 L20 22 L20 23 L18 22 L18 23 L24 23 L25 25 L26 25 L26 26 L24 26 L21 27 L21 27 L21 25 L20 25 L19 26 L18 26 L18 27 L15 27 Z" fill="#444444" stroke="#222222" stroke-width="0.3"/>
<path d="M20 19 L21 18 L21 18 L24 19 L24 18 L25 18 L27 18 L33 18 L34 19 L31 21 L29 21 L29 22 L26 22 L24 23 L25 23 L24 23 L18 23 L18 22 L21 22 L23 21 L22 20 L20 21 L19 20 L21 19 L20 19 Z" fill="#444444" stroke="#222222" stroke-width="0.3"/>
<path d="M-8 20 L-5 19 L-3 21 L-1 21 L-1 20 L2 18 L4 19 L4 20 L4 21 L6 21 L7 22 L10 24 L14 26 L13 26 L12 26 L12 27 L11 27 L10 28 L7 30 L5 29 L5 28 L4 28 L2 26 L-0 25 L-3 26 L-4 26 L-6 27 L-6 24 L-7 24 L-6 23 L-7 22 L-7 21 L-6 22 L-4 21 L-6 19 L-7 20 L-7 21 L-8 20 Z" fill="#444444" stroke="#222222" stroke-width="0.3"/>
<path d="M-14 38 L-14 37 L-14 36 L-15 36 L-15 35 L-15 34 L-17 33 L-18 32 L-18 30 L-17 30 L-17 29 L-18 29 L-20 26 L-20 25 L-20 23 L-19 23 L-18 24 L-17 24 L-14 23 L-14 24 L-14 24 L-13 25 L-13 26 L-10 27 L-8 27 L-6 27 L-3 26 L-1 25 L2 26 L4 28 L5 28 L5 29 L4 32 L5 32 L4 33 L5 35 L6 36 L6 36 L5 38 L6 40 L8 40 L8 42 L9 42 L9 42 L6 43 L6 45 L-0 44 L-1 42 L-2 42 L-4 43 L-6 42 L-8 41 L-9 41 L-11 37 L-12 38 L-13 37 L-14 38 Z" fill="#444444" stroke="#222222" stroke-width="0.3"/>
<path d="M-33 34 L-32 32 L-32 31 L-32 31 L-33 31 L-33 29 L-32 28 L-31 27 L-27 27 L-23 27 L-25 28 L-25 31 L-31 34 L-33 34 Z" fill="#444444" stroke="#222222" stroke-width="0.3"/>
<path d="M-17 24 L-17 24 L-18 23 L-21 22 L-21 21 L-19 21 L-18 21 L-18 22 L-18 22 L-18 23 L-17 23 L-17 24 Z" fill="#444444" stroke="#222222" stroke-width="0.3"/>
<path d="M-19 27 L-20 27 L-22 26 L-27 27 L-31 27 L-32 28 L-32 29 L-33 28 L-32 28 L-35 27 L-36 28 L-38 28 L-39 28 L-41 28 L-41 28 L-42 28 L-44 28 L-45 28 L-47 25 L-46 24 L-47 23 L-46 22 L-43 22 L-43 21 L-40 21 L-36 19 L-34 19 L-29 21 L-26 21 L-24 20 L-23 20 L-21 21 L-21 22 L-19 23 L-20 23 L-20 25 L-20 26 L-19 27 Z M-48 20 L-46 19 L-45 19 L-44 20 L-43 21 L-43 21 L-45 21 L-47 22 L-48 21 L-47 20 L-48 20 Z" fill="#444444" stroke="#222222" stroke-width="0.3"/>
<path d="M134 145 L137 145 L137 146 L136 148 L136 148 L135 149 L133 149 L131 145 L132 144 L134 145 Z M103 131 L101 133 L100 134 L94 134 L91 136 L89 136 L87 134 L87 134 L88 133 L88 131 L87 127 L84 122 L85 123 L84 122 L85 123 L84 120 L85 118 L85 117 L85 116 L85 117 L86 116 L89 114 L90 114 L93 113 L95 113 L98 110 L98 109 L99 108 L99 109 L100 109 L99 108 L100 107 L101 108 L101 106 L103 104 L103 105 L103 104 L105 104 L107 105 L109 105 L108 105 L110 103 L110 103 L110 102 L111 101 L113 101 L113 100 L112 100 L113 100 L117 101 L119 101 L120 102 L119 103 L118 103 L118 104 L118 106 L125 110 L126 109 L126 108 L127 106 L127 102 L128 99 L130 102 L130 105 L131 104 L132 105 L133 107 L134 111 L138 114 L138 114 L139 117 L140 116 L140 117 L141 117 L141 118 L144 121 L144 124 L145 125 L144 131 L143 132 L142 133 L140 137 L139 139 L139 140 L137 140 L134 142 L132 141 L132 140 L130 141 L125 140 L124 139 L124 137 L123 137 L122 137 L122 136 L122 135 L121 136 L120 136 L121 134 L121 133 L119 134 L118 136 L117 135 L117 134 L115 132 L116 132 L111 130 L103 131 Z" fill="#444444" stroke="#222222" stroke-width="0.3"/>
<path d="M37 72 L36 73 L34 74 L34 73 L33 70 L34 68 L35 69 L37 72 Z" fill="#444444" stroke="#222222" stroke-width="0.3"/>
<path d="M78 55 L77 55 L77 54 L78 53 L80 53 L81 53 L80 55 L78 55 Z M34 19 L34 18 L35 18 L34 15 L38 14 L39 11 L42 12 L42 11 L43 10 L44 10 L46 8 L46 10 L49 11 L50 12 L50 14 L50 15 L54 15 L57 16 L58 18 L65 18 L71 20 L73 19 L78 19 L82 17 L81 16 L82 15 L84 15 L88 14 L90 12 L94 12 L94 12 L91 10 L90 11 L88 11 L87 10 L89 8 L91 8 L93 7 L93 7 L95 4 L95 4 L94 3 L96 3 L98 2 L100 2 L103 3 L106 8 L108 8 L110 9 L111 11 L113 11 L117 10 L114 15 L112 14 L111 15 L111 16 L111 18 L110 18 L110 19 L109 18 L109 19 L106 20 L107 20 L105 20 L101 23 L96 24 L97 23 L96 23 L97 22 L97 21 L94 23 L93 24 L91 24 L90 24 L91 25 L92 26 L93 26 L94 27 L95 26 L98 26 L98 27 L96 28 L93 30 L95 31 L97 35 L97 36 L96 37 L96 37 L97 38 L97 40 L96 40 L92 46 L88 48 L86 49 L85 49 L85 49 L84 50 L80 51 L80 52 L79 52 L79 51 L79 51 L75 50 L74 49 L74 48 L72 48 L71 48 L68 49 L66 49 L67 51 L66 51 L66 50 L65 50 L63 49 L63 48 L62 48 L62 47 L60 47 L61 45 L62 44 L62 41 L61 40 L58 40 L59 39 L58 38 L57 39 L56 39 L53 41 L51 41 L49 40 L47 42 L47 40 L46 41 L43 40 L40 39 L40 39 L37 37 L36 37 L35 37 L32 35 L31 34 L33 34 L33 33 L32 32 L32 31 L31 29 L28 29 L28 28 L26 26 L26 25 L25 25 L24 23 L25 23 L24 23 L26 22 L29 22 L29 21 L31 21 L34 19 Z" fill="#444444" stroke="#222222" stroke-width="0.3"/>
<path d="M97 45 L96 48 L95 50 L94 47 L96 45 L97 45 Z" fill="#444444" stroke="#222222" stroke-width="0.3"/>
<path d="M-17 20 L-15 21 L-14 20 L-12 22 L-11 22 L-12 22 L-13 25 L-14 24 L-14 24 L-14 23 L-17 24 L-17 23 L-18 23 L-18 22 L-19 21 L-17 21 L-17 20 L-17 20 Z M-17 24 L-18 24 L-19 23 L-18 23 L-17 24 Z" fill="#444444" stroke="#222222" stroke-width="0.3"/>
<path d="M-27 17 L-23 18 L-21 19 L-18 19 L-17 20 L-17 20 L-17 21 L-19 20 L-21 21 L-23 20 L-24 20 L-24 19 L-27 17 Z" fill="#444444" stroke="#222222" stroke-width="0.3"/>
<path d="M96 64 L95 63 L96 63 L96 63 L96 64 Z M98 68 L99 66 L99 66 L99 67 L100 66 L100 67 L99 69 L98 68 Z M104 69 L104 72 L104 73 L103 72 L102 73 L103 74 L102 74 L101 74 L100 72 L101 72 L100 71 L97 72 L97 72 L98 71 L99 70 L100 70 L101 70 L101 69 L102 69 L102 68 L104 69 Z M94 67 L90 70 L93 66 L94 67 Z M98 55 L97 56 L98 57 L98 58 L97 59 L97 61 L98 61 L100 62 L100 64 L99 62 L98 63 L97 62 L95 62 L96 61 L95 61 L95 61 L94 60 L94 58 L95 59 L95 55 L97 55 L98 55 Z M97 67 L97 65 L99 65 L99 66 L97 67 Z M102 64 L103 66 L102 66 L102 67 L101 68 L101 67 L101 66 L101 66 L102 66 L102 65 L101 64 L102 64 Z" fill="#444444" stroke="#222222" stroke-width="0.3"/>
<path d="M64 75 L64 73 L66 74 L66 74 L67 74 L67 73 L68 75 L69 76 L69 79 L70 81 L69 81 L66 79 L64 75 Z M91 77 L88 76 L86 81 L85 81 L83 81 L82 82 L80 82 L79 81 L79 80 L80 80 L81 80 L81 79 L84 78 L85 76 L86 77 L86 76 L87 76 L87 75 L89 72 L90 72 L91 74 L93 75 L93 75 L92 75 L92 76 L91 77 Z" fill="#444444" stroke="#222222" stroke-width="0.3"/>
<path d="M87 75 L87 76 L86 76 L86 77 L85 76 L87 75 Z" fill="#444444" stroke="#222222" stroke-width="0.3"/>
<path d="M127 24 L126 25 L126 27 L125 28 L126 29 L125 30 L123 31 L120 31 L118 32 L117 32 L117 31 L111 32 L112 33 L111 35 L110 36 L110 35 L110 34 L109 34 L108 33 L110 32 L113 29 L116 29 L118 29 L119 27 L120 27 L123 25 L124 23 L124 22 L125 21 L126 20 L127 23 L127 24 Z M131 17 L132 16 L133 18 L130 18 L129 19 L127 18 L126 20 L124 20 L124 19 L125 17 L126 17 L127 14 L129 16 L131 17 Z M113 32 L114 31 L115 32 L115 31 L116 31 L116 32 L116 33 L115 32 L114 33 L114 34 L113 33 L113 32 Z" fill="#444444" stroke="#222222" stroke-width="0.3"/>
<path d="M-8 54 L-7 58 L-8 58 L-8 59 L-12 61 L-13 62 L-18 63 L-19 64 L-21 64 L-23 60 L-21 56 L-21 57 L-16 57 L-16 57 L-15 57 L-14 55 L-13 55 L-8 54 Z" fill="#444444" stroke="#222222" stroke-width="0.3"/>
<path d="M-34 39 L-32 39 L-31 38 L-30 38 L-30 37 L-31 35 L-28 34 L-24 36 L-19 39 L-15 39 L-15 40 L-14 40 L-13 41 L-11 43 L-11 44 L-10 46 L-9 46 L-8 48 L-4 49 L-4 49 L-3 50 L-4 53 L-8 54 L-13 55 L-14 55 L-15 57 L-16 57 L-16 57 L-21 57 L-21 56 L-22 58 L-22 58 L-25 53 L-27 52 L-28 51 L-28 49 L-29 47 L-30 46 L-31 44 L-34 41 L-35 41 L-34 39 Z" fill="#444444" stroke="#222222" stroke-width="0.3"/>
<path d="M-38 30 L-37 29 L-35 29 L-36 30 L-38 30 Z" fill="#444444" stroke="#222222" stroke-width="0.3"/>
<path d="M-38 30 L-37 30 L-36 30 L-37 31 L-38 30 Z" fill="#444444" stroke="#222222" stroke-width="0.3"/>
</svg>