<svg xmlns="http://www.w3.org/2000/svg" viewBox="0 0 80 80" width="80" height="80">
<path d="M-20 -18 L24 -18 L24 -19 L25 -19 L26 -18 L30 -17 L34 -17 L35 -17 L41 -15 L41 -14 L42 -14 L43 -13 L43 -13 L45 -12 L45 -9 L44 -7 L44 -6 L50 -8 L50 -9 L51 -9 L54 -9 L57 -12 L62 -12 L64 -12 L66 -16 L68 -15 L68 -13 L70 -11 L65 -10 L63 -8 L63 -7 L64 -7 L65 -7 L64 -7 L65 -7 L65 -6 L59 -5 L62 -5 L58 -5 L58 -4 L58 -4 L58 -3 L57 -2 L56 -3 L57 -1 L55 1 L56 -0 L55 -1 L55 -2 L54 -2 L55 -1 L54 -1 L55 -0 L56 4 L55 5 L50 7 L47 10 L47 12 L49 17 L48 20 L47 20 L46 19 L44 16 L44 15 L43 13 L42 12 L40 13 L38 12 L33 12 L34 14 L34 14 L31 14 L30 13 L27 13 L25 13 L21 16 L21 18 L21 19 L21 19 L18 18 L17 16 L15 13 L14 13 L13 13 L12 14 L10 14 L9 13 L8 11 L6 10 L3 10 L3 10 L-1 10 L-7 8 L-7 8 L-11 8 L-11 8 L-13 6 L-17 5 L-17 4 L-18 3 L-20 -0 L-22 -2 L-22 -3 L-23 -4 L-22 -7 L-23 -8 L-22 -13 L-22 -15 L-23 -17 L-23 -17 L-21 -17 L-20 -15 L-19 -15 L-20 -18 Z M-73 28 L-72 29 L-73 30 L-74 29 L-73 28 Z M-74 27 L-74 28 L-75 27 L-75 27 L-74 27 Z M-76 27 L-75 27 L-76 27 L-76 27 Z M-77 26 L-76 26 L-76 26 L-77 26 L-77 26 L-77 26 Z M-79 25 L-79 25 L-80 25 L-79 25 L-79 25 Z M-92 -36 L-89 -36 L-89 -36 L-90 -35 L-92 -36 Z M-69 -33 L-67 -32 L-70 -31 L-71 -31 L-71 -32 L-69 -33 Z M-49 -51 L-49 -36 L-46 -36 L-44 -34 L-41 -35 L-37 -33 L-34 -30 L-32 -29 L-32 -28 L-33 -27 L-35 -29 L-35 -30 L-37 -31 L-38 -33 L-42 -33 L-48 -35 L-52 -36 L-54 -36 L-59 -37 L-61 -37 L-61 -36 L-67 -34 L-67 -35 L-66 -37 L-64 -37 L-65 -38 L-70 -35 L-69 -34 L-71 -33 L-74 -32 L-74 -31 L-77 -30 L-77 -29 L-85 -27 L-88 -27 L-83 -29 L-81 -29 L-78 -31 L-76 -32 L-75 -34 L-78 -34 L-78 -33 L-80 -34 L-80 -34 L-81 -34 L-83 -34 L-83 -35 L-84 -36 L-86 -36 L-89 -37 L-89 -38 L-90 -38 L-89 -39 L-87 -41 L-85 -41 L-84 -42 L-81 -42 L-82 -43 L-82 -43 L-81 -44 L-84 -43 L-88 -43 L-90 -43 L-93 -45 L-87 -46 L-86 -46 L-86 -46 L-83 -46 L-89 -49 L-91 -49 L-90 -50 L-87 -50 L-85 -51 L-85 -52 L-83 -52 L-77 -53 L-74 -54 L-72 -54 L-71 -53 L-67 -53 L-68 -53 L-65 -53 L-56 -52 L-54 -52 L-49 -51 Z M-99 -42 L-97 -42 L-94 -41 L-95 -41 L-97 -41 L-99 -41 L-99 -42 Z" fill="#444444" stroke="#222222" stroke-width="0.3"/>
<path d="M62 29 L62 30 L62 31 L62 32 L58 32 L58 31 L58 31 L60 31 L61 31 L60 29 L59 29 L60 29 L62 29 Z" fill="#444444" stroke="#222222" stroke-width="0.3"/>
<path d="M63 32 L62 31 L62 29 L65 29 L65 30 L66 30 L66 30 L67 31 L67 31 L65 31 L64 31 L64 31 L63 32 Z" fill="#444444" stroke="#222222" stroke-width="0.3"/>
<path d="M50 18 L52 18 L52 18 L50 18 L50 18 Z M52 17 L54 18 L53 19 L53 18 L52 17 Z M52 20 L52 20 L53 22 L52 23 L51 21 L52 20 Z" fill="#444444" stroke="#222222" stroke-width="0.3"/>
<path d="M-11 8 L-7 8 L-7 8 L-1 10 L3 10 L3 10 L6 10 L8 11 L9 13 L10 14 L12 14 L13 13 L14 13 L15 13 L17 16 L18 18 L21 19 L20 22 L20 25 L21 27 L23 30 L25 31 L25 32 L30 30 L31 30 L32 27 L37 26 L38 27 L36 29 L37 29 L36 31 L35 31 L34 32 L31 32 L31 33 L30 33 L32 34 L32 35 L30 35 L29 36 L29 37 L26 35 L25 35 L22 36 L15 33 L13 32 L11 31 L8 29 L7 28 L8 28 L8 26 L7 24 L3 20 L2 20 L2 18 L-0 17 L-1 16 L-1 16 L-3 14 L-5 11 L-7 10 L-7 10 L-7 12 L-2 18 L-1 22 L0 22 L1 23 L1 24 L-1 22 L-3 21 L-3 19 L-8 16 L-7 16 L-6 15 L-8 13 L-11 8 Z" fill="#444444" stroke="#222222" stroke-width="0.3"/>
<path d="M53 47 L53 48 L52 48 L52 49 L51 48 L52 47 L50 46 L48 47 L49 49 L47 49 L47 48 L46 48 L46 48 L44 47 L44 48 L44 45 L45 45 L45 46 L46 47 L49 45 L50 45 L53 47 Z" fill="#444444" stroke="#222222" stroke-width="0.3"/>
<path d="M45 45 L44 45 L44 46 L44 47 L43 47 L43 46 L41 44 L40 45 L40 45 L40 43 L39 43 L40 43 L42 43 L43 43 L45 45 Z" fill="#444444" stroke="#222222" stroke-width="0.3"/>
<path d="M43 43 L42 43 L40 43 L36 40 L38 39 L38 39 L39 38 L39 38 L41 37 L42 37 L44 37 L42 42 L43 43 Z" fill="#cc3333" stroke="#222222" stroke-width="0.3"/>
<path d="M44 37 L42 37 L41 37 L39 38 L39 38 L38 39 L38 39 L37 40 L36 39 L36 38 L35 38 L34 37 L34 36 L36 35 L41 35 L44 37 Z" fill="#444444" stroke="#222222" stroke-width="0.3"/>
<path d="M34 37 L35 38 L36 39 L36 40 L32 39 L34 37 Z" fill="#444444" stroke="#222222" stroke-width="0.3"/>
<path d="M29 37 L29 36 L30 35 L32 35 L32 34 L30 33 L31 33 L31 32 L34 32 L34 35 L35 35 L34 36 L34 37 L32 39 L31 38 L29 37 Z" fill="#444444" stroke="#222222" stroke-width="0.3"/>
<path d="M34 32 L35 31 L36 31 L35 34 L34 35 L34 35 L34 32 Z" fill="#444444" stroke="#222222" stroke-width="0.3"/>
<path d="M69 31 L72 31 L71 32 L69 32 L69 31 Z" fill="#444444" stroke="#222222" stroke-width="0.3"/>
<path d="M51 31 L54 31 L55 32 L53 32 L51 31 Z" fill="#444444" stroke="#222222" stroke-width="0.3"/>
<path d="M45 23 L48 24 L50 25 L51 24 L54 27 L56 27 L56 27 L58 28 L57 29 L52 29 L53 28 L52 27 L51 26 L45 25 L46 24 L44 24 L42 25 L41 25 L43 24 L45 23 Z" fill="#444444" stroke="#222222" stroke-width="0.3"/>
<path d="M78 43 L79 43 L79 44 L78 44 L78 43 Z" fill="#444444" stroke="#222222" stroke-width="0.3"/>
</svg>