<svg xmlns="http://www.w3.org/2000/svg" viewBox="0 0 80 80" width="80" height="80">
<path d="M-60 -57 L14 -57 L14 -58 L15 -58 L16 -56 L23 -55 L30 -54 L32 -55 L41 -51 L42 -50 L43 -50 L45 -49 L45 -48 L48 -47 L49 -42 L46 -38 L47 -37 L57 -40 L57 -42 L58 -42 L63 -42 L68 -46 L77 -46 L80 -47 L83 -53 L87 -52 L87 -48 L89 -46 L81 -43 L79 -40 L79 -39 L80 -38 L81 -38 L81 -39 L82 -38 L81 -37 L71 -35 L76 -35 L71 -35 L70 -34 L71 -34 L70 -32 L68 -30 L66 -31 L68 -28 L65 -25 L66 -27 L65 -28 L64 -30 L64 -29 L64 -28 L63 -28 L64 -27 L66 -21 L64 -19 L57 -15 L51 -10 L51 -6 L54 2 L53 7 L51 7 L50 5 L47 -0 L47 -2 L45 -6 L44 -6 L41 -5 L37 -7 L29 -6 L30 -4 L29 -4 L25 -4 L23 -5 L19 -5 L15 -5 L9 -0 L8 3 L9 5 L8 5 L4 4 L2 1 L-2 -4 L-4 -5 L-6 -5 L-7 -3 L-10 -4 L-11 -5 L-13 -8 L-17 -11 L-21 -11 L-21 -10 L-29 -10 L-39 -13 L-39 -13 L-45 -13 L-45 -14 L-49 -17 L-54 -18 L-55 -20 L-57 -22 L-59 -27 L-63 -30 L-63 -32 L-65 -34 L-64 -38 L-65 -40 L-63 -48 L-64 -51 L-65 -55 L-65 -55 L-61 -54 L-60 -52 L-59 -52 L-60 -57 Z M-149 20 L-146 22 L-148 24 L-149 22 L-149 20 Z M-149 19 L-150 19 L-151 18 L-151 18 L-149 19 Z M-153 18 L-151 18 L-153 18 L-153 18 Z M-155 16 L-154 17 L-154 17 L-155 17 L-155 17 L-155 16 Z M-158 15 L-159 16 L-159 15 L-159 15 L-158 15 Z M-180 -87 L-175 -87 L-175 -86 L-177 -86 L-180 -87 Z M-142 -81 L-139 -80 L-144 -78 L-145 -78 L-146 -80 L-142 -81 Z M-109 -112 L-109 -87 L-104 -86 L-100 -83 L-94 -86 L-89 -82 L-84 -77 L-80 -75 L-79 -74 L-81 -72 L-85 -74 L-86 -77 L-89 -79 L-90 -81 L-97 -82 L-106 -85 L-113 -87 L-117 -86 L-125 -89 L-128 -88 L-128 -86 L-138 -84 L-138 -86 L-137 -88 L-134 -89 L-135 -90 L-144 -85 L-142 -83 L-145 -81 L-150 -79 L-151 -78 L-155 -77 L-156 -76 L-168 -72 L-173 -72 L-165 -75 L-161 -76 L-156 -78 L-154 -80 L-152 -83 L-156 -83 L-157 -82 L-159 -84 L-160 -83 L-161 -84 L-165 -83 L-165 -85 L-167 -86 L-170 -86 L-174 -88 L-174 -89 L-176 -90 L-175 -92 L-172 -95 L-168 -95 L-166 -96 L-162 -96 L-163 -98 L-164 -98 L-162 -99 L-167 -98 L-173 -98 L-177 -99 L-182 -102 L-172 -104 L-170 -104 L-170 -103 L-164 -103 L-174 -108 L-178 -109 L-177 -110 L-172 -110 L-168 -111 L-168 -113 L-165 -114 L-155 -115 L-151 -117 L-147 -116 L-145 -115 L-139 -115 L-139 -115 L-135 -114 L-120 -113 L-116 -114 L-109 -112 Z M-191 -97 L-188 -96 L-183 -95 L-186 -94 L-189 -95 L-191 -95 L-191 -97 Z" fill="#444444" stroke="#222222" stroke-width="0.3"/>
<path d="M77 22 L77 24 L76 25 L77 26 L71 26 L69 25 L70 24 L74 25 L75 24 L74 22 L72 22 L73 21 L77 22 Z" fill="#444444" stroke="#222222" stroke-width="0.3"/>
<path d="M78 27 L76 25 L77 21 L81 22 L82 23 L83 23 L83 24 L86 25 L85 26 L81 25 L80 26 L80 25 L78 27 Z" fill="#444444" stroke="#222222" stroke-width="0.3"/>
<path d="M57 3 L60 3 L60 3 L57 4 L57 3 Z M60 2 L63 3 L62 5 L62 3 L60 2 Z M59 7 L60 7 L61 11 L60 11 L59 9 L59 7 Z" fill="#444444" stroke="#222222" stroke-width="0.3"/>
<path d="M-45 -13 L-39 -13 L-39 -13 L-29 -10 L-21 -10 L-21 -11 L-17 -11 L-13 -8 L-11 -5 L-10 -4 L-7 -3 L-6 -5 L-4 -5 L-2 -4 L2 1 L4 4 L9 5 L7 9 L7 14 L8 19 L12 24 L15 25 L16 26 L24 24 L26 23 L27 18 L36 17 L36 19 L34 22 L35 22 L33 26 L32 25 L31 27 L25 27 L25 28 L24 28 L27 30 L26 31 L23 31 L22 34 L22 36 L17 32 L15 31 L10 33 L-1 28 L-4 26 L-9 25 L-14 21 L-14 20 L-14 19 L-13 17 L-15 13 L-22 7 L-24 6 L-24 4 L-27 2 L-28 -0 L-29 -0 L-32 -3 L-34 -9 L-39 -11 L-39 -10 L-38 -6 L-30 3 L-28 9 L-26 9 L-24 12 L-26 13 L-28 10 L-32 8 L-32 5 L-39 0 L-38 0 L-37 -2 L-41 -5 L-45 -13 Z" fill="#444444" stroke="#222222" stroke-width="0.3"/>
<path d="M62 51 L62 53 L61 54 L60 55 L59 53 L59 52 L57 50 L53 52 L54 54 L52 55 L52 54 L50 54 L50 53 L47 52 L47 53 L47 49 L48 49 L49 50 L51 51 L56 49 L57 49 L62 51 Z" fill="#444444" stroke="#222222" stroke-width="0.3"/>
<path d="M48 49 L47 49 L47 51 L47 52 L45 52 L45 50 L41 47 L41 49 L39 48 L39 46 L39 45 L40 44 L44 46 L45 45 L48 49 Z" fill="#444444" stroke="#222222" stroke-width="0.3"/>
<path d="M45 45 L44 46 L39 45 L34 40 L36 39 L36 38 L38 37 L39 37 L41 35 L43 35 L46 34 L44 44 L45 45 Z" fill="#cc3333" stroke="#222222" stroke-width="0.3"/>
<path d="M46 34 L43 35 L41 35 L39 37 L38 37 L36 38 L36 39 L35 40 L34 39 L33 37 L32 37 L29 36 L30 34 L33 32 L41 32 L46 34 Z" fill="#444444" stroke="#222222" stroke-width="0.3"/>
<path d="M29 36 L32 37 L34 38 L33 39 L27 38 L29 36 Z" fill="#444444" stroke="#222222" stroke-width="0.3"/>
<path d="M22 36 L22 34 L23 31 L26 31 L27 30 L24 28 L25 28 L25 27 L30 27 L30 32 L32 32 L30 34 L29 36 L27 38 L24 37 L22 36 Z" fill="#444444" stroke="#222222" stroke-width="0.3"/>
<path d="M30 27 L32 25 L33 25 L32 30 L31 32 L30 32 L30 27 Z" fill="#444444" stroke="#222222" stroke-width="0.3"/>
<path d="M89 25 L93 26 L92 26 L89 26 L89 25 Z" fill="#444444" stroke="#222222" stroke-width="0.3"/>
<path d="M59 26 L63 25 L65 27 L62 27 L59 26 Z" fill="#444444" stroke="#222222" stroke-width="0.3"/>
<path d="M48 12 L53 13 L56 14 L59 14 L64 18 L66 18 L66 19 L70 20 L68 21 L61 21 L62 20 L59 19 L58 17 L49 14 L50 14 L47 14 L44 16 L41 16 L44 13 L48 12 Z" fill="#444444" stroke="#222222" stroke-width="0.3"/>
<path d="M104 46 L106 45 L106 47 L103 47 L104 46 Z" fill="#444444" stroke="#222222" stroke-width="0.3"/>
</svg>