<svg xmlns="http://www.w3.org/2000/svg" viewBox="0 0 76 80" width="76" height="80">
<path d="M55 42 L59 44 L59 45 L61 46 L60 47 L60 48 L61 48 L61 50 L62 52 L61 52 L58 53 L56 53 L56 52 L55 51 L52 50 L52 48 L51 48 L51 46 L51 46 L52 45 L52 44 L52 44 L52 43 L52 42 L55 42 Z" fill="#444444" stroke="#222222" stroke-width="0.3"/>
<path d="M12 13 L12 15 L9 15 L9 18 L8 18 L8 18 L8 20 L4 20 L4 20 L4 20 L6 20 L7 17 L9 16 L9 15 L9 15 L10 14 L12 14 L12 13 Z" fill="#444444" stroke="#222222" stroke-width="0.3"/>
<path d="M50 44 L51 48 L52 48 L52 50 L50 50 L50 51 L50 51 L50 53 L51 54 L51 54 L51 55 L50 55 L49 54 L49 54 L48 53 L48 53 L47 53 L47 53 L46 53 L46 52 L43 52 L43 49 L42 49 L42 48 L41 48 L41 49 L40 49 L39 49 L38 47 L34 47 L33 47 L34 46 L35 46 L35 46 L36 46 L37 45 L37 44 L38 43 L39 42 L40 37 L41 36 L44 37 L44 37 L45 37 L46 36 L46 36 L47 36 L49 36 L49 37 L50 37 L51 37 L52 38 L52 39 L53 39 L51 41 L50 44 Z" fill="#444444" stroke="#222222" stroke-width="0.3"/>
<path d="M63 43 L62 42 L62 38 L64 37 L64 37 L65 36 L66 36 L70 32 L70 30 L73 29 L72 31 L72 32 L70 36 L68 38 L65 41 L63 43 Z" fill="#444444" stroke="#222222" stroke-width="0.3"/>
<path d="M61 46 L59 45 L59 44 L55 42 L55 41 L56 39 L55 37 L57 36 L57 36 L57 36 L58 37 L58 37 L59 38 L61 38 L62 37 L63 37 L63 37 L62 38 L62 42 L63 43 L62 44 L61 46 L61 46 Z" fill="#444444" stroke="#222222" stroke-width="0.3"/>
<path d="M46 33 L45 33 L45 32 L45 31 L44 30 L44 29 L43 29 L44 27 L44 27 L44 25 L45 26 L45 21 L46 21 L46 19 L58 19 L59 23 L60 23 L58 24 L58 28 L56 30 L56 31 L55 33 L55 31 L55 30 L55 29 L54 29 L53 29 L54 30 L53 31 L52 32 L51 31 L50 32 L48 32 L47 31 L46 31 L46 32 L45 33 L46 33 Z" fill="#444444" stroke="#222222" stroke-width="0.3"/>
<path d="M45 22 L45 26 L44 25 L44 27 L44 27 L43 29 L44 29 L44 30 L43 31 L42 32 L41 32 L40 32 L40 33 L39 33 L37 34 L37 34 L36 32 L35 32 L35 31 L37 31 L36 30 L36 28 L35 28 L35 27 L35 27 L35 25 L36 25 L37 21 L36 20 L36 18 L37 18 L45 22 Z" fill="#444444" stroke="#222222" stroke-width="0.3"/>
<path d="M38 70 L38 70 L39 70 L40 71 L41 70 L41 66 L42 67 L42 68 L43 68 L45 67 L46 67 L47 67 L47 66 L48 66 L48 65 L51 64 L53 64 L53 66 L53 67 L52 67 L52 68 L53 69 L53 69 L53 68 L54 68 L54 70 L50 74 L47 76 L44 75 L41 76 L40 76 L39 74 L40 74 L39 73 L38 70 Z" fill="#444444" stroke="#222222" stroke-width="0.3"/>
<path d="M50 70 L51 71 L50 72 L49 72 L49 72 L48 71 L49 70 L50 70 Z" fill="#444444" stroke="#222222" stroke-width="0.3"/>
<path d="M53 64 L51 64 L49 63 L49 62 L47 61 L47 59 L48 59 L50 57 L52 57 L52 57 L53 57 L54 58 L54 62 L53 64 Z" fill="#444444" stroke="#222222" stroke-width="0.3"/>
<path d="M51 64 L48 65 L48 66 L47 66 L47 67 L46 67 L45 67 L43 68 L42 68 L42 67 L41 66 L41 63 L42 63 L42 60 L44 59 L45 60 L47 59 L47 61 L49 62 L49 63 L51 64 Z" fill="#444444" stroke="#222222" stroke-width="0.3"/>
<path d="M41 63 L41 70 L40 71 L39 70 L38 70 L38 70 L36 69 L36 64 L33 60 L33 59 L35 58 L35 59 L40 59 L40 59 L43 59 L45 59 L46 59 L45 60 L44 59 L42 60 L42 63 L41 63 Z" fill="#444444" stroke="#222222" stroke-width="0.3"/>
<path d="M4 28 L3 26 L4 26 L5 25 L7 25 L8 25 L9 27 L10 29 L6 29 L4 29 L4 28 L7 28 L7 27 L6 28 L6 27 L4 28 Z" fill="#444444" stroke="#222222" stroke-width="0.3"/>
<path d="M10 29 L9 27 L9 26 L10 26 L12 26 L16 26 L16 25 L15 16 L16 16 L23 21 L23 21 L24 21 L24 22 L25 22 L25 24 L25 26 L23 26 L22 26 L20 26 L18 28 L17 28 L16 29 L16 31 L15 31 L15 31 L14 31 L13 31 L13 30 L13 30 L13 30 L12 29 L11 29 L10 29 L10 29 Z" fill="#444444" stroke="#222222" stroke-width="0.3"/>
<path d="M4 20 L4 20 L8 20 L8 18 L8 18 L9 18 L9 15 L12 15 L12 14 L16 16 L15 16 L16 25 L16 26 L12 26 L10 26 L9 26 L9 27 L8 25 L7 25 L5 25 L5 25 L5 23 L5 21 L4 20 Z" fill="#444444" stroke="#222222" stroke-width="0.3"/>
<path d="M24 35 L23 35 L23 32 L22 31 L23 30 L24 29 L25 30 L25 30 L25 31 L24 33 L24 35 Z" fill="#444444" stroke="#222222" stroke-width="0.3"/>
<path d="M36 18 L36 20 L37 21 L36 25 L35 25 L35 27 L35 27 L35 28 L36 28 L35 29 L34 28 L34 28 L32 28 L30 28 L29 28 L28 28 L27 27 L25 28 L25 30 L24 29 L23 29 L23 29 L22 28 L22 27 L22 26 L25 26 L25 24 L25 22 L27 22 L33 18 L35 18 L35 19 L36 18 Z" fill="#444444" stroke="#222222" stroke-width="0.3"/>
<path d="M24 35 L24 33 L25 31 L25 29 L26 27 L27 27 L28 28 L29 28 L30 28 L32 28 L34 28 L34 28 L36 29 L35 30 L33 34 L32 35 L31 34 L30 35 L30 36 L27 37 L26 35 L24 35 Z" fill="#cc3333" stroke="#222222" stroke-width="0.3"/>
<path d="M36 28 L36 29 L36 30 L37 31 L35 31 L35 32 L36 32 L37 34 L36 35 L36 37 L37 38 L37 40 L36 39 L31 39 L31 38 L30 37 L30 36 L30 35 L31 34 L32 35 L33 34 L35 30 L36 30 L36 29 L35 29 L36 28 Z" fill="#444444" stroke="#222222" stroke-width="0.3"/>
<path d="M22 30 L22 31 L23 32 L23 35 L22 35 L22 34 L22 33 L22 31 L21 30 L21 30 L22 30 Z" fill="#444444" stroke="#222222" stroke-width="0.3"/>
<path d="M21 30 L22 33 L22 34 L22 35 L19 37 L18 36 L18 35 L19 33 L18 30 L21 30 Z" fill="#444444" stroke="#222222" stroke-width="0.3"/>
<path d="M13 31 L14 31 L15 31 L15 31 L16 31 L17 32 L18 31 L18 32 L19 33 L18 35 L18 36 L16 36 L13 37 L14 36 L13 35 L13 33 L13 33 L13 31 L13 31 Z" fill="#444444" stroke="#222222" stroke-width="0.3"/>
<path d="M7 29 L10 29 L10 29 L10 29 L11 29 L12 29 L13 30 L13 30 L13 30 L13 31 L13 31 L13 33 L13 33 L13 34 L12 34 L11 33 L11 33 L10 32 L10 31 L9 31 L8 32 L6 30 L6 30 L7 29 L7 29 Z" fill="#444444" stroke="#222222" stroke-width="0.3"/>
<path d="M4 29 L7 29 L7 29 L6 30 L6 30 L5 30 L4 29 Z" fill="#444444" stroke="#222222" stroke-width="0.3"/>
<path d="M13 34 L13 35 L14 36 L13 37 L12 36 L10 34 L11 33 L11 33 L12 34 L13 34 Z" fill="#444444" stroke="#222222" stroke-width="0.3"/>
<path d="M8 32 L9 31 L10 31 L10 32 L11 33 L11 33 L10 34 L8 33 L8 32 Z" fill="#444444" stroke="#222222" stroke-width="0.3"/>
<path d="M16 31 L16 29 L17 29 L17 28 L18 28 L20 26 L22 26 L22 27 L22 28 L23 29 L23 30 L22 30 L18 30 L18 32 L18 31 L17 32 L16 31 Z" fill="#444444" stroke="#222222" stroke-width="0.3"/>
<path d="M49 36 L47 36 L46 36 L46 36 L45 37 L44 37 L44 37 L41 36 L40 37 L40 38 L38 38 L37 39 L37 38 L36 37 L36 36 L36 35 L37 34 L39 33 L40 33 L40 32 L41 32 L42 32 L43 31 L44 30 L45 31 L45 32 L46 33 L48 35 L49 36 Z" fill="#444444" stroke="#222222" stroke-width="0.3"/>
<path d="M40 38 L39 42 L38 43 L37 44 L37 45 L36 46 L35 46 L35 46 L34 46 L34 46 L33 46 L32 45 L33 45 L33 44 L34 44 L34 43 L34 44 L35 44 L36 43 L36 42 L35 41 L36 40 L35 40 L34 39 L37 40 L38 38 L38 38 L40 38 Z" fill="#444444" stroke="#222222" stroke-width="0.3"/>
<path d="M33 39 L34 39 L35 40 L36 40 L35 41 L36 42 L36 43 L35 44 L34 44 L34 43 L34 44 L33 44 L33 45 L32 45 L30 42 L31 40 L33 40 L33 39 Z" fill="#444444" stroke="#222222" stroke-width="0.3"/>
<path d="M31 39 L33 39 L33 40 L31 40 L31 40 L31 39 Z" fill="#444444" stroke="#222222" stroke-width="0.3"/>
<path d="M52 50 L55 51 L55 52 L54 53 L55 54 L54 55 L55 55 L52 56 L52 57 L50 57 L48 59 L47 59 L46 59 L45 59 L43 57 L43 54 L45 54 L45 52 L46 52 L46 53 L47 53 L47 53 L48 53 L48 53 L49 54 L49 54 L50 55 L51 55 L51 54 L51 54 L50 53 L50 51 L50 51 L50 50 L52 50 Z" fill="#444444" stroke="#222222" stroke-width="0.3"/>
<path d="M54 51 L55 51 L56 52 L56 55 L57 55 L57 56 L57 57 L57 58 L56 58 L56 58 L56 56 L54 55 L55 54 L54 53 L55 52 L54 51 Z" fill="#444444" stroke="#222222" stroke-width="0.3"/>
<path d="M56 53 L59 53 L61 52 L62 52 L62 56 L61 58 L59 59 L56 61 L56 62 L57 64 L57 66 L54 67 L54 67 L54 68 L54 68 L53 68 L53 67 L53 66 L53 64 L54 62 L54 58 L53 57 L52 57 L52 56 L55 55 L56 56 L56 58 L56 58 L57 58 L57 57 L57 56 L57 55 L56 55 L56 54 L56 53 Z" fill="#444444" stroke="#222222" stroke-width="0.3"/>
<path d="M53 68 L53 69 L53 69 L52 68 L52 67 L53 67 L53 68 Z" fill="#444444" stroke="#222222" stroke-width="0.3"/>
<path d="M34 46 L34 46 L33 47 L33 46 L34 46 L34 46 Z M34 47 L38 47 L39 49 L40 49 L41 49 L41 48 L42 48 L42 49 L43 49 L43 52 L45 52 L45 52 L45 53 L45 54 L43 54 L43 57 L45 59 L43 59 L40 59 L40 59 L35 59 L35 58 L33 59 L33 56 L35 53 L35 53 L34 51 L34 50 L34 47 Z" fill="#444444" stroke="#222222" stroke-width="0.3"/>
<path d="M52 44 L52 45 L51 46 L51 46 L50 44 L51 44 L51 44 L52 44 Z" fill="#444444" stroke="#222222" stroke-width="0.3"/>
<path d="M71 53 L71 55 L72 57 L72 57 L71 57 L71 57 L71 58 L69 66 L67 67 L65 66 L65 64 L65 63 L65 63 L66 61 L65 59 L66 58 L68 57 L69 56 L69 55 L69 55 L70 55 L71 53 Z" fill="#444444" stroke="#222222" stroke-width="0.3"/>
<path d="M4 28 L6 27 L6 28 L7 27 L7 28 L4 28 L4 28 Z" fill="#444444" stroke="#222222" stroke-width="0.3"/>
<path d="M31 11 L30 9 L29 8 L29 7 L29 6 L30 4 L31 4 L31 4 L31 4 L32 4 L32 5 L32 5 L32 5 L32 6 L31 7 L32 7 L32 7 L33 8 L33 9 L31 10 L31 11 L31 11 Z" fill="#444444" stroke="#222222" stroke-width="0.3"/>
<path d="M12 14 L12 12 L16 11 L16 11 L17 10 L18 9 L20 9 L20 8 L19 6 L20 5 L23 4 L27 4 L27 4 L30 4 L29 6 L29 7 L29 8 L30 9 L31 12 L31 15 L31 15 L32 17 L32 17 L33 18 L27 22 L24 22 L24 21 L23 21 L23 21 L12 14 Z" fill="#444444" stroke="#222222" stroke-width="0.3"/>
<path d="M58 27 L58 24 L60 23 L61 25 L64 28 L64 29 L62 27 L61 27 L60 26 L60 27 L59 26 L59 27 L58 27 Z" fill="#444444" stroke="#222222" stroke-width="0.3"/>
<path d="M19 6 L20 8 L20 9 L18 9 L17 10 L16 11 L16 11 L12 12 L12 14 L10 14 L9 16 L7 17 L6 20 L4 20 L5 17 L6 17 L7 15 L7 14 L8 13 L9 13 L12 11 L11 10 L12 8 L12 8 L14 7 L15 5 L16 5 L17 6 L19 6 Z" fill="#444444" stroke="#222222" stroke-width="0.3"/>
<path d="M58 19 L46 19 L46 12 L46 11 L46 10 L46 9 L48 9 L50 10 L52 9 L53 10 L53 10 L54 10 L55 10 L56 10 L56 12 L56 13 L55 13 L54 13 L54 11 L55 15 L57 17 L57 18 L58 19 Z" fill="#444444" stroke="#222222" stroke-width="0.3"/>
<path d="M46 12 L46 21 L45 21 L45 22 L37 18 L35 19 L35 18 L33 18 L32 17 L32 17 L31 15 L31 15 L31 12 L31 11 L31 11 L31 10 L33 9 L33 8 L36 9 L37 10 L40 11 L41 10 L41 9 L42 8 L44 8 L45 9 L46 9 L46 9 L46 10 L46 11 L46 12 Z" fill="#444444" stroke="#222222" stroke-width="0.3"/>
<path d="M69 33 L66 36 L65 36 L63 37 L63 37 L62 37 L61 38 L59 38 L58 37 L58 37 L57 36 L57 36 L57 36 L56 35 L55 34 L54 33 L55 33 L55 33 L56 31 L57 29 L58 27 L59 27 L59 26 L60 27 L60 26 L61 27 L63 28 L64 29 L63 30 L63 30 L64 30 L64 31 L65 32 L68 33 L69 33 Z" fill="#444444" stroke="#222222" stroke-width="0.3"/>
<path d="M64 29 L64 28 L65 29 L65 29 L64 29 L65 30 L64 30 L63 30 L63 30 L64 29 Z" fill="#444444" stroke="#222222" stroke-width="0.3"/>
<path d="M70 30 L70 32 L69 33 L68 33 L65 32 L64 31 L65 30 L66 31 L70 30 Z" fill="#444444" stroke="#222222" stroke-width="0.3"/>
<path d="M55 42 L52 42 L51 43 L51 41 L53 39 L52 39 L52 38 L53 37 L53 38 L55 37 L55 37 L56 38 L56 39 L55 41 L55 42 Z" fill="#444444" stroke="#222222" stroke-width="0.3"/>
<path d="M52 42 L52 43 L52 44 L51 44 L51 44 L50 44 L51 43 L52 42 Z" fill="#444444" stroke="#222222" stroke-width="0.3"/>
<path d="M52 38 L51 37 L49 37 L49 36 L48 35 L48 35 L46 34 L46 33 L45 33 L46 32 L46 31 L47 31 L48 32 L50 32 L51 31 L52 32 L53 31 L54 30 L53 29 L55 29 L55 30 L55 31 L55 33 L55 33 L55 33 L54 33 L55 34 L55 34 L57 36 L55 37 L53 38 L53 37 L52 38 Z" fill="#444444" stroke="#222222" stroke-width="0.3"/>
</svg>