<svg xmlns="http://www.w3.org/2000/svg" viewBox="0 0 80 80" width="80" height="80">
<path d="M79 55 L84 59 L85 59 L87 61 L86 63 L86 64 L87 64 L87 67 L88 70 L87 71 L83 72 L80 71 L79 69 L78 68 L74 67 L73 65 L72 64 L72 61 L72 61 L74 59 L73 58 L74 57 L74 56 L73 56 L79 55 Z" fill="#444444" stroke="#222222" stroke-width="0.3"/>
<path d="M14 12 L14 14 L8 14 L9 18 L7 18 L7 19 L7 21 L1 21 L1 22 L1 21 L4 21 L6 18 L8 16 L8 14 L9 14 L9 13 L13 12 L14 12 Z" fill="#444444" stroke="#222222" stroke-width="0.3"/>
<path d="M71 58 L72 64 L73 65 L74 67 L71 67 L70 68 L71 69 L70 72 L72 73 L72 72 L72 74 L71 74 L70 73 L69 72 L68 72 L67 72 L66 72 L66 71 L64 71 L64 71 L61 71 L60 65 L58 65 L58 64 L58 64 L56 65 L56 66 L54 66 L52 63 L46 63 L45 63 L46 62 L48 61 L48 61 L49 61 L51 59 L51 58 L52 57 L54 55 L55 47 L57 46 L61 48 L62 47 L62 47 L64 46 L65 46 L66 46 L69 46 L70 47 L70 47 L72 47 L74 48 L74 50 L74 50 L72 53 L71 58 Z" fill="#444444" stroke="#222222" stroke-width="0.3"/>
<path d="M90 56 L90 55 L89 50 L91 47 L92 47 L94 46 L96 46 L102 39 L102 36 L105 35 L105 38 L104 40 L101 46 L98 49 L93 53 L90 56 Z" fill="#444444" stroke="#222222" stroke-width="0.3"/>
<path d="M87 61 L85 59 L84 59 L79 55 L79 54 L80 51 L79 47 L81 45 L82 46 L82 47 L82 47 L83 47 L85 48 L87 49 L89 47 L90 48 L91 48 L89 50 L90 55 L90 56 L88 58 L87 61 L87 61 Z" fill="#444444" stroke="#222222" stroke-width="0.3"/>
<path d="M64 41 L63 41 L63 40 L63 38 L62 37 L61 35 L60 35 L61 32 L61 32 L62 30 L63 30 L63 23 L65 23 L65 20 L83 20 L84 25 L86 26 L83 28 L82 33 L80 37 L79 38 L79 41 L78 38 L78 37 L78 35 L77 35 L76 36 L76 37 L75 39 L74 39 L73 38 L71 39 L68 39 L66 38 L65 38 L64 40 L63 41 L64 41 Z" fill="#444444" stroke="#222222" stroke-width="0.3"/>
<path d="M63 24 L63 30 L62 30 L61 32 L61 32 L60 35 L61 35 L62 37 L60 38 L59 39 L57 40 L56 40 L56 41 L54 42 L50 43 L50 42 L50 40 L48 39 L48 39 L50 39 L50 37 L49 33 L48 33 L48 32 L48 32 L48 30 L50 28 L51 23 L50 21 L50 19 L51 18 L63 24 Z" fill="#444444" stroke="#222222" stroke-width="0.3"/>
<path d="M52 98 L53 97 L53 98 L55 98 L57 97 L57 92 L59 93 L59 95 L60 95 L62 93 L64 93 L66 93 L66 92 L67 92 L68 90 L72 88 L75 88 L76 91 L75 93 L74 93 L74 95 L75 96 L76 95 L76 95 L77 95 L76 98 L70 104 L66 106 L61 106 L57 107 L55 106 L54 104 L55 103 L55 102 L52 98 Z" fill="#444444" stroke="#222222" stroke-width="0.3"/>
<path d="M70 98 L72 99 L71 100 L70 101 L69 101 L68 100 L70 98 L70 98 Z" fill="#444444" stroke="#222222" stroke-width="0.3"/>
<path d="M75 88 L72 88 L70 87 L69 85 L67 83 L65 81 L68 81 L71 78 L73 78 L73 78 L74 78 L77 79 L77 85 L75 88 Z" fill="#444444" stroke="#222222" stroke-width="0.3"/>
<path d="M72 88 L68 90 L67 92 L66 92 L66 93 L64 93 L62 93 L60 95 L59 95 L59 93 L57 92 L57 87 L59 87 L59 82 L62 81 L63 82 L65 81 L67 83 L69 85 L70 87 L72 88 Z" fill="#444444" stroke="#222222" stroke-width="0.3"/>
<path d="M57 87 L57 97 L55 98 L53 98 L53 97 L52 98 L50 95 L49 88 L45 82 L45 80 L47 80 L48 81 L55 80 L56 81 L59 81 L64 80 L65 81 L63 82 L62 81 L59 82 L59 87 L57 87 Z" fill="#444444" stroke="#222222" stroke-width="0.3"/>
<path d="M1 33 L-0 31 L1 31 L2 29 L4 28 L6 29 L8 32 L9 35 L3 35 L1 35 L1 34 L6 33 L5 33 L4 33 L4 33 L1 33 Z" fill="#444444" stroke="#222222" stroke-width="0.3"/>
<path d="M9 35 L8 32 L9 30 L10 31 L12 30 L18 30 L19 29 L17 16 L19 16 L30 22 L30 23 L32 24 L32 25 L33 25 L33 28 L32 30 L29 30 L28 31 L25 31 L22 33 L21 33 L19 36 L19 38 L18 38 L17 38 L16 38 L15 38 L14 37 L14 37 L14 36 L13 35 L11 36 L10 35 L9 35 Z" fill="#444444" stroke="#222222" stroke-width="0.3"/>
<path d="M1 22 L1 21 L7 21 L7 19 L7 18 L9 18 L8 14 L14 14 L14 12 L19 16 L17 16 L19 29 L18 30 L12 30 L10 31 L9 30 L8 32 L6 29 L4 28 L2 29 L2 29 L2 26 L2 23 L1 22 Z" fill="#444444" stroke="#222222" stroke-width="0.3"/>
<path d="M31 44 L30 44 L29 40 L28 38 L29 36 L31 35 L32 36 L33 37 L32 38 L31 41 L31 44 Z" fill="#444444" stroke="#222222" stroke-width="0.3"/>
<path d="M50 19 L50 21 L51 23 L50 28 L48 30 L48 32 L48 32 L48 33 L49 33 L48 35 L47 33 L46 34 L44 33 L41 34 L39 33 L37 34 L35 33 L33 33 L32 36 L31 35 L30 36 L30 35 L28 34 L27 32 L27 31 L32 30 L33 28 L33 25 L35 24 L45 18 L48 19 L48 19 L50 19 Z" fill="#444444" stroke="#222222" stroke-width="0.3"/>
<path d="M31 44 L31 41 L32 38 L32 35 L33 33 L35 33 L37 34 L39 33 L41 34 L44 33 L46 34 L47 33 L49 35 L48 37 L45 43 L44 44 L42 43 L41 44 L40 47 L36 47 L33 44 L31 44 Z" fill="#cc3333" stroke="#222222" stroke-width="0.3"/>
<path d="M49 34 L50 35 L50 37 L50 39 L48 39 L48 39 L50 40 L50 42 L49 44 L49 47 L51 49 L51 51 L49 50 L42 50 L42 49 L40 47 L40 45 L41 44 L42 43 L44 44 L45 43 L48 37 L49 36 L49 35 L48 35 L49 34 Z" fill="#444444" stroke="#222222" stroke-width="0.3"/>
<path d="M28 37 L28 38 L29 40 L30 44 L28 45 L28 43 L28 41 L27 38 L27 37 L27 37 L28 37 Z" fill="#444444" stroke="#222222" stroke-width="0.3"/>
<path d="M27 37 L28 41 L28 43 L28 45 L24 47 L22 46 L22 44 L23 41 L22 37 L27 37 Z" fill="#444444" stroke="#222222" stroke-width="0.3"/>
<path d="M15 38 L16 38 L17 38 L18 38 L19 38 L20 39 L21 39 L22 39 L23 41 L22 44 L22 46 L20 46 L15 47 L15 45 L14 44 L14 41 L15 41 L14 39 L15 38 Z" fill="#444444" stroke="#222222" stroke-width="0.3"/>
<path d="M6 35 L9 35 L9 35 L10 35 L11 36 L13 35 L14 36 L14 37 L14 37 L15 38 L14 39 L15 41 L14 41 L14 42 L13 43 L12 41 L11 41 L11 40 L10 38 L8 39 L7 40 L4 37 L4 36 L6 36 L6 35 Z" fill="#444444" stroke="#222222" stroke-width="0.3"/>
<path d="M1 35 L6 35 L6 36 L4 36 L4 37 L2 36 L1 35 Z" fill="#444444" stroke="#222222" stroke-width="0.3"/>
<path d="M14 42 L14 44 L15 45 L15 47 L13 46 L9 43 L11 41 L12 41 L13 43 L14 42 Z" fill="#444444" stroke="#222222" stroke-width="0.3"/>
<path d="M7 40 L8 39 L10 38 L11 40 L11 41 L11 41 L9 43 L7 42 L7 40 Z" fill="#444444" stroke="#222222" stroke-width="0.3"/>
<path d="M19 38 L19 36 L20 35 L20 34 L22 33 L25 31 L27 31 L27 32 L28 34 L30 35 L30 36 L28 37 L22 37 L22 39 L21 39 L20 39 L19 38 Z" fill="#444444" stroke="#222222" stroke-width="0.3"/>
<path d="M69 46 L66 46 L65 46 L64 46 L62 47 L62 47 L61 48 L57 46 L55 47 L55 49 L53 48 L51 50 L51 49 L49 47 L49 46 L49 44 L50 43 L54 42 L56 41 L56 40 L57 40 L59 39 L60 38 L62 37 L63 38 L63 40 L65 42 L67 45 L69 46 Z" fill="#444444" stroke="#222222" stroke-width="0.3"/>
<path d="M55 49 L54 55 L52 57 L51 58 L51 59 L49 61 L48 61 L48 61 L47 61 L46 61 L45 62 L44 60 L45 59 L44 58 L46 58 L46 57 L47 58 L48 58 L49 56 L49 55 L48 54 L49 52 L47 52 L47 50 L51 51 L52 49 L53 48 L55 49 Z" fill="#444444" stroke="#222222" stroke-width="0.3"/>
<path d="M44 50 L47 50 L47 52 L49 52 L48 54 L49 55 L49 56 L48 58 L47 58 L46 57 L46 58 L44 58 L45 59 L44 60 L40 56 L41 52 L44 52 L44 50 Z" fill="#444444" stroke="#222222" stroke-width="0.3"/>
<path d="M42 50 L44 50 L44 52 L41 52 L41 52 L42 50 Z" fill="#444444" stroke="#222222" stroke-width="0.3"/>
<path d="M74 67 L78 69 L78 70 L77 72 L78 73 L77 75 L78 75 L73 77 L73 78 L71 78 L68 81 L65 81 L65 80 L62 81 L60 78 L60 74 L64 74 L63 71 L64 71 L64 71 L66 71 L66 72 L67 72 L68 72 L69 72 L70 73 L71 74 L72 74 L72 72 L72 73 L70 72 L71 69 L70 68 L71 67 L74 67 Z" fill="#444444" stroke="#222222" stroke-width="0.3"/>
<path d="M77 68 L78 68 L79 69 L80 75 L81 75 L81 76 L82 78 L81 79 L80 80 L79 79 L80 76 L77 75 L78 73 L77 72 L78 70 L77 68 Z" fill="#444444" stroke="#222222" stroke-width="0.3"/>
<path d="M80 71 L84 72 L87 71 L88 70 L89 76 L87 79 L84 81 L80 84 L80 85 L81 88 L81 91 L77 93 L77 93 L77 94 L77 95 L76 95 L75 93 L76 91 L75 88 L77 85 L77 79 L74 78 L73 78 L73 77 L78 75 L80 76 L79 79 L80 80 L81 79 L82 78 L81 76 L81 75 L80 75 L79 73 L80 71 Z" fill="#444444" stroke="#222222" stroke-width="0.3"/>
<path d="M76 95 L76 95 L75 96 L74 95 L74 93 L75 93 L76 95 Z" fill="#444444" stroke="#222222" stroke-width="0.3"/>
<path d="M47 61 L46 62 L45 63 L45 62 L46 61 L47 61 Z M46 63 L52 63 L54 66 L56 66 L56 65 L58 64 L58 64 L58 65 L60 65 L61 71 L63 70 L63 71 L64 71 L64 74 L60 74 L60 78 L62 81 L59 81 L56 81 L55 80 L48 81 L47 80 L45 80 L45 76 L48 72 L48 71 L46 68 L47 67 L46 63 Z" fill="#444444" stroke="#222222" stroke-width="0.3"/>
<path d="M73 58 L74 59 L72 61 L72 61 L71 58 L72 58 L73 57 L73 58 Z" fill="#444444" stroke="#222222" stroke-width="0.3"/>
<path d="M102 72 L103 75 L104 78 L104 78 L103 77 L103 78 L103 80 L99 92 L96 93 L94 92 L93 89 L93 87 L94 86 L95 84 L94 80 L95 79 L98 78 L100 76 L100 75 L100 75 L101 75 L102 72 Z" fill="#444444" stroke="#222222" stroke-width="0.3"/>
<path d="M1 33 L4 33 L4 33 L5 33 L6 33 L1 34 L1 33 Z" fill="#444444" stroke="#222222" stroke-width="0.3"/>
<path d="M41 8 L41 5 L38 3 L38 2 L39 1 L40 -3 L41 -3 L42 -3 L42 -2 L44 -3 L43 -2 L43 -1 L44 -1 L43 1 L42 1 L43 2 L43 2 L44 3 L44 4 L42 6 L42 7 L41 8 Z" fill="#444444" stroke="#222222" stroke-width="0.3"/>
<path d="M14 12 L14 10 L19 8 L19 7 L21 7 L21 5 L25 5 L25 4 L23 0 L25 -1 L29 -2 L35 -2 L36 -3 L40 -3 L39 1 L38 2 L38 3 L41 5 L42 9 L42 13 L41 14 L43 17 L43 16 L45 18 L35 24 L32 25 L32 24 L30 23 L30 22 L14 12 Z" fill="#444444" stroke="#222222" stroke-width="0.3"/>
<path d="M83 32 L83 28 L86 26 L87 30 L93 34 L92 35 L89 32 L88 32 L87 31 L86 32 L85 31 L84 32 L83 32 Z" fill="#444444" stroke="#222222" stroke-width="0.3"/>
<path d="M23 0 L25 4 L25 5 L21 5 L21 7 L19 7 L19 8 L14 10 L13 12 L9 13 L8 16 L6 18 L4 21 L1 21 L2 18 L4 16 L5 14 L6 13 L7 11 L9 11 L12 8 L12 6 L13 4 L14 3 L16 2 L18 -1 L19 -1 L20 -0 L23 0 Z" fill="#444444" stroke="#222222" stroke-width="0.3"/>
<path d="M83 20 L65 20 L65 9 L65 8 L65 6 L65 6 L67 6 L71 7 L74 6 L75 6 L76 7 L76 6 L78 6 L79 6 L80 9 L79 11 L79 12 L77 10 L76 8 L79 14 L81 17 L81 19 L83 20 Z" fill="#444444" stroke="#222222" stroke-width="0.3"/>
<path d="M65 9 L65 23 L63 23 L63 24 L51 18 L48 19 L48 19 L45 18 L43 16 L43 17 L41 14 L42 13 L42 10 L41 8 L42 7 L42 6 L44 4 L44 3 L50 5 L51 6 L56 8 L57 6 L57 5 L59 4 L62 4 L62 5 L65 5 L65 6 L65 6 L65 8 L65 9 Z" fill="#444444" stroke="#222222" stroke-width="0.3"/>
<path d="M100 42 L96 46 L94 46 L91 48 L90 48 L89 47 L87 49 L85 48 L83 47 L82 47 L82 47 L82 46 L81 45 L80 44 L78 42 L77 42 L78 41 L79 41 L79 38 L82 35 L83 32 L84 32 L85 31 L86 32 L87 31 L88 32 L90 33 L92 35 L91 36 L91 37 L92 37 L92 38 L94 40 L99 42 L100 42 Z" fill="#444444" stroke="#222222" stroke-width="0.3"/>
<path d="M92 35 L93 34 L93 35 L93 36 L92 36 L93 36 L92 37 L91 37 L91 36 L92 35 Z" fill="#444444" stroke="#222222" stroke-width="0.3"/>
<path d="M102 36 L102 39 L100 42 L99 42 L94 40 L92 38 L93 36 L94 38 L102 36 Z" fill="#444444" stroke="#222222" stroke-width="0.3"/>
<path d="M79 55 L74 55 L72 56 L72 53 L74 50 L74 50 L74 48 L75 48 L76 48 L78 48 L79 47 L80 48 L80 51 L79 54 L79 55 Z" fill="#444444" stroke="#222222" stroke-width="0.3"/>
<path d="M73 56 L74 56 L74 57 L73 57 L72 58 L71 58 L72 56 L73 56 Z" fill="#444444" stroke="#222222" stroke-width="0.3"/>
<path d="M74 48 L72 47 L70 47 L68 45 L67 45 L67 44 L65 42 L65 42 L63 41 L64 40 L65 38 L66 38 L68 39 L71 39 L73 38 L74 39 L75 39 L76 37 L76 36 L78 35 L78 37 L78 38 L79 41 L79 41 L78 41 L77 42 L78 42 L79 43 L81 45 L78 48 L76 48 L75 48 L74 48 Z" fill="#444444" stroke="#222222" stroke-width="0.3"/>
</svg>