<svg xmlns="http://www.w3.org/2000/svg" viewBox="0 0 80 80" width="80" height="80">
<path d="M-15 -12 L21 -12 L21 -12 L21 -12 L22 -11 L25 -11 L28 -11 L29 -11 L34 -9 L34 -9 L35 -9 L36 -8 L36 -8 L37 -7 L37 -5 L36 -3 L37 -3 L41 -4 L41 -5 L42 -5 L44 -5 L47 -7 L51 -7 L52 -7 L54 -10 L56 -9 L56 -8 L57 -7 L53 -5 L52 -4 L52 -3 L52 -3 L53 -3 L53 -3 L53 -3 L53 -2 L48 -2 L50 -2 L48 -1 L47 -1 L48 -1 L48 0 L47 1 L46 0 L46 2 L45 3 L46 2 L45 2 L45 1 L45 1 L45 2 L44 2 L45 2 L46 5 L45 6 L41 8 L38 11 L38 12 L40 16 L40 19 L39 19 L38 18 L36 15 L37 14 L35 12 L35 12 L34 13 L32 12 L28 12 L28 13 L28 13 L26 14 L25 13 L23 13 L21 13 L18 15 L18 17 L18 18 L18 18 L16 17 L15 16 L13 13 L12 13 L11 13 L11 14 L10 13 L9 13 L8 12 L6 10 L4 10 L4 11 L0 11 L-4 9 L-4 9 L-7 9 L-8 9 L-9 7 L-12 7 L-12 6 L-13 5 L-14 2 L-16 1 L-16 -0 L-17 -1 L-16 -3 L-17 -4 L-16 -7 L-16 -9 L-17 -11 L-17 -11 L-15 -11 L-14 -9 L-14 -10 L-15 -12 Z M-57 25 L-55 26 L-57 27 L-57 26 L-57 25 Z M-57 24 L-58 24 L-58 24 L-58 24 L-57 24 Z M-59 24 L-58 24 L-59 24 L-59 24 Z M-60 23 L-59 24 L-59 24 L-60 24 L-60 23 L-60 23 Z M-61 22 L-61 23 L-62 23 L-62 22 L-61 22 Z M-72 -26 L-69 -26 L-69 -26 L-70 -26 L-72 -26 Z M-53 -23 L-52 -23 L-54 -22 L-55 -22 L-55 -23 L-53 -23 Z M-38 -38 L-38 -26 L-35 -26 L-33 -25 L-31 -26 L-28 -24 L-26 -22 L-24 -21 L-24 -20 L-24 -19 L-26 -20 L-27 -21 L-28 -22 L-29 -24 L-32 -24 L-36 -25 L-40 -26 L-42 -26 L-46 -27 L-47 -27 L-47 -26 L-52 -25 L-52 -26 L-51 -27 L-50 -27 L-50 -28 L-54 -25 L-54 -24 L-55 -24 L-57 -23 L-58 -22 L-60 -21 L-60 -21 L-66 -19 L-68 -19 L-64 -21 L-63 -21 L-60 -22 L-59 -23 L-58 -25 L-60 -24 L-61 -24 L-62 -25 L-62 -24 L-63 -25 L-65 -24 L-65 -25 L-65 -26 L-67 -26 L-69 -27 L-69 -27 L-70 -28 L-69 -29 L-68 -30 L-66 -30 L-65 -30 L-63 -31 L-63 -31 L-64 -32 L-63 -32 L-66 -31 L-68 -32 L-70 -32 L-73 -33 L-68 -34 L-67 -34 L-67 -34 L-64 -34 L-69 -36 L-71 -37 L-70 -37 L-68 -37 L-66 -38 L-66 -39 L-65 -39 L-60 -40 L-58 -40 L-56 -40 L-55 -40 L-52 -40 L-52 -39 L-50 -39 L-43 -39 L-41 -39 L-38 -38 Z M-77 -31 L-76 -31 L-73 -30 L-74 -30 L-76 -30 L-77 -30 L-77 -31 Z" fill="#444444" stroke="#222222" stroke-width="0.3"/>
<path d="M51 26 L51 27 L50 27 L51 28 L48 28 L47 27 L47 27 L49 27 L50 27 L49 26 L49 26 L49 25 L51 26 Z" fill="#444444" stroke="#222222" stroke-width="0.3"/>
<path d="M51 28 L50 27 L51 25 L53 26 L53 26 L54 26 L54 26 L55 27 L55 27 L53 27 L52 28 L52 27 L51 28 Z" fill="#444444" stroke="#222222" stroke-width="0.3"/>
<path d="M41 17 L43 16 L43 17 L42 17 L41 17 Z M43 16 L44 17 L44 18 L44 17 L43 16 Z M42 19 L43 19 L43 20 L43 20 L42 19 L42 19 Z" fill="#444444" stroke="#222222" stroke-width="0.3"/>
<path d="M-7 9 L-4 9 L-4 9 L0 11 L4 11 L4 10 L6 10 L8 12 L9 13 L10 13 L11 14 L11 13 L12 13 L13 13 L15 16 L16 17 L18 18 L17 20 L17 22 L18 24 L20 27 L21 27 L22 28 L26 27 L26 26 L27 24 L31 23 L31 24 L30 26 L31 26 L30 27 L29 27 L29 28 L26 28 L26 29 L25 29 L27 30 L27 30 L25 30 L24 31 L24 32 L22 30 L21 30 L19 31 L13 29 L12 28 L10 27 L8 25 L7 25 L8 25 L8 23 L7 22 L4 19 L3 18 L3 17 L1 16 L1 15 L0 15 L-1 14 L-2 11 L-4 10 L-5 11 L-4 12 L-0 17 L1 20 L2 20 L3 21 L2 22 L1 20 L-1 19 L-1 18 L-5 15 L-4 15 L-4 14 L-5 13 L-7 9 Z" fill="#444444" stroke="#222222" stroke-width="0.3"/>
<path d="M43 40 L44 41 L43 41 L43 42 L42 40 L42 40 L41 39 L40 40 L40 41 L39 42 L39 41 L38 41 L38 40 L37 40 L36 40 L36 39 L37 39 L37 39 L38 40 L41 38 L41 39 L43 40 Z" fill="#cc3333" stroke="#222222" stroke-width="0.3"/>
<path d="M37 39 L36 39 L37 39 L36 40 L36 40 L35 39 L34 38 L34 39 L33 38 L33 37 L33 37 L33 36 L35 37 L35 37 L37 39 Z" fill="#444444" stroke="#222222" stroke-width="0.3"/>
<path d="M35 37 L35 37 L33 37 L30 34 L32 34 L31 33 L32 33 L33 33 L34 32 L34 32 L36 32 L35 36 L35 37 Z" fill="#444444" stroke="#222222" stroke-width="0.3"/>
<path d="M36 32 L34 32 L34 32 L33 33 L32 33 L31 33 L32 34 L31 34 L30 34 L30 33 L29 33 L28 32 L28 32 L30 30 L34 30 L36 32 Z" fill="#444444" stroke="#222222" stroke-width="0.3"/>
<path d="M28 32 L29 33 L30 33 L30 34 L27 33 L28 32 Z" fill="#444444" stroke="#222222" stroke-width="0.3"/>
<path d="M24 32 L24 31 L25 30 L27 30 L27 30 L25 29 L26 29 L26 28 L28 28 L28 30 L30 31 L28 32 L28 32 L27 33 L26 33 L24 32 Z" fill="#444444" stroke="#222222" stroke-width="0.3"/>
<path d="M28 28 L29 27 L30 27 L29 30 L29 30 L28 30 L28 28 Z" fill="#444444" stroke="#222222" stroke-width="0.3"/>
<path d="M57 27 L59 27 L58 28 L56 28 L57 27 Z" fill="#444444" stroke="#222222" stroke-width="0.3"/>
<path d="M42 27 L44 27 L45 28 L44 28 L42 27 Z" fill="#444444" stroke="#222222" stroke-width="0.3"/>
<path d="M37 21 L39 21 L41 22 L42 22 L45 24 L46 24 L46 24 L48 25 L47 25 L43 25 L44 25 L42 24 L42 23 L37 22 L38 22 L37 22 L35 23 L34 23 L35 22 L37 21 Z" fill="#444444" stroke="#222222" stroke-width="0.3"/>
<path d="M64 37 L65 37 L64 38 L63 38 L64 37 Z" fill="#444444" stroke="#222222" stroke-width="0.3"/>
</svg>