<svg xmlns="http://www.w3.org/2000/svg" viewBox="0 0 80 80" width="80" height="80">
<path d="M-51 -46 L8 -46 L8 -47 L9 -47 L10 -46 L15 -45 L20 -44 L22 -45 L30 -42 L30 -41 L31 -41 L33 -40 L33 -40 L35 -39 L36 -35 L34 -32 L34 -31 L42 -33 L42 -35 L43 -35 L47 -35 L51 -38 L58 -38 L60 -39 L63 -43 L66 -42 L66 -39 L68 -38 L61 -35 L60 -33 L60 -32 L60 -31 L61 -31 L61 -32 L62 -31 L62 -31 L54 -29 L57 -29 L53 -29 L52 -28 L53 -28 L53 -27 L51 -25 L50 -26 L51 -24 L49 -21 L49 -23 L48 -24 L48 -25 L48 -25 L48 -23 L47 -24 L48 -23 L49 -18 L48 -16 L42 -13 L37 -9 L37 -6 L40 1 L39 4 L38 4 L37 3 L34 -1 L35 -3 L32 -6 L31 -6 L29 -5 L27 -7 L20 -6 L21 -4 L20 -4 L17 -4 L15 -5 L12 -6 L9 -5 L4 -1 L3 1 L4 3 L3 3 L-0 2 L-1 -1 L-4 -5 L-6 -6 L-8 -5 L-9 -4 L-11 -4 L-12 -5 L-13 -7 L-16 -10 L-20 -10 L-20 -9 L-26 -9 L-34 -11 L-34 -12 L-39 -11 L-39 -12 L-42 -15 L-46 -16 L-47 -17 L-49 -19 L-50 -23 L-53 -25 L-53 -27 L-54 -28 L-54 -32 L-55 -33 L-53 -39 L-54 -42 L-55 -45 L-55 -45 L-52 -44 L-51 -42 L-50 -43 L-51 -46 Z M-121 15 L-119 16 L-121 18 L-122 16 L-121 15 Z M-122 14 L-123 14 L-123 13 L-123 13 L-122 14 Z M-124 13 L-123 13 L-125 13 L-124 13 Z M-126 12 L-125 13 L-125 13 L-126 13 L-127 12 L-126 12 Z M-129 11 L-129 11 L-130 11 L-129 11 L-129 11 Z M-146 -70 L-142 -71 L-142 -70 L-143 -69 L-146 -70 Z M-116 -66 L-113 -65 L-117 -63 L-119 -63 L-119 -64 L-116 -66 Z M-90 -91 L-90 -71 L-86 -70 L-82 -68 L-78 -69 L-73 -66 L-70 -63 L-66 -61 L-66 -60 L-67 -59 L-71 -60 L-71 -62 L-74 -64 L-75 -66 L-80 -66 L-87 -69 L-93 -70 L-96 -70 L-103 -72 L-105 -71 L-105 -70 L-113 -68 L-113 -69 L-112 -71 L-110 -72 L-110 -73 L-117 -68 L-116 -67 L-118 -66 L-122 -64 L-123 -63 L-126 -62 L-127 -61 L-137 -59 L-141 -58 L-134 -61 L-131 -61 L-127 -64 L-125 -65 L-124 -68 L-127 -67 L-128 -67 L-130 -68 L-130 -67 L-131 -68 L-134 -67 L-134 -69 L-136 -70 L-138 -69 L-142 -71 L-142 -72 L-143 -73 L-142 -74 L-140 -77 L-137 -76 L-135 -77 L-132 -78 L-132 -79 L-133 -79 L-132 -80 L-136 -79 L-141 -79 L-144 -80 L-148 -82 L-140 -84 L-138 -84 L-138 -83 L-134 -83 L-142 -87 L-145 -88 L-143 -89 L-140 -89 L-137 -90 L-136 -91 L-134 -92 L-126 -93 L-123 -94 L-120 -94 L-118 -93 L-114 -93 L-114 -92 L-110 -92 L-98 -91 L-95 -92 L-90 -91 Z M-155 -78 L-153 -78 L-149 -77 L-151 -76 L-153 -77 L-155 -77 L-155 -78 Z" fill="#444444" stroke="#222222" stroke-width="0.3"/>
<path d="M58 16 L58 18 L57 18 L58 19 L53 20 L52 19 L52 18 L56 19 L57 18 L56 16 L54 16 L55 16 L58 16 Z" fill="#444444" stroke="#222222" stroke-width="0.3"/>
<path d="M59 20 L57 18 L58 16 L62 16 L62 17 L63 17 L63 17 L65 18 L64 19 L62 19 L60 19 L60 19 L59 20 Z" fill="#444444" stroke="#222222" stroke-width="0.3"/>
<path d="M42 1 L45 1 L45 1 L43 2 L42 1 Z M45 0 L47 1 L46 3 L46 1 L45 0 Z M44 4 L45 4 L45 7 L45 7 L44 6 L44 4 Z" fill="#444444" stroke="#222222" stroke-width="0.3"/>
<path d="M-39 -11 L-34 -12 L-34 -11 L-26 -9 L-20 -9 L-20 -10 L-16 -10 L-13 -7 L-12 -5 L-11 -4 L-9 -4 L-8 -5 L-6 -6 L-4 -5 L-1 -1 L-0 2 L4 3 L2 6 L2 10 L4 14 L6 18 L9 18 L9 19 L16 18 L17 17 L18 13 L25 12 L26 14 L24 16 L24 16 L23 19 L22 19 L21 20 L17 20 L17 21 L16 21 L18 23 L18 24 L15 24 L14 25 L14 27 L11 24 L9 23 L5 25 L-4 21 L-7 20 L-10 19 L-14 15 L-15 14 L-14 14 L-14 12 L-15 9 L-20 4 L-22 3 L-22 2 L-25 0 L-25 -1 L-26 -2 L-28 -4 L-30 -8 L-34 -10 L-34 -9 L-34 -6 L-27 1 L-25 6 L-24 6 L-22 8 L-23 9 L-26 7 L-28 5 L-29 3 L-34 -1 L-33 -1 L-33 -3 L-35 -5 L-39 -11 Z" fill="#444444" stroke="#222222" stroke-width="0.3"/>
<path d="M46 39 L46 41 L45 42 L45 43 L44 41 L44 40 L42 39 L39 40 L40 42 L38 43 L38 41 L37 42 L37 41 L34 40 L34 41 L34 38 L35 38 L35 39 L37 39 L41 37 L42 38 L46 39 Z" fill="#cc3333" stroke="#222222" stroke-width="0.3"/>
<path d="M35 38 L34 38 L34 39 L34 40 L33 40 L32 39 L30 36 L29 38 L28 37 L28 35 L28 35 L28 34 L32 35 L32 35 L35 38 Z" fill="#444444" stroke="#222222" stroke-width="0.3"/>
<path d="M32 35 L32 35 L28 34 L24 30 L26 30 L26 29 L27 28 L28 28 L30 26 L31 27 L33 26 L32 34 L32 35 Z" fill="#444444" stroke="#222222" stroke-width="0.3"/>
<path d="M33 26 L31 27 L30 26 L28 28 L27 28 L26 29 L26 30 L25 30 L24 29 L23 28 L22 28 L20 27 L21 26 L23 24 L30 24 L33 26 Z" fill="#444444" stroke="#222222" stroke-width="0.3"/>
<path d="M20 27 L22 28 L24 29 L23 30 L19 29 L20 27 Z" fill="#444444" stroke="#222222" stroke-width="0.3"/>
<path d="M14 27 L14 25 L15 24 L18 24 L18 23 L16 21 L17 21 L17 20 L21 20 L21 24 L23 24 L21 26 L20 27 L19 29 L16 28 L14 27 Z" fill="#444444" stroke="#222222" stroke-width="0.3"/>
<path d="M21 20 L22 19 L23 19 L22 23 L21 24 L21 24 L21 20 Z" fill="#444444" stroke="#222222" stroke-width="0.3"/>
<path d="M68 18 L71 19 L70 20 L67 20 L68 18 Z" fill="#444444" stroke="#222222" stroke-width="0.3"/>
<path d="M44 19 L47 19 L48 20 L46 20 L44 19 Z" fill="#444444" stroke="#222222" stroke-width="0.3"/>
<path d="M35 9 L39 9 L42 10 L44 10 L48 13 L50 13 L49 14 L53 15 L51 15 L45 16 L46 14 L44 14 L43 12 L36 10 L36 10 L34 10 L32 11 L30 11 L32 9 L35 9 Z" fill="#444444" stroke="#222222" stroke-width="0.3"/>
<path d="M79 35 L81 35 L81 36 L79 36 L79 35 Z" fill="#444444" stroke="#222222" stroke-width="0.3"/>
</svg>