<svg xmlns="http://www.w3.org/2000/svg" viewBox="0 0 105 80" width="105" height="80">
<path d="M50 8 L49 9 L49 9 L49 9 L48 10 L47 10 L46 11 L44 11 L45 13 L45 13 L45 13 L44 13 L41 13 L40 13 L40 13 L40 13 L38 13 L38 13 L36 14 L36 14 L36 14 L36 14 L35 14 L34 13 L34 13 L34 13 L33 12 L31 12 L30 12 L29 11 L27 11 L27 14 L26 14 L25 13 L24 14 L24 13 L23 13 L23 12 L23 12 L23 11 L25 11 L25 10 L23 10 L22 10 L21 10 L21 10 L21 9 L20 9 L20 9 L21 7 L21 8 L21 7 L23 6 L24 6 L27 7 L27 7 L29 7 L29 7 L30 7 L31 7 L31 7 L30 6 L30 6 L30 6 L31 5 L30 5 L31 5 L34 4 L36 4 L38 4 L38 5 L39 4 L40 5 L40 5 L40 5 L42 4 L42 5 L43 5 L44 7 L45 7 L46 7 L47 7 L48 8 L49 8 L50 8 Z" fill="#444444" stroke="#222222" stroke-width="0.3"/>
<path d="M27 14 L27 11 L29 11 L30 12 L31 12 L33 12 L34 13 L34 13 L34 13 L35 14 L36 14 L36 14 L36 14 L36 14 L38 13 L38 13 L37 14 L38 14 L38 14 L39 14 L38 15 L37 15 L38 14 L37 14 L36 15 L35 15 L35 16 L36 16 L36 16 L35 17 L34 17 L35 16 L33 16 L31 15 L31 14 L30 14 L30 14 L30 13 L29 13 L27 14 L28 14 L27 14 Z" fill="#444444" stroke="#222222" stroke-width="0.3"/>
<path d="M89 46 L92 47 L93 48 L93 48 L94 49 L94 49 L94 49 L94 50 L94 50 L95 51 L95 51 L95 51 L96 52 L96 52 L94 52 L93 51 L93 50 L92 50 L91 50 L91 51 L90 51 L89 51 L89 46 Z M98 47 L98 48 L98 48 L98 47 L96 46 L96 46 L98 47 Z M97 48 L96 49 L95 49 L95 48 L96 48 L96 48 L96 48 L96 48 L97 48 L97 47 L97 47 L98 48 L97 48 Z M99 48 L100 49 L100 49 L100 49 L99 48 Z" fill="#cc3333" stroke="#222222" stroke-width="0.3"/>
<path d="M89 46 L89 51 L89 50 L88 50 L88 50 L87 50 L87 50 L87 50 L87 48 L85 48 L84 47 L83 47 L83 47 L83 46 L84 46 L84 46 L83 46 L82 46 L82 45 L81 45 L83 45 L84 45 L84 46 L85 47 L86 46 L87 46 L87 46 L89 46 Z M77 51 L78 51 L77 52 L76 52 L77 51 L77 51 Z M84 49 L84 49 L84 48 L85 49 L84 49 Z M72 41 L72 42 L72 43 L72 43 L73 44 L72 44 L72 44 L72 45 L71 45 L71 47 L71 47 L70 47 L70 47 L69 47 L68 47 L68 47 L67 46 L66 45 L66 45 L66 44 L66 43 L66 43 L66 43 L67 44 L68 44 L69 43 L69 43 L70 43 L71 41 L72 41 Z M80 46 L81 47 L82 47 L81 47 L80 47 L80 46 Z M79 47 L78 47 L78 47 L79 47 L79 47 L79 47 Z M80 43 L80 43 L80 43 L80 43 L80 44 L80 44 L80 45 L80 45 L80 45 L79 44 L80 43 Z M74 43 L77 44 L77 43 L78 43 L77 44 L76 44 L74 44 L74 45 L74 45 L75 45 L76 45 L76 45 L76 45 L76 45 L75 46 L76 47 L75 47 L76 48 L76 48 L76 48 L75 48 L76 48 L75 48 L75 48 L75 47 L74 47 L74 46 L74 46 L74 48 L74 48 L73 48 L74 48 L73 47 L73 47 L73 46 L74 44 L74 43 Z M74 52 L73 51 L74 51 L74 52 L74 52 Z M74 50 L75 51 L76 50 L76 51 L74 51 L74 51 L74 50 Z M72 50 L73 50 L73 51 L71 51 L72 51 L72 51 L72 50 Z M65 49 L65 49 L67 49 L67 49 L68 49 L69 50 L70 50 L71 50 L70 51 L69 50 L65 50 L64 50 L64 49 L63 49 L64 49 L65 49 Z M62 45 L63 46 L63 46 L64 47 L63 49 L63 49 L61 47 L59 44 L58 43 L56 41 L56 40 L57 40 L60 43 L60 43 L61 43 L61 44 L62 44 L62 45 L62 45 Z" fill="#444444" stroke="#222222" stroke-width="0.3"/>
<path d="M77 51 L78 51 L79 50 L78 51 L77 51 Z" fill="#444444" stroke="#222222" stroke-width="0.3"/>
<path d="M12 20 L12 21 L11 20 L11 21 L12 21 L11 21 L12 21 L12 21 L11 23 L11 21 L11 20 L12 20 Z" fill="#444444" stroke="#222222" stroke-width="0.3"/>
<path d="M12 20 L11 20 L12 19 L12 19 L13 19 L12 20 Z" fill="#444444" stroke="#222222" stroke-width="0.3"/>
<path d="M12 21 L11 21 L12 21 L11 21 L11 20 L12 21 L12 21 Z" fill="#444444" stroke="#222222" stroke-width="0.3"/>
<path d="M11 23 L12 20 L13 21 L14 20 L14 21 L13 21 L14 22 L12 23 L11 23 Z" fill="#444444" stroke="#222222" stroke-width="0.3"/>
<path d="M24 27 L24 27 L25 27 L27 25 L27 25 L27 26 L27 26 L27 27 L26 27 L26 28 L24 27 L24 27 Z" fill="#444444" stroke="#222222" stroke-width="0.3"/>
<path d="M23 26 L23 26 L23 25 L24 26 L23 26 L23 26 Z" fill="#444444" stroke="#222222" stroke-width="0.3"/>
<path d="M21 22 L21 23 L21 23 L20 23 L20 23 L20 22 L21 22 Z" fill="#444444" stroke="#222222" stroke-width="0.3"/>
<path d="M14 21 L14 20 L16 19 L16 18 L17 17 L18 17 L19 17 L19 18 L19 18 L20 19 L19 19 L19 19 L20 20 L20 20 L21 21 L21 22 L21 22 L21 22 L21 22 L20 22 L20 23 L18 23 L16 21 L14 21 Z" fill="#444444" stroke="#222222" stroke-width="0.3"/>
<path d="M26 28 L26 27 L27 27 L27 26 L27 26 L28 27 L29 27 L30 28 L29 29 L28 29 L28 30 L27 31 L27 31 L27 31 L26 32 L25 32 L24 30 L26 30 L27 28 L26 28 Z M27 25 L27 25 L27 25 L27 25 L27 25 Z" fill="#444444" stroke="#222222" stroke-width="0.3"/>
<path d="M61 35 L61 34 L61 34 L62 34 L64 34 L64 34 L65 34 L65 34 L65 35 L63 36 L64 36 L62 37 L62 37 L61 35 Z" fill="#444444" stroke="#222222" stroke-width="0.3"/>
<path d="M63 34 L61 34 L61 34 L61 35 L60 35 L60 35 L60 34 L59 34 L59 35 L58 37 L59 38 L59 38 L59 39 L61 40 L60 40 L60 40 L60 40 L59 39 L59 40 L58 38 L58 39 L58 38 L58 37 L59 36 L58 34 L58 33 L58 32 L57 31 L57 31 L58 30 L58 30 L59 29 L59 30 L60 30 L60 30 L60 31 L61 31 L61 31 L61 31 L62 31 L63 32 L63 32 L63 33 L63 34 Z" fill="#444444" stroke="#222222" stroke-width="0.3"/>
<path d="M65 34 L64 34 L64 34 L63 34 L63 33 L63 32 L63 32 L62 31 L61 31 L61 31 L61 31 L60 31 L60 30 L60 30 L59 30 L59 29 L60 29 L60 29 L60 28 L61 28 L61 29 L62 29 L63 30 L62 30 L63 31 L64 33 L65 33 L65 34 Z" fill="#444444" stroke="#222222" stroke-width="0.3"/>
<path d="M60 29 L58 30 L58 30 L57 31 L57 31 L58 32 L58 33 L58 34 L59 36 L58 37 L58 36 L58 35 L58 35 L58 34 L57 32 L56 33 L55 33 L55 32 L55 31 L54 30 L54 30 L54 30 L53 29 L53 29 L54 29 L54 28 L54 28 L54 27 L55 27 L56 25 L56 25 L56 24 L57 24 L57 24 L58 24 L58 24 L58 25 L57 26 L57 27 L58 27 L58 27 L59 27 L59 28 L59 28 L60 28 L60 29 Z" fill="#444444" stroke="#222222" stroke-width="0.3"/>
<path d="M62 37 L64 36 L63 36 L65 35 L65 33 L64 33 L63 31 L62 30 L63 30 L62 29 L61 29 L61 28 L62 28 L63 27 L64 28 L64 28 L64 28 L65 28 L64 29 L63 30 L64 32 L66 33 L66 34 L66 36 L63 38 L63 38 L63 37 L62 37 Z" fill="#444444" stroke="#222222" stroke-width="0.3"/>
<path d="M82 13 L82 13 L82 13 L82 13 Z M81 13 L82 13 L81 13 L81 14 L81 14 L79 15 L79 16 L80 16 L80 16 L78 17 L77 16 L78 15 L77 15 L78 15 L79 14 L80 14 L80 13 L81 13 L81 13 Z" fill="#444444" stroke="#222222" stroke-width="0.3"/>
<path d="M78 17 L80 16 L81 17 L81 18 L80 19 L79 19 L79 18 L78 17 L79 17 L78 17 Z" fill="#444444" stroke="#222222" stroke-width="0.3"/>
<path d="M50 8 L53 7 L55 7 L55 8 L57 8 L58 7 L57 7 L58 6 L61 7 L61 7 L62 8 L64 7 L65 8 L67 8 L69 8 L70 7 L70 8 L71 8 L70 9 L71 9 L72 9 L72 9 L74 10 L74 10 L72 10 L71 11 L69 11 L68 11 L67 12 L68 12 L67 13 L64 13 L63 14 L60 13 L56 13 L56 12 L54 11 L52 11 L52 11 L52 10 L52 9 L50 9 L50 8 Z" fill="#444444" stroke="#222222" stroke-width="0.3"/>
<path d="M57 24 L57 24 L56 24 L56 25 L56 25 L55 27 L54 27 L54 28 L54 28 L53 27 L53 27 L53 27 L53 27 L53 26 L52 26 L52 25 L51 25 L50 25 L51 26 L50 26 L51 27 L51 27 L51 28 L51 28 L50 29 L50 29 L49 30 L48 30 L46 32 L46 32 L45 33 L44 33 L45 35 L44 35 L44 37 L44 37 L44 37 L44 38 L43 38 L43 38 L42 38 L41 36 L41 35 L40 34 L40 33 L39 29 L38 29 L37 29 L36 28 L37 28 L37 28 L36 27 L36 26 L38 26 L37 25 L37 25 L38 24 L38 24 L40 22 L40 21 L41 21 L40 20 L40 19 L40 19 L42 19 L43 18 L44 19 L44 20 L44 20 L44 20 L43 20 L43 21 L45 22 L45 22 L44 23 L47 24 L48 24 L48 25 L50 25 L50 24 L51 24 L51 24 L52 25 L53 25 L53 24 L53 24 L54 24 L55 23 L56 23 L56 23 L57 23 L56 23 L57 24 Z" fill="#444444" stroke="#222222" stroke-width="0.3"/>
<path d="M53 27 L54 29 L53 29 L53 29 L53 28 L52 28 L52 28 L51 28 L51 27 L51 27 L50 26 L51 26 L50 25 L51 25 L52 25 L52 26 L53 26 L53 27 L53 27 L53 27 L53 27 Z" fill="#444444" stroke="#222222" stroke-width="0.3"/>
<path d="M52 24 L53 24 L53 25 L52 25 L51 24 L51 24 L52 24 Z" fill="#444444" stroke="#222222" stroke-width="0.3"/>
<path d="M50 24 L50 25 L50 25 L48 25 L48 24 L47 24 L44 23 L45 22 L46 22 L49 24 L50 24 Z" fill="#444444" stroke="#222222" stroke-width="0.3"/>
<path d="M43 18 L42 19 L40 19 L40 19 L40 20 L41 21 L40 21 L40 22 L38 24 L38 24 L37 25 L37 25 L38 26 L36 26 L36 27 L35 27 L34 26 L31 26 L31 25 L32 25 L32 24 L32 24 L32 24 L31 23 L30 22 L32 23 L33 23 L34 22 L34 22 L35 21 L37 21 L37 20 L37 20 L37 20 L37 19 L38 19 L38 18 L38 18 L38 17 L41 17 L41 17 L42 18 L43 18 Z" fill="#444444" stroke="#222222" stroke-width="0.3"/>
<path d="M34 17 L36 17 L36 17 L36 17 L37 17 L37 17 L38 16 L38 16 L38 17 L38 17 L39 17 L41 17 L41 17 L38 17 L38 18 L38 18 L38 19 L37 19 L37 20 L37 20 L37 20 L37 21 L35 21 L34 22 L34 22 L33 23 L32 23 L30 22 L31 22 L31 21 L30 21 L30 20 L30 20 L30 20 L31 18 L31 18 L32 18 L32 18 L33 18 L33 17 L34 17 L34 17 Z" fill="#444444" stroke="#222222" stroke-width="0.3"/>
<path d="M35 17 L36 16 L36 16 L35 16 L35 15 L36 15 L37 14 L38 14 L37 15 L38 15 L38 15 L37 15 L37 15 L40 15 L40 16 L41 16 L41 17 L39 17 L38 17 L38 17 L38 16 L38 16 L37 17 L37 17 L36 17 L35 17 Z" fill="#444444" stroke="#222222" stroke-width="0.3"/>
<path d="M38 13 L38 13 L38 13 L40 13 L40 13 L40 13 L41 13 L44 13 L45 13 L43 14 L42 14 L42 15 L41 15 L40 15 L40 15 L40 15 L37 15 L37 15 L38 15 L39 14 L38 14 L38 14 L37 14 L38 13 L38 13 Z" fill="#444444" stroke="#222222" stroke-width="0.3"/>
<path d="M24 14 L25 13 L26 14 L28 14 L27 14 L29 13 L30 13 L30 14 L30 14 L31 14 L31 15 L33 16 L35 16 L34 17 L34 17 L34 17 L33 17 L33 18 L31 18 L31 18 L31 18 L30 17 L29 17 L28 16 L26 16 L26 17 L25 17 L25 16 L25 15 L25 15 L24 15 L24 14 L25 14 L26 14 L25 13 L25 14 L24 14 L24 14 Z" fill="#444444" stroke="#222222" stroke-width="0.3"/>
<path d="M21 22 L21 22 L21 22 L21 22 L21 21 L20 20 L20 20 L19 19 L19 19 L20 19 L19 18 L19 18 L18 16 L18 16 L18 15 L19 15 L19 16 L20 16 L21 15 L21 15 L21 16 L22 16 L22 17 L23 17 L24 17 L25 17 L26 16 L27 16 L29 17 L30 17 L31 18 L31 18 L30 20 L30 20 L30 20 L30 21 L31 21 L31 22 L30 22 L31 23 L32 24 L32 24 L32 24 L32 25 L31 25 L31 26 L28 25 L27 25 L27 24 L26 25 L25 25 L24 24 L23 24 L22 22 L22 22 L22 22 L21 22 Z" fill="#444444" stroke="#222222" stroke-width="0.3"/>
<path d="M12 20 L12 19 L13 19 L12 19 L12 19 L12 18 L13 18 L13 17 L15 17 L17 17 L16 18 L16 19 L13 21 L12 20 Z" fill="#444444" stroke="#222222" stroke-width="0.3"/>
<path d="M20 16 L20 16 L19 15 L18 15 L18 14 L19 14 L19 14 L19 15 L19 15 L19 15 L20 15 L20 16 Z" fill="#444444" stroke="#222222" stroke-width="0.3"/>
<path d="M19 17 L18 17 L17 17 L15 17 L13 17 L13 18 L12 18 L12 18 L12 17 L11 17 L11 18 L10 18 L9 17 L8 17 L8 18 L7 18 L7 17 L6 17 L5 16 L5 16 L5 15 L6 15 L7 15 L7 14 L9 14 L10 13 L11 13 L14 14 L15 14 L16 14 L17 14 L18 14 L18 15 L19 15 L18 15 L18 16 L18 16 L19 17 Z M5 14 L6 13 L6 13 L6 14 L7 14 L7 14 L6 14 L5 15 L5 14 L5 14 L5 14 Z" fill="#444444" stroke="#222222" stroke-width="0.3"/>
<path d="M93 75 L95 74 L95 75 L94 76 L94 76 L94 76 L93 76 L92 75 L92 74 L93 75 Z M78 68 L77 69 L76 69 L74 69 L72 70 L71 70 L70 69 L70 69 L71 69 L71 68 L70 66 L69 63 L69 64 L69 63 L70 64 L69 62 L69 61 L69 61 L69 60 L70 61 L70 60 L71 60 L72 60 L73 59 L74 59 L75 58 L75 57 L76 56 L76 57 L77 57 L76 57 L77 56 L77 56 L77 56 L78 55 L78 55 L78 55 L79 54 L80 55 L81 55 L81 55 L81 54 L81 54 L82 54 L82 53 L83 53 L83 53 L82 53 L83 52 L85 53 L86 53 L86 53 L86 54 L85 54 L86 54 L85 55 L89 57 L89 57 L89 56 L90 55 L90 53 L90 52 L91 54 L91 55 L92 55 L92 55 L92 56 L93 58 L95 59 L95 59 L96 61 L96 61 L96 61 L96 61 L96 62 L98 63 L98 64 L98 65 L98 68 L98 68 L97 69 L96 71 L96 72 L95 72 L95 72 L93 73 L92 73 L92 72 L91 73 L89 72 L88 72 L88 71 L88 71 L87 70 L87 70 L87 70 L87 70 L86 70 L87 69 L87 68 L86 69 L86 70 L85 70 L85 69 L84 68 L84 68 L82 67 L78 68 Z" fill="#444444" stroke="#222222" stroke-width="0.3"/>
<path d="M46 39 L46 40 L45 40 L44 39 L44 38 L45 37 L45 38 L46 39 Z" fill="#444444" stroke="#222222" stroke-width="0.3"/>
<path d="M66 31 L65 31 L65 30 L66 30 L67 30 L67 30 L67 31 L66 31 Z M45 13 L45 13 L45 13 L44 11 L46 11 L47 10 L48 10 L49 9 L49 9 L49 9 L50 8 L50 9 L52 9 L52 10 L52 11 L52 11 L54 11 L56 12 L56 13 L60 13 L63 14 L64 13 L66 13 L68 12 L67 12 L68 11 L69 11 L71 11 L72 10 L74 10 L74 10 L72 9 L72 9 L71 9 L70 9 L71 8 L72 8 L73 7 L73 7 L74 6 L74 6 L74 6 L75 5 L75 5 L76 5 L78 6 L79 8 L81 8 L82 9 L82 9 L83 9 L85 9 L83 11 L82 11 L82 11 L82 12 L82 13 L82 13 L82 13 L81 13 L81 13 L80 13 L80 14 L79 14 L77 15 L75 16 L75 15 L75 15 L75 15 L75 14 L74 15 L73 15 L72 16 L72 16 L72 16 L73 16 L73 17 L74 17 L74 17 L76 17 L76 17 L75 17 L73 19 L74 19 L75 21 L75 22 L75 22 L75 22 L75 22 L75 24 L75 24 L73 26 L71 28 L70 28 L69 28 L69 28 L69 28 L67 29 L67 29 L66 29 L66 29 L66 29 L64 28 L64 28 L64 28 L63 27 L62 28 L61 28 L60 28 L60 29 L60 29 L60 28 L59 28 L59 28 L59 27 L58 27 L58 27 L57 27 L57 26 L58 25 L58 24 L58 24 L56 23 L57 23 L56 23 L56 23 L55 23 L54 24 L53 24 L52 24 L51 24 L51 24 L50 24 L49 24 L48 23 L47 23 L46 22 L46 22 L45 22 L43 21 L43 20 L44 20 L44 20 L44 20 L44 19 L43 18 L42 18 L41 17 L41 17 L41 16 L40 16 L40 15 L40 15 L40 15 L41 15 L42 15 L42 14 L43 14 L45 13 Z" fill="#444444" stroke="#222222" stroke-width="0.3"/>
<path d="M75 26 L75 28 L74 28 L74 27 L75 26 L75 26 Z" fill="#444444" stroke="#222222" stroke-width="0.3"/>
<path d="M20 14 L21 14 L21 14 L22 15 L23 15 L22 15 L22 16 L21 16 L21 15 L21 15 L20 16 L20 15 L19 15 L19 15 L19 14 L20 14 L20 14 L20 14 Z M20 16 L19 16 L19 15 L19 15 L20 16 Z" fill="#444444" stroke="#222222" stroke-width="0.3"/>
<path d="M15 12 L17 13 L18 13 L19 13 L20 14 L20 14 L20 14 L19 14 L18 14 L17 14 L16 14 L16 13 L15 12 Z" fill="#444444" stroke="#222222" stroke-width="0.3"/>
<path d="M75 35 L74 34 L75 34 L75 35 L75 35 Z M76 37 L76 36 L76 36 L76 37 L77 36 L77 37 L76 38 L76 37 Z M78 37 L79 39 L78 40 L78 39 L78 39 L78 40 L78 40 L77 40 L77 39 L77 39 L76 39 L75 39 L75 39 L75 38 L76 38 L77 38 L77 38 L77 38 L78 38 L78 37 L78 37 Z M74 37 L72 38 L73 36 L74 37 Z M75 31 L75 31 L76 32 L75 32 L75 33 L75 34 L76 34 L77 34 L77 35 L76 34 L76 35 L75 34 L74 34 L74 34 L74 33 L74 34 L74 33 L74 32 L74 33 L74 31 L75 31 L75 31 Z M75 37 L75 36 L76 36 L76 36 L75 37 Z M78 35 L78 36 L77 36 L78 37 L77 37 L77 36 L77 36 L77 36 L77 36 L77 36 L77 35 L78 35 Z" fill="#444444" stroke="#222222" stroke-width="0.3"/>
<path d="M59 40 L59 39 L60 40 L60 40 L60 40 L61 40 L61 40 L62 41 L62 42 L62 43 L62 43 L60 42 L59 40 Z M72 41 L71 41 L70 43 L69 43 L69 43 L68 44 L67 44 L66 43 L66 43 L67 43 L67 43 L67 42 L69 42 L70 41 L70 41 L70 41 L70 41 L70 40 L71 39 L72 39 L72 40 L73 40 L73 41 L73 41 L73 41 L72 41 Z" fill="#444444" stroke="#222222" stroke-width="0.3"/>
<path d="M70 40 L70 41 L70 41 L70 41 L70 41 L70 40 Z" fill="#444444" stroke="#222222" stroke-width="0.3"/>
<path d="M90 16 L89 16 L89 17 L89 18 L89 18 L89 19 L88 19 L86 19 L85 20 L85 19 L85 19 L82 19 L83 20 L82 21 L82 22 L81 21 L81 21 L81 20 L81 20 L81 20 L83 18 L85 18 L85 18 L86 17 L87 17 L88 16 L89 15 L88 15 L89 14 L89 14 L90 15 L90 16 Z M92 12 L92 12 L93 13 L91 13 L91 13 L90 13 L89 14 L88 14 L88 13 L89 12 L89 12 L90 11 L91 12 L92 12 Z M83 20 L83 19 L84 19 L84 19 L85 19 L85 19 L84 20 L84 20 L84 20 L83 20 L83 20 L83 20 Z" fill="#444444" stroke="#222222" stroke-width="0.3"/>
<path d="M24 30 L25 32 L24 32 L24 33 L22 34 L21 34 L19 35 L19 35 L18 35 L17 33 L17 31 L18 32 L20 32 L20 32 L20 32 L21 31 L22 31 L24 30 Z" fill="#444444" stroke="#222222" stroke-width="0.3"/>
<path d="M11 23 L12 23 L13 22 L13 22 L14 22 L13 21 L14 21 L16 21 L18 23 L20 23 L21 23 L21 23 L21 24 L22 25 L23 26 L23 26 L23 26 L24 27 L26 28 L26 28 L27 28 L26 30 L24 30 L22 31 L21 31 L20 32 L20 32 L20 32 L18 32 L17 31 L17 32 L17 32 L16 30 L15 29 L14 29 L14 28 L14 27 L13 26 L13 26 L11 24 L11 24 L11 23 Z" fill="#444444" stroke="#222222" stroke-width="0.3"/>
<path d="M10 19 L10 18 L11 18 L11 19 L10 19 Z" fill="#444444" stroke="#222222" stroke-width="0.3"/>
<path d="M9 19 L10 18 L11 19 L10 19 L9 19 Z" fill="#444444" stroke="#222222" stroke-width="0.3"/>
</svg>