<svg xmlns="http://www.w3.org/2000/svg" viewBox="0 0 80 80" width="80" height="80">
<path d="M-9 -5 L-10 -4 L-11 -4 L-11 -4 L-11 -3 L-13 -3 L-13 -2 L-15 -2 L-15 -0 L-15 0 L-15 1 L-16 0 L-19 0 L-20 -0 L-20 -0 L-21 0 L-22 0 L-23 1 L-24 1 L-24 2 L-25 2 L-25 2 L-26 1 L-26 1 L-27 1 L-27 0 L-27 -1 L-30 -0 L-31 -1 L-33 -2 L-35 -2 L-35 1 L-35 1 L-36 1 L-37 1 L-37 0 L-38 -0 L-39 -1 L-38 -1 L-38 -2 L-37 -2 L-37 -3 L-39 -3 L-40 -3 L-41 -3 L-41 -3 L-41 -4 L-42 -4 L-42 -4 L-41 -6 L-41 -6 L-41 -6 L-39 -7 L-38 -7 L-35 -6 L-34 -6 L-33 -6 L-32 -6 L-31 -6 L-30 -6 L-30 -7 L-31 -7 L-31 -8 L-31 -8 L-30 -8 L-31 -9 L-30 -9 L-27 -9 L-24 -10 L-23 -10 L-22 -9 L-22 -9 L-21 -9 L-21 -8 L-20 -8 L-18 -9 L-18 -9 L-17 -8 L-15 -6 L-15 -7 L-14 -6 L-13 -6 L-11 -5 L-10 -5 L-9 -5 Z" fill="#444444" stroke="#222222" stroke-width="0.3"/>
<path d="M-35 1 L-35 -2 L-33 -2 L-31 -1 L-30 -0 L-27 -1 L-27 0 L-27 1 L-26 1 L-26 1 L-25 2 L-25 2 L-24 2 L-24 1 L-23 1 L-22 1 L-23 1 L-22 2 L-22 1 L-21 2 L-22 2 L-23 2 L-23 2 L-24 2 L-25 3 L-25 3 L-25 3 L-25 3 L-25 4 L-25 5 L-26 5 L-26 4 L-28 3 L-30 2 L-30 2 L-31 1 L-31 1 L-31 1 L-33 0 L-34 1 L-34 1 L-35 1 Z" fill="#444444" stroke="#222222" stroke-width="0.3"/>
<path d="M34 37 L37 38 L38 39 L38 39 L39 40 L40 40 L39 40 L39 41 L40 41 L40 42 L41 42 L41 42 L42 43 L42 43 L40 43 L38 42 L38 41 L37 41 L36 41 L36 42 L35 42 L34 42 L34 37 Z M43 38 L44 38 L43 39 L43 38 L42 37 L42 37 L43 38 Z M43 39 L41 40 L40 39 L40 39 L41 39 L41 39 L41 39 L42 39 L43 39 L42 38 L43 38 L43 39 L43 39 Z M45 39 L46 40 L46 40 L45 40 L45 39 Z" fill="#cc3333" stroke="#222222" stroke-width="0.3"/>
<path d="M34 37 L34 42 L33 41 L32 41 L32 41 L31 42 L32 41 L32 41 L31 39 L29 38 L28 38 L27 38 L27 37 L27 37 L28 37 L28 37 L27 37 L27 36 L26 36 L25 35 L27 35 L28 35 L29 37 L29 37 L30 37 L31 36 L32 36 L34 37 Z M21 42 L21 42 L21 43 L20 43 L20 42 L21 42 Z M28 40 L28 40 L29 39 L29 40 L28 40 Z M15 31 L15 32 L15 33 L15 33 L16 34 L15 34 L15 35 L15 35 L14 36 L14 38 L14 38 L13 38 L13 38 L12 37 L11 38 L10 37 L9 37 L9 36 L8 35 L8 34 L8 34 L9 33 L9 34 L9 34 L10 34 L11 34 L12 34 L13 34 L14 31 L15 31 Z M24 37 L25 37 L26 38 L25 38 L23 37 L24 37 Z M23 38 L22 38 L22 37 L23 37 L23 38 L23 38 Z M23 33 L23 33 L24 33 L24 34 L24 35 L24 34 L23 35 L24 35 L24 35 L23 34 L23 33 Z M18 34 L20 34 L21 33 L21 34 L21 34 L20 35 L17 35 L17 35 L18 36 L18 35 L20 35 L20 36 L19 35 L19 36 L18 36 L19 37 L19 38 L20 39 L20 39 L19 39 L19 39 L19 38 L18 39 L18 38 L18 38 L18 38 L18 37 L17 37 L17 39 L17 39 L16 39 L17 38 L17 38 L16 38 L16 37 L17 35 L18 34 Z M18 43 L16 42 L17 42 L18 43 L18 43 Z M18 41 L19 42 L19 41 L19 42 L17 42 L17 42 L18 41 Z M15 41 L16 41 L16 42 L14 42 L15 42 L15 42 L15 41 Z M8 40 L8 40 L9 40 L10 40 L11 40 L11 41 L13 41 L14 41 L13 42 L12 41 L8 41 L6 41 L6 40 L5 40 L6 39 L8 40 Z M4 36 L5 37 L5 37 L6 37 L6 39 L5 39 L3 38 L0 35 L-0 33 L-3 31 L-3 30 L-1 30 L1 33 L2 33 L3 34 L3 34 L4 35 L4 35 L4 36 Z" fill="#444444" stroke="#222222" stroke-width="0.3"/>
<path d="M21 42 L22 42 L23 41 L21 42 L21 42 Z" fill="#444444" stroke="#222222" stroke-width="0.3"/>
<path d="M-51 8 L-51 9 L-51 8 L-52 9 L-51 9 L-52 9 L-51 9 L-51 10 L-52 11 L-52 10 L-52 8 L-51 8 Z" fill="#444444" stroke="#222222" stroke-width="0.3"/>
<path d="M-51 8 L-52 8 L-51 7 L-50 7 L-50 7 L-51 8 Z" fill="#444444" stroke="#222222" stroke-width="0.3"/>
<path d="M-51 9 L-52 9 L-51 9 L-52 9 L-51 8 L-51 9 L-51 9 Z" fill="#444444" stroke="#222222" stroke-width="0.3"/>
<path d="M-52 11 L-51 8 L-50 9 L-49 8 L-48 9 L-50 9 L-49 10 L-51 11 L-52 11 Z" fill="#444444" stroke="#222222" stroke-width="0.3"/>
<path d="M-38 15 L-38 15 L-36 15 L-35 14 L-34 14 L-34 15 L-35 15 L-35 15 L-35 15 L-35 17 L-38 16 L-38 15 Z" fill="#444444" stroke="#222222" stroke-width="0.3"/>
<path d="M-39 15 L-39 14 L-38 14 L-38 14 L-38 15 L-39 15 Z" fill="#444444" stroke="#222222" stroke-width="0.3"/>
<path d="M-41 11 L-41 12 L-41 12 L-42 11 L-42 11 L-42 10 L-41 11 Z" fill="#444444" stroke="#222222" stroke-width="0.3"/>
<path d="M-48 9 L-49 8 L-47 7 L-47 5 L-45 5 L-44 5 L-44 5 L-43 6 L-43 6 L-43 6 L-43 7 L-43 7 L-43 8 L-42 9 L-41 9 L-41 10 L-41 10 L-41 10 L-41 11 L-42 10 L-42 11 L-44 11 L-46 10 L-48 9 Z" fill="#444444" stroke="#222222" stroke-width="0.3"/>
<path d="M-35 16 L-35 15 L-35 15 L-35 15 L-34 15 L-34 15 L-32 16 L-32 17 L-33 18 L-33 18 L-33 19 L-34 20 L-34 20 L-35 20 L-36 21 L-37 21 L-38 19 L-35 19 L-35 17 L-35 16 Z M-34 14 L-35 14 L-34 13 L-34 13 L-34 14 Z" fill="#444444" stroke="#222222" stroke-width="0.3"/>
<path d="M3 25 L3 24 L3 23 L4 23 L6 24 L6 23 L7 23 L7 24 L7 25 L6 25 L6 26 L4 26 L4 26 L3 25 Z" fill="#444444" stroke="#222222" stroke-width="0.3"/>
<path d="M5 23 L3 23 L3 24 L3 25 L2 25 L2 25 L2 24 L1 24 L1 25 L0 27 L0 27 L1 27 L1 29 L3 30 L2 30 L2 30 L2 30 L1 29 L1 30 L-0 28 L-0 28 L-1 28 L-0 27 L1 25 L0 24 L-1 23 L-0 22 L-1 20 L-1 20 L-1 19 L0 19 L1 18 L1 18 L1 19 L2 19 L2 21 L3 20 L3 20 L3 20 L4 20 L5 21 L5 21 L5 22 L5 23 Z" fill="#444444" stroke="#222222" stroke-width="0.3"/>
<path d="M7 23 L6 23 L6 24 L5 23 L5 22 L5 21 L5 21 L4 20 L3 20 L3 20 L3 20 L2 21 L2 19 L1 19 L1 18 L1 18 L2 17 L2 18 L2 17 L3 17 L3 18 L4 18 L5 19 L4 19 L5 20 L7 22 L7 22 L7 23 Z" fill="#444444" stroke="#222222" stroke-width="0.3"/>
<path d="M2 17 L0 19 L-1 19 L-1 20 L-1 20 L-0 22 L-1 23 L0 24 L1 25 L-0 27 L-0 25 L-0 25 L-0 24 L-1 24 L-1 21 L-3 22 L-4 22 L-4 21 L-4 20 L-4 19 L-4 19 L-5 19 L-5 18 L-5 17 L-5 18 L-5 17 L-5 17 L-5 15 L-4 15 L-3 14 L-3 13 L-2 13 L-1 13 L-1 12 L-1 12 L-0 13 L-0 14 L-1 14 L-1 15 L-0 15 L-0 16 L0 16 L0 17 L1 17 L2 17 L2 17 Z" fill="#444444" stroke="#222222" stroke-width="0.3"/>
<path d="M4 26 L6 26 L6 25 L7 25 L7 22 L7 22 L5 20 L4 19 L5 19 L4 18 L3 18 L3 17 L4 16 L5 16 L6 16 L6 17 L7 17 L7 17 L6 18 L5 19 L7 21 L8 22 L8 24 L8 25 L5 28 L5 27 L5 27 L4 26 Z" fill="#444444" stroke="#222222" stroke-width="0.3"/>
<path d="M26 1 L26 1 L26 1 L26 1 Z M25 0 L26 1 L25 1 L25 1 L25 2 L23 3 L23 3 L24 4 L24 4 L21 4 L21 4 L21 3 L20 2 L21 2 L23 1 L24 1 L23 1 L25 0 L25 0 Z" fill="#444444" stroke="#222222" stroke-width="0.3"/>
<path d="M22 4 L24 4 L25 5 L25 6 L24 6 L22 7 L22 6 L22 5 L23 5 L22 4 Z" fill="#444444" stroke="#222222" stroke-width="0.3"/>
<path d="M-9 -5 L-5 -6 L-4 -6 L-3 -6 L-1 -5 L-1 -6 L-1 -6 L-0 -7 L3 -7 L3 -6 L4 -6 L6 -6 L8 -5 L9 -5 L11 -5 L12 -6 L13 -5 L14 -6 L13 -4 L14 -4 L15 -4 L15 -4 L17 -3 L17 -3 L15 -3 L14 -2 L12 -1 L10 -2 L10 -1 L10 -1 L9 0 L6 1 L5 1 L2 0 L-2 0 L-3 -1 L-4 -2 L-6 -2 L-7 -2 L-6 -3 L-7 -4 L-9 -4 L-9 -5 Z" fill="#444444" stroke="#222222" stroke-width="0.3"/>
<path d="M-1 12 L-1 13 L-2 13 L-3 13 L-3 14 L-4 15 L-5 15 L-5 17 L-5 17 L-5 16 L-6 16 L-6 16 L-6 16 L-5 15 L-7 14 L-7 14 L-8 13 L-9 14 L-8 14 L-9 15 L-8 15 L-8 16 L-8 17 L-8 17 L-10 17 L-10 18 L-10 18 L-11 19 L-14 21 L-14 21 L-15 22 L-15 23 L-15 24 L-15 25 L-15 26 L-16 26 L-16 27 L-16 27 L-17 28 L-17 28 L-18 28 L-19 26 L-19 24 L-20 23 L-21 22 L-21 17 L-22 18 L-23 18 L-24 17 L-24 17 L-24 16 L-25 16 L-24 15 L-23 15 L-23 13 L-24 13 L-23 12 L-22 12 L-20 10 L-20 9 L-19 9 L-20 8 L-20 7 L-20 7 L-18 7 L-17 6 L-16 7 L-16 8 L-16 8 L-16 9 L-17 8 L-16 9 L-14 10 L-15 11 L-15 11 L-13 13 L-12 13 L-11 13 L-9 13 L-9 12 L-8 12 L-8 13 L-7 13 L-6 13 L-6 13 L-6 12 L-5 12 L-4 11 L-3 11 L-2 11 L-2 11 L-2 12 L-1 12 Z" fill="#444444" stroke="#222222" stroke-width="0.3"/>
<path d="M-5 16 L-5 18 L-5 17 L-5 18 L-6 16 L-7 16 L-7 17 L-8 17 L-8 16 L-8 15 L-9 15 L-8 14 L-9 14 L-8 13 L-7 14 L-7 14 L-5 15 L-6 16 L-6 16 L-6 16 L-5 16 Z" fill="#444444" stroke="#222222" stroke-width="0.3"/>
<path d="M-7 12 L-6 13 L-6 13 L-7 13 L-8 13 L-8 12 L-7 12 Z" fill="#444444" stroke="#222222" stroke-width="0.3"/>
<path d="M-9 12 L-9 13 L-9 13 L-11 13 L-12 13 L-13 13 L-15 11 L-15 11 L-14 10 L-11 12 L-9 12 Z" fill="#444444" stroke="#222222" stroke-width="0.3"/>
<path d="M-17 6 L-18 7 L-20 7 L-20 7 L-20 8 L-19 9 L-20 9 L-20 10 L-22 12 L-23 12 L-24 13 L-23 13 L-23 15 L-24 15 L-25 16 L-25 15 L-26 14 L-30 14 L-30 14 L-29 13 L-29 13 L-29 13 L-29 12 L-30 12 L-31 11 L-29 11 L-27 11 L-26 11 L-26 10 L-26 9 L-24 9 L-24 8 L-24 8 L-23 8 L-23 7 L-23 7 L-22 6 L-22 6 L-22 5 L-19 5 L-19 5 L-18 6 L-17 6 Z" fill="#444444" stroke="#222222" stroke-width="0.3"/>
<path d="M-27 4 L-25 5 L-24 5 L-24 5 L-24 4 L-23 4 L-23 4 L-22 4 L-22 5 L-22 5 L-21 4 L-19 5 L-19 5 L-22 5 L-22 6 L-22 6 L-23 7 L-23 7 L-23 8 L-24 8 L-24 8 L-24 9 L-26 9 L-26 10 L-26 11 L-27 11 L-29 11 L-31 11 L-30 10 L-30 9 L-31 9 L-31 8 L-31 8 L-31 8 L-30 6 L-30 6 L-29 6 L-29 6 L-28 5 L-28 5 L-27 5 L-27 4 Z" fill="#444444" stroke="#222222" stroke-width="0.3"/>
<path d="M-25 5 L-25 4 L-25 3 L-25 3 L-25 3 L-25 3 L-24 2 L-23 2 L-23 2 L-23 2 L-23 2 L-24 2 L-24 3 L-20 3 L-20 4 L-19 4 L-19 5 L-21 4 L-22 5 L-22 5 L-22 4 L-23 4 L-23 4 L-24 4 L-24 5 L-25 5 Z" fill="#444444" stroke="#222222" stroke-width="0.3"/>
<path d="M-23 1 L-22 0 L-22 0 L-21 0 L-20 -0 L-20 -0 L-19 0 L-16 0 L-15 1 L-17 1 L-18 2 L-18 2 L-20 2 L-20 3 L-20 3 L-20 3 L-24 3 L-24 2 L-22 2 L-21 2 L-22 1 L-22 2 L-23 1 L-22 1 L-23 1 Z" fill="#444444" stroke="#222222" stroke-width="0.3"/>
<path d="M-37 1 L-36 1 L-35 1 L-34 1 L-34 1 L-33 0 L-31 1 L-31 1 L-31 1 L-30 2 L-30 2 L-28 3 L-26 4 L-26 5 L-27 4 L-27 5 L-28 5 L-28 5 L-30 6 L-30 6 L-31 5 L-31 5 L-32 5 L-34 4 L-35 4 L-36 5 L-36 5 L-36 3 L-37 3 L-37 2 L-37 2 L-37 2 L-36 2 L-36 2 L-36 1 L-37 1 L-37 2 L-37 1 Z" fill="#444444" stroke="#222222" stroke-width="0.3"/>
<path d="M-41 11 L-41 10 L-41 10 L-41 10 L-41 9 L-42 9 L-43 8 L-43 7 L-43 7 L-43 6 L-43 6 L-43 6 L-44 4 L-44 4 L-44 3 L-44 3 L-43 3 L-43 3 L-41 3 L-41 3 L-41 3 L-40 4 L-40 4 L-39 5 L-38 5 L-36 5 L-35 4 L-34 4 L-32 5 L-31 5 L-31 5 L-30 6 L-31 8 L-31 8 L-31 8 L-31 9 L-30 9 L-30 10 L-31 11 L-30 12 L-29 12 L-29 13 L-29 13 L-29 13 L-30 14 L-30 14 L-34 14 L-34 13 L-34 13 L-36 13 L-37 13 L-37 12 L-38 12 L-39 10 L-40 11 L-40 10 L-41 11 Z" fill="#444444" stroke="#222222" stroke-width="0.3"/>
<path d="M-51 8 L-51 7 L-50 7 L-50 7 L-51 7 L-51 6 L-50 5 L-50 5 L-48 5 L-46 5 L-47 5 L-47 7 L-50 9 L-51 8 Z" fill="#444444" stroke="#222222" stroke-width="0.3"/>
<path d="M-42 3 L-43 3 L-43 3 L-45 2 L-45 2 L-44 1 L-43 2 L-43 2 L-43 2 L-43 3 L-42 3 L-42 3 Z" fill="#444444" stroke="#222222" stroke-width="0.3"/>
<path d="M-44 5 L-44 5 L-45 5 L-48 5 L-50 5 L-50 5 L-51 6 L-51 5 L-51 5 L-52 5 L-52 5 L-54 6 L-54 5 L-55 5 L-55 5 L-56 6 L-57 5 L-58 5 L-59 4 L-58 3 L-59 3 L-58 2 L-57 2 L-56 1 L-55 2 L-53 1 L-51 1 L-49 2 L-47 2 L-46 1 L-45 1 L-45 2 L-45 2 L-44 3 L-44 3 L-44 4 L-44 4 L-44 5 Z M-59 1 L-58 1 L-57 1 L-57 1 L-56 1 L-57 2 L-58 2 L-59 2 L-59 2 L-58 1 L-59 1 Z" fill="#444444" stroke="#222222" stroke-width="0.3"/>
<path d="M38 68 L40 68 L40 69 L40 70 L39 69 L39 70 L38 70 L37 68 L37 68 L38 68 Z M22 61 L20 61 L20 62 L17 62 L15 63 L14 63 L13 62 L13 62 L14 62 L14 61 L13 58 L12 56 L12 56 L12 55 L12 56 L12 54 L12 53 L12 53 L12 52 L12 53 L13 52 L14 51 L15 51 L16 51 L18 51 L19 49 L19 49 L19 48 L20 49 L20 48 L20 48 L20 48 L20 48 L21 47 L22 46 L22 46 L22 46 L23 46 L24 47 L25 47 L25 46 L25 46 L25 45 L26 45 L26 45 L27 44 L27 44 L27 44 L27 44 L29 45 L30 44 L31 45 L30 45 L30 45 L30 46 L30 47 L33 49 L34 49 L34 48 L35 47 L34 45 L35 43 L36 45 L36 46 L37 46 L37 47 L38 48 L38 50 L40 51 L40 51 L41 53 L41 53 L42 53 L42 53 L42 54 L44 55 L44 57 L44 57 L44 60 L43 61 L43 61 L41 64 L41 65 L41 65 L40 65 L38 66 L37 66 L37 65 L36 66 L34 65 L33 65 L33 64 L32 64 L32 63 L32 63 L32 62 L31 63 L31 63 L31 62 L31 61 L30 62 L30 63 L29 63 L29 62 L28 61 L29 61 L26 60 L22 61 Z" fill="#444444" stroke="#222222" stroke-width="0.3"/>
<path d="M-14 29 L-14 29 L-15 30 L-15 29 L-16 28 L-15 27 L-15 27 L-14 29 Z" fill="#444444" stroke="#222222" stroke-width="0.3"/>
<path d="M8 20 L8 20 L8 19 L8 19 L10 19 L10 19 L9 20 L8 20 Z M-15 1 L-15 0 L-15 -0 L-15 -2 L-13 -2 L-13 -3 L-11 -3 L-11 -4 L-11 -4 L-10 -4 L-9 -5 L-9 -4 L-7 -4 L-6 -3 L-7 -2 L-6 -2 L-4 -2 L-3 -1 L-2 0 L2 0 L5 1 L6 1 L8 0 L10 -1 L10 -1 L10 -2 L12 -1 L14 -2 L15 -3 L17 -3 L17 -3 L15 -4 L15 -4 L14 -4 L13 -4 L14 -6 L15 -5 L16 -6 L16 -6 L18 -7 L18 -8 L17 -8 L18 -8 L19 -8 L20 -8 L22 -8 L23 -5 L25 -5 L26 -5 L26 -4 L27 -4 L29 -4 L28 -2 L27 -2 L26 -2 L26 -1 L26 0 L26 0 L26 1 L25 0 L25 0 L23 1 L24 1 L23 1 L20 2 L18 3 L18 3 L18 3 L19 2 L18 2 L17 3 L16 3 L15 3 L15 3 L15 4 L16 4 L16 4 L17 5 L18 4 L19 4 L19 5 L18 5 L16 7 L17 7 L19 9 L19 10 L18 10 L18 10 L19 11 L18 12 L18 12 L16 15 L14 16 L13 16 L12 17 L12 17 L12 17 L10 17 L9 18 L9 18 L9 18 L9 17 L7 17 L6 17 L6 16 L5 16 L4 16 L3 16 L2 17 L2 18 L2 18 L2 17 L1 17 L0 17 L0 16 L-0 16 L-0 15 L-1 15 L-1 14 L-0 14 L-0 13 L-1 12 L-2 12 L-2 11 L-2 11 L-3 11 L-4 11 L-5 12 L-6 12 L-7 12 L-8 13 L-8 12 L-9 12 L-11 12 L-12 11 L-12 11 L-13 10 L-14 10 L-14 10 L-16 9 L-17 8 L-16 9 L-16 8 L-16 8 L-16 7 L-17 6 L-18 6 L-19 5 L-19 5 L-19 4 L-20 4 L-20 3 L-20 3 L-20 3 L-20 2 L-18 2 L-18 2 L-17 1 L-15 1 Z" fill="#444444" stroke="#222222" stroke-width="0.3"/>
<path d="M19 15 L18 16 L18 17 L17 16 L18 14 L19 15 Z" fill="#444444" stroke="#222222" stroke-width="0.3"/>
<path d="M-42 1 L-41 2 L-41 1 L-40 2 L-39 2 L-40 2 L-40 4 L-41 3 L-41 3 L-41 3 L-42 3 L-42 3 L-43 3 L-43 2 L-44 1 L-42 2 L-43 1 L-42 1 Z M-43 3 L-43 3 L-44 3 L-43 3 L-43 3 Z" fill="#444444" stroke="#222222" stroke-width="0.3"/>
<path d="M-48 -0 L-46 -0 L-44 0 L-43 0 L-42 1 L-43 1 L-42 1 L-43 1 L-45 2 L-45 1 L-46 1 L-46 0 L-48 -0 Z" fill="#444444" stroke="#222222" stroke-width="0.3"/>
<path d="M18 25 L17 24 L18 24 L18 24 L18 25 Z M19 27 L19 26 L20 26 L20 26 L20 26 L20 26 L19 27 L19 27 Z M22 27 L22 29 L22 30 L22 29 L21 29 L22 30 L21 30 L20 30 L20 29 L20 29 L20 28 L19 29 L19 29 L19 28 L20 28 L20 28 L21 28 L21 27 L21 27 L21 27 L22 27 Z M17 26 L15 28 L17 26 L17 26 Z M19 20 L19 20 L19 21 L19 22 L18 22 L18 23 L19 23 L20 24 L20 25 L19 24 L19 24 L19 24 L17 24 L18 23 L18 23 L17 23 L17 22 L17 22 L17 22 L18 20 L19 20 L19 20 Z M19 26 L19 25 L20 25 L19 26 L19 26 Z M21 25 L22 26 L21 26 L21 26 L21 27 L21 26 L21 26 L20 25 L21 26 L21 25 L20 25 L21 25 Z" fill="#444444" stroke="#222222" stroke-width="0.3"/>
<path d="M1 30 L1 29 L2 30 L2 30 L2 30 L3 30 L3 30 L4 31 L4 32 L4 34 L4 34 L2 32 L1 30 Z M15 31 L14 31 L13 34 L12 34 L11 34 L10 34 L9 34 L9 34 L9 33 L9 33 L10 33 L10 33 L11 32 L12 31 L13 31 L13 31 L13 31 L13 30 L14 29 L15 29 L15 30 L16 30 L16 31 L16 31 L16 31 L15 31 Z" fill="#444444" stroke="#222222" stroke-width="0.3"/>
<path d="M13 30 L13 31 L13 31 L13 31 L12 31 L13 30 Z" fill="#444444" stroke="#222222" stroke-width="0.3"/>
<path d="M35 3 L34 4 L34 5 L34 5 L34 6 L33 6 L32 7 L31 7 L30 8 L29 7 L29 7 L26 7 L27 8 L26 9 L26 10 L25 9 L25 9 L25 8 L25 8 L25 8 L27 6 L29 6 L30 6 L30 5 L31 5 L33 4 L33 3 L33 2 L33 1 L34 1 L35 2 L35 3 Z M37 -1 L37 -1 L38 -0 L36 0 L36 1 L34 0 L34 1 L33 1 L33 0 L33 -0 L34 -0 L35 -2 L36 -1 L37 -1 Z M27 8 L27 7 L28 7 L28 7 L29 7 L29 7 L28 8 L28 8 L28 8 L27 8 L27 8 L27 8 Z" fill="#444444" stroke="#222222" stroke-width="0.3"/>
<path d="M-38 19 L-37 21 L-38 22 L-38 22 L-40 23 L-41 23 L-43 24 L-44 24 L-45 25 L-45 22 L-45 21 L-45 21 L-42 21 L-42 21 L-42 21 L-41 20 L-40 20 L-38 19 Z" fill="#444444" stroke="#222222" stroke-width="0.3"/>
<path d="M-52 11 L-51 11 L-50 11 L-50 11 L-49 10 L-50 9 L-48 9 L-46 10 L-44 11 L-42 11 L-41 12 L-41 12 L-40 12 L-39 13 L-39 14 L-39 15 L-38 15 L-38 16 L-35 17 L-35 16 L-35 17 L-35 19 L-38 19 L-40 20 L-41 20 L-42 21 L-42 21 L-42 21 L-45 21 L-45 21 L-45 21 L-45 22 L-47 19 L-48 18 L-48 18 L-48 16 L-49 16 L-50 15 L-50 14 L-51 12 L-52 12 L-52 11 Z" fill="#444444" stroke="#222222" stroke-width="0.3"/>
<path d="M-53 6 L-53 6 L-52 6 L-52 6 L-53 6 Z" fill="#444444" stroke="#222222" stroke-width="0.3"/>
<path d="M-54 6 L-53 6 L-52 6 L-53 7 L-54 6 Z" fill="#444444" stroke="#222222" stroke-width="0.3"/>
</svg>