<svg xmlns="http://www.w3.org/2000/svg" viewBox="0 0 80 80" width="80" height="80">
<path d="M46 83 L47 84 L50 85 L49 86 L49 86 L48 85 L46 85 L46 83 Z M57 61 L56 65 L58 66 L58 67 L58 67 L58 68 L57 69 L56 69 L53 69 L53 71 L52 72 L51 72 L50 71 L50 72 L50 73 L51 73 L51 73 L52 73 L50 74 L49 76 L48 76 L48 76 L47 77 L48 78 L49 78 L49 79 L48 79 L47 80 L46 81 L46 82 L47 83 L43 83 L43 82 L43 81 L42 81 L42 81 L42 80 L42 79 L43 79 L43 78 L43 76 L43 76 L44 75 L43 75 L44 74 L43 74 L43 73 L43 73 L43 71 L44 70 L44 69 L44 67 L45 67 L45 66 L45 65 L45 64 L44 62 L45 61 L45 60 L45 59 L47 58 L46 57 L47 55 L48 55 L48 53 L49 53 L50 53 L51 54 L51 53 L52 53 L54 55 L57 56 L57 56 L56 58 L58 58 L59 58 L60 57 L60 56 L61 56 L61 57 L61 58 L60 59 L57 61 Z" fill="#444444" stroke="#222222" stroke-width="0.3"/>
<path d="M46 83 L46 85 L48 85 L47 86 L44 86 L42 84 L40 83 L44 85 L45 83 L46 83 L46 83 Z M45 48 L46 50 L47 50 L46 51 L47 54 L48 53 L48 54 L48 55 L47 55 L46 57 L47 58 L45 59 L45 60 L45 61 L44 62 L45 64 L45 65 L45 66 L45 67 L44 67 L44 69 L44 70 L43 71 L43 73 L43 73 L43 74 L44 74 L43 75 L44 75 L43 76 L43 76 L43 78 L43 79 L42 79 L42 80 L42 81 L42 81 L43 81 L43 82 L43 83 L46 83 L46 83 L44 83 L44 84 L44 84 L40 83 L39 79 L40 78 L41 78 L39 77 L40 76 L41 75 L42 75 L42 73 L42 73 L41 74 L41 74 L41 71 L42 70 L41 68 L42 68 L44 63 L43 62 L44 61 L44 60 L44 58 L45 52 L45 49 L45 48 Z" fill="#444444" stroke="#222222" stroke-width="0.3"/>
<path d="M54 82 L55 82 L56 82 L56 82 L57 82 L57 82 L56 83 L55 82 L54 83 L54 82 Z" fill="#444444" stroke="#222222" stroke-width="0.3"/>
<path d="M57 61 L58 61 L61 63 L62 63 L61 64 L62 64 L61 65 L60 66 L59 66 L57 65 L57 65 L57 61 Z" fill="#444444" stroke="#222222" stroke-width="0.3"/>
<path d="M62 64 L61 64 L62 63 L61 63 L58 61 L57 61 L60 59 L61 58 L61 57 L61 56 L60 56 L61 55 L60 55 L59 53 L57 53 L57 51 L57 51 L57 51 L57 50 L57 49 L57 48 L57 48 L57 47 L55 47 L54 46 L55 46 L54 45 L53 44 L52 43 L51 43 L50 42 L50 41 L48 41 L47 42 L44 42 L45 40 L44 41 L43 41 L42 40 L42 40 L42 40 L41 38 L41 38 L42 37 L42 36 L44 35 L45 35 L46 32 L45 31 L45 30 L46 30 L46 30 L45 30 L45 29 L47 29 L47 29 L48 30 L49 30 L49 30 L52 29 L51 28 L51 27 L50 27 L52 27 L54 26 L54 26 L54 26 L55 26 L55 26 L55 27 L55 28 L55 29 L56 30 L56 30 L58 29 L59 29 L59 28 L62 29 L63 27 L64 27 L64 29 L65 29 L65 30 L64 31 L65 31 L66 31 L66 32 L67 31 L70 32 L70 33 L70 34 L71 33 L73 34 L75 34 L78 36 L79 36 L80 36 L80 38 L80 40 L76 44 L76 49 L75 50 L74 52 L74 53 L73 53 L73 54 L70 54 L67 56 L66 57 L66 58 L66 59 L62 64 Z" fill="#444444" stroke="#222222" stroke-width="0.3"/>
<path d="M45 42 L47 42 L48 41 L50 41 L50 42 L51 43 L52 43 L53 44 L54 45 L55 46 L54 46 L55 47 L57 47 L57 48 L57 48 L57 49 L57 50 L57 51 L57 51 L57 51 L56 50 L53 50 L52 53 L51 53 L51 54 L50 53 L49 53 L48 53 L47 54 L46 51 L47 50 L46 50 L45 48 L46 47 L46 46 L46 46 L46 46 L46 45 L46 43 L45 42 Z" fill="#444444" stroke="#222222" stroke-width="0.3"/>
<path d="M45 35 L44 35 L42 36 L42 37 L41 38 L41 38 L42 40 L42 40 L42 40 L43 41 L44 41 L45 40 L44 42 L45 42 L46 43 L46 45 L46 46 L46 46 L46 46 L46 47 L45 49 L45 49 L44 49 L44 48 L39 45 L39 45 L39 44 L35 38 L34 37 L34 37 L34 36 L34 35 L35 34 L35 35 L35 35 L36 36 L36 35 L37 34 L38 33 L39 32 L40 32 L40 31 L40 31 L41 32 L42 33 L44 33 L45 34 L44 35 L45 35 Z" fill="#cc3333" stroke="#222222" stroke-width="0.3"/>
<path d="M48 30 L48 30 L47 29 L47 29 L45 29 L45 30 L46 30 L46 30 L45 30 L45 31 L46 32 L45 35 L44 35 L45 34 L44 33 L42 33 L41 32 L40 31 L39 30 L38 30 L36 29 L36 29 L37 28 L37 28 L38 27 L38 27 L38 25 L37 24 L37 23 L38 23 L38 22 L39 21 L40 20 L40 20 L42 20 L43 18 L44 19 L44 19 L44 19 L43 19 L42 20 L42 22 L42 22 L43 22 L43 23 L43 24 L45 24 L46 25 L48 25 L47 26 L48 28 L47 28 L48 29 L48 30 Z" fill="#444444" stroke="#222222" stroke-width="0.3"/>
<path d="M54 25 L54 26 L54 26 L52 27 L50 27 L51 27 L51 28 L52 29 L49 30 L49 30 L47 28 L48 28 L47 26 L48 25 L46 25 L45 24 L43 24 L43 23 L43 22 L42 22 L42 22 L42 20 L43 19 L44 19 L43 19 L43 20 L43 21 L43 22 L44 22 L44 21 L44 20 L45 20 L45 19 L45 19 L45 19 L46 19 L47 20 L49 20 L50 21 L51 20 L53 20 L52 20 L53 21 L53 21 L54 22 L54 22 L55 23 L54 23 L54 23 L55 24 L54 24 L54 25 Z" fill="#444444" stroke="#222222" stroke-width="0.3"/>
<path d="M58 29 L58 29 L56 30 L55 29 L55 28 L55 27 L55 26 L55 26 L54 26 L54 25 L54 24 L55 24 L54 23 L54 23 L55 23 L56 24 L56 24 L58 25 L58 26 L57 26 L57 27 L57 28 L58 28 L58 29 Z" fill="#444444" stroke="#222222" stroke-width="0.3"/>
<path d="M60 29 L59 28 L59 29 L58 29 L58 28 L57 28 L57 27 L57 26 L58 26 L58 25 L61 25 L60 26 L61 27 L60 29 Z" fill="#444444" stroke="#222222" stroke-width="0.3"/>
<path d="M40 31 L40 32 L39 32 L38 33 L37 34 L36 35 L36 36 L35 35 L35 35 L35 34 L35 33 L35 33 L35 34 L34 33 L34 32 L34 32 L35 30 L36 29 L37 30 L38 30 L39 30 L40 31 Z" fill="#444444" stroke="#222222" stroke-width="0.3"/>
<path d="M57 51 L57 51 L57 53 L59 53 L60 55 L61 55 L60 57 L59 58 L58 58 L56 58 L57 56 L57 56 L54 55 L52 53 L53 50 L56 50 L57 51 Z" fill="#444444" stroke="#222222" stroke-width="0.3"/>
</svg>