<svg xmlns="http://www.w3.org/2000/svg" viewBox="0 0 80 80" width="80" height="80">
<path d="M8 5 L7 6 L6 6 L6 7 L6 7 L4 7 L3 9 L1 9 L2 11 L1 11 L1 12 L-0 11 L-3 11 L-5 11 L-5 11 L-5 11 L-8 11 L-8 12 L-10 12 L-10 13 L-10 13 L-11 13 L-12 13 L-12 12 L-12 12 L-12 11 L-13 10 L-16 10 L-17 10 L-19 9 L-22 9 L-22 13 L-22 13 L-24 12 L-25 12 L-25 11 L-26 11 L-27 9 L-26 10 L-26 9 L-25 9 L-25 7 L-26 7 L-28 8 L-29 8 L-29 7 L-29 7 L-30 7 L-31 6 L-30 4 L-29 5 L-29 4 L-27 3 L-25 3 L-22 4 L-21 3 L-20 3 L-18 4 L-18 4 L-17 4 L-17 3 L-18 3 L-17 2 L-17 2 L-16 2 L-17 1 L-17 1 L-13 0 L-10 -1 L-8 -0 L-8 1 L-7 0 L-5 1 L-5 1 L-5 1 L-2 0 L-3 0 L-1 1 L1 4 L1 3 L3 4 L4 3 L6 5 L7 5 L8 5 Z" fill="#444444" stroke="#222222" stroke-width="0.3"/>
<path d="M-22 13 L-22 9 L-19 9 L-17 10 L-16 10 L-13 10 L-12 11 L-12 12 L-12 12 L-12 13 L-11 13 L-10 13 L-10 13 L-10 12 L-8 12 L-7 12 L-8 12 L-8 13 L-7 12 L-6 13 L-7 14 L-8 14 L-8 13 L-9 13 L-10 14 L-11 14 L-11 15 L-10 15 L-10 16 L-11 16 L-12 16 L-12 16 L-14 15 L-16 14 L-16 13 L-18 13 L-18 12 L-18 12 L-19 11 L-21 12 L-21 13 L-22 13 Z" fill="#444444" stroke="#222222" stroke-width="0.3"/>
<path d="M58 54 L61 55 L62 56 L63 56 L64 57 L64 57 L64 58 L64 58 L65 59 L65 60 L66 60 L66 60 L67 61 L67 61 L64 61 L63 60 L63 59 L61 58 L60 59 L60 60 L59 60 L58 60 L58 54 Z M69 55 L69 56 L69 56 L69 55 L67 54 L67 54 L69 55 Z M68 56 L66 57 L65 57 L65 56 L66 56 L67 56 L67 56 L67 56 L68 56 L68 55 L68 55 L69 56 L68 56 Z M71 56 L72 57 L72 58 L71 57 L71 56 Z" fill="#444444" stroke="#222222" stroke-width="0.3"/>
<path d="M58 54 L58 60 L57 59 L56 59 L56 59 L55 59 L55 58 L56 58 L55 56 L52 55 L51 55 L50 55 L50 54 L50 54 L51 54 L51 53 L50 53 L49 53 L49 53 L48 52 L50 52 L51 52 L52 54 L53 54 L54 53 L55 53 L55 53 L58 54 Z M43 60 L43 60 L42 61 L42 61 L42 60 L43 60 Z M52 58 L51 57 L52 56 L52 57 L52 58 Z M36 47 L36 48 L36 49 L36 50 L37 50 L36 51 L36 51 L36 52 L35 53 L35 55 L35 55 L33 55 L33 55 L32 54 L31 55 L30 54 L29 54 L29 53 L28 52 L28 51 L28 50 L29 49 L29 50 L29 51 L31 50 L32 50 L32 50 L33 50 L34 47 L36 47 Z M46 54 L48 54 L48 55 L48 55 L46 54 L46 54 Z M45 55 L44 55 L44 54 L45 54 L45 55 L45 55 Z M46 49 L46 50 L46 50 L46 50 L46 51 L46 51 L46 52 L46 52 L46 52 L45 50 L46 49 Z M39 50 L42 50 L43 50 L43 50 L42 51 L42 51 L38 51 L38 52 L39 53 L40 52 L41 52 L41 52 L41 52 L40 53 L40 53 L41 54 L40 55 L41 56 L41 56 L41 57 L40 56 L41 55 L40 56 L40 56 L40 55 L39 55 L39 54 L39 54 L39 56 L38 57 L38 56 L38 55 L38 55 L37 55 L37 54 L38 51 L39 50 Z M39 61 L37 60 L38 60 L39 61 L39 61 Z M39 59 L40 59 L41 59 L41 59 L38 60 L38 59 L39 59 Z M36 59 L37 59 L37 59 L35 60 L36 59 L36 59 L36 59 Z M27 57 L28 58 L29 58 L30 57 L31 58 L32 58 L33 59 L34 59 L33 60 L32 59 L27 59 L26 58 L25 58 L25 58 L25 57 L27 57 Z M24 52 L24 53 L25 54 L25 54 L25 57 L24 57 L22 55 L19 51 L18 50 L15 47 L15 46 L17 46 L20 49 L21 49 L22 50 L22 51 L23 51 L23 52 L24 52 Z" fill="#444444" stroke="#222222" stroke-width="0.3"/>
<path d="M43 60 L44 59 L45 59 L43 60 L43 60 Z" fill="#444444" stroke="#222222" stroke-width="0.3"/>
<path d="M-41 20 L-41 21 L-41 21 L-41 21 L-41 22 L-42 22 L-41 22 L-41 22 L-42 24 L-42 22 L-41 20 L-41 20 Z" fill="#444444" stroke="#222222" stroke-width="0.3"/>
<path d="M-41 20 L-41 20 L-41 19 L-40 19 L-40 19 L-41 20 Z" fill="#444444" stroke="#222222" stroke-width="0.3"/>
<path d="M-41 22 L-42 22 L-41 22 L-41 21 L-41 21 L-41 21 L-41 22 Z" fill="#444444" stroke="#222222" stroke-width="0.3"/>
<path d="M-42 24 L-41 21 L-40 21 L-38 20 L-38 21 L-40 22 L-39 23 L-40 24 L-42 24 Z" fill="#444444" stroke="#222222" stroke-width="0.3"/>
<path d="M-26 29 L-26 29 L-24 29 L-22 27 L-22 27 L-21 28 L-22 28 L-22 29 L-22 29 L-23 30 L-26 30 L-26 29 Z" fill="#444444" stroke="#222222" stroke-width="0.3"/>
<path d="M-27 28 L-27 27 L-26 27 L-26 28 L-26 28 L-27 28 Z" fill="#444444" stroke="#222222" stroke-width="0.3"/>
<path d="M-29 23 L-29 25 L-30 25 L-30 24 L-31 24 L-30 23 L-29 23 Z" fill="#444444" stroke="#222222" stroke-width="0.3"/>
<path d="M-38 21 L-38 20 L-36 19 L-36 17 L-34 16 L-33 17 L-32 16 L-32 18 L-31 18 L-31 18 L-31 19 L-32 19 L-31 20 L-30 21 L-29 22 L-30 22 L-29 22 L-29 23 L-29 23 L-30 23 L-31 24 L-32 24 L-35 22 L-38 21 Z" fill="#444444" stroke="#222222" stroke-width="0.3"/>
<path d="M-23 30 L-22 29 L-22 29 L-22 28 L-21 28 L-20 29 L-19 29 L-18 30 L-19 32 L-20 32 L-20 34 L-21 34 L-21 35 L-22 35 L-23 35 L-24 36 L-26 33 L-23 33 L-22 31 L-23 30 Z M-22 27 L-22 27 L-21 27 L-21 27 L-22 27 Z" fill="#444444" stroke="#222222" stroke-width="0.3"/>
<path d="M22 40 L22 39 L22 38 L24 38 L25 38 L26 38 L26 38 L27 39 L27 40 L25 40 L25 41 L24 41 L23 41 L22 40 Z" fill="#444444" stroke="#222222" stroke-width="0.3"/>
<path d="M24 38 L22 38 L22 39 L22 40 L21 39 L20 39 L20 39 L20 39 L20 40 L19 42 L19 43 L19 43 L20 44 L22 45 L21 46 L21 46 L21 45 L20 45 L20 45 L18 43 L18 44 L18 43 L18 42 L19 40 L19 38 L18 37 L18 36 L17 34 L17 34 L18 33 L19 33 L20 32 L20 32 L20 33 L21 33 L20 35 L21 34 L22 34 L23 34 L23 34 L24 35 L24 36 L25 37 L24 38 Z" fill="#444444" stroke="#222222" stroke-width="0.3"/>
<path d="M26 38 L26 38 L25 38 L24 38 L25 37 L24 36 L24 35 L23 34 L23 34 L22 34 L21 34 L20 35 L21 33 L20 33 L20 32 L20 32 L21 31 L21 31 L21 30 L22 30 L23 32 L24 32 L24 33 L23 33 L24 34 L26 36 L27 37 L26 38 Z" fill="#444444" stroke="#222222" stroke-width="0.3"/>
<path d="M21 31 L19 33 L18 33 L17 34 L17 34 L18 36 L18 37 L19 38 L19 40 L18 42 L18 41 L18 40 L18 39 L18 39 L17 35 L15 37 L14 36 L14 35 L14 34 L13 33 L14 33 L13 33 L12 32 L12 31 L13 31 L13 31 L13 30 L13 29 L14 29 L15 27 L15 26 L16 26 L17 26 L17 25 L18 25 L18 25 L18 27 L17 28 L17 29 L18 29 L18 30 L19 30 L19 31 L20 31 L21 31 L21 31 Z" fill="#444444" stroke="#222222" stroke-width="0.3"/>
<path d="M24 41 L25 41 L25 40 L27 40 L27 37 L26 36 L24 34 L23 33 L24 33 L24 32 L23 32 L22 30 L24 30 L25 29 L26 30 L26 30 L26 31 L27 31 L26 32 L25 33 L26 36 L28 37 L28 39 L28 40 L24 43 L24 43 L24 42 L24 41 Z" fill="#444444" stroke="#222222" stroke-width="0.3"/>
<path d="M48 12 L48 12 L48 12 L48 12 Z M48 11 L48 12 L48 12 L47 12 L47 13 L45 14 L45 15 L46 15 L46 15 L43 16 L43 16 L43 14 L42 14 L43 13 L45 12 L46 12 L46 12 L47 12 L48 11 Z" fill="#444444" stroke="#222222" stroke-width="0.3"/>
<path d="M44 16 L46 15 L47 17 L47 18 L47 18 L44 19 L44 18 L44 17 L45 17 L44 16 Z" fill="#444444" stroke="#222222" stroke-width="0.3"/>
<path d="M8 5 L12 4 L14 4 L15 4 L17 5 L18 4 L17 3 L18 2 L21 3 L22 4 L23 4 L26 4 L27 5 L30 5 L32 5 L33 4 L34 5 L35 5 L34 6 L34 7 L36 7 L36 6 L38 7 L38 8 L36 8 L34 8 L32 9 L31 9 L30 10 L31 10 L29 11 L25 12 L24 12 L20 11 L16 11 L15 10 L13 9 L11 9 L11 8 L11 7 L10 7 L8 6 L8 5 Z" fill="#444444" stroke="#222222" stroke-width="0.3"/>
<path d="M17 25 L17 26 L16 26 L15 26 L15 27 L14 29 L13 29 L13 30 L13 31 L12 29 L12 29 L12 30 L11 29 L12 28 L10 28 L10 27 L9 26 L8 27 L9 28 L8 28 L9 29 L9 29 L9 31 L9 31 L7 31 L7 32 L7 32 L5 33 L3 35 L3 36 L1 36 L1 37 L1 39 L1 40 L1 42 L0 42 L-0 42 L-0 43 L-1 43 L-2 44 L-2 43 L-3 41 L-4 39 L-4 38 L-5 36 L-6 31 L-8 32 L-8 32 L-9 31 L-9 30 L-9 30 L-10 29 L-10 28 L-8 28 L-8 26 L-9 26 L-8 25 L-7 25 L-4 22 L-5 22 L-4 21 L-4 21 L-5 19 L-5 19 L-2 19 L-1 18 L-0 19 L-0 20 L0 20 L-0 21 L-1 21 L-0 22 L2 23 L1 23 L1 24 L4 26 L5 26 L6 26 L8 27 L8 25 L9 25 L9 26 L10 26 L12 26 L12 26 L12 25 L12 25 L14 24 L15 24 L16 24 L16 24 L16 25 L17 25 Z" fill="#444444" stroke="#222222" stroke-width="0.3"/>
<path d="M12 29 L13 31 L12 31 L12 32 L11 30 L11 30 L10 31 L9 31 L9 29 L9 29 L8 28 L9 28 L8 27 L9 26 L10 27 L10 28 L12 28 L11 29 L12 30 L12 29 L12 29 Z" fill="#444444" stroke="#222222" stroke-width="0.3"/>
<path d="M10 25 L12 26 L12 26 L10 26 L9 26 L10 25 L10 25 Z" fill="#444444" stroke="#222222" stroke-width="0.3"/>
<path d="M8 25 L8 27 L8 27 L6 26 L5 26 L4 26 L1 24 L1 23 L2 23 L6 25 L8 25 Z" fill="#444444" stroke="#222222" stroke-width="0.3"/>
<path d="M-1 18 L-2 19 L-5 19 L-5 19 L-4 21 L-4 21 L-5 22 L-4 22 L-7 25 L-8 25 L-9 26 L-8 26 L-8 28 L-10 28 L-10 29 L-11 29 L-12 27 L-17 28 L-16 27 L-15 26 L-15 26 L-15 26 L-15 25 L-16 24 L-17 23 L-16 24 L-13 24 L-12 23 L-12 22 L-12 22 L-9 21 L-9 21 L-9 20 L-8 20 L-9 19 L-8 19 L-7 18 L-7 17 L-7 17 L-4 16 L-3 17 L-3 18 L-1 18 Z" fill="#444444" stroke="#222222" stroke-width="0.3"/>
<path d="M-13 16 L-10 17 L-10 16 L-9 16 L-9 16 L-9 16 L-8 15 L-7 15 L-7 17 L-7 17 L-6 16 L-4 16 L-4 16 L-7 17 L-7 17 L-7 18 L-8 19 L-9 19 L-8 20 L-9 20 L-9 21 L-9 21 L-12 22 L-12 22 L-12 23 L-13 24 L-16 24 L-17 23 L-16 22 L-16 22 L-17 22 L-18 20 L-17 20 L-18 20 L-17 18 L-16 18 L-15 18 L-15 18 L-14 17 L-14 16 L-13 16 L-13 16 Z" fill="#444444" stroke="#222222" stroke-width="0.3"/>
<path d="M-11 16 L-10 16 L-10 15 L-11 15 L-11 14 L-10 14 L-9 13 L-8 13 L-8 13 L-8 14 L-8 14 L-9 14 L-9 14 L-5 14 L-5 15 L-4 15 L-4 16 L-6 16 L-7 17 L-7 17 L-7 15 L-8 15 L-9 16 L-9 16 L-9 16 L-11 16 Z" fill="#444444" stroke="#222222" stroke-width="0.3"/>
<path d="M-8 12 L-8 11 L-7 11 L-5 11 L-5 11 L-5 11 L-3 11 L-0 11 L1 12 L-1 13 L-2 13 L-3 13 L-4 13 L-5 14 L-5 14 L-5 14 L-9 14 L-9 14 L-7 14 L-6 13 L-7 12 L-8 13 L-8 12 L-7 12 L-8 12 Z" fill="#444444" stroke="#222222" stroke-width="0.3"/>
<path d="M-25 12 L-24 12 L-22 13 L-21 13 L-21 12 L-19 11 L-18 12 L-18 12 L-18 13 L-16 13 L-16 14 L-14 15 L-12 16 L-12 16 L-13 16 L-13 16 L-14 16 L-14 17 L-16 18 L-17 18 L-17 17 L-18 17 L-19 16 L-21 16 L-22 16 L-23 16 L-24 16 L-24 15 L-24 14 L-24 14 L-25 14 L-25 13 L-24 13 L-23 13 L-24 12 L-25 12 L-25 13 L-25 12 Z" fill="#444444" stroke="#222222" stroke-width="0.3"/>
<path d="M-29 23 L-29 23 L-29 22 L-30 22 L-29 22 L-30 21 L-31 20 L-32 19 L-31 19 L-31 18 L-31 18 L-32 18 L-33 16 L-33 15 L-33 14 L-32 14 L-32 15 L-31 15 L-29 14 L-29 14 L-29 15 L-28 15 L-28 16 L-27 17 L-25 17 L-24 17 L-22 16 L-21 16 L-19 16 L-18 17 L-17 17 L-17 18 L-18 20 L-17 20 L-18 20 L-17 22 L-16 22 L-16 22 L-17 23 L-16 24 L-15 25 L-15 26 L-15 26 L-15 26 L-16 27 L-17 28 L-20 27 L-21 26 L-21 26 L-23 26 L-24 26 L-25 25 L-26 25 L-27 23 L-28 23 L-28 23 L-29 23 Z" fill="#444444" stroke="#222222" stroke-width="0.3"/>
<path d="M-41 21 L-40 20 L-40 19 L-40 19 L-41 19 L-41 18 L-40 17 L-40 17 L-37 17 L-35 16 L-36 17 L-36 19 L-40 21 L-41 21 Z" fill="#444444" stroke="#222222" stroke-width="0.3"/>
<path d="M-31 15 L-31 15 L-31 14 L-33 14 L-33 13 L-32 13 L-32 13 L-32 13 L-31 14 L-32 14 L-31 14 L-31 15 Z" fill="#444444" stroke="#222222" stroke-width="0.3"/>
<path d="M-32 16 L-33 17 L-34 16 L-37 17 L-40 17 L-40 17 L-40 18 L-41 17 L-40 17 L-42 17 L-42 17 L-44 17 L-45 17 L-46 17 L-46 17 L-46 17 L-47 17 L-48 17 L-50 15 L-49 15 L-50 14 L-49 13 L-47 13 L-47 13 L-45 13 L-43 12 L-41 12 L-38 13 L-36 13 L-35 12 L-34 12 L-33 13 L-33 14 L-32 14 L-33 14 L-33 15 L-33 16 L-32 16 Z M-50 12 L-49 12 L-48 12 L-48 12 L-47 13 L-47 13 L-48 13 L-50 14 L-50 13 L-49 12 L-50 12 Z" fill="#444444" stroke="#222222" stroke-width="0.3"/>
<path d="M63 90 L65 90 L65 91 L64 92 L64 92 L63 92 L63 92 L61 90 L61 89 L63 90 Z M44 82 L42 82 L42 83 L38 83 L36 84 L35 84 L34 83 L34 83 L34 82 L34 81 L34 79 L32 76 L32 76 L32 75 L33 76 L32 74 L32 73 L32 72 L33 72 L33 72 L33 72 L35 71 L36 71 L38 70 L39 70 L40 68 L40 67 L41 67 L41 67 L42 67 L42 67 L42 66 L42 67 L42 66 L44 65 L44 65 L44 65 L45 64 L46 65 L47 65 L47 65 L48 64 L48 64 L48 63 L49 63 L50 63 L50 62 L49 62 L50 62 L53 63 L54 62 L54 63 L54 64 L53 64 L53 64 L53 65 L57 68 L58 68 L58 67 L59 65 L59 63 L59 61 L60 63 L61 65 L61 65 L62 65 L62 67 L63 69 L65 70 L65 71 L66 72 L66 72 L67 72 L67 72 L67 73 L69 75 L69 77 L70 78 L69 81 L69 82 L68 82 L67 85 L66 86 L66 87 L65 87 L63 88 L62 87 L62 87 L60 88 L58 87 L57 86 L57 85 L56 85 L55 85 L56 84 L55 84 L55 84 L54 84 L55 83 L55 82 L54 83 L53 84 L53 84 L53 83 L51 82 L52 82 L49 81 L44 82 Z" fill="#444444" stroke="#222222" stroke-width="0.3"/>
<path d="M2 44 L2 45 L1 46 L1 45 L0 44 L1 42 L2 43 L2 44 Z" fill="#444444" stroke="#222222" stroke-width="0.3"/>
<path d="M28 34 L28 34 L28 33 L28 33 L30 32 L30 33 L29 34 L28 34 Z M1 12 L1 11 L2 11 L1 9 L3 9 L4 7 L6 7 L6 7 L6 6 L7 6 L8 5 L8 6 L10 7 L11 7 L11 8 L11 9 L13 9 L15 10 L16 11 L20 11 L24 12 L25 12 L28 11 L31 10 L30 10 L31 9 L32 9 L34 8 L36 8 L38 8 L38 7 L36 6 L36 7 L34 7 L34 6 L35 5 L36 5 L38 4 L38 4 L39 3 L39 2 L38 2 L39 1 L40 1 L42 1 L44 2 L45 5 L47 5 L48 6 L49 6 L50 6 L52 6 L51 9 L49 9 L49 9 L49 10 L49 11 L48 11 L48 12 L48 11 L47 12 L46 12 L46 12 L45 12 L42 14 L39 15 L40 14 L40 14 L40 13 L40 13 L38 14 L37 14 L36 15 L36 15 L36 16 L37 16 L37 16 L38 16 L39 16 L40 16 L41 17 L39 17 L37 19 L38 19 L40 22 L40 22 L39 23 L40 23 L40 23 L40 25 L39 25 L37 28 L34 30 L33 30 L33 30 L32 30 L32 31 L30 31 L29 32 L29 32 L29 32 L29 31 L26 31 L26 30 L26 30 L25 29 L24 30 L22 30 L21 30 L21 31 L21 31 L21 31 L20 31 L19 31 L19 30 L18 30 L18 29 L17 29 L17 28 L18 27 L18 25 L18 25 L16 25 L16 24 L16 24 L15 24 L14 24 L12 25 L12 25 L10 25 L9 26 L9 25 L8 25 L6 25 L5 24 L4 24 L3 23 L2 23 L2 23 L-0 22 L-1 21 L-0 21 L0 20 L-0 20 L-0 19 L-1 18 L-3 18 L-3 17 L-4 16 L-4 15 L-5 15 L-5 14 L-5 14 L-5 14 L-4 13 L-3 13 L-2 13 L-1 13 L1 12 Z" fill="#444444" stroke="#222222" stroke-width="0.3"/>
<path d="M40 28 L39 30 L39 31 L38 29 L40 28 L40 28 Z" fill="#444444" stroke="#222222" stroke-width="0.3"/>
<path d="M-31 12 L-29 13 L-29 12 L-28 13 L-27 14 L-28 14 L-28 15 L-29 15 L-29 14 L-29 14 L-31 15 L-31 14 L-32 14 L-31 14 L-32 13 L-31 13 L-31 12 L-31 12 Z M-31 15 L-32 15 L-32 14 L-31 14 L-31 15 Z" fill="#444444" stroke="#222222" stroke-width="0.3"/>
<path d="M-37 11 L-35 11 L-33 11 L-32 11 L-31 12 L-31 12 L-31 13 L-32 12 L-33 13 L-34 12 L-35 12 L-35 11 L-37 11 Z" fill="#444444" stroke="#222222" stroke-width="0.3"/>
<path d="M39 40 L39 39 L39 39 L40 39 L39 40 Z M40 42 L41 41 L42 41 L41 42 L42 41 L42 42 L41 43 L40 42 Z M44 43 L44 45 L44 45 L44 44 L43 45 L44 46 L43 46 L42 46 L42 45 L42 44 L42 44 L40 45 L40 45 L40 44 L42 43 L42 44 L43 43 L43 43 L43 43 L43 42 L44 43 Z M38 41 L36 43 L38 41 L38 41 Z M40 34 L40 35 L41 35 L40 36 L40 36 L40 38 L41 38 L42 38 L42 40 L41 39 L41 39 L40 38 L39 38 L39 38 L39 37 L39 38 L38 37 L38 36 L39 36 L39 34 L40 34 L40 34 Z M40 42 L40 40 L41 40 L41 41 L40 42 Z M43 40 L44 41 L43 41 L43 42 L43 42 L43 41 L42 41 L42 41 L43 41 L43 40 L42 40 L43 40 Z" fill="#cc3333" stroke="#222222" stroke-width="0.3"/>
<path d="M20 46 L20 45 L21 45 L21 46 L21 46 L22 45 L22 46 L23 47 L23 49 L23 50 L23 50 L21 49 L20 46 Z M36 47 L34 47 L33 50 L32 50 L32 50 L31 50 L29 51 L29 50 L29 49 L29 50 L30 50 L30 49 L32 48 L33 47 L33 48 L33 47 L34 47 L34 46 L35 45 L36 45 L36 46 L37 46 L37 47 L37 47 L37 47 L36 47 Z" fill="#444444" stroke="#222222" stroke-width="0.3"/>
<path d="M34 46 L34 47 L33 47 L33 48 L33 47 L34 46 Z" fill="#444444" stroke="#222222" stroke-width="0.3"/>
<path d="M59 15 L58 15 L58 16 L58 17 L58 18 L57 18 L56 19 L54 19 L53 20 L52 20 L52 19 L49 20 L50 20 L49 22 L48 22 L48 22 L48 21 L47 21 L47 20 L48 20 L50 18 L52 18 L53 18 L54 16 L55 17 L56 15 L57 14 L57 13 L57 13 L58 12 L59 14 L59 15 Z M61 10 L62 10 L62 11 L61 11 L60 12 L59 11 L58 12 L57 12 L57 11 L57 11 L58 11 L59 9 L60 10 L61 10 Z M50 20 L50 19 L51 19 L51 19 L52 19 L52 20 L52 20 L51 20 L51 20 L50 21 L50 20 L50 20 Z" fill="#444444" stroke="#222222" stroke-width="0.3"/>
<path d="M-26 33 L-24 36 L-25 36 L-25 37 L-28 37 L-29 38 L-31 39 L-32 39 L-34 39 L-34 37 L-34 35 L-33 35 L-30 35 L-30 35 L-30 35 L-29 34 L-28 34 L-26 33 Z" fill="#444444" stroke="#222222" stroke-width="0.3"/>
<path d="M-42 24 L-40 24 L-40 23 L-39 23 L-39 23 L-40 22 L-38 21 L-35 22 L-32 24 L-30 24 L-30 25 L-29 25 L-29 25 L-27 26 L-27 27 L-27 28 L-26 28 L-26 30 L-23 30 L-23 30 L-22 31 L-23 33 L-26 33 L-28 34 L-29 34 L-30 35 L-30 35 L-30 35 L-33 35 L-34 35 L-34 36 L-34 36 L-36 33 L-37 32 L-38 31 L-38 30 L-38 29 L-39 29 L-40 27 L-41 25 L-42 25 L-42 24 Z" fill="#444444" stroke="#222222" stroke-width="0.3"/>
<path d="M-44 18 L-43 18 L-42 18 L-42 18 L-44 18 Z" fill="#444444" stroke="#222222" stroke-width="0.3"/>
<path d="M-44 18 L-43 18 L-42 18 L-43 19 L-44 18 Z" fill="#444444" stroke="#222222" stroke-width="0.3"/>
</svg>