<svg xmlns="http://www.w3.org/2000/svg" viewBox="0 0 80 80" width="80" height="80">
<path d="M-218 -100 L-91 -100 L-91 -102 L-90 -102 L-88 -99 L-75 -97 L-64 -96 L-60 -97 L-44 -91 L-43 -89 L-41 -89 L-38 -87 L-39 -86 L-34 -84 L-32 -76 L-36 -69 L-34 -67 L-17 -72 L-18 -75 L-16 -76 L-8 -76 L1 -82 L17 -82 L20 -84 L27 -93 L34 -92 L34 -85 L37 -81 L23 -76 L20 -72 L20 -70 L21 -68 L23 -67 L23 -69 L24 -68 L24 -67 L7 -64 L15 -64 L5 -63 L4 -62 L5 -61 L4 -58 L1 -55 L-2 -57 L0 -52 L-4 -47 L-3 -50 L-5 -52 L-5 -55 L-6 -54 L-5 -51 L-8 -51 L-5 -50 L-3 -39 L-6 -36 L-18 -30 L-28 -20 L-28 -14 L-22 1 L-24 8 L-27 8 L-30 5 L-35 -4 L-34 -7 L-39 -13 L-41 -14 L-45 -12 L-51 -16 L-66 -14 L-64 -10 L-65 -10 L-72 -10 L-75 -12 L-83 -13 L-89 -11 L-100 -4 L-101 1 L-100 5 L-102 5 L-109 3 L-111 -2 L-118 -11 L-121 -13 L-125 -13 L-128 -9 L-131 -10 L-134 -12 L-136 -17 L-143 -22 L-151 -22 L-151 -20 L-164 -20 L-181 -25 L-181 -26 L-192 -25 L-192 -28 L-198 -32 L-208 -35 L-208 -37 L-213 -42 L-216 -49 L-222 -55 L-222 -58 L-225 -61 L-224 -68 L-225 -72 L-223 -85 L-223 -91 L-226 -97 L-226 -98 L-219 -96 L-217 -92 L-215 -93 L-218 -100 Z M-368 31 L-364 34 L-368 37 L-369 33 L-368 31 Z M-369 28 L-371 29 L-372 28 L-372 27 L-369 28 Z M-375 26 L-373 27 L-375 27 L-375 26 Z M-378 24 L-377 26 L-377 26 L-379 26 L-380 25 L-378 24 Z M-384 22 L-385 23 L-386 23 L-385 22 L-384 22 Z M-421 -152 L-413 -152 L-413 -150 L-416 -150 L-421 -152 Z M-356 -141 L-351 -140 L-360 -136 L-362 -137 L-363 -139 L-356 -141 Z M-301 -195 L-301 -152 L-292 -151 L-284 -146 L-275 -150 L-266 -143 L-258 -135 L-250 -132 L-250 -129 L-253 -127 L-259 -130 L-261 -134 L-267 -138 L-269 -142 L-281 -143 L-295 -149 L-308 -151 L-314 -151 L-329 -155 L-334 -154 L-333 -151 L-350 -147 L-350 -149 L-348 -154 L-343 -155 L-345 -157 L-360 -148 L-357 -145 L-361 -142 L-370 -139 L-372 -137 L-379 -135 L-380 -132 L-401 -126 L-410 -126 L-396 -132 L-390 -132 L-381 -137 L-377 -140 L-374 -146 L-381 -145 L-383 -143 L-386 -146 L-387 -144 L-389 -146 L-396 -145 L-396 -149 L-399 -151 L-405 -150 L-412 -153 L-412 -156 L-415 -158 L-414 -160 L-408 -165 L-401 -165 L-398 -167 L-391 -168 L-392 -170 L-394 -171 L-391 -173 L-400 -170 L-410 -171 L-417 -172 L-424 -177 L-408 -181 L-404 -181 L-405 -178 L-395 -179 L-412 -187 L-418 -189 L-416 -191 L-408 -191 L-402 -193 L-401 -196 L-396 -198 L-379 -200 L-372 -203 L-365 -202 L-362 -199 L-352 -200 L-352 -199 L-345 -198 L-318 -196 L-312 -197 L-301 -195 Z M-441 -168 L-435 -168 L-427 -166 L-431 -164 L-436 -166 L-440 -166 L-441 -168 Z" fill="#444444" stroke="#222222" stroke-width="0.3"/>
<path d="M16 33 L16 37 L15 38 L16 41 L6 41 L3 40 L4 38 L11 39 L13 38 L11 34 L8 34 L9 32 L16 33 Z" fill="#444444" stroke="#222222" stroke-width="0.3"/>
<path d="M17 43 L15 38 L16 32 L24 34 L25 35 L27 35 L27 36 L31 38 L29 40 L24 39 L21 40 L20 39 L17 43 Z" fill="#444444" stroke="#222222" stroke-width="0.3"/>
<path d="M-17 1 L-12 1 L-12 2 L-17 3 L-17 1 Z M-12 -0 L-8 2 L-9 5 L-10 2 L-12 -0 Z M-14 8 L-13 8 L-11 15 L-12 15 L-15 11 L-14 8 Z" fill="#444444" stroke="#222222" stroke-width="0.3"/>
<path d="M-192 -25 L-181 -26 L-181 -25 L-164 -20 L-151 -20 L-151 -22 L-143 -22 L-136 -17 L-134 -12 L-131 -10 L-128 -9 L-125 -13 L-121 -13 L-118 -11 L-111 -2 L-109 3 L-100 5 L-103 12 L-104 21 L-101 29 L-95 37 L-90 38 L-88 40 L-74 37 L-71 35 L-69 27 L-54 25 L-53 28 L-57 34 L-56 34 L-58 40 L-61 39 L-63 42 L-72 42 L-72 44 L-74 44 L-70 48 L-70 50 L-76 50 L-78 54 L-78 57 L-85 50 L-89 49 L-98 52 L-117 45 L-122 41 L-129 40 L-139 32 L-140 30 L-138 30 L-137 25 L-141 19 L-152 8 L-156 6 L-156 3 L-161 -1 L-162 -4 L-164 -4 L-169 -9 L-173 -19 L-181 -22 L-182 -20 L-180 -14 L-166 2 L-162 12 L-160 12 L-156 17 L-158 19 L-163 14 L-169 10 L-170 4 L-182 -3 L-180 -3 L-178 -7 L-184 -12 L-192 -25 Z" fill="#444444" stroke="#222222" stroke-width="0.3"/>
<path d="M-10 84 L-10 87 L-12 88 L-12 90 L-15 86 L-14 85 L-18 82 L-24 85 L-22 89 L-26 90 L-27 88 L-29 88 L-30 86 L-35 85 L-35 86 L-36 80 L-34 80 L-32 82 L-29 83 L-20 79 L-18 80 L-10 84 Z" fill="#444444" stroke="#222222" stroke-width="0.3"/>
<path d="M-34 80 L-36 80 L-35 82 L-36 86 L-38 85 L-39 82 L-45 77 L-45 80 L-48 78 L-48 74 L-49 73 L-48 72 L-40 74 L-39 73 L-34 80 Z" fill="#444444" stroke="#222222" stroke-width="0.3"/>
<path d="M-39 73 L-40 74 L-48 73 L-57 64 L-53 63 L-53 60 L-50 59 L-49 60 L-45 56 L-42 56 L-37 55 L-40 71 L-39 73 Z" fill="#444444" stroke="#222222" stroke-width="0.3"/>
<path d="M-37 55 L-42 56 L-45 56 L-49 60 L-50 59 L-53 60 L-53 63 L-56 64 L-58 62 L-58 60 L-61 60 L-65 57 L-64 54 L-58 51 L-45 50 L-37 55 Z" fill="#444444" stroke="#222222" stroke-width="0.3"/>
<path d="M-65 57 L-61 60 L-57 60 L-58 63 L-68 61 L-65 57 Z" fill="#444444" stroke="#222222" stroke-width="0.3"/>
<path d="M-78 57 L-78 54 L-76 50 L-70 50 L-70 48 L-74 44 L-72 44 L-72 42 L-64 42 L-64 51 L-60 51 L-64 54 L-65 57 L-68 61 L-73 60 L-78 57 Z" fill="#444444" stroke="#222222" stroke-width="0.3"/>
<path d="M-64 42 L-61 39 L-59 39 L-60 48 L-63 51 L-64 51 L-64 42 Z" fill="#444444" stroke="#222222" stroke-width="0.3"/>
<path d="M37 39 L44 40 L42 41 L36 41 L37 39 Z" fill="#cc3333" stroke="#222222" stroke-width="0.3"/>
<path d="M-15 40 L-8 39 L-5 42 L-9 42 L-15 40 Z" fill="#444444" stroke="#222222" stroke-width="0.3"/>
<path d="M-32 17 L-25 18 L-19 21 L-15 20 L-6 26 L-2 27 L-2 29 L4 31 L1 32 L-12 33 L-9 30 L-14 29 L-16 25 L-32 21 L-30 20 L-35 20 L-41 23 L-45 23 L-39 19 L-32 17 Z" fill="#444444" stroke="#222222" stroke-width="0.3"/>
<path d="M61 74 L65 74 L65 77 L60 77 L61 74 Z" fill="#444444" stroke="#222222" stroke-width="0.3"/>
</svg>