<svg xmlns="http://www.w3.org/2000/svg" viewBox="0 0 138 80" width="138" height="80">
<path d="M62 29 L93 29 L93 29 L93 29 L94 29 L97 30 L100 30 L101 30 L105 31 L105 32 L105 32 L106 32 L106 33 L107 33 L108 35 L107 37 L107 37 L111 36 L111 35 L112 35 L114 35 L116 34 L120 34 L121 33 L122 31 L124 31 L124 33 L125 34 L121 35 L120 36 L120 37 L121 37 L121 37 L121 37 L122 37 L121 37 L117 38 L119 38 L117 38 L117 39 L117 39 L117 40 L116 40 L115 40 L116 41 L115 42 L115 42 L114 41 L114 40 L114 41 L114 41 L114 41 L114 42 L115 44 L114 45 L111 47 L109 49 L109 50 L110 54 L110 56 L109 56 L108 55 L107 53 L107 52 L106 51 L105 50 L104 51 L103 50 L99 50 L100 51 L99 51 L98 51 L97 51 L95 51 L93 51 L91 53 L90 54 L91 55 L90 55 L89 55 L88 53 L86 51 L86 51 L85 51 L84 52 L83 51 L82 51 L82 50 L80 49 L78 49 L78 49 L75 49 L71 48 L71 47 L68 48 L68 47 L67 46 L64 45 L64 45 L63 44 L62 42 L61 40 L60 39 L60 39 L60 37 L60 36 L60 33 L60 31 L60 30 L60 30 L61 30 L62 31 L62 31 L62 29 Z M24 62 L25 62 L24 63 L24 62 L24 62 Z M24 61 L24 61 L23 61 L23 61 L24 61 Z M23 60 L23 61 L23 61 L23 60 Z M22 60 L22 60 L22 60 L22 60 L21 60 L22 60 Z M20 59 L20 60 L20 60 L20 59 L20 59 Z M11 16 L13 16 L13 17 L13 17 L11 16 Z M27 19 L28 19 L26 20 L26 20 L26 19 L27 19 Z M41 6 L41 16 L43 17 L45 18 L47 17 L50 18 L52 20 L53 21 L54 22 L53 22 L51 22 L51 21 L50 20 L49 19 L46 19 L42 17 L39 16 L38 17 L34 16 L33 16 L33 17 L29 17 L29 17 L29 16 L30 15 L30 15 L26 17 L27 18 L26 19 L24 19 L23 20 L22 21 L21 21 L16 23 L14 23 L18 21 L19 21 L21 20 L22 19 L23 18 L21 18 L21 18 L20 18 L20 18 L19 18 L17 18 L17 17 L17 17 L15 17 L14 16 L13 15 L13 15 L13 14 L14 13 L16 13 L17 12 L19 12 L18 12 L18 12 L19 11 L16 12 L14 11 L12 11 L10 10 L14 9 L15 9 L15 10 L18 10 L13 7 L12 7 L13 6 L15 6 L16 6 L16 5 L17 5 L22 4 L23 4 L25 4 L26 4 L28 4 L28 4 L30 5 L37 5 L38 5 L41 6 Z M6 12 L8 12 L10 13 L9 13 L7 13 L6 13 L6 12 Z" fill="#444444" stroke="#222222" stroke-width="0.3"/>
<path d="M119 62 L119 63 L119 63 L119 64 L117 64 L116 64 L116 63 L118 64 L119 63 L118 62 L118 62 L118 62 L119 62 Z" fill="#444444" stroke="#222222" stroke-width="0.3"/>
<path d="M120 65 L119 63 L120 62 L121 62 L122 63 L122 63 L122 63 L123 63 L123 64 L121 64 L121 64 L121 64 L120 65 Z" fill="#444444" stroke="#222222" stroke-width="0.3"/>
<path d="M111 54 L113 54 L113 54 L111 55 L111 54 Z M113 54 L113 54 L113 55 L113 54 L113 54 Z M112 56 L112 56 L113 58 L113 58 L112 57 L112 56 Z" fill="#444444" stroke="#222222" stroke-width="0.3"/>
<path d="M68 48 L71 47 L71 48 L75 49 L78 49 L78 49 L80 49 L82 50 L82 51 L83 51 L84 52 L85 51 L86 51 L86 51 L88 53 L89 55 L91 55 L90 57 L90 59 L91 61 L92 63 L93 64 L94 64 L97 63 L98 63 L98 61 L102 60 L102 61 L101 62 L102 62 L101 64 L100 64 L100 64 L98 64 L98 65 L97 65 L98 66 L98 66 L97 66 L96 67 L96 68 L94 66 L93 66 L91 67 L87 65 L85 64 L84 64 L81 62 L81 61 L81 61 L82 60 L81 59 L78 56 L77 56 L77 55 L76 54 L75 53 L75 53 L74 52 L73 49 L71 48 L71 49 L71 50 L74 54 L75 57 L76 57 L77 58 L76 59 L75 57 L74 56 L74 55 L70 53 L71 53 L71 52 L70 51 L68 48 Z" fill="#444444" stroke="#222222" stroke-width="0.3"/>
<path d="M113 75 L113 76 L113 76 L113 76 L112 75 L112 75 L111 74 L110 75 L110 76 L109 76 L109 76 L108 76 L108 75 L107 75 L107 75 L107 74 L107 74 L108 74 L108 75 L111 74 L111 74 L113 75 Z" fill="#444444" stroke="#222222" stroke-width="0.3"/>
<path d="M107 74 L107 74 L107 74 L107 75 L106 75 L106 74 L104 73 L104 74 L104 73 L104 72 L103 72 L104 72 L106 72 L106 72 L107 74 Z" fill="#444444" stroke="#222222" stroke-width="0.3"/>
<path d="M106 72 L106 72 L104 72 L101 70 L102 70 L102 69 L103 69 L104 69 L105 68 L105 68 L107 68 L106 72 L106 72 Z" fill="#444444" stroke="#222222" stroke-width="0.3"/>
<path d="M107 68 L105 68 L105 68 L104 69 L103 69 L102 69 L102 70 L102 70 L101 69 L101 69 L100 69 L100 68 L100 67 L101 67 L104 66 L107 68 Z" fill="#444444" stroke="#222222" stroke-width="0.3"/>
<path d="M100 68 L100 69 L101 69 L101 70 L99 69 L100 68 Z" fill="#444444" stroke="#222222" stroke-width="0.3"/>
<path d="M96 68 L96 67 L97 66 L98 66 L98 66 L97 65 L98 65 L98 64 L100 64 L100 67 L101 67 L100 67 L100 68 L99 69 L97 69 L96 68 Z" fill="#444444" stroke="#222222" stroke-width="0.3"/>
<path d="M100 64 L100 64 L101 64 L101 66 L100 67 L100 67 L100 64 Z" fill="#444444" stroke="#222222" stroke-width="0.3"/>
<path d="M125 64 L126 64 L126 64 L125 64 L125 64 Z" fill="#cc3333" stroke="#222222" stroke-width="0.3"/>
<path d="M112 64 L114 64 L114 64 L113 64 L112 64 Z" fill="#444444" stroke="#222222" stroke-width="0.3"/>
<path d="M108 58 L109 58 L111 59 L112 59 L114 61 L115 61 L115 61 L117 62 L116 62 L113 62 L113 61 L112 61 L112 60 L108 59 L108 59 L107 59 L106 60 L104 60 L106 59 L108 58 Z" fill="#444444" stroke="#222222" stroke-width="0.3"/>
<path d="M131 72 L132 72 L132 73 L131 73 L131 72 Z" fill="#444444" stroke="#222222" stroke-width="0.3"/>
</svg>