<svg xmlns="http://www.w3.org/2000/svg" viewBox="0 0 80 80" width="80" height="80">
<path d="M-390 -194 L-179 -194 L-179 -197 L-176 -197 L-173 -192 L-152 -188 L-134 -187 L-127 -189 L-101 -178 L-99 -175 L-95 -175 L-90 -171 L-91 -170 L-83 -166 L-80 -153 L-87 -141 L-84 -138 L-55 -147 L-57 -152 L-54 -153 L-39 -153 L-25 -164 L1 -164 L7 -167 L18 -182 L29 -179 L29 -169 L36 -162 L12 -154 L6 -147 L6 -143 L9 -139 L12 -139 L11 -142 L13 -140 L13 -138 L-16 -133 L-2 -133 L-18 -131 L-20 -129 L-18 -129 L-19 -123 L-25 -118 L-30 -122 L-26 -113 L-33 -104 L-31 -110 L-35 -113 L-36 -119 L-37 -116 L-36 -111 L-41 -112 L-35 -110 L-31 -92 L-36 -86 L-56 -76 L-74 -60 L-74 -50 L-64 -26 L-66 -13 L-72 -13 L-77 -18 L-85 -33 L-84 -38 L-92 -49 L-95 -50 L-102 -47 L-112 -53 L-137 -51 L-134 -44 L-135 -43 L-146 -43 L-152 -47 L-164 -48 L-175 -46 L-194 -33 L-196 -24 L-194 -18 L-197 -18 L-208 -22 L-212 -31 L-223 -45 L-228 -48 L-235 -48 L-239 -42 L-246 -44 L-250 -46 L-254 -54 L-265 -63 L-278 -63 L-278 -60 L-300 -60 L-328 -69 L-328 -70 L-346 -69 L-347 -73 L-357 -80 L-373 -85 L-374 -89 L-381 -96 L-387 -109 L-396 -118 L-397 -124 L-401 -128 L-400 -141 L-402 -147 L-398 -168 L-399 -178 L-404 -188 L-403 -189 L-392 -187 L-388 -180 L-386 -182 L-390 -194 Z M-641 25 L-633 30 L-639 35 L-642 29 L-641 25 Z M-642 21 L-645 22 L-647 20 L-646 19 L-642 21 Z M-651 17 L-648 18 L-652 18 L-651 17 Z M-657 13 L-654 17 L-655 17 L-658 17 L-659 15 L-657 13 Z M-667 10 L-668 12 L-671 11 L-669 10 L-667 10 Z M-729 -279 L-715 -280 L-715 -277 L-719 -276 L-729 -279 Z M-621 -262 L-612 -259 L-627 -253 L-631 -255 L-632 -258 L-621 -262 Z M-528 -352 L-528 -280 L-513 -278 L-501 -269 L-486 -276 L-470 -266 L-457 -252 L-444 -247 L-444 -242 L-448 -238 L-459 -244 L-461 -250 L-471 -256 L-475 -263 L-494 -264 L-519 -274 L-540 -278 L-550 -278 L-574 -285 L-583 -283 L-581 -278 L-609 -271 L-610 -276 L-607 -283 L-599 -286 L-601 -288 L-627 -273 L-621 -269 L-628 -264 L-644 -258 L-646 -255 L-658 -251 L-660 -247 L-696 -237 L-710 -236 L-686 -247 L-677 -247 L-662 -255 L-655 -259 L-650 -270 L-661 -269 L-665 -266 L-670 -270 L-672 -267 L-675 -271 L-687 -268 L-686 -275 L-691 -278 L-701 -276 L-713 -282 L-713 -286 L-719 -289 L-716 -294 L-707 -302 L-696 -301 L-689 -305 L-678 -306 L-680 -310 L-684 -311 L-678 -314 L-693 -311 L-710 -312 L-721 -313 L-734 -321 L-706 -328 L-700 -328 L-701 -324 L-685 -324 L-713 -339 L-724 -341 L-719 -345 L-706 -346 L-696 -349 L-695 -353 L-687 -356 L-658 -360 L-646 -364 L-635 -363 L-629 -359 L-613 -360 L-613 -358 L-602 -357 L-557 -354 L-547 -355 L-528 -352 Z M-761 -307 L-752 -306 L-738 -303 L-745 -300 L-753 -303 L-760 -303 L-761 -307 Z" fill="#444444" stroke="#222222" stroke-width="0.3"/>
<path d="M-1 29 L-0 36 L-2 37 L-0 41 L-17 42 L-21 39 L-21 37 L-8 38 L-5 37 L-9 30 L-13 29 L-12 27 L-1 29 Z" fill="#444444" stroke="#222222" stroke-width="0.3"/>
<path d="M2 45 L-2 37 L0 27 L13 29 L14 32 L18 32 L18 34 L25 37 L22 40 L13 39 L9 40 L7 39 L2 45 Z" fill="#444444" stroke="#222222" stroke-width="0.3"/>
<path d="M-56 -25 L-47 -25 L-47 -24 L-55 -22 L-56 -25 Z M-47 -27 L-41 -24 L-42 -18 L-43 -23 L-47 -27 Z M-50 -13 L-48 -13 L-45 -2 L-47 -2 L-51 -8 L-50 -13 Z" fill="#444444" stroke="#222222" stroke-width="0.3"/>
<path d="M-346 -69 L-328 -70 L-328 -69 L-300 -60 L-278 -60 L-278 -63 L-265 -63 L-254 -54 L-250 -46 L-246 -44 L-239 -42 L-235 -48 L-228 -48 L-223 -45 L-212 -31 L-208 -22 L-194 -18 L-198 -6 L-200 8 L-194 22 L-185 35 L-176 37 L-173 41 L-150 35 L-146 32 L-142 19 L-117 15 L-116 20 L-122 29 L-120 31 L-123 40 L-128 38 L-131 43 L-147 43 L-147 47 L-151 47 L-143 54 L-143 56 L-153 56 L-157 63 L-157 68 L-169 57 L-175 55 L-190 60 L-222 48 L-230 42 L-242 40 L-258 27 L-259 23 L-257 23 L-256 16 L-262 5 L-280 -13 L-286 -16 L-286 -22 L-295 -28 L-297 -33 L-301 -34 L-309 -42 L-316 -58 L-328 -63 L-329 -60 L-327 -51 L-304 -24 L-297 -6 L-293 -6 L-287 1 L-291 5 L-299 -4 L-308 -9 L-309 -19 L-330 -32 L-327 -32 L-323 -39 L-334 -46 L-346 -69 Z" fill="#444444" stroke="#222222" stroke-width="0.3"/>
<path d="M-43 113 L-43 118 L-46 120 L-47 124 L-52 117 L-50 115 L-57 110 L-66 116 L-64 121 L-70 124 L-72 119 L-75 120 L-77 117 L-85 116 L-85 117 L-86 107 L-83 106 L-80 110 L-75 112 L-60 106 L-56 106 L-43 113 Z" fill="#444444" stroke="#222222" stroke-width="0.3"/>
<path d="M-83 106 L-86 107 L-84 111 L-86 116 L-90 114 L-91 110 L-101 102 L-102 106 L-107 103 L-107 97 L-109 96 L-106 93 L-93 97 L-91 96 L-83 106 Z" fill="#444444" stroke="#222222" stroke-width="0.3"/>
<path d="M-91 96 L-93 97 L-107 94 L-122 81 L-115 78 L-115 74 L-110 72 L-108 73 L-101 66 L-97 67 L-88 65 L-93 92 L-91 96 Z" fill="#444444" stroke="#222222" stroke-width="0.3"/>
<path d="M-88 65 L-97 67 L-101 66 L-108 73 L-110 72 L-115 74 L-115 78 L-119 80 L-123 77 L-123 73 L-128 73 L-135 69 L-133 64 L-124 58 L-101 57 L-88 65 Z" fill="#444444" stroke="#222222" stroke-width="0.3"/>
<path d="M-135 69 L-128 73 L-122 74 L-124 79 L-140 74 L-135 69 Z" fill="#444444" stroke="#222222" stroke-width="0.3"/>
<path d="M-157 68 L-157 63 L-153 56 L-143 56 L-143 54 L-151 47 L-147 47 L-147 43 L-133 43 L-134 58 L-126 59 L-133 64 L-135 69 L-140 74 L-149 73 L-157 68 Z" fill="#444444" stroke="#222222" stroke-width="0.3"/>
<path d="M-133 43 L-128 38 L-125 39 L-127 53 L-132 58 L-134 58 L-133 43 Z" fill="#444444" stroke="#222222" stroke-width="0.3"/>
<path d="M35 38 L46 40 L44 42 L34 42 L35 38 Z" fill="#cc3333" stroke="#222222" stroke-width="0.3"/>
<path d="M-51 40 L-40 39 L-35 43 L-42 44 L-51 40 Z" fill="#444444" stroke="#222222" stroke-width="0.3"/>
<path d="M-81 2 L-68 3 L-58 8 L-51 7 L-37 17 L-30 19 L-31 21 L-19 24 L-25 27 L-46 28 L-41 23 L-49 21 L-54 14 L-80 8 L-77 6 L-85 6 L-94 12 L-101 12 L-92 5 L-81 2 Z" fill="#444444" stroke="#222222" stroke-width="0.3"/>
<path d="M76 97 L82 96 L81 102 L74 102 L76 97 Z" fill="#444444" stroke="#222222" stroke-width="0.3"/>
</svg>