<svg xmlns="http://www.w3.org/2000/svg" viewBox="0 0 80 80" width="80" height="80">
<path d="M67 33 L93 47 L93 51 L103 58 L100 66 L100 70 L104 73 L103 84 L110 96 L105 100 L85 106 L71 104 L70 95 L66 90 L46 83 L42 74 L38 70 L36 57 L39 56 L46 49 L44 43 L46 42 L46 38 L43 34 L67 33 Z" fill="#444444" stroke="#222222" stroke-width="0.3"/>
<path d="M-221 -161 L-221 -149 L-243 -149 L-243 -132 L-250 -131 L-251 -128 L-250 -118 L-276 -118 L-278 -116 L-278 -119 L-262 -119 L-256 -134 L-247 -141 L-244 -150 L-242 -150 L-240 -156 L-222 -157 L-221 -161 Z" fill="#444444" stroke="#222222" stroke-width="0.3"/>
<path d="M34 46 L38 70 L42 74 L46 83 L32 84 L30 88 L32 91 L30 106 L36 110 L38 109 L39 116 L33 116 L28 109 L23 108 L21 105 L17 107 L12 106 L10 103 L2 103 L2 100 L-13 101 L-15 76 L-24 76 L-23 73 L-27 73 L-31 75 L-34 80 L-44 81 L-52 66 L-79 68 L-80 65 L-77 60 L-70 57 L-67 57 L-64 60 L-54 50 L-54 45 L-51 38 L-43 29 L-37 -2 L-31 -8 L-11 -1 L-8 -6 L-5 -5 L3 -8 L8 -7 L11 -9 L23 -9 L27 -4 L30 -3 L39 -5 L46 3 L46 10 L48 11 L40 22 L34 46 Z" fill="#444444" stroke="#222222" stroke-width="0.3"/>
<path d="M119 38 L115 32 L115 7 L123 -2 L127 -2 L133 -7 L142 -8 L169 -38 L169 -51 L183 -55 L183 -46 L180 -36 L166 -10 L153 7 L129 24 L119 38 Z" fill="#444444" stroke="#222222" stroke-width="0.3"/>
<path d="M103 58 L93 51 L93 47 L67 33 L67 26 L75 13 L68 -2 L76 -11 L80 -10 L80 -6 L82 -4 L87 -4 L95 2 L105 3 L113 -3 L116 -0 L121 -0 L115 7 L115 32 L119 38 L110 44 L106 56 L103 58 Z" fill="#444444" stroke="#222222" stroke-width="0.3"/>
<path d="M4 -29 L-1 -32 L-4 -34 L-3 -42 L-7 -46 L-12 -59 L-14 -59 L-10 -69 L-12 -71 L-7 -80 L-1 -79 L-1 -109 L7 -109 L7 -123 L87 -123 L91 -100 L97 -96 L87 -88 L83 -65 L73 -48 L69 -46 L67 -32 L66 -44 L62 -46 L62 -56 L59 -57 L55 -55 L57 -49 L50 -40 L46 -39 L41 -43 L34 -37 L19 -38 L12 -44 L7 -43 L4 -34 L-1 -32 L4 -29 Z" fill="#444444" stroke="#222222" stroke-width="0.3"/>
<path d="M-1 -106 L-1 -79 L-7 -80 L-12 -71 L-10 -69 L-14 -59 L-12 -59 L-8 -49 L-15 -45 L-20 -38 L-27 -35 L-35 -34 L-35 -32 L-41 -27 L-59 -24 L-58 -26 L-61 -33 L-68 -38 L-67 -42 L-58 -41 L-61 -47 L-64 -64 L-68 -64 L-68 -68 L-71 -71 L-68 -80 L-59 -86 L-55 -112 L-60 -118 L-62 -128 L-55 -132 L-1 -106 Z" fill="#444444" stroke="#222222" stroke-width="0.3"/>
<path d="M-52 220 L-49 216 L-45 221 L-38 223 L-28 219 L-28 194 L-22 201 L-21 208 L-16 207 L-5 197 L1 200 L11 199 L13 193 L17 193 L21 186 L37 176 L49 177 L54 191 L53 201 L48 200 L45 207 L49 211 L53 210 L55 207 L60 207 L55 221 L28 248 L12 256 L-10 255 L-27 262 L-38 257 L-41 247 L-39 246 L-39 241 L-52 220 Z" fill="#444444" stroke="#222222" stroke-width="0.3"/>
<path d="M31 220 L36 224 L33 230 L28 233 L25 234 L20 228 L28 222 L31 220 Z" fill="#444444" stroke="#222222" stroke-width="0.3"/>
<path d="M49 177 L37 176 L27 172 L25 165 L15 157 L8 146 L21 148 L33 135 L42 131 L43 134 L48 134 L60 139 L59 164 L49 177 Z" fill="#444444" stroke="#222222" stroke-width="0.3"/>
<path d="M37 176 L21 186 L17 193 L13 193 L11 199 L1 200 L-5 197 L-16 207 L-21 208 L-22 201 L-28 194 L-28 174 L-21 174 L-21 150 L-5 147 L-3 150 L8 146 L15 157 L25 165 L27 172 L37 176 Z" fill="#444444" stroke="#222222" stroke-width="0.3"/>
<path d="M-28 174 L-28 219 L-38 223 L-45 221 L-49 216 L-52 220 L-60 210 L-66 176 L-83 149 L-83 143 L-71 141 L-67 144 L-39 143 L-34 147 L-18 148 L0 143 L7 145 L-3 150 L-5 147 L-21 150 L-21 174 L-28 174 Z" fill="#444444" stroke="#222222" stroke-width="0.3"/>
<path d="M-276 -66 L-282 -73 L-279 -75 L-272 -85 L-261 -86 L-253 -82 L-245 -73 L-240 -58 L-268 -59 L-275 -58 L-276 -63 L-256 -65 L-258 -67 L-262 -66 L-265 -68 L-276 -66 Z" fill="#444444" stroke="#222222" stroke-width="0.3"/>
<path d="M-240 -55 L-245 -73 L-241 -78 L-235 -76 L-227 -79 L-200 -79 L-198 -83 L-206 -143 L-196 -143 L-150 -113 L-149 -110 L-141 -107 L-141 -103 L-134 -103 L-134 -88 L-138 -79 L-153 -77 L-156 -75 L-170 -75 L-183 -65 L-190 -65 L-198 -53 L-199 -44 L-203 -42 L-204 -45 L-209 -42 L-217 -43 L-219 -47 L-221 -47 L-219 -51 L-224 -57 L-231 -54 L-237 -56 L-240 -55 Z" fill="#444444" stroke="#222222" stroke-width="0.3"/>
<path d="M-278 -116 L-276 -118 L-250 -118 L-251 -128 L-250 -131 L-243 -132 L-243 -149 L-221 -149 L-221 -159 L-196 -143 L-206 -143 L-198 -83 L-200 -79 L-227 -79 L-235 -76 L-241 -78 L-245 -73 L-253 -82 L-261 -86 L-272 -85 L-274 -83 L-272 -96 L-273 -110 L-278 -116 Z" fill="#444444" stroke="#222222" stroke-width="0.3"/>
<path d="M-144 -16 L-150 -15 L-151 -35 L-157 -45 L-153 -52 L-143 -57 L-138 -53 L-137 -46 L-137 -42 L-144 -31 L-144 -16 Z" fill="#444444" stroke="#222222" stroke-width="0.3"/>
<path d="M-62 -128 L-60 -118 L-55 -112 L-59 -86 L-68 -80 L-71 -71 L-68 -68 L-68 -64 L-64 -64 L-67 -58 L-74 -66 L-79 -62 L-88 -64 L-101 -61 L-110 -64 L-116 -62 L-126 -68 L-135 -65 L-138 -53 L-143 -57 L-148 -55 L-148 -59 L-156 -61 L-160 -68 L-160 -75 L-138 -79 L-134 -88 L-134 -103 L-124 -106 L-81 -133 L-71 -130 L-67 -126 L-62 -128 Z" fill="#444444" stroke="#222222" stroke-width="0.3"/>
<path d="M-144 -16 L-144 -31 L-137 -42 L-138 -59 L-133 -67 L-126 -68 L-116 -62 L-110 -64 L-101 -61 L-88 -64 L-79 -62 L-74 -66 L-64 -55 L-71 -47 L-83 -21 L-88 -19 L-94 -21 L-100 -17 L-105 -6 L-123 -3 L-133 -16 L-144 -16 Z" fill="#444444" stroke="#222222" stroke-width="0.3"/>
<path d="M-64 -61 L-62 -56 L-61 -47 L-58 -41 L-67 -42 L-68 -38 L-61 -33 L-58 -26 L-64 -16 L-64 -6 L-55 6 L-55 15 L-65 11 L-97 11 L-96 5 L-105 -4 L-103 -11 L-100 -17 L-94 -21 L-88 -19 L-83 -21 L-71 -47 L-65 -52 L-64 -55 L-67 -58 L-64 -61 Z" fill="#444444" stroke="#222222" stroke-width="0.3"/>
<path d="M-156 -48 L-157 -45 L-151 -35 L-150 -15 L-155 -14 L-159 -21 L-158 -30 L-160 -43 L-163 -46 L-162 -48 L-156 -48 Z" fill="#444444" stroke="#222222" stroke-width="0.3"/>
<path d="M-162 -48 L-158 -30 L-159 -21 L-155 -14 L-176 -6 L-182 -8 L-184 -16 L-180 -29 L-182 -48 L-162 -48 Z" fill="#444444" stroke="#222222" stroke-width="0.3"/>
<path d="M-217 -43 L-209 -42 L-204 -45 L-203 -42 L-199 -44 L-192 -39 L-186 -41 L-182 -39 L-180 -29 L-184 -16 L-182 -8 L-194 -9 L-215 -3 L-214 -12 L-221 -17 L-219 -30 L-215 -32 L-219 -40 L-217 -43 Z" fill="#444444" stroke="#222222" stroke-width="0.3"/>
<path d="M-255 -59 L-240 -58 L-240 -55 L-237 -56 L-231 -54 L-224 -57 L-219 -51 L-221 -47 L-219 -47 L-217 -43 L-219 -40 L-215 -32 L-219 -30 L-219 -26 L-225 -23 L-228 -32 L-234 -30 L-234 -36 L-238 -42 L-247 -40 L-252 -34 L-265 -48 L-262 -52 L-255 -54 L-255 -59 Z" fill="#444444" stroke="#222222" stroke-width="0.3"/>
<path d="M-275 -58 L-255 -59 L-255 -54 L-262 -52 L-265 -48 L-271 -52 L-275 -58 Z" fill="#444444" stroke="#222222" stroke-width="0.3"/>
<path d="M-220 -26 L-221 -17 L-214 -12 L-215 -3 L-223 -6 L-240 -20 L-232 -31 L-228 -32 L-225 -23 L-220 -26 Z" fill="#444444" stroke="#222222" stroke-width="0.3"/>
<path d="M-252 -34 L-247 -40 L-238 -42 L-234 -36 L-234 -30 L-232 -31 L-240 -20 L-250 -26 L-252 -34 Z" fill="#444444" stroke="#222222" stroke-width="0.3"/>
<path d="M-199 -44 L-198 -53 L-192 -59 L-191 -63 L-183 -65 L-170 -75 L-160 -75 L-160 -68 L-156 -61 L-148 -59 L-149 -52 L-156 -48 L-182 -48 L-182 -39 L-186 -41 L-192 -39 L-199 -44 Z" fill="#444444" stroke="#222222" stroke-width="0.3"/>
<path d="M23 -9 L11 -9 L5 -7 L3 -8 L-5 -5 L-8 -6 L-11 -1 L-31 -8 L-37 -2 L-38 3 L-47 1 L-54 11 L-55 6 L-64 -6 L-65 -11 L-64 -16 L-59 -24 L-41 -27 L-35 -32 L-35 -34 L-27 -35 L-20 -38 L-15 -45 L-8 -49 L-3 -42 L-4 -34 L7 -27 L17 -14 L23 -9 Z" fill="#444444" stroke="#222222" stroke-width="0.3"/>
<path d="M-38 3 L-43 29 L-51 38 L-54 45 L-54 50 L-64 60 L-67 57 L-70 57 L-73 59 L-77 56 L-82 60 L-87 53 L-82 49 L-85 45 L-78 42 L-77 39 L-74 43 L-68 43 L-65 35 L-66 30 L-69 26 L-66 18 L-73 17 L-74 11 L-55 15 L-51 5 L-47 1 L-38 3 Z" fill="#444444" stroke="#222222" stroke-width="0.3"/>
<path d="M-86 11 L-75 11 L-73 17 L-66 18 L-69 26 L-66 30 L-65 35 L-68 43 L-74 43 L-77 39 L-78 42 L-85 45 L-82 49 L-87 53 L-103 34 L-98 19 L-86 19 L-86 11 Z" fill="#444444" stroke="#222222" stroke-width="0.3"/>
<path d="M-97 11 L-86 11 L-86 19 L-98 19 L-100 18 L-97 11 Z" fill="#444444" stroke="#222222" stroke-width="0.3"/>
<path d="M46 83 L62 92 L64 98 L62 105 L63 110 L59 119 L62 121 L42 126 L42 131 L33 135 L21 148 L8 146 L5 144 L-5 145 L-14 135 L-14 114 L0 114 L-1 100 L2 100 L2 103 L10 103 L12 106 L17 107 L21 105 L23 108 L28 109 L33 116 L39 116 L38 109 L36 110 L30 106 L32 91 L30 88 L34 83 L46 83 Z" fill="#444444" stroke="#222222" stroke-width="0.3"/>
<path d="M59 89 L66 90 L70 95 L71 118 L76 120 L79 125 L80 134 L77 135 L75 140 L70 136 L71 125 L59 119 L63 110 L62 105 L64 98 L59 89 Z" fill="#444444" stroke="#222222" stroke-width="0.3"/>
<path d="M71 104 L91 105 L105 100 L110 96 L113 126 L105 139 L91 145 L73 160 L72 165 L78 176 L77 190 L61 198 L58 200 L60 204 L60 207 L55 207 L52 199 L54 191 L49 177 L59 164 L60 139 L48 134 L43 134 L42 126 L62 121 L71 125 L70 136 L75 140 L77 135 L80 134 L79 125 L76 120 L71 118 L70 109 L71 104 Z" fill="#444444" stroke="#222222" stroke-width="0.3"/>
<path d="M55 207 L53 210 L49 211 L45 207 L48 200 L53 201 L55 207 Z" fill="#444444" stroke="#222222" stroke-width="0.3"/>
<path d="M-75 59 L-77 60 L-80 65 L-82 60 L-77 56 L-75 59 Z M-79 68 L-52 66 L-44 81 L-34 80 L-31 75 L-27 73 L-23 73 L-24 76 L-15 76 L-13 101 L-4 100 L-1 100 L0 102 L0 114 L-14 114 L-14 135 L-5 145 L-18 148 L-34 147 L-39 143 L-67 144 L-71 141 L-83 143 L-80 124 L-70 108 L-70 103 L-75 88 L-73 84 L-79 68 Z" fill="#444444" stroke="#222222" stroke-width="0.3"/>
<path d="M44 43 L46 49 L39 56 L36 57 L34 46 L38 46 L40 42 L44 43 Z" fill="#444444" stroke="#222222" stroke-width="0.3"/>
<path d="M170 108 L176 118 L178 133 L177 135 L175 131 L174 133 L174 140 L156 195 L145 200 L136 195 L131 180 L131 171 L135 170 L138 158 L135 144 L138 136 L151 133 L160 125 L162 122 L161 119 L164 120 L170 108 Z" fill="#444444" stroke="#222222" stroke-width="0.3"/>
<path d="M-276 -66 L-265 -68 L-262 -66 L-258 -67 L-256 -65 L-276 -63 L-276 -66 Z" fill="#444444" stroke="#222222" stroke-width="0.3"/>
<path d="M-98 -179 L-101 -191 L-111 -199 L-112 -204 L-107 -208 L-105 -224 L-98 -226 L-93 -226 L-94 -222 L-88 -225 L-91 -220 L-91 -217 L-88 -215 L-89 -209 L-94 -206 L-93 -202 L-89 -202 L-85 -198 L-85 -193 L-95 -186 L-95 -180 L-98 -179 Z" fill="#444444" stroke="#222222" stroke-width="0.3"/>
<path d="M-221 -159 L-221 -169 L-198 -177 L-195 -180 L-187 -183 L-187 -188 L-171 -192 L-170 -195 L-177 -212 L-171 -215 L-153 -221 L-126 -222 L-120 -225 L-105 -224 L-107 -208 L-112 -204 L-111 -199 L-101 -191 L-96 -173 L-97 -153 L-99 -150 L-93 -139 L-90 -140 L-81 -133 L-124 -106 L-141 -103 L-141 -107 L-149 -110 L-150 -113 L-221 -159 Z" fill="#444444" stroke="#222222" stroke-width="0.3"/>
<path d="M84 -71 L87 -88 L97 -96 L103 -81 L129 -60 L124 -59 L114 -69 L108 -72 L102 -73 L98 -72 L94 -75 L92 -70 L84 -71 Z" fill="#444444" stroke="#222222" stroke-width="0.3"/>
<path d="M-177 -212 L-170 -195 L-171 -192 L-187 -188 L-187 -183 L-195 -180 L-198 -177 L-221 -169 L-222 -157 L-240 -156 L-247 -141 L-256 -134 L-262 -119 L-278 -119 L-271 -134 L-265 -140 L-260 -151 L-256 -154 L-248 -163 L-242 -164 L-227 -176 L-229 -185 L-225 -194 L-221 -199 L-209 -205 L-203 -216 L-198 -216 L-194 -213 L-177 -212 Z" fill="#444444" stroke="#222222" stroke-width="0.3"/>
<path d="M87 -123 L7 -123 L7 -172 L5 -177 L5 -184 L8 -187 L17 -187 L33 -183 L47 -187 L52 -186 L54 -183 L55 -185 L66 -183 L69 -185 L74 -173 L69 -162 L67 -161 L62 -166 L56 -175 L68 -151 L79 -136 L78 -130 L87 -123 Z" fill="#444444" stroke="#222222" stroke-width="0.3"/>
<path d="M7 -172 L7 -109 L-1 -109 L-1 -106 L-55 -132 L-67 -126 L-71 -130 L-81 -133 L-90 -140 L-93 -139 L-99 -150 L-97 -153 L-96 -170 L-98 -179 L-95 -180 L-95 -186 L-85 -193 L-85 -198 L-59 -192 L-56 -186 L-33 -179 L-27 -183 L-28 -189 L-21 -195 L-8 -195 L-5 -192 L6 -190 L8 -187 L5 -184 L5 -177 L7 -172 Z" fill="#444444" stroke="#222222" stroke-width="0.3"/>
<path d="M161 -28 L142 -8 L133 -7 L121 -0 L116 -0 L113 -3 L105 3 L95 2 L87 -4 L82 -4 L80 -6 L80 -10 L76 -11 L72 -18 L65 -26 L61 -26 L63 -30 L66 -30 L69 -46 L80 -59 L84 -71 L92 -70 L94 -75 L98 -72 L102 -73 L108 -72 L119 -65 L124 -59 L119 -52 L120 -48 L127 -48 L126 -45 L133 -36 L155 -28 L161 -28 Z" fill="#444444" stroke="#222222" stroke-width="0.3"/>
<path d="M124 -59 L129 -60 L131 -58 L130 -55 L127 -53 L129 -51 L127 -48 L120 -48 L119 -52 L124 -59 Z" fill="#444444" stroke="#222222" stroke-width="0.3"/>
<path d="M169 -51 L169 -38 L161 -28 L155 -28 L133 -36 L126 -45 L129 -51 L136 -44 L169 -51 Z" fill="#444444" stroke="#222222" stroke-width="0.3"/>
<path d="M67 33 L46 33 L38 35 L40 22 L48 11 L46 10 L46 3 L49 1 L53 2 L63 1 L68 -2 L71 2 L75 13 L67 26 L67 33 Z" fill="#444444" stroke="#222222" stroke-width="0.3"/>
<path d="M43 34 L46 38 L46 42 L40 42 L38 46 L34 46 L36 37 L43 34 Z" fill="#cc3333" stroke="#222222" stroke-width="0.3"/>
<path d="M46 3 L39 -5 L27 -4 L22 -11 L17 -14 L15 -18 L8 -24 L7 -27 L-1 -32 L4 -34 L7 -43 L12 -44 L19 -38 L34 -37 L41 -43 L46 -39 L50 -40 L57 -49 L55 -55 L62 -56 L62 -46 L66 -44 L67 -32 L66 -30 L63 -30 L61 -26 L65 -26 L68 -23 L76 -11 L63 1 L53 2 L49 1 L46 3 Z" fill="#444444" stroke="#222222" stroke-width="0.3"/>
</svg>