<svg xmlns="http://www.w3.org/2000/svg" viewBox="0 0 80 80" width="80" height="80">
<path d="M3 205 L6 208 L14 211 L12 212 L10 213 L8 211 L3 211 L3 205 Z M35 140 L33 152 L36 154 L36 156 L38 158 L38 159 L35 163 L31 164 L22 165 L22 170 L20 171 L17 171 L15 170 L13 171 L14 174 L16 175 L17 174 L18 176 L13 178 L12 183 L9 183 L7 184 L6 186 L9 189 L12 189 L11 192 L7 193 L6 197 L2 199 L3 202 L5 204 L-6 203 L-8 201 L-8 199 L-10 199 L-11 198 L-11 195 L-9 194 L-8 192 L-8 191 L-5 184 L-6 183 L-4 182 L-6 180 L-5 179 L-6 178 L-7 175 L-6 174 L-6 170 L-5 165 L-3 164 L-4 158 L-2 156 L-2 154 L-0 151 L-0 148 L-2 143 L-1 140 L-1 137 L0 134 L4 130 L3 129 L4 123 L7 121 L8 118 L10 115 L14 116 L16 118 L17 116 L20 116 L26 121 L35 125 L35 126 L32 130 L39 132 L41 131 L44 129 L44 126 L45 126 L47 128 L47 130 L42 133 L35 140 Z" fill="#444444" stroke="#222222" stroke-width="0.3"/>
<path d="M3 205 L3 211 L8 211 L5 214 L-4 212 L-10 209 L-14 205 L-4 209 L-2 206 L1 205 L3 205 Z M0 103 L2 107 L4 108 L3 111 L6 118 L8 118 L8 118 L7 121 L4 123 L3 129 L4 130 L0 134 L-1 137 L-1 140 L-2 143 L-0 148 L-0 151 L-2 154 L-2 156 L-4 158 L-3 164 L-5 165 L-6 170 L-6 174 L-7 175 L-6 178 L-5 179 L-6 180 L-4 182 L-6 183 L-5 184 L-8 191 L-8 192 L-9 194 L-11 195 L-11 198 L-10 199 L-8 199 L-8 201 L-6 203 L3 204 L1 204 L-3 206 L-4 208 L-5 208 L-15 204 L-17 193 L-16 191 L-13 188 L-17 187 L-15 185 L-14 180 L-10 181 L-9 175 L-11 174 L-12 178 L-13 177 L-12 168 L-10 166 L-11 160 L-10 160 L-5 146 L-6 142 L-5 139 L-5 136 L-3 132 L-1 114 L-2 105 L0 103 Z" fill="#444444" stroke="#222222" stroke-width="0.3"/>
<path d="M25 203 L28 201 L31 202 L33 200 L35 202 L34 203 L30 204 L29 203 L26 204 L25 203 Z" fill="#444444" stroke="#222222" stroke-width="0.3"/>
<path d="M35 140 L37 139 L46 145 L48 147 L47 148 L48 150 L46 152 L43 153 L39 153 L35 152 L33 150 L35 140 Z" fill="#444444" stroke="#222222" stroke-width="0.3"/>
<path d="M48 150 L47 148 L48 147 L46 145 L37 139 L35 140 L42 133 L47 130 L47 128 L45 126 L44 126 L45 121 L42 121 L41 117 L34 116 L35 112 L34 110 L35 110 L34 108 L36 104 L35 103 L33 102 L33 99 L28 99 L27 95 L28 95 L27 92 L23 91 L19 88 L16 88 L13 85 L13 80 L9 80 L4 83 L-2 83 L-2 79 L-5 81 L-7 81 L-8 79 L-10 79 L-10 78 L-12 73 L-12 72 L-10 71 L-9 67 L-3 64 L-1 64 L1 55 L-1 52 L-1 50 L1 50 L1 48 L-0 48 L-0 46 L5 46 L6 45 L8 48 L10 49 L12 49 L19 45 L16 44 L16 40 L14 40 L19 40 L26 38 L27 37 L26 36 L28 37 L28 38 L30 40 L28 43 L29 46 L31 48 L33 48 L36 46 L40 46 L40 44 L49 45 L53 39 L54 39 L56 46 L58 46 L58 48 L55 51 L56 52 L62 52 L62 55 L64 53 L72 56 L74 58 L73 59 L77 58 L82 60 L87 60 L95 65 L100 66 L101 67 L102 73 L101 78 L91 89 L89 103 L87 109 L84 112 L84 115 L82 117 L81 118 L73 119 L64 124 L62 127 L62 131 L61 135 L48 150 Z" fill="#444444" stroke="#222222" stroke-width="0.3"/>
<path d="M1 83 L4 83 L9 80 L13 80 L13 85 L16 88 L19 88 L23 91 L27 92 L28 95 L27 95 L28 99 L33 99 L33 102 L35 103 L36 104 L34 108 L35 110 L34 110 L34 109 L31 108 L23 109 L21 116 L17 116 L16 118 L14 116 L10 115 L8 118 L6 118 L3 111 L4 108 L2 107 L0 103 L2 99 L1 97 L2 96 L1 95 L2 94 L3 88 L1 83 Z" fill="#444444" stroke="#222222" stroke-width="0.3"/>
<path d="M-1 64 L-3 64 L-9 67 L-10 71 L-12 72 L-12 73 L-10 78 L-10 79 L-8 79 L-7 81 L-5 81 L-2 79 L-2 83 L1 83 L3 88 L2 94 L1 95 L2 96 L1 97 L2 99 L-0 104 L-2 105 L-5 103 L-5 102 L-18 94 L-20 92 L-19 91 L-29 72 L-34 69 L-33 68 L-34 65 L-33 63 L-31 61 L-31 64 L-29 64 L-28 66 L-26 65 L-24 60 L-20 59 L-17 56 L-16 54 L-17 52 L-16 52 L-12 55 L-10 58 L-3 58 L-1 59 L-3 62 L-1 64 Z" fill="#444444" stroke="#222222" stroke-width="0.3"/>
<path d="M8 48 L8 48 L6 45 L5 46 L-0 46 L-0 48 L1 48 L1 50 L-1 50 L-1 52 L1 55 L-1 64 L-3 62 L-1 59 L-3 58 L-10 58 L-12 55 L-16 52 L-19 50 L-22 50 L-27 46 L-26 46 L-25 44 L-24 43 L-22 40 L-23 39 L-22 34 L-24 30 L-23 29 L-22 28 L-23 26 L-17 24 L-17 20 L-15 19 L-11 19 L-6 15 L-5 15 L-4 16 L-5 17 L-7 18 L-9 21 L-10 25 L-9 25 L-8 27 L-8 30 L-7 31 L-1 31 L1 34 L7 34 L6 38 L7 42 L6 43 L7 45 L8 48 Z" fill="#444444" stroke="#222222" stroke-width="0.3"/>
<path d="M24 34 L27 37 L26 38 L19 40 L14 40 L16 40 L16 44 L19 45 L12 49 L10 49 L6 43 L7 42 L6 38 L7 34 L1 34 L-1 31 L-7 31 L-8 30 L-8 27 L-9 25 L-10 25 L-9 21 L-7 18 L-5 17 L-7 18 L-6 21 L-7 23 L-6 25 L-5 25 L-4 23 L-5 19 L-1 18 L-2 17 L-1 16 L0 18 L2 18 L4 21 L10 20 L14 22 L16 20 L23 20 L20 21 L21 22 L24 23 L26 24 L26 26 L29 27 L27 29 L26 30 L27 31 L25 32 L24 34 Z" fill="#444444" stroke="#222222" stroke-width="0.3"/>
<path d="M38 46 L36 46 L33 48 L29 46 L28 43 L30 40 L28 38 L28 37 L26 36 L24 34 L25 32 L27 31 L26 30 L27 29 L29 27 L33 30 L33 31 L37 34 L36 37 L34 37 L34 40 L35 42 L36 42 L38 46 Z" fill="#444444" stroke="#222222" stroke-width="0.3"/>
<path d="M44 45 L40 44 L40 46 L38 46 L36 42 L35 42 L34 40 L34 37 L36 37 L37 34 L46 35 L44 37 L46 41 L44 45 Z" fill="#cc3333" stroke="#222222" stroke-width="0.3"/>
<path d="M-17 52 L-16 54 L-17 56 L-20 59 L-24 60 L-26 65 L-28 66 L-29 64 L-31 64 L-31 61 L-29 59 L-30 58 L-31 59 L-33 58 L-33 54 L-32 54 L-30 49 L-27 47 L-23 49 L-22 50 L-19 50 L-17 52 Z" fill="#444444" stroke="#222222" stroke-width="0.3"/>
<path d="M34 109 L35 112 L34 116 L41 117 L42 121 L45 121 L44 129 L41 131 L39 132 L32 130 L35 126 L35 125 L26 121 L21 116 L23 109 L31 108 L34 109 Z" fill="#444444" stroke="#222222" stroke-width="0.3"/>
</svg>