<svg xmlns="http://www.w3.org/2000/svg" viewBox="0 0 80 80" width="80" height="80">
<path d="M38 31 L45 35 L45 36 L47 37 L46 39 L47 40 L48 41 L47 44 L49 47 L48 48 L43 49 L40 49 L39 46 L38 45 L33 43 L32 41 L31 40 L31 37 L32 37 L33 35 L33 34 L33 33 L33 32 L33 31 L38 31 Z" fill="#cc3333" stroke="#222222" stroke-width="0.3"/>
<path d="M-32 -16 L-32 -13 L-38 -13 L-37 -9 L-39 -9 L-39 -8 L-39 -6 L-46 -6 L-46 -5 L-46 -6 L-42 -6 L-41 -10 L-38 -12 L-38 -14 L-37 -14 L-37 -15 L-32 -15 L-32 -16 Z" fill="#444444" stroke="#222222" stroke-width="0.3"/>
<path d="M30 34 L31 40 L32 41 L33 43 L30 44 L29 45 L30 45 L29 49 L31 50 L31 50 L32 51 L30 51 L29 50 L28 50 L27 49 L26 49 L25 49 L24 48 L23 48 L22 48 L19 48 L18 42 L16 42 L16 41 L16 41 L14 41 L14 43 L11 43 L9 39 L3 40 L2 39 L3 38 L5 37 L6 37 L6 38 L9 35 L9 34 L9 32 L12 30 L13 23 L15 21 L19 23 L20 22 L21 22 L23 21 L24 21 L25 21 L28 21 L29 22 L29 22 L32 22 L33 24 L33 26 L34 26 L32 29 L30 34 Z" fill="#444444" stroke="#222222" stroke-width="0.3"/>
<path d="M51 32 L50 31 L50 25 L52 22 L53 22 L55 21 L57 21 L63 14 L63 11 L67 10 L67 12 L66 14 L63 21 L59 25 L54 29 L51 32 Z" fill="#444444" stroke="#222222" stroke-width="0.3"/>
<path d="M47 37 L45 36 L45 35 L38 31 L38 29 L40 26 L39 22 L41 20 L42 21 L42 22 L42 22 L43 22 L45 24 L48 24 L50 22 L51 23 L52 23 L50 25 L50 31 L51 32 L49 34 L48 37 L47 37 Z" fill="#444444" stroke="#222222" stroke-width="0.3"/>
<path d="M23 16 L22 15 L21 15 L21 13 L20 12 L19 9 L19 9 L20 6 L19 6 L20 4 L22 4 L22 -4 L24 -4 L24 -7 L43 -7 L44 -1 L46 -0 L43 1 L42 7 L40 11 L39 12 L39 15 L38 12 L37 12 L37 9 L37 9 L35 10 L36 11 L34 13 L33 13 L32 12 L30 14 L27 14 L25 12 L24 12 L23 15 L22 15 L23 16 Z" fill="#444444" stroke="#222222" stroke-width="0.3"/>
<path d="M22 -3 L22 4 L20 4 L19 6 L20 6 L19 9 L19 9 L20 11 L18 12 L17 14 L16 15 L13 15 L14 15 L12 16 L8 17 L8 17 L7 15 L5 14 L6 13 L8 13 L7 11 L6 7 L5 7 L5 6 L5 6 L5 4 L8 2 L9 -4 L7 -6 L7 -8 L9 -9 L22 -3 Z" fill="#444444" stroke="#222222" stroke-width="0.3"/>
<path d="M9 77 L10 76 L11 77 L13 78 L15 77 L15 71 L17 72 L17 74 L18 74 L21 71 L22 72 L25 72 L25 70 L26 70 L27 69 L31 66 L34 66 L35 70 L35 72 L34 72 L33 74 L34 75 L35 75 L35 74 L37 74 L36 77 L29 84 L25 86 L20 86 L16 87 L13 86 L12 84 L13 83 L12 82 L9 77 Z" fill="#444444" stroke="#222222" stroke-width="0.3"/>
<path d="M30 77 L31 78 L30 79 L29 80 L28 80 L27 79 L29 77 L30 77 Z" fill="#444444" stroke="#222222" stroke-width="0.3"/>
<path d="M34 66 L31 66 L29 65 L28 63 L26 61 L24 59 L27 59 L30 56 L32 55 L33 56 L34 56 L37 57 L36 63 L34 66 Z" fill="#444444" stroke="#222222" stroke-width="0.3"/>
<path d="M31 66 L27 69 L26 70 L25 70 L25 72 L22 72 L21 71 L18 74 L17 74 L17 72 L15 71 L15 66 L17 66 L17 60 L21 59 L21 60 L24 59 L26 61 L28 63 L29 65 L31 66 Z" fill="#444444" stroke="#222222" stroke-width="0.3"/>
<path d="M15 66 L15 77 L13 78 L11 77 L10 76 L9 77 L8 74 L6 66 L2 59 L2 58 L5 58 L6 58 L13 58 L14 59 L18 59 L22 58 L24 59 L21 60 L21 59 L17 60 L17 66 L15 66 Z" fill="#444444" stroke="#222222" stroke-width="0.3"/>
<path d="M-45 7 L-47 5 L-46 5 L-44 2 L-42 2 L-40 3 L-38 5 L-37 9 L-43 9 L-45 9 L-46 8 L-41 7 L-41 7 L-42 7 L-43 7 L-45 7 Z" fill="#444444" stroke="#222222" stroke-width="0.3"/>
<path d="M-37 10 L-38 5 L-37 4 L-35 4 L-34 4 L-27 4 L-26 3 L-28 -12 L-26 -12 L-15 -5 L-14 -4 L-12 -3 L-12 -2 L-11 -2 L-11 2 L-12 4 L-15 4 L-16 5 L-19 5 L-23 7 L-24 7 L-26 10 L-27 12 L-28 13 L-28 12 L-29 13 L-31 13 L-31 12 L-32 12 L-32 11 L-33 9 L-35 10 L-36 9 L-37 10 Z" fill="#444444" stroke="#222222" stroke-width="0.3"/>
<path d="M-46 -5 L-46 -6 L-39 -6 L-39 -8 L-39 -9 L-37 -9 L-38 -13 L-32 -13 L-32 -16 L-26 -12 L-28 -12 L-26 3 L-27 4 L-34 4 L-35 4 L-37 4 L-38 5 L-40 3 L-42 2 L-44 2 L-45 3 L-44 -0 L-45 -4 L-46 -5 Z" fill="#444444" stroke="#222222" stroke-width="0.3"/>
<path d="M-13 19 L-15 19 L-15 14 L-16 12 L-15 10 L-13 9 L-12 10 L-11 12 L-12 13 L-13 15 L-13 19 Z" fill="#444444" stroke="#222222" stroke-width="0.3"/>
<path d="M7 -8 L7 -6 L9 -4 L8 2 L5 4 L5 6 L5 6 L5 7 L6 7 L6 9 L4 7 L3 8 L1 7 L-3 8 L-5 7 L-6 8 L-9 7 L-11 7 L-12 10 L-13 9 L-14 10 L-14 9 L-16 8 L-17 6 L-17 5 L-12 4 L-11 2 L-11 -2 L-8 -3 L2 -9 L5 -9 L6 -8 L7 -8 Z" fill="#444444" stroke="#222222" stroke-width="0.3"/>
<path d="M-13 19 L-13 15 L-12 13 L-12 9 L-10 7 L-9 7 L-6 8 L-5 7 L-3 8 L1 7 L3 8 L4 7 L6 9 L5 12 L2 18 L1 18 L-1 18 L-2 19 L-4 22 L-8 22 L-11 19 L-13 19 Z" fill="#444444" stroke="#222222" stroke-width="0.3"/>
<path d="M6 8 L7 9 L7 11 L8 13 L6 13 L5 14 L7 15 L8 17 L6 19 L6 22 L9 25 L9 27 L6 26 L-2 26 L-1 24 L-4 22 L-3 20 L-2 19 L-1 18 L1 18 L2 18 L5 12 L6 10 L6 9 L6 9 L6 8 Z" fill="#444444" stroke="#222222" stroke-width="0.3"/>
<path d="M-16 11 L-16 12 L-15 14 L-15 19 L-16 20 L-17 18 L-17 16 L-17 13 L-18 12 L-18 11 L-16 11 Z" fill="#444444" stroke="#222222" stroke-width="0.3"/>
<path d="M-18 11 L-17 16 L-17 18 L-16 20 L-21 22 L-22 21 L-23 19 L-22 16 L-23 11 L-18 11 Z" fill="#444444" stroke="#222222" stroke-width="0.3"/>
<path d="M-31 13 L-29 13 L-28 12 L-28 13 L-27 12 L-25 14 L-24 13 L-22 14 L-22 16 L-23 19 L-22 21 L-25 21 L-30 22 L-30 20 L-32 19 L-31 16 L-31 15 L-31 13 L-31 13 Z" fill="#444444" stroke="#222222" stroke-width="0.3"/>
<path d="M-40 9 L-37 9 L-37 10 L-36 9 L-35 10 L-33 9 L-32 11 L-32 12 L-31 12 L-31 13 L-31 13 L-31 15 L-31 16 L-31 17 L-33 17 L-34 15 L-35 16 L-35 14 L-36 13 L-38 13 L-40 15 L-43 11 L-42 10 L-40 10 L-40 9 Z" fill="#444444" stroke="#222222" stroke-width="0.3"/>
<path d="M-45 9 L-40 9 L-40 10 L-42 10 L-43 11 L-44 10 L-45 9 Z" fill="#444444" stroke="#222222" stroke-width="0.3"/>
<path d="M-32 17 L-32 19 L-30 20 L-30 22 L-33 22 L-37 18 L-35 16 L-34 15 L-33 17 L-32 17 Z" fill="#444444" stroke="#222222" stroke-width="0.3"/>
<path d="M-40 15 L-38 13 L-36 13 L-35 14 L-35 16 L-35 16 L-37 18 L-39 17 L-40 15 Z" fill="#444444" stroke="#222222" stroke-width="0.3"/>
<path d="M-27 12 L-26 10 L-25 9 L-25 8 L-23 7 L-19 5 L-17 5 L-17 6 L-16 8 L-14 9 L-14 10 L-16 11 L-23 11 L-22 14 L-24 13 L-25 14 L-27 12 Z" fill="#444444" stroke="#222222" stroke-width="0.3"/>
<path d="M28 21 L25 21 L23 21 L23 21 L21 22 L20 22 L19 23 L15 21 L13 23 L13 24 L11 23 L9 26 L9 25 L6 22 L6 20 L6 19 L8 17 L12 16 L14 15 L13 15 L16 15 L17 14 L18 12 L20 11 L21 13 L21 15 L24 17 L26 20 L28 21 Z" fill="#444444" stroke="#222222" stroke-width="0.3"/>
<path d="M13 24 L12 30 L9 32 L9 34 L9 35 L6 38 L6 37 L5 37 L4 38 L3 37 L2 38 L1 36 L2 35 L1 34 L3 33 L3 33 L4 34 L5 34 L6 32 L6 30 L5 29 L6 28 L4 27 L4 26 L9 27 L10 24 L11 23 L13 24 Z" fill="#444444" stroke="#222222" stroke-width="0.3"/>
<path d="M1 26 L4 26 L4 27 L6 28 L5 29 L6 30 L6 32 L5 34 L4 34 L3 33 L3 33 L1 34 L2 35 L1 36 L-3 31 L-2 28 L1 28 L1 26 Z" fill="#444444" stroke="#222222" stroke-width="0.3"/>
<path d="M-2 26 L1 26 L1 28 L-2 28 L-2 28 L-2 26 Z" fill="#444444" stroke="#222222" stroke-width="0.3"/>
<path d="M33 43 L37 46 L38 47 L37 49 L37 50 L36 52 L37 53 L32 54 L32 55 L30 56 L27 59 L24 59 L23 58 L21 59 L19 56 L19 51 L22 51 L22 48 L22 48 L23 48 L24 48 L25 49 L26 49 L27 49 L28 50 L29 50 L30 51 L32 51 L31 50 L31 50 L29 49 L30 45 L29 45 L30 43 L33 43 Z" fill="#444444" stroke="#222222" stroke-width="0.3"/>
<path d="M37 45 L38 45 L39 46 L40 52 L41 53 L41 54 L42 56 L41 56 L40 57 L39 56 L39 54 L36 52 L37 50 L37 49 L38 47 L37 45 Z" fill="#444444" stroke="#222222" stroke-width="0.3"/>
<path d="M40 49 L44 49 L48 48 L49 47 L50 54 L48 57 L44 59 L40 62 L40 63 L41 66 L41 69 L37 72 L36 72 L37 73 L37 74 L35 74 L35 72 L35 70 L34 66 L36 63 L37 57 L34 56 L33 56 L32 54 L37 53 L39 54 L39 56 L40 57 L41 56 L42 56 L41 54 L41 53 L40 52 L39 50 L40 49 Z" fill="#444444" stroke="#222222" stroke-width="0.3"/>
<path d="M35 74 L35 75 L34 75 L33 74 L34 72 L35 72 L35 74 Z" fill="#444444" stroke="#222222" stroke-width="0.3"/>
<path d="M4 37 L3 38 L2 39 L2 38 L3 37 L4 37 Z M3 40 L9 39 L11 43 L14 43 L14 41 L16 41 L16 41 L16 42 L18 42 L19 48 L21 48 L22 48 L22 48 L22 51 L19 51 L19 56 L21 59 L18 59 L14 59 L13 58 L6 58 L5 58 L2 58 L2 53 L5 49 L5 48 L4 45 L4 44 L3 40 Z" fill="#444444" stroke="#222222" stroke-width="0.3"/>
<path d="M33 34 L33 35 L32 37 L31 37 L30 34 L31 34 L32 33 L33 34 Z" fill="#444444" stroke="#222222" stroke-width="0.3"/>
<path d="M64 49 L65 52 L66 56 L65 56 L65 55 L65 56 L65 57 L60 71 L58 72 L55 71 L54 67 L54 65 L55 65 L56 62 L55 58 L56 56 L59 56 L61 54 L62 53 L62 52 L62 52 L64 49 Z" fill="#444444" stroke="#222222" stroke-width="0.3"/>
<path d="M-45 7 L-43 7 L-42 7 L-41 7 L-41 7 L-46 8 L-45 7 Z" fill="#444444" stroke="#222222" stroke-width="0.3"/>
<path d="M-2 -21 L-3 -24 L-5 -26 L-5 -27 L-4 -28 L-4 -32 L-2 -32 L-1 -32 L-1 -31 L1 -32 L-0 -31 L-0 -30 L0 -30 L0 -28 L-1 -27 L-1 -26 L0 -26 L1 -25 L1 -24 L-1 -22 L-1 -21 L-2 -21 Z" fill="#444444" stroke="#222222" stroke-width="0.3"/>
<path d="M-32 -16 L-32 -18 L-26 -20 L-26 -21 L-24 -22 L-24 -23 L-20 -24 L-20 -25 L-21 -29 L-20 -30 L-15 -31 L-9 -31 L-7 -32 L-4 -32 L-4 -28 L-5 -27 L-5 -26 L-3 -24 L-1 -19 L-2 -14 L-2 -14 L-1 -11 L0 -11 L2 -9 L-8 -3 L-12 -2 L-12 -3 L-14 -4 L-15 -5 L-32 -16 Z" fill="#444444" stroke="#222222" stroke-width="0.3"/>
<path d="M43 6 L43 1 L46 -0 L47 3 L54 8 L52 9 L50 6 L49 5 L47 5 L46 5 L45 5 L45 6 L43 6 Z" fill="#444444" stroke="#222222" stroke-width="0.3"/>
<path d="M-21 -29 L-20 -25 L-20 -24 L-24 -23 L-24 -22 L-26 -21 L-26 -20 L-32 -18 L-32 -15 L-37 -15 L-38 -12 L-41 -10 L-42 -6 L-46 -6 L-44 -10 L-43 -11 L-42 -14 L-41 -15 L-39 -17 L-37 -17 L-34 -20 L-34 -22 L-33 -24 L-32 -26 L-29 -27 L-28 -30 L-26 -30 L-25 -29 L-21 -29 Z" fill="#444444" stroke="#222222" stroke-width="0.3"/>
<path d="M43 -7 L24 -7 L24 -19 L23 -20 L23 -22 L24 -23 L26 -23 L30 -22 L34 -23 L35 -23 L35 -22 L36 -22 L38 -22 L39 -22 L40 -19 L39 -17 L38 -16 L37 -18 L36 -20 L39 -14 L41 -10 L41 -9 L43 -7 Z" fill="#444444" stroke="#222222" stroke-width="0.3"/>
<path d="M24 -19 L24 -4 L22 -4 L22 -3 L9 -9 L6 -8 L5 -9 L2 -9 L0 -11 L-1 -11 L-2 -14 L-2 -14 L-1 -18 L-2 -21 L-1 -21 L-1 -22 L1 -24 L1 -25 L8 -24 L8 -22 L14 -21 L16 -22 L15 -23 L17 -25 L20 -25 L21 -24 L24 -23 L24 -23 L23 -22 L23 -20 L24 -19 Z" fill="#444444" stroke="#222222" stroke-width="0.3"/>
<path d="M61 16 L57 21 L55 21 L52 23 L51 23 L50 22 L48 24 L45 24 L43 22 L42 22 L42 22 L42 21 L41 20 L40 19 L38 17 L37 17 L37 16 L38 16 L39 12 L42 9 L43 6 L45 6 L45 5 L46 5 L47 5 L49 5 L51 7 L52 9 L51 10 L51 11 L53 11 L53 12 L55 14 L60 16 L61 16 Z" fill="#444444" stroke="#222222" stroke-width="0.3"/>
<path d="M52 9 L54 8 L54 9 L54 10 L53 10 L54 11 L53 11 L51 11 L51 10 L52 9 Z" fill="#444444" stroke="#222222" stroke-width="0.3"/>
<path d="M63 11 L63 14 L61 16 L60 16 L55 14 L53 12 L54 11 L55 12 L63 11 Z" fill="#444444" stroke="#222222" stroke-width="0.3"/>
<path d="M38 31 L33 31 L31 32 L32 29 L34 26 L33 26 L33 24 L34 23 L35 24 L38 23 L39 22 L39 24 L40 26 L38 29 L38 31 Z" fill="#444444" stroke="#222222" stroke-width="0.3"/>
<path d="M33 31 L33 32 L33 33 L32 33 L31 34 L30 34 L31 32 L33 31 Z" fill="#444444" stroke="#222222" stroke-width="0.3"/>
<path d="M33 24 L32 22 L29 22 L27 20 L26 20 L26 19 L24 17 L24 17 L22 15 L23 15 L24 12 L25 12 L27 14 L30 14 L32 12 L33 13 L34 13 L36 11 L35 10 L37 9 L37 12 L38 12 L39 15 L38 16 L37 16 L37 17 L38 17 L39 18 L41 20 L38 23 L35 24 L34 23 L33 24 Z" fill="#444444" stroke="#222222" stroke-width="0.3"/>
</svg>