<svg xmlns="http://www.w3.org/2000/svg" viewBox="0 0 80 80" width="80" height="80">
<path d="M28 10 L28 11 L27 11 L27 12 L27 12 L25 12 L24 13 L22 14 L23 15 L22 15 L23 16 L22 15 L19 15 L18 15 L17 15 L17 16 L15 16 L15 16 L13 17 L13 17 L13 17 L12 17 L11 17 L11 16 L11 16 L11 15 L10 15 L8 15 L7 14 L5 13 L3 14 L3 17 L2 17 L1 16 L-0 16 L-0 16 L-1 15 L-2 14 L-1 14 L-1 14 L0 13 L0 12 L-1 12 L-3 13 L-4 12 L-3 12 L-4 11 L-5 11 L-5 11 L-4 9 L-4 10 L-3 9 L-2 8 L-0 8 L2 9 L3 9 L5 9 L6 9 L6 9 L7 9 L7 9 L6 8 L7 8 L6 7 L7 7 L7 7 L7 6 L10 6 L13 5 L15 5 L15 6 L16 6 L17 6 L17 7 L18 7 L20 6 L19 6 L21 7 L22 9 L23 8 L24 9 L25 9 L27 10 L28 10 L28 10 Z" fill="#444444" stroke="#222222" stroke-width="0.3"/>
<path d="M3 17 L3 14 L5 13 L7 14 L8 15 L10 15 L11 15 L11 16 L11 16 L11 17 L12 17 L13 17 L13 17 L13 17 L15 16 L15 16 L14 17 L15 17 L16 17 L17 17 L16 18 L15 18 L15 17 L14 17 L13 18 L12 18 L12 19 L13 19 L13 19 L12 20 L11 20 L11 19 L9 19 L8 18 L7 17 L6 17 L6 17 L6 16 L5 16 L3 16 L3 17 L3 17 Z" fill="#444444" stroke="#222222" stroke-width="0.3"/>
<path d="M73 53 L75 54 L77 55 L77 55 L78 56 L78 56 L77 56 L78 57 L78 57 L79 58 L79 58 L79 59 L81 59 L81 59 L78 59 L77 58 L77 57 L76 57 L74 58 L75 58 L74 58 L73 58 L73 53 Z M82 54 L83 54 L82 55 L82 54 L80 53 L81 53 L82 54 Z M82 55 L80 56 L79 55 L79 55 L80 55 L80 55 L80 55 L81 55 L81 55 L81 54 L82 54 L82 55 L82 55 Z M84 55 L85 56 L85 56 L84 56 L84 55 Z" fill="#444444" stroke="#222222" stroke-width="0.3"/>
<path d="M73 53 L73 58 L72 58 L71 57 L71 58 L70 58 L70 57 L71 57 L70 55 L68 54 L66 54 L66 54 L66 53 L65 53 L67 53 L67 53 L65 53 L65 52 L64 52 L64 52 L65 51 L67 51 L67 53 L68 54 L69 53 L70 52 L70 52 L73 53 Z M59 58 L59 58 L59 59 L58 59 L59 58 L59 58 Z M67 56 L67 56 L67 55 L67 56 L67 56 Z M53 47 L53 48 L54 49 L53 49 L54 50 L53 50 L53 51 L53 51 L52 52 L52 54 L52 54 L51 54 L51 54 L50 53 L49 54 L48 53 L47 53 L47 52 L46 51 L46 50 L46 50 L47 49 L47 50 L47 50 L48 50 L49 50 L50 50 L51 50 L52 47 L53 47 Z M62 53 L64 53 L64 54 L63 54 L62 54 L62 53 Z M61 54 L60 54 L60 53 L61 53 L61 54 L61 54 Z M62 49 L62 49 L62 49 L62 50 L62 51 L62 50 L62 51 L62 51 L62 51 L61 50 L62 49 Z M56 50 L59 50 L59 49 L60 50 L59 50 L58 51 L55 51 L55 51 L56 52 L56 52 L58 51 L58 52 L58 52 L57 52 L56 52 L57 53 L57 54 L58 55 L58 55 L57 55 L57 55 L57 54 L57 55 L56 55 L57 54 L56 54 L56 53 L55 53 L56 55 L55 55 L55 55 L55 54 L55 54 L54 54 L54 53 L55 51 L56 50 Z M56 59 L54 59 L55 58 L56 59 L56 59 Z M56 58 L57 58 L58 57 L58 58 L55 58 L55 58 L56 58 Z M54 57 L54 58 L55 58 L53 58 L53 58 L53 58 L54 57 Z M46 56 L46 56 L47 56 L48 56 L49 56 L49 57 L51 57 L52 58 L51 58 L50 58 L46 57 L44 57 L44 56 L43 56 L44 56 L46 56 Z M42 52 L43 53 L43 53 L44 53 L44 56 L43 56 L41 54 L38 51 L38 49 L35 47 L35 46 L37 46 L39 49 L40 49 L41 50 L41 50 L42 51 L42 51 L42 52 Z" fill="#444444" stroke="#222222" stroke-width="0.3"/>
<path d="M59 58 L60 58 L61 58 L59 58 L59 58 Z" fill="#444444" stroke="#222222" stroke-width="0.3"/>
<path d="M-14 23 L-14 24 L-15 24 L-15 25 L-15 25 L-15 25 L-14 25 L-14 25 L-15 26 L-15 25 L-15 24 L-14 23 Z" fill="#444444" stroke="#222222" stroke-width="0.3"/>
<path d="M-14 23 L-15 24 L-14 22 L-14 22 L-13 23 L-14 23 Z" fill="#444444" stroke="#222222" stroke-width="0.3"/>
<path d="M-14 25 L-15 25 L-15 25 L-15 25 L-15 24 L-14 24 L-14 25 Z" fill="#444444" stroke="#222222" stroke-width="0.3"/>
<path d="M-15 26 L-14 24 L-13 24 L-12 23 L-11 24 L-13 25 L-12 26 L-14 27 L-15 26 Z" fill="#444444" stroke="#222222" stroke-width="0.3"/>
<path d="M-1 31 L-1 31 L1 31 L3 29 L3 30 L3 30 L2 30 L3 31 L2 31 L2 32 L-1 32 L-1 31 Z" fill="#444444" stroke="#222222" stroke-width="0.3"/>
<path d="M-2 30 L-2 30 L-1 29 L-1 30 L-1 30 L-2 30 Z" fill="#444444" stroke="#222222" stroke-width="0.3"/>
<path d="M-4 26 L-4 27 L-4 27 L-4 27 L-5 27 L-5 26 L-4 26 Z" fill="#444444" stroke="#222222" stroke-width="0.3"/>
<path d="M-11 24 L-12 23 L-10 22 L-10 21 L-8 20 L-7 20 L-7 20 L-6 21 L-6 21 L-6 22 L-6 22 L-6 23 L-6 24 L-5 24 L-4 25 L-4 25 L-4 25 L-4 26 L-4 26 L-5 26 L-5 27 L-7 27 L-9 25 L-11 24 Z" fill="#444444" stroke="#222222" stroke-width="0.3"/>
<path d="M2 32 L2 31 L3 31 L2 30 L3 30 L4 31 L5 31 L6 32 L5 34 L4 34 L4 35 L3 35 L3 36 L2 36 L2 37 L0 37 L-1 35 L2 34 L2 33 L2 32 Z M3 30 L3 29 L3 29 L3 29 L3 30 Z" fill="#444444" stroke="#222222" stroke-width="0.3"/>
<path d="M41 41 L41 40 L41 39 L42 39 L44 39 L44 39 L45 39 L45 40 L45 41 L44 41 L44 42 L42 42 L42 42 L41 41 Z" fill="#444444" stroke="#222222" stroke-width="0.3"/>
<path d="M43 39 L41 39 L41 40 L41 41 L40 40 L39 40 L40 40 L39 40 L39 41 L38 43 L38 43 L39 43 L39 45 L41 46 L40 46 L40 46 L40 46 L39 45 L39 45 L38 44 L37 44 L37 44 L38 43 L38 41 L38 39 L37 38 L38 37 L37 36 L37 35 L37 35 L38 34 L39 34 L39 34 L39 35 L40 35 L40 36 L41 36 L41 36 L41 36 L42 36 L43 36 L43 37 L43 38 L43 39 Z" fill="#cc3333" stroke="#222222" stroke-width="0.3"/>
<path d="M45 39 L44 39 L44 39 L43 39 L43 38 L43 37 L43 36 L42 36 L41 36 L41 36 L41 36 L40 36 L40 35 L39 35 L39 34 L39 34 L40 33 L40 33 L40 32 L41 32 L41 34 L42 34 L43 34 L42 35 L43 35 L45 38 L45 38 L45 39 Z" fill="#444444" stroke="#222222" stroke-width="0.3"/>
<path d="M40 33 L38 34 L37 35 L37 35 L37 36 L38 37 L37 38 L38 39 L38 41 L38 43 L38 41 L37 41 L38 40 L37 40 L36 37 L35 38 L34 38 L34 37 L34 36 L33 35 L34 35 L33 34 L32 34 L32 33 L33 33 L33 33 L33 32 L33 31 L34 31 L35 29 L35 29 L36 28 L36 28 L37 27 L37 27 L38 28 L38 29 L37 30 L37 31 L38 31 L38 32 L38 32 L38 33 L39 33 L40 33 L40 33 Z" fill="#444444" stroke="#222222" stroke-width="0.3"/>
<path d="M42 42 L44 42 L44 41 L45 41 L45 38 L45 38 L43 35 L42 35 L43 34 L42 34 L41 34 L41 32 L42 32 L43 32 L44 32 L44 32 L45 33 L45 33 L44 34 L43 35 L45 37 L46 38 L46 40 L46 41 L43 44 L43 43 L43 43 L42 42 Z" fill="#444444" stroke="#222222" stroke-width="0.3"/>
<path d="M64 16 L64 16 L64 16 L64 16 Z M63 15 L64 16 L64 16 L63 17 L63 17 L61 18 L61 18 L62 19 L62 19 L60 20 L59 19 L60 18 L59 18 L59 17 L61 16 L62 17 L62 16 L63 16 L63 15 Z" fill="#444444" stroke="#222222" stroke-width="0.3"/>
<path d="M60 20 L62 19 L63 20 L63 21 L63 22 L61 22 L61 21 L60 21 L61 20 L60 20 Z" fill="#444444" stroke="#222222" stroke-width="0.3"/>
<path d="M29 10 L32 9 L34 9 L35 10 L37 10 L37 9 L37 9 L38 8 L40 9 L41 9 L42 10 L44 9 L46 10 L48 10 L49 10 L51 9 L52 10 L53 10 L52 11 L52 11 L53 11 L54 11 L55 12 L55 12 L53 12 L52 13 L50 14 L49 14 L48 14 L49 15 L47 15 L44 16 L43 17 L39 16 L36 16 L35 14 L33 14 L31 13 L31 13 L31 12 L31 11 L29 11 L29 10 Z" fill="#444444" stroke="#222222" stroke-width="0.3"/>
<path d="M37 27 L36 28 L36 28 L35 29 L35 29 L34 31 L33 31 L33 32 L33 33 L32 31 L32 31 L32 32 L32 31 L33 30 L30 30 L30 29 L29 29 L29 30 L30 30 L29 31 L29 31 L29 31 L30 33 L30 33 L28 33 L28 34 L28 34 L26 35 L24 37 L24 37 L23 38 L22 38 L23 40 L22 41 L22 42 L22 42 L21 43 L22 43 L21 43 L20 44 L20 43 L19 41 L18 40 L18 39 L17 38 L16 33 L15 34 L14 34 L13 33 L14 32 L14 32 L13 31 L13 31 L15 31 L14 29 L14 29 L15 28 L16 28 L18 25 L18 25 L18 24 L18 24 L17 22 L18 22 L20 22 L21 22 L21 22 L21 23 L22 24 L22 24 L21 24 L21 25 L23 26 L23 26 L22 27 L25 28 L26 28 L27 29 L29 29 L29 28 L30 28 L30 28 L30 29 L32 29 L32 28 L32 28 L33 28 L34 27 L35 27 L36 27 L36 27 L36 27 L37 27 Z" fill="#444444" stroke="#222222" stroke-width="0.3"/>
<path d="M32 31 L33 33 L32 33 L32 34 L32 32 L31 32 L31 33 L30 33 L29 31 L29 31 L29 31 L30 30 L29 30 L29 29 L30 29 L30 30 L33 30 L32 31 L32 32 L32 31 L32 31 Z" fill="#444444" stroke="#222222" stroke-width="0.3"/>
<path d="M31 27 L32 28 L32 29 L30 29 L30 28 L30 28 L31 27 Z" fill="#444444" stroke="#222222" stroke-width="0.3"/>
<path d="M29 28 L29 29 L28 29 L27 29 L26 28 L25 28 L22 27 L23 26 L24 26 L27 28 L29 28 Z" fill="#444444" stroke="#222222" stroke-width="0.3"/>
<path d="M21 22 L20 22 L18 22 L17 22 L18 24 L18 24 L18 25 L18 25 L16 28 L15 28 L14 29 L14 29 L15 31 L13 31 L13 31 L12 31 L11 30 L7 30 L7 29 L9 29 L9 28 L8 28 L8 27 L7 27 L7 26 L8 27 L10 26 L11 26 L11 25 L12 25 L14 24 L13 24 L14 23 L14 23 L14 23 L15 23 L15 22 L15 21 L16 21 L18 20 L19 21 L19 21 L21 22 Z" fill="#444444" stroke="#222222" stroke-width="0.3"/>
<path d="M11 20 L13 20 L13 20 L13 20 L14 20 L14 20 L15 19 L15 19 L15 20 L16 21 L17 20 L18 20 L18 20 L16 21 L15 21 L15 22 L15 23 L14 23 L14 23 L14 23 L13 24 L14 24 L12 25 L11 25 L11 26 L10 26 L8 27 L7 26 L7 25 L7 25 L7 25 L6 24 L7 23 L6 23 L7 21 L8 22 L8 22 L8 21 L10 21 L10 20 L10 20 L11 20 Z" fill="#444444" stroke="#222222" stroke-width="0.3"/>
<path d="M12 20 L13 19 L13 19 L12 19 L12 18 L13 18 L14 17 L15 17 L14 17 L15 18 L15 18 L14 18 L14 18 L17 18 L17 19 L18 19 L18 20 L17 20 L16 21 L15 20 L15 19 L15 19 L14 20 L14 20 L13 20 L12 20 Z" fill="#444444" stroke="#222222" stroke-width="0.3"/>
<path d="M15 16 L15 16 L16 15 L17 16 L17 15 L18 15 L19 15 L22 15 L23 16 L21 17 L20 17 L19 17 L18 18 L17 18 L17 18 L17 18 L14 18 L14 18 L16 18 L17 17 L16 17 L15 17 L14 17 L15 16 L15 16 Z" fill="#444444" stroke="#222222" stroke-width="0.3"/>
<path d="M-0 16 L1 16 L2 17 L3 17 L3 16 L5 16 L6 16 L6 17 L6 17 L7 17 L8 18 L9 19 L11 19 L11 20 L11 20 L10 20 L10 20 L10 21 L8 22 L7 21 L7 21 L6 21 L5 20 L4 19 L2 19 L2 20 L1 20 L1 19 L0 18 L0 18 L-0 18 L0 17 L1 17 L2 17 L1 16 L0 16 L-0 17 L-0 16 Z" fill="#444444" stroke="#222222" stroke-width="0.3"/>
<path d="M-4 26 L-4 26 L-4 25 L-4 25 L-4 25 L-5 24 L-6 24 L-6 23 L-6 22 L-6 22 L-6 21 L-6 21 L-7 19 L-7 19 L-7 18 L-7 18 L-6 19 L-6 19 L-4 18 L-4 18 L-4 19 L-3 19 L-3 20 L-2 20 L-1 21 L1 20 L2 19 L3 19 L5 20 L6 21 L7 21 L7 21 L6 23 L7 23 L6 24 L7 25 L7 25 L7 25 L7 26 L7 27 L8 27 L8 28 L9 28 L9 29 L7 29 L7 30 L4 30 L3 29 L3 28 L2 29 L1 29 L-0 28 L-1 28 L-2 26 L-3 26 L-3 26 L-4 26 Z" fill="#444444" stroke="#222222" stroke-width="0.3"/>
<path d="M-14 24 L-14 23 L-13 23 L-14 22 L-14 22 L-14 22 L-13 21 L-13 20 L-11 21 L-9 20 L-10 21 L-10 22 L-13 24 L-14 24 Z" fill="#444444" stroke="#222222" stroke-width="0.3"/>
<path d="M-5 19 L-6 19 L-6 18 L-8 18 L-8 17 L-7 17 L-6 17 L-6 17 L-6 18 L-6 18 L-5 18 L-5 19 Z" fill="#444444" stroke="#222222" stroke-width="0.3"/>
<path d="M-7 20 L-7 20 L-8 20 L-11 21 L-13 20 L-13 21 L-14 21 L-14 21 L-14 21 L-15 20 L-16 21 L-17 21 L-17 21 L-18 21 L-19 21 L-19 21 L-20 21 L-21 21 L-22 19 L-21 19 L-22 18 L-21 17 L-20 17 L-19 17 L-18 17 L-16 16 L-15 16 L-12 17 L-10 17 L-9 17 L-8 17 L-8 17 L-8 18 L-7 18 L-7 18 L-7 19 L-7 19 L-7 20 Z M-22 16 L-21 16 L-20 16 L-20 16 L-20 17 L-20 17 L-21 17 L-22 18 L-22 17 L-22 17 L-22 16 Z" fill="#444444" stroke="#222222" stroke-width="0.3"/>
<path d="M77 85 L79 84 L79 85 L78 86 L78 86 L77 87 L77 87 L76 85 L76 84 L77 85 Z M60 77 L59 78 L58 79 L55 79 L54 80 L52 80 L51 79 L51 78 L52 78 L52 77 L51 75 L50 72 L50 73 L50 72 L50 72 L50 71 L50 70 L50 69 L50 69 L50 69 L51 69 L53 68 L53 68 L55 67 L56 67 L57 66 L57 65 L58 64 L58 65 L58 65 L58 64 L58 64 L59 64 L59 64 L60 62 L60 63 L60 62 L61 62 L62 63 L63 63 L63 63 L64 62 L64 62 L64 61 L64 61 L66 61 L66 60 L65 60 L65 60 L68 61 L69 61 L69 61 L69 62 L68 62 L68 62 L68 63 L72 65 L72 65 L73 64 L73 63 L73 61 L74 60 L75 61 L75 63 L75 62 L76 63 L76 64 L77 66 L79 68 L79 68 L80 69 L80 69 L80 69 L81 69 L81 70 L82 72 L82 73 L83 74 L82 77 L82 78 L81 78 L80 80 L80 82 L79 82 L79 82 L77 83 L76 82 L76 82 L75 83 L72 82 L72 82 L71 80 L71 80 L70 80 L70 80 L70 79 L70 80 L69 80 L70 78 L70 78 L69 79 L68 79 L68 79 L68 79 L67 78 L67 78 L65 77 L60 77 Z" fill="#444444" stroke="#222222" stroke-width="0.3"/>
<path d="M24 45 L24 45 L23 46 L22 45 L22 44 L22 43 L23 43 L24 45 Z" fill="#444444" stroke="#222222" stroke-width="0.3"/>
<path d="M47 36 L46 36 L46 35 L46 34 L48 34 L48 35 L47 35 L47 36 Z M23 16 L22 15 L23 15 L22 14 L24 13 L25 12 L27 12 L27 12 L27 11 L28 11 L29 10 L29 11 L31 11 L31 12 L31 13 L31 13 L33 14 L35 14 L36 16 L39 16 L43 17 L44 16 L46 16 L49 15 L48 14 L49 14 L50 14 L52 13 L53 12 L55 12 L55 12 L54 11 L53 11 L52 11 L52 11 L53 10 L53 10 L55 9 L55 9 L56 8 L56 8 L55 7 L56 7 L57 7 L58 7 L60 7 L62 10 L63 10 L64 11 L64 11 L66 11 L68 11 L66 14 L65 13 L64 14 L65 14 L64 15 L64 15 L64 16 L63 15 L63 16 L62 16 L62 17 L61 16 L59 18 L56 19 L57 18 L56 18 L57 17 L57 17 L55 18 L54 18 L54 18 L53 19 L54 19 L54 20 L54 20 L55 20 L56 20 L57 20 L57 20 L56 21 L55 22 L55 22 L57 25 L57 25 L56 25 L56 26 L57 26 L57 28 L56 28 L54 31 L52 32 L51 32 L50 32 L50 32 L50 33 L48 33 L47 34 L47 34 L47 33 L47 33 L45 33 L44 32 L44 32 L43 32 L42 32 L41 32 L40 32 L40 33 L40 33 L40 33 L39 33 L38 33 L38 32 L38 32 L38 31 L37 31 L37 30 L38 29 L38 28 L37 27 L36 27 L36 27 L36 27 L35 27 L34 27 L33 28 L32 28 L31 27 L30 28 L30 28 L29 28 L27 28 L26 27 L26 27 L24 26 L24 26 L23 26 L21 25 L21 24 L22 24 L22 24 L21 23 L21 22 L21 22 L19 21 L19 21 L18 20 L18 19 L17 19 L17 18 L17 18 L17 18 L18 18 L19 17 L20 17 L21 17 L23 16 Z" fill="#444444" stroke="#222222" stroke-width="0.3"/>
<path d="M57 30 L56 32 L56 33 L55 31 L56 30 L57 30 Z" fill="#444444" stroke="#222222" stroke-width="0.3"/>
<path d="M-5 16 L-4 17 L-4 16 L-3 17 L-2 18 L-3 18 L-3 19 L-4 19 L-4 18 L-4 18 L-5 19 L-5 18 L-6 18 L-6 18 L-7 17 L-5 17 L-6 16 L-5 16 Z M-6 19 L-6 19 L-7 18 L-6 18 L-6 19 Z" fill="#444444" stroke="#222222" stroke-width="0.3"/>
<path d="M-11 15 L-9 15 L-7 16 L-6 16 L-5 16 L-6 16 L-5 17 L-6 17 L-8 17 L-8 17 L-9 17 L-9 16 L-11 15 Z" fill="#444444" stroke="#222222" stroke-width="0.3"/>
<path d="M56 41 L56 40 L56 40 L56 40 L56 41 Z M57 43 L58 42 L58 42 L58 42 L59 41 L59 42 L58 43 L57 43 Z M60 43 L61 45 L60 46 L60 45 L60 45 L60 46 L60 46 L59 46 L58 45 L59 45 L58 44 L57 45 L57 45 L57 44 L58 44 L58 44 L59 44 L59 43 L60 43 L60 43 L60 43 Z M55 42 L53 44 L55 41 L55 42 Z M57 36 L57 36 L57 37 L57 37 L57 38 L57 39 L57 39 L58 39 L59 40 L58 40 L57 40 L57 39 L56 39 L56 39 L56 39 L56 39 L55 38 L55 37 L55 38 L56 36 L57 36 L57 36 Z M57 42 L57 41 L58 41 L58 42 L57 42 Z M60 40 L60 42 L59 41 L60 42 L59 42 L59 42 L59 42 L59 41 L59 41 L59 41 L59 40 L60 40 Z" fill="#444444" stroke="#222222" stroke-width="0.3"/>
<path d="M39 46 L39 45 L40 46 L40 46 L40 46 L41 46 L41 46 L42 47 L42 48 L42 50 L42 50 L40 48 L39 46 Z M53 47 L52 47 L51 50 L50 50 L49 50 L48 50 L47 50 L47 50 L47 49 L47 49 L48 49 L48 49 L49 48 L50 47 L51 47 L51 47 L51 47 L51 46 L53 45 L53 45 L53 46 L55 46 L55 47 L54 47 L54 47 L53 47 Z" fill="#444444" stroke="#222222" stroke-width="0.3"/>
<path d="M51 46 L51 47 L51 47 L51 47 L50 47 L51 46 Z" fill="#444444" stroke="#222222" stroke-width="0.3"/>
<path d="M73 18 L72 19 L73 20 L72 21 L72 21 L72 22 L71 22 L69 22 L68 23 L68 23 L68 22 L64 23 L65 23 L65 25 L64 25 L64 25 L64 24 L63 24 L63 23 L64 23 L66 22 L67 21 L68 22 L69 20 L70 20 L71 19 L72 18 L72 17 L72 17 L73 17 L73 18 L73 18 Z M76 15 L76 14 L76 15 L75 15 L74 16 L73 16 L73 17 L72 17 L72 16 L72 15 L73 15 L73 13 L74 14 L76 15 Z M65 23 L66 23 L66 23 L67 22 L67 23 L67 23 L67 23 L67 23 L66 23 L66 24 L65 24 L65 23 Z" fill="#444444" stroke="#222222" stroke-width="0.3"/>
<path d="M-1 35 L0 37 L-0 37 L-1 38 L-3 39 L-3 39 L-6 40 L-6 40 L-8 40 L-8 38 L-8 36 L-7 36 L-5 37 L-5 37 L-4 37 L-4 36 L-3 35 L-1 35 Z" fill="#444444" stroke="#222222" stroke-width="0.3"/>
<path d="M-15 27 L-14 27 L-13 26 L-13 26 L-12 26 L-13 25 L-11 24 L-9 25 L-7 27 L-4 27 L-4 27 L-4 27 L-3 28 L-2 29 L-2 30 L-2 30 L-1 30 L-1 32 L2 32 L2 32 L2 33 L2 34 L-1 35 L-3 35 L-4 36 L-4 37 L-5 37 L-5 37 L-7 36 L-8 36 L-8 37 L-8 37 L-10 35 L-11 34 L-11 33 L-11 32 L-12 31 L-13 31 L-13 30 L-15 28 L-15 28 L-15 27 Z" fill="#444444" stroke="#222222" stroke-width="0.3"/>
<path d="M-17 22 L-16 22 L-15 21 L-16 22 L-17 22 Z" fill="#444444" stroke="#222222" stroke-width="0.3"/>
<path d="M-17 22 L-16 22 L-16 22 L-16 22 L-17 22 Z" fill="#444444" stroke="#222222" stroke-width="0.3"/>
</svg>