<svg xmlns="http://www.w3.org/2000/svg" viewBox="0 0 80 80" width="80" height="80">
<path d="M-159 -258 L-163 -254 L-167 -254 L-167 -249 L-170 -246 L-180 -248 L-184 -239 L-196 -236 L-192 -227 L-195 -225 L-195 -222 L-201 -225 L-219 -225 L-226 -227 L-229 -226 L-230 -223 L-241 -224 L-243 -222 L-252 -217 L-255 -214 L-256 -214 L-258 -216 L-264 -216 L-265 -221 L-268 -221 L-268 -226 L-274 -229 L-288 -228 L-293 -233 L-306 -239 L-320 -236 L-319 -217 L-322 -217 L-329 -222 L-337 -219 L-337 -225 L-343 -226 L-348 -234 L-343 -233 L-343 -237 L-334 -237 L-334 -245 L-344 -246 L-355 -243 L-357 -244 L-357 -247 L-360 -250 L-364 -250 L-368 -253 L-362 -264 L-357 -261 L-357 -265 L-346 -270 L-338 -270 L-321 -265 L-315 -267 L-307 -267 L-301 -264 L-299 -266 L-292 -266 L-291 -268 L-299 -272 L-294 -274 L-295 -275 L-290 -277 L-294 -280 L-291 -282 L-272 -284 L-252 -289 L-243 -288 L-241 -283 L-236 -284 L-230 -282 L-230 -279 L-225 -280 L-212 -285 L-214 -283 L-208 -279 L-196 -266 L-193 -269 L-186 -266 L-179 -267 L-168 -260 L-161 -261 L-159 -258 Z" fill="#444444" stroke="#222222" stroke-width="0.3"/>
<path d="M-319 -217 L-320 -236 L-306 -239 L-293 -233 L-288 -228 L-274 -229 L-268 -226 L-268 -221 L-265 -221 L-264 -216 L-258 -216 L-256 -214 L-255 -214 L-252 -217 L-243 -222 L-241 -221 L-245 -218 L-242 -216 L-238 -217 L-232 -215 L-238 -211 L-244 -211 L-244 -215 L-251 -214 L-255 -208 L-259 -208 L-261 -206 L-257 -205 L-256 -201 L-259 -196 L-265 -197 L-265 -200 L-277 -205 L-287 -211 L-289 -216 L-296 -217 L-298 -218 L-299 -222 L-306 -224 L-314 -220 L-314 -217 L-319 -217 Z" fill="#444444" stroke="#222222" stroke-width="0.3"/>
<path d="M116 8 L134 14 L141 19 L142 22 L150 26 L151 28 L147 29 L148 32 L152 36 L156 41 L159 41 L158 43 L166 47 L166 49 L151 46 L145 40 L142 36 L135 34 L128 37 L128 40 L124 42 L116 41 L116 8 Z M176 13 L178 17 L177 19 L174 14 L165 8 L167 7 L176 13 Z M172 23 L161 27 L154 24 L154 22 L161 23 L163 20 L163 23 L166 22 L171 19 L170 16 L173 16 L174 19 L172 23 Z M185 21 L193 28 L192 29 L189 28 L185 21 Z" fill="#444444" stroke="#222222" stroke-width="0.3"/>
<path d="M116 8 L116 41 L112 37 L106 36 L105 37 L99 38 L101 33 L104 32 L100 22 L86 17 L78 13 L75 16 L74 11 L70 9 L79 7 L79 6 L71 6 L69 3 L65 2 L62 -1 L72 -4 L80 -2 L82 9 L88 12 L92 6 L98 3 L102 3 L116 8 Z M34 40 L35 43 L31 46 L26 47 L29 42 L34 40 Z M81 30 L81 26 L83 22 L84 26 L81 30 Z M-2 -27 L-5 -22 L-1 -17 L-2 -15 L3 -10 L-3 -10 L-4 -6 L-4 -1 L-9 2 L-11 15 L-12 13 L-18 15 L-20 12 L-26 10 L-32 12 L-34 10 L-42 9 L-42 3 L-47 -3 L-48 -8 L-47 -12 L-44 -16 L-44 -12 L-40 -10 L-34 -10 L-28 -13 L-23 -12 L-19 -13 L-13 -28 L-2 -27 Z M50 9 L62 10 L64 14 L60 12 L49 12 L50 9 Z M44 14 L40 13 L39 11 L44 10 L46 12 L44 14 Z M49 -17 L49 -14 L53 -13 L53 -11 L53 -7 L50 -7 L49 -4 L51 -2 L50 -1 L46 -11 L49 -17 Z M13 -12 L29 -10 L34 -14 L35 -13 L31 -8 L27 -7 L9 -7 L9 -3 L13 2 L16 -1 L26 -2 L25 -0 L23 -1 L21 2 L16 4 L21 11 L20 13 L25 18 L25 22 L22 23 L20 22 L22 17 L17 19 L16 18 L17 16 L13 13 L13 8 L10 9 L11 23 L7 24 L5 22 L7 17 L6 12 L4 12 L2 9 L8 -6 L13 -12 Z M12 47 L3 43 L8 42 L12 46 L12 47 Z M12 37 L19 38 L23 36 L23 39 L8 40 L8 38 L12 37 Z M-2 36 L3 37 L4 39 L-8 41 L-6 38 L-4 38 L-2 36 Z M-50 27 L-50 29 L-40 30 L-39 28 L-29 30 L-27 33 L-20 34 L-13 37 L-19 39 L-25 37 L-52 34 L-61 32 L-62 30 L-66 30 L-63 25 L-50 27 Z M-72 0 L-69 6 L-65 7 L-63 10 L-64 24 L-70 25 L-81 16 L-98 -6 L-101 -15 L-118 -31 L-118 -34 L-107 -32 L-91 -16 L-85 -16 L-81 -13 L-78 -8 L-74 -6 L-76 -2 L-72 0 Z" fill="#444444" stroke="#222222" stroke-width="0.3"/>
<path d="M34 40 L39 38 L46 37 L35 43 L34 40 Z" fill="#cc3333" stroke="#222222" stroke-width="0.3"/>
<path d="M-423 -176 L-424 -171 L-426 -172 L-427 -169 L-426 -168 L-427 -166 L-425 -167 L-425 -165 L-427 -157 L-430 -165 L-426 -175 L-423 -176 Z" fill="#444444" stroke="#222222" stroke-width="0.3"/>
<path d="M-423 -176 L-426 -175 L-422 -183 L-419 -183 L-418 -181 L-423 -176 Z" fill="#444444" stroke="#222222" stroke-width="0.3"/>
<path d="M-425 -167 L-427 -166 L-426 -168 L-427 -169 L-426 -172 L-424 -171 L-425 -167 Z" fill="#444444" stroke="#222222" stroke-width="0.3"/>
<path d="M-427 -157 L-423 -173 L-417 -171 L-407 -176 L-405 -170 L-416 -167 L-411 -162 L-421 -155 L-427 -157 Z" fill="#444444" stroke="#222222" stroke-width="0.3"/>
<path d="M-342 -130 L-341 -129 L-329 -129 L-319 -139 L-318 -137 L-317 -133 L-320 -133 L-319 -129 L-322 -128 L-324 -121 L-340 -123 L-342 -130 Z" fill="#444444" stroke="#222222" stroke-width="0.3"/>
<path d="M-346 -132 L-346 -136 L-343 -139 L-342 -135 L-343 -132 L-346 -132 Z" fill="#444444" stroke="#222222" stroke-width="0.3"/>
<path d="M-360 -159 L-358 -152 L-362 -152 L-363 -154 L-367 -155 L-364 -159 L-360 -159 Z" fill="#444444" stroke="#222222" stroke-width="0.3"/>
<path d="M-405 -170 L-407 -176 L-396 -182 L-395 -192 L-387 -197 L-379 -195 L-377 -196 L-373 -190 L-370 -188 L-370 -185 L-372 -183 L-373 -179 L-370 -175 L-364 -172 L-361 -168 L-362 -164 L-360 -164 L-360 -161 L-357 -159 L-364 -159 L-367 -155 L-377 -155 L-391 -165 L-405 -170 Z" fill="#444444" stroke="#222222" stroke-width="0.3"/>
<path d="M-323 -122 L-322 -128 L-319 -129 L-320 -133 L-317 -133 L-312 -128 L-305 -126 L-300 -120 L-306 -110 L-310 -109 L-311 -103 L-316 -101 L-318 -97 L-321 -97 L-325 -92 L-334 -91 L-340 -103 L-324 -108 L-321 -118 L-323 -122 Z M-318 -137 L-319 -139 L-317 -141 L-317 -140 L-318 -137 Z" fill="#444444" stroke="#222222" stroke-width="0.3"/>
<path d="M-81 -68 L-82 -74 L-79 -78 L-72 -79 L-63 -77 L-61 -80 L-56 -78 L-55 -75 L-56 -69 L-64 -65 L-62 -62 L-72 -59 L-76 -60 L-81 -68 Z" fill="#444444" stroke="#222222" stroke-width="0.3"/>
<path d="M-67 -79 L-79 -78 L-82 -74 L-81 -68 L-85 -70 L-90 -70 L-89 -74 L-93 -74 L-94 -69 L-98 -57 L-98 -53 L-95 -53 L-92 -44 L-83 -37 L-85 -35 L-88 -35 L-88 -37 L-93 -40 L-93 -39 L-102 -48 L-102 -45 L-103 -48 L-101 -56 L-96 -66 L-99 -76 L-103 -83 L-100 -88 L-107 -100 L-105 -101 L-103 -106 L-99 -107 L-93 -110 L-91 -109 L-91 -105 L-87 -105 L-88 -95 L-83 -98 L-79 -98 L-78 -99 L-74 -99 L-70 -95 L-69 -90 L-65 -85 L-67 -79 Z" fill="#444444" stroke="#222222" stroke-width="0.3"/>
<path d="M-56 -78 L-61 -80 L-63 -77 L-67 -79 L-65 -85 L-69 -90 L-70 -95 L-74 -99 L-78 -99 L-79 -98 L-83 -98 L-88 -95 L-87 -105 L-91 -105 L-91 -109 L-93 -110 L-88 -115 L-85 -114 L-85 -120 L-83 -121 L-78 -112 L-71 -112 L-69 -107 L-74 -104 L-68 -101 L-56 -87 L-55 -83 L-56 -78 Z" fill="#444444" stroke="#222222" stroke-width="0.3"/>
<path d="M-88 -115 L-99 -107 L-103 -106 L-105 -101 L-107 -100 L-100 -88 L-103 -83 L-99 -76 L-96 -66 L-101 -56 L-100 -64 L-102 -67 L-102 -73 L-104 -75 L-108 -92 L-118 -86 L-124 -88 L-122 -94 L-123 -99 L-127 -105 L-126 -107 L-129 -107 L-133 -111 L-133 -116 L-132 -115 L-131 -118 L-129 -120 L-128 -129 L-124 -128 L-119 -139 L-119 -142 L-112 -145 L-109 -144 L-108 -150 L-105 -151 L-101 -146 L-101 -138 L-106 -134 L-106 -128 L-101 -129 L-100 -124 L-96 -123 L-98 -119 L-92 -116 L-88 -117 L-88 -115 Z" fill="#444444" stroke="#222222" stroke-width="0.3"/>
<path d="M-72 -59 L-62 -62 L-64 -65 L-56 -69 L-55 -83 L-56 -87 L-68 -101 L-74 -104 L-69 -107 L-71 -112 L-78 -112 L-83 -121 L-71 -122 L-67 -125 L-59 -122 L-60 -119 L-58 -117 L-53 -116 L-60 -112 L-65 -103 L-56 -91 L-48 -84 L-46 -74 L-47 -65 L-67 -50 L-69 -53 L-68 -56 L-72 -59 Z" fill="#444444" stroke="#222222" stroke-width="0.3"/>
<path d="M64 -222 L64 -222 L64 -222 L64 -222 Z M60 -226 L64 -222 L62 -222 L58 -219 L58 -215 L47 -209 L46 -206 L51 -203 L51 -202 L36 -198 L33 -201 L36 -207 L30 -210 L35 -213 L44 -220 L51 -218 L50 -221 L58 -223 L60 -226 Z" fill="#444444" stroke="#222222" stroke-width="0.3"/>
<path d="M40 -199 L51 -203 L57 -194 L57 -188 L55 -185 L42 -182 L42 -188 L40 -194 L44 -194 L40 -199 Z" fill="#444444" stroke="#222222" stroke-width="0.3"/>
<path d="M-157 -258 L-134 -266 L-124 -264 L-120 -262 L-108 -260 L-103 -264 L-105 -267 L-100 -272 L-83 -268 L-82 -264 L-75 -262 L-59 -263 L-51 -258 L-39 -257 L-28 -259 L-20 -263 L-15 -261 L-9 -261 L-15 -252 L-13 -250 L-5 -250 L-1 -252 L7 -246 L7 -245 L-5 -245 L-12 -240 L-25 -235 L-33 -236 L-36 -233 L-33 -230 L-41 -225 L-63 -221 L-68 -219 L-90 -224 L-113 -224 L-118 -232 L-127 -236 L-140 -237 L-142 -240 L-140 -246 L-144 -250 L-155 -254 L-157 -258 Z" fill="#444444" stroke="#222222" stroke-width="0.3"/>
<path d="M-108 -150 L-109 -144 L-112 -145 L-119 -142 L-119 -139 L-124 -128 L-128 -129 L-129 -120 L-131 -118 L-134 -127 L-136 -127 L-136 -123 L-139 -126 L-133 -133 L-146 -135 L-146 -138 L-152 -141 L-154 -137 L-151 -135 L-155 -131 L-152 -130 L-153 -127 L-150 -118 L-151 -117 L-161 -116 L-160 -112 L-163 -109 L-170 -105 L-185 -93 L-185 -90 L-195 -87 L-196 -83 L-195 -72 L-197 -67 L-197 -59 L-200 -58 L-202 -54 L-200 -53 L-205 -51 L-209 -46 L-214 -51 L-218 -63 L-223 -71 L-225 -80 L-229 -87 L-234 -115 L-242 -112 L-245 -112 L-252 -119 L-249 -121 L-251 -123 L-257 -127 L-253 -130 L-242 -130 L-247 -141 L-250 -143 L-244 -149 L-238 -148 L-225 -164 L-225 -168 L-221 -171 L-225 -173 L-228 -181 L-226 -183 L-212 -183 L-207 -187 L-202 -181 L-202 -177 L-200 -174 L-201 -172 L-204 -173 L-203 -167 L-191 -160 L-194 -158 L-196 -153 L-179 -146 L-172 -145 L-169 -142 L-155 -141 L-155 -148 L-152 -149 L-151 -144 L-146 -142 L-135 -143 L-134 -146 L-136 -148 L-132 -148 L-122 -155 L-117 -154 L-114 -156 L-111 -153 L-113 -151 L-108 -150 Z" fill="#444444" stroke="#222222" stroke-width="0.3"/>
<path d="M-134 -127 L-132 -115 L-133 -116 L-133 -111 L-138 -122 L-143 -122 L-144 -117 L-150 -118 L-153 -127 L-152 -130 L-155 -131 L-151 -135 L-154 -137 L-152 -141 L-146 -138 L-146 -135 L-133 -133 L-139 -126 L-136 -123 L-136 -127 L-134 -127 Z" fill="#444444" stroke="#222222" stroke-width="0.3"/>
<path d="M-145 -150 L-134 -146 L-135 -143 L-146 -142 L-151 -144 L-148 -149 L-145 -150 Z" fill="#444444" stroke="#222222" stroke-width="0.3"/>
<path d="M-155 -148 L-155 -141 L-159 -141 L-169 -142 L-172 -145 L-179 -146 L-196 -153 L-194 -158 L-189 -161 L-166 -150 L-155 -148 Z" fill="#444444" stroke="#222222" stroke-width="0.3"/>
<path d="M-207 -187 L-212 -183 L-226 -183 L-228 -181 L-225 -173 L-221 -171 L-225 -168 L-225 -164 L-238 -148 L-244 -149 L-250 -143 L-247 -141 L-242 -130 L-253 -130 L-257 -127 L-261 -128 L-266 -136 L-291 -134 L-289 -140 L-282 -143 L-282 -145 L-285 -146 L-285 -150 L-290 -152 L-294 -158 L-286 -156 L-273 -156 L-266 -159 L-266 -163 L-263 -166 L-251 -169 L-251 -172 L-249 -175 L-246 -176 L-248 -180 L-243 -180 L-239 -186 L-241 -190 L-238 -192 L-221 -196 L-217 -193 L-216 -189 L-207 -187 Z" fill="#444444" stroke="#222222" stroke-width="0.3"/>
<path d="M-269 -198 L-257 -195 L-253 -197 L-252 -196 L-250 -198 L-247 -198 L-243 -203 L-241 -201 L-240 -195 L-238 -194 L-231 -198 L-222 -197 L-221 -196 L-238 -192 L-241 -190 L-239 -186 L-243 -180 L-248 -180 L-246 -176 L-249 -175 L-251 -172 L-251 -169 L-263 -166 L-266 -163 L-266 -159 L-273 -156 L-286 -156 L-294 -158 L-290 -163 L-290 -166 L-294 -167 L-296 -174 L-294 -177 L-296 -178 L-293 -188 L-287 -186 L-283 -187 L-282 -189 L-275 -191 L-274 -196 L-270 -197 L-269 -198 Z" fill="#444444" stroke="#222222" stroke-width="0.3"/>
<path d="M-259 -196 L-256 -201 L-257 -205 L-261 -206 L-259 -208 L-255 -208 L-251 -214 L-244 -215 L-245 -213 L-242 -212 L-244 -210 L-250 -211 L-250 -208 L-229 -207 L-227 -203 L-223 -202 L-222 -197 L-231 -198 L-238 -194 L-240 -195 L-241 -201 L-243 -203 L-247 -198 L-250 -198 L-252 -196 L-259 -196 Z" fill="#444444" stroke="#222222" stroke-width="0.3"/>
<path d="M-243 -222 L-241 -224 L-238 -225 L-230 -223 L-229 -226 L-226 -227 L-219 -225 L-201 -225 L-195 -222 L-206 -216 L-212 -216 L-214 -213 L-223 -212 L-228 -210 L-227 -209 L-229 -207 L-250 -208 L-250 -211 L-238 -211 L-232 -215 L-238 -217 L-242 -216 L-245 -218 L-241 -221 L-243 -222 Z" fill="#444444" stroke="#222222" stroke-width="0.3"/>
<path d="M-337 -219 L-329 -222 L-322 -217 L-314 -217 L-314 -220 L-306 -224 L-299 -222 L-298 -218 L-296 -217 L-289 -216 L-287 -211 L-277 -205 L-265 -200 L-265 -197 L-269 -198 L-270 -197 L-274 -196 L-275 -191 L-287 -186 L-293 -188 L-293 -192 L-297 -193 L-303 -197 L-312 -200 L-322 -200 L-325 -197 L-330 -196 L-330 -205 L-334 -207 L-333 -210 L-336 -211 L-335 -215 L-330 -214 L-326 -215 L-331 -221 L-335 -220 L-336 -216 L-337 -219 Z" fill="#444444" stroke="#222222" stroke-width="0.3"/>
<path d="M-357 -159 L-360 -161 L-360 -164 L-362 -164 L-361 -168 L-364 -172 L-370 -175 L-373 -179 L-372 -183 L-370 -185 L-370 -188 L-373 -190 L-379 -200 L-378 -202 L-380 -207 L-377 -209 L-373 -205 L-370 -204 L-360 -208 L-358 -207 L-360 -204 L-356 -202 L-354 -198 L-346 -194 L-338 -193 L-330 -195 L-322 -200 L-316 -201 L-303 -197 L-297 -193 L-293 -192 L-293 -188 L-296 -178 L-294 -177 L-296 -174 L-294 -167 L-290 -166 L-290 -163 L-294 -158 L-290 -152 L-285 -150 L-285 -146 L-282 -145 L-282 -143 L-289 -140 L-291 -134 L-312 -137 L-314 -144 L-317 -145 L-326 -141 L-332 -143 L-337 -147 L-342 -148 L-349 -160 L-352 -159 L-355 -161 L-357 -159 Z" fill="#444444" stroke="#222222" stroke-width="0.3"/>
<path d="M-423 -173 L-421 -179 L-418 -181 L-419 -183 L-422 -183 L-422 -187 L-418 -191 L-418 -194 L-404 -194 L-389 -196 L-395 -192 L-396 -182 L-417 -171 L-423 -173 Z" fill="#444444" stroke="#222222" stroke-width="0.3"/>
<path d="M-368 -204 L-370 -204 L-372 -208 L-382 -212 L-383 -216 L-376 -217 L-373 -215 L-374 -213 L-371 -211 L-372 -210 L-368 -208 L-368 -204 Z" fill="#444444" stroke="#222222" stroke-width="0.3"/>
<path d="M-377 -196 L-379 -195 L-387 -197 L-404 -194 L-418 -194 L-418 -191 L-421 -189 L-423 -191 L-421 -193 L-428 -194 L-432 -191 L-439 -190 L-444 -193 L-449 -193 L-450 -191 L-454 -191 L-459 -193 L-464 -193 L-471 -201 L-469 -205 L-472 -208 L-466 -213 L-458 -213 L-456 -217 L-446 -216 L-434 -221 L-426 -221 L-410 -215 L-399 -216 L-393 -218 L-388 -218 L-383 -216 L-382 -212 L-377 -209 L-380 -207 L-378 -202 L-379 -200 L-377 -196 Z M-472 -220 L-467 -221 L-463 -221 L-462 -219 L-458 -217 L-458 -216 L-465 -215 L-471 -211 L-473 -215 L-470 -218 L-472 -220 Z" fill="#444444" stroke="#222222" stroke-width="0.3"/>
<path d="M143 205 L153 204 L154 210 L151 216 L150 214 L146 218 L142 217 L135 205 L135 203 L143 205 Z M40 159 L30 163 L27 168 L8 168 L-2 174 L-9 174 L-17 170 L-17 167 L-13 165 L-13 159 L-17 145 L-26 128 L-23 130 L-25 126 L-21 129 L-25 119 L-23 113 L-24 110 L-21 106 L-21 110 L-19 106 L-8 100 L-5 101 L5 97 L13 95 L20 88 L20 83 L24 78 L26 83 L28 82 L26 79 L28 77 L30 78 L31 74 L38 67 L40 68 L40 67 L45 65 L51 71 L58 71 L57 68 L61 63 L61 62 L63 59 L66 57 L73 56 L73 54 L69 52 L72 51 L87 57 L93 55 L95 58 L92 63 L90 63 L91 65 L88 71 L112 85 L115 83 L117 78 L120 71 L120 58 L124 49 L129 60 L131 69 L134 67 L138 71 L139 78 L144 92 L156 99 L156 100 L160 109 L163 108 L165 110 L166 109 L167 115 L177 124 L178 134 L180 138 L177 156 L175 161 L171 164 L164 177 L162 186 L159 188 L153 188 L143 194 L136 191 L137 188 L129 193 L114 189 L111 186 L109 179 L106 177 L101 177 L103 174 L102 171 L99 174 L95 175 L100 167 L100 163 L92 169 L90 173 L86 171 L87 168 L81 163 L82 161 L66 156 L40 159 Z" fill="#444444" stroke="#222222" stroke-width="0.3"/>
<path d="M-187 -44 L-188 -39 L-195 -36 L-197 -40 L-198 -48 L-196 -56 L-192 -53 L-187 -44 Z" fill="#444444" stroke="#222222" stroke-width="0.3"/>
<path d="M-45 -99 L-50 -100 L-50 -105 L-47 -107 L-39 -108 L-38 -106 L-41 -101 L-45 -99 Z M-195 -222 L-195 -225 L-192 -227 L-196 -236 L-184 -239 L-180 -248 L-170 -246 L-167 -249 L-167 -254 L-163 -254 L-157 -258 L-155 -254 L-144 -250 L-140 -246 L-142 -240 L-140 -237 L-127 -236 L-118 -232 L-113 -224 L-90 -224 L-68 -219 L-63 -221 L-47 -223 L-33 -230 L-36 -233 L-33 -236 L-25 -235 L-12 -240 L-5 -245 L7 -245 L7 -246 L-1 -252 L-5 -250 L-13 -250 L-15 -252 L-9 -261 L-2 -259 L5 -262 L5 -265 L12 -272 L12 -274 L9 -276 L14 -278 L20 -279 L27 -279 L39 -276 L48 -260 L57 -259 L63 -255 L65 -250 L73 -250 L85 -254 L76 -237 L69 -238 L65 -236 L66 -231 L66 -225 L63 -225 L63 -223 L60 -226 L58 -223 L50 -221 L51 -218 L44 -220 L30 -210 L14 -205 L17 -207 L16 -209 L20 -213 L17 -215 L7 -210 L3 -207 L-2 -206 L-4 -204 L-1 -200 L3 -200 L3 -197 L7 -196 L13 -199 L21 -197 L21 -195 L14 -193 L4 -184 L10 -181 L18 -168 L18 -164 L15 -163 L16 -160 L19 -158 L17 -150 L14 -150 L2 -131 L-13 -122 L-18 -122 L-21 -119 L-23 -121 L-26 -118 L-39 -115 L-40 -110 L-43 -109 L-45 -113 L-43 -115 L-58 -117 L-60 -119 L-59 -122 L-67 -125 L-71 -122 L-80 -122 L-85 -120 L-85 -114 L-87 -114 L-88 -117 L-92 -116 L-98 -119 L-96 -123 L-100 -124 L-101 -129 L-106 -128 L-106 -134 L-101 -138 L-101 -146 L-105 -151 L-113 -151 L-111 -153 L-114 -156 L-117 -154 L-122 -155 L-132 -148 L-136 -148 L-145 -150 L-151 -145 L-152 -149 L-155 -148 L-166 -150 L-175 -153 L-176 -156 L-184 -160 L-189 -161 L-191 -160 L-203 -167 L-204 -173 L-201 -172 L-200 -174 L-202 -177 L-202 -181 L-207 -187 L-216 -189 L-217 -193 L-222 -197 L-223 -202 L-227 -203 L-229 -207 L-227 -209 L-228 -210 L-223 -212 L-214 -213 L-212 -216 L-206 -216 L-195 -222 Z" fill="#444444" stroke="#222222" stroke-width="0.3"/>
<path d="M18 -134 L15 -122 L12 -118 L9 -126 L16 -135 L18 -134 Z" fill="#444444" stroke="#222222" stroke-width="0.3"/>
<path d="M-368 -220 L-361 -216 L-357 -220 L-352 -213 L-348 -212 L-352 -211 L-356 -202 L-360 -204 L-358 -207 L-360 -208 L-368 -204 L-368 -208 L-372 -210 L-371 -211 L-376 -217 L-368 -216 L-370 -219 L-368 -220 Z M-370 -204 L-373 -205 L-377 -209 L-372 -208 L-370 -204 Z" fill="#444444" stroke="#222222" stroke-width="0.3"/>
<path d="M-401 -228 L-389 -227 L-381 -223 L-373 -223 L-368 -220 L-370 -219 L-367 -216 L-374 -218 L-383 -216 L-388 -218 L-393 -218 L-394 -224 L-401 -228 Z" fill="#444444" stroke="#222222" stroke-width="0.3"/>
<path d="M15 -68 L10 -75 L15 -74 L16 -72 L15 -68 Z M21 -55 L24 -61 L26 -62 L26 -58 L29 -63 L29 -58 L24 -52 L21 -55 Z M40 -53 L42 -42 L40 -38 L38 -43 L36 -40 L38 -37 L36 -34 L30 -37 L29 -41 L30 -43 L27 -46 L19 -41 L18 -42 L20 -47 L26 -50 L28 -48 L32 -49 L33 -51 L37 -52 L36 -56 L40 -53 Z M7 -60 L-6 -48 L6 -64 L7 -60 Z M20 -100 L20 -97 L21 -93 L20 -89 L17 -87 L17 -79 L22 -79 L29 -76 L29 -70 L23 -75 L22 -73 L19 -76 L12 -77 L14 -80 L12 -81 L11 -79 L8 -84 L8 -89 L10 -88 L12 -100 L18 -99 L20 -100 Z M19 -59 L18 -66 L24 -65 L24 -63 L19 -59 Z M35 -70 L38 -62 L34 -63 L36 -59 L33 -57 L33 -61 L31 -61 L31 -64 L34 -64 L33 -66 L30 -70 L35 -70 Z" fill="#444444" stroke="#222222" stroke-width="0.3"/>
<path d="M-93 -33 L-93 -40 L-88 -37 L-88 -35 L-85 -35 L-83 -37 L-79 -34 L-77 -30 L-76 -20 L-72 -12 L-76 -12 L-87 -20 L-93 -33 Z M-2 -27 L-13 -28 L-19 -13 L-23 -12 L-28 -13 L-34 -10 L-40 -10 L-44 -12 L-44 -16 L-41 -14 L-37 -15 L-36 -19 L-27 -21 L-21 -29 L-19 -26 L-18 -28 L-15 -28 L-15 -33 L-8 -41 L-6 -41 L-3 -36 L4 -33 L4 -31 L1 -31 L1 -28 L-2 -27 Z" fill="#444444" stroke="#222222" stroke-width="0.3"/>
<path d="M-15 -33 L-15 -28 L-18 -28 L-19 -26 L-21 -29 L-15 -33 Z" fill="#444444" stroke="#222222" stroke-width="0.3"/>
<path d="M121 -206 L116 -201 L116 -196 L114 -192 L115 -189 L112 -185 L106 -183 L97 -183 L89 -177 L86 -179 L86 -183 L65 -179 L70 -175 L67 -167 L63 -164 L61 -166 L62 -171 L59 -173 L57 -176 L62 -178 L73 -187 L83 -189 L89 -187 L94 -197 L98 -194 L108 -201 L111 -207 L110 -213 L112 -216 L118 -217 L121 -210 L121 -206 Z M135 -231 L138 -233 L139 -227 L132 -226 L127 -221 L119 -224 L116 -218 L111 -218 L110 -223 L113 -227 L118 -228 L121 -239 L127 -233 L135 -231 Z M72 -177 L75 -180 L78 -179 L80 -182 L83 -180 L84 -179 L81 -176 L79 -177 L76 -176 L75 -173 L72 -174 L72 -177 Z" fill="#444444" stroke="#222222" stroke-width="0.3"/>
<path d="M-340 -103 L-334 -91 L-338 -89 L-339 -85 L-352 -81 L-357 -77 L-372 -74 L-376 -71 L-383 -70 L-388 -83 L-384 -96 L-382 -94 L-367 -94 L-365 -92 L-363 -93 L-359 -99 L-354 -101 L-340 -103 Z" fill="#444444" stroke="#222222" stroke-width="0.3"/>
<path d="M-427 -156 L-421 -155 L-418 -158 L-414 -159 L-411 -162 L-416 -167 L-405 -170 L-391 -165 L-377 -155 L-363 -154 L-362 -152 L-358 -152 L-356 -147 L-349 -142 L-349 -137 L-346 -132 L-343 -132 L-340 -123 L-324 -121 L-323 -122 L-321 -118 L-324 -108 L-340 -103 L-354 -101 L-359 -99 L-363 -93 L-365 -92 L-367 -94 L-382 -94 L-384 -96 L-385 -91 L-387 -89 L-396 -105 L-402 -110 L-406 -115 L-406 -121 L-409 -127 L-414 -130 L-417 -137 L-426 -149 L-429 -149 L-427 -156 Z" fill="#444444" stroke="#222222" stroke-width="0.3"/>
<path d="M-438 -185 L-437 -187 L-429 -188 L-432 -185 L-438 -185 Z" fill="#444444" stroke="#222222" stroke-width="0.3"/>
<path d="M-441 -185 L-435 -186 L-432 -185 L-437 -183 L-441 -185 Z" fill="#444444" stroke="#222222" stroke-width="0.3"/>
</svg>