<svg xmlns="http://www.w3.org/2000/svg" viewBox="0 0 80 80" width="80" height="80">
<path d="M43 45 L52 50 L52 51 L55 53 L54 56 L54 57 L55 58 L55 62 L57 66 L56 67 L49 69 L45 68 L44 65 L43 64 L37 61 L35 59 L34 57 L34 53 L34 53 L37 50 L36 48 L37 48 L37 47 L36 46 L43 45 Z" fill="#444444" stroke="#222222" stroke-width="0.3"/>
<path d="M-49 -17 L-49 -13 L-56 -13 L-56 -8 L-58 -7 L-58 -6 L-58 -3 L-67 -3 L-67 -2 L-67 -3 L-62 -3 L-60 -8 L-57 -11 L-56 -13 L-55 -13 L-55 -15 L-49 -16 L-49 -17 Z" fill="#444444" stroke="#222222" stroke-width="0.3"/>
<path d="M33 49 L34 57 L35 59 L37 61 L32 62 L32 63 L32 64 L31 69 L34 70 L34 70 L34 72 L33 72 L31 70 L29 69 L29 68 L28 69 L26 69 L25 68 L23 68 L23 67 L18 67 L17 59 L14 59 L15 58 L14 58 L12 59 L11 60 L8 61 L5 56 L-3 56 L-4 56 L-3 54 L-1 53 L1 53 L2 54 L5 51 L5 49 L6 47 L8 44 L10 34 L12 32 L19 34 L19 33 L20 33 L23 32 L24 32 L26 32 L29 32 L31 34 L32 34 L34 33 L37 36 L37 38 L38 38 L35 42 L33 49 Z" fill="#444444" stroke="#222222" stroke-width="0.3"/>
<path d="M60 47 L59 45 L59 37 L61 34 L63 34 L65 32 L67 32 L76 23 L76 18 L81 17 L81 20 L80 23 L75 32 L71 37 L63 43 L60 47 Z" fill="#444444" stroke="#222222" stroke-width="0.3"/>
<path d="M55 53 L52 51 L52 50 L43 45 L43 43 L46 39 L44 34 L46 31 L48 32 L48 33 L48 34 L50 34 L53 35 L56 36 L58 34 L59 35 L61 35 L59 37 L59 45 L60 47 L57 49 L56 53 L55 53 Z" fill="#444444" stroke="#222222" stroke-width="0.3"/>
<path d="M23 25 L22 24 L21 24 L21 21 L20 20 L18 16 L18 16 L19 13 L18 12 L20 9 L22 9 L22 -0 L24 -0 L24 -5 L50 -5 L51 3 L53 4 L50 6 L49 14 L45 20 L44 20 L44 24 L43 21 L42 20 L42 17 L41 17 L39 17 L40 19 L38 22 L37 22 L35 21 L33 23 L28 23 L26 21 L24 21 L23 24 L22 24 L23 25 Z" fill="#444444" stroke="#222222" stroke-width="0.3"/>
<path d="M22 1 L22 9 L20 9 L18 12 L19 13 L18 16 L18 16 L20 19 L17 20 L15 23 L13 24 L11 24 L11 24 L9 26 L3 27 L3 26 L2 24 L0 22 L1 21 L3 22 L2 20 L2 14 L0 14 L0 13 L-1 12 L0 9 L3 7 L4 -1 L3 -3 L2 -6 L4 -8 L22 1 Z" fill="#444444" stroke="#222222" stroke-width="0.3"/>
<path d="M5 105 L6 104 L8 106 L10 106 L13 105 L13 97 L15 99 L15 101 L17 101 L20 98 L22 99 L26 98 L26 97 L27 97 L29 94 L34 91 L38 91 L39 96 L39 99 L37 99 L36 101 L38 102 L39 102 L39 101 L41 101 L40 105 L31 114 L26 117 L19 117 L13 119 L10 117 L9 114 L10 113 L9 112 L5 105 Z" fill="#444444" stroke="#222222" stroke-width="0.3"/>
<path d="M32 105 L34 107 L33 108 L31 109 L30 110 L28 108 L31 106 L32 105 Z" fill="#444444" stroke="#222222" stroke-width="0.3"/>
<path d="M38 91 L34 91 L31 90 L30 88 L27 85 L25 82 L29 82 L33 78 L36 77 L36 78 L38 78 L41 79 L41 87 L38 91 Z" fill="#444444" stroke="#222222" stroke-width="0.3"/>
<path d="M34 91 L29 94 L27 97 L26 97 L26 98 L22 99 L20 98 L17 101 L15 101 L15 99 L13 97 L13 91 L15 90 L15 83 L20 82 L21 83 L25 82 L27 85 L30 88 L31 90 L34 91 Z" fill="#444444" stroke="#222222" stroke-width="0.3"/>
<path d="M13 91 L13 105 L10 106 L8 106 L6 104 L5 105 L3 102 L1 91 L-4 82 L-5 81 L-1 80 L0 81 L10 81 L11 82 L16 82 L22 81 L24 81 L21 83 L20 82 L15 83 L15 90 L13 91 Z" fill="#444444" stroke="#222222" stroke-width="0.3"/>
<path d="M-66 14 L-68 11 L-67 11 L-65 7 L-62 7 L-59 8 L-56 11 L-55 16 L-64 16 L-66 16 L-67 15 L-60 14 L-60 13 L-62 14 L-63 13 L-66 14 Z" fill="#444444" stroke="#222222" stroke-width="0.3"/>
<path d="M-55 17 L-56 11 L-55 10 L-53 10 L-51 10 L-42 10 L-42 8 L-44 -11 L-41 -11 L-26 -2 L-26 -1 L-23 0 L-23 2 L-21 2 L-21 7 L-22 9 L-27 10 L-28 11 L-32 11 L-37 14 L-39 14 L-41 18 L-42 21 L-43 21 L-43 20 L-45 21 L-47 21 L-48 20 L-49 20 L-48 18 L-50 16 L-52 17 L-54 17 L-55 17 Z" fill="#444444" stroke="#222222" stroke-width="0.3"/>
<path d="M-67 -2 L-67 -3 L-58 -3 L-58 -6 L-58 -7 L-56 -8 L-56 -13 L-49 -13 L-49 -16 L-41 -11 L-44 -11 L-42 8 L-42 10 L-51 10 L-53 10 L-55 10 L-56 11 L-59 8 L-62 7 L-65 7 L-66 8 L-65 4 L-65 -0 L-67 -2 Z" fill="#444444" stroke="#222222" stroke-width="0.3"/>
<path d="M-24 30 L-26 30 L-26 23 L-28 20 L-27 18 L-24 17 L-22 18 L-22 20 L-22 21 L-24 25 L-24 30 Z" fill="#444444" stroke="#222222" stroke-width="0.3"/>
<path d="M2 -6 L3 -3 L4 -1 L3 7 L0 9 L-1 12 L0 13 L0 14 L2 14 L1 16 L-2 14 L-3 15 L-6 14 L-10 15 L-13 14 L-15 15 L-18 13 L-21 14 L-22 18 L-24 17 L-25 17 L-25 16 L-28 15 L-29 13 L-29 11 L-22 9 L-21 7 L-21 2 L-18 1 L-4 -8 L-1 -7 L1 -6 L2 -6 Z" fill="#444444" stroke="#222222" stroke-width="0.3"/>
<path d="M-24 30 L-24 25 L-22 21 L-22 16 L-21 13 L-18 13 L-15 15 L-13 14 L-10 15 L-6 14 L-3 15 L-2 14 L2 17 L-1 20 L-5 28 L-6 29 L-8 28 L-10 29 L-12 33 L-17 34 L-21 30 L-24 30 Z" fill="#444444" stroke="#222222" stroke-width="0.3"/>
<path d="M1 15 L2 17 L2 20 L3 22 L1 21 L0 22 L2 24 L3 26 L1 30 L1 33 L4 37 L5 39 L1 38 L-9 38 L-9 36 L-12 33 L-11 31 L-10 29 L-8 28 L-6 29 L-5 28 L-1 20 L1 18 L2 17 L1 16 L1 15 Z" fill="#444444" stroke="#222222" stroke-width="0.3"/>
<path d="M-28 19 L-28 20 L-26 23 L-26 30 L-28 30 L-29 28 L-28 25 L-29 21 L-30 20 L-30 19 L-28 19 Z" fill="#444444" stroke="#222222" stroke-width="0.3"/>
<path d="M-30 19 L-28 25 L-29 28 L-28 30 L-34 33 L-36 32 L-37 30 L-36 25 L-36 19 L-30 19 Z" fill="#444444" stroke="#222222" stroke-width="0.3"/>
<path d="M-47 21 L-45 21 L-43 20 L-43 21 L-42 21 L-39 22 L-38 22 L-36 22 L-36 25 L-37 30 L-36 32 L-40 32 L-47 34 L-46 31 L-49 29 L-48 25 L-47 25 L-48 22 L-47 21 Z" fill="#444444" stroke="#222222" stroke-width="0.3"/>
<path d="M-60 16 L-55 16 L-55 17 L-54 17 L-52 17 L-50 16 L-48 18 L-49 20 L-48 20 L-47 21 L-48 22 L-47 25 L-48 25 L-48 26 L-50 27 L-51 25 L-53 25 L-53 23 L-54 21 L-57 22 L-59 24 L-63 19 L-62 18 L-60 18 L-60 16 Z" fill="#444444" stroke="#222222" stroke-width="0.3"/>
<path d="M-66 16 L-60 16 L-60 18 L-62 18 L-63 19 L-65 18 L-66 16 Z" fill="#444444" stroke="#222222" stroke-width="0.3"/>
<path d="M-48 26 L-49 29 L-46 31 L-47 34 L-50 33 L-55 28 L-52 25 L-51 25 L-50 27 L-48 26 Z" fill="#444444" stroke="#222222" stroke-width="0.3"/>
<path d="M-59 24 L-57 22 L-54 21 L-53 23 L-53 25 L-52 25 L-55 28 L-58 26 L-59 24 Z" fill="#444444" stroke="#222222" stroke-width="0.3"/>
<path d="M-42 21 L-41 18 L-40 16 L-39 14 L-37 14 L-32 11 L-29 11 L-29 13 L-28 15 L-25 16 L-26 18 L-28 19 L-36 19 L-36 22 L-38 22 L-39 22 L-42 21 Z" fill="#444444" stroke="#222222" stroke-width="0.3"/>
<path d="M29 32 L26 32 L24 33 L23 32 L20 33 L19 33 L19 34 L12 32 L10 34 L10 36 L7 35 L5 38 L4 37 L1 33 L1 31 L1 30 L3 27 L9 26 L11 24 L11 24 L13 24 L15 23 L17 20 L20 19 L21 21 L21 24 L24 26 L27 30 L29 32 Z" fill="#444444" stroke="#222222" stroke-width="0.3"/>
<path d="M10 36 L8 44 L6 47 L5 49 L5 51 L2 54 L1 53 L-1 53 L-1 54 L-3 53 L-4 54 L-6 52 L-4 51 L-5 49 L-3 48 L-3 47 L-2 48 L0 49 L1 46 L1 44 L-0 43 L1 41 L-1 40 L-2 38 L5 39 L6 36 L7 35 L10 36 Z" fill="#444444" stroke="#222222" stroke-width="0.3"/>
<path d="M-6 38 L-2 38 L-1 40 L1 41 L-0 43 L1 44 L1 46 L0 49 L-2 48 L-3 47 L-3 48 L-5 49 L-4 51 L-6 52 L-11 46 L-9 41 L-6 41 L-6 38 Z" fill="#444444" stroke="#222222" stroke-width="0.3"/>
<path d="M-9 38 L-6 38 L-6 41 L-9 41 L-10 41 L-9 38 Z" fill="#444444" stroke="#222222" stroke-width="0.3"/>
<path d="M37 61 L42 64 L43 66 L42 68 L42 70 L41 73 L42 73 L35 75 L36 77 L33 78 L29 82 L25 82 L23 81 L20 81 L17 78 L18 71 L22 71 L22 67 L23 67 L23 68 L25 68 L26 69 L28 69 L29 68 L29 69 L31 70 L33 72 L34 72 L34 70 L34 70 L31 69 L32 64 L32 63 L33 61 L37 61 Z" fill="#444444" stroke="#222222" stroke-width="0.3"/>
<path d="M41 63 L43 64 L44 65 L45 73 L46 73 L47 75 L48 78 L47 78 L46 80 L44 78 L45 75 L41 73 L42 70 L42 68 L43 66 L41 63 Z" fill="#444444" stroke="#222222" stroke-width="0.3"/>
<path d="M45 68 L51 68 L56 67 L57 66 L58 75 L55 79 L51 81 L45 86 L45 88 L47 91 L47 95 L42 98 L41 99 L41 100 L41 101 L39 101 L39 98 L39 96 L38 91 L41 87 L41 79 L38 78 L36 78 L35 75 L42 73 L45 75 L44 78 L46 80 L47 78 L48 78 L47 75 L46 73 L45 73 L44 70 L45 68 Z" fill="#444444" stroke="#222222" stroke-width="0.3"/>
<path d="M39 101 L39 102 L38 102 L36 101 L37 99 L39 99 L39 101 Z" fill="#444444" stroke="#222222" stroke-width="0.3"/>
<path d="M-2 54 L-3 54 L-4 56 L-4 54 L-3 53 L-2 54 Z M-3 56 L5 56 L8 61 L11 60 L12 59 L14 58 L15 58 L14 59 L17 59 L18 67 L21 67 L22 67 L22 68 L22 71 L18 71 L17 78 L20 81 L16 82 L11 82 L10 81 L0 81 L-1 80 L-5 81 L-4 74 L-0 69 L-0 68 L-2 63 L-1 62 L-3 56 Z" fill="#444444" stroke="#222222" stroke-width="0.3"/>
<path d="M36 48 L37 50 L34 53 L34 53 L33 49 L34 49 L35 48 L36 48 Z" fill="#444444" stroke="#222222" stroke-width="0.3"/>
<path d="M77 69 L78 73 L79 77 L79 78 L78 77 L78 77 L78 80 L72 97 L68 99 L65 97 L64 93 L64 89 L65 89 L66 85 L65 81 L66 78 L70 77 L73 75 L74 74 L74 73 L75 73 L77 69 Z" fill="#444444" stroke="#222222" stroke-width="0.3"/>
<path d="M-66 14 L-63 13 L-62 14 L-60 13 L-60 14 L-67 15 L-66 14 Z" fill="#444444" stroke="#222222" stroke-width="0.3"/>
<path d="M-9 -23 L-10 -26 L-14 -29 L-14 -31 L-12 -32 L-12 -37 L-9 -38 L-8 -38 L-8 -36 L-6 -37 L-7 -36 L-7 -35 L-6 -34 L-7 -32 L-8 -31 L-8 -30 L-7 -30 L-5 -29 L-5 -27 L-8 -25 L-8 -23 L-9 -23 Z" fill="#444444" stroke="#222222" stroke-width="0.3"/>
<path d="M-49 -16 L-49 -19 L-41 -22 L-41 -23 L-38 -24 L-38 -25 L-33 -27 L-32 -28 L-35 -33 L-33 -34 L-27 -36 L-19 -36 L-16 -37 L-12 -37 L-12 -32 L-14 -31 L-14 -29 L-10 -26 L-9 -21 L-9 -14 L-10 -13 L-8 -10 L-7 -10 L-4 -8 L-18 1 L-23 2 L-23 0 L-26 -1 L-26 -2 L-49 -16 Z" fill="#444444" stroke="#222222" stroke-width="0.3"/>
<path d="M49 12 L50 6 L53 4 L55 9 L63 16 L62 16 L59 13 L57 12 L55 11 L53 12 L52 11 L51 12 L49 12 Z" fill="#444444" stroke="#222222" stroke-width="0.3"/>
<path d="M-35 -33 L-32 -28 L-33 -27 L-38 -25 L-38 -24 L-41 -23 L-41 -22 L-49 -19 L-49 -16 L-55 -15 L-57 -11 L-60 -8 L-62 -3 L-67 -3 L-65 -8 L-63 -10 L-61 -14 L-60 -15 L-57 -18 L-55 -18 L-51 -22 L-51 -24 L-50 -27 L-49 -29 L-45 -31 L-43 -34 L-41 -34 L-40 -33 L-35 -33 Z" fill="#444444" stroke="#222222" stroke-width="0.3"/>
<path d="M50 -5 L24 -5 L24 -20 L24 -22 L24 -24 L25 -25 L27 -25 L33 -24 L37 -25 L39 -25 L39 -24 L40 -25 L43 -24 L44 -25 L46 -21 L44 -17 L43 -17 L42 -18 L40 -21 L44 -14 L47 -9 L47 -7 L50 -5 Z" fill="#444444" stroke="#222222" stroke-width="0.3"/>
<path d="M24 -20 L24 -0 L22 -0 L22 1 L4 -8 L1 -6 L-1 -7 L-4 -8 L-7 -10 L-8 -10 L-10 -13 L-9 -14 L-9 -20 L-9 -23 L-8 -23 L-8 -25 L-5 -27 L-5 -29 L3 -27 L4 -25 L11 -22 L13 -24 L13 -26 L15 -28 L20 -28 L20 -27 L24 -26 L25 -25 L24 -24 L24 -22 L24 -20 Z" fill="#444444" stroke="#222222" stroke-width="0.3"/>
<path d="M74 26 L67 32 L65 32 L61 35 L59 35 L58 34 L56 36 L53 35 L50 34 L48 34 L48 33 L48 32 L46 31 L45 29 L43 26 L41 26 L42 25 L43 25 L44 20 L48 16 L49 12 L51 12 L52 11 L53 12 L55 11 L57 12 L60 14 L62 16 L60 18 L60 19 L63 19 L62 20 L65 23 L72 26 L74 26 Z" fill="#444444" stroke="#222222" stroke-width="0.3"/>
<path d="M62 16 L63 16 L64 16 L64 17 L63 18 L63 18 L63 19 L60 19 L60 18 L62 16 Z" fill="#444444" stroke="#222222" stroke-width="0.3"/>
<path d="M76 18 L76 23 L74 26 L72 26 L65 23 L62 20 L63 18 L66 21 L76 18 Z" fill="#444444" stroke="#222222" stroke-width="0.3"/>
<path d="M43 45 L37 45 L34 46 L35 42 L38 38 L37 38 L37 36 L38 35 L39 35 L42 35 L44 34 L45 35 L46 39 L43 43 L43 45 Z" fill="#cc3333" stroke="#222222" stroke-width="0.3"/>
<path d="M36 46 L37 47 L37 48 L35 48 L34 49 L33 49 L33 47 L36 46 Z" fill="#444444" stroke="#222222" stroke-width="0.3"/>
<path d="M37 36 L34 33 L31 34 L29 31 L27 30 L27 29 L24 27 L24 26 L22 24 L23 24 L24 21 L26 21 L28 23 L33 23 L35 21 L37 22 L38 22 L40 19 L39 17 L42 17 L42 20 L43 21 L44 24 L43 25 L42 25 L41 26 L43 26 L44 27 L46 31 L42 35 L39 35 L38 35 L37 36 Z" fill="#444444" stroke="#222222" stroke-width="0.3"/>
</svg>