<svg xmlns="http://www.w3.org/2000/svg" viewBox="0 0 80 80" width="80" height="80">
<path d="M37 119 L38 121 L42 122 L41 123 L40 123 L39 122 L37 122 L37 119 Z M52 89 L51 95 L52 96 L52 97 L53 98 L53 98 L52 100 L50 101 L46 101 L46 103 L45 104 L44 104 L42 103 L42 104 L42 105 L43 106 L44 105 L44 106 L42 107 L41 109 L40 109 L39 110 L39 111 L40 112 L41 112 L41 113 L39 114 L38 116 L37 117 L37 118 L38 119 L33 118 L32 118 L32 117 L31 117 L31 116 L31 115 L32 114 L32 113 L32 113 L33 110 L33 109 L34 109 L33 108 L33 107 L33 107 L32 105 L33 105 L33 103 L33 101 L34 100 L34 98 L35 97 L35 96 L36 95 L36 93 L35 91 L35 89 L35 88 L36 87 L38 85 L37 84 L37 82 L39 81 L39 79 L40 78 L42 78 L43 79 L43 78 L45 78 L48 81 L52 82 L52 83 L51 85 L53 86 L55 85 L56 84 L56 83 L57 83 L57 84 L57 85 L55 86 L52 89 Z" fill="#444444" stroke="#222222" stroke-width="0.3"/>
<path d="M37 119 L37 122 L39 122 L38 123 L34 123 L31 121 L29 120 L34 121 L35 120 L36 119 L37 119 Z M36 72 L37 74 L37 75 L37 76 L38 79 L39 79 L39 79 L39 81 L37 82 L37 84 L38 85 L36 87 L35 88 L35 89 L35 91 L36 93 L36 95 L35 96 L35 97 L34 98 L34 100 L33 101 L33 103 L33 105 L32 105 L33 107 L33 107 L33 108 L34 109 L33 109 L33 110 L32 113 L32 113 L32 114 L31 115 L31 116 L31 117 L32 117 L32 118 L33 118 L37 119 L36 119 L34 120 L34 121 L33 121 L29 119 L28 114 L28 113 L30 112 L28 111 L29 110 L30 108 L31 108 L32 106 L31 105 L30 107 L30 107 L30 102 L31 101 L31 99 L31 98 L33 92 L33 90 L34 89 L33 87 L34 86 L35 77 L35 73 L36 72 Z" fill="#444444" stroke="#222222" stroke-width="0.3"/>
<path d="M47 118 L49 117 L50 118 L51 117 L52 118 L51 118 L50 119 L49 118 L48 119 L47 118 Z" fill="#444444" stroke="#222222" stroke-width="0.3"/>
<path d="M52 89 L53 89 L57 92 L58 93 L57 93 L58 94 L57 95 L56 96 L54 95 L52 95 L51 94 L52 89 Z" fill="#444444" stroke="#222222" stroke-width="0.3"/>
<path d="M58 94 L57 93 L58 93 L57 92 L53 89 L52 89 L55 86 L57 85 L57 84 L57 83 L56 83 L56 81 L55 81 L54 79 L52 78 L52 76 L51 76 L52 75 L52 75 L52 73 L52 72 L51 72 L51 71 L49 70 L48 69 L48 69 L48 67 L46 67 L44 66 L43 65 L42 64 L42 62 L40 62 L38 63 L35 63 L35 61 L34 62 L32 62 L32 61 L31 61 L31 61 L30 59 L30 58 L31 58 L31 56 L34 54 L35 54 L36 50 L35 49 L35 48 L36 48 L36 47 L36 47 L36 46 L38 46 L39 46 L39 47 L40 48 L41 48 L44 46 L43 45 L43 44 L42 43 L45 44 L47 43 L48 42 L48 42 L49 42 L49 43 L49 43 L49 45 L49 46 L50 47 L51 47 L52 46 L54 46 L54 45 L58 46 L60 43 L60 43 L62 46 L62 46 L62 47 L61 48 L62 49 L64 49 L64 50 L65 49 L69 51 L70 52 L69 52 L71 52 L74 53 L76 53 L79 55 L82 56 L82 56 L83 59 L82 61 L77 66 L77 73 L76 75 L75 77 L74 78 L73 79 L73 79 L69 80 L65 82 L64 83 L64 85 L64 87 L58 94 Z" fill="#444444" stroke="#222222" stroke-width="0.3"/>
<path d="M36 63 L38 63 L40 62 L42 62 L42 64 L43 65 L44 66 L46 67 L48 67 L48 69 L48 69 L49 70 L51 71 L51 72 L52 72 L52 73 L52 75 L52 75 L51 76 L51 75 L50 75 L46 75 L45 79 L43 78 L43 79 L42 78 L40 78 L39 79 L38 79 L37 76 L37 75 L37 74 L36 72 L37 71 L36 70 L36 69 L36 69 L37 68 L37 66 L36 63 Z" fill="#444444" stroke="#222222" stroke-width="0.3"/>
<path d="M35 54 L34 54 L31 56 L31 58 L30 58 L30 59 L31 61 L31 61 L32 61 L32 62 L34 62 L35 61 L35 63 L36 63 L37 66 L37 68 L36 69 L36 69 L36 70 L37 71 L36 73 L35 73 L33 73 L33 72 L27 68 L27 67 L27 67 L22 58 L20 57 L21 56 L20 55 L20 54 L22 53 L21 55 L22 55 L23 55 L24 55 L25 53 L26 52 L28 51 L28 50 L28 49 L28 49 L30 50 L31 52 L34 52 L35 52 L34 54 L35 54 Z" fill="#444444" stroke="#222222" stroke-width="0.3"/>
<path d="M40 47 L39 47 L39 46 L38 46 L36 46 L36 47 L36 47 L36 48 L35 48 L35 49 L36 50 L35 54 L34 54 L35 52 L34 52 L31 52 L30 50 L28 49 L27 48 L25 48 L23 46 L24 46 L24 45 L25 45 L26 43 L25 43 L26 41 L25 39 L25 38 L26 38 L25 37 L28 36 L28 34 L29 34 L31 34 L33 32 L33 32 L34 32 L34 33 L33 33 L31 35 L31 36 L32 36 L32 37 L32 39 L33 39 L35 39 L36 40 L39 40 L38 43 L39 44 L38 45 L39 46 L40 47 Z" fill="#444444" stroke="#222222" stroke-width="0.3"/>
<path d="M47 41 L48 42 L47 43 L45 44 L42 43 L43 44 L43 45 L44 46 L41 48 L40 48 L38 45 L39 44 L38 43 L39 40 L36 40 L35 39 L33 39 L32 39 L32 37 L32 36 L31 36 L31 35 L33 33 L34 33 L33 33 L33 35 L33 35 L33 36 L34 36 L34 35 L33 34 L35 33 L35 33 L35 32 L36 33 L37 33 L38 34 L40 34 L42 35 L43 34 L46 34 L45 35 L46 35 L47 35 L48 36 L48 37 L49 37 L48 38 L48 39 L48 39 L47 40 L47 41 Z" fill="#cc3333" stroke="#222222" stroke-width="0.3"/>
<path d="M53 46 L52 46 L51 47 L49 46 L49 45 L49 43 L49 43 L49 42 L48 42 L47 41 L47 40 L48 39 L48 39 L48 38 L49 37 L51 39 L51 39 L53 41 L52 42 L52 42 L51 43 L52 44 L52 44 L53 46 Z" fill="#444444" stroke="#222222" stroke-width="0.3"/>
<path d="M56 46 L54 45 L54 46 L53 46 L52 44 L52 44 L51 43 L52 42 L52 42 L53 41 L57 41 L56 42 L57 44 L56 46 Z" fill="#444444" stroke="#222222" stroke-width="0.3"/>
<path d="M28 49 L28 50 L28 51 L26 52 L25 53 L24 55 L23 55 L22 55 L21 55 L22 53 L22 52 L22 52 L21 52 L21 52 L21 50 L21 50 L22 48 L23 47 L25 48 L25 48 L27 48 L28 49 Z" fill="#444444" stroke="#222222" stroke-width="0.3"/>
<path d="M51 75 L52 76 L52 78 L54 79 L55 81 L56 81 L56 84 L55 85 L53 86 L51 85 L52 83 L52 82 L48 81 L45 79 L46 75 L50 75 L51 75 Z" fill="#444444" stroke="#222222" stroke-width="0.3"/>
</svg>