<svg xmlns="http://www.w3.org/2000/svg" viewBox="0 0 80 80" width="80" height="80">
<path d="M25 13 L24 13 L24 13 L24 14 L23 15 L21 14 L21 16 L19 16 L20 18 L19 18 L19 18 L18 18 L15 18 L14 18 L14 18 L13 18 L12 18 L11 18 L10 19 L10 20 L9 20 L9 19 L8 19 L8 19 L7 19 L7 18 L6 17 L4 17 L3 17 L1 16 L-1 16 L-1 19 L-1 19 L-2 18 L-4 19 L-4 18 L-5 18 L-6 16 L-5 17 L-5 16 L-3 16 L-3 15 L-5 14 L-7 15 L-7 15 L-7 14 L-7 14 L-8 14 L-9 13 L-8 12 L-7 12 L-7 12 L-5 11 L-4 11 L-1 12 L-0 11 L1 11 L2 12 L2 11 L4 11 L4 11 L2 10 L3 10 L3 10 L4 10 L3 9 L4 9 L7 8 L10 8 L11 8 L12 9 L12 8 L14 9 L13 9 L14 9 L16 8 L16 9 L17 9 L19 11 L19 11 L20 11 L22 11 L23 12 L24 12 L25 13 Z" fill="#444444" stroke="#222222" stroke-width="0.3"/>
<path d="M-1 19 L-1 16 L1 16 L3 17 L4 17 L6 17 L7 18 L7 19 L8 19 L8 19 L9 19 L9 20 L10 20 L10 19 L11 18 L12 18 L11 19 L12 19 L12 19 L13 20 L12 20 L11 20 L11 19 L10 20 L9 21 L9 21 L9 21 L9 21 L9 22 L9 23 L8 22 L8 22 L6 21 L4 20 L4 19 L3 19 L2 19 L2 18 L1 18 L-0 19 L0 19 L-1 19 Z" fill="#444444" stroke="#222222" stroke-width="0.3"/>
<path d="M69 55 L72 56 L73 57 L73 58 L74 58 L75 59 L74 59 L74 59 L75 60 L75 61 L76 61 L76 61 L77 62 L77 62 L75 61 L74 60 L73 60 L72 59 L71 60 L71 61 L70 61 L69 61 L69 55 Z M79 56 L79 57 L79 57 L78 56 L77 55 L77 55 L79 56 Z M78 58 L76 58 L75 58 L75 58 L76 58 L76 57 L77 58 L77 58 L78 57 L78 57 L78 57 L78 57 L78 58 Z M80 57 L81 59 L81 59 L81 58 L80 57 Z" fill="#444444" stroke="#222222" stroke-width="0.3"/>
<path d="M69 55 L69 61 L68 60 L67 60 L67 60 L66 60 L67 59 L67 59 L66 58 L64 57 L63 56 L62 57 L62 56 L62 55 L63 55 L63 55 L62 55 L61 54 L61 54 L60 54 L62 53 L63 54 L64 55 L64 56 L65 55 L66 55 L67 55 L69 55 Z M56 60 L56 61 L55 61 L55 62 L55 61 L56 60 Z M63 59 L63 58 L64 58 L64 58 L63 59 Z M50 50 L49 50 L50 51 L50 52 L51 52 L50 52 L50 53 L50 54 L49 54 L49 56 L48 56 L47 57 L47 56 L46 56 L45 56 L45 56 L44 56 L44 54 L43 54 L43 53 L43 52 L43 51 L43 52 L44 52 L45 52 L46 52 L47 52 L47 52 L48 50 L50 50 Z M58 55 L60 56 L61 56 L60 56 L58 56 L58 55 Z M57 56 L57 56 L57 56 L57 56 L58 56 L57 56 Z M58 51 L58 52 L59 52 L59 52 L59 53 L58 53 L58 53 L59 54 L58 54 L58 52 L58 51 Z M52 52 L55 52 L56 52 L56 52 L55 53 L55 53 L52 53 L52 54 L52 54 L53 54 L54 54 L54 54 L54 54 L54 54 L53 55 L54 56 L54 56 L54 57 L54 58 L54 58 L54 57 L54 57 L53 57 L53 57 L53 57 L52 56 L53 55 L52 56 L52 58 L52 58 L51 58 L51 57 L51 56 L51 56 L51 55 L52 53 L52 52 Z M52 62 L51 61 L52 61 L52 61 L52 62 Z M52 60 L53 60 L54 60 L54 60 L52 60 L52 60 L52 60 Z M50 60 L51 60 L51 60 L49 61 L49 60 L50 60 L50 60 Z M42 58 L42 59 L44 59 L44 58 L46 59 L46 59 L47 60 L48 60 L47 60 L46 60 L42 60 L41 59 L40 59 L40 59 L40 58 L42 58 Z M39 54 L39 55 L40 55 L40 56 L40 58 L39 58 L37 57 L35 53 L34 52 L31 49 L31 49 L33 49 L36 51 L37 51 L37 52 L38 53 L38 53 L38 54 L39 54 Z" fill="#444444" stroke="#222222" stroke-width="0.3"/>
<path d="M56 60 L57 60 L58 60 L56 61 L56 60 Z" fill="#444444" stroke="#222222" stroke-width="0.3"/>
<path d="M-17 26 L-18 27 L-18 26 L-18 27 L-18 27 L-18 27 L-18 27 L-18 28 L-18 29 L-19 27 L-18 26 L-17 26 Z" fill="#444444" stroke="#222222" stroke-width="0.3"/>
<path d="M-17 26 L-18 26 L-17 25 L-17 25 L-17 25 L-17 26 Z" fill="#444444" stroke="#222222" stroke-width="0.3"/>
<path d="M-18 27 L-18 27 L-18 27 L-18 27 L-18 26 L-18 27 L-18 27 Z" fill="#444444" stroke="#222222" stroke-width="0.3"/>
<path d="M-18 29 L-18 26 L-17 27 L-15 26 L-15 27 L-16 27 L-16 28 L-17 29 L-18 29 Z" fill="#444444" stroke="#222222" stroke-width="0.3"/>
<path d="M-5 33 L-4 33 L-3 33 L-1 32 L-1 32 L-1 33 L-1 33 L-1 33 L-1 33 L-2 35 L-4 34 L-5 33 Z" fill="#444444" stroke="#222222" stroke-width="0.3"/>
<path d="M-5 33 L-5 32 L-5 32 L-4 32 L-5 33 L-5 33 Z" fill="#444444" stroke="#222222" stroke-width="0.3"/>
<path d="M-7 28 L-7 30 L-8 30 L-8 29 L-9 29 L-8 28 L-7 28 Z" fill="#444444" stroke="#222222" stroke-width="0.3"/>
<path d="M-15 27 L-15 26 L-13 25 L-13 23 L-12 22 L-10 23 L-10 23 L-10 24 L-9 24 L-9 24 L-9 25 L-10 25 L-9 26 L-8 26 L-8 27 L-8 28 L-7 28 L-7 28 L-7 29 L-8 28 L-9 29 L-10 29 L-12 27 L-15 27 Z" fill="#444444" stroke="#222222" stroke-width="0.3"/>
<path d="M-2 34 L-1 33 L-1 33 L-1 33 L-1 33 L0 34 L1 34 L2 35 L1 36 L1 36 L1 38 L-0 38 L-1 38 L-1 38 L-2 39 L-3 39 L-4 38 L-2 37 L-1 35 L-2 34 Z M-1 32 L-1 32 L-1 31 L-0 32 L-1 32 Z" fill="#444444" stroke="#222222" stroke-width="0.3"/>
<path d="M37 43 L37 42 L38 41 L39 41 L40 42 L41 41 L41 41 L42 42 L41 43 L40 44 L40 44 L39 45 L38 44 L37 43 Z" fill="#444444" stroke="#222222" stroke-width="0.3"/>
<path d="M40 41 L38 41 L37 42 L37 43 L37 43 L36 43 L36 42 L35 42 L35 43 L35 45 L35 46 L35 46 L36 47 L37 48 L37 48 L36 48 L36 48 L35 48 L35 48 L34 46 L34 47 L34 46 L34 45 L35 43 L35 42 L34 41 L34 40 L33 38 L33 38 L34 37 L34 37 L35 36 L36 37 L36 37 L36 37 L36 39 L37 38 L38 38 L38 38 L39 38 L39 39 L39 40 L40 40 L40 41 Z" fill="#444444" stroke="#222222" stroke-width="0.3"/>
<path d="M41 41 L41 41 L40 42 L40 41 L40 40 L39 40 L39 39 L39 38 L38 38 L38 38 L37 38 L36 39 L36 37 L36 37 L36 37 L35 36 L36 36 L37 36 L37 35 L37 35 L38 36 L39 36 L39 37 L38 37 L39 38 L41 40 L41 41 L41 41 Z" fill="#444444" stroke="#222222" stroke-width="0.3"/>
<path d="M36 36 L34 37 L34 37 L33 38 L33 38 L34 40 L34 41 L35 42 L35 43 L34 45 L34 44 L34 43 L34 42 L34 42 L33 39 L31 40 L30 40 L31 39 L31 38 L30 37 L30 37 L30 37 L29 36 L29 35 L29 36 L29 35 L30 35 L30 33 L30 34 L31 32 L31 31 L32 31 L33 31 L33 30 L34 30 L34 31 L34 32 L33 33 L33 33 L34 33 L34 34 L35 34 L35 35 L36 35 L36 35 L36 36 Z" fill="#444444" stroke="#222222" stroke-width="0.3"/>
<path d="M39 45 L40 44 L40 44 L41 43 L41 41 L41 40 L39 38 L38 37 L39 37 L39 36 L38 36 L37 35 L39 34 L40 34 L41 34 L41 35 L41 35 L42 35 L41 36 L40 37 L41 39 L43 41 L43 42 L43 44 L40 46 L39 46 L39 45 L39 45 Z" fill="#cc3333" stroke="#222222" stroke-width="0.3"/>
<path d="M61 18 L61 18 L61 18 L61 18 Z M60 18 L61 18 L60 18 L60 19 L60 20 L58 20 L58 21 L59 21 L58 22 L56 22 L56 22 L56 21 L55 20 L56 20 L57 19 L58 19 L58 19 L60 18 L60 18 Z" fill="#444444" stroke="#222222" stroke-width="0.3"/>
<path d="M57 22 L59 21 L59 23 L59 24 L59 24 L57 25 L57 24 L57 23 L57 23 L57 22 Z" fill="#444444" stroke="#222222" stroke-width="0.3"/>
<path d="M25 13 L29 11 L30 12 L31 12 L33 12 L34 12 L33 11 L34 10 L37 11 L37 12 L38 12 L41 12 L42 13 L44 13 L46 12 L47 12 L48 12 L49 12 L48 14 L48 14 L49 14 L50 14 L52 14 L51 15 L50 15 L48 16 L46 16 L45 16 L45 17 L45 17 L44 18 L40 19 L39 19 L36 18 L32 18 L31 17 L30 16 L28 16 L28 16 L28 15 L27 14 L25 13 L25 13 Z" fill="#444444" stroke="#222222" stroke-width="0.3"/>
<path d="M33 30 L33 31 L32 31 L31 31 L31 32 L30 34 L30 33 L30 35 L29 35 L29 34 L29 34 L28 34 L28 34 L29 33 L27 32 L27 32 L26 31 L26 32 L26 32 L25 33 L26 33 L26 34 L26 35 L26 35 L25 35 L25 36 L24 37 L23 37 L21 39 L21 40 L19 40 L19 41 L19 42 L19 43 L19 45 L18 45 L18 45 L18 46 L17 46 L17 47 L16 46 L15 44 L15 43 L14 41 L14 40 L13 36 L12 36 L11 36 L10 35 L10 35 L10 34 L9 34 L10 33 L11 33 L11 31 L10 31 L11 30 L12 30 L14 28 L14 27 L15 27 L14 26 L14 25 L14 25 L16 25 L17 24 L18 25 L18 26 L18 26 L18 26 L18 26 L18 27 L20 28 L19 29 L19 29 L22 31 L23 31 L23 31 L25 31 L26 30 L26 30 L26 31 L27 31 L29 31 L29 31 L28 30 L29 30 L31 29 L31 29 L32 29 L32 29 L32 30 L33 30 Z" fill="#444444" stroke="#222222" stroke-width="0.3"/>
<path d="M29 34 L29 36 L29 35 L29 36 L28 34 L27 34 L27 35 L26 35 L26 34 L26 33 L25 33 L26 32 L26 32 L26 31 L27 32 L27 32 L29 33 L28 34 L28 34 L29 34 L29 34 Z" fill="#444444" stroke="#222222" stroke-width="0.3"/>
<path d="M27 30 L29 31 L29 31 L27 31 L26 31 L27 30 L27 30 Z" fill="#444444" stroke="#222222" stroke-width="0.3"/>
<path d="M26 30 L25 31 L25 31 L23 31 L23 31 L22 31 L19 29 L19 29 L20 28 L24 30 L26 30 Z" fill="#444444" stroke="#222222" stroke-width="0.3"/>
<path d="M17 24 L16 25 L14 25 L14 25 L14 26 L15 27 L14 27 L14 28 L12 30 L11 30 L10 31 L11 31 L11 33 L10 33 L9 34 L9 33 L8 32 L4 33 L4 32 L5 31 L5 31 L5 31 L5 30 L4 30 L3 29 L5 29 L7 29 L8 29 L8 28 L8 27 L10 27 L10 26 L10 26 L11 26 L11 25 L11 25 L12 24 L12 23 L12 23 L15 23 L15 23 L16 24 L17 24 Z" fill="#444444" stroke="#222222" stroke-width="0.3"/>
<path d="M7 22 L9 23 L10 22 L10 23 L10 22 L11 22 L11 22 L12 22 L12 23 L12 23 L13 22 L15 22 L15 23 L12 23 L12 23 L12 24 L11 25 L11 25 L11 26 L10 26 L10 26 L10 27 L8 27 L8 28 L8 29 L7 29 L5 29 L3 29 L4 28 L4 27 L3 27 L3 26 L3 26 L3 25 L3 24 L4 24 L5 24 L5 24 L6 23 L6 23 L7 22 L7 22 Z" fill="#444444" stroke="#222222" stroke-width="0.3"/>
<path d="M9 23 L9 22 L9 21 L9 21 L9 21 L9 21 L10 20 L11 19 L11 20 L11 20 L11 20 L10 20 L10 21 L14 21 L14 21 L15 22 L15 22 L13 22 L12 23 L12 23 L12 22 L11 22 L11 22 L10 22 L10 23 L9 23 Z" fill="#444444" stroke="#222222" stroke-width="0.3"/>
<path d="M11 18 L12 18 L12 18 L13 18 L14 18 L14 18 L15 18 L18 18 L19 18 L17 19 L16 19 L16 20 L15 20 L14 20 L14 21 L14 21 L10 21 L10 20 L12 20 L13 20 L12 19 L12 19 L11 19 L12 18 L11 18 Z" fill="#444444" stroke="#222222" stroke-width="0.3"/>
<path d="M-4 19 L-2 18 L-1 19 L0 19 L-0 19 L1 18 L2 18 L2 19 L3 19 L4 19 L4 20 L6 21 L8 22 L8 22 L7 22 L7 22 L6 23 L6 23 L4 24 L3 24 L3 23 L3 23 L2 22 L0 22 L-1 22 L-2 22 L-3 23 L-3 21 L-3 21 L-3 20 L-4 20 L-3 20 L-3 20 L-2 19 L-3 19 L-3 19 L-3 19 L-4 19 Z" fill="#444444" stroke="#222222" stroke-width="0.3"/>
<path d="M-7 29 L-7 28 L-7 28 L-8 28 L-8 27 L-8 26 L-9 26 L-10 25 L-9 25 L-9 24 L-9 24 L-10 24 L-11 22 L-10 22 L-11 21 L-10 20 L-10 21 L-9 21 L-7 21 L-7 21 L-7 21 L-7 22 L-6 22 L-5 23 L-4 23 L-3 23 L-1 22 L-0 22 L2 22 L3 23 L3 23 L3 24 L3 25 L3 26 L3 26 L3 27 L4 27 L4 28 L3 29 L4 30 L5 30 L5 31 L5 31 L5 31 L4 32 L4 33 L0 32 L-0 31 L-0 31 L-2 31 L-3 31 L-4 30 L-5 30 L-6 28 L-6 28 L-7 28 L-7 29 Z" fill="#444444" stroke="#222222" stroke-width="0.3"/>
<path d="M-18 26 L-17 25 L-17 25 L-17 25 L-17 25 L-17 24 L-17 23 L-17 23 L-14 23 L-12 23 L-13 23 L-13 25 L-17 27 L-18 26 Z" fill="#444444" stroke="#222222" stroke-width="0.3"/>
<path d="M-9 21 L-9 21 L-9 21 L-11 20 L-11 19 L-10 19 L-9 20 L-10 20 L-9 20 L-9 20 L-9 21 L-9 21 Z" fill="#444444" stroke="#222222" stroke-width="0.3"/>
<path d="M-10 23 L-10 23 L-12 22 L-14 23 L-17 23 L-17 23 L-17 24 L-17 23 L-17 23 L-18 23 L-19 23 L-20 23 L-21 23 L-22 23 L-22 23 L-22 23 L-23 23 L-24 23 L-25 22 L-25 21 L-25 21 L-24 20 L-23 20 L-23 19 L-21 19 L-19 19 L-18 19 L-15 19 L-14 19 L-13 19 L-12 19 L-11 19 L-11 20 L-10 20 L-11 21 L-10 22 L-11 22 L-10 23 Z M-25 19 L-25 19 L-24 19 L-24 19 L-23 19 L-23 19 L-24 19 L-25 20 L-25 20 L-25 19 L-25 19 Z" fill="#444444" stroke="#222222" stroke-width="0.3"/>
<path d="M73 87 L75 87 L75 88 L75 89 L74 88 L74 89 L73 89 L72 87 L72 87 L73 87 Z M57 80 L55 80 L55 81 L52 81 L50 82 L49 82 L48 81 L48 81 L48 80 L48 80 L48 77 L46 75 L47 75 L46 74 L47 75 L46 73 L47 72 L47 72 L47 71 L47 72 L47 71 L49 70 L50 70 L51 70 L52 69 L54 68 L54 67 L54 67 L55 67 L55 67 L55 67 L55 66 L55 67 L55 66 L56 65 L57 65 L57 65 L58 64 L59 65 L60 65 L59 65 L60 64 L60 64 L60 63 L61 63 L62 63 L62 63 L61 62 L62 62 L64 63 L65 63 L66 63 L65 64 L65 64 L65 64 L64 65 L68 68 L69 67 L69 67 L70 65 L70 63 L70 62 L71 64 L71 65 L72 65 L73 65 L73 67 L73 69 L75 70 L75 70 L76 71 L76 71 L77 72 L77 72 L77 72 L79 74 L79 76 L79 76 L79 79 L78 80 L78 80 L77 82 L76 84 L76 84 L75 84 L73 85 L72 85 L72 84 L71 85 L69 84 L68 84 L68 83 L67 82 L67 82 L67 82 L67 81 L66 82 L66 82 L66 81 L66 80 L65 81 L65 82 L64 81 L64 81 L63 80 L63 80 L61 79 L57 80 Z" fill="#444444" stroke="#222222" stroke-width="0.3"/>
<path d="M20 47 L20 48 L19 48 L19 48 L19 46 L19 45 L20 46 L20 47 Z" fill="#444444" stroke="#222222" stroke-width="0.3"/>
<path d="M43 38 L42 38 L42 37 L43 37 L44 37 L44 37 L44 38 L43 38 Z M19 18 L19 18 L20 18 L19 16 L21 16 L21 14 L23 15 L24 14 L24 13 L24 13 L25 13 L25 13 L27 14 L28 15 L28 16 L28 16 L30 16 L31 17 L32 18 L36 18 L39 19 L40 19 L43 18 L45 17 L45 17 L45 16 L46 16 L48 16 L50 15 L51 15 L52 14 L50 14 L49 14 L48 14 L48 14 L49 12 L50 12 L51 12 L51 12 L52 10 L52 10 L52 10 L53 9 L54 9 L55 9 L57 10 L58 12 L59 13 L60 13 L61 14 L62 14 L64 13 L62 16 L61 16 L61 16 L61 17 L61 18 L60 18 L60 18 L60 18 L60 18 L58 19 L58 19 L57 19 L55 20 L53 21 L53 21 L53 20 L53 20 L53 19 L51 20 L51 21 L50 21 L50 21 L50 22 L51 22 L51 22 L51 23 L52 22 L54 22 L54 23 L53 23 L51 24 L52 25 L53 27 L53 28 L53 28 L53 28 L53 29 L53 30 L53 30 L51 33 L48 34 L47 35 L47 35 L47 35 L46 35 L44 36 L44 36 L43 36 L43 36 L43 36 L41 35 L41 35 L41 34 L40 34 L39 34 L37 34 L37 35 L37 36 L36 36 L36 35 L36 35 L35 35 L35 34 L34 34 L34 33 L33 33 L33 33 L34 32 L34 31 L34 30 L32 30 L32 29 L32 29 L31 29 L31 29 L29 30 L28 30 L27 30 L26 31 L26 30 L26 30 L24 30 L22 29 L22 29 L21 28 L20 28 L20 28 L18 27 L18 26 L18 26 L18 26 L18 26 L18 25 L17 24 L16 24 L15 23 L15 22 L15 22 L14 21 L14 21 L14 21 L14 20 L15 20 L16 20 L16 19 L17 19 L19 18 Z" fill="#444444" stroke="#222222" stroke-width="0.3"/>
<path d="M53 33 L53 34 L52 35 L52 34 L53 32 L53 33 Z" fill="#444444" stroke="#222222" stroke-width="0.3"/>
<path d="M-9 19 L-8 19 L-7 19 L-6 20 L-5 20 L-6 20 L-7 22 L-7 21 L-7 21 L-7 21 L-9 21 L-9 21 L-9 20 L-9 20 L-10 19 L-9 19 L-9 19 L-9 19 Z M-9 21 L-10 21 L-10 20 L-9 21 L-9 21 Z" fill="#444444" stroke="#222222" stroke-width="0.3"/>
<path d="M-14 17 L-12 18 L-11 18 L-10 18 L-9 19 L-9 19 L-9 19 L-10 19 L-11 19 L-12 19 L-13 19 L-13 18 L-14 17 Z" fill="#444444" stroke="#222222" stroke-width="0.3"/>
<path d="M53 43 L52 42 L53 42 L53 42 L53 43 Z M54 45 L54 44 L55 44 L54 45 L55 44 L55 45 L54 46 L54 45 Z M57 45 L57 47 L57 48 L56 47 L56 48 L56 48 L56 49 L55 48 L55 47 L55 47 L55 47 L53 47 L53 47 L54 47 L55 46 L55 46 L55 46 L56 46 L56 46 L56 45 L57 45 Z M51 44 L49 46 L51 44 L51 44 Z M54 38 L53 38 L54 39 L54 40 L53 40 L53 41 L54 41 L55 42 L55 43 L54 42 L54 42 L53 42 L52 42 L53 41 L52 41 L52 41 L52 40 L52 40 L52 40 L52 38 L53 38 L54 38 Z M53 45 L53 43 L54 44 L54 44 L53 45 Z M56 43 L56 44 L56 44 L56 45 L56 45 L56 44 L55 44 L55 44 L56 44 L56 43 L55 43 L56 43 Z" fill="#444444" stroke="#222222" stroke-width="0.3"/>
<path d="M35 49 L35 48 L36 48 L36 48 L37 48 L37 48 L38 49 L38 49 L38 51 L39 52 L38 52 L36 51 L35 49 Z M50 50 L48 50 L47 52 L47 52 L46 52 L45 52 L44 52 L43 52 L43 51 L44 52 L44 52 L45 51 L46 51 L47 49 L47 50 L47 50 L48 50 L48 49 L49 47 L49 47 L50 48 L51 49 L51 49 L50 49 L51 49 L50 50 Z" fill="#444444" stroke="#222222" stroke-width="0.3"/>
<path d="M48 49 L48 50 L47 50 L47 50 L47 49 L48 49 Z" fill="#444444" stroke="#222222" stroke-width="0.3"/>
<path d="M70 21 L69 22 L69 23 L69 23 L69 24 L68 24 L67 25 L66 25 L65 26 L64 25 L64 25 L61 25 L62 26 L61 27 L60 28 L60 27 L60 27 L60 26 L59 26 L60 26 L62 24 L64 24 L65 24 L65 22 L66 23 L68 22 L68 21 L68 20 L68 19 L69 19 L70 20 L70 21 Z M72 17 L73 17 L73 18 L71 18 L71 19 L69 18 L69 19 L68 19 L68 18 L68 18 L69 17 L70 16 L71 17 L72 17 Z M62 26 L62 25 L63 25 L63 25 L64 25 L64 25 L63 26 L63 26 L63 26 L62 26 L62 26 L62 26 Z" fill="#444444" stroke="#222222" stroke-width="0.3"/>
<path d="M-4 38 L-3 39 L-4 40 L-4 40 L-6 41 L-7 42 L-9 42 L-10 43 L-11 43 L-12 41 L-11 39 L-11 39 L-8 39 L-8 39 L-8 39 L-7 38 L-7 38 L-4 38 Z" fill="#444444" stroke="#222222" stroke-width="0.3"/>
<path d="M-18 29 L-17 29 L-17 29 L-16 28 L-16 28 L-16 27 L-15 27 L-12 27 L-10 29 L-8 29 L-8 30 L-7 30 L-7 30 L-6 31 L-6 32 L-5 33 L-5 33 L-4 34 L-2 35 L-2 34 L-1 35 L-2 37 L-4 38 L-7 38 L-7 38 L-8 39 L-8 39 L-8 39 L-11 39 L-11 39 L-11 39 L-12 40 L-13 37 L-14 36 L-15 36 L-15 35 L-15 34 L-16 33 L-17 32 L-18 30 L-18 30 L-18 29 Z" fill="#444444" stroke="#222222" stroke-width="0.3"/>
<path d="M-20 24 L-20 24 L-18 24 L-19 24 L-20 24 Z" fill="#444444" stroke="#222222" stroke-width="0.3"/>
<path d="M-20 24 L-19 24 L-19 24 L-20 25 L-20 24 Z" fill="#444444" stroke="#222222" stroke-width="0.3"/>
</svg>