<svg xmlns="http://www.w3.org/2000/svg" viewBox="0 0 80 80" width="80" height="80">
<path d="M86 1 L85 2 L84 2 L84 3 L83 4 L81 4 L80 6 L77 6 L78 8 L77 9 L77 9 L76 9 L72 9 L70 8 L70 9 L70 9 L67 9 L67 9 L64 10 L64 11 L64 11 L63 11 L62 11 L62 10 L61 10 L61 9 L60 8 L56 8 L55 7 L52 6 L49 6 L49 11 L49 11 L47 9 L45 10 L45 9 L44 8 L43 7 L44 7 L44 6 L46 6 L46 4 L44 4 L41 5 L41 5 L41 4 L40 3 L39 3 L38 2 L40 0 L41 1 L41 -0 L43 -1 L45 -1 L49 -0 L50 -1 L52 -1 L54 -0 L54 -0 L56 -0 L56 -1 L54 -2 L55 -2 L55 -3 L56 -3 L55 -4 L56 -4 L60 -4 L64 -6 L67 -5 L67 -4 L68 -4 L70 -4 L70 -3 L71 -4 L74 -5 L73 -4 L75 -3 L77 -0 L78 -1 L79 -0 L81 -1 L83 1 L85 1 L86 1 Z" fill="#444444" stroke="#222222" stroke-width="0.3"/>
<path d="M49 11 L49 6 L52 6 L55 7 L56 8 L60 8 L61 9 L61 10 L62 10 L62 11 L63 11 L64 11 L64 11 L64 10 L67 9 L67 10 L66 10 L67 11 L68 10 L69 11 L68 12 L66 12 L66 11 L65 11 L64 13 L63 13 L63 13 L63 13 L64 14 L63 15 L62 15 L62 14 L59 13 L57 12 L56 11 L55 11 L54 10 L54 10 L52 9 L50 10 L51 11 L49 11 Z" fill="#444444" stroke="#222222" stroke-width="0.3"/>
<path d="M147 61 L152 63 L153 64 L153 65 L155 65 L155 66 L154 66 L155 67 L156 68 L156 69 L157 69 L157 69 L159 70 L159 70 L155 70 L154 69 L153 68 L152 67 L150 68 L150 69 L149 69 L148 69 L147 61 Z M161 62 L161 63 L161 64 L161 63 L159 61 L159 61 L161 62 Z M160 65 L158 66 L156 65 L156 65 L158 65 L158 64 L158 65 L159 65 L160 64 L160 63 L160 63 L161 64 L160 65 Z M163 64 L165 66 L165 66 L164 66 L163 64 Z" fill="#444444" stroke="#222222" stroke-width="0.3"/>
<path d="M147 61 L148 69 L146 68 L145 68 L145 68 L144 68 L144 67 L145 67 L144 64 L141 63 L139 62 L138 63 L138 62 L137 62 L139 61 L139 61 L137 61 L137 60 L136 60 L135 59 L138 59 L139 59 L140 61 L141 62 L142 61 L143 60 L144 60 L147 61 Z M129 69 L129 69 L128 70 L127 70 L128 69 L129 69 Z M140 66 L140 65 L140 65 L140 65 L140 66 Z M121 53 L120 55 L121 56 L121 56 L122 57 L121 57 L120 58 L120 59 L119 60 L119 63 L119 62 L117 63 L117 62 L115 62 L114 62 L114 62 L112 62 L112 60 L111 59 L111 58 L111 57 L111 56 L112 57 L112 57 L114 57 L115 57 L116 57 L117 57 L118 53 L121 53 Z M133 62 L135 62 L136 63 L135 62 L132 62 L133 62 Z M131 63 L130 62 L130 62 L131 62 L132 62 L131 63 Z M132 56 L132 56 L133 56 L133 57 L133 58 L133 58 L132 59 L133 59 L133 59 L132 57 L132 56 Z M124 57 L128 57 L129 56 L129 57 L128 58 L128 58 L123 58 L123 59 L124 60 L125 59 L127 59 L127 59 L127 59 L126 60 L125 60 L126 62 L126 62 L127 64 L127 64 L126 65 L126 64 L126 63 L125 64 L125 64 L125 63 L124 62 L124 61 L124 62 L124 65 L123 65 L123 64 L123 63 L123 62 L122 62 L122 61 L123 58 L124 57 Z M124 70 L122 69 L123 69 L124 70 L124 70 Z M124 68 L126 68 L127 68 L126 68 L123 68 L123 68 L124 68 Z M121 68 L122 68 L122 68 L119 69 L120 68 L121 68 L121 68 Z M110 66 L110 66 L112 66 L113 66 L115 66 L115 67 L117 67 L118 68 L117 68 L116 68 L110 67 L108 67 L107 66 L106 66 L107 65 L110 66 Z M105 60 L106 61 L107 61 L107 62 L107 65 L106 65 L103 63 L99 58 L99 56 L95 53 L95 52 L97 52 L101 56 L102 56 L103 57 L104 58 L105 58 L104 59 L105 60 Z" fill="#444444" stroke="#222222" stroke-width="0.3"/>
<path d="M129 69 L130 68 L132 68 L129 69 L129 69 Z" fill="#444444" stroke="#222222" stroke-width="0.3"/>
<path d="M26 20 L26 21 L25 21 L25 21 L25 22 L25 22 L26 22 L26 22 L25 24 L24 22 L25 20 L26 20 Z" fill="#444444" stroke="#222222" stroke-width="0.3"/>
<path d="M26 20 L25 20 L26 18 L27 18 L27 19 L26 20 Z" fill="#444444" stroke="#222222" stroke-width="0.3"/>
<path d="M26 22 L25 22 L25 22 L25 21 L25 21 L26 21 L26 22 Z" fill="#444444" stroke="#222222" stroke-width="0.3"/>
<path d="M25 24 L26 21 L27 21 L30 20 L30 21 L27 22 L29 23 L26 25 L25 24 Z" fill="#444444" stroke="#222222" stroke-width="0.3"/>
<path d="M44 30 L45 31 L47 30 L49 28 L50 29 L50 29 L49 29 L49 30 L49 31 L48 32 L45 32 L44 30 Z" fill="#444444" stroke="#222222" stroke-width="0.3"/>
<path d="M43 30 L43 29 L44 28 L44 29 L44 30 L43 30 Z" fill="#444444" stroke="#222222" stroke-width="0.3"/>
<path d="M40 24 L41 25 L40 25 L40 25 L39 25 L39 24 L40 24 Z" fill="#444444" stroke="#222222" stroke-width="0.3"/>
<path d="M30 21 L30 20 L32 19 L32 16 L34 15 L36 16 L36 15 L37 17 L38 17 L38 18 L37 18 L37 19 L38 20 L39 21 L40 22 L40 22 L40 22 L40 23 L41 24 L39 24 L39 25 L36 25 L33 22 L30 21 Z" fill="#444444" stroke="#222222" stroke-width="0.3"/>
<path d="M48 32 L49 31 L49 30 L49 29 L50 29 L51 31 L53 31 L54 33 L52 35 L52 35 L51 36 L50 37 L50 38 L49 38 L48 39 L46 39 L45 36 L48 35 L49 33 L48 32 Z M50 29 L49 28 L50 28 L50 28 L50 29 Z" fill="#444444" stroke="#222222" stroke-width="0.3"/>
<path d="M103 44 L103 43 L104 42 L105 42 L107 42 L108 41 L109 42 L109 43 L109 44 L107 45 L107 46 L105 46 L104 46 L103 44 Z" fill="#444444" stroke="#222222" stroke-width="0.3"/>
<path d="M106 42 L104 42 L103 43 L103 44 L102 44 L101 44 L101 43 L100 43 L100 44 L99 47 L99 48 L100 48 L101 50 L103 51 L102 52 L102 52 L101 51 L100 51 L100 51 L98 49 L98 49 L98 49 L99 47 L100 45 L99 42 L98 41 L99 40 L97 37 L98 37 L98 36 L99 35 L100 35 L101 35 L101 36 L102 36 L101 38 L103 37 L104 38 L104 37 L105 37 L106 38 L106 39 L107 40 L106 42 Z" fill="#444444" stroke="#222222" stroke-width="0.3"/>
<path d="M109 42 L108 41 L107 42 L106 42 L107 40 L106 39 L106 38 L105 37 L104 37 L104 38 L103 37 L101 38 L102 36 L101 36 L101 35 L100 35 L102 34 L102 34 L102 32 L103 32 L104 34 L105 34 L106 35 L105 36 L106 37 L109 40 L109 41 L109 42 Z" fill="#444444" stroke="#222222" stroke-width="0.3"/>
<path d="M102 34 L99 35 L98 36 L98 37 L97 37 L99 40 L98 41 L99 42 L100 45 L99 47 L99 45 L98 44 L98 43 L98 43 L97 39 L95 40 L93 40 L94 38 L94 37 L93 36 L93 35 L92 35 L91 34 L91 33 L92 34 L92 33 L92 33 L92 30 L93 31 L95 28 L95 28 L96 27 L97 27 L97 26 L98 26 L99 27 L99 28 L98 29 L97 31 L99 30 L99 32 L100 32 L99 33 L101 33 L102 33 L102 34 Z" fill="#444444" stroke="#222222" stroke-width="0.3"/>
<path d="M105 46 L107 46 L107 45 L109 44 L109 41 L109 40 L106 37 L105 36 L106 35 L105 34 L104 34 L103 32 L105 32 L106 31 L108 32 L108 33 L108 33 L109 33 L108 34 L107 36 L109 39 L110 41 L111 43 L111 45 L106 48 L106 48 L106 47 L105 46 Z" fill="#444444" stroke="#222222" stroke-width="0.3"/>
<path d="M136 10 L136 10 L136 10 L136 10 Z M135 9 L136 10 L135 9 L134 10 L134 11 L132 12 L132 13 L133 14 L133 14 L129 15 L129 14 L129 13 L128 12 L129 11 L131 10 L133 10 L133 10 L134 9 L135 9 Z" fill="#444444" stroke="#222222" stroke-width="0.3"/>
<path d="M130 15 L133 14 L134 16 L134 17 L134 18 L131 19 L131 17 L130 16 L131 16 L130 15 Z" fill="#444444" stroke="#222222" stroke-width="0.3"/>
<path d="M86 1 L91 -0 L93 0 L94 1 L97 1 L98 0 L98 -1 L99 -2 L103 -1 L103 -0 L104 0 L108 0 L110 1 L112 2 L115 1 L117 0 L118 1 L119 1 L118 3 L118 3 L120 3 L121 3 L123 4 L123 4 L120 4 L119 5 L116 7 L114 6 L113 7 L114 8 L112 9 L107 10 L106 10 L101 9 L96 9 L95 7 L93 6 L90 6 L89 5 L90 4 L89 3 L86 2 L86 1 Z" fill="#444444" stroke="#222222" stroke-width="0.3"/>
<path d="M97 26 L97 27 L96 27 L95 28 L95 28 L93 31 L92 30 L92 33 L92 33 L91 31 L91 31 L91 32 L90 31 L91 29 L89 29 L88 28 L87 28 L87 29 L87 29 L86 30 L87 30 L87 31 L88 33 L87 33 L85 33 L85 34 L85 35 L83 36 L80 39 L80 39 L77 40 L77 41 L77 43 L77 44 L77 46 L76 46 L76 47 L76 48 L75 48 L74 49 L73 48 L72 45 L71 44 L71 41 L70 40 L69 34 L67 34 L66 34 L65 33 L65 32 L65 32 L63 31 L64 30 L67 30 L66 28 L65 27 L66 26 L68 26 L71 23 L71 22 L72 21 L71 20 L70 19 L70 18 L73 18 L75 17 L76 19 L76 20 L76 20 L76 21 L75 21 L76 22 L78 23 L78 24 L77 25 L81 27 L82 27 L83 27 L86 28 L86 26 L87 26 L87 27 L88 27 L91 27 L91 27 L91 26 L92 26 L94 24 L95 25 L96 24 L96 25 L96 25 L97 26 Z" fill="#444444" stroke="#222222" stroke-width="0.3"/>
<path d="M91 31 L92 34 L91 33 L91 34 L90 32 L89 32 L89 33 L88 33 L87 31 L87 30 L86 30 L87 29 L87 29 L87 28 L88 28 L89 29 L91 29 L90 31 L91 32 L91 31 L91 31 Z" fill="#444444" stroke="#222222" stroke-width="0.3"/>
<path d="M89 26 L91 27 L91 27 L88 27 L87 27 L88 26 L89 26 Z" fill="#444444" stroke="#222222" stroke-width="0.3"/>
<path d="M86 26 L86 28 L85 28 L83 27 L82 27 L81 27 L77 25 L78 24 L79 23 L84 26 L86 26 Z" fill="#444444" stroke="#222222" stroke-width="0.3"/>
<path d="M75 17 L73 18 L70 18 L70 19 L71 20 L72 21 L71 22 L71 23 L68 26 L66 26 L65 27 L66 28 L67 30 L64 30 L63 31 L63 31 L61 29 L56 29 L56 28 L58 27 L58 27 L57 27 L57 26 L56 25 L55 24 L57 24 L60 24 L61 24 L61 23 L62 22 L65 21 L65 21 L65 20 L66 20 L65 19 L67 19 L67 18 L67 17 L68 16 L72 15 L72 16 L73 17 L75 17 Z" fill="#444444" stroke="#222222" stroke-width="0.3"/>
<path d="M61 15 L63 16 L64 15 L65 15 L65 15 L66 15 L66 14 L67 14 L67 15 L68 16 L69 15 L71 15 L72 15 L68 16 L67 17 L67 18 L67 19 L65 19 L66 20 L65 20 L65 21 L65 21 L62 22 L61 23 L61 24 L60 24 L57 24 L55 24 L56 23 L56 22 L55 22 L55 20 L55 20 L55 19 L55 17 L57 18 L57 17 L58 17 L59 16 L59 15 L60 15 L61 15 Z" fill="#444444" stroke="#222222" stroke-width="0.3"/>
<path d="M63 15 L64 14 L63 13 L63 13 L63 13 L64 13 L65 11 L66 11 L66 12 L67 12 L66 12 L65 12 L65 13 L70 13 L70 14 L71 14 L71 15 L69 15 L68 16 L67 15 L67 14 L66 14 L66 15 L65 15 L65 15 L63 15 Z" fill="#444444" stroke="#222222" stroke-width="0.3"/>
<path d="M67 9 L67 9 L68 9 L70 9 L70 9 L70 8 L72 9 L76 9 L77 9 L75 11 L74 11 L73 12 L71 12 L70 12 L70 12 L70 13 L65 13 L65 12 L68 12 L69 11 L68 10 L67 11 L66 10 L67 10 L67 9 Z" fill="#444444" stroke="#222222" stroke-width="0.3"/>
<path d="M45 10 L47 9 L49 11 L51 11 L50 10 L52 9 L54 10 L54 10 L55 11 L56 11 L57 12 L59 13 L62 14 L62 15 L61 15 L60 15 L59 15 L59 16 L57 18 L55 17 L55 16 L54 16 L53 15 L51 14 L49 14 L48 15 L47 15 L47 13 L46 13 L46 12 L46 12 L46 11 L47 11 L48 11 L47 10 L46 10 L46 11 L45 10 Z" fill="#444444" stroke="#222222" stroke-width="0.3"/>
<path d="M41 24 L40 23 L40 22 L40 22 L40 22 L39 21 L38 20 L37 19 L37 18 L38 18 L38 17 L37 17 L36 14 L36 14 L36 13 L36 12 L37 13 L38 14 L40 13 L41 13 L40 13 L41 14 L42 15 L43 16 L45 16 L47 16 L49 14 L50 14 L53 15 L54 16 L55 16 L55 17 L55 19 L55 20 L55 20 L55 22 L56 22 L56 23 L55 24 L56 25 L57 26 L57 27 L58 27 L58 27 L56 28 L56 29 L51 29 L51 27 L50 27 L48 28 L47 27 L45 26 L44 26 L43 23 L42 24 L41 23 L41 24 Z" fill="#444444" stroke="#222222" stroke-width="0.3"/>
<path d="M26 21 L26 19 L27 19 L27 18 L26 18 L26 17 L27 16 L27 16 L30 16 L34 15 L32 16 L32 19 L27 21 L26 21 Z" fill="#444444" stroke="#222222" stroke-width="0.3"/>
<path d="M38 14 L38 14 L38 13 L35 12 L35 11 L37 11 L37 11 L37 11 L38 12 L37 12 L38 13 L38 14 Z" fill="#444444" stroke="#222222" stroke-width="0.3"/>
<path d="M36 15 L36 16 L34 15 L30 16 L27 16 L27 16 L26 17 L26 16 L27 16 L25 16 L24 16 L22 17 L21 16 L20 16 L20 16 L19 17 L18 16 L17 16 L15 14 L16 13 L15 13 L16 12 L18 12 L19 11 L21 11 L23 10 L25 10 L29 11 L31 11 L33 10 L34 10 L35 11 L35 12 L36 12 L36 13 L36 14 L36 14 L36 15 Z M15 10 L16 10 L17 10 L17 10 L18 11 L18 11 L17 11 L15 12 L15 11 L15 10 L15 10 Z" fill="#444444" stroke="#222222" stroke-width="0.3"/>
<path d="M154 106 L156 105 L156 107 L155 108 L155 108 L154 109 L153 109 L152 106 L152 105 L154 106 Z M130 95 L128 96 L127 97 L123 97 L121 99 L119 99 L118 98 L118 97 L118 97 L118 95 L118 92 L116 88 L116 89 L116 88 L117 89 L116 86 L116 85 L116 84 L117 83 L117 84 L117 83 L119 82 L120 82 L122 81 L124 81 L126 79 L126 78 L127 77 L127 78 L128 78 L127 77 L128 77 L128 77 L128 76 L130 75 L130 75 L130 75 L131 74 L133 75 L134 76 L134 75 L135 74 L135 73 L136 73 L136 72 L138 72 L138 72 L137 71 L138 71 L141 72 L142 72 L143 73 L142 74 L142 74 L142 74 L141 76 L147 79 L147 78 L148 77 L148 76 L148 73 L149 71 L150 73 L151 75 L152 75 L153 76 L153 77 L154 80 L157 82 L156 82 L158 84 L158 84 L158 84 L159 84 L159 85 L161 87 L161 90 L162 91 L161 95 L161 96 L160 96 L158 99 L158 101 L157 102 L156 102 L154 103 L152 103 L152 102 L150 103 L147 102 L146 101 L146 100 L145 99 L144 99 L145 99 L144 98 L144 99 L143 99 L144 97 L144 96 L142 98 L142 99 L141 98 L141 97 L140 96 L140 96 L136 95 L130 95 Z" fill="#444444" stroke="#222222" stroke-width="0.3"/>
<path d="M79 50 L79 51 L77 51 L77 50 L77 49 L77 47 L78 48 L79 50 Z" fill="#444444" stroke="#222222" stroke-width="0.3"/>
<path d="M111 37 L110 37 L110 36 L111 35 L113 35 L113 36 L112 37 L111 37 Z M77 9 L77 9 L78 8 L77 6 L80 6 L81 4 L83 4 L84 3 L84 2 L85 2 L86 1 L86 2 L89 3 L90 4 L89 5 L90 6 L93 6 L95 7 L96 9 L101 9 L106 10 L107 10 L111 9 L114 8 L113 7 L114 6 L116 7 L119 5 L120 4 L123 4 L123 4 L121 3 L120 3 L118 3 L118 3 L119 1 L121 1 L122 0 L122 -0 L124 -2 L124 -2 L123 -3 L124 -3 L126 -3 L127 -3 L130 -3 L132 1 L134 1 L135 2 L136 3 L138 3 L141 2 L138 6 L137 6 L136 6 L136 7 L136 9 L136 9 L136 9 L135 9 L134 9 L133 10 L133 10 L131 10 L128 12 L124 13 L125 13 L125 12 L126 12 L125 11 L123 12 L122 13 L121 13 L120 14 L121 14 L122 15 L122 15 L123 15 L124 15 L126 15 L126 16 L125 16 L122 18 L124 19 L125 22 L125 23 L125 23 L125 23 L126 24 L125 26 L125 26 L122 30 L119 32 L117 32 L117 33 L116 32 L115 33 L113 34 L112 35 L112 35 L111 34 L112 34 L108 33 L108 33 L108 32 L106 31 L105 32 L103 32 L102 32 L102 34 L102 34 L102 33 L101 33 L99 33 L100 32 L99 32 L99 30 L97 31 L98 29 L99 28 L99 27 L98 26 L96 25 L96 25 L96 24 L95 25 L94 24 L92 26 L91 26 L89 26 L87 27 L87 26 L86 26 L84 26 L82 25 L82 24 L80 24 L79 23 L78 23 L76 22 L75 21 L76 21 L76 20 L76 20 L76 19 L75 17 L73 17 L72 16 L71 15 L71 14 L70 14 L70 13 L70 12 L70 12 L71 12 L73 12 L74 11 L75 11 L77 9 Z" fill="#444444" stroke="#222222" stroke-width="0.3"/>
<path d="M126 29 L125 32 L124 33 L123 31 L125 29 L126 29 Z" fill="#444444" stroke="#222222" stroke-width="0.3"/>
<path d="M38 10 L40 11 L41 10 L42 11 L43 12 L42 12 L41 14 L40 13 L41 13 L40 13 L38 14 L38 13 L37 12 L38 12 L37 11 L38 11 L38 10 L38 10 Z M38 14 L37 13 L36 12 L38 13 L38 14 Z" fill="#444444" stroke="#222222" stroke-width="0.3"/>
<path d="M31 8 L34 8 L35 9 L37 9 L38 10 L38 10 L39 11 L37 10 L35 11 L34 10 L33 10 L33 9 L31 8 Z" fill="#444444" stroke="#222222" stroke-width="0.3"/>
<path d="M125 44 L124 43 L125 43 L125 43 L125 44 Z M126 47 L127 46 L127 46 L127 46 L128 45 L128 46 L127 48 L126 47 Z M130 48 L131 50 L130 51 L130 50 L129 50 L130 51 L129 52 L128 51 L128 50 L128 50 L127 49 L126 50 L125 50 L126 49 L127 48 L128 49 L129 48 L129 48 L130 48 L129 47 L130 48 Z M123 46 L120 49 L123 45 L123 46 Z M126 37 L126 38 L126 39 L126 39 L125 40 L125 42 L126 42 L128 42 L128 44 L127 43 L126 43 L126 42 L124 42 L124 41 L124 41 L124 42 L123 40 L123 39 L124 40 L124 37 L125 37 L126 37 Z M126 46 L125 45 L127 45 L127 45 L126 46 Z M129 44 L130 46 L129 45 L129 46 L129 47 L129 46 L128 46 L128 45 L129 45 L129 45 L128 44 L129 44 Z" fill="#444444" stroke="#222222" stroke-width="0.3"/>
<path d="M100 52 L100 51 L101 51 L102 52 L102 52 L103 51 L104 52 L104 53 L104 55 L105 57 L104 57 L102 55 L100 52 Z M121 53 L118 53 L117 57 L116 57 L115 57 L114 57 L112 57 L112 57 L111 56 L112 56 L113 56 L113 55 L115 55 L117 53 L117 54 L117 53 L118 53 L118 52 L119 50 L120 50 L121 51 L122 52 L122 52 L121 53 L122 53 L121 53 Z" fill="#444444" stroke="#222222" stroke-width="0.3"/>
<path d="M118 52 L118 53 L117 53 L117 54 L117 53 L118 52 Z" fill="#444444" stroke="#222222" stroke-width="0.3"/>
<path d="M149 13 L147 14 L147 15 L147 16 L147 17 L147 18 L145 18 L143 18 L141 20 L141 19 L141 18 L136 19 L137 20 L136 22 L136 22 L135 22 L135 21 L135 21 L134 20 L135 19 L138 17 L140 17 L141 17 L143 15 L143 16 L146 14 L146 13 L146 11 L147 11 L148 11 L149 12 L149 13 Z M152 8 L152 7 L153 8 L151 9 L150 10 L148 9 L148 10 L146 10 L146 9 L147 8 L148 8 L149 6 L150 7 L152 8 Z M138 20 L138 19 L139 19 L139 19 L140 19 L140 19 L140 20 L139 20 L139 20 L138 21 L138 20 L138 20 Z" fill="#444444" stroke="#222222" stroke-width="0.3"/>
<path d="M45 36 L46 39 L45 39 L45 40 L42 41 L41 42 L37 43 L37 44 L35 44 L34 41 L35 38 L35 38 L39 38 L39 39 L40 39 L40 37 L41 37 L45 36 Z" fill="#cc3333" stroke="#222222" stroke-width="0.3"/>
<path d="M25 24 L26 25 L27 24 L28 24 L29 23 L27 22 L30 21 L33 22 L36 25 L40 25 L40 25 L41 25 L41 26 L43 27 L43 29 L43 30 L44 30 L45 32 L48 32 L48 32 L49 33 L48 35 L45 36 L41 37 L40 37 L40 39 L39 39 L39 38 L35 38 L35 38 L35 39 L34 39 L32 36 L31 35 L30 34 L30 32 L29 31 L28 30 L27 29 L25 26 L25 26 L25 24 Z" fill="#444444" stroke="#222222" stroke-width="0.3"/>
<path d="M23 18 L23 17 L25 17 L24 18 L23 18 Z" fill="#444444" stroke="#222222" stroke-width="0.3"/>
<path d="M22 18 L23 18 L24 18 L23 18 L22 18 Z" fill="#444444" stroke="#222222" stroke-width="0.3"/>
</svg>