<svg xmlns="http://www.w3.org/2000/svg" viewBox="0 0 80 80" width="80" height="80">
<path d="M50 21 L56 24 L56 25 L58 27 L57 29 L57 30 L58 30 L58 33 L60 36 L59 36 L54 38 L51 37 L50 35 L49 34 L45 32 L44 31 L43 30 L43 26 L43 26 L45 25 L44 23 L45 23 L45 22 L44 21 L50 21 Z" fill="#444444" stroke="#222222" stroke-width="0.3"/>
<path d="M-17 -24 L-17 -21 L-22 -21 L-22 -17 L-24 -17 L-24 -16 L-24 -14 L-30 -14 L-30 -14 L-30 -14 L-27 -14 L-25 -18 L-23 -19 L-22 -21 L-22 -22 L-21 -23 L-17 -23 L-17 -24 Z" fill="#444444" stroke="#222222" stroke-width="0.3"/>
<path d="M42 24 L43 30 L44 31 L45 32 L42 33 L41 34 L42 34 L41 38 L43 39 L43 38 L43 40 L42 40 L41 39 L40 38 L39 38 L38 38 L37 38 L36 37 L35 37 L35 37 L31 37 L31 31 L29 31 L29 30 L28 30 L27 31 L26 32 L24 32 L22 29 L16 29 L16 28 L16 27 L18 26 L19 26 L19 27 L22 25 L22 24 L22 22 L24 20 L26 13 L27 12 L32 13 L32 12 L33 12 L35 11 L36 12 L37 11 L40 11 L40 12 L41 13 L43 12 L45 14 L45 16 L45 16 L43 18 L42 24 Z" fill="#444444" stroke="#222222" stroke-width="0.3"/>
<path d="M62 22 L61 21 L61 15 L63 13 L64 13 L65 12 L67 12 L73 5 L73 2 L77 1 L77 3 L76 5 L73 11 L70 15 L64 19 L62 22 Z" fill="#444444" stroke="#222222" stroke-width="0.3"/>
<path d="M58 27 L56 25 L56 24 L50 21 L50 19 L52 16 L50 13 L52 11 L53 11 L53 12 L53 12 L54 12 L56 14 L59 14 L61 13 L61 13 L62 13 L61 15 L61 21 L62 22 L60 23 L59 26 L58 27 Z" fill="#444444" stroke="#222222" stroke-width="0.3"/>
<path d="M35 7 L34 6 L33 5 L34 4 L33 3 L32 -0 L31 -0 L32 -3 L32 -3 L33 -5 L34 -5 L34 -12 L36 -12 L36 -15 L54 -15 L55 -10 L57 -9 L54 -7 L53 -2 L51 2 L50 3 L50 6 L49 3 L49 3 L49 0 L48 0 L47 1 L47 2 L46 4 L45 4 L44 3 L42 5 L39 5 L37 3 L36 3 L35 5 L34 6 L35 7 Z" fill="#444444" stroke="#222222" stroke-width="0.3"/>
<path d="M34 -11 L34 -5 L33 -5 L32 -3 L32 -3 L31 -0 L32 -0 L32 2 L31 3 L30 5 L28 5 L26 5 L26 6 L25 7 L21 8 L21 7 L20 6 L18 4 L19 4 L21 4 L20 2 L19 -1 L18 -2 L18 -3 L18 -3 L18 -5 L20 -7 L22 -13 L20 -14 L20 -16 L21 -17 L34 -11 Z" fill="#444444" stroke="#222222" stroke-width="0.3"/>
<path d="M22 64 L23 63 L24 65 L26 65 L28 64 L28 58 L29 60 L29 61 L30 61 L33 59 L35 60 L37 59 L37 58 L38 58 L39 56 L43 54 L45 54 L47 58 L47 60 L45 60 L45 61 L46 62 L47 62 L47 61 L48 61 L47 64 L41 71 L37 73 L32 72 L28 74 L25 73 L25 71 L25 70 L25 69 L22 64 Z" fill="#444444" stroke="#222222" stroke-width="0.3"/>
<path d="M41 64 L43 65 L42 67 L41 67 L40 67 L39 66 L41 65 L41 64 Z" fill="#444444" stroke="#222222" stroke-width="0.3"/>
<path d="M45 54 L43 54 L41 53 L40 52 L38 50 L36 47 L39 48 L42 45 L44 44 L44 44 L45 44 L48 46 L48 51 L45 54 Z" fill="#444444" stroke="#222222" stroke-width="0.3"/>
<path d="M43 54 L39 56 L38 58 L37 58 L37 59 L35 60 L33 59 L30 61 L29 61 L29 60 L28 58 L28 54 L29 54 L29 48 L33 47 L34 48 L36 47 L38 50 L40 52 L41 53 L43 54 Z" fill="#444444" stroke="#222222" stroke-width="0.3"/>
<path d="M28 54 L28 64 L26 65 L24 65 L23 63 L22 64 L20 62 L19 54 L15 48 L15 47 L18 46 L19 47 L25 47 L26 47 L30 48 L34 47 L36 47 L34 48 L33 47 L29 48 L29 54 L28 54 Z" fill="#444444" stroke="#222222" stroke-width="0.3"/>
<path d="M-30 -2 L-31 -4 L-30 -4 L-29 -6 L-26 -7 L-24 -6 L-22 -4 L-21 -0 L-28 -0 L-30 -0 L-30 -1 L-25 -2 L-25 -2 L-26 -2 L-27 -2 L-30 -2 Z" fill="#444444" stroke="#222222" stroke-width="0.3"/>
<path d="M-21 0 L-22 -4 L-22 -5 L-20 -4 L-18 -5 L-12 -5 L-12 -6 L-14 -20 L-11 -20 L-1 -13 L-0 -12 L2 -11 L2 -10 L3 -11 L3 -7 L2 -5 L-1 -5 L-2 -4 L-5 -4 L-8 -2 L-10 -2 L-12 1 L-12 3 L-13 4 L-13 3 L-14 4 L-16 3 L-16 2 L-17 2 L-17 2 L-18 0 L-19 1 L-21 0 L-21 0 Z" fill="#444444" stroke="#222222" stroke-width="0.3"/>
<path d="M-30 -14 L-30 -14 L-24 -14 L-24 -16 L-24 -17 L-22 -17 L-22 -21 L-17 -21 L-17 -24 L-11 -20 L-14 -20 L-12 -6 L-12 -5 L-18 -5 L-20 -4 L-22 -5 L-22 -4 L-24 -6 L-26 -7 L-29 -6 L-29 -6 L-29 -9 L-29 -12 L-30 -14 Z" fill="#444444" stroke="#222222" stroke-width="0.3"/>
<path d="M1 10 L-0 10 L-1 5 L-2 3 L-1 1 L1 0 L2 1 L3 3 L2 4 L1 6 L1 10 Z" fill="#444444" stroke="#222222" stroke-width="0.3"/>
<path d="M20 -16 L20 -14 L22 -13 L20 -7 L18 -5 L18 -3 L18 -3 L18 -2 L19 -1 L19 -0 L17 -2 L16 -1 L14 -2 L11 -1 L9 -2 L7 -1 L5 -2 L3 -2 L2 1 L1 0 L-0 1 L0 -0 L-2 -1 L-3 -3 L-3 -4 L2 -5 L3 -7 L3 -11 L5 -11 L15 -17 L18 -17 L19 -16 L20 -16 Z" fill="#444444" stroke="#222222" stroke-width="0.3"/>
<path d="M1 10 L1 6 L2 4 L2 -0 L3 -2 L5 -2 L7 -1 L9 -2 L11 -1 L14 -2 L16 -1 L17 -2 L19 0 L18 2 L15 8 L14 9 L12 8 L11 9 L10 12 L6 13 L3 10 L1 10 Z" fill="#444444" stroke="#222222" stroke-width="0.3"/>
<path d="M19 -1 L20 0 L20 2 L21 4 L19 4 L18 4 L20 6 L21 7 L19 10 L19 12 L21 15 L22 17 L19 16 L12 16 L12 15 L10 12 L10 11 L11 9 L12 8 L14 9 L15 8 L18 2 L19 1 L19 0 L19 -0 L19 -1 Z" fill="#444444" stroke="#222222" stroke-width="0.3"/>
<path d="M-2 2 L-2 3 L-1 5 L-0 10 L-2 10 L-3 9 L-2 6 L-3 3 L-3 3 L-3 2 L-2 2 Z" fill="#444444" stroke="#222222" stroke-width="0.3"/>
<path d="M-3 2 L-2 6 L-3 9 L-2 10 L-6 12 L-8 12 L-8 10 L-7 7 L-8 2 L-3 2 Z" fill="#444444" stroke="#222222" stroke-width="0.3"/>
<path d="M-16 3 L-14 4 L-13 3 L-13 4 L-12 3 L-10 4 L-9 4 L-8 4 L-7 7 L-8 10 L-8 12 L-11 11 L-15 13 L-15 10 L-17 9 L-16 6 L-16 6 L-16 4 L-16 3 Z" fill="#444444" stroke="#222222" stroke-width="0.3"/>
<path d="M-25 -0 L-21 -0 L-21 0 L-21 0 L-19 1 L-18 0 L-17 2 L-17 2 L-16 2 L-16 3 L-16 4 L-16 6 L-16 6 L-16 7 L-18 8 L-19 6 L-20 6 L-20 5 L-21 4 L-23 4 L-24 5 L-27 2 L-26 1 L-25 1 L-25 -0 Z" fill="#444444" stroke="#222222" stroke-width="0.3"/>
<path d="M-30 -0 L-25 -0 L-25 1 L-26 1 L-27 2 L-29 1 L-30 -0 Z" fill="#444444" stroke="#222222" stroke-width="0.3"/>
<path d="M-17 7 L-17 9 L-15 10 L-15 13 L-18 12 L-21 9 L-19 6 L-19 6 L-18 8 L-17 7 Z" fill="#444444" stroke="#222222" stroke-width="0.3"/>
<path d="M-24 5 L-23 4 L-21 4 L-20 5 L-20 6 L-19 6 L-21 9 L-24 7 L-24 5 Z" fill="#444444" stroke="#222222" stroke-width="0.3"/>
<path d="M-12 3 L-12 1 L-10 -0 L-10 -1 L-8 -2 L-5 -4 L-3 -4 L-3 -3 L-2 -1 L0 -0 L-0 1 L-2 2 L-8 2 L-8 4 L-9 4 L-10 4 L-12 3 Z" fill="#444444" stroke="#222222" stroke-width="0.3"/>
<path d="M40 11 L37 11 L35 12 L35 11 L33 12 L32 12 L32 13 L27 12 L26 13 L26 14 L23 14 L22 16 L21 15 L19 12 L19 11 L19 10 L21 8 L25 7 L26 6 L26 5 L28 5 L30 5 L31 3 L32 2 L34 4 L33 5 L36 7 L38 10 L40 11 Z" fill="#444444" stroke="#222222" stroke-width="0.3"/>
<path d="M26 14 L24 20 L22 22 L22 24 L22 25 L19 27 L19 26 L18 26 L17 27 L16 26 L15 27 L14 26 L15 25 L15 24 L16 23 L16 22 L17 23 L19 23 L19 21 L19 20 L18 19 L19 18 L17 17 L17 16 L22 17 L23 14 L23 14 L26 14 Z" fill="#444444" stroke="#222222" stroke-width="0.3"/>
<path d="M14 16 L17 16 L17 17 L19 18 L18 19 L19 20 L19 21 L19 23 L17 23 L16 22 L16 23 L15 24 L15 25 L14 26 L10 21 L11 18 L14 18 L14 16 Z" fill="#444444" stroke="#222222" stroke-width="0.3"/>
<path d="M12 16 L14 16 L14 18 L11 18 L11 18 L12 16 Z" fill="#444444" stroke="#222222" stroke-width="0.3"/>
<path d="M45 32 L49 35 L49 36 L49 38 L49 39 L48 41 L49 41 L44 43 L44 44 L42 45 L39 48 L36 47 L35 47 L33 47 L31 45 L31 40 L34 40 L34 37 L35 37 L35 37 L36 37 L37 38 L38 38 L39 38 L40 38 L41 39 L42 40 L43 40 L43 38 L43 39 L41 38 L42 34 L41 34 L42 33 L45 32 Z" fill="#cc3333" stroke="#222222" stroke-width="0.3"/>
<path d="M48 34 L49 34 L50 35 L51 41 L52 41 L53 42 L53 44 L52 45 L52 46 L50 45 L51 42 L48 41 L49 39 L49 38 L49 36 L48 34 Z" fill="#444444" stroke="#222222" stroke-width="0.3"/>
<path d="M51 37 L55 38 L59 36 L60 36 L61 42 L58 46 L55 47 L51 50 L51 52 L52 54 L52 57 L48 59 L48 60 L48 61 L48 61 L47 61 L46 59 L47 58 L45 54 L48 51 L48 46 L45 44 L44 44 L44 43 L49 41 L51 42 L50 45 L52 46 L52 45 L53 44 L53 42 L52 41 L51 41 L50 39 L51 37 Z" fill="#444444" stroke="#222222" stroke-width="0.3"/>
<path d="M47 61 L47 62 L46 62 L45 61 L45 60 L47 60 L47 61 Z" fill="#444444" stroke="#222222" stroke-width="0.3"/>
<path d="M17 27 L16 27 L16 28 L15 27 L16 26 L17 27 Z M16 29 L22 29 L24 32 L26 32 L27 31 L28 30 L29 30 L29 31 L31 31 L31 37 L33 36 L34 37 L34 37 L34 40 L31 40 L31 45 L33 47 L30 48 L26 47 L25 47 L19 47 L18 46 L15 47 L16 42 L18 38 L18 37 L17 34 L17 33 L16 29 Z" fill="#444444" stroke="#222222" stroke-width="0.3"/>
<path d="M44 23 L45 25 L43 26 L43 26 L42 24 L43 24 L44 23 L44 23 Z" fill="#444444" stroke="#222222" stroke-width="0.3"/>
<path d="M74 38 L75 41 L76 44 L75 44 L75 44 L74 44 L75 46 L70 59 L68 60 L66 59 L65 55 L65 53 L65 53 L66 50 L66 47 L66 45 L69 44 L71 42 L72 41 L72 41 L72 41 L74 38 Z" fill="#444444" stroke="#222222" stroke-width="0.3"/>
<path d="M-30 -2 L-27 -2 L-26 -2 L-25 -2 L-25 -2 L-30 -1 L-30 -2 Z" fill="#444444" stroke="#222222" stroke-width="0.3"/>
<path d="M11 -28 L11 -31 L9 -33 L8 -34 L9 -35 L10 -39 L12 -39 L13 -39 L13 -38 L14 -39 L13 -38 L13 -37 L14 -37 L14 -35 L13 -34 L13 -34 L14 -34 L15 -33 L15 -31 L12 -30 L12 -28 L11 -28 Z" fill="#444444" stroke="#222222" stroke-width="0.3"/>
<path d="M-17 -24 L-17 -26 L-12 -28 L-11 -28 L-9 -29 L-9 -30 L-5 -31 L-5 -32 L-7 -36 L-5 -37 L-1 -38 L5 -38 L6 -39 L10 -39 L9 -35 L8 -34 L9 -33 L11 -31 L12 -27 L12 -22 L11 -22 L13 -19 L13 -19 L15 -17 L5 -11 L2 -10 L2 -11 L-0 -12 L-1 -13 L-17 -24 Z" fill="#444444" stroke="#222222" stroke-width="0.3"/>
<path d="M54 -3 L54 -7 L57 -9 L58 -6 L64 -1 L63 -0 L61 -3 L59 -3 L58 -4 L57 -3 L56 -4 L56 -3 L54 -3 Z" fill="#444444" stroke="#222222" stroke-width="0.3"/>
<path d="M-7 -36 L-5 -32 L-5 -31 L-9 -30 L-9 -29 L-11 -28 L-12 -28 L-17 -26 L-17 -23 L-21 -23 L-23 -19 L-25 -18 L-27 -14 L-30 -14 L-28 -18 L-27 -19 L-26 -22 L-25 -22 L-23 -25 L-22 -25 L-18 -28 L-19 -29 L-18 -32 L-17 -33 L-14 -34 L-13 -37 L-12 -37 L-11 -36 L-7 -36 Z" fill="#444444" stroke="#222222" stroke-width="0.3"/>
<path d="M54 -15 L36 -15 L36 -26 L35 -28 L35 -29 L36 -30 L38 -30 L42 -29 L45 -30 L46 -30 L47 -29 L47 -30 L50 -29 L50 -30 L51 -27 L50 -24 L50 -24 L49 -25 L47 -27 L50 -22 L53 -18 L52 -17 L54 -15 Z" fill="#444444" stroke="#222222" stroke-width="0.3"/>
<path d="M36 -26 L36 -12 L34 -12 L34 -11 L21 -17 L19 -16 L18 -17 L15 -17 L13 -19 L13 -19 L11 -22 L12 -22 L12 -26 L11 -28 L12 -28 L12 -30 L15 -31 L15 -33 L20 -31 L21 -30 L27 -28 L28 -29 L28 -30 L29 -32 L32 -32 L33 -31 L36 -31 L36 -30 L35 -29 L35 -28 L36 -26 Z" fill="#444444" stroke="#222222" stroke-width="0.3"/>
<path d="M72 7 L67 12 L65 12 L62 13 L61 13 L61 13 L59 14 L56 14 L54 12 L53 12 L53 12 L53 11 L52 11 L51 9 L49 7 L48 7 L49 6 L50 6 L50 3 L53 -0 L54 -3 L56 -3 L56 -4 L57 -3 L58 -4 L59 -3 L62 -2 L63 -0 L62 1 L62 2 L64 2 L63 3 L65 5 L70 7 L72 7 Z" fill="#444444" stroke="#222222" stroke-width="0.3"/>
<path d="M63 -0 L64 -1 L65 -0 L64 1 L64 1 L64 1 L64 2 L62 2 L62 1 L63 -0 Z" fill="#444444" stroke="#222222" stroke-width="0.3"/>
<path d="M73 2 L73 5 L72 7 L70 7 L65 5 L63 3 L64 1 L66 3 L73 2 Z" fill="#444444" stroke="#222222" stroke-width="0.3"/>
<path d="M50 21 L45 21 L43 22 L43 18 L45 16 L45 16 L45 14 L46 13 L47 14 L49 13 L50 13 L51 14 L52 16 L50 19 L50 21 Z" fill="#444444" stroke="#222222" stroke-width="0.3"/>
<path d="M44 21 L45 22 L45 23 L44 23 L43 24 L42 24 L43 22 L44 21 Z" fill="#444444" stroke="#222222" stroke-width="0.3"/>
<path d="M45 14 L43 12 L40 12 L39 11 L38 10 L38 9 L36 8 L36 7 L34 6 L35 5 L36 3 L37 3 L39 5 L42 5 L44 3 L45 4 L46 4 L47 2 L47 1 L49 0 L49 3 L49 3 L50 6 L50 6 L49 6 L48 7 L49 7 L50 8 L52 11 L49 13 L47 14 L46 13 L45 14 Z" fill="#444444" stroke="#222222" stroke-width="0.3"/>
</svg>