<svg xmlns="http://www.w3.org/2000/svg" viewBox="0 0 80 80" width="80" height="80">
<path d="M48 11 L54 15 L54 16 L56 17 L55 19 L56 20 L57 21 L56 23 L58 26 L57 27 L52 29 L49 28 L48 26 L47 25 L43 23 L42 21 L41 20 L40 17 L41 17 L43 15 L42 14 L43 13 L43 13 L42 12 L48 11 Z" fill="#444444" stroke="#222222" stroke-width="0.3"/>
<path d="M-20 -34 L-20 -32 L-26 -32 L-26 -28 L-27 -27 L-27 -27 L-27 -24 L-33 -24 L-34 -24 L-34 -24 L-30 -25 L-29 -28 L-26 -30 L-26 -32 L-25 -32 L-25 -33 L-21 -34 L-20 -34 Z" fill="#444444" stroke="#222222" stroke-width="0.3"/>
<path d="M40 14 L41 20 L42 21 L43 23 L39 23 L39 24 L39 25 L39 29 L40 30 L41 29 L41 31 L40 31 L39 29 L37 29 L37 28 L36 29 L35 29 L34 28 L32 28 L32 27 L29 28 L28 21 L26 21 L26 21 L26 21 L25 21 L24 23 L21 23 L20 19 L13 20 L13 19 L14 18 L15 17 L16 17 L17 18 L19 15 L19 14 L20 13 L22 11 L23 3 L25 2 L29 3 L30 2 L31 2 L33 2 L34 2 L35 1 L37 1 L38 3 L39 3 L41 2 L43 4 L43 6 L43 6 L41 9 L40 14 Z" fill="#444444" stroke="#222222" stroke-width="0.3"/>
<path d="M60 13 L59 11 L59 5 L61 3 L62 3 L63 2 L65 2 L72 -5 L72 -8 L75 -9 L75 -7 L74 -5 L71 1 L68 5 L63 9 L60 13 Z" fill="#444444" stroke="#222222" stroke-width="0.3"/>
<path d="M56 17 L54 16 L54 15 L48 11 L48 10 L50 7 L48 3 L50 1 L51 1 L51 2 L51 3 L52 3 L54 4 L57 4 L59 3 L59 4 L60 4 L59 5 L59 11 L60 13 L58 14 L57 17 L56 17 Z" fill="#444444" stroke="#222222" stroke-width="0.3"/>
<path d="M33 -3 L32 -4 L31 -4 L31 -6 L30 -7 L29 -10 L29 -10 L30 -13 L29 -13 L30 -15 L32 -15 L32 -22 L34 -22 L34 -25 L52 -25 L53 -20 L55 -19 L52 -17 L52 -12 L49 -8 L48 -7 L48 -4 L47 -7 L47 -7 L47 -10 L46 -10 L45 -9 L45 -8 L44 -6 L43 -6 L42 -7 L40 -5 L36 -5 L35 -7 L34 -7 L33 -4 L32 -4 L33 -3 Z" fill="#444444" stroke="#222222" stroke-width="0.3"/>
<path d="M32 -21 L32 -15 L30 -15 L29 -13 L30 -13 L29 -10 L29 -10 L30 -8 L28 -7 L27 -5 L26 -5 L24 -5 L24 -4 L22 -3 L18 -2 L18 -2 L18 -4 L16 -5 L16 -6 L18 -6 L17 -8 L17 -11 L16 -12 L16 -13 L15 -13 L16 -15 L18 -17 L19 -23 L18 -24 L17 -27 L19 -28 L32 -21 Z" fill="#444444" stroke="#222222" stroke-width="0.3"/>
<path d="M20 55 L20 55 L21 56 L23 56 L25 55 L25 49 L27 51 L27 53 L28 53 L31 50 L32 51 L35 51 L35 49 L36 49 L37 48 L41 45 L43 45 L45 49 L44 51 L43 51 L43 53 L44 53 L44 53 L45 53 L46 53 L45 56 L39 62 L35 64 L30 64 L26 65 L23 64 L22 62 L23 62 L23 60 L20 55 Z" fill="#444444" stroke="#222222" stroke-width="0.3"/>
<path d="M39 56 L40 57 L40 58 L38 59 L38 59 L37 58 L38 56 L39 56 Z" fill="#444444" stroke="#222222" stroke-width="0.3"/>
<path d="M43 45 L41 45 L38 44 L38 43 L35 41 L34 38 L37 38 L40 35 L42 35 L42 35 L43 35 L46 37 L46 42 L43 45 Z" fill="#cc3333" stroke="#222222" stroke-width="0.3"/>
<path d="M41 45 L37 48 L36 49 L35 49 L35 51 L32 51 L31 50 L28 53 L27 53 L27 51 L25 49 L25 45 L27 45 L27 39 L31 38 L31 39 L34 38 L35 41 L38 43 L38 44 L41 45 Z" fill="#444444" stroke="#222222" stroke-width="0.3"/>
<path d="M25 45 L25 55 L23 56 L21 56 L20 55 L20 55 L18 53 L16 45 L12 39 L12 37 L15 37 L16 38 L23 37 L24 38 L28 38 L32 37 L34 38 L31 39 L31 38 L27 39 L27 45 L25 45 Z" fill="#444444" stroke="#222222" stroke-width="0.3"/>
<path d="M-33 -12 L-35 -14 L-34 -14 L-32 -16 L-30 -17 L-28 -16 L-26 -14 L-25 -10 L-31 -10 L-33 -10 L-33 -11 L-29 -12 L-29 -12 L-30 -12 L-31 -12 L-33 -12 Z" fill="#444444" stroke="#222222" stroke-width="0.3"/>
<path d="M-25 -9 L-26 -14 L-25 -15 L-23 -14 L-22 -15 L-15 -15 L-15 -16 L-17 -30 L-14 -30 L-4 -23 L-3 -22 L-1 -22 L-1 -21 L0 -21 L0 -17 L-1 -15 L-4 -15 L-5 -14 L-8 -14 L-11 -12 L-13 -12 L-15 -9 L-15 -7 L-16 -6 L-16 -7 L-17 -6 L-19 -6 L-20 -7 L-20 -7 L-20 -8 L-21 -10 L-23 -9 L-24 -10 L-25 -9 Z" fill="#444444" stroke="#222222" stroke-width="0.3"/>
<path d="M-34 -24 L-33 -24 L-27 -24 L-27 -27 L-27 -27 L-26 -28 L-26 -32 L-20 -32 L-20 -34 L-14 -30 L-17 -30 L-15 -16 L-15 -15 L-22 -15 L-23 -14 L-25 -15 L-26 -14 L-28 -16 L-30 -17 L-32 -16 L-33 -16 L-32 -19 L-32 -22 L-34 -24 Z" fill="#444444" stroke="#222222" stroke-width="0.3"/>
<path d="M-2 -0 L-3 0 L-4 -5 L-5 -7 L-4 -9 L-2 -10 L-1 -9 L-0 -7 L-1 -6 L-2 -4 L-2 -0 Z" fill="#444444" stroke="#222222" stroke-width="0.3"/>
<path d="M17 -27 L18 -24 L19 -23 L18 -17 L16 -15 L15 -13 L16 -13 L16 -12 L17 -11 L16 -10 L14 -12 L13 -11 L11 -12 L8 -11 L6 -12 L4 -11 L2 -12 L0 -12 L-1 -9 L-2 -10 L-3 -9 L-3 -10 L-5 -11 L-6 -13 L-6 -14 L-1 -15 L0 -17 L0 -21 L3 -22 L13 -28 L15 -27 L16 -26 L17 -27 Z" fill="#444444" stroke="#222222" stroke-width="0.3"/>
<path d="M-2 -0 L-2 -4 L-1 -6 L-1 -10 L1 -12 L2 -12 L4 -11 L6 -12 L8 -11 L11 -12 L13 -11 L14 -12 L17 -9 L15 -7 L12 -1 L11 -1 L10 -1 L8 -0 L7 2 L3 3 L0 -0 L-2 -0 Z" fill="#444444" stroke="#222222" stroke-width="0.3"/>
<path d="M17 -11 L17 -10 L17 -8 L18 -6 L16 -6 L16 -5 L18 -4 L18 -2 L17 -0 L17 2 L19 5 L19 7 L16 6 L9 6 L9 5 L7 3 L8 1 L8 -0 L10 -1 L11 -1 L12 -1 L15 -7 L17 -9 L17 -9 L16 -10 L17 -11 Z" fill="#444444" stroke="#222222" stroke-width="0.3"/>
<path d="M-5 -8 L-5 -7 L-4 -5 L-3 0 L-5 0 L-6 -1 L-5 -3 L-6 -6 L-7 -7 L-6 -8 L-5 -8 Z" fill="#444444" stroke="#222222" stroke-width="0.3"/>
<path d="M-6 -8 L-5 -3 L-6 -1 L-5 0 L-10 2 L-11 2 L-12 -0 L-11 -3 L-11 -8 L-6 -8 Z" fill="#444444" stroke="#222222" stroke-width="0.3"/>
<path d="M-19 -6 L-17 -6 L-16 -7 L-16 -6 L-15 -7 L-13 -6 L-12 -6 L-11 -6 L-11 -3 L-12 -0 L-11 2 L-14 2 L-19 3 L-19 1 L-20 -1 L-20 -3 L-19 -4 L-20 -6 L-19 -6 Z" fill="#444444" stroke="#222222" stroke-width="0.3"/>
<path d="M-28 -10 L-25 -10 L-25 -9 L-24 -10 L-23 -9 L-21 -10 L-20 -8 L-20 -7 L-20 -7 L-19 -6 L-20 -6 L-19 -4 L-20 -3 L-20 -2 L-21 -2 L-22 -4 L-23 -4 L-23 -5 L-24 -6 L-26 -6 L-28 -4 L-31 -8 L-30 -9 L-28 -9 L-28 -10 Z" fill="#444444" stroke="#222222" stroke-width="0.3"/>
<path d="M-33 -10 L-28 -10 L-28 -9 L-30 -9 L-31 -8 L-32 -9 L-33 -10 Z" fill="#444444" stroke="#222222" stroke-width="0.3"/>
<path d="M-20 -2 L-20 -1 L-19 1 L-19 3 L-21 2 L-25 -1 L-23 -4 L-22 -4 L-21 -2 L-20 -2 Z" fill="#444444" stroke="#222222" stroke-width="0.3"/>
<path d="M-28 -4 L-26 -6 L-24 -6 L-23 -5 L-23 -4 L-23 -4 L-25 -1 L-27 -3 L-28 -4 Z" fill="#444444" stroke="#222222" stroke-width="0.3"/>
<path d="M-15 -7 L-15 -9 L-14 -10 L-13 -11 L-11 -12 L-8 -14 L-6 -14 L-6 -13 L-5 -11 L-3 -10 L-3 -9 L-5 -8 L-11 -8 L-11 -6 L-12 -6 L-13 -6 L-15 -7 Z" fill="#444444" stroke="#222222" stroke-width="0.3"/>
<path d="M37 1 L35 1 L33 2 L33 2 L31 2 L30 2 L29 3 L25 2 L23 3 L23 4 L21 4 L19 6 L19 5 L17 2 L17 1 L17 -0 L18 -2 L22 -3 L24 -4 L24 -5 L26 -5 L27 -5 L28 -7 L30 -8 L31 -6 L31 -4 L34 -3 L36 0 L37 1 Z" fill="#444444" stroke="#222222" stroke-width="0.3"/>
<path d="M23 4 L22 11 L20 13 L19 14 L19 15 L17 18 L16 17 L15 17 L15 18 L14 17 L13 18 L11 16 L13 15 L12 14 L14 14 L14 13 L15 14 L16 14 L17 12 L16 11 L16 10 L16 8 L15 8 L14 6 L19 7 L20 5 L21 4 L23 4 Z" fill="#444444" stroke="#222222" stroke-width="0.3"/>
<path d="M12 6 L14 6 L15 8 L16 8 L16 10 L16 11 L17 12 L16 14 L15 14 L14 13 L14 14 L12 14 L13 15 L11 16 L8 12 L9 8 L12 8 L12 6 Z" fill="#444444" stroke="#222222" stroke-width="0.3"/>
<path d="M9 6 L12 6 L12 8 L9 8 L8 8 L9 6 Z" fill="#444444" stroke="#222222" stroke-width="0.3"/>
<path d="M43 23 L47 25 L47 27 L46 28 L47 30 L46 32 L47 32 L42 33 L42 35 L40 35 L37 38 L34 38 L33 38 L31 38 L29 36 L29 30 L32 30 L32 27 L32 27 L32 28 L34 28 L35 29 L36 29 L37 28 L37 29 L39 29 L40 31 L41 31 L41 29 L40 30 L39 29 L39 25 L39 24 L40 23 L43 23 Z" fill="#444444" stroke="#222222" stroke-width="0.3"/>
<path d="M46 25 L47 25 L48 26 L49 32 L50 32 L51 33 L51 35 L50 36 L50 37 L49 36 L49 33 L46 32 L47 30 L46 28 L47 27 L46 25 Z" fill="#444444" stroke="#222222" stroke-width="0.3"/>
<path d="M49 28 L53 28 L57 27 L58 26 L59 33 L57 37 L53 38 L49 41 L49 43 L50 45 L50 48 L46 50 L46 51 L46 52 L46 53 L45 53 L44 51 L45 49 L43 45 L46 42 L46 37 L43 35 L42 35 L42 33 L47 32 L49 33 L49 36 L50 37 L50 36 L51 35 L51 33 L50 32 L49 32 L48 29 L49 28 Z" fill="#444444" stroke="#222222" stroke-width="0.3"/>
<path d="M45 53 L44 53 L44 53 L43 53 L43 51 L44 51 L45 53 Z" fill="#444444" stroke="#222222" stroke-width="0.3"/>
<path d="M14 17 L14 18 L13 19 L13 18 L14 17 L14 17 Z M13 20 L20 19 L21 23 L24 23 L25 21 L26 21 L26 21 L26 21 L28 21 L29 28 L31 27 L32 27 L32 28 L32 30 L29 30 L29 36 L31 38 L28 38 L24 38 L23 37 L16 38 L15 37 L12 37 L13 33 L15 29 L16 28 L14 24 L15 24 L13 20 Z" fill="#444444" stroke="#222222" stroke-width="0.3"/>
<path d="M42 14 L43 15 L41 17 L40 17 L40 14 L41 14 L41 14 L42 14 Z" fill="#444444" stroke="#222222" stroke-width="0.3"/>
<path d="M72 29 L74 31 L74 35 L74 35 L73 34 L73 35 L73 37 L69 50 L66 51 L64 50 L63 46 L63 44 L64 44 L65 41 L64 38 L65 36 L68 35 L70 33 L70 32 L70 32 L71 32 L72 29 Z" fill="#444444" stroke="#222222" stroke-width="0.3"/>
<path d="M-33 -12 L-31 -12 L-30 -12 L-29 -12 L-29 -12 L-33 -11 L-33 -12 Z" fill="#444444" stroke="#222222" stroke-width="0.3"/>
<path d="M9 -39 L8 -41 L6 -43 L6 -45 L7 -46 L7 -49 L9 -50 L10 -50 L10 -49 L11 -49 L11 -48 L10 -48 L11 -47 L11 -46 L10 -45 L10 -44 L11 -44 L12 -43 L12 -42 L9 -40 L9 -39 L9 -39 Z" fill="#444444" stroke="#222222" stroke-width="0.3"/>
<path d="M-20 -34 L-20 -36 L-15 -38 L-14 -39 L-12 -40 L-12 -41 L-9 -42 L-8 -42 L-10 -46 L-8 -47 L-4 -49 L2 -49 L4 -49 L7 -49 L7 -46 L6 -45 L6 -43 L8 -41 L9 -37 L9 -33 L8 -32 L10 -29 L11 -29 L13 -28 L3 -22 L-1 -21 L-1 -22 L-3 -22 L-4 -23 L-20 -34 Z" fill="#444444" stroke="#222222" stroke-width="0.3"/>
<path d="M52 -13 L52 -17 L55 -19 L56 -16 L62 -10 L61 -10 L59 -13 L58 -13 L56 -14 L55 -13 L54 -14 L54 -13 L52 -13 Z" fill="#444444" stroke="#222222" stroke-width="0.3"/>
<path d="M-10 -46 L-8 -42 L-9 -42 L-12 -41 L-12 -40 L-14 -39 L-15 -38 L-20 -36 L-21 -34 L-25 -33 L-26 -30 L-29 -28 L-30 -25 L-34 -24 L-32 -28 L-31 -29 L-30 -32 L-28 -33 L-27 -35 L-25 -35 L-22 -38 L-22 -40 L-21 -42 L-20 -43 L-17 -45 L-16 -47 L-15 -47 L-14 -47 L-10 -46 Z" fill="#444444" stroke="#222222" stroke-width="0.3"/>
<path d="M52 -25 L34 -25 L34 -37 L33 -38 L33 -40 L34 -41 L36 -41 L40 -40 L43 -41 L44 -40 L45 -40 L45 -40 L48 -40 L48 -40 L49 -37 L48 -35 L48 -34 L47 -36 L45 -38 L48 -32 L51 -28 L50 -27 L52 -25 Z" fill="#444444" stroke="#222222" stroke-width="0.3"/>
<path d="M34 -37 L34 -22 L32 -22 L32 -21 L19 -28 L16 -26 L15 -27 L13 -28 L11 -29 L10 -29 L8 -32 L9 -33 L9 -36 L9 -39 L9 -39 L9 -40 L12 -42 L12 -43 L18 -42 L19 -40 L24 -39 L26 -40 L25 -41 L27 -42 L30 -42 L31 -42 L33 -41 L34 -41 L33 -40 L33 -38 L34 -37 Z" fill="#444444" stroke="#222222" stroke-width="0.3"/>
<path d="M70 -3 L65 2 L63 2 L60 4 L59 4 L59 3 L57 4 L54 4 L52 3 L51 3 L51 2 L51 1 L50 1 L49 -1 L47 -3 L46 -3 L47 -4 L48 -4 L48 -7 L51 -10 L52 -13 L54 -13 L54 -14 L55 -13 L56 -14 L58 -13 L60 -12 L61 -10 L60 -9 L60 -8 L62 -8 L62 -7 L63 -5 L69 -3 L70 -3 Z" fill="#444444" stroke="#222222" stroke-width="0.3"/>
<path d="M61 -10 L62 -10 L63 -10 L63 -9 L62 -9 L63 -8 L62 -8 L60 -8 L60 -9 L61 -10 Z" fill="#444444" stroke="#222222" stroke-width="0.3"/>
<path d="M72 -8 L72 -5 L70 -3 L69 -3 L63 -5 L62 -7 L63 -8 L64 -7 L72 -8 Z" fill="#444444" stroke="#222222" stroke-width="0.3"/>
<path d="M48 11 L43 11 L41 12 L41 9 L43 6 L43 6 L43 4 L43 4 L45 4 L47 4 L48 3 L49 4 L50 7 L48 10 L48 11 Z" fill="#444444" stroke="#222222" stroke-width="0.3"/>
<path d="M42 12 L43 13 L43 13 L41 14 L41 14 L40 14 L40 12 L42 12 Z" fill="#444444" stroke="#222222" stroke-width="0.3"/>
<path d="M43 4 L41 2 L38 3 L37 1 L36 0 L35 -1 L34 -2 L34 -3 L32 -4 L33 -4 L34 -7 L35 -7 L36 -5 L40 -5 L42 -7 L43 -6 L44 -6 L45 -8 L45 -9 L47 -10 L47 -7 L47 -7 L48 -4 L48 -4 L47 -4 L46 -3 L47 -3 L48 -2 L50 1 L47 4 L45 4 L43 4 L43 4 Z" fill="#444444" stroke="#222222" stroke-width="0.3"/>
</svg>